<svg xmlns="http://www.w3.org/2000/svg" width="702" height="443" viewBox="0 0 702 443"><defs><style>.cls-1{fill:#fff;}.cls-2{fill:#3fa9f5;}.cls-3{fill:#ed1c24;}.cls-4{fill:#fbb03b;}.cls-5{fill:none;stroke:#fbb03b;stroke-linecap:round;stroke-linejoin:round;stroke-width:30px;}</style></defs><title>Risorsa 3</title><g id="Livello_2" data-name="Livello 2"><g id="Livello_4" data-name="Livello 4"><path class="cls-1" d="M93,375a27,27,0,0,1-27-27V332a27,27,0,0,1,27-27h19V137H93a27,27,0,0,1-27-27V94A27,27,0,0,1,93,67H201a27,27,0,0,1,27,27v16a27,27,0,0,1-27,27H182V305h19a27,27,0,0,1,27,27v16a27,27,0,0,1-27,27Z"/><path class="cls-2" d="M201,82a12,12,0,0,1,12,12v16a12,12,0,0,1-12,12H179a12,12,0,0,0-12,12V308a12,12,0,0,0,12,12h22a12,12,0,0,1,12,12v16a12,12,0,0,1-12,12H93a12,12,0,0,1-12-12V332a12,12,0,0,1,12-12h22a12,12,0,0,0,12-12V134a12,12,0,0,0-12-12H93a12,12,0,0,1-12-12V94A12,12,0,0,1,93,82H201m0-30H93A42,42,0,0,0,51,94v16a42,42,0,0,0,42,42h4V290H93a42,42,0,0,0-42,42v16a42,42,0,0,0,42,42H201a42,42,0,0,0,42-42V332a42,42,0,0,0-42-42h-4V152h4a42,42,0,0,0,42-42V94a42,42,0,0,0-42-42Z"/><circle class="cls-1" cx="302.5" cy="220.5" r="68.5"/><path class="cls-3" d="M302.5,167A53.5,53.5,0,1,1,249,220.5,53.5,53.5,0,0,1,302.5,167m0-30A83.5,83.5,0,1,0,386,220.5,83.6,83.6,0,0,0,302.5,137Z"/><path class="cls-1" d="M567.8,374c-9.06,0-17.36-3.49-22.77-9.57l-48.28-54.16v38.87c0,13.94-12.63,24.86-28.74,24.86H439.74C423.62,374,411,363.08,411,349.14V91.86C411,77.92,423.62,67,439.74,67H468c16.11,0,28.74,10.92,28.74,24.86V119.5L535,76.57c5.42-6.08,13.72-9.57,22.77-9.57h35.54c11.51,0,21.62,6,25.75,15.19A21.89,21.89,0,0,1,615.18,106l-97.1,108.93,107.1,120.17a21.91,21.91,0,0,1,3.9,23.76C624.94,368,614.83,374,603.33,374Z"/><path class="cls-4" d="M593.32,82c10,0,16,7.92,10.66,14l-86,96.48-20,22.43,20,22.44L614,345c5.38,6.05-.67,14-10.66,14H567.8c-4.69,0-9-1.71-11.57-4.55L518,311.55,481.75,270.9v78.24c0,5.45-6.15,9.86-13.74,9.86H439.73c-7.58,0-13.73-4.41-13.73-9.86V91.86c0-5.45,6.15-9.86,13.73-9.86H468c7.59,0,13.74,4.41,13.74,9.86v67L518,118.22l28.23-31.67c2.52-2.84,6.88-4.55,11.57-4.55h35.54m0-30H557.78c-13.33,0-25.71,5.32-34,14.59l-13.46,15.1a39.21,39.21,0,0,0-15.14-21.18A46.93,46.93,0,0,0,468,52H439.73a46.93,46.93,0,0,0-27.2,8.51C402,68.05,396,79.48,396,91.86V349.14c0,12.38,6,23.81,16.53,31.35a46.93,46.93,0,0,0,27.2,8.51H468a46.93,46.93,0,0,0,27.2-8.51c10.37-7.44,16.38-18.66,16.53-30.85l22.09,24.78c8.26,9.26,20.64,14.58,34,14.58h35.53c17.41,0,32.89-9.44,39.44-24.06a36.73,36.73,0,0,0-6.39-39.87l-96-107.71-2.21-2.48,2.2-2.47,86-96.48a36.71,36.71,0,0,0,6.39-39.87C626.21,61.44,610.73,52,593.32,52Z"/><rect class="cls-5" x="15" y="15" width="672" height="413" rx="52.7"/></g></g></svg>