<?xml version="1.0" encoding="UTF-8" standalone="yes" ?>
<!DOCTYPE xmeml>
<xmeml version="4">

  <project>
    <name>Antonio</name>
    <children>
      <sequence MZ.Sequence.EditingModeGUID="35d109db-457b-43c1-9452-9cb7be9f121c" explodedTracks="true" id="sequence-1">
        <uuid>9b6021a3-38f2-4f9f-863d-605d77788144</uuid>
        <duration>162</duration>
        <rate>
          <timebase>24</timebase>
          <ntsc>FALSE</ntsc>
        </rate>
        <name>Antonio</name>
        <media>
          <video>
            <track>
              <clipitem frameBlend="FALSE" id="clipitem-165">
                <name>Antonio.000.png</name>
                <masterclipid>masterclip-2</masterclipid>
                <rate>
                  <timebase>24</timebase>
                  <ntsc>FALSE</ntsc>
                </rate>
                <duration>1</duration>
                <enabled>TRUE</enabled>
                <alphatype>straight</alphatype>
                <rate>
                  <timebase>24</timebase>
                  <ntsc>FALSE</ntsc>
                </rate>
                <enabled>TRUE</enabled>
                <start>0</start>
                <end>1</end>
                <file id="file-2"/>
              </clipitem>
              <clipitem frameBlend="FALSE" id="clipitem-166">
                <name>Antonio.001.png</name>
                <masterclipid>masterclip-3</masterclipid>
                <rate>
                  <timebase>24</timebase>
                  <ntsc>FALSE</ntsc>
                </rate>
                <duration>1</duration>
                <enabled>TRUE</enabled>
                <alphatype>straight</alphatype>
                <rate>
                  <timebase>24</timebase>
                  <ntsc>FALSE</ntsc>
                </rate>
                <enabled>TRUE</enabled>
                <start>1</start>
                <end>2</end>
                <file id="file-3"/>
              </clipitem>
              <clipitem frameBlend="FALSE" id="clipitem-167">
                <name>Antonio.002.png</name>
                <masterclipid>masterclip-4</masterclipid>
                <rate>
                  <timebase>24</timebase>
                  <ntsc>FALSE</ntsc>
                </rate>
                <duration>1</duration>
                <enabled>TRUE</enabled>
                <alphatype>straight</alphatype>
                <rate>
                  <timebase>24</timebase>
                  <ntsc>FALSE</ntsc>
                </rate>
                <enabled>TRUE</enabled>
                <start>2</start>
                <end>3</end>
                <file id="file-4"/>
              </clipitem>
              <clipitem frameBlend="FALSE" id="clipitem-168">
                <name>Antonio.003.png</name>
                <masterclipid>masterclip-5</masterclipid>
                <rate>
                  <timebase>24</timebase>
                  <ntsc>FALSE</ntsc>
                </rate>
                <duration>1</duration>
                <enabled>TRUE</enabled>
                <alphatype>straight</alphatype>
                <rate>
                  <timebase>24</timebase>
                  <ntsc>FALSE</ntsc>
                </rate>
                <enabled>TRUE</enabled>
                <start>3</start>
                <end>4</end>
                <file id="file-5"/>
              </clipitem>
              <clipitem frameBlend="FALSE" id="clipitem-169">
                <name>Antonio.004.png</name>
                <masterclipid>masterclip-6</masterclipid>
                <rate>
                  <timebase>24</timebase>
                  <ntsc>FALSE</ntsc>
                </rate>
                <duration>1</duration>
                <enabled>TRUE</enabled>
                <alphatype>straight</alphatype>
                <rate>
                  <timebase>24</timebase>
                  <ntsc>FALSE</ntsc>
                </rate>
                <enabled>TRUE</enabled>
                <start>4</start>
                <end>5</end>
                <file id="file-6"/>
              </clipitem>
              <clipitem frameBlend="FALSE" id="clipitem-170">
                <name>Antonio.005.png</name>
                <masterclipid>masterclip-7</masterclipid>
                <rate>
                  <timebase>24</timebase>
                  <ntsc>FALSE</ntsc>
                </rate>
                <duration>1</duration>
                <enabled>TRUE</enabled>
                <alphatype>straight</alphatype>
                <rate>
                  <timebase>24</timebase>
                  <ntsc>FALSE</ntsc>
                </rate>
                <enabled>TRUE</enabled>
                <start>5</start>
                <end>6</end>
                <file id="file-7"/>
              </clipitem>
              <clipitem frameBlend="FALSE" id="clipitem-171">
                <name>Antonio.006.png</name>
                <masterclipid>masterclip-8</masterclipid>
                <rate>
                  <timebase>24</timebase>
                  <ntsc>FALSE</ntsc>
                </rate>
                <duration>1</duration>
                <enabled>TRUE</enabled>
                <alphatype>straight</alphatype>
                <rate>
                  <timebase>24</timebase>
                  <ntsc>FALSE</ntsc>
                </rate>
                <enabled>TRUE</enabled>
                <start>6</start>
                <end>7</end>
                <file id="file-8"/>
              </clipitem>
              <clipitem frameBlend="FALSE" id="clipitem-172">
                <name>Antonio.007.png</name>
                <masterclipid>masterclip-9</masterclipid>
                <rate>
                  <timebase>24</timebase>
                  <ntsc>FALSE</ntsc>
                </rate>
                <duration>1</duration>
                <enabled>TRUE</enabled>
                <alphatype>straight</alphatype>
                <rate>
                  <timebase>24</timebase>
                  <ntsc>FALSE</ntsc>
                </rate>
                <enabled>TRUE</enabled>
                <start>7</start>
                <end>8</end>
                <file id="file-9"/>
              </clipitem>
              <clipitem frameBlend="FALSE" id="clipitem-173">
                <name>Antonio.008.png</name>
                <masterclipid>masterclip-10</masterclipid>
                <rate>
                  <timebase>24</timebase>
                  <ntsc>FALSE</ntsc>
                </rate>
                <duration>1</duration>
                <enabled>TRUE</enabled>
                <alphatype>straight</alphatype>
                <rate>
                  <timebase>24</timebase>
                  <ntsc>FALSE</ntsc>
                </rate>
                <enabled>TRUE</enabled>
                <start>8</start>
                <end>9</end>
                <file id="file-10"/>
              </clipitem>
              <clipitem frameBlend="FALSE" id="clipitem-174">
                <name>Antonio.009.png</name>
                <masterclipid>masterclip-11</masterclipid>
                <rate>
                  <timebase>24</timebase>
                  <ntsc>FALSE</ntsc>
                </rate>
                <duration>1</duration>
                <enabled>TRUE</enabled>
                <alphatype>straight</alphatype>
                <rate>
                  <timebase>24</timebase>
                  <ntsc>FALSE</ntsc>
                </rate>
                <enabled>TRUE</enabled>
                <start>9</start>
                <end>10</end>
                <file id="file-11"/>
              </clipitem>
              <clipitem frameBlend="FALSE" id="clipitem-175">
                <name>Antonio.010.png</name>
                <masterclipid>masterclip-12</masterclipid>
                <rate>
                  <timebase>24</timebase>
                  <ntsc>FALSE</ntsc>
                </rate>
                <duration>1</duration>
                <enabled>TRUE</enabled>
                <alphatype>straight</alphatype>
                <rate>
                  <timebase>24</timebase>
                  <ntsc>FALSE</ntsc>
                </rate>
                <enabled>TRUE</enabled>
                <start>10</start>
                <end>11</end>
                <file id="file-12"/>
              </clipitem>
              <clipitem frameBlend="FALSE" id="clipitem-176">
                <name>Antonio.011.png</name>
                <masterclipid>masterclip-13</masterclipid>
                <rate>
                  <timebase>24</timebase>
                  <ntsc>FALSE</ntsc>
                </rate>
                <duration>1</duration>
                <enabled>TRUE</enabled>
                <alphatype>straight</alphatype>
                <rate>
                  <timebase>24</timebase>
                  <ntsc>FALSE</ntsc>
                </rate>
                <enabled>TRUE</enabled>
                <start>11</start>
                <end>12</end>
                <file id="file-13"/>
              </clipitem>
              <clipitem frameBlend="FALSE" id="clipitem-177">
                <name>Antonio.012.png</name>
                <masterclipid>masterclip-14</masterclipid>
                <rate>
                  <timebase>24</timebase>
                  <ntsc>FALSE</ntsc>
                </rate>
                <duration>1</duration>
                <enabled>TRUE</enabled>
                <alphatype>straight</alphatype>
                <rate>
                  <timebase>24</timebase>
                  <ntsc>FALSE</ntsc>
                </rate>
                <enabled>TRUE</enabled>
                <start>12</start>
                <end>13</end>
                <file id="file-14"/>
              </clipitem>
              <clipitem frameBlend="FALSE" id="clipitem-178">
                <name>Antonio.013.png</name>
                <masterclipid>masterclip-15</masterclipid>
                <rate>
                  <timebase>24</timebase>
                  <ntsc>FALSE</ntsc>
                </rate>
                <duration>1</duration>
                <enabled>TRUE</enabled>
                <alphatype>straight</alphatype>
                <rate>
                  <timebase>24</timebase>
                  <ntsc>FALSE</ntsc>
                </rate>
                <enabled>TRUE</enabled>
                <start>13</start>
                <end>14</end>
                <file id="file-15"/>
              </clipitem>
              <clipitem frameBlend="FALSE" id="clipitem-179">
                <name>Antonio.014.png</name>
                <masterclipid>masterclip-16</masterclipid>
                <rate>
                  <timebase>24</timebase>
                  <ntsc>FALSE</ntsc>
                </rate>
                <duration>1</duration>
                <enabled>TRUE</enabled>
                <alphatype>straight</alphatype>
                <rate>
                  <timebase>24</timebase>
                  <ntsc>FALSE</ntsc>
                </rate>
                <enabled>TRUE</enabled>
                <start>14</start>
                <end>15</end>
                <file id="file-16"/>
              </clipitem>
              <clipitem frameBlend="FALSE" id="clipitem-180">
                <name>Antonio.015.png</name>
                <masterclipid>masterclip-17</masterclipid>
                <rate>
                  <timebase>24</timebase>
                  <ntsc>FALSE</ntsc>
                </rate>
                <duration>1</duration>
                <enabled>TRUE</enabled>
                <alphatype>straight</alphatype>
                <rate>
                  <timebase>24</timebase>
                  <ntsc>FALSE</ntsc>
                </rate>
                <enabled>TRUE</enabled>
                <start>15</start>
                <end>16</end>
                <file id="file-17"/>
              </clipitem>
              <clipitem frameBlend="FALSE" id="clipitem-181">
                <name>Antonio.016.png</name>
                <masterclipid>masterclip-18</masterclipid>
                <rate>
                  <timebase>24</timebase>
                  <ntsc>FALSE</ntsc>
                </rate>
                <duration>1</duration>
                <enabled>TRUE</enabled>
                <alphatype>straight</alphatype>
                <rate>
                  <timebase>24</timebase>
                  <ntsc>FALSE</ntsc>
                </rate>
                <enabled>TRUE</enabled>
                <start>16</start>
                <end>17</end>
                <file id="file-18"/>
              </clipitem>
              <clipitem frameBlend="FALSE" id="clipitem-182">
                <name>Antonio.017.png</name>
                <masterclipid>masterclip-19</masterclipid>
                <rate>
                  <timebase>24</timebase>
                  <ntsc>FALSE</ntsc>
                </rate>
                <duration>1</duration>
                <enabled>TRUE</enabled>
                <alphatype>straight</alphatype>
                <rate>
                  <timebase>24</timebase>
                  <ntsc>FALSE</ntsc>
                </rate>
                <enabled>TRUE</enabled>
                <start>17</start>
                <end>18</end>
                <file id="file-19"/>
              </clipitem>
              <clipitem frameBlend="FALSE" id="clipitem-183">
                <name>Antonio.018.png</name>
                <masterclipid>masterclip-20</masterclipid>
                <rate>
                  <timebase>24</timebase>
                  <ntsc>FALSE</ntsc>
                </rate>
                <duration>1</duration>
                <enabled>TRUE</enabled>
                <alphatype>straight</alphatype>
                <rate>
                  <timebase>24</timebase>
                  <ntsc>FALSE</ntsc>
                </rate>
                <enabled>TRUE</enabled>
                <start>18</start>
                <end>19</end>
                <file id="file-20"/>
              </clipitem>
              <clipitem frameBlend="FALSE" id="clipitem-184">
                <name>Antonio.019.png</name>
                <masterclipid>masterclip-21</masterclipid>
                <rate>
                  <timebase>24</timebase>
                  <ntsc>FALSE</ntsc>
                </rate>
                <duration>1</duration>
                <enabled>TRUE</enabled>
                <alphatype>straight</alphatype>
                <rate>
                  <timebase>24</timebase>
                  <ntsc>FALSE</ntsc>
                </rate>
                <enabled>TRUE</enabled>
                <start>19</start>
                <end>20</end>
                <file id="file-21"/>
              </clipitem>
              <clipitem frameBlend="FALSE" id="clipitem-185">
                <name>Antonio.020.png</name>
                <masterclipid>masterclip-22</masterclipid>
                <rate>
                  <timebase>24</timebase>
                  <ntsc>FALSE</ntsc>
                </rate>
                <duration>1</duration>
                <enabled>TRUE</enabled>
                <alphatype>straight</alphatype>
                <rate>
                  <timebase>24</timebase>
                  <ntsc>FALSE</ntsc>
                </rate>
                <enabled>TRUE</enabled>
                <start>20</start>
                <end>21</end>
                <file id="file-22"/>
              </clipitem>
              <clipitem frameBlend="FALSE" id="clipitem-186">
                <name>Antonio.021.png</name>
                <masterclipid>masterclip-23</masterclipid>
                <rate>
                  <timebase>24</timebase>
                  <ntsc>FALSE</ntsc>
                </rate>
                <duration>1</duration>
                <enabled>TRUE</enabled>
                <alphatype>straight</alphatype>
                <rate>
                  <timebase>24</timebase>
                  <ntsc>FALSE</ntsc>
                </rate>
                <enabled>TRUE</enabled>
                <start>21</start>
                <end>22</end>
                <file id="file-23"/>
              </clipitem>
              <clipitem frameBlend="FALSE" id="clipitem-187">
                <name>Antonio.022.png</name>
                <masterclipid>masterclip-24</masterclipid>
                <rate>
                  <timebase>24</timebase>
                  <ntsc>FALSE</ntsc>
                </rate>
                <duration>1</duration>
                <enabled>TRUE</enabled>
                <alphatype>straight</alphatype>
                <rate>
                  <timebase>24</timebase>
                  <ntsc>FALSE</ntsc>
                </rate>
                <enabled>TRUE</enabled>
                <start>22</start>
                <end>23</end>
                <file id="file-24"/>
              </clipitem>
              <clipitem frameBlend="FALSE" id="clipitem-188">
                <name>Antonio.023.png</name>
                <masterclipid>masterclip-25</masterclipid>
                <rate>
                  <timebase>24</timebase>
                  <ntsc>FALSE</ntsc>
                </rate>
                <duration>1</duration>
                <enabled>TRUE</enabled>
                <alphatype>straight</alphatype>
                <rate>
                  <timebase>24</timebase>
                  <ntsc>FALSE</ntsc>
                </rate>
                <enabled>TRUE</enabled>
                <start>23</start>
                <end>24</end>
                <file id="file-25"/>
              </clipitem>
              <clipitem frameBlend="FALSE" id="clipitem-189">
                <name>Antonio.024.png</name>
                <masterclipid>masterclip-26</masterclipid>
                <rate>
                  <timebase>24</timebase>
                  <ntsc>FALSE</ntsc>
                </rate>
                <duration>1</duration>
                <enabled>TRUE</enabled>
                <alphatype>straight</alphatype>
                <rate>
                  <timebase>24</timebase>
                  <ntsc>FALSE</ntsc>
                </rate>
                <enabled>TRUE</enabled>
                <start>24</start>
                <end>25</end>
                <file id="file-26"/>
              </clipitem>
              <clipitem frameBlend="FALSE" id="clipitem-190">
                <name>Antonio.025.png</name>
                <masterclipid>masterclip-27</masterclipid>
                <rate>
                  <timebase>24</timebase>
                  <ntsc>FALSE</ntsc>
                </rate>
                <duration>1</duration>
                <enabled>TRUE</enabled>
                <alphatype>straight</alphatype>
                <rate>
                  <timebase>24</timebase>
                  <ntsc>FALSE</ntsc>
                </rate>
                <enabled>TRUE</enabled>
                <start>25</start>
                <end>26</end>
                <file id="file-27"/>
              </clipitem>
              <clipitem frameBlend="FALSE" id="clipitem-191">
                <name>Antonio.026.png</name>
                <masterclipid>masterclip-28</masterclipid>
                <rate>
                  <timebase>24</timebase>
                  <ntsc>FALSE</ntsc>
                </rate>
                <duration>1</duration>
                <enabled>TRUE</enabled>
                <alphatype>straight</alphatype>
                <rate>
                  <timebase>24</timebase>
                  <ntsc>FALSE</ntsc>
                </rate>
                <enabled>TRUE</enabled>
                <start>26</start>
                <end>27</end>
                <file id="file-28"/>
              </clipitem>
              <clipitem frameBlend="FALSE" id="clipitem-192">
                <name>Antonio.027.png</name>
                <masterclipid>masterclip-29</masterclipid>
                <rate>
                  <timebase>24</timebase>
                  <ntsc>FALSE</ntsc>
                </rate>
                <duration>1</duration>
                <enabled>TRUE</enabled>
                <alphatype>straight</alphatype>
                <rate>
                  <timebase>24</timebase>
                  <ntsc>FALSE</ntsc>
                </rate>
                <enabled>TRUE</enabled>
                <start>27</start>
                <end>28</end>
                <file id="file-29"/>
              </clipitem>
              <clipitem frameBlend="FALSE" id="clipitem-193">
                <name>Antonio.028.png</name>
                <masterclipid>masterclip-30</masterclipid>
                <rate>
                  <timebase>24</timebase>
                  <ntsc>FALSE</ntsc>
                </rate>
                <duration>1</duration>
                <enabled>TRUE</enabled>
                <alphatype>straight</alphatype>
                <rate>
                  <timebase>24</timebase>
                  <ntsc>FALSE</ntsc>
                </rate>
                <enabled>TRUE</enabled>
                <start>28</start>
                <end>29</end>
                <file id="file-30"/>
              </clipitem>
              <clipitem frameBlend="FALSE" id="clipitem-194">
                <name>Antonio.029.png</name>
                <masterclipid>masterclip-31</masterclipid>
                <rate>
                  <timebase>24</timebase>
                  <ntsc>FALSE</ntsc>
                </rate>
                <duration>1</duration>
                <enabled>TRUE</enabled>
                <alphatype>straight</alphatype>
                <rate>
                  <timebase>24</timebase>
                  <ntsc>FALSE</ntsc>
                </rate>
                <enabled>TRUE</enabled>
                <start>29</start>
                <end>30</end>
                <file id="file-31"/>
              </clipitem>
              <clipitem frameBlend="FALSE" id="clipitem-195">
                <name>Antonio.030.png</name>
                <masterclipid>masterclip-32</masterclipid>
                <rate>
                  <timebase>24</timebase>
                  <ntsc>FALSE</ntsc>
                </rate>
                <duration>1</duration>
                <enabled>TRUE</enabled>
                <alphatype>straight</alphatype>
                <rate>
                  <timebase>24</timebase>
                  <ntsc>FALSE</ntsc>
                </rate>
                <enabled>TRUE</enabled>
                <start>30</start>
                <end>31</end>
                <file id="file-32"/>
              </clipitem>
              <clipitem frameBlend="FALSE" id="clipitem-196">
                <name>Antonio.031.png</name>
                <masterclipid>masterclip-33</masterclipid>
                <rate>
                  <timebase>24</timebase>
                  <ntsc>FALSE</ntsc>
                </rate>
                <duration>1</duration>
                <enabled>TRUE</enabled>
                <alphatype>straight</alphatype>
                <rate>
                  <timebase>24</timebase>
                  <ntsc>FALSE</ntsc>
                </rate>
                <enabled>TRUE</enabled>
                <start>31</start>
                <end>32</end>
                <file id="file-33"/>
              </clipitem>
              <clipitem frameBlend="FALSE" id="clipitem-197">
                <name>Antonio.032.png</name>
                <masterclipid>masterclip-34</masterclipid>
                <rate>
                  <timebase>24</timebase>
                  <ntsc>FALSE</ntsc>
                </rate>
                <duration>1</duration>
                <enabled>TRUE</enabled>
                <alphatype>straight</alphatype>
                <rate>
                  <timebase>24</timebase>
                  <ntsc>FALSE</ntsc>
                </rate>
                <enabled>TRUE</enabled>
                <start>32</start>
                <end>33</end>
                <file id="file-34"/>
              </clipitem>
              <clipitem frameBlend="FALSE" id="clipitem-198">
                <name>Antonio.033.png</name>
                <masterclipid>masterclip-35</masterclipid>
                <rate>
                  <timebase>24</timebase>
                  <ntsc>FALSE</ntsc>
                </rate>
                <duration>1</duration>
                <enabled>TRUE</enabled>
                <alphatype>straight</alphatype>
                <rate>
                  <timebase>24</timebase>
                  <ntsc>FALSE</ntsc>
                </rate>
                <enabled>TRUE</enabled>
                <start>33</start>
                <end>34</end>
                <file id="file-35"/>
              </clipitem>
              <clipitem frameBlend="FALSE" id="clipitem-199">
                <name>Antonio.034.png</name>
                <masterclipid>masterclip-36</masterclipid>
                <rate>
                  <timebase>24</timebase>
                  <ntsc>FALSE</ntsc>
                </rate>
                <duration>1</duration>
                <enabled>TRUE</enabled>
                <alphatype>straight</alphatype>
                <rate>
                  <timebase>24</timebase>
                  <ntsc>FALSE</ntsc>
                </rate>
                <enabled>TRUE</enabled>
                <start>34</start>
                <end>35</end>
                <file id="file-36"/>
              </clipitem>
              <clipitem frameBlend="FALSE" id="clipitem-200">
                <name>Antonio.035.png</name>
                <masterclipid>masterclip-37</masterclipid>
                <rate>
                  <timebase>24</timebase>
                  <ntsc>FALSE</ntsc>
                </rate>
                <duration>1</duration>
                <enabled>TRUE</enabled>
                <alphatype>straight</alphatype>
                <rate>
                  <timebase>24</timebase>
                  <ntsc>FALSE</ntsc>
                </rate>
                <enabled>TRUE</enabled>
                <start>35</start>
                <end>36</end>
                <file id="file-37"/>
              </clipitem>
              <clipitem frameBlend="FALSE" id="clipitem-201">
                <name>Antonio.036.png</name>
                <masterclipid>masterclip-38</masterclipid>
                <rate>
                  <timebase>24</timebase>
                  <ntsc>FALSE</ntsc>
                </rate>
                <duration>1</duration>
                <enabled>TRUE</enabled>
                <alphatype>straight</alphatype>
                <rate>
                  <timebase>24</timebase>
                  <ntsc>FALSE</ntsc>
                </rate>
                <enabled>TRUE</enabled>
                <start>36</start>
                <end>37</end>
                <file id="file-38"/>
              </clipitem>
              <clipitem frameBlend="FALSE" id="clipitem-202">
                <name>Antonio.037.png</name>
                <masterclipid>masterclip-39</masterclipid>
                <rate>
                  <timebase>24</timebase>
                  <ntsc>FALSE</ntsc>
                </rate>
                <duration>1</duration>
                <enabled>TRUE</enabled>
                <alphatype>straight</alphatype>
                <rate>
                  <timebase>24</timebase>
                  <ntsc>FALSE</ntsc>
                </rate>
                <enabled>TRUE</enabled>
                <start>37</start>
                <end>38</end>
                <file id="file-39"/>
              </clipitem>
              <clipitem frameBlend="FALSE" id="clipitem-203">
                <name>Antonio.038.png</name>
                <masterclipid>masterclip-40</masterclipid>
                <rate>
                  <timebase>24</timebase>
                  <ntsc>FALSE</ntsc>
                </rate>
                <duration>1</duration>
                <enabled>TRUE</enabled>
                <alphatype>straight</alphatype>
                <rate>
                  <timebase>24</timebase>
                  <ntsc>FALSE</ntsc>
                </rate>
                <enabled>TRUE</enabled>
                <start>38</start>
                <end>39</end>
                <file id="file-40"/>
              </clipitem>
              <clipitem frameBlend="FALSE" id="clipitem-204">
                <name>Antonio.039.png</name>
                <masterclipid>masterclip-41</masterclipid>
                <rate>
                  <timebase>24</timebase>
                  <ntsc>FALSE</ntsc>
                </rate>
                <duration>1</duration>
                <enabled>TRUE</enabled>
                <alphatype>straight</alphatype>
                <rate>
                  <timebase>24</timebase>
                  <ntsc>FALSE</ntsc>
                </rate>
                <enabled>TRUE</enabled>
                <start>39</start>
                <end>40</end>
                <file id="file-41"/>
              </clipitem>
              <clipitem frameBlend="FALSE" id="clipitem-205">
                <name>Antonio.040.png</name>
                <masterclipid>masterclip-42</masterclipid>
                <rate>
                  <timebase>24</timebase>
                  <ntsc>FALSE</ntsc>
                </rate>
                <duration>1</duration>
                <enabled>TRUE</enabled>
                <alphatype>straight</alphatype>
                <rate>
                  <timebase>24</timebase>
                  <ntsc>FALSE</ntsc>
                </rate>
                <enabled>TRUE</enabled>
                <start>40</start>
                <end>41</end>
                <file id="file-42"/>
              </clipitem>
              <clipitem frameBlend="FALSE" id="clipitem-206">
                <name>Antonio.041.png</name>
                <masterclipid>masterclip-43</masterclipid>
                <rate>
                  <timebase>24</timebase>
                  <ntsc>FALSE</ntsc>
                </rate>
                <duration>1</duration>
                <enabled>TRUE</enabled>
                <alphatype>straight</alphatype>
                <rate>
                  <timebase>24</timebase>
                  <ntsc>FALSE</ntsc>
                </rate>
                <enabled>TRUE</enabled>
                <start>41</start>
                <end>42</end>
                <file id="file-43"/>
              </clipitem>
              <clipitem frameBlend="FALSE" id="clipitem-207">
                <name>Antonio.042.png</name>
                <masterclipid>masterclip-44</masterclipid>
                <rate>
                  <timebase>24</timebase>
                  <ntsc>FALSE</ntsc>
                </rate>
                <duration>1</duration>
                <enabled>TRUE</enabled>
                <alphatype>straight</alphatype>
                <rate>
                  <timebase>24</timebase>
                  <ntsc>FALSE</ntsc>
                </rate>
                <enabled>TRUE</enabled>
                <start>42</start>
                <end>43</end>
                <file id="file-44"/>
              </clipitem>
              <clipitem frameBlend="FALSE" id="clipitem-208">
                <name>Antonio.043.png</name>
                <masterclipid>masterclip-45</masterclipid>
                <rate>
                  <timebase>24</timebase>
                  <ntsc>FALSE</ntsc>
                </rate>
                <duration>1</duration>
                <enabled>TRUE</enabled>
                <alphatype>straight</alphatype>
                <rate>
                  <timebase>24</timebase>
                  <ntsc>FALSE</ntsc>
                </rate>
                <enabled>TRUE</enabled>
                <start>43</start>
                <end>44</end>
                <file id="file-45"/>
              </clipitem>
              <clipitem frameBlend="FALSE" id="clipitem-209">
                <name>Antonio.044.png</name>
                <masterclipid>masterclip-46</masterclipid>
                <rate>
                  <timebase>24</timebase>
                  <ntsc>FALSE</ntsc>
                </rate>
                <duration>1</duration>
                <enabled>TRUE</enabled>
                <alphatype>straight</alphatype>
                <rate>
                  <timebase>24</timebase>
                  <ntsc>FALSE</ntsc>
                </rate>
                <enabled>TRUE</enabled>
                <start>44</start>
                <end>45</end>
                <file id="file-46"/>
              </clipitem>
              <clipitem frameBlend="FALSE" id="clipitem-210">
                <name>Antonio.045.png</name>
                <masterclipid>masterclip-47</masterclipid>
                <rate>
                  <timebase>24</timebase>
                  <ntsc>FALSE</ntsc>
                </rate>
                <duration>1</duration>
                <enabled>TRUE</enabled>
                <alphatype>straight</alphatype>
                <rate>
                  <timebase>24</timebase>
                  <ntsc>FALSE</ntsc>
                </rate>
                <enabled>TRUE</enabled>
                <start>45</start>
                <end>46</end>
                <file id="file-47"/>
              </clipitem>
              <clipitem frameBlend="FALSE" id="clipitem-211">
                <name>Antonio.046.png</name>
                <masterclipid>masterclip-48</masterclipid>
                <rate>
                  <timebase>24</timebase>
                  <ntsc>FALSE</ntsc>
                </rate>
                <duration>1</duration>
                <enabled>TRUE</enabled>
                <alphatype>straight</alphatype>
                <rate>
                  <timebase>24</timebase>
                  <ntsc>FALSE</ntsc>
                </rate>
                <enabled>TRUE</enabled>
                <start>46</start>
                <end>47</end>
                <file id="file-48"/>
              </clipitem>
              <clipitem frameBlend="FALSE" id="clipitem-212">
                <name>Antonio.047.png</name>
                <masterclipid>masterclip-49</masterclipid>
                <rate>
                  <timebase>24</timebase>
                  <ntsc>FALSE</ntsc>
                </rate>
                <duration>1</duration>
                <enabled>TRUE</enabled>
                <alphatype>straight</alphatype>
                <rate>
                  <timebase>24</timebase>
                  <ntsc>FALSE</ntsc>
                </rate>
                <enabled>TRUE</enabled>
                <start>47</start>
                <end>48</end>
                <file id="file-49"/>
              </clipitem>
              <clipitem frameBlend="FALSE" id="clipitem-213">
                <name>Antonio.048.png</name>
                <masterclipid>masterclip-50</masterclipid>
                <rate>
                  <timebase>24</timebase>
                  <ntsc>FALSE</ntsc>
                </rate>
                <duration>1</duration>
                <enabled>TRUE</enabled>
                <alphatype>straight</alphatype>
                <rate>
                  <timebase>24</timebase>
                  <ntsc>FALSE</ntsc>
                </rate>
                <enabled>TRUE</enabled>
                <start>48</start>
                <end>49</end>
                <file id="file-50"/>
              </clipitem>
              <clipitem frameBlend="FALSE" id="clipitem-214">
                <name>Antonio.049.png</name>
                <masterclipid>masterclip-51</masterclipid>
                <rate>
                  <timebase>24</timebase>
                  <ntsc>FALSE</ntsc>
                </rate>
                <duration>1</duration>
                <enabled>TRUE</enabled>
                <alphatype>straight</alphatype>
                <rate>
                  <timebase>24</timebase>
                  <ntsc>FALSE</ntsc>
                </rate>
                <enabled>TRUE</enabled>
                <start>49</start>
                <end>50</end>
                <file id="file-51"/>
              </clipitem>
              <clipitem frameBlend="FALSE" id="clipitem-215">
                <name>Antonio.050.png</name>
                <masterclipid>masterclip-52</masterclipid>
                <rate>
                  <timebase>24</timebase>
                  <ntsc>FALSE</ntsc>
                </rate>
                <duration>1</duration>
                <enabled>TRUE</enabled>
                <alphatype>straight</alphatype>
                <rate>
                  <timebase>24</timebase>
                  <ntsc>FALSE</ntsc>
                </rate>
                <enabled>TRUE</enabled>
                <start>50</start>
                <end>51</end>
                <file id="file-52"/>
              </clipitem>
              <clipitem frameBlend="FALSE" id="clipitem-216">
                <name>Antonio.051.png</name>
                <masterclipid>masterclip-53</masterclipid>
                <rate>
                  <timebase>24</timebase>
                  <ntsc>FALSE</ntsc>
                </rate>
                <duration>1</duration>
                <enabled>TRUE</enabled>
                <alphatype>straight</alphatype>
                <rate>
                  <timebase>24</timebase>
                  <ntsc>FALSE</ntsc>
                </rate>
                <enabled>TRUE</enabled>
                <start>51</start>
                <end>52</end>
                <file id="file-53"/>
              </clipitem>
              <clipitem frameBlend="FALSE" id="clipitem-217">
                <name>Antonio.052.png</name>
                <masterclipid>masterclip-54</masterclipid>
                <rate>
                  <timebase>24</timebase>
                  <ntsc>FALSE</ntsc>
                </rate>
                <duration>1</duration>
                <enabled>TRUE</enabled>
                <alphatype>straight</alphatype>
                <rate>
                  <timebase>24</timebase>
                  <ntsc>FALSE</ntsc>
                </rate>
                <enabled>TRUE</enabled>
                <start>52</start>
                <end>53</end>
                <file id="file-54"/>
              </clipitem>
              <clipitem frameBlend="FALSE" id="clipitem-218">
                <name>Antonio.053.png</name>
                <masterclipid>masterclip-55</masterclipid>
                <rate>
                  <timebase>24</timebase>
                  <ntsc>FALSE</ntsc>
                </rate>
                <duration>1</duration>
                <enabled>TRUE</enabled>
                <alphatype>straight</alphatype>
                <rate>
                  <timebase>24</timebase>
                  <ntsc>FALSE</ntsc>
                </rate>
                <enabled>TRUE</enabled>
                <start>53</start>
                <end>54</end>
                <file id="file-55"/>
              </clipitem>
              <clipitem frameBlend="FALSE" id="clipitem-219">
                <name>Antonio.054.png</name>
                <masterclipid>masterclip-56</masterclipid>
                <rate>
                  <timebase>24</timebase>
                  <ntsc>FALSE</ntsc>
                </rate>
                <duration>1</duration>
                <enabled>TRUE</enabled>
                <alphatype>straight</alphatype>
                <rate>
                  <timebase>24</timebase>
                  <ntsc>FALSE</ntsc>
                </rate>
                <enabled>TRUE</enabled>
                <start>54</start>
                <end>55</end>
                <file id="file-56"/>
              </clipitem>
              <clipitem frameBlend="FALSE" id="clipitem-220">
                <name>Antonio.055.png</name>
                <masterclipid>masterclip-57</masterclipid>
                <rate>
                  <timebase>24</timebase>
                  <ntsc>FALSE</ntsc>
                </rate>
                <duration>1</duration>
                <enabled>TRUE</enabled>
                <alphatype>straight</alphatype>
                <rate>
                  <timebase>24</timebase>
                  <ntsc>FALSE</ntsc>
                </rate>
                <enabled>TRUE</enabled>
                <start>55</start>
                <end>56</end>
                <file id="file-57"/>
              </clipitem>
              <clipitem frameBlend="FALSE" id="clipitem-221">
                <name>Antonio.056.png</name>
                <masterclipid>masterclip-58</masterclipid>
                <rate>
                  <timebase>24</timebase>
                  <ntsc>FALSE</ntsc>
                </rate>
                <duration>1</duration>
                <enabled>TRUE</enabled>
                <alphatype>straight</alphatype>
                <rate>
                  <timebase>24</timebase>
                  <ntsc>FALSE</ntsc>
                </rate>
                <enabled>TRUE</enabled>
                <start>56</start>
                <end>57</end>
                <file id="file-58"/>
              </clipitem>
              <clipitem frameBlend="FALSE" id="clipitem-222">
                <name>Antonio.057.png</name>
                <masterclipid>masterclip-59</masterclipid>
                <rate>
                  <timebase>24</timebase>
                  <ntsc>FALSE</ntsc>
                </rate>
                <duration>1</duration>
                <enabled>TRUE</enabled>
                <alphatype>straight</alphatype>
                <rate>
                  <timebase>24</timebase>
                  <ntsc>FALSE</ntsc>
                </rate>
                <enabled>TRUE</enabled>
                <start>57</start>
                <end>58</end>
                <file id="file-59"/>
              </clipitem>
              <clipitem frameBlend="FALSE" id="clipitem-223">
                <name>Antonio.058.png</name>
                <masterclipid>masterclip-60</masterclipid>
                <rate>
                  <timebase>24</timebase>
                  <ntsc>FALSE</ntsc>
                </rate>
                <duration>1</duration>
                <enabled>TRUE</enabled>
                <alphatype>straight</alphatype>
                <rate>
                  <timebase>24</timebase>
                  <ntsc>FALSE</ntsc>
                </rate>
                <enabled>TRUE</enabled>
                <start>58</start>
                <end>59</end>
                <file id="file-60"/>
              </clipitem>
              <clipitem frameBlend="FALSE" id="clipitem-224">
                <name>Antonio.059.png</name>
                <masterclipid>masterclip-61</masterclipid>
                <rate>
                  <timebase>24</timebase>
                  <ntsc>FALSE</ntsc>
                </rate>
                <duration>1</duration>
                <enabled>TRUE</enabled>
                <alphatype>straight</alphatype>
                <rate>
                  <timebase>24</timebase>
                  <ntsc>FALSE</ntsc>
                </rate>
                <enabled>TRUE</enabled>
                <start>59</start>
                <end>60</end>
                <file id="file-61"/>
              </clipitem>
              <clipitem frameBlend="FALSE" id="clipitem-225">
                <name>Antonio.060.png</name>
                <masterclipid>masterclip-62</masterclipid>
                <rate>
                  <timebase>24</timebase>
                  <ntsc>FALSE</ntsc>
                </rate>
                <duration>1</duration>
                <enabled>TRUE</enabled>
                <alphatype>straight</alphatype>
                <rate>
                  <timebase>24</timebase>
                  <ntsc>FALSE</ntsc>
                </rate>
                <enabled>TRUE</enabled>
                <start>60</start>
                <end>61</end>
                <file id="file-62"/>
              </clipitem>
              <clipitem frameBlend="FALSE" id="clipitem-226">
                <name>Antonio.061.png</name>
                <masterclipid>masterclip-63</masterclipid>
                <rate>
                  <timebase>24</timebase>
                  <ntsc>FALSE</ntsc>
                </rate>
                <duration>1</duration>
                <enabled>TRUE</enabled>
                <alphatype>straight</alphatype>
                <rate>
                  <timebase>24</timebase>
                  <ntsc>FALSE</ntsc>
                </rate>
                <enabled>TRUE</enabled>
                <start>61</start>
                <end>62</end>
                <file id="file-63"/>
              </clipitem>
              <clipitem frameBlend="FALSE" id="clipitem-227">
                <name>Antonio.062.png</name>
                <masterclipid>masterclip-64</masterclipid>
                <rate>
                  <timebase>24</timebase>
                  <ntsc>FALSE</ntsc>
                </rate>
                <duration>1</duration>
                <enabled>TRUE</enabled>
                <alphatype>straight</alphatype>
                <rate>
                  <timebase>24</timebase>
                  <ntsc>FALSE</ntsc>
                </rate>
                <enabled>TRUE</enabled>
                <start>62</start>
                <end>63</end>
                <file id="file-64"/>
              </clipitem>
              <clipitem frameBlend="FALSE" id="clipitem-228">
                <name>Antonio.063.png</name>
                <masterclipid>masterclip-65</masterclipid>
                <rate>
                  <timebase>24</timebase>
                  <ntsc>FALSE</ntsc>
                </rate>
                <duration>1</duration>
                <enabled>TRUE</enabled>
                <alphatype>straight</alphatype>
                <rate>
                  <timebase>24</timebase>
                  <ntsc>FALSE</ntsc>
                </rate>
                <enabled>TRUE</enabled>
                <start>63</start>
                <end>64</end>
                <file id="file-65"/>
              </clipitem>
              <clipitem frameBlend="FALSE" id="clipitem-229">
                <name>Antonio.064.png</name>
                <masterclipid>masterclip-66</masterclipid>
                <rate>
                  <timebase>24</timebase>
                  <ntsc>FALSE</ntsc>
                </rate>
                <duration>1</duration>
                <enabled>TRUE</enabled>
                <alphatype>straight</alphatype>
                <rate>
                  <timebase>24</timebase>
                  <ntsc>FALSE</ntsc>
                </rate>
                <enabled>TRUE</enabled>
                <start>64</start>
                <end>65</end>
                <file id="file-66"/>
              </clipitem>
              <clipitem frameBlend="FALSE" id="clipitem-230">
                <name>Antonio.065.png</name>
                <masterclipid>masterclip-67</masterclipid>
                <rate>
                  <timebase>24</timebase>
                  <ntsc>FALSE</ntsc>
                </rate>
                <duration>1</duration>
                <enabled>TRUE</enabled>
                <alphatype>straight</alphatype>
                <rate>
                  <timebase>24</timebase>
                  <ntsc>FALSE</ntsc>
                </rate>
                <enabled>TRUE</enabled>
                <start>65</start>
                <end>66</end>
                <file id="file-67"/>
              </clipitem>
              <clipitem frameBlend="FALSE" id="clipitem-231">
                <name>Antonio.066.png</name>
                <masterclipid>masterclip-68</masterclipid>
                <rate>
                  <timebase>24</timebase>
                  <ntsc>FALSE</ntsc>
                </rate>
                <duration>1</duration>
                <enabled>TRUE</enabled>
                <alphatype>straight</alphatype>
                <rate>
                  <timebase>24</timebase>
                  <ntsc>FALSE</ntsc>
                </rate>
                <enabled>TRUE</enabled>
                <start>66</start>
                <end>67</end>
                <file id="file-68"/>
              </clipitem>
              <clipitem frameBlend="FALSE" id="clipitem-232">
                <name>Antonio.067.png</name>
                <masterclipid>masterclip-69</masterclipid>
                <rate>
                  <timebase>24</timebase>
                  <ntsc>FALSE</ntsc>
                </rate>
                <duration>1</duration>
                <enabled>TRUE</enabled>
                <alphatype>straight</alphatype>
                <rate>
                  <timebase>24</timebase>
                  <ntsc>FALSE</ntsc>
                </rate>
                <enabled>TRUE</enabled>
                <start>67</start>
                <end>68</end>
                <file id="file-69"/>
              </clipitem>
              <clipitem frameBlend="FALSE" id="clipitem-233">
                <name>Antonio.068.png</name>
                <masterclipid>masterclip-70</masterclipid>
                <rate>
                  <timebase>24</timebase>
                  <ntsc>FALSE</ntsc>
                </rate>
                <duration>1</duration>
                <enabled>TRUE</enabled>
                <alphatype>straight</alphatype>
                <rate>
                  <timebase>24</timebase>
                  <ntsc>FALSE</ntsc>
                </rate>
                <enabled>TRUE</enabled>
                <start>68</start>
                <end>69</end>
                <file id="file-70"/>
              </clipitem>
              <clipitem frameBlend="FALSE" id="clipitem-234">
                <name>Antonio.069.png</name>
                <masterclipid>masterclip-71</masterclipid>
                <rate>
                  <timebase>24</timebase>
                  <ntsc>FALSE</ntsc>
                </rate>
                <duration>1</duration>
                <enabled>TRUE</enabled>
                <alphatype>straight</alphatype>
                <rate>
                  <timebase>24</timebase>
                  <ntsc>FALSE</ntsc>
                </rate>
                <enabled>TRUE</enabled>
                <start>69</start>
                <end>70</end>
                <file id="file-71"/>
              </clipitem>
              <clipitem frameBlend="FALSE" id="clipitem-235">
                <name>Antonio.070.png</name>
                <masterclipid>masterclip-72</masterclipid>
                <rate>
                  <timebase>24</timebase>
                  <ntsc>FALSE</ntsc>
                </rate>
                <duration>1</duration>
                <enabled>TRUE</enabled>
                <alphatype>straight</alphatype>
                <rate>
                  <timebase>24</timebase>
                  <ntsc>FALSE</ntsc>
                </rate>
                <enabled>TRUE</enabled>
                <start>70</start>
                <end>71</end>
                <file id="file-72"/>
              </clipitem>
              <clipitem frameBlend="FALSE" id="clipitem-236">
                <name>Antonio.071.png</name>
                <masterclipid>masterclip-73</masterclipid>
                <rate>
                  <timebase>24</timebase>
                  <ntsc>FALSE</ntsc>
                </rate>
                <duration>1</duration>
                <enabled>TRUE</enabled>
                <alphatype>straight</alphatype>
                <rate>
                  <timebase>24</timebase>
                  <ntsc>FALSE</ntsc>
                </rate>
                <enabled>TRUE</enabled>
                <start>71</start>
                <end>72</end>
                <file id="file-73"/>
              </clipitem>
              <clipitem frameBlend="FALSE" id="clipitem-237">
                <name>Antonio.072.png</name>
                <masterclipid>masterclip-74</masterclipid>
                <rate>
                  <timebase>24</timebase>
                  <ntsc>FALSE</ntsc>
                </rate>
                <duration>1</duration>
                <enabled>TRUE</enabled>
                <alphatype>straight</alphatype>
                <rate>
                  <timebase>24</timebase>
                  <ntsc>FALSE</ntsc>
                </rate>
                <enabled>TRUE</enabled>
                <start>72</start>
                <end>73</end>
                <file id="file-74"/>
              </clipitem>
              <clipitem frameBlend="FALSE" id="clipitem-238">
                <name>Antonio.073.png</name>
                <masterclipid>masterclip-75</masterclipid>
                <rate>
                  <timebase>24</timebase>
                  <ntsc>FALSE</ntsc>
                </rate>
                <duration>1</duration>
                <enabled>TRUE</enabled>
                <alphatype>straight</alphatype>
                <rate>
                  <timebase>24</timebase>
                  <ntsc>FALSE</ntsc>
                </rate>
                <enabled>TRUE</enabled>
                <start>73</start>
                <end>74</end>
                <file id="file-75"/>
              </clipitem>
              <clipitem frameBlend="FALSE" id="clipitem-239">
                <name>Antonio.074.png</name>
                <masterclipid>masterclip-76</masterclipid>
                <rate>
                  <timebase>24</timebase>
                  <ntsc>FALSE</ntsc>
                </rate>
                <duration>1</duration>
                <enabled>TRUE</enabled>
                <alphatype>straight</alphatype>
                <rate>
                  <timebase>24</timebase>
                  <ntsc>FALSE</ntsc>
                </rate>
                <enabled>TRUE</enabled>
                <start>74</start>
                <end>75</end>
                <file id="file-76"/>
              </clipitem>
              <clipitem frameBlend="FALSE" id="clipitem-240">
                <name>Antonio.075.png</name>
                <masterclipid>masterclip-77</masterclipid>
                <rate>
                  <timebase>24</timebase>
                  <ntsc>FALSE</ntsc>
                </rate>
                <duration>1</duration>
                <enabled>TRUE</enabled>
                <alphatype>straight</alphatype>
                <rate>
                  <timebase>24</timebase>
                  <ntsc>FALSE</ntsc>
                </rate>
                <enabled>TRUE</enabled>
                <start>75</start>
                <end>76</end>
                <file id="file-77"/>
              </clipitem>
              <clipitem frameBlend="FALSE" id="clipitem-241">
                <name>Antonio.076.png</name>
                <masterclipid>masterclip-78</masterclipid>
                <rate>
                  <timebase>24</timebase>
                  <ntsc>FALSE</ntsc>
                </rate>
                <duration>1</duration>
                <enabled>TRUE</enabled>
                <alphatype>straight</alphatype>
                <rate>
                  <timebase>24</timebase>
                  <ntsc>FALSE</ntsc>
                </rate>
                <enabled>TRUE</enabled>
                <start>76</start>
                <end>77</end>
                <file id="file-78"/>
              </clipitem>
              <clipitem frameBlend="FALSE" id="clipitem-242">
                <name>Antonio.077.png</name>
                <masterclipid>masterclip-79</masterclipid>
                <rate>
                  <timebase>24</timebase>
                  <ntsc>FALSE</ntsc>
                </rate>
                <duration>1</duration>
                <enabled>TRUE</enabled>
                <alphatype>straight</alphatype>
                <rate>
                  <timebase>24</timebase>
                  <ntsc>FALSE</ntsc>
                </rate>
                <enabled>TRUE</enabled>
                <start>77</start>
                <end>78</end>
                <file id="file-79"/>
              </clipitem>
              <clipitem frameBlend="FALSE" id="clipitem-243">
                <name>Antonio.078.png</name>
                <masterclipid>masterclip-80</masterclipid>
                <rate>
                  <timebase>24</timebase>
                  <ntsc>FALSE</ntsc>
                </rate>
                <duration>1</duration>
                <enabled>TRUE</enabled>
                <alphatype>straight</alphatype>
                <rate>
                  <timebase>24</timebase>
                  <ntsc>FALSE</ntsc>
                </rate>
                <enabled>TRUE</enabled>
                <start>78</start>
                <end>79</end>
                <file id="file-80"/>
              </clipitem>
              <clipitem frameBlend="FALSE" id="clipitem-244">
                <name>Antonio.079.png</name>
                <masterclipid>masterclip-81</masterclipid>
                <rate>
                  <timebase>24</timebase>
                  <ntsc>FALSE</ntsc>
                </rate>
                <duration>1</duration>
                <enabled>TRUE</enabled>
                <alphatype>straight</alphatype>
                <rate>
                  <timebase>24</timebase>
                  <ntsc>FALSE</ntsc>
                </rate>
                <enabled>TRUE</enabled>
                <start>79</start>
                <end>80</end>
                <file id="file-81"/>
              </clipitem>
              <clipitem frameBlend="FALSE" id="clipitem-245">
                <name>Antonio.080.png</name>
                <masterclipid>masterclip-82</masterclipid>
                <rate>
                  <timebase>24</timebase>
                  <ntsc>FALSE</ntsc>
                </rate>
                <duration>1</duration>
                <enabled>TRUE</enabled>
                <alphatype>straight</alphatype>
                <rate>
                  <timebase>24</timebase>
                  <ntsc>FALSE</ntsc>
                </rate>
                <enabled>TRUE</enabled>
                <start>80</start>
                <end>81</end>
                <file id="file-82"/>
              </clipitem>
              <clipitem frameBlend="FALSE" id="clipitem-246">
                <name>Antonio.081.png</name>
                <masterclipid>masterclip-83</masterclipid>
                <rate>
                  <timebase>24</timebase>
                  <ntsc>FALSE</ntsc>
                </rate>
                <duration>1</duration>
                <enabled>TRUE</enabled>
                <alphatype>straight</alphatype>
                <rate>
                  <timebase>24</timebase>
                  <ntsc>FALSE</ntsc>
                </rate>
                <enabled>TRUE</enabled>
                <start>81</start>
                <end>82</end>
                <file id="file-83"/>
              </clipitem>
              <clipitem frameBlend="FALSE" id="clipitem-247">
                <name>Antonio.082.png</name>
                <masterclipid>masterclip-84</masterclipid>
                <rate>
                  <timebase>24</timebase>
                  <ntsc>FALSE</ntsc>
                </rate>
                <duration>1</duration>
                <enabled>TRUE</enabled>
                <alphatype>straight</alphatype>
                <rate>
                  <timebase>24</timebase>
                  <ntsc>FALSE</ntsc>
                </rate>
                <enabled>TRUE</enabled>
                <start>82</start>
                <end>83</end>
                <file id="file-84"/>
              </clipitem>
              <clipitem frameBlend="FALSE" id="clipitem-248">
                <name>Antonio.083.png</name>
                <masterclipid>masterclip-85</masterclipid>
                <rate>
                  <timebase>24</timebase>
                  <ntsc>FALSE</ntsc>
                </rate>
                <duration>1</duration>
                <enabled>TRUE</enabled>
                <alphatype>straight</alphatype>
                <rate>
                  <timebase>24</timebase>
                  <ntsc>FALSE</ntsc>
                </rate>
                <enabled>TRUE</enabled>
                <start>83</start>
                <end>84</end>
                <file id="file-85"/>
              </clipitem>
              <clipitem frameBlend="FALSE" id="clipitem-249">
                <name>Antonio.084.png</name>
                <masterclipid>masterclip-86</masterclipid>
                <rate>
                  <timebase>24</timebase>
                  <ntsc>FALSE</ntsc>
                </rate>
                <duration>1</duration>
                <enabled>TRUE</enabled>
                <alphatype>straight</alphatype>
                <rate>
                  <timebase>24</timebase>
                  <ntsc>FALSE</ntsc>
                </rate>
                <enabled>TRUE</enabled>
                <start>84</start>
                <end>85</end>
                <file id="file-86"/>
              </clipitem>
              <clipitem frameBlend="FALSE" id="clipitem-250">
                <name>Antonio.085.png</name>
                <masterclipid>masterclip-87</masterclipid>
                <rate>
                  <timebase>24</timebase>
                  <ntsc>FALSE</ntsc>
                </rate>
                <duration>1</duration>
                <enabled>TRUE</enabled>
                <alphatype>straight</alphatype>
                <rate>
                  <timebase>24</timebase>
                  <ntsc>FALSE</ntsc>
                </rate>
                <enabled>TRUE</enabled>
                <start>85</start>
                <end>86</end>
                <file id="file-87"/>
              </clipitem>
              <clipitem frameBlend="FALSE" id="clipitem-251">
                <name>Antonio.086.png</name>
                <masterclipid>masterclip-88</masterclipid>
                <rate>
                  <timebase>24</timebase>
                  <ntsc>FALSE</ntsc>
                </rate>
                <duration>1</duration>
                <enabled>TRUE</enabled>
                <alphatype>straight</alphatype>
                <rate>
                  <timebase>24</timebase>
                  <ntsc>FALSE</ntsc>
                </rate>
                <enabled>TRUE</enabled>
                <start>86</start>
                <end>87</end>
                <file id="file-88"/>
              </clipitem>
              <clipitem frameBlend="FALSE" id="clipitem-252">
                <name>Antonio.087.png</name>
                <masterclipid>masterclip-89</masterclipid>
                <rate>
                  <timebase>24</timebase>
                  <ntsc>FALSE</ntsc>
                </rate>
                <duration>1</duration>
                <enabled>TRUE</enabled>
                <alphatype>straight</alphatype>
                <rate>
                  <timebase>24</timebase>
                  <ntsc>FALSE</ntsc>
                </rate>
                <enabled>TRUE</enabled>
                <start>87</start>
                <end>88</end>
                <file id="file-89"/>
              </clipitem>
              <clipitem frameBlend="FALSE" id="clipitem-253">
                <name>Antonio.088.png</name>
                <masterclipid>masterclip-90</masterclipid>
                <rate>
                  <timebase>24</timebase>
                  <ntsc>FALSE</ntsc>
                </rate>
                <duration>1</duration>
                <enabled>TRUE</enabled>
                <alphatype>straight</alphatype>
                <rate>
                  <timebase>24</timebase>
                  <ntsc>FALSE</ntsc>
                </rate>
                <enabled>TRUE</enabled>
                <start>88</start>
                <end>89</end>
                <file id="file-90"/>
              </clipitem>
              <clipitem frameBlend="FALSE" id="clipitem-254">
                <name>Antonio.089.png</name>
                <masterclipid>masterclip-91</masterclipid>
                <rate>
                  <timebase>24</timebase>
                  <ntsc>FALSE</ntsc>
                </rate>
                <duration>1</duration>
                <enabled>TRUE</enabled>
                <alphatype>straight</alphatype>
                <rate>
                  <timebase>24</timebase>
                  <ntsc>FALSE</ntsc>
                </rate>
                <enabled>TRUE</enabled>
                <start>89</start>
                <end>90</end>
                <file id="file-91"/>
              </clipitem>
              <clipitem frameBlend="FALSE" id="clipitem-255">
                <name>Antonio.090.png</name>
                <masterclipid>masterclip-92</masterclipid>
                <rate>
                  <timebase>24</timebase>
                  <ntsc>FALSE</ntsc>
                </rate>
                <duration>1</duration>
                <enabled>TRUE</enabled>
                <alphatype>straight</alphatype>
                <rate>
                  <timebase>24</timebase>
                  <ntsc>FALSE</ntsc>
                </rate>
                <enabled>TRUE</enabled>
                <start>90</start>
                <end>91</end>
                <file id="file-92"/>
              </clipitem>
              <clipitem frameBlend="FALSE" id="clipitem-256">
                <name>Antonio.091.png</name>
                <masterclipid>masterclip-93</masterclipid>
                <rate>
                  <timebase>24</timebase>
                  <ntsc>FALSE</ntsc>
                </rate>
                <duration>1</duration>
                <enabled>TRUE</enabled>
                <alphatype>straight</alphatype>
                <rate>
                  <timebase>24</timebase>
                  <ntsc>FALSE</ntsc>
                </rate>
                <enabled>TRUE</enabled>
                <start>91</start>
                <end>92</end>
                <file id="file-93"/>
              </clipitem>
              <clipitem frameBlend="FALSE" id="clipitem-257">
                <name>Antonio.092.png</name>
                <masterclipid>masterclip-94</masterclipid>
                <rate>
                  <timebase>24</timebase>
                  <ntsc>FALSE</ntsc>
                </rate>
                <duration>1</duration>
                <enabled>TRUE</enabled>
                <alphatype>straight</alphatype>
                <rate>
                  <timebase>24</timebase>
                  <ntsc>FALSE</ntsc>
                </rate>
                <enabled>TRUE</enabled>
                <start>92</start>
                <end>93</end>
                <file id="file-94"/>
              </clipitem>
              <clipitem frameBlend="FALSE" id="clipitem-258">
                <name>Antonio.093.png</name>
                <masterclipid>masterclip-95</masterclipid>
                <rate>
                  <timebase>24</timebase>
                  <ntsc>FALSE</ntsc>
                </rate>
                <duration>1</duration>
                <enabled>TRUE</enabled>
                <alphatype>straight</alphatype>
                <rate>
                  <timebase>24</timebase>
                  <ntsc>FALSE</ntsc>
                </rate>
                <enabled>TRUE</enabled>
                <start>93</start>
                <end>94</end>
                <file id="file-95"/>
              </clipitem>
              <clipitem frameBlend="FALSE" id="clipitem-259">
                <name>Antonio.094.png</name>
                <masterclipid>masterclip-96</masterclipid>
                <rate>
                  <timebase>24</timebase>
                  <ntsc>FALSE</ntsc>
                </rate>
                <duration>1</duration>
                <enabled>TRUE</enabled>
                <alphatype>straight</alphatype>
                <rate>
                  <timebase>24</timebase>
                  <ntsc>FALSE</ntsc>
                </rate>
                <enabled>TRUE</enabled>
                <start>94</start>
                <end>95</end>
                <file id="file-96"/>
              </clipitem>
              <clipitem frameBlend="FALSE" id="clipitem-260">
                <name>Antonio.095.png</name>
                <masterclipid>masterclip-97</masterclipid>
                <rate>
                  <timebase>24</timebase>
                  <ntsc>FALSE</ntsc>
                </rate>
                <duration>1</duration>
                <enabled>TRUE</enabled>
                <alphatype>straight</alphatype>
                <rate>
                  <timebase>24</timebase>
                  <ntsc>FALSE</ntsc>
                </rate>
                <enabled>TRUE</enabled>
                <start>95</start>
                <end>96</end>
                <file id="file-97"/>
              </clipitem>
              <clipitem frameBlend="FALSE" id="clipitem-261">
                <name>Antonio.096.png</name>
                <masterclipid>masterclip-98</masterclipid>
                <rate>
                  <timebase>24</timebase>
                  <ntsc>FALSE</ntsc>
                </rate>
                <duration>1</duration>
                <enabled>TRUE</enabled>
                <alphatype>straight</alphatype>
                <rate>
                  <timebase>24</timebase>
                  <ntsc>FALSE</ntsc>
                </rate>
                <enabled>TRUE</enabled>
                <start>96</start>
                <end>97</end>
                <file id="file-98"/>
              </clipitem>
              <clipitem frameBlend="FALSE" id="clipitem-262">
                <name>Antonio.097.png</name>
                <masterclipid>masterclip-99</masterclipid>
                <rate>
                  <timebase>24</timebase>
                  <ntsc>FALSE</ntsc>
                </rate>
                <duration>1</duration>
                <enabled>TRUE</enabled>
                <alphatype>straight</alphatype>
                <rate>
                  <timebase>24</timebase>
                  <ntsc>FALSE</ntsc>
                </rate>
                <enabled>TRUE</enabled>
                <start>97</start>
                <end>98</end>
                <file id="file-99"/>
              </clipitem>
              <clipitem frameBlend="FALSE" id="clipitem-263">
                <name>Antonio.098.png</name>
                <masterclipid>masterclip-100</masterclipid>
                <rate>
                  <timebase>24</timebase>
                  <ntsc>FALSE</ntsc>
                </rate>
                <duration>1</duration>
                <enabled>TRUE</enabled>
                <alphatype>straight</alphatype>
                <rate>
                  <timebase>24</timebase>
                  <ntsc>FALSE</ntsc>
                </rate>
                <enabled>TRUE</enabled>
                <start>98</start>
                <end>99</end>
                <file id="file-100"/>
              </clipitem>
              <clipitem frameBlend="FALSE" id="clipitem-264">
                <name>Antonio.099.png</name>
                <masterclipid>masterclip-101</masterclipid>
                <rate>
                  <timebase>24</timebase>
                  <ntsc>FALSE</ntsc>
                </rate>
                <duration>1</duration>
                <enabled>TRUE</enabled>
                <alphatype>straight</alphatype>
                <rate>
                  <timebase>24</timebase>
                  <ntsc>FALSE</ntsc>
                </rate>
                <enabled>TRUE</enabled>
                <start>99</start>
                <end>100</end>
                <file id="file-101"/>
              </clipitem>
              <clipitem frameBlend="FALSE" id="clipitem-265">
                <name>Antonio.100.png</name>
                <masterclipid>masterclip-102</masterclipid>
                <rate>
                  <timebase>24</timebase>
                  <ntsc>FALSE</ntsc>
                </rate>
                <duration>1</duration>
                <enabled>TRUE</enabled>
                <alphatype>straight</alphatype>
                <rate>
                  <timebase>24</timebase>
                  <ntsc>FALSE</ntsc>
                </rate>
                <enabled>TRUE</enabled>
                <start>100</start>
                <end>101</end>
                <file id="file-102"/>
              </clipitem>
              <clipitem frameBlend="FALSE" id="clipitem-266">
                <name>Antonio.101.png</name>
                <masterclipid>masterclip-103</masterclipid>
                <rate>
                  <timebase>24</timebase>
                  <ntsc>FALSE</ntsc>
                </rate>
                <duration>1</duration>
                <enabled>TRUE</enabled>
                <alphatype>straight</alphatype>
                <rate>
                  <timebase>24</timebase>
                  <ntsc>FALSE</ntsc>
                </rate>
                <enabled>TRUE</enabled>
                <start>101</start>
                <end>102</end>
                <file id="file-103"/>
              </clipitem>
              <clipitem frameBlend="FALSE" id="clipitem-267">
                <name>Antonio.102.png</name>
                <masterclipid>masterclip-104</masterclipid>
                <rate>
                  <timebase>24</timebase>
                  <ntsc>FALSE</ntsc>
                </rate>
                <duration>1</duration>
                <enabled>TRUE</enabled>
                <alphatype>straight</alphatype>
                <rate>
                  <timebase>24</timebase>
                  <ntsc>FALSE</ntsc>
                </rate>
                <enabled>TRUE</enabled>
                <start>102</start>
                <end>103</end>
                <file id="file-104"/>
              </clipitem>
              <clipitem frameBlend="FALSE" id="clipitem-268">
                <name>Antonio.103.png</name>
                <masterclipid>masterclip-105</masterclipid>
                <rate>
                  <timebase>24</timebase>
                  <ntsc>FALSE</ntsc>
                </rate>
                <duration>1</duration>
                <enabled>TRUE</enabled>
                <alphatype>straight</alphatype>
                <rate>
                  <timebase>24</timebase>
                  <ntsc>FALSE</ntsc>
                </rate>
                <enabled>TRUE</enabled>
                <start>103</start>
                <end>104</end>
                <file id="file-105"/>
              </clipitem>
              <clipitem frameBlend="FALSE" id="clipitem-269">
                <name>Antonio.104.png</name>
                <masterclipid>masterclip-106</masterclipid>
                <rate>
                  <timebase>24</timebase>
                  <ntsc>FALSE</ntsc>
                </rate>
                <duration>1</duration>
                <enabled>TRUE</enabled>
                <alphatype>straight</alphatype>
                <rate>
                  <timebase>24</timebase>
                  <ntsc>FALSE</ntsc>
                </rate>
                <enabled>TRUE</enabled>
                <start>104</start>
                <end>105</end>
                <file id="file-106"/>
              </clipitem>
              <clipitem frameBlend="FALSE" id="clipitem-270">
                <name>Antonio.105.png</name>
                <masterclipid>masterclip-107</masterclipid>
                <rate>
                  <timebase>24</timebase>
                  <ntsc>FALSE</ntsc>
                </rate>
                <duration>1</duration>
                <enabled>TRUE</enabled>
                <alphatype>straight</alphatype>
                <rate>
                  <timebase>24</timebase>
                  <ntsc>FALSE</ntsc>
                </rate>
                <enabled>TRUE</enabled>
                <start>105</start>
                <end>106</end>
                <file id="file-107"/>
              </clipitem>
              <clipitem frameBlend="FALSE" id="clipitem-271">
                <name>Antonio.106.png</name>
                <masterclipid>masterclip-108</masterclipid>
                <rate>
                  <timebase>24</timebase>
                  <ntsc>FALSE</ntsc>
                </rate>
                <duration>1</duration>
                <enabled>TRUE</enabled>
                <alphatype>straight</alphatype>
                <rate>
                  <timebase>24</timebase>
                  <ntsc>FALSE</ntsc>
                </rate>
                <enabled>TRUE</enabled>
                <start>106</start>
                <end>107</end>
                <file id="file-108"/>
              </clipitem>
              <clipitem frameBlend="FALSE" id="clipitem-272">
                <name>Antonio.107.png</name>
                <masterclipid>masterclip-109</masterclipid>
                <rate>
                  <timebase>24</timebase>
                  <ntsc>FALSE</ntsc>
                </rate>
                <duration>1</duration>
                <enabled>TRUE</enabled>
                <alphatype>straight</alphatype>
                <rate>
                  <timebase>24</timebase>
                  <ntsc>FALSE</ntsc>
                </rate>
                <enabled>TRUE</enabled>
                <start>107</start>
                <end>108</end>
                <file id="file-109"/>
              </clipitem>
              <clipitem frameBlend="FALSE" id="clipitem-273">
                <name>Antonio.108.png</name>
                <masterclipid>masterclip-110</masterclipid>
                <rate>
                  <timebase>24</timebase>
                  <ntsc>FALSE</ntsc>
                </rate>
                <duration>1</duration>
                <enabled>TRUE</enabled>
                <alphatype>straight</alphatype>
                <rate>
                  <timebase>24</timebase>
                  <ntsc>FALSE</ntsc>
                </rate>
                <enabled>TRUE</enabled>
                <start>108</start>
                <end>109</end>
                <file id="file-110"/>
              </clipitem>
              <clipitem frameBlend="FALSE" id="clipitem-274">
                <name>Antonio.109.png</name>
                <masterclipid>masterclip-111</masterclipid>
                <rate>
                  <timebase>24</timebase>
                  <ntsc>FALSE</ntsc>
                </rate>
                <duration>1</duration>
                <enabled>TRUE</enabled>
                <alphatype>straight</alphatype>
                <rate>
                  <timebase>24</timebase>
                  <ntsc>FALSE</ntsc>
                </rate>
                <enabled>TRUE</enabled>
                <start>109</start>
                <end>110</end>
                <file id="file-111"/>
              </clipitem>
              <clipitem frameBlend="FALSE" id="clipitem-275">
                <name>Antonio.110.png</name>
                <masterclipid>masterclip-112</masterclipid>
                <rate>
                  <timebase>24</timebase>
                  <ntsc>FALSE</ntsc>
                </rate>
                <duration>1</duration>
                <enabled>TRUE</enabled>
                <alphatype>straight</alphatype>
                <rate>
                  <timebase>24</timebase>
                  <ntsc>FALSE</ntsc>
                </rate>
                <enabled>TRUE</enabled>
                <start>110</start>
                <end>111</end>
                <file id="file-112"/>
              </clipitem>
              <clipitem frameBlend="FALSE" id="clipitem-276">
                <name>Antonio.111.png</name>
                <masterclipid>masterclip-113</masterclipid>
                <rate>
                  <timebase>24</timebase>
                  <ntsc>FALSE</ntsc>
                </rate>
                <duration>1</duration>
                <enabled>TRUE</enabled>
                <alphatype>straight</alphatype>
                <rate>
                  <timebase>24</timebase>
                  <ntsc>FALSE</ntsc>
                </rate>
                <enabled>TRUE</enabled>
                <start>111</start>
                <end>112</end>
                <file id="file-113"/>
              </clipitem>
              <clipitem frameBlend="FALSE" id="clipitem-277">
                <name>Antonio.112.png</name>
                <masterclipid>masterclip-114</masterclipid>
                <rate>
                  <timebase>24</timebase>
                  <ntsc>FALSE</ntsc>
                </rate>
                <duration>1</duration>
                <enabled>TRUE</enabled>
                <alphatype>straight</alphatype>
                <rate>
                  <timebase>24</timebase>
                  <ntsc>FALSE</ntsc>
                </rate>
                <enabled>TRUE</enabled>
                <start>112</start>
                <end>113</end>
                <file id="file-114"/>
              </clipitem>
              <clipitem frameBlend="FALSE" id="clipitem-278">
                <name>Antonio.113.png</name>
                <masterclipid>masterclip-115</masterclipid>
                <rate>
                  <timebase>24</timebase>
                  <ntsc>FALSE</ntsc>
                </rate>
                <duration>1</duration>
                <enabled>TRUE</enabled>
                <alphatype>straight</alphatype>
                <rate>
                  <timebase>24</timebase>
                  <ntsc>FALSE</ntsc>
                </rate>
                <enabled>TRUE</enabled>
                <start>113</start>
                <end>114</end>
                <file id="file-115"/>
              </clipitem>
              <clipitem frameBlend="FALSE" id="clipitem-279">
                <name>Antonio.114.png</name>
                <masterclipid>masterclip-116</masterclipid>
                <rate>
                  <timebase>24</timebase>
                  <ntsc>FALSE</ntsc>
                </rate>
                <duration>1</duration>
                <enabled>TRUE</enabled>
                <alphatype>straight</alphatype>
                <rate>
                  <timebase>24</timebase>
                  <ntsc>FALSE</ntsc>
                </rate>
                <enabled>TRUE</enabled>
                <start>114</start>
                <end>115</end>
                <file id="file-116"/>
              </clipitem>
              <clipitem frameBlend="FALSE" id="clipitem-280">
                <name>Antonio.115.png</name>
                <masterclipid>masterclip-117</masterclipid>
                <rate>
                  <timebase>24</timebase>
                  <ntsc>FALSE</ntsc>
                </rate>
                <duration>1</duration>
                <enabled>TRUE</enabled>
                <alphatype>straight</alphatype>
                <rate>
                  <timebase>24</timebase>
                  <ntsc>FALSE</ntsc>
                </rate>
                <enabled>TRUE</enabled>
                <start>115</start>
                <end>116</end>
                <file id="file-117"/>
              </clipitem>
              <clipitem frameBlend="FALSE" id="clipitem-281">
                <name>Antonio.116.png</name>
                <masterclipid>masterclip-118</masterclipid>
                <rate>
                  <timebase>24</timebase>
                  <ntsc>FALSE</ntsc>
                </rate>
                <duration>1</duration>
                <enabled>TRUE</enabled>
                <alphatype>straight</alphatype>
                <rate>
                  <timebase>24</timebase>
                  <ntsc>FALSE</ntsc>
                </rate>
                <enabled>TRUE</enabled>
                <start>116</start>
                <end>117</end>
                <file id="file-118"/>
              </clipitem>
              <clipitem frameBlend="FALSE" id="clipitem-282">
                <name>Antonio.117.png</name>
                <masterclipid>masterclip-119</masterclipid>
                <rate>
                  <timebase>24</timebase>
                  <ntsc>FALSE</ntsc>
                </rate>
                <duration>1</duration>
                <enabled>TRUE</enabled>
                <alphatype>straight</alphatype>
                <rate>
                  <timebase>24</timebase>
                  <ntsc>FALSE</ntsc>
                </rate>
                <enabled>TRUE</enabled>
                <start>117</start>
                <end>118</end>
                <file id="file-119"/>
              </clipitem>
              <clipitem frameBlend="FALSE" id="clipitem-283">
                <name>Antonio.118.png</name>
                <masterclipid>masterclip-120</masterclipid>
                <rate>
                  <timebase>24</timebase>
                  <ntsc>FALSE</ntsc>
                </rate>
                <duration>1</duration>
                <enabled>TRUE</enabled>
                <alphatype>straight</alphatype>
                <rate>
                  <timebase>24</timebase>
                  <ntsc>FALSE</ntsc>
                </rate>
                <enabled>TRUE</enabled>
                <start>118</start>
                <end>119</end>
                <file id="file-120"/>
              </clipitem>
              <clipitem frameBlend="FALSE" id="clipitem-284">
                <name>Antonio.119.png</name>
                <masterclipid>masterclip-121</masterclipid>
                <rate>
                  <timebase>24</timebase>
                  <ntsc>FALSE</ntsc>
                </rate>
                <duration>1</duration>
                <enabled>TRUE</enabled>
                <alphatype>straight</alphatype>
                <rate>
                  <timebase>24</timebase>
                  <ntsc>FALSE</ntsc>
                </rate>
                <enabled>TRUE</enabled>
                <start>119</start>
                <end>120</end>
                <file id="file-121"/>
              </clipitem>
              <clipitem frameBlend="FALSE" id="clipitem-285">
                <name>Antonio.120.png</name>
                <masterclipid>masterclip-122</masterclipid>
                <rate>
                  <timebase>24</timebase>
                  <ntsc>FALSE</ntsc>
                </rate>
                <duration>1</duration>
                <enabled>TRUE</enabled>
                <alphatype>straight</alphatype>
                <rate>
                  <timebase>24</timebase>
                  <ntsc>FALSE</ntsc>
                </rate>
                <enabled>TRUE</enabled>
                <start>120</start>
                <end>121</end>
                <file id="file-122"/>
              </clipitem>
              <clipitem frameBlend="FALSE" id="clipitem-286">
                <name>Antonio.121.png</name>
                <masterclipid>masterclip-123</masterclipid>
                <rate>
                  <timebase>24</timebase>
                  <ntsc>FALSE</ntsc>
                </rate>
                <duration>1</duration>
                <enabled>TRUE</enabled>
                <alphatype>straight</alphatype>
                <rate>
                  <timebase>24</timebase>
                  <ntsc>FALSE</ntsc>
                </rate>
                <enabled>TRUE</enabled>
                <start>121</start>
                <end>122</end>
                <file id="file-123"/>
              </clipitem>
              <clipitem frameBlend="FALSE" id="clipitem-287">
                <name>Antonio.122.png</name>
                <masterclipid>masterclip-124</masterclipid>
                <rate>
                  <timebase>24</timebase>
                  <ntsc>FALSE</ntsc>
                </rate>
                <duration>1</duration>
                <enabled>TRUE</enabled>
                <alphatype>straight</alphatype>
                <rate>
                  <timebase>24</timebase>
                  <ntsc>FALSE</ntsc>
                </rate>
                <enabled>TRUE</enabled>
                <start>122</start>
                <end>123</end>
                <file id="file-124"/>
              </clipitem>
              <clipitem frameBlend="FALSE" id="clipitem-288">
                <name>Antonio.123.png</name>
                <masterclipid>masterclip-125</masterclipid>
                <rate>
                  <timebase>24</timebase>
                  <ntsc>FALSE</ntsc>
                </rate>
                <duration>1</duration>
                <enabled>TRUE</enabled>
                <alphatype>straight</alphatype>
                <rate>
                  <timebase>24</timebase>
                  <ntsc>FALSE</ntsc>
                </rate>
                <enabled>TRUE</enabled>
                <start>123</start>
                <end>124</end>
                <file id="file-125"/>
              </clipitem>
              <clipitem frameBlend="FALSE" id="clipitem-289">
                <name>Antonio.124.png</name>
                <masterclipid>masterclip-126</masterclipid>
                <rate>
                  <timebase>24</timebase>
                  <ntsc>FALSE</ntsc>
                </rate>
                <duration>1</duration>
                <enabled>TRUE</enabled>
                <alphatype>straight</alphatype>
                <rate>
                  <timebase>24</timebase>
                  <ntsc>FALSE</ntsc>
                </rate>
                <enabled>TRUE</enabled>
                <start>124</start>
                <end>125</end>
                <file id="file-126"/>
              </clipitem>
              <clipitem frameBlend="FALSE" id="clipitem-290">
                <name>Antonio.125.png</name>
                <masterclipid>masterclip-127</masterclipid>
                <rate>
                  <timebase>24</timebase>
                  <ntsc>FALSE</ntsc>
                </rate>
                <duration>1</duration>
                <enabled>TRUE</enabled>
                <alphatype>straight</alphatype>
                <rate>
                  <timebase>24</timebase>
                  <ntsc>FALSE</ntsc>
                </rate>
                <enabled>TRUE</enabled>
                <start>125</start>
                <end>126</end>
                <file id="file-127"/>
              </clipitem>
              <clipitem frameBlend="FALSE" id="clipitem-291">
                <name>Antonio.126.png</name>
                <masterclipid>masterclip-128</masterclipid>
                <rate>
                  <timebase>24</timebase>
                  <ntsc>FALSE</ntsc>
                </rate>
                <duration>1</duration>
                <enabled>TRUE</enabled>
                <alphatype>straight</alphatype>
                <rate>
                  <timebase>24</timebase>
                  <ntsc>FALSE</ntsc>
                </rate>
                <enabled>TRUE</enabled>
                <start>126</start>
                <end>127</end>
                <file id="file-128"/>
              </clipitem>
              <clipitem frameBlend="FALSE" id="clipitem-292">
                <name>Antonio.127.png</name>
                <masterclipid>masterclip-129</masterclipid>
                <rate>
                  <timebase>24</timebase>
                  <ntsc>FALSE</ntsc>
                </rate>
                <duration>1</duration>
                <enabled>TRUE</enabled>
                <alphatype>straight</alphatype>
                <rate>
                  <timebase>24</timebase>
                  <ntsc>FALSE</ntsc>
                </rate>
                <enabled>TRUE</enabled>
                <start>127</start>
                <end>128</end>
                <file id="file-129"/>
              </clipitem>
              <clipitem frameBlend="FALSE" id="clipitem-293">
                <name>Antonio.128.png</name>
                <masterclipid>masterclip-130</masterclipid>
                <rate>
                  <timebase>24</timebase>
                  <ntsc>FALSE</ntsc>
                </rate>
                <duration>1</duration>
                <enabled>TRUE</enabled>
                <alphatype>straight</alphatype>
                <rate>
                  <timebase>24</timebase>
                  <ntsc>FALSE</ntsc>
                </rate>
                <enabled>TRUE</enabled>
                <start>128</start>
                <end>129</end>
                <file id="file-130"/>
              </clipitem>
              <clipitem frameBlend="FALSE" id="clipitem-294">
                <name>Antonio.129.png</name>
                <masterclipid>masterclip-131</masterclipid>
                <rate>
                  <timebase>24</timebase>
                  <ntsc>FALSE</ntsc>
                </rate>
                <duration>1</duration>
                <enabled>TRUE</enabled>
                <alphatype>straight</alphatype>
                <rate>
                  <timebase>24</timebase>
                  <ntsc>FALSE</ntsc>
                </rate>
                <enabled>TRUE</enabled>
                <start>129</start>
                <end>130</end>
                <file id="file-131"/>
              </clipitem>
              <clipitem frameBlend="FALSE" id="clipitem-295">
                <name>Antonio.130.png</name>
                <masterclipid>masterclip-132</masterclipid>
                <rate>
                  <timebase>24</timebase>
                  <ntsc>FALSE</ntsc>
                </rate>
                <duration>1</duration>
                <enabled>TRUE</enabled>
                <alphatype>straight</alphatype>
                <rate>
                  <timebase>24</timebase>
                  <ntsc>FALSE</ntsc>
                </rate>
                <enabled>TRUE</enabled>
                <start>130</start>
                <end>131</end>
                <file id="file-132"/>
              </clipitem>
              <clipitem frameBlend="FALSE" id="clipitem-296">
                <name>Antonio.131.png</name>
                <masterclipid>masterclip-133</masterclipid>
                <rate>
                  <timebase>24</timebase>
                  <ntsc>FALSE</ntsc>
                </rate>
                <duration>1</duration>
                <enabled>TRUE</enabled>
                <alphatype>straight</alphatype>
                <rate>
                  <timebase>24</timebase>
                  <ntsc>FALSE</ntsc>
                </rate>
                <enabled>TRUE</enabled>
                <start>131</start>
                <end>132</end>
                <file id="file-133"/>
              </clipitem>
              <clipitem frameBlend="FALSE" id="clipitem-297">
                <name>Antonio.132.png</name>
                <masterclipid>masterclip-134</masterclipid>
                <rate>
                  <timebase>24</timebase>
                  <ntsc>FALSE</ntsc>
                </rate>
                <duration>1</duration>
                <enabled>TRUE</enabled>
                <alphatype>straight</alphatype>
                <rate>
                  <timebase>24</timebase>
                  <ntsc>FALSE</ntsc>
                </rate>
                <enabled>TRUE</enabled>
                <start>132</start>
                <end>133</end>
                <file id="file-134"/>
              </clipitem>
              <clipitem frameBlend="FALSE" id="clipitem-298">
                <name>Antonio.133.png</name>
                <masterclipid>masterclip-135</masterclipid>
                <rate>
                  <timebase>24</timebase>
                  <ntsc>FALSE</ntsc>
                </rate>
                <duration>1</duration>
                <enabled>TRUE</enabled>
                <alphatype>straight</alphatype>
                <rate>
                  <timebase>24</timebase>
                  <ntsc>FALSE</ntsc>
                </rate>
                <enabled>TRUE</enabled>
                <start>133</start>
                <end>134</end>
                <file id="file-135"/>
              </clipitem>
              <clipitem frameBlend="FALSE" id="clipitem-299">
                <name>Antonio.134.png</name>
                <masterclipid>masterclip-136</masterclipid>
                <rate>
                  <timebase>24</timebase>
                  <ntsc>FALSE</ntsc>
                </rate>
                <duration>1</duration>
                <enabled>TRUE</enabled>
                <alphatype>straight</alphatype>
                <rate>
                  <timebase>24</timebase>
                  <ntsc>FALSE</ntsc>
                </rate>
                <enabled>TRUE</enabled>
                <start>134</start>
                <end>135</end>
                <file id="file-136"/>
              </clipitem>
              <clipitem frameBlend="FALSE" id="clipitem-300">
                <name>Antonio.135.png</name>
                <masterclipid>masterclip-137</masterclipid>
                <rate>
                  <timebase>24</timebase>
                  <ntsc>FALSE</ntsc>
                </rate>
                <duration>1</duration>
                <enabled>TRUE</enabled>
                <alphatype>straight</alphatype>
                <rate>
                  <timebase>24</timebase>
                  <ntsc>FALSE</ntsc>
                </rate>
                <enabled>TRUE</enabled>
                <start>135</start>
                <end>136</end>
                <file id="file-137"/>
              </clipitem>
              <clipitem frameBlend="FALSE" id="clipitem-301">
                <name>Antonio.136.png</name>
                <masterclipid>masterclip-138</masterclipid>
                <rate>
                  <timebase>24</timebase>
                  <ntsc>FALSE</ntsc>
                </rate>
                <duration>1</duration>
                <enabled>TRUE</enabled>
                <alphatype>straight</alphatype>
                <rate>
                  <timebase>24</timebase>
                  <ntsc>FALSE</ntsc>
                </rate>
                <enabled>TRUE</enabled>
                <start>136</start>
                <end>137</end>
                <file id="file-138"/>
              </clipitem>
              <clipitem frameBlend="FALSE" id="clipitem-302">
                <name>Antonio.137.png</name>
                <masterclipid>masterclip-139</masterclipid>
                <rate>
                  <timebase>24</timebase>
                  <ntsc>FALSE</ntsc>
                </rate>
                <duration>1</duration>
                <enabled>TRUE</enabled>
                <alphatype>straight</alphatype>
                <rate>
                  <timebase>24</timebase>
                  <ntsc>FALSE</ntsc>
                </rate>
                <enabled>TRUE</enabled>
                <start>137</start>
                <end>138</end>
                <file id="file-139"/>
              </clipitem>
              <clipitem frameBlend="FALSE" id="clipitem-303">
                <name>Antonio.138.png</name>
                <masterclipid>masterclip-140</masterclipid>
                <rate>
                  <timebase>24</timebase>
                  <ntsc>FALSE</ntsc>
                </rate>
                <duration>1</duration>
                <enabled>TRUE</enabled>
                <alphatype>straight</alphatype>
                <rate>
                  <timebase>24</timebase>
                  <ntsc>FALSE</ntsc>
                </rate>
                <enabled>TRUE</enabled>
                <start>138</start>
                <end>139</end>
                <file id="file-140"/>
              </clipitem>
              <clipitem frameBlend="FALSE" id="clipitem-304">
                <name>Antonio.139.png</name>
                <masterclipid>masterclip-141</masterclipid>
                <rate>
                  <timebase>24</timebase>
                  <ntsc>FALSE</ntsc>
                </rate>
                <duration>1</duration>
                <enabled>TRUE</enabled>
                <alphatype>straight</alphatype>
                <rate>
                  <timebase>24</timebase>
                  <ntsc>FALSE</ntsc>
                </rate>
                <enabled>TRUE</enabled>
                <start>139</start>
                <end>140</end>
                <file id="file-141"/>
              </clipitem>
              <clipitem frameBlend="FALSE" id="clipitem-305">
                <name>Antonio.140.png</name>
                <masterclipid>masterclip-142</masterclipid>
                <rate>
                  <timebase>24</timebase>
                  <ntsc>FALSE</ntsc>
                </rate>
                <duration>1</duration>
                <enabled>TRUE</enabled>
                <alphatype>straight</alphatype>
                <rate>
                  <timebase>24</timebase>
                  <ntsc>FALSE</ntsc>
                </rate>
                <enabled>TRUE</enabled>
                <start>140</start>
                <end>141</end>
                <file id="file-142"/>
              </clipitem>
              <clipitem frameBlend="FALSE" id="clipitem-306">
                <name>Antonio.141.png</name>
                <masterclipid>masterclip-143</masterclipid>
                <rate>
                  <timebase>24</timebase>
                  <ntsc>FALSE</ntsc>
                </rate>
                <duration>1</duration>
                <enabled>TRUE</enabled>
                <alphatype>straight</alphatype>
                <rate>
                  <timebase>24</timebase>
                  <ntsc>FALSE</ntsc>
                </rate>
                <enabled>TRUE</enabled>
                <start>141</start>
                <end>142</end>
                <file id="file-143"/>
              </clipitem>
              <clipitem frameBlend="FALSE" id="clipitem-307">
                <name>Antonio.142.png</name>
                <masterclipid>masterclip-144</masterclipid>
                <rate>
                  <timebase>24</timebase>
                  <ntsc>FALSE</ntsc>
                </rate>
                <duration>1</duration>
                <enabled>TRUE</enabled>
                <alphatype>straight</alphatype>
                <rate>
                  <timebase>24</timebase>
                  <ntsc>FALSE</ntsc>
                </rate>
                <enabled>TRUE</enabled>
                <start>142</start>
                <end>143</end>
                <file id="file-144"/>
              </clipitem>
              <clipitem frameBlend="FALSE" id="clipitem-308">
                <name>Antonio.143.png</name>
                <masterclipid>masterclip-145</masterclipid>
                <rate>
                  <timebase>24</timebase>
                  <ntsc>FALSE</ntsc>
                </rate>
                <duration>1</duration>
                <enabled>TRUE</enabled>
                <alphatype>straight</alphatype>
                <rate>
                  <timebase>24</timebase>
                  <ntsc>FALSE</ntsc>
                </rate>
                <enabled>TRUE</enabled>
                <start>143</start>
                <end>144</end>
                <file id="file-145"/>
              </clipitem>
              <clipitem frameBlend="FALSE" id="clipitem-309">
                <name>Antonio.144.png</name>
                <masterclipid>masterclip-146</masterclipid>
                <rate>
                  <timebase>24</timebase>
                  <ntsc>FALSE</ntsc>
                </rate>
                <duration>1</duration>
                <enabled>TRUE</enabled>
                <alphatype>straight</alphatype>
                <rate>
                  <timebase>24</timebase>
                  <ntsc>FALSE</ntsc>
                </rate>
                <enabled>TRUE</enabled>
                <start>144</start>
                <end>145</end>
                <file id="file-146"/>
              </clipitem>
              <clipitem frameBlend="FALSE" id="clipitem-310">
                <name>Antonio.145.png</name>
                <masterclipid>masterclip-147</masterclipid>
                <rate>
                  <timebase>24</timebase>
                  <ntsc>FALSE</ntsc>
                </rate>
                <duration>1</duration>
                <enabled>TRUE</enabled>
                <alphatype>straight</alphatype>
                <rate>
                  <timebase>24</timebase>
                  <ntsc>FALSE</ntsc>
                </rate>
                <enabled>TRUE</enabled>
                <start>145</start>
                <end>146</end>
                <file id="file-147"/>
              </clipitem>
              <clipitem frameBlend="FALSE" id="clipitem-311">
                <name>Antonio.146.png</name>
                <masterclipid>masterclip-148</masterclipid>
                <rate>
                  <timebase>24</timebase>
                  <ntsc>FALSE</ntsc>
                </rate>
                <duration>1</duration>
                <enabled>TRUE</enabled>
                <alphatype>straight</alphatype>
                <rate>
                  <timebase>24</timebase>
                  <ntsc>FALSE</ntsc>
                </rate>
                <enabled>TRUE</enabled>
                <start>146</start>
                <end>147</end>
                <file id="file-148"/>
              </clipitem>
              <clipitem frameBlend="FALSE" id="clipitem-312">
                <name>Antonio.147.png</name>
                <masterclipid>masterclip-149</masterclipid>
                <rate>
                  <timebase>24</timebase>
                  <ntsc>FALSE</ntsc>
                </rate>
                <duration>1</duration>
                <enabled>TRUE</enabled>
                <alphatype>straight</alphatype>
                <rate>
                  <timebase>24</timebase>
                  <ntsc>FALSE</ntsc>
                </rate>
                <enabled>TRUE</enabled>
                <start>147</start>
                <end>148</end>
                <file id="file-149"/>
              </clipitem>
              <clipitem frameBlend="FALSE" id="clipitem-313">
                <name>Antonio.148.png</name>
                <masterclipid>masterclip-150</masterclipid>
                <rate>
                  <timebase>24</timebase>
                  <ntsc>FALSE</ntsc>
                </rate>
                <duration>1</duration>
                <enabled>TRUE</enabled>
                <alphatype>straight</alphatype>
                <rate>
                  <timebase>24</timebase>
                  <ntsc>FALSE</ntsc>
                </rate>
                <enabled>TRUE</enabled>
                <start>148</start>
                <end>149</end>
                <file id="file-150"/>
              </clipitem>
              <clipitem frameBlend="FALSE" id="clipitem-314">
                <name>Antonio.149.png</name>
                <masterclipid>masterclip-151</masterclipid>
                <rate>
                  <timebase>24</timebase>
                  <ntsc>FALSE</ntsc>
                </rate>
                <duration>1</duration>
                <enabled>TRUE</enabled>
                <alphatype>straight</alphatype>
                <rate>
                  <timebase>24</timebase>
                  <ntsc>FALSE</ntsc>
                </rate>
                <enabled>TRUE</enabled>
                <start>149</start>
                <end>150</end>
                <file id="file-151"/>
              </clipitem>
              <clipitem frameBlend="FALSE" id="clipitem-315">
                <name>Antonio.150.png</name>
                <masterclipid>masterclip-152</masterclipid>
                <rate>
                  <timebase>24</timebase>
                  <ntsc>FALSE</ntsc>
                </rate>
                <duration>1</duration>
                <enabled>TRUE</enabled>
                <alphatype>straight</alphatype>
                <rate>
                  <timebase>24</timebase>
                  <ntsc>FALSE</ntsc>
                </rate>
                <enabled>TRUE</enabled>
                <start>150</start>
                <end>151</end>
                <file id="file-152"/>
              </clipitem>
              <clipitem frameBlend="FALSE" id="clipitem-316">
                <name>Antonio.151.png</name>
                <masterclipid>masterclip-153</masterclipid>
                <rate>
                  <timebase>24</timebase>
                  <ntsc>FALSE</ntsc>
                </rate>
                <duration>1</duration>
                <enabled>TRUE</enabled>
                <alphatype>straight</alphatype>
                <rate>
                  <timebase>24</timebase>
                  <ntsc>FALSE</ntsc>
                </rate>
                <enabled>TRUE</enabled>
                <start>151</start>
                <end>152</end>
                <file id="file-153"/>
              </clipitem>
              <clipitem frameBlend="FALSE" id="clipitem-317">
                <name>Antonio.152.png</name>
                <masterclipid>masterclip-154</masterclipid>
                <rate>
                  <timebase>24</timebase>
                  <ntsc>FALSE</ntsc>
                </rate>
                <duration>1</duration>
                <enabled>TRUE</enabled>
                <alphatype>straight</alphatype>
                <rate>
                  <timebase>24</timebase>
                  <ntsc>FALSE</ntsc>
                </rate>
                <enabled>TRUE</enabled>
                <start>152</start>
                <end>153</end>
                <file id="file-154"/>
              </clipitem>
              <clipitem frameBlend="FALSE" id="clipitem-318">
                <name>Antonio.153.png</name>
                <masterclipid>masterclip-155</masterclipid>
                <rate>
                  <timebase>24</timebase>
                  <ntsc>FALSE</ntsc>
                </rate>
                <duration>1</duration>
                <enabled>TRUE</enabled>
                <alphatype>straight</alphatype>
                <rate>
                  <timebase>24</timebase>
                  <ntsc>FALSE</ntsc>
                </rate>
                <enabled>TRUE</enabled>
                <start>153</start>
                <end>154</end>
                <file id="file-155"/>
              </clipitem>
              <clipitem frameBlend="FALSE" id="clipitem-319">
                <name>Antonio.154.png</name>
                <masterclipid>masterclip-156</masterclipid>
                <rate>
                  <timebase>24</timebase>
                  <ntsc>FALSE</ntsc>
                </rate>
                <duration>1</duration>
                <enabled>TRUE</enabled>
                <alphatype>straight</alphatype>
                <rate>
                  <timebase>24</timebase>
                  <ntsc>FALSE</ntsc>
                </rate>
                <enabled>TRUE</enabled>
                <start>154</start>
                <end>155</end>
                <file id="file-156"/>
              </clipitem>
              <clipitem frameBlend="FALSE" id="clipitem-320">
                <name>Antonio.155.png</name>
                <masterclipid>masterclip-157</masterclipid>
                <rate>
                  <timebase>24</timebase>
                  <ntsc>FALSE</ntsc>
                </rate>
                <duration>1</duration>
                <enabled>TRUE</enabled>
                <alphatype>straight</alphatype>
                <rate>
                  <timebase>24</timebase>
                  <ntsc>FALSE</ntsc>
                </rate>
                <enabled>TRUE</enabled>
                <start>155</start>
                <end>156</end>
                <file id="file-157"/>
              </clipitem>
              <clipitem frameBlend="FALSE" id="clipitem-321">
                <name>Antonio.156.png</name>
                <masterclipid>masterclip-158</masterclipid>
                <rate>
                  <timebase>24</timebase>
                  <ntsc>FALSE</ntsc>
                </rate>
                <duration>1</duration>
                <enabled>TRUE</enabled>
                <alphatype>straight</alphatype>
                <rate>
                  <timebase>24</timebase>
                  <ntsc>FALSE</ntsc>
                </rate>
                <enabled>TRUE</enabled>
                <start>156</start>
                <end>157</end>
                <file id="file-158"/>
              </clipitem>
              <clipitem frameBlend="FALSE" id="clipitem-322">
                <name>Antonio.157.png</name>
                <masterclipid>masterclip-159</masterclipid>
                <rate>
                  <timebase>24</timebase>
                  <ntsc>FALSE</ntsc>
                </rate>
                <duration>1</duration>
                <enabled>TRUE</enabled>
                <alphatype>straight</alphatype>
                <rate>
                  <timebase>24</timebase>
                  <ntsc>FALSE</ntsc>
                </rate>
                <enabled>TRUE</enabled>
                <start>157</start>
                <end>158</end>
                <file id="file-159"/>
              </clipitem>
              <clipitem frameBlend="FALSE" id="clipitem-323">
                <name>Antonio.158.png</name>
                <masterclipid>masterclip-160</masterclipid>
                <rate>
                  <timebase>24</timebase>
                  <ntsc>FALSE</ntsc>
                </rate>
                <duration>1</duration>
                <enabled>TRUE</enabled>
                <alphatype>straight</alphatype>
                <rate>
                  <timebase>24</timebase>
                  <ntsc>FALSE</ntsc>
                </rate>
                <enabled>TRUE</enabled>
                <start>158</start>
                <end>159</end>
                <file id="file-160"/>
              </clipitem>
              <clipitem frameBlend="FALSE" id="clipitem-324">
                <name>Antonio.159.png</name>
                <masterclipid>masterclip-161</masterclipid>
                <rate>
                  <timebase>24</timebase>
                  <ntsc>FALSE</ntsc>
                </rate>
                <duration>1</duration>
                <enabled>TRUE</enabled>
                <alphatype>straight</alphatype>
                <rate>
                  <timebase>24</timebase>
                  <ntsc>FALSE</ntsc>
                </rate>
                <enabled>TRUE</enabled>
                <start>159</start>
                <end>160</end>
                <file id="file-161"/>
              </clipitem>
              <clipitem frameBlend="FALSE" id="clipitem-325">
                <name>Antonio.160.png</name>
                <masterclipid>masterclip-162</masterclipid>
                <rate>
                  <timebase>24</timebase>
                  <ntsc>FALSE</ntsc>
                </rate>
                <duration>1</duration>
                <enabled>TRUE</enabled>
                <alphatype>straight</alphatype>
                <rate>
                  <timebase>24</timebase>
                  <ntsc>FALSE</ntsc>
                </rate>
                <enabled>TRUE</enabled>
                <start>160</start>
                <end>161</end>
                <file id="file-162"/>
              </clipitem>
              <clipitem frameBlend="FALSE" id="clipitem-326">
                <name>Antonio.161.png</name>
                <masterclipid>masterclip-163</masterclipid>
                <rate>
                  <timebase>24</timebase>
                  <ntsc>FALSE</ntsc>
                </rate>
                <duration>1</duration>
                <enabled>TRUE</enabled>
                <alphatype>straight</alphatype>
                <rate>
                  <timebase>24</timebase>
                  <ntsc>FALSE</ntsc>
                </rate>
                <enabled>TRUE</enabled>
                <start>161</start>
                <end>162</end>
                <file id="file-163"/>
              </clipitem>
            </track>
            <format>
              <samplecharacteristics>
                <anamorphic>FALSE</anamorphic>
                <pixelaspectratio>square</pixelaspectratio>
                <fielddominance>none</fielddominance>
                <width>686</width>
                <height>511</height>
                <rate>
                  <timebase>24</timebase>
                  <ntsc>FALSE</ntsc>
                </rate>
              </samplecharacteristics>
            </format>
          </video>
          <audio>
            <numOutputChannels>2</numOutputChannels>
            <track frameBlend="FALSE" premiereChannelType="Stereo">
              <clipitem frameBlend="FALSE" id="clipitem-1" premiereChannelType="stereo">
                <name>Antonio.wav</name>
                <masterclipid>masterclip-1</masterclipid>
                <rate>
                  <timebase>24</timebase>
                  <ntsc>FALSE</ntsc>
                </rate>
                <start>0</start>
                <end>162</end>
                <in>0</in>
                <out>162</out>
                <sourcetrack>
                  <mediatype>audio</mediatype>
                  <trackindex>1</trackindex>
                </sourcetrack>
                <link>
                  <linkclipref>clipitem-1</linkclipref>
                  <mediatype>audio</mediatype>
                  <trackindex>1</trackindex>
                  <clipindex>1</clipindex>
                  <groupindex>1</groupindex>
                </link>
                <link>
                  <linkclipref>clipitem-2</linkclipref>
                  <mediatype>audio</mediatype>
                  <trackindex>2</trackindex>
                  <clipindex>1</clipindex>
                  <groupindex>1</groupindex>
                </link>
                <file id="file-1"/>
              </clipitem>
              <enabled>TRUE</enabled>
              <outputchannelindex>1</outputchannelindex>
            </track>
            <track frameBlend="FALSE" premiereChannelType="Stereo">
              <clipitem frameBlend="FALSE" id="clipitem-2" premiereChannelType="stereo">
                <name>Antonio.wav</name>
                <masterclipid>masterclip-1</masterclipid>
                <rate>
                  <timebase>24</timebase>
                  <ntsc>FALSE</ntsc>
                </rate>
                <start>0</start>
                <end>162</end>
                <in>0</in>
                <out>162</out>
                <sourcetrack>
                  <mediatype>audio</mediatype>
                  <trackindex>2</trackindex>
                </sourcetrack>
                <link>
                  <linkclipref>clipitem-1</linkclipref>
                  <mediatype>audio</mediatype>
                  <trackindex>1</trackindex>
                  <clipindex>1</clipindex>
                  <groupindex>1</groupindex>
                </link>
                <link>
                  <linkclipref>clipitem-2</linkclipref>
                  <mediatype>audio</mediatype>
                  <trackindex>2</trackindex>
                  <clipindex>1</clipindex>
                  <groupindex>1</groupindex>
                </link>
                <file id="file-1"/>
              </clipitem>
              <enabled>TRUE</enabled>
              <outputchannelindex>2</outputchannelindex>
            </track>
            <outputs>
              <group>
                <index>0</index>
                <numchannels>1</numchannels>
                <downmix>0</downmix>
                <group>
                  <index>0</index>
                </group>
              </group>
              <group>
                <index>1</index>
                <numchannels>1</numchannels>
                <downmix>0</downmix>
                <group>
                  <index>1</index>
                </group>
              </group>
            </outputs>
            <format>
              <samplecharacteristics>
                <samplerate>48000</samplerate>
                <depth>32</depth>
              </samplecharacteristics>
            </format>
          </audio>
        </media>
        <timecode>
          <rate>
            <timebase>24</timebase>
            <ntsc>FALSE</ntsc>
          </rate>
        </timecode>
      </sequence>
      <bin>
        <name>Antonio Bin</name>
        <children>
          <clip explodedTracks="true" frameBlend="FALSE" id="masterclip-1">
            <uuid>2781e560-a857-4def-83cd-d06a3c91896f</uuid>
            <masterclipid>masterclip-1</masterclipid>
            <ismasterclip>TRUE</ismasterclip>
            <duration>162</duration>
            <in>0</in>
            <out>162</out>
            <name>Antonio.wav</name>
            <rate>
              <timebase>24</timebase>
              <ntsc>FALSE</ntsc>
            </rate>
            <media>
              <audio>
                <track>
                  <clipitem frameBlend="FALSE" id="clipitem-1">
                    <name>Antonio.wav</name>
                    <masterclipid>masterclip-1</masterclipid>
                    <rate>
                      <timebase>24</timebase>
                      <ntsc>FALSE</ntsc>
                    </rate>
                    <file id="file-1">
                      <name>Antonio.wav</name>
                      <pathurl>file://localhost/Users/antoniochiappetta/OneDrive - Aalto University/University/Aalto/Hackatons/Junction/Junction2019-IoK-security_awareness_kids/Assets/Team Animations/Image Sequences/Antonio/Antonio.wav</pathurl>
                      <rate>
                        <timebase>24</timebase>
                        <ntsc>FALSE</ntsc>
                      </rate>
                      <duration>162</duration>
                      <timecode>
                        <rate>
                          <timebase>24</timebase>
                          <ntsc>FALSE</ntsc>
                        </rate>
                      </timecode>
                      <media>
                        <audio>
                          <samplecharacteristics>
                            <samplerate>48000</samplerate>
                            <depth>32</depth>
                          </samplecharacteristics>
                          <channelcount>2</channelcount>
                        </audio>
                      </media>
                    </file>
                    <sourcetrack>
                      <mediatype>audio</mediatype>
                      <trackindex>1</trackindex>
                    </sourcetrack>
                    <link>
                      <linkclipref>clipitem-1</linkclipref>
                      <mediatype>audio</mediatype>
                      <trackindex>1</trackindex>
                      <clipindex>1</clipindex>
                      <groupindex>1</groupindex>
                    </link>
                    <link>
                      <linkclipref>clipitem-2</linkclipref>
                      <mediatype>audio</mediatype>
                      <trackindex>2</trackindex>
                      <clipindex>1</clipindex>
                      <groupindex>1</groupindex>
                    </link>
                  </clipitem>
                </track>
                <track>
                  <clipitem frameBlend="FALSE" id="clipitem-2">
                    <name>Antonio.wav</name>
                    <masterclipid>masterclip-1</masterclipid>
                    <rate>
                      <timebase>24</timebase>
                      <ntsc>FALSE</ntsc>
                    </rate>
                    <sourcetrack>
                      <mediatype>audio</mediatype>
                      <trackindex>2</trackindex>
                    </sourcetrack>
                    <link>
                      <linkclipref>clipitem-1</linkclipref>
                      <mediatype>audio</mediatype>
                      <trackindex>1</trackindex>
                      <clipindex>1</clipindex>
                      <groupindex>1</groupindex>
                    </link>
                    <link>
                      <linkclipref>clipitem-2</linkclipref>
                      <mediatype>audio</mediatype>
                      <trackindex>2</trackindex>
                      <clipindex>1</clipindex>
                      <groupindex>1</groupindex>
                    </link>
                  </clipitem>
                </track>
              </audio>
            </media>
          </clip>
          <clip explodedTracks="true" frameBlend="FALSE" id="masterclip-2">
            <uuid>aca62815-4e1c-4822-a980-e15ed3e607ab</uuid>
            <masterclipid>masterclip-2</masterclipid>
            <ismasterclip>TRUE</ismasterclip>
            <duration>162</duration>
            <in>0</in>
            <out>162</out>
            <name>Antonio.000.png</name>
            <rate>
              <timebase>24</timebase>
              <ntsc>FALSE</ntsc>
            </rate>
            <media>
              <video>
                <track>
                  <clipitem frameBlend="FALSE" id="clipitem-3">
                    <name>Antonio.000.png</name>
                    <masterclipid>masterclip-2</masterclipid>
                    <rate>
                      <timebase>24</timebase>
                      <ntsc>FALSE</ntsc>
                    </rate>
                    <alphatype>straight</alphatype>
                    <pixelaspectratio>square</pixelaspectratio>
                    <anamorphic>FALSE</anamorphic>
                    <file id="file-2">
                      <name>Antonio.000.png</name>
                      <pathurl>file://localhost/Users/antoniochiappetta/OneDrive - Aalto University/University/Aalto/Hackatons/Junction/Junction2019-IoK-security_awareness_kids/Assets/Team Animations/Image Sequences/Antonio/Antonio.000.png</pathurl>
                      <rate>
                        <timebase>24</timebase>
                        <ntsc>FALSE</ntsc>
                      </rate>
                      <duration>162</duration>
                      <timecode>
                        <rate>
                          <timebase>24</timebase>
                          <ntsc>FALSE</ntsc>
                        </rate>
                      </timecode>
                      <media>
                        <video>
                          <duration>1</duration>
                          <samplecharacteristics>
                            <anamorphic>FALSE</anamorphic>
                            <pixelaspectratio>square</pixelaspectratio>
                            <fielddominance>none</fielddominance>
                            <width>686</width>
                            <height>511</height>
                          </samplecharacteristics>
                        </video>
                      </media>
                    </file>
                  </clipitem>
                </track>
              </video>
            </media>
          </clip>
          <clip explodedTracks="true" frameBlend="FALSE" id="masterclip-3">
            <uuid>a094eb28-c9b5-4935-b7b6-9b91a3752c4d</uuid>
            <masterclipid>masterclip-3</masterclipid>
            <ismasterclip>TRUE</ismasterclip>
            <duration>162</duration>
            <in>0</in>
            <out>162</out>
            <name>Antonio.001.png</name>
            <rate>
              <timebase>24</timebase>
              <ntsc>FALSE</ntsc>
            </rate>
            <media>
              <video>
                <track>
                  <clipitem frameBlend="FALSE" id="clipitem-4">
                    <name>Antonio.001.png</name>
                    <masterclipid>masterclip-3</masterclipid>
                    <rate>
                      <timebase>24</timebase>
                      <ntsc>FALSE</ntsc>
                    </rate>
                    <alphatype>straight</alphatype>
                    <pixelaspectratio>square</pixelaspectratio>
                    <anamorphic>FALSE</anamorphic>
                    <file id="file-3">
                      <name>Antonio.001.png</name>
                      <pathurl>file://localhost/Users/antoniochiappetta/OneDrive - Aalto University/University/Aalto/Hackatons/Junction/Junction2019-IoK-security_awareness_kids/Assets/Team Animations/Image Sequences/Antonio/Antonio.001.png</pathurl>
                      <rate>
                        <timebase>24</timebase>
                        <ntsc>FALSE</ntsc>
                      </rate>
                      <duration>162</duration>
                      <timecode>
                        <rate>
                          <timebase>24</timebase>
                          <ntsc>FALSE</ntsc>
                        </rate>
                      </timecode>
                      <media>
                        <video>
                          <duration>1</duration>
                          <samplecharacteristics>
                            <anamorphic>FALSE</anamorphic>
                            <pixelaspectratio>square</pixelaspectratio>
                            <fielddominance>none</fielddominance>
                            <width>686</width>
                            <height>511</height>
                          </samplecharacteristics>
                        </video>
                      </media>
                    </file>
                  </clipitem>
                </track>
              </video>
            </media>
          </clip>
          <clip explodedTracks="true" frameBlend="FALSE" id="masterclip-4">
            <uuid>2619dd60-5d1a-44d4-89bc-c1a6f9ddbe38</uuid>
            <masterclipid>masterclip-4</masterclipid>
            <ismasterclip>TRUE</ismasterclip>
            <duration>162</duration>
            <in>0</in>
            <out>162</out>
            <name>Antonio.002.png</name>
            <rate>
              <timebase>24</timebase>
              <ntsc>FALSE</ntsc>
            </rate>
            <media>
              <video>
                <track>
                  <clipitem frameBlend="FALSE" id="clipitem-5">
                    <name>Antonio.002.png</name>
                    <masterclipid>masterclip-4</masterclipid>
                    <rate>
                      <timebase>24</timebase>
                      <ntsc>FALSE</ntsc>
                    </rate>
                    <alphatype>straight</alphatype>
                    <pixelaspectratio>square</pixelaspectratio>
                    <anamorphic>FALSE</anamorphic>
                    <file id="file-4">
                      <name>Antonio.002.png</name>
                      <pathurl>file://localhost/Users/antoniochiappetta/OneDrive - Aalto University/University/Aalto/Hackatons/Junction/Junction2019-IoK-security_awareness_kids/Assets/Team Animations/Image Sequences/Antonio/Antonio.002.png</pathurl>
                      <rate>
                        <timebase>24</timebase>
                        <ntsc>FALSE</ntsc>
                      </rate>
                      <duration>162</duration>
                      <timecode>
                        <rate>
                          <timebase>24</timebase>
                          <ntsc>FALSE</ntsc>
                        </rate>
                      </timecode>
                      <media>
                        <video>
                          <duration>1</duration>
                          <samplecharacteristics>
                            <anamorphic>FALSE</anamorphic>
                            <pixelaspectratio>square</pixelaspectratio>
                            <fielddominance>none</fielddominance>
                            <width>686</width>
                            <height>511</height>
                          </samplecharacteristics>
                        </video>
                      </media>
                    </file>
                  </clipitem>
                </track>
              </video>
            </media>
          </clip>
          <clip explodedTracks="true" frameBlend="FALSE" id="masterclip-5">
            <uuid>fc425a08-f6cd-46d4-b142-0b7876ca027d</uuid>
            <masterclipid>masterclip-5</masterclipid>
            <ismasterclip>TRUE</ismasterclip>
            <duration>162</duration>
            <in>0</in>
            <out>162</out>
            <name>Antonio.003.png</name>
            <rate>
              <timebase>24</timebase>
              <ntsc>FALSE</ntsc>
            </rate>
            <media>
              <video>
                <track>
                  <clipitem frameBlend="FALSE" id="clipitem-6">
                    <name>Antonio.003.png</name>
                    <masterclipid>masterclip-5</masterclipid>
                    <rate>
                      <timebase>24</timebase>
                      <ntsc>FALSE</ntsc>
                    </rate>
                    <alphatype>straight</alphatype>
                    <pixelaspectratio>square</pixelaspectratio>
                    <anamorphic>FALSE</anamorphic>
                    <file id="file-5">
                      <name>Antonio.003.png</name>
                      <pathurl>file://localhost/Users/antoniochiappetta/OneDrive - Aalto University/University/Aalto/Hackatons/Junction/Junction2019-IoK-security_awareness_kids/Assets/Team Animations/Image Sequences/Antonio/Antonio.003.png</pathurl>
                      <rate>
                        <timebase>24</timebase>
                        <ntsc>FALSE</ntsc>
                      </rate>
                      <duration>162</duration>
                      <timecode>
                        <rate>
                          <timebase>24</timebase>
                          <ntsc>FALSE</ntsc>
                        </rate>
                      </timecode>
                      <media>
                        <video>
                          <duration>1</duration>
                          <samplecharacteristics>
                            <anamorphic>FALSE</anamorphic>
                            <pixelaspectratio>square</pixelaspectratio>
                            <fielddominance>none</fielddominance>
                            <width>686</width>
                            <height>511</height>
                          </samplecharacteristics>
                        </video>
                      </media>
                    </file>
                  </clipitem>
                </track>
              </video>
            </media>
          </clip>
          <clip explodedTracks="true" frameBlend="FALSE" id="masterclip-6">
            <uuid>bf91d722-bfc8-4bc0-8fda-b3778142d2f3</uuid>
            <masterclipid>masterclip-6</masterclipid>
            <ismasterclip>TRUE</ismasterclip>
            <duration>162</duration>
            <in>0</in>
            <out>162</out>
            <name>Antonio.004.png</name>
            <rate>
              <timebase>24</timebase>
              <ntsc>FALSE</ntsc>
            </rate>
            <media>
              <video>
                <track>
                  <clipitem frameBlend="FALSE" id="clipitem-7">
                    <name>Antonio.004.png</name>
                    <masterclipid>masterclip-6</masterclipid>
                    <rate>
                      <timebase>24</timebase>
                      <ntsc>FALSE</ntsc>
                    </rate>
                    <alphatype>straight</alphatype>
                    <pixelaspectratio>square</pixelaspectratio>
                    <anamorphic>FALSE</anamorphic>
                    <file id="file-6">
                      <name>Antonio.004.png</name>
                      <pathurl>file://localhost/Users/antoniochiappetta/OneDrive - Aalto University/University/Aalto/Hackatons/Junction/Junction2019-IoK-security_awareness_kids/Assets/Team Animations/Image Sequences/Antonio/Antonio.004.png</pathurl>
                      <rate>
                        <timebase>24</timebase>
                        <ntsc>FALSE</ntsc>
                      </rate>
                      <duration>162</duration>
                      <timecode>
                        <rate>
                          <timebase>24</timebase>
                          <ntsc>FALSE</ntsc>
                        </rate>
                      </timecode>
                      <media>
                        <video>
                          <duration>1</duration>
                          <samplecharacteristics>
                            <anamorphic>FALSE</anamorphic>
                            <pixelaspectratio>square</pixelaspectratio>
                            <fielddominance>none</fielddominance>
                            <width>686</width>
                            <height>511</height>
                          </samplecharacteristics>
                        </video>
                      </media>
                    </file>
                  </clipitem>
                </track>
              </video>
            </media>
          </clip>
          <clip explodedTracks="true" frameBlend="FALSE" id="masterclip-7">
            <uuid>686605c7-ec4a-4214-918a-4d080572bce2</uuid>
            <masterclipid>masterclip-7</masterclipid>
            <ismasterclip>TRUE</ismasterclip>
            <duration>162</duration>
            <in>0</in>
            <out>162</out>
            <name>Antonio.005.png</name>
            <rate>
              <timebase>24</timebase>
              <ntsc>FALSE</ntsc>
            </rate>
            <media>
              <video>
                <track>
                  <clipitem frameBlend="FALSE" id="clipitem-8">
                    <name>Antonio.005.png</name>
                    <masterclipid>masterclip-7</masterclipid>
                    <rate>
                      <timebase>24</timebase>
                      <ntsc>FALSE</ntsc>
                    </rate>
                    <alphatype>straight</alphatype>
                    <pixelaspectratio>square</pixelaspectratio>
                    <anamorphic>FALSE</anamorphic>
                    <file id="file-7">
                      <name>Antonio.005.png</name>
                      <pathurl>file://localhost/Users/antoniochiappetta/OneDrive - Aalto University/University/Aalto/Hackatons/Junction/Junction2019-IoK-security_awareness_kids/Assets/Team Animations/Image Sequences/Antonio/Antonio.005.png</pathurl>
                      <rate>
                        <timebase>24</timebase>
                        <ntsc>FALSE</ntsc>
                      </rate>
                      <duration>162</duration>
                      <timecode>
                        <rate>
                          <timebase>24</timebase>
                          <ntsc>FALSE</ntsc>
                        </rate>
                      </timecode>
                      <media>
                        <video>
                          <duration>1</duration>
                          <samplecharacteristics>
                            <anamorphic>FALSE</anamorphic>
                            <pixelaspectratio>square</pixelaspectratio>
                            <fielddominance>none</fielddominance>
                            <width>686</width>
                            <height>511</height>
                          </samplecharacteristics>
                        </video>
                      </media>
                    </file>
                  </clipitem>
                </track>
              </video>
            </media>
          </clip>
          <clip explodedTracks="true" frameBlend="FALSE" id="masterclip-8">
            <uuid>07bc1005-1420-423f-a3e5-3c290c5cb088</uuid>
            <masterclipid>masterclip-8</masterclipid>
            <ismasterclip>TRUE</ismasterclip>
            <duration>162</duration>
            <in>0</in>
            <out>162</out>
            <name>Antonio.006.png</name>
            <rate>
              <timebase>24</timebase>
              <ntsc>FALSE</ntsc>
            </rate>
            <media>
              <video>
                <track>
                  <clipitem frameBlend="FALSE" id="clipitem-9">
                    <name>Antonio.006.png</name>
                    <masterclipid>masterclip-8</masterclipid>
                    <rate>
                      <timebase>24</timebase>
                      <ntsc>FALSE</ntsc>
                    </rate>
                    <alphatype>straight</alphatype>
                    <pixelaspectratio>square</pixelaspectratio>
                    <anamorphic>FALSE</anamorphic>
                    <file id="file-8">
                      <name>Antonio.006.png</name>
                      <pathurl>file://localhost/Users/antoniochiappetta/OneDrive - Aalto University/University/Aalto/Hackatons/Junction/Junction2019-IoK-security_awareness_kids/Assets/Team Animations/Image Sequences/Antonio/Antonio.006.png</pathurl>
                      <rate>
                        <timebase>24</timebase>
                        <ntsc>FALSE</ntsc>
                      </rate>
                      <duration>162</duration>
                      <timecode>
                        <rate>
                          <timebase>24</timebase>
                          <ntsc>FALSE</ntsc>
                        </rate>
                      </timecode>
                      <media>
                        <video>
                          <duration>1</duration>
                          <samplecharacteristics>
                            <anamorphic>FALSE</anamorphic>
                            <pixelaspectratio>square</pixelaspectratio>
                            <fielddominance>none</fielddominance>
                            <width>686</width>
                            <height>511</height>
                          </samplecharacteristics>
                        </video>
                      </media>
                    </file>
                  </clipitem>
                </track>
              </video>
            </media>
          </clip>
          <clip explodedTracks="true" frameBlend="FALSE" id="masterclip-9">
            <uuid>10e77e0d-c21c-4d2f-b99b-3073b9612e18</uuid>
            <masterclipid>masterclip-9</masterclipid>
            <ismasterclip>TRUE</ismasterclip>
            <duration>162</duration>
            <in>0</in>
            <out>162</out>
            <name>Antonio.007.png</name>
            <rate>
              <timebase>24</timebase>
              <ntsc>FALSE</ntsc>
            </rate>
            <media>
              <video>
                <track>
                  <clipitem frameBlend="FALSE" id="clipitem-10">
                    <name>Antonio.007.png</name>
                    <masterclipid>masterclip-9</masterclipid>
                    <rate>
                      <timebase>24</timebase>
                      <ntsc>FALSE</ntsc>
                    </rate>
                    <alphatype>straight</alphatype>
                    <pixelaspectratio>square</pixelaspectratio>
                    <anamorphic>FALSE</anamorphic>
                    <file id="file-9">
                      <name>Antonio.007.png</name>
                      <pathurl>file://localhost/Users/antoniochiappetta/OneDrive - Aalto University/University/Aalto/Hackatons/Junction/Junction2019-IoK-security_awareness_kids/Assets/Team Animations/Image Sequences/Antonio/Antonio.007.png</pathurl>
                      <rate>
                        <timebase>24</timebase>
                        <ntsc>FALSE</ntsc>
                      </rate>
                      <duration>162</duration>
                      <timecode>
                        <rate>
                          <timebase>24</timebase>
                          <ntsc>FALSE</ntsc>
                        </rate>
                      </timecode>
                      <media>
                        <video>
                          <duration>1</duration>
                          <samplecharacteristics>
                            <anamorphic>FALSE</anamorphic>
                            <pixelaspectratio>square</pixelaspectratio>
                            <fielddominance>none</fielddominance>
                            <width>686</width>
                            <height>511</height>
                          </samplecharacteristics>
                        </video>
                      </media>
                    </file>
                  </clipitem>
                </track>
              </video>
            </media>
          </clip>
          <clip explodedTracks="true" frameBlend="FALSE" id="masterclip-10">
            <uuid>40d07b80-3a14-4482-9ab5-7e9747a824e4</uuid>
            <masterclipid>masterclip-10</masterclipid>
            <ismasterclip>TRUE</ismasterclip>
            <duration>162</duration>
            <in>0</in>
            <out>162</out>
            <name>Antonio.008.png</name>
            <rate>
              <timebase>24</timebase>
              <ntsc>FALSE</ntsc>
            </rate>
            <media>
              <video>
                <track>
                  <clipitem frameBlend="FALSE" id="clipitem-11">
                    <name>Antonio.008.png</name>
                    <masterclipid>masterclip-10</masterclipid>
                    <rate>
                      <timebase>24</timebase>
                      <ntsc>FALSE</ntsc>
                    </rate>
                    <alphatype>straight</alphatype>
                    <pixelaspectratio>square</pixelaspectratio>
                    <anamorphic>FALSE</anamorphic>
                    <file id="file-10">
                      <name>Antonio.008.png</name>
                      <pathurl>file://localhost/Users/antoniochiappetta/OneDrive - Aalto University/University/Aalto/Hackatons/Junction/Junction2019-IoK-security_awareness_kids/Assets/Team Animations/Image Sequences/Antonio/Antonio.008.png</pathurl>
                      <rate>
                        <timebase>24</timebase>
                        <ntsc>FALSE</ntsc>
                      </rate>
                      <duration>162</duration>
                      <timecode>
                        <rate>
                          <timebase>24</timebase>
                          <ntsc>FALSE</ntsc>
                        </rate>
                      </timecode>
                      <media>
                        <video>
                          <duration>1</duration>
                          <samplecharacteristics>
                            <anamorphic>FALSE</anamorphic>
                            <pixelaspectratio>square</pixelaspectratio>
                            <fielddominance>none</fielddominance>
                            <width>686</width>
                            <height>511</height>
                          </samplecharacteristics>
                        </video>
                      </media>
                    </file>
                  </clipitem>
                </track>
              </video>
            </media>
          </clip>
          <clip explodedTracks="true" frameBlend="FALSE" id="masterclip-11">
            <uuid>4be95a1b-25d5-45f2-858b-0ea5e7b4a585</uuid>
            <masterclipid>masterclip-11</masterclipid>
            <ismasterclip>TRUE</ismasterclip>
            <duration>162</duration>
            <in>0</in>
            <out>162</out>
            <name>Antonio.009.png</name>
            <rate>
              <timebase>24</timebase>
              <ntsc>FALSE</ntsc>
            </rate>
            <media>
              <video>
                <track>
                  <clipitem frameBlend="FALSE" id="clipitem-12">
                    <name>Antonio.009.png</name>
                    <masterclipid>masterclip-11</masterclipid>
                    <rate>
                      <timebase>24</timebase>
                      <ntsc>FALSE</ntsc>
                    </rate>
                    <alphatype>straight</alphatype>
                    <pixelaspectratio>square</pixelaspectratio>
                    <anamorphic>FALSE</anamorphic>
                    <file id="file-11">
                      <name>Antonio.009.png</name>
                      <pathurl>file://localhost/Users/antoniochiappetta/OneDrive - Aalto University/University/Aalto/Hackatons/Junction/Junction2019-IoK-security_awareness_kids/Assets/Team Animations/Image Sequences/Antonio/Antonio.009.png</pathurl>
                      <rate>
                        <timebase>24</timebase>
                        <ntsc>FALSE</ntsc>
                      </rate>
                      <duration>162</duration>
                      <timecode>
                        <rate>
                          <timebase>24</timebase>
                          <ntsc>FALSE</ntsc>
                        </rate>
                      </timecode>
                      <media>
                        <video>
                          <duration>1</duration>
                          <samplecharacteristics>
                            <anamorphic>FALSE</anamorphic>
                            <pixelaspectratio>square</pixelaspectratio>
                            <fielddominance>none</fielddominance>
                            <width>686</width>
                            <height>511</height>
                          </samplecharacteristics>
                        </video>
                      </media>
                    </file>
                  </clipitem>
                </track>
              </video>
            </media>
          </clip>
          <clip explodedTracks="true" frameBlend="FALSE" id="masterclip-12">
            <uuid>b55103f2-bab3-4b59-9052-cbaf6a147821</uuid>
            <masterclipid>masterclip-12</masterclipid>
            <ismasterclip>TRUE</ismasterclip>
            <duration>162</duration>
            <in>0</in>
            <out>162</out>
            <name>Antonio.010.png</name>
            <rate>
              <timebase>24</timebase>
              <ntsc>FALSE</ntsc>
            </rate>
            <media>
              <video>
                <track>
                  <clipitem frameBlend="FALSE" id="clipitem-13">
                    <name>Antonio.010.png</name>
                    <masterclipid>masterclip-12</masterclipid>
                    <rate>
                      <timebase>24</timebase>
                      <ntsc>FALSE</ntsc>
                    </rate>
                    <alphatype>straight</alphatype>
                    <pixelaspectratio>square</pixelaspectratio>
                    <anamorphic>FALSE</anamorphic>
                    <file id="file-12">
                      <name>Antonio.010.png</name>
                      <pathurl>file://localhost/Users/antoniochiappetta/OneDrive - Aalto University/University/Aalto/Hackatons/Junction/Junction2019-IoK-security_awareness_kids/Assets/Team Animations/Image Sequences/Antonio/Antonio.010.png</pathurl>
                      <rate>
                        <timebase>24</timebase>
                        <ntsc>FALSE</ntsc>
                      </rate>
                      <duration>162</duration>
                      <timecode>
                        <rate>
                          <timebase>24</timebase>
                          <ntsc>FALSE</ntsc>
                        </rate>
                      </timecode>
                      <media>
                        <video>
                          <duration>1</duration>
                          <samplecharacteristics>
                            <anamorphic>FALSE</anamorphic>
                            <pixelaspectratio>square</pixelaspectratio>
                            <fielddominance>none</fielddominance>
                            <width>686</width>
                            <height>511</height>
                          </samplecharacteristics>
                        </video>
                      </media>
                    </file>
                  </clipitem>
                </track>
              </video>
            </media>
          </clip>
          <clip explodedTracks="true" frameBlend="FALSE" id="masterclip-13">
            <uuid>3f1fd20f-ec8d-4c5b-a56a-b2bfa640438b</uuid>
            <masterclipid>masterclip-13</masterclipid>
            <ismasterclip>TRUE</ismasterclip>
            <duration>162</duration>
            <in>0</in>
            <out>162</out>
            <name>Antonio.011.png</name>
            <rate>
              <timebase>24</timebase>
              <ntsc>FALSE</ntsc>
            </rate>
            <media>
              <video>
                <track>
                  <clipitem frameBlend="FALSE" id="clipitem-14">
                    <name>Antonio.011.png</name>
                    <masterclipid>masterclip-13</masterclipid>
                    <rate>
                      <timebase>24</timebase>
                      <ntsc>FALSE</ntsc>
                    </rate>
                    <alphatype>straight</alphatype>
                    <pixelaspectratio>square</pixelaspectratio>
                    <anamorphic>FALSE</anamorphic>
                    <file id="file-13">
                      <name>Antonio.011.png</name>
                      <pathurl>file://localhost/Users/antoniochiappetta/OneDrive - Aalto University/University/Aalto/Hackatons/Junction/Junction2019-IoK-security_awareness_kids/Assets/Team Animations/Image Sequences/Antonio/Antonio.011.png</pathurl>
                      <rate>
                        <timebase>24</timebase>
                        <ntsc>FALSE</ntsc>
                      </rate>
                      <duration>162</duration>
                      <timecode>
                        <rate>
                          <timebase>24</timebase>
                          <ntsc>FALSE</ntsc>
                        </rate>
                      </timecode>
                      <media>
                        <video>
                          <duration>1</duration>
                          <samplecharacteristics>
                            <anamorphic>FALSE</anamorphic>
                            <pixelaspectratio>square</pixelaspectratio>
                            <fielddominance>none</fielddominance>
                            <width>686</width>
                            <height>511</height>
                          </samplecharacteristics>
                        </video>
                      </media>
                    </file>
                  </clipitem>
                </track>
              </video>
            </media>
          </clip>
          <clip explodedTracks="true" frameBlend="FALSE" id="masterclip-14">
            <uuid>2504f0e8-f4ce-4917-97ed-f011a241ef95</uuid>
            <masterclipid>masterclip-14</masterclipid>
            <ismasterclip>TRUE</ismasterclip>
            <duration>162</duration>
            <in>0</in>
            <out>162</out>
            <name>Antonio.012.png</name>
            <rate>
              <timebase>24</timebase>
              <ntsc>FALSE</ntsc>
            </rate>
            <media>
              <video>
                <track>
                  <clipitem frameBlend="FALSE" id="clipitem-15">
                    <name>Antonio.012.png</name>
                    <masterclipid>masterclip-14</masterclipid>
                    <rate>
                      <timebase>24</timebase>
                      <ntsc>FALSE</ntsc>
                    </rate>
                    <alphatype>straight</alphatype>
                    <pixelaspectratio>square</pixelaspectratio>
                    <anamorphic>FALSE</anamorphic>
                    <file id="file-14">
                      <name>Antonio.012.png</name>
                      <pathurl>file://localhost/Users/antoniochiappetta/OneDrive - Aalto University/University/Aalto/Hackatons/Junction/Junction2019-IoK-security_awareness_kids/Assets/Team Animations/Image Sequences/Antonio/Antonio.012.png</pathurl>
                      <rate>
                        <timebase>24</timebase>
                        <ntsc>FALSE</ntsc>
                      </rate>
                      <duration>162</duration>
                      <timecode>
                        <rate>
                          <timebase>24</timebase>
                          <ntsc>FALSE</ntsc>
                        </rate>
                      </timecode>
                      <media>
                        <video>
                          <duration>1</duration>
                          <samplecharacteristics>
                            <anamorphic>FALSE</anamorphic>
                            <pixelaspectratio>square</pixelaspectratio>
                            <fielddominance>none</fielddominance>
                            <width>686</width>
                            <height>511</height>
                          </samplecharacteristics>
                        </video>
                      </media>
                    </file>
                  </clipitem>
                </track>
              </video>
            </media>
          </clip>
          <clip explodedTracks="true" frameBlend="FALSE" id="masterclip-15">
            <uuid>e77c3a59-2509-472a-a485-f505383be83e</uuid>
            <masterclipid>masterclip-15</masterclipid>
            <ismasterclip>TRUE</ismasterclip>
            <duration>162</duration>
            <in>0</in>
            <out>162</out>
            <name>Antonio.013.png</name>
            <rate>
              <timebase>24</timebase>
              <ntsc>FALSE</ntsc>
            </rate>
            <media>
              <video>
                <track>
                  <clipitem frameBlend="FALSE" id="clipitem-16">
                    <name>Antonio.013.png</name>
                    <masterclipid>masterclip-15</masterclipid>
                    <rate>
                      <timebase>24</timebase>
                      <ntsc>FALSE</ntsc>
                    </rate>
                    <alphatype>straight</alphatype>
                    <pixelaspectratio>square</pixelaspectratio>
                    <anamorphic>FALSE</anamorphic>
                    <file id="file-15">
                      <name>Antonio.013.png</name>
                      <pathurl>file://localhost/Users/antoniochiappetta/OneDrive - Aalto University/University/Aalto/Hackatons/Junction/Junction2019-IoK-security_awareness_kids/Assets/Team Animations/Image Sequences/Antonio/Antonio.013.png</pathurl>
                      <rate>
                        <timebase>24</timebase>
                        <ntsc>FALSE</ntsc>
                      </rate>
                      <duration>162</duration>
                      <timecode>
                        <rate>
                          <timebase>24</timebase>
                          <ntsc>FALSE</ntsc>
                        </rate>
                      </timecode>
                      <media>
                        <video>
                          <duration>1</duration>
                          <samplecharacteristics>
                            <anamorphic>FALSE</anamorphic>
                            <pixelaspectratio>square</pixelaspectratio>
                            <fielddominance>none</fielddominance>
                            <width>686</width>
                            <height>511</height>
                          </samplecharacteristics>
                        </video>
                      </media>
                    </file>
                  </clipitem>
                </track>
              </video>
            </media>
          </clip>
          <clip explodedTracks="true" frameBlend="FALSE" id="masterclip-16">
            <uuid>34be5162-4909-40ed-8a29-e2da96c2ea2b</uuid>
            <masterclipid>masterclip-16</masterclipid>
            <ismasterclip>TRUE</ismasterclip>
            <duration>162</duration>
            <in>0</in>
            <out>162</out>
            <name>Antonio.014.png</name>
            <rate>
              <timebase>24</timebase>
              <ntsc>FALSE</ntsc>
            </rate>
            <media>
              <video>
                <track>
                  <clipitem frameBlend="FALSE" id="clipitem-17">
                    <name>Antonio.014.png</name>
                    <masterclipid>masterclip-16</masterclipid>
                    <rate>
                      <timebase>24</timebase>
                      <ntsc>FALSE</ntsc>
                    </rate>
                    <alphatype>straight</alphatype>
                    <pixelaspectratio>square</pixelaspectratio>
                    <anamorphic>FALSE</anamorphic>
                    <file id="file-16">
                      <name>Antonio.014.png</name>
                      <pathurl>file://localhost/Users/antoniochiappetta/OneDrive - Aalto University/University/Aalto/Hackatons/Junction/Junction2019-IoK-security_awareness_kids/Assets/Team Animations/Image Sequences/Antonio/Antonio.014.png</pathurl>
                      <rate>
                        <timebase>24</timebase>
                        <ntsc>FALSE</ntsc>
                      </rate>
                      <duration>162</duration>
                      <timecode>
                        <rate>
                          <timebase>24</timebase>
                          <ntsc>FALSE</ntsc>
                        </rate>
                      </timecode>
                      <media>
                        <video>
                          <duration>1</duration>
                          <samplecharacteristics>
                            <anamorphic>FALSE</anamorphic>
                            <pixelaspectratio>square</pixelaspectratio>
                            <fielddominance>none</fielddominance>
                            <width>686</width>
                            <height>511</height>
                          </samplecharacteristics>
                        </video>
                      </media>
                    </file>
                  </clipitem>
                </track>
              </video>
            </media>
          </clip>
          <clip explodedTracks="true" frameBlend="FALSE" id="masterclip-17">
            <uuid>6ed49dc6-1305-4577-943d-fda317b611a3</uuid>
            <masterclipid>masterclip-17</masterclipid>
            <ismasterclip>TRUE</ismasterclip>
            <duration>162</duration>
            <in>0</in>
            <out>162</out>
            <name>Antonio.015.png</name>
            <rate>
              <timebase>24</timebase>
              <ntsc>FALSE</ntsc>
            </rate>
            <media>
              <video>
                <track>
                  <clipitem frameBlend="FALSE" id="clipitem-18">
                    <name>Antonio.015.png</name>
                    <masterclipid>masterclip-17</masterclipid>
                    <rate>
                      <timebase>24</timebase>
                      <ntsc>FALSE</ntsc>
                    </rate>
                    <alphatype>straight</alphatype>
                    <pixelaspectratio>square</pixelaspectratio>
                    <anamorphic>FALSE</anamorphic>
                    <file id="file-17">
                      <name>Antonio.015.png</name>
                      <pathurl>file://localhost/Users/antoniochiappetta/OneDrive - Aalto University/University/Aalto/Hackatons/Junction/Junction2019-IoK-security_awareness_kids/Assets/Team Animations/Image Sequences/Antonio/Antonio.015.png</pathurl>
                      <rate>
                        <timebase>24</timebase>
                        <ntsc>FALSE</ntsc>
                      </rate>
                      <duration>162</duration>
                      <timecode>
                        <rate>
                          <timebase>24</timebase>
                          <ntsc>FALSE</ntsc>
                        </rate>
                      </timecode>
                      <media>
                        <video>
                          <duration>1</duration>
                          <samplecharacteristics>
                            <anamorphic>FALSE</anamorphic>
                            <pixelaspectratio>square</pixelaspectratio>
                            <fielddominance>none</fielddominance>
                            <width>686</width>
                            <height>511</height>
                          </samplecharacteristics>
                        </video>
                      </media>
                    </file>
                  </clipitem>
                </track>
              </video>
            </media>
          </clip>
          <clip explodedTracks="true" frameBlend="FALSE" id="masterclip-18">
            <uuid>6c320858-b37d-443e-b4f2-58c5708ef0d1</uuid>
            <masterclipid>masterclip-18</masterclipid>
            <ismasterclip>TRUE</ismasterclip>
            <duration>162</duration>
            <in>0</in>
            <out>162</out>
            <name>Antonio.016.png</name>
            <rate>
              <timebase>24</timebase>
              <ntsc>FALSE</ntsc>
            </rate>
            <media>
              <video>
                <track>
                  <clipitem frameBlend="FALSE" id="clipitem-19">
                    <name>Antonio.016.png</name>
                    <masterclipid>masterclip-18</masterclipid>
                    <rate>
                      <timebase>24</timebase>
                      <ntsc>FALSE</ntsc>
                    </rate>
                    <alphatype>straight</alphatype>
                    <pixelaspectratio>square</pixelaspectratio>
                    <anamorphic>FALSE</anamorphic>
                    <file id="file-18">
                      <name>Antonio.016.png</name>
                      <pathurl>file://localhost/Users/antoniochiappetta/OneDrive - Aalto University/University/Aalto/Hackatons/Junction/Junction2019-IoK-security_awareness_kids/Assets/Team Animations/Image Sequences/Antonio/Antonio.016.png</pathurl>
                      <rate>
                        <timebase>24</timebase>
                        <ntsc>FALSE</ntsc>
                      </rate>
                      <duration>162</duration>
                      <timecode>
                        <rate>
                          <timebase>24</timebase>
                          <ntsc>FALSE</ntsc>
                        </rate>
                      </timecode>
                      <media>
                        <video>
                          <duration>1</duration>
                          <samplecharacteristics>
                            <anamorphic>FALSE</anamorphic>
                            <pixelaspectratio>square</pixelaspectratio>
                            <fielddominance>none</fielddominance>
                            <width>686</width>
                            <height>511</height>
                          </samplecharacteristics>
                        </video>
                      </media>
                    </file>
                  </clipitem>
                </track>
              </video>
            </media>
          </clip>
          <clip explodedTracks="true" frameBlend="FALSE" id="masterclip-19">
            <uuid>e792e60d-5386-4951-8d66-aae3db7d8329</uuid>
            <masterclipid>masterclip-19</masterclipid>
            <ismasterclip>TRUE</ismasterclip>
            <duration>162</duration>
            <in>0</in>
            <out>162</out>
            <name>Antonio.017.png</name>
            <rate>
              <timebase>24</timebase>
              <ntsc>FALSE</ntsc>
            </rate>
            <media>
              <video>
                <track>
                  <clipitem frameBlend="FALSE" id="clipitem-20">
                    <name>Antonio.017.png</name>
                    <masterclipid>masterclip-19</masterclipid>
                    <rate>
                      <timebase>24</timebase>
                      <ntsc>FALSE</ntsc>
                    </rate>
                    <alphatype>straight</alphatype>
                    <pixelaspectratio>square</pixelaspectratio>
                    <anamorphic>FALSE</anamorphic>
                    <file id="file-19">
                      <name>Antonio.017.png</name>
                      <pathurl>file://localhost/Users/antoniochiappetta/OneDrive - Aalto University/University/Aalto/Hackatons/Junction/Junction2019-IoK-security_awareness_kids/Assets/Team Animations/Image Sequences/Antonio/Antonio.017.png</pathurl>
                      <rate>
                        <timebase>24</timebase>
                        <ntsc>FALSE</ntsc>
                      </rate>
                      <duration>162</duration>
                      <timecode>
                        <rate>
                          <timebase>24</timebase>
                          <ntsc>FALSE</ntsc>
                        </rate>
                      </timecode>
                      <media>
                        <video>
                          <duration>1</duration>
                          <samplecharacteristics>
                            <anamorphic>FALSE</anamorphic>
                            <pixelaspectratio>square</pixelaspectratio>
                            <fielddominance>none</fielddominance>
                            <width>686</width>
                            <height>511</height>
                          </samplecharacteristics>
                        </video>
                      </media>
                    </file>
                  </clipitem>
                </track>
              </video>
            </media>
          </clip>
          <clip explodedTracks="true" frameBlend="FALSE" id="masterclip-20">
            <uuid>ac0b701d-4381-44b3-ba4f-86471e32cd29</uuid>
            <masterclipid>masterclip-20</masterclipid>
            <ismasterclip>TRUE</ismasterclip>
            <duration>162</duration>
            <in>0</in>
            <out>162</out>
            <name>Antonio.018.png</name>
            <rate>
              <timebase>24</timebase>
              <ntsc>FALSE</ntsc>
            </rate>
            <media>
              <video>
                <track>
                  <clipitem frameBlend="FALSE" id="clipitem-21">
                    <name>Antonio.018.png</name>
                    <masterclipid>masterclip-20</masterclipid>
                    <rate>
                      <timebase>24</timebase>
                      <ntsc>FALSE</ntsc>
                    </rate>
                    <alphatype>straight</alphatype>
                    <pixelaspectratio>square</pixelaspectratio>
                    <anamorphic>FALSE</anamorphic>
                    <file id="file-20">
                      <name>Antonio.018.png</name>
                      <pathurl>file://localhost/Users/antoniochiappetta/OneDrive - Aalto University/University/Aalto/Hackatons/Junction/Junction2019-IoK-security_awareness_kids/Assets/Team Animations/Image Sequences/Antonio/Antonio.018.png</pathurl>
                      <rate>
                        <timebase>24</timebase>
                        <ntsc>FALSE</ntsc>
                      </rate>
                      <duration>162</duration>
                      <timecode>
                        <rate>
                          <timebase>24</timebase>
                          <ntsc>FALSE</ntsc>
                        </rate>
                      </timecode>
                      <media>
                        <video>
                          <duration>1</duration>
                          <samplecharacteristics>
                            <anamorphic>FALSE</anamorphic>
                            <pixelaspectratio>square</pixelaspectratio>
                            <fielddominance>none</fielddominance>
                            <width>686</width>
                            <height>511</height>
                          </samplecharacteristics>
                        </video>
                      </media>
                    </file>
                  </clipitem>
                </track>
              </video>
            </media>
          </clip>
          <clip explodedTracks="true" frameBlend="FALSE" id="masterclip-21">
            <uuid>c27e9bc8-2f25-4d81-9d5f-46d8a6369d1c</uuid>
            <masterclipid>masterclip-21</masterclipid>
            <ismasterclip>TRUE</ismasterclip>
            <duration>162</duration>
            <in>0</in>
            <out>162</out>
            <name>Antonio.019.png</name>
            <rate>
              <timebase>24</timebase>
              <ntsc>FALSE</ntsc>
            </rate>
            <media>
              <video>
                <track>
                  <clipitem frameBlend="FALSE" id="clipitem-22">
                    <name>Antonio.019.png</name>
                    <masterclipid>masterclip-21</masterclipid>
                    <rate>
                      <timebase>24</timebase>
                      <ntsc>FALSE</ntsc>
                    </rate>
                    <alphatype>straight</alphatype>
                    <pixelaspectratio>square</pixelaspectratio>
                    <anamorphic>FALSE</anamorphic>
                    <file id="file-21">
                      <name>Antonio.019.png</name>
                      <pathurl>file://localhost/Users/antoniochiappetta/OneDrive - Aalto University/University/Aalto/Hackatons/Junction/Junction2019-IoK-security_awareness_kids/Assets/Team Animations/Image Sequences/Antonio/Antonio.019.png</pathurl>
                      <rate>
                        <timebase>24</timebase>
                        <ntsc>FALSE</ntsc>
                      </rate>
                      <duration>162</duration>
                      <timecode>
                        <rate>
                          <timebase>24</timebase>
                          <ntsc>FALSE</ntsc>
                        </rate>
                      </timecode>
                      <media>
                        <video>
                          <duration>1</duration>
                          <samplecharacteristics>
                            <anamorphic>FALSE</anamorphic>
                            <pixelaspectratio>square</pixelaspectratio>
                            <fielddominance>none</fielddominance>
                            <width>686</width>
                            <height>511</height>
                          </samplecharacteristics>
                        </video>
                      </media>
                    </file>
                  </clipitem>
                </track>
              </video>
            </media>
          </clip>
          <clip explodedTracks="true" frameBlend="FALSE" id="masterclip-22">
            <uuid>38ebfd1d-997f-4b01-a773-cc1fb9a1d206</uuid>
            <masterclipid>masterclip-22</masterclipid>
            <ismasterclip>TRUE</ismasterclip>
            <duration>162</duration>
            <in>0</in>
            <out>162</out>
            <name>Antonio.020.png</name>
            <rate>
              <timebase>24</timebase>
              <ntsc>FALSE</ntsc>
            </rate>
            <media>
              <video>
                <track>
                  <clipitem frameBlend="FALSE" id="clipitem-23">
                    <name>Antonio.020.png</name>
                    <masterclipid>masterclip-22</masterclipid>
                    <rate>
                      <timebase>24</timebase>
                      <ntsc>FALSE</ntsc>
                    </rate>
                    <alphatype>straight</alphatype>
                    <pixelaspectratio>square</pixelaspectratio>
                    <anamorphic>FALSE</anamorphic>
                    <file id="file-22">
                      <name>Antonio.020.png</name>
                      <pathurl>file://localhost/Users/antoniochiappetta/OneDrive - Aalto University/University/Aalto/Hackatons/Junction/Junction2019-IoK-security_awareness_kids/Assets/Team Animations/Image Sequences/Antonio/Antonio.020.png</pathurl>
                      <rate>
                        <timebase>24</timebase>
                        <ntsc>FALSE</ntsc>
                      </rate>
                      <duration>162</duration>
                      <timecode>
                        <rate>
                          <timebase>24</timebase>
                          <ntsc>FALSE</ntsc>
                        </rate>
                      </timecode>
                      <media>
                        <video>
                          <duration>1</duration>
                          <samplecharacteristics>
                            <anamorphic>FALSE</anamorphic>
                            <pixelaspectratio>square</pixelaspectratio>
                            <fielddominance>none</fielddominance>
                            <width>686</width>
                            <height>511</height>
                          </samplecharacteristics>
                        </video>
                      </media>
                    </file>
                  </clipitem>
                </track>
              </video>
            </media>
          </clip>
          <clip explodedTracks="true" frameBlend="FALSE" id="masterclip-23">
            <uuid>c504d51f-ce44-4f76-9f6f-0d6ad8d50fb1</uuid>
            <masterclipid>masterclip-23</masterclipid>
            <ismasterclip>TRUE</ismasterclip>
            <duration>162</duration>
            <in>0</in>
            <out>162</out>
            <name>Antonio.021.png</name>
            <rate>
              <timebase>24</timebase>
              <ntsc>FALSE</ntsc>
            </rate>
            <media>
              <video>
                <track>
                  <clipitem frameBlend="FALSE" id="clipitem-24">
                    <name>Antonio.021.png</name>
                    <masterclipid>masterclip-23</masterclipid>
                    <rate>
                      <timebase>24</timebase>
                      <ntsc>FALSE</ntsc>
                    </rate>
                    <alphatype>straight</alphatype>
                    <pixelaspectratio>square</pixelaspectratio>
                    <anamorphic>FALSE</anamorphic>
                    <file id="file-23">
                      <name>Antonio.021.png</name>
                      <pathurl>file://localhost/Users/antoniochiappetta/OneDrive - Aalto University/University/Aalto/Hackatons/Junction/Junction2019-IoK-security_awareness_kids/Assets/Team Animations/Image Sequences/Antonio/Antonio.021.png</pathurl>
                      <rate>
                        <timebase>24</timebase>
                        <ntsc>FALSE</ntsc>
                      </rate>
                      <duration>162</duration>
                      <timecode>
                        <rate>
                          <timebase>24</timebase>
                          <ntsc>FALSE</ntsc>
                        </rate>
                      </timecode>
                      <media>
                        <video>
                          <duration>1</duration>
                          <samplecharacteristics>
                            <anamorphic>FALSE</anamorphic>
                            <pixelaspectratio>square</pixelaspectratio>
                            <fielddominance>none</fielddominance>
                            <width>686</width>
                            <height>511</height>
                          </samplecharacteristics>
                        </video>
                      </media>
                    </file>
                  </clipitem>
                </track>
              </video>
            </media>
          </clip>
          <clip explodedTracks="true" frameBlend="FALSE" id="masterclip-24">
            <uuid>b17f278c-c92b-42bf-9ea8-1b1184c3b115</uuid>
            <masterclipid>masterclip-24</masterclipid>
            <ismasterclip>TRUE</ismasterclip>
            <duration>162</duration>
            <in>0</in>
            <out>162</out>
            <name>Antonio.022.png</name>
            <rate>
              <timebase>24</timebase>
              <ntsc>FALSE</ntsc>
            </rate>
            <media>
              <video>
                <track>
                  <clipitem frameBlend="FALSE" id="clipitem-25">
                    <name>Antonio.022.png</name>
                    <masterclipid>masterclip-24</masterclipid>
                    <rate>
                      <timebase>24</timebase>
                      <ntsc>FALSE</ntsc>
                    </rate>
                    <alphatype>straight</alphatype>
                    <pixelaspectratio>square</pixelaspectratio>
                    <anamorphic>FALSE</anamorphic>
                    <file id="file-24">
                      <name>Antonio.022.png</name>
                      <pathurl>file://localhost/Users/antoniochiappetta/OneDrive - Aalto University/University/Aalto/Hackatons/Junction/Junction2019-IoK-security_awareness_kids/Assets/Team Animations/Image Sequences/Antonio/Antonio.022.png</pathurl>
                      <rate>
                        <timebase>24</timebase>
                        <ntsc>FALSE</ntsc>
                      </rate>
                      <duration>162</duration>
                      <timecode>
                        <rate>
                          <timebase>24</timebase>
                          <ntsc>FALSE</ntsc>
                        </rate>
                      </timecode>
                      <media>
                        <video>
                          <duration>1</duration>
                          <samplecharacteristics>
                            <anamorphic>FALSE</anamorphic>
                            <pixelaspectratio>square</pixelaspectratio>
                            <fielddominance>none</fielddominance>
                            <width>686</width>
                            <height>511</height>
                          </samplecharacteristics>
                        </video>
                      </media>
                    </file>
                  </clipitem>
                </track>
              </video>
            </media>
          </clip>
          <clip explodedTracks="true" frameBlend="FALSE" id="masterclip-25">
            <uuid>48f24099-bb31-44a0-bf6d-50a7d3b87be9</uuid>
            <masterclipid>masterclip-25</masterclipid>
            <ismasterclip>TRUE</ismasterclip>
            <duration>162</duration>
            <in>0</in>
            <out>162</out>
            <name>Antonio.023.png</name>
            <rate>
              <timebase>24</timebase>
              <ntsc>FALSE</ntsc>
            </rate>
            <media>
              <video>
                <track>
                  <clipitem frameBlend="FALSE" id="clipitem-26">
                    <name>Antonio.023.png</name>
                    <masterclipid>masterclip-25</masterclipid>
                    <rate>
                      <timebase>24</timebase>
                      <ntsc>FALSE</ntsc>
                    </rate>
                    <alphatype>straight</alphatype>
                    <pixelaspectratio>square</pixelaspectratio>
                    <anamorphic>FALSE</anamorphic>
                    <file id="file-25">
                      <name>Antonio.023.png</name>
                      <pathurl>file://localhost/Users/antoniochiappetta/OneDrive - Aalto University/University/Aalto/Hackatons/Junction/Junction2019-IoK-security_awareness_kids/Assets/Team Animations/Image Sequences/Antonio/Antonio.023.png</pathurl>
                      <rate>
                        <timebase>24</timebase>
                        <ntsc>FALSE</ntsc>
                      </rate>
                      <duration>162</duration>
                      <timecode>
                        <rate>
                          <timebase>24</timebase>
                          <ntsc>FALSE</ntsc>
                        </rate>
                      </timecode>
                      <media>
                        <video>
                          <duration>1</duration>
                          <samplecharacteristics>
                            <anamorphic>FALSE</anamorphic>
                            <pixelaspectratio>square</pixelaspectratio>
                            <fielddominance>none</fielddominance>
                            <width>686</width>
                            <height>511</height>
                          </samplecharacteristics>
                        </video>
                      </media>
                    </file>
                  </clipitem>
                </track>
              </video>
            </media>
          </clip>
          <clip explodedTracks="true" frameBlend="FALSE" id="masterclip-26">
            <uuid>9bbdc616-25ab-4041-9827-3aa216542bb9</uuid>
            <masterclipid>masterclip-26</masterclipid>
            <ismasterclip>TRUE</ismasterclip>
            <duration>162</duration>
            <in>0</in>
            <out>162</out>
            <name>Antonio.024.png</name>
            <rate>
              <timebase>24</timebase>
              <ntsc>FALSE</ntsc>
            </rate>
            <media>
              <video>
                <track>
                  <clipitem frameBlend="FALSE" id="clipitem-27">
                    <name>Antonio.024.png</name>
                    <masterclipid>masterclip-26</masterclipid>
                    <rate>
                      <timebase>24</timebase>
                      <ntsc>FALSE</ntsc>
                    </rate>
                    <alphatype>straight</alphatype>
                    <pixelaspectratio>square</pixelaspectratio>
                    <anamorphic>FALSE</anamorphic>
                    <file id="file-26">
                      <name>Antonio.024.png</name>
                      <pathurl>file://localhost/Users/antoniochiappetta/OneDrive - Aalto University/University/Aalto/Hackatons/Junction/Junction2019-IoK-security_awareness_kids/Assets/Team Animations/Image Sequences/Antonio/Antonio.024.png</pathurl>
                      <rate>
                        <timebase>24</timebase>
                        <ntsc>FALSE</ntsc>
                      </rate>
                      <duration>162</duration>
                      <timecode>
                        <rate>
                          <timebase>24</timebase>
                          <ntsc>FALSE</ntsc>
                        </rate>
                      </timecode>
                      <media>
                        <video>
                          <duration>1</duration>
                          <samplecharacteristics>
                            <anamorphic>FALSE</anamorphic>
                            <pixelaspectratio>square</pixelaspectratio>
                            <fielddominance>none</fielddominance>
                            <width>686</width>
                            <height>511</height>
                          </samplecharacteristics>
                        </video>
                      </media>
                    </file>
                  </clipitem>
                </track>
              </video>
            </media>
          </clip>
          <clip explodedTracks="true" frameBlend="FALSE" id="masterclip-27">
            <uuid>7e29a278-670e-4c91-8a6c-b5e2e5aceb72</uuid>
            <masterclipid>masterclip-27</masterclipid>
            <ismasterclip>TRUE</ismasterclip>
            <duration>162</duration>
            <in>0</in>
            <out>162</out>
            <name>Antonio.025.png</name>
            <rate>
              <timebase>24</timebase>
              <ntsc>FALSE</ntsc>
            </rate>
            <media>
              <video>
                <track>
                  <clipitem frameBlend="FALSE" id="clipitem-28">
                    <name>Antonio.025.png</name>
                    <masterclipid>masterclip-27</masterclipid>
                    <rate>
                      <timebase>24</timebase>
                      <ntsc>FALSE</ntsc>
                    </rate>
                    <alphatype>straight</alphatype>
                    <pixelaspectratio>square</pixelaspectratio>
                    <anamorphic>FALSE</anamorphic>
                    <file id="file-27">
                      <name>Antonio.025.png</name>
                      <pathurl>file://localhost/Users/antoniochiappetta/OneDrive - Aalto University/University/Aalto/Hackatons/Junction/Junction2019-IoK-security_awareness_kids/Assets/Team Animations/Image Sequences/Antonio/Antonio.025.png</pathurl>
                      <rate>
                        <timebase>24</timebase>
                        <ntsc>FALSE</ntsc>
                      </rate>
                      <duration>162</duration>
                      <timecode>
                        <rate>
                          <timebase>24</timebase>
                          <ntsc>FALSE</ntsc>
                        </rate>
                      </timecode>
                      <media>
                        <video>
                          <duration>1</duration>
                          <samplecharacteristics>
                            <anamorphic>FALSE</anamorphic>
                            <pixelaspectratio>square</pixelaspectratio>
                            <fielddominance>none</fielddominance>
                            <width>686</width>
                            <height>511</height>
                          </samplecharacteristics>
                        </video>
                      </media>
                    </file>
                  </clipitem>
                </track>
              </video>
            </media>
          </clip>
          <clip explodedTracks="true" frameBlend="FALSE" id="masterclip-28">
            <uuid>69acf020-208b-406d-9d41-c34bbccd6768</uuid>
            <masterclipid>masterclip-28</masterclipid>
            <ismasterclip>TRUE</ismasterclip>
            <duration>162</duration>
            <in>0</in>
            <out>162</out>
            <name>Antonio.026.png</name>
            <rate>
              <timebase>24</timebase>
              <ntsc>FALSE</ntsc>
            </rate>
            <media>
              <video>
                <track>
                  <clipitem frameBlend="FALSE" id="clipitem-29">
                    <name>Antonio.026.png</name>
                    <masterclipid>masterclip-28</masterclipid>
                    <rate>
                      <timebase>24</timebase>
                      <ntsc>FALSE</ntsc>
                    </rate>
                    <alphatype>straight</alphatype>
                    <pixelaspectratio>square</pixelaspectratio>
                    <anamorphic>FALSE</anamorphic>
                    <file id="file-28">
                      <name>Antonio.026.png</name>
                      <pathurl>file://localhost/Users/antoniochiappetta/OneDrive - Aalto University/University/Aalto/Hackatons/Junction/Junction2019-IoK-security_awareness_kids/Assets/Team Animations/Image Sequences/Antonio/Antonio.026.png</pathurl>
                      <rate>
                        <timebase>24</timebase>
                        <ntsc>FALSE</ntsc>
                      </rate>
                      <duration>162</duration>
                      <timecode>
                        <rate>
                          <timebase>24</timebase>
                          <ntsc>FALSE</ntsc>
                        </rate>
                      </timecode>
                      <media>
                        <video>
                          <duration>1</duration>
                          <samplecharacteristics>
                            <anamorphic>FALSE</anamorphic>
                            <pixelaspectratio>square</pixelaspectratio>
                            <fielddominance>none</fielddominance>
                            <width>686</width>
                            <height>511</height>
                          </samplecharacteristics>
                        </video>
                      </media>
                    </file>
                  </clipitem>
                </track>
              </video>
            </media>
          </clip>
          <clip explodedTracks="true" frameBlend="FALSE" id="masterclip-29">
            <uuid>ff062210-b16d-40bb-a7df-1c3f5e96f94d</uuid>
            <masterclipid>masterclip-29</masterclipid>
            <ismasterclip>TRUE</ismasterclip>
            <duration>162</duration>
            <in>0</in>
            <out>162</out>
            <name>Antonio.027.png</name>
            <rate>
              <timebase>24</timebase>
              <ntsc>FALSE</ntsc>
            </rate>
            <media>
              <video>
                <track>
                  <clipitem frameBlend="FALSE" id="clipitem-30">
                    <name>Antonio.027.png</name>
                    <masterclipid>masterclip-29</masterclipid>
                    <rate>
                      <timebase>24</timebase>
                      <ntsc>FALSE</ntsc>
                    </rate>
                    <alphatype>straight</alphatype>
                    <pixelaspectratio>square</pixelaspectratio>
                    <anamorphic>FALSE</anamorphic>
                    <file id="file-29">
                      <name>Antonio.027.png</name>
                      <pathurl>file://localhost/Users/antoniochiappetta/OneDrive - Aalto University/University/Aalto/Hackatons/Junction/Junction2019-IoK-security_awareness_kids/Assets/Team Animations/Image Sequences/Antonio/Antonio.027.png</pathurl>
                      <rate>
                        <timebase>24</timebase>
                        <ntsc>FALSE</ntsc>
                      </rate>
                      <duration>162</duration>
                      <timecode>
                        <rate>
                          <timebase>24</timebase>
                          <ntsc>FALSE</ntsc>
                        </rate>
                      </timecode>
                      <media>
                        <video>
                          <duration>1</duration>
                          <samplecharacteristics>
                            <anamorphic>FALSE</anamorphic>
                            <pixelaspectratio>square</pixelaspectratio>
                            <fielddominance>none</fielddominance>
                            <width>686</width>
                            <height>511</height>
                          </samplecharacteristics>
                        </video>
                      </media>
                    </file>
                  </clipitem>
                </track>
              </video>
            </media>
          </clip>
          <clip explodedTracks="true" frameBlend="FALSE" id="masterclip-30">
            <uuid>da276d4e-39ae-49bb-b0dd-f3fb8201a290</uuid>
            <masterclipid>masterclip-30</masterclipid>
            <ismasterclip>TRUE</ismasterclip>
            <duration>162</duration>
            <in>0</in>
            <out>162</out>
            <name>Antonio.028.png</name>
            <rate>
              <timebase>24</timebase>
              <ntsc>FALSE</ntsc>
            </rate>
            <media>
              <video>
                <track>
                  <clipitem frameBlend="FALSE" id="clipitem-31">
                    <name>Antonio.028.png</name>
                    <masterclipid>masterclip-30</masterclipid>
                    <rate>
                      <timebase>24</timebase>
                      <ntsc>FALSE</ntsc>
                    </rate>
                    <alphatype>straight</alphatype>
                    <pixelaspectratio>square</pixelaspectratio>
                    <anamorphic>FALSE</anamorphic>
                    <file id="file-30">
                      <name>Antonio.028.png</name>
                      <pathurl>file://localhost/Users/antoniochiappetta/OneDrive - Aalto University/University/Aalto/Hackatons/Junction/Junction2019-IoK-security_awareness_kids/Assets/Team Animations/Image Sequences/Antonio/Antonio.028.png</pathurl>
                      <rate>
                        <timebase>24</timebase>
                        <ntsc>FALSE</ntsc>
                      </rate>
                      <duration>162</duration>
                      <timecode>
                        <rate>
                          <timebase>24</timebase>
                          <ntsc>FALSE</ntsc>
                        </rate>
                      </timecode>
                      <media>
                        <video>
                          <duration>1</duration>
                          <samplecharacteristics>
                            <anamorphic>FALSE</anamorphic>
                            <pixelaspectratio>square</pixelaspectratio>
                            <fielddominance>none</fielddominance>
                            <width>686</width>
                            <height>511</height>
                          </samplecharacteristics>
                        </video>
                      </media>
                    </file>
                  </clipitem>
                </track>
              </video>
            </media>
          </clip>
          <clip explodedTracks="true" frameBlend="FALSE" id="masterclip-31">
            <uuid>711aff97-e1dd-415d-bd28-3c662ff3830b</uuid>
            <masterclipid>masterclip-31</masterclipid>
            <ismasterclip>TRUE</ismasterclip>
            <duration>162</duration>
            <in>0</in>
            <out>162</out>
            <name>Antonio.029.png</name>
            <rate>
              <timebase>24</timebase>
              <ntsc>FALSE</ntsc>
            </rate>
            <media>
              <video>
                <track>
                  <clipitem frameBlend="FALSE" id="clipitem-32">
                    <name>Antonio.029.png</name>
                    <masterclipid>masterclip-31</masterclipid>
                    <rate>
                      <timebase>24</timebase>
                      <ntsc>FALSE</ntsc>
                    </rate>
                    <alphatype>straight</alphatype>
                    <pixelaspectratio>square</pixelaspectratio>
                    <anamorphic>FALSE</anamorphic>
                    <file id="file-31">
                      <name>Antonio.029.png</name>
                      <pathurl>file://localhost/Users/antoniochiappetta/OneDrive - Aalto University/University/Aalto/Hackatons/Junction/Junction2019-IoK-security_awareness_kids/Assets/Team Animations/Image Sequences/Antonio/Antonio.029.png</pathurl>
                      <rate>
                        <timebase>24</timebase>
                        <ntsc>FALSE</ntsc>
                      </rate>
                      <duration>162</duration>
                      <timecode>
                        <rate>
                          <timebase>24</timebase>
                          <ntsc>FALSE</ntsc>
                        </rate>
                      </timecode>
                      <media>
                        <video>
                          <duration>1</duration>
                          <samplecharacteristics>
                            <anamorphic>FALSE</anamorphic>
                            <pixelaspectratio>square</pixelaspectratio>
                            <fielddominance>none</fielddominance>
                            <width>686</width>
                            <height>511</height>
                          </samplecharacteristics>
                        </video>
                      </media>
                    </file>
                  </clipitem>
                </track>
              </video>
            </media>
          </clip>
          <clip explodedTracks="true" frameBlend="FALSE" id="masterclip-32">
            <uuid>977cb3ed-5e28-4df4-ad9d-26a510a47ff3</uuid>
            <masterclipid>masterclip-32</masterclipid>
            <ismasterclip>TRUE</ismasterclip>
            <duration>162</duration>
            <in>0</in>
            <out>162</out>
            <name>Antonio.030.png</name>
            <rate>
              <timebase>24</timebase>
              <ntsc>FALSE</ntsc>
            </rate>
            <media>
              <video>
                <track>
                  <clipitem frameBlend="FALSE" id="clipitem-33">
                    <name>Antonio.030.png</name>
                    <masterclipid>masterclip-32</masterclipid>
                    <rate>
                      <timebase>24</timebase>
                      <ntsc>FALSE</ntsc>
                    </rate>
                    <alphatype>straight</alphatype>
                    <pixelaspectratio>square</pixelaspectratio>
                    <anamorphic>FALSE</anamorphic>
                    <file id="file-32">
                      <name>Antonio.030.png</name>
                      <pathurl>file://localhost/Users/antoniochiappetta/OneDrive - Aalto University/University/Aalto/Hackatons/Junction/Junction2019-IoK-security_awareness_kids/Assets/Team Animations/Image Sequences/Antonio/Antonio.030.png</pathurl>
                      <rate>
                        <timebase>24</timebase>
                        <ntsc>FALSE</ntsc>
                      </rate>
                      <duration>162</duration>
                      <timecode>
                        <rate>
                          <timebase>24</timebase>
                          <ntsc>FALSE</ntsc>
                        </rate>
                      </timecode>
                      <media>
                        <video>
                          <duration>1</duration>
                          <samplecharacteristics>
                            <anamorphic>FALSE</anamorphic>
                            <pixelaspectratio>square</pixelaspectratio>
                            <fielddominance>none</fielddominance>
                            <width>686</width>
                            <height>511</height>
                          </samplecharacteristics>
                        </video>
                      </media>
                    </file>
                  </clipitem>
                </track>
              </video>
            </media>
          </clip>
          <clip explodedTracks="true" frameBlend="FALSE" id="masterclip-33">
            <uuid>dd3dbfa2-f028-44e3-a215-85971cf74075</uuid>
            <masterclipid>masterclip-33</masterclipid>
            <ismasterclip>TRUE</ismasterclip>
            <duration>162</duration>
            <in>0</in>
            <out>162</out>
            <name>Antonio.031.png</name>
            <rate>
              <timebase>24</timebase>
              <ntsc>FALSE</ntsc>
            </rate>
            <media>
              <video>
                <track>
                  <clipitem frameBlend="FALSE" id="clipitem-34">
                    <name>Antonio.031.png</name>
                    <masterclipid>masterclip-33</masterclipid>
                    <rate>
                      <timebase>24</timebase>
                      <ntsc>FALSE</ntsc>
                    </rate>
                    <alphatype>straight</alphatype>
                    <pixelaspectratio>square</pixelaspectratio>
                    <anamorphic>FALSE</anamorphic>
                    <file id="file-33">
                      <name>Antonio.031.png</name>
                      <pathurl>file://localhost/Users/antoniochiappetta/OneDrive - Aalto University/University/Aalto/Hackatons/Junction/Junction2019-IoK-security_awareness_kids/Assets/Team Animations/Image Sequences/Antonio/Antonio.031.png</pathurl>
                      <rate>
                        <timebase>24</timebase>
                        <ntsc>FALSE</ntsc>
                      </rate>
                      <duration>162</duration>
                      <timecode>
                        <rate>
                          <timebase>24</timebase>
                          <ntsc>FALSE</ntsc>
                        </rate>
                      </timecode>
                      <media>
                        <video>
                          <duration>1</duration>
                          <samplecharacteristics>
                            <anamorphic>FALSE</anamorphic>
                            <pixelaspectratio>square</pixelaspectratio>
                            <fielddominance>none</fielddominance>
                            <width>686</width>
                            <height>511</height>
                          </samplecharacteristics>
                        </video>
                      </media>
                    </file>
                  </clipitem>
                </track>
              </video>
            </media>
          </clip>
          <clip explodedTracks="true" frameBlend="FALSE" id="masterclip-34">
            <uuid>33d5f70c-594d-47b7-a0aa-3d7382fbe2fc</uuid>
            <masterclipid>masterclip-34</masterclipid>
            <ismasterclip>TRUE</ismasterclip>
            <duration>162</duration>
            <in>0</in>
            <out>162</out>
            <name>Antonio.032.png</name>
            <rate>
              <timebase>24</timebase>
              <ntsc>FALSE</ntsc>
            </rate>
            <media>
              <video>
                <track>
                  <clipitem frameBlend="FALSE" id="clipitem-35">
                    <name>Antonio.032.png</name>
                    <masterclipid>masterclip-34</masterclipid>
                    <rate>
                      <timebase>24</timebase>
                      <ntsc>FALSE</ntsc>
                    </rate>
                    <alphatype>straight</alphatype>
                    <pixelaspectratio>square</pixelaspectratio>
                    <anamorphic>FALSE</anamorphic>
                    <file id="file-34">
                      <name>Antonio.032.png</name>
                      <pathurl>file://localhost/Users/antoniochiappetta/OneDrive - Aalto University/University/Aalto/Hackatons/Junction/Junction2019-IoK-security_awareness_kids/Assets/Team Animations/Image Sequences/Antonio/Antonio.032.png</pathurl>
                      <rate>
                        <timebase>24</timebase>
                        <ntsc>FALSE</ntsc>
                      </rate>
                      <duration>162</duration>
                      <timecode>
                        <rate>
                          <timebase>24</timebase>
                          <ntsc>FALSE</ntsc>
                        </rate>
                      </timecode>
                      <media>
                        <video>
                          <duration>1</duration>
                          <samplecharacteristics>
                            <anamorphic>FALSE</anamorphic>
                            <pixelaspectratio>square</pixelaspectratio>
                            <fielddominance>none</fielddominance>
                            <width>686</width>
                            <height>511</height>
                          </samplecharacteristics>
                        </video>
                      </media>
                    </file>
                  </clipitem>
                </track>
              </video>
            </media>
          </clip>
          <clip explodedTracks="true" frameBlend="FALSE" id="masterclip-35">
            <uuid>d0e88702-323c-42f2-854c-72f066c476ca</uuid>
            <masterclipid>masterclip-35</masterclipid>
            <ismasterclip>TRUE</ismasterclip>
            <duration>162</duration>
            <in>0</in>
            <out>162</out>
            <name>Antonio.033.png</name>
            <rate>
              <timebase>24</timebase>
              <ntsc>FALSE</ntsc>
            </rate>
            <media>
              <video>
                <track>
                  <clipitem frameBlend="FALSE" id="clipitem-36">
                    <name>Antonio.033.png</name>
                    <masterclipid>masterclip-35</masterclipid>
                    <rate>
                      <timebase>24</timebase>
                      <ntsc>FALSE</ntsc>
                    </rate>
                    <alphatype>straight</alphatype>
                    <pixelaspectratio>square</pixelaspectratio>
                    <anamorphic>FALSE</anamorphic>
                    <file id="file-35">
                      <name>Antonio.033.png</name>
                      <pathurl>file://localhost/Users/antoniochiappetta/OneDrive - Aalto University/University/Aalto/Hackatons/Junction/Junction2019-IoK-security_awareness_kids/Assets/Team Animations/Image Sequences/Antonio/Antonio.033.png</pathurl>
                      <rate>
                        <timebase>24</timebase>
                        <ntsc>FALSE</ntsc>
                      </rate>
                      <duration>162</duration>
                      <timecode>
                        <rate>
                          <timebase>24</timebase>
                          <ntsc>FALSE</ntsc>
                        </rate>
                      </timecode>
                      <media>
                        <video>
                          <duration>1</duration>
                          <samplecharacteristics>
                            <anamorphic>FALSE</anamorphic>
                            <pixelaspectratio>square</pixelaspectratio>
                            <fielddominance>none</fielddominance>
                            <width>686</width>
                            <height>511</height>
                          </samplecharacteristics>
                        </video>
                      </media>
                    </file>
                  </clipitem>
                </track>
              </video>
            </media>
          </clip>
          <clip explodedTracks="true" frameBlend="FALSE" id="masterclip-36">
            <uuid>289cfa3d-a4cf-4407-a90d-27a48d18b15a</uuid>
            <masterclipid>masterclip-36</masterclipid>
            <ismasterclip>TRUE</ismasterclip>
            <duration>162</duration>
            <in>0</in>
            <out>162</out>
            <name>Antonio.034.png</name>
            <rate>
              <timebase>24</timebase>
              <ntsc>FALSE</ntsc>
            </rate>
            <media>
              <video>
                <track>
                  <clipitem frameBlend="FALSE" id="clipitem-37">
                    <name>Antonio.034.png</name>
                    <masterclipid>masterclip-36</masterclipid>
                    <rate>
                      <timebase>24</timebase>
                      <ntsc>FALSE</ntsc>
                    </rate>
                    <alphatype>straight</alphatype>
                    <pixelaspectratio>square</pixelaspectratio>
                    <anamorphic>FALSE</anamorphic>
                    <file id="file-36">
                      <name>Antonio.034.png</name>
                      <pathurl>file://localhost/Users/antoniochiappetta/OneDrive - Aalto University/University/Aalto/Hackatons/Junction/Junction2019-IoK-security_awareness_kids/Assets/Team Animations/Image Sequences/Antonio/Antonio.034.png</pathurl>
                      <rate>
                        <timebase>24</timebase>
                        <ntsc>FALSE</ntsc>
                      </rate>
                      <duration>162</duration>
                      <timecode>
                        <rate>
                          <timebase>24</timebase>
                          <ntsc>FALSE</ntsc>
                        </rate>
                      </timecode>
                      <media>
                        <video>
                          <duration>1</duration>
                          <samplecharacteristics>
                            <anamorphic>FALSE</anamorphic>
                            <pixelaspectratio>square</pixelaspectratio>
                            <fielddominance>none</fielddominance>
                            <width>686</width>
                            <height>511</height>
                          </samplecharacteristics>
                        </video>
                      </media>
                    </file>
                  </clipitem>
                </track>
              </video>
            </media>
          </clip>
          <clip explodedTracks="true" frameBlend="FALSE" id="masterclip-37">
            <uuid>40696245-2615-4995-bae3-59fa6449fc49</uuid>
            <masterclipid>masterclip-37</masterclipid>
            <ismasterclip>TRUE</ismasterclip>
            <duration>162</duration>
            <in>0</in>
            <out>162</out>
            <name>Antonio.035.png</name>
            <rate>
              <timebase>24</timebase>
              <ntsc>FALSE</ntsc>
            </rate>
            <media>
              <video>
                <track>
                  <clipitem frameBlend="FALSE" id="clipitem-38">
                    <name>Antonio.035.png</name>
                    <masterclipid>masterclip-37</masterclipid>
                    <rate>
                      <timebase>24</timebase>
                      <ntsc>FALSE</ntsc>
                    </rate>
                    <alphatype>straight</alphatype>
                    <pixelaspectratio>square</pixelaspectratio>
                    <anamorphic>FALSE</anamorphic>
                    <file id="file-37">
                      <name>Antonio.035.png</name>
                      <pathurl>file://localhost/Users/antoniochiappetta/OneDrive - Aalto University/University/Aalto/Hackatons/Junction/Junction2019-IoK-security_awareness_kids/Assets/Team Animations/Image Sequences/Antonio/Antonio.035.png</pathurl>
                      <rate>
                        <timebase>24</timebase>
                        <ntsc>FALSE</ntsc>
                      </rate>
                      <duration>162</duration>
                      <timecode>
                        <rate>
                          <timebase>24</timebase>
                          <ntsc>FALSE</ntsc>
                        </rate>
                      </timecode>
                      <media>
                        <video>
                          <duration>1</duration>
                          <samplecharacteristics>
                            <anamorphic>FALSE</anamorphic>
                            <pixelaspectratio>square</pixelaspectratio>
                            <fielddominance>none</fielddominance>
                            <width>686</width>
                            <height>511</height>
                          </samplecharacteristics>
                        </video>
                      </media>
                    </file>
                  </clipitem>
                </track>
              </video>
            </media>
          </clip>
          <clip explodedTracks="true" frameBlend="FALSE" id="masterclip-38">
            <uuid>5f59e31e-744d-4958-a1c6-fbe3a4ea0fe3</uuid>
            <masterclipid>masterclip-38</masterclipid>
            <ismasterclip>TRUE</ismasterclip>
            <duration>162</duration>
            <in>0</in>
            <out>162</out>
            <name>Antonio.036.png</name>
            <rate>
              <timebase>24</timebase>
              <ntsc>FALSE</ntsc>
            </rate>
            <media>
              <video>
                <track>
                  <clipitem frameBlend="FALSE" id="clipitem-39">
                    <name>Antonio.036.png</name>
                    <masterclipid>masterclip-38</masterclipid>
                    <rate>
                      <timebase>24</timebase>
                      <ntsc>FALSE</ntsc>
                    </rate>
                    <alphatype>straight</alphatype>
                    <pixelaspectratio>square</pixelaspectratio>
                    <anamorphic>FALSE</anamorphic>
                    <file id="file-38">
                      <name>Antonio.036.png</name>
                      <pathurl>file://localhost/Users/antoniochiappetta/OneDrive - Aalto University/University/Aalto/Hackatons/Junction/Junction2019-IoK-security_awareness_kids/Assets/Team Animations/Image Sequences/Antonio/Antonio.036.png</pathurl>
                      <rate>
                        <timebase>24</timebase>
                        <ntsc>FALSE</ntsc>
                      </rate>
                      <duration>162</duration>
                      <timecode>
                        <rate>
                          <timebase>24</timebase>
                          <ntsc>FALSE</ntsc>
                        </rate>
                      </timecode>
                      <media>
                        <video>
                          <duration>1</duration>
                          <samplecharacteristics>
                            <anamorphic>FALSE</anamorphic>
                            <pixelaspectratio>square</pixelaspectratio>
                            <fielddominance>none</fielddominance>
                            <width>686</width>
                            <height>511</height>
                          </samplecharacteristics>
                        </video>
                      </media>
                    </file>
                  </clipitem>
                </track>
              </video>
            </media>
          </clip>
          <clip explodedTracks="true" frameBlend="FALSE" id="masterclip-39">
            <uuid>ccd36b24-eebf-4585-aff5-84612803dfb4</uuid>
            <masterclipid>masterclip-39</masterclipid>
            <ismasterclip>TRUE</ismasterclip>
            <duration>162</duration>
            <in>0</in>
            <out>162</out>
            <name>Antonio.037.png</name>
            <rate>
              <timebase>24</timebase>
              <ntsc>FALSE</ntsc>
            </rate>
            <media>
              <video>
                <track>
                  <clipitem frameBlend="FALSE" id="clipitem-40">
                    <name>Antonio.037.png</name>
                    <masterclipid>masterclip-39</masterclipid>
                    <rate>
                      <timebase>24</timebase>
                      <ntsc>FALSE</ntsc>
                    </rate>
                    <alphatype>straight</alphatype>
                    <pixelaspectratio>square</pixelaspectratio>
                    <anamorphic>FALSE</anamorphic>
                    <file id="file-39">
                      <name>Antonio.037.png</name>
                      <pathurl>file://localhost/Users/antoniochiappetta/OneDrive - Aalto University/University/Aalto/Hackatons/Junction/Junction2019-IoK-security_awareness_kids/Assets/Team Animations/Image Sequences/Antonio/Antonio.037.png</pathurl>
                      <rate>
                        <timebase>24</timebase>
                        <ntsc>FALSE</ntsc>
                      </rate>
                      <duration>162</duration>
                      <timecode>
                        <rate>
                          <timebase>24</timebase>
                          <ntsc>FALSE</ntsc>
                        </rate>
                      </timecode>
                      <media>
                        <video>
                          <duration>1</duration>
                          <samplecharacteristics>
                            <anamorphic>FALSE</anamorphic>
                            <pixelaspectratio>square</pixelaspectratio>
                            <fielddominance>none</fielddominance>
                            <width>686</width>
                            <height>511</height>
                          </samplecharacteristics>
                        </video>
                      </media>
                    </file>
                  </clipitem>
                </track>
              </video>
            </media>
          </clip>
          <clip explodedTracks="true" frameBlend="FALSE" id="masterclip-40">
            <uuid>012b6b33-ed89-4a24-8ce3-5ad8a6a5f8a2</uuid>
            <masterclipid>masterclip-40</masterclipid>
            <ismasterclip>TRUE</ismasterclip>
            <duration>162</duration>
            <in>0</in>
            <out>162</out>
            <name>Antonio.038.png</name>
            <rate>
              <timebase>24</timebase>
              <ntsc>FALSE</ntsc>
            </rate>
            <media>
              <video>
                <track>
                  <clipitem frameBlend="FALSE" id="clipitem-41">
                    <name>Antonio.038.png</name>
                    <masterclipid>masterclip-40</masterclipid>
                    <rate>
                      <timebase>24</timebase>
                      <ntsc>FALSE</ntsc>
                    </rate>
                    <alphatype>straight</alphatype>
                    <pixelaspectratio>square</pixelaspectratio>
                    <anamorphic>FALSE</anamorphic>
                    <file id="file-40">
                      <name>Antonio.038.png</name>
                      <pathurl>file://localhost/Users/antoniochiappetta/OneDrive - Aalto University/University/Aalto/Hackatons/Junction/Junction2019-IoK-security_awareness_kids/Assets/Team Animations/Image Sequences/Antonio/Antonio.038.png</pathurl>
                      <rate>
                        <timebase>24</timebase>
                        <ntsc>FALSE</ntsc>
                      </rate>
                      <duration>162</duration>
                      <timecode>
                        <rate>
                          <timebase>24</timebase>
                          <ntsc>FALSE</ntsc>
                        </rate>
                      </timecode>
                      <media>
                        <video>
                          <duration>1</duration>
                          <samplecharacteristics>
                            <anamorphic>FALSE</anamorphic>
                            <pixelaspectratio>square</pixelaspectratio>
                            <fielddominance>none</fielddominance>
                            <width>686</width>
                            <height>511</height>
                          </samplecharacteristics>
                        </video>
                      </media>
                    </file>
                  </clipitem>
                </track>
              </video>
            </media>
          </clip>
          <clip explodedTracks="true" frameBlend="FALSE" id="masterclip-41">
            <uuid>5251ba7b-b89b-4bc2-8e16-67b6239748b2</uuid>
            <masterclipid>masterclip-41</masterclipid>
            <ismasterclip>TRUE</ismasterclip>
            <duration>162</duration>
            <in>0</in>
            <out>162</out>
            <name>Antonio.039.png</name>
            <rate>
              <timebase>24</timebase>
              <ntsc>FALSE</ntsc>
            </rate>
            <media>
              <video>
                <track>
                  <clipitem frameBlend="FALSE" id="clipitem-42">
                    <name>Antonio.039.png</name>
                    <masterclipid>masterclip-41</masterclipid>
                    <rate>
                      <timebase>24</timebase>
                      <ntsc>FALSE</ntsc>
                    </rate>
                    <alphatype>straight</alphatype>
                    <pixelaspectratio>square</pixelaspectratio>
                    <anamorphic>FALSE</anamorphic>
                    <file id="file-41">
                      <name>Antonio.039.png</name>
                      <pathurl>file://localhost/Users/antoniochiappetta/OneDrive - Aalto University/University/Aalto/Hackatons/Junction/Junction2019-IoK-security_awareness_kids/Assets/Team Animations/Image Sequences/Antonio/Antonio.039.png</pathurl>
                      <rate>
                        <timebase>24</timebase>
                        <ntsc>FALSE</ntsc>
                      </rate>
                      <duration>162</duration>
                      <timecode>
                        <rate>
                          <timebase>24</timebase>
                          <ntsc>FALSE</ntsc>
                        </rate>
                      </timecode>
                      <media>
                        <video>
                          <duration>1</duration>
                          <samplecharacteristics>
                            <anamorphic>FALSE</anamorphic>
                            <pixelaspectratio>square</pixelaspectratio>
                            <fielddominance>none</fielddominance>
                            <width>686</width>
                            <height>511</height>
                          </samplecharacteristics>
                        </video>
                      </media>
                    </file>
                  </clipitem>
                </track>
              </video>
            </media>
          </clip>
          <clip explodedTracks="true" frameBlend="FALSE" id="masterclip-42">
            <uuid>5473709e-bf7b-4261-818b-34ccd6886cde</uuid>
            <masterclipid>masterclip-42</masterclipid>
            <ismasterclip>TRUE</ismasterclip>
            <duration>162</duration>
            <in>0</in>
            <out>162</out>
            <name>Antonio.040.png</name>
            <rate>
              <timebase>24</timebase>
              <ntsc>FALSE</ntsc>
            </rate>
            <media>
              <video>
                <track>
                  <clipitem frameBlend="FALSE" id="clipitem-43">
                    <name>Antonio.040.png</name>
                    <masterclipid>masterclip-42</masterclipid>
                    <rate>
                      <timebase>24</timebase>
                      <ntsc>FALSE</ntsc>
                    </rate>
                    <alphatype>straight</alphatype>
                    <pixelaspectratio>square</pixelaspectratio>
                    <anamorphic>FALSE</anamorphic>
                    <file id="file-42">
                      <name>Antonio.040.png</name>
                      <pathurl>file://localhost/Users/antoniochiappetta/OneDrive - Aalto University/University/Aalto/Hackatons/Junction/Junction2019-IoK-security_awareness_kids/Assets/Team Animations/Image Sequences/Antonio/Antonio.040.png</pathurl>
                      <rate>
                        <timebase>24</timebase>
                        <ntsc>FALSE</ntsc>
                      </rate>
                      <duration>162</duration>
                      <timecode>
                        <rate>
                          <timebase>24</timebase>
                          <ntsc>FALSE</ntsc>
                        </rate>
                      </timecode>
                      <media>
                        <video>
                          <duration>1</duration>
                          <samplecharacteristics>
                            <anamorphic>FALSE</anamorphic>
                            <pixelaspectratio>square</pixelaspectratio>
                            <fielddominance>none</fielddominance>
                            <width>686</width>
                            <height>511</height>
                          </samplecharacteristics>
                        </video>
                      </media>
                    </file>
                  </clipitem>
                </track>
              </video>
            </media>
          </clip>
          <clip explodedTracks="true" frameBlend="FALSE" id="masterclip-43">
            <uuid>f4159677-4b61-4c72-82d7-6c2fa1b0cbb3</uuid>
            <masterclipid>masterclip-43</masterclipid>
            <ismasterclip>TRUE</ismasterclip>
            <duration>162</duration>
            <in>0</in>
            <out>162</out>
            <name>Antonio.041.png</name>
            <rate>
              <timebase>24</timebase>
              <ntsc>FALSE</ntsc>
            </rate>
            <media>
              <video>
                <track>
                  <clipitem frameBlend="FALSE" id="clipitem-44">
                    <name>Antonio.041.png</name>
                    <masterclipid>masterclip-43</masterclipid>
                    <rate>
                      <timebase>24</timebase>
                      <ntsc>FALSE</ntsc>
                    </rate>
                    <alphatype>straight</alphatype>
                    <pixelaspectratio>square</pixelaspectratio>
                    <anamorphic>FALSE</anamorphic>
                    <file id="file-43">
                      <name>Antonio.041.png</name>
                      <pathurl>file://localhost/Users/antoniochiappetta/OneDrive - Aalto University/University/Aalto/Hackatons/Junction/Junction2019-IoK-security_awareness_kids/Assets/Team Animations/Image Sequences/Antonio/Antonio.041.png</pathurl>
                      <rate>
                        <timebase>24</timebase>
                        <ntsc>FALSE</ntsc>
                      </rate>
                      <duration>162</duration>
                      <timecode>
                        <rate>
                          <timebase>24</timebase>
                          <ntsc>FALSE</ntsc>
                        </rate>
                      </timecode>
                      <media>
                        <video>
                          <duration>1</duration>
                          <samplecharacteristics>
                            <anamorphic>FALSE</anamorphic>
                            <pixelaspectratio>square</pixelaspectratio>
                            <fielddominance>none</fielddominance>
                            <width>686</width>
                            <height>511</height>
                          </samplecharacteristics>
                        </video>
                      </media>
                    </file>
                  </clipitem>
                </track>
              </video>
            </media>
          </clip>
          <clip explodedTracks="true" frameBlend="FALSE" id="masterclip-44">
            <uuid>05c716e0-b1e2-496f-bb67-2634c0c34c43</uuid>
            <masterclipid>masterclip-44</masterclipid>
            <ismasterclip>TRUE</ismasterclip>
            <duration>162</duration>
            <in>0</in>
            <out>162</out>
            <name>Antonio.042.png</name>
            <rate>
              <timebase>24</timebase>
              <ntsc>FALSE</ntsc>
            </rate>
            <media>
              <video>
                <track>
                  <clipitem frameBlend="FALSE" id="clipitem-45">
                    <name>Antonio.042.png</name>
                    <masterclipid>masterclip-44</masterclipid>
                    <rate>
                      <timebase>24</timebase>
                      <ntsc>FALSE</ntsc>
                    </rate>
                    <alphatype>straight</alphatype>
                    <pixelaspectratio>square</pixelaspectratio>
                    <anamorphic>FALSE</anamorphic>
                    <file id="file-44">
                      <name>Antonio.042.png</name>
                      <pathurl>file://localhost/Users/antoniochiappetta/OneDrive - Aalto University/University/Aalto/Hackatons/Junction/Junction2019-IoK-security_awareness_kids/Assets/Team Animations/Image Sequences/Antonio/Antonio.042.png</pathurl>
                      <rate>
                        <timebase>24</timebase>
                        <ntsc>FALSE</ntsc>
                      </rate>
                      <duration>162</duration>
                      <timecode>
                        <rate>
                          <timebase>24</timebase>
                          <ntsc>FALSE</ntsc>
                        </rate>
                      </timecode>
                      <media>
                        <video>
                          <duration>1</duration>
                          <samplecharacteristics>
                            <anamorphic>FALSE</anamorphic>
                            <pixelaspectratio>square</pixelaspectratio>
                            <fielddominance>none</fielddominance>
                            <width>686</width>
                            <height>511</height>
                          </samplecharacteristics>
                        </video>
                      </media>
                    </file>
                  </clipitem>
                </track>
              </video>
            </media>
          </clip>
          <clip explodedTracks="true" frameBlend="FALSE" id="masterclip-45">
            <uuid>fa80c44a-c4ab-4e8a-9454-85af7fd448a8</uuid>
            <masterclipid>masterclip-45</masterclipid>
            <ismasterclip>TRUE</ismasterclip>
            <duration>162</duration>
            <in>0</in>
            <out>162</out>
            <name>Antonio.043.png</name>
            <rate>
              <timebase>24</timebase>
              <ntsc>FALSE</ntsc>
            </rate>
            <media>
              <video>
                <track>
                  <clipitem frameBlend="FALSE" id="clipitem-46">
                    <name>Antonio.043.png</name>
                    <masterclipid>masterclip-45</masterclipid>
                    <rate>
                      <timebase>24</timebase>
                      <ntsc>FALSE</ntsc>
                    </rate>
                    <alphatype>straight</alphatype>
                    <pixelaspectratio>square</pixelaspectratio>
                    <anamorphic>FALSE</anamorphic>
                    <file id="file-45">
                      <name>Antonio.043.png</name>
                      <pathurl>file://localhost/Users/antoniochiappetta/OneDrive - Aalto University/University/Aalto/Hackatons/Junction/Junction2019-IoK-security_awareness_kids/Assets/Team Animations/Image Sequences/Antonio/Antonio.043.png</pathurl>
                      <rate>
                        <timebase>24</timebase>
                        <ntsc>FALSE</ntsc>
                      </rate>
                      <duration>162</duration>
                      <timecode>
                        <rate>
                          <timebase>24</timebase>
                          <ntsc>FALSE</ntsc>
                        </rate>
                      </timecode>
                      <media>
                        <video>
                          <duration>1</duration>
                          <samplecharacteristics>
                            <anamorphic>FALSE</anamorphic>
                            <pixelaspectratio>square</pixelaspectratio>
                            <fielddominance>none</fielddominance>
                            <width>686</width>
                            <height>511</height>
                          </samplecharacteristics>
                        </video>
                      </media>
                    </file>
                  </clipitem>
                </track>
              </video>
            </media>
          </clip>
          <clip explodedTracks="true" frameBlend="FALSE" id="masterclip-46">
            <uuid>52a45574-36b4-495f-918d-cc9454ebaec7</uuid>
            <masterclipid>masterclip-46</masterclipid>
            <ismasterclip>TRUE</ismasterclip>
            <duration>162</duration>
            <in>0</in>
            <out>162</out>
            <name>Antonio.044.png</name>
            <rate>
              <timebase>24</timebase>
              <ntsc>FALSE</ntsc>
            </rate>
            <media>
              <video>
                <track>
                  <clipitem frameBlend="FALSE" id="clipitem-47">
                    <name>Antonio.044.png</name>
                    <masterclipid>masterclip-46</masterclipid>
                    <rate>
                      <timebase>24</timebase>
                      <ntsc>FALSE</ntsc>
                    </rate>
                    <alphatype>straight</alphatype>
                    <pixelaspectratio>square</pixelaspectratio>
                    <anamorphic>FALSE</anamorphic>
                    <file id="file-46">
                      <name>Antonio.044.png</name>
                      <pathurl>file://localhost/Users/antoniochiappetta/OneDrive - Aalto University/University/Aalto/Hackatons/Junction/Junction2019-IoK-security_awareness_kids/Assets/Team Animations/Image Sequences/Antonio/Antonio.044.png</pathurl>
                      <rate>
                        <timebase>24</timebase>
                        <ntsc>FALSE</ntsc>
                      </rate>
                      <duration>162</duration>
                      <timecode>
                        <rate>
                          <timebase>24</timebase>
                          <ntsc>FALSE</ntsc>
                        </rate>
                      </timecode>
                      <media>
                        <video>
                          <duration>1</duration>
                          <samplecharacteristics>
                            <anamorphic>FALSE</anamorphic>
                            <pixelaspectratio>square</pixelaspectratio>
                            <fielddominance>none</fielddominance>
                            <width>686</width>
                            <height>511</height>
                          </samplecharacteristics>
                        </video>
                      </media>
                    </file>
                  </clipitem>
                </track>
              </video>
            </media>
          </clip>
          <clip explodedTracks="true" frameBlend="FALSE" id="masterclip-47">
            <uuid>9cad6a20-c29e-4fd8-955b-9180adefe2df</uuid>
            <masterclipid>masterclip-47</masterclipid>
            <ismasterclip>TRUE</ismasterclip>
            <duration>162</duration>
            <in>0</in>
            <out>162</out>
            <name>Antonio.045.png</name>
            <rate>
              <timebase>24</timebase>
              <ntsc>FALSE</ntsc>
            </rate>
            <media>
              <video>
                <track>
                  <clipitem frameBlend="FALSE" id="clipitem-48">
                    <name>Antonio.045.png</name>
                    <masterclipid>masterclip-47</masterclipid>
                    <rate>
                      <timebase>24</timebase>
                      <ntsc>FALSE</ntsc>
                    </rate>
                    <alphatype>straight</alphatype>
                    <pixelaspectratio>square</pixelaspectratio>
                    <anamorphic>FALSE</anamorphic>
                    <file id="file-47">
                      <name>Antonio.045.png</name>
                      <pathurl>file://localhost/Users/antoniochiappetta/OneDrive - Aalto University/University/Aalto/Hackatons/Junction/Junction2019-IoK-security_awareness_kids/Assets/Team Animations/Image Sequences/Antonio/Antonio.045.png</pathurl>
                      <rate>
                        <timebase>24</timebase>
                        <ntsc>FALSE</ntsc>
                      </rate>
                      <duration>162</duration>
                      <timecode>
                        <rate>
                          <timebase>24</timebase>
                          <ntsc>FALSE</ntsc>
                        </rate>
                      </timecode>
                      <media>
                        <video>
                          <duration>1</duration>
                          <samplecharacteristics>
                            <anamorphic>FALSE</anamorphic>
                            <pixelaspectratio>square</pixelaspectratio>
                            <fielddominance>none</fielddominance>
                            <width>686</width>
                            <height>511</height>
                          </samplecharacteristics>
                        </video>
                      </media>
                    </file>
                  </clipitem>
                </track>
              </video>
            </media>
          </clip>
          <clip explodedTracks="true" frameBlend="FALSE" id="masterclip-48">
            <uuid>edff73ae-88a6-4d75-96f0-b44c6e12226d</uuid>
            <masterclipid>masterclip-48</masterclipid>
            <ismasterclip>TRUE</ismasterclip>
            <duration>162</duration>
            <in>0</in>
            <out>162</out>
            <name>Antonio.046.png</name>
            <rate>
              <timebase>24</timebase>
              <ntsc>FALSE</ntsc>
            </rate>
            <media>
              <video>
                <track>
                  <clipitem frameBlend="FALSE" id="clipitem-49">
                    <name>Antonio.046.png</name>
                    <masterclipid>masterclip-48</masterclipid>
                    <rate>
                      <timebase>24</timebase>
                      <ntsc>FALSE</ntsc>
                    </rate>
                    <alphatype>straight</alphatype>
                    <pixelaspectratio>square</pixelaspectratio>
                    <anamorphic>FALSE</anamorphic>
                    <file id="file-48">
                      <name>Antonio.046.png</name>
                      <pathurl>file://localhost/Users/antoniochiappetta/OneDrive - Aalto University/University/Aalto/Hackatons/Junction/Junction2019-IoK-security_awareness_kids/Assets/Team Animations/Image Sequences/Antonio/Antonio.046.png</pathurl>
                      <rate>
                        <timebase>24</timebase>
                        <ntsc>FALSE</ntsc>
                      </rate>
                      <duration>162</duration>
                      <timecode>
                        <rate>
                          <timebase>24</timebase>
                          <ntsc>FALSE</ntsc>
                        </rate>
                      </timecode>
                      <media>
                        <video>
                          <duration>1</duration>
                          <samplecharacteristics>
                            <anamorphic>FALSE</anamorphic>
                            <pixelaspectratio>square</pixelaspectratio>
                            <fielddominance>none</fielddominance>
                            <width>686</width>
                            <height>511</height>
                          </samplecharacteristics>
                        </video>
                      </media>
                    </file>
                  </clipitem>
                </track>
              </video>
            </media>
          </clip>
          <clip explodedTracks="true" frameBlend="FALSE" id="masterclip-49">
            <uuid>d177572c-d14d-490b-9900-c4900e384091</uuid>
            <masterclipid>masterclip-49</masterclipid>
            <ismasterclip>TRUE</ismasterclip>
            <duration>162</duration>
            <in>0</in>
            <out>162</out>
            <name>Antonio.047.png</name>
            <rate>
              <timebase>24</timebase>
              <ntsc>FALSE</ntsc>
            </rate>
            <media>
              <video>
                <track>
                  <clipitem frameBlend="FALSE" id="clipitem-50">
                    <name>Antonio.047.png</name>
                    <masterclipid>masterclip-49</masterclipid>
                    <rate>
                      <timebase>24</timebase>
                      <ntsc>FALSE</ntsc>
                    </rate>
                    <alphatype>straight</alphatype>
                    <pixelaspectratio>square</pixelaspectratio>
                    <anamorphic>FALSE</anamorphic>
                    <file id="file-49">
                      <name>Antonio.047.png</name>
                      <pathurl>file://localhost/Users/antoniochiappetta/OneDrive - Aalto University/University/Aalto/Hackatons/Junction/Junction2019-IoK-security_awareness_kids/Assets/Team Animations/Image Sequences/Antonio/Antonio.047.png</pathurl>
                      <rate>
                        <timebase>24</timebase>
                        <ntsc>FALSE</ntsc>
                      </rate>
                      <duration>162</duration>
                      <timecode>
                        <rate>
                          <timebase>24</timebase>
                          <ntsc>FALSE</ntsc>
                        </rate>
                      </timecode>
                      <media>
                        <video>
                          <duration>1</duration>
                          <samplecharacteristics>
                            <anamorphic>FALSE</anamorphic>
                            <pixelaspectratio>square</pixelaspectratio>
                            <fielddominance>none</fielddominance>
                            <width>686</width>
                            <height>511</height>
                          </samplecharacteristics>
                        </video>
                      </media>
                    </file>
                  </clipitem>
                </track>
              </video>
            </media>
          </clip>
          <clip explodedTracks="true" frameBlend="FALSE" id="masterclip-50">
            <uuid>653fd477-f54f-48bd-93ff-e7a81ac06956</uuid>
            <masterclipid>masterclip-50</masterclipid>
            <ismasterclip>TRUE</ismasterclip>
            <duration>162</duration>
            <in>0</in>
            <out>162</out>
            <name>Antonio.048.png</name>
            <rate>
              <timebase>24</timebase>
              <ntsc>FALSE</ntsc>
            </rate>
            <media>
              <video>
                <track>
                  <clipitem frameBlend="FALSE" id="clipitem-51">
                    <name>Antonio.048.png</name>
                    <masterclipid>masterclip-50</masterclipid>
                    <rate>
                      <timebase>24</timebase>
                      <ntsc>FALSE</ntsc>
                    </rate>
                    <alphatype>straight</alphatype>
                    <pixelaspectratio>square</pixelaspectratio>
                    <anamorphic>FALSE</anamorphic>
                    <file id="file-50">
                      <name>Antonio.048.png</name>
                      <pathurl>file://localhost/Users/antoniochiappetta/OneDrive - Aalto University/University/Aalto/Hackatons/Junction/Junction2019-IoK-security_awareness_kids/Assets/Team Animations/Image Sequences/Antonio/Antonio.048.png</pathurl>
                      <rate>
                        <timebase>24</timebase>
                        <ntsc>FALSE</ntsc>
                      </rate>
                      <duration>162</duration>
                      <timecode>
                        <rate>
                          <timebase>24</timebase>
                          <ntsc>FALSE</ntsc>
                        </rate>
                      </timecode>
                      <media>
                        <video>
                          <duration>1</duration>
                          <samplecharacteristics>
                            <anamorphic>FALSE</anamorphic>
                            <pixelaspectratio>square</pixelaspectratio>
                            <fielddominance>none</fielddominance>
                            <width>686</width>
                            <height>511</height>
                          </samplecharacteristics>
                        </video>
                      </media>
                    </file>
                  </clipitem>
                </track>
              </video>
            </media>
          </clip>
          <clip explodedTracks="true" frameBlend="FALSE" id="masterclip-51">
            <uuid>5c438ec2-a2d8-4117-b0b5-c81541f3a177</uuid>
            <masterclipid>masterclip-51</masterclipid>
            <ismasterclip>TRUE</ismasterclip>
            <duration>162</duration>
            <in>0</in>
            <out>162</out>
            <name>Antonio.049.png</name>
            <rate>
              <timebase>24</timebase>
              <ntsc>FALSE</ntsc>
            </rate>
            <media>
              <video>
                <track>
                  <clipitem frameBlend="FALSE" id="clipitem-52">
                    <name>Antonio.049.png</name>
                    <masterclipid>masterclip-51</masterclipid>
                    <rate>
                      <timebase>24</timebase>
                      <ntsc>FALSE</ntsc>
                    </rate>
                    <alphatype>straight</alphatype>
                    <pixelaspectratio>square</pixelaspectratio>
                    <anamorphic>FALSE</anamorphic>
                    <file id="file-51">
                      <name>Antonio.049.png</name>
                      <pathurl>file://localhost/Users/antoniochiappetta/OneDrive - Aalto University/University/Aalto/Hackatons/Junction/Junction2019-IoK-security_awareness_kids/Assets/Team Animations/Image Sequences/Antonio/Antonio.049.png</pathurl>
                      <rate>
                        <timebase>24</timebase>
                        <ntsc>FALSE</ntsc>
                      </rate>
                      <duration>162</duration>
                      <timecode>
                        <rate>
                          <timebase>24</timebase>
                          <ntsc>FALSE</ntsc>
                        </rate>
                      </timecode>
                      <media>
                        <video>
                          <duration>1</duration>
                          <samplecharacteristics>
                            <anamorphic>FALSE</anamorphic>
                            <pixelaspectratio>square</pixelaspectratio>
                            <fielddominance>none</fielddominance>
                            <width>686</width>
                            <height>511</height>
                          </samplecharacteristics>
                        </video>
                      </media>
                    </file>
                  </clipitem>
                </track>
              </video>
            </media>
          </clip>
          <clip explodedTracks="true" frameBlend="FALSE" id="masterclip-52">
            <uuid>5e560703-cc04-4d0f-a121-13162c2104ba</uuid>
            <masterclipid>masterclip-52</masterclipid>
            <ismasterclip>TRUE</ismasterclip>
            <duration>162</duration>
            <in>0</in>
            <out>162</out>
            <name>Antonio.050.png</name>
            <rate>
              <timebase>24</timebase>
              <ntsc>FALSE</ntsc>
            </rate>
            <media>
              <video>
                <track>
                  <clipitem frameBlend="FALSE" id="clipitem-53">
                    <name>Antonio.050.png</name>
                    <masterclipid>masterclip-52</masterclipid>
                    <rate>
                      <timebase>24</timebase>
                      <ntsc>FALSE</ntsc>
                    </rate>
                    <alphatype>straight</alphatype>
                    <pixelaspectratio>square</pixelaspectratio>
                    <anamorphic>FALSE</anamorphic>
                    <file id="file-52">
                      <name>Antonio.050.png</name>
                      <pathurl>file://localhost/Users/antoniochiappetta/OneDrive - Aalto University/University/Aalto/Hackatons/Junction/Junction2019-IoK-security_awareness_kids/Assets/Team Animations/Image Sequences/Antonio/Antonio.050.png</pathurl>
                      <rate>
                        <timebase>24</timebase>
                        <ntsc>FALSE</ntsc>
                      </rate>
                      <duration>162</duration>
                      <timecode>
                        <rate>
                          <timebase>24</timebase>
                          <ntsc>FALSE</ntsc>
                        </rate>
                      </timecode>
                      <media>
                        <video>
                          <duration>1</duration>
                          <samplecharacteristics>
                            <anamorphic>FALSE</anamorphic>
                            <pixelaspectratio>square</pixelaspectratio>
                            <fielddominance>none</fielddominance>
                            <width>686</width>
                            <height>511</height>
                          </samplecharacteristics>
                        </video>
                      </media>
                    </file>
                  </clipitem>
                </track>
              </video>
            </media>
          </clip>
          <clip explodedTracks="true" frameBlend="FALSE" id="masterclip-53">
            <uuid>2a38e544-ca4c-4884-8c96-975df293cefd</uuid>
            <masterclipid>masterclip-53</masterclipid>
            <ismasterclip>TRUE</ismasterclip>
            <duration>162</duration>
            <in>0</in>
            <out>162</out>
            <name>Antonio.051.png</name>
            <rate>
              <timebase>24</timebase>
              <ntsc>FALSE</ntsc>
            </rate>
            <media>
              <video>
                <track>
                  <clipitem frameBlend="FALSE" id="clipitem-54">
                    <name>Antonio.051.png</name>
                    <masterclipid>masterclip-53</masterclipid>
                    <rate>
                      <timebase>24</timebase>
                      <ntsc>FALSE</ntsc>
                    </rate>
                    <alphatype>straight</alphatype>
                    <pixelaspectratio>square</pixelaspectratio>
                    <anamorphic>FALSE</anamorphic>
                    <file id="file-53">
                      <name>Antonio.051.png</name>
                      <pathurl>file://localhost/Users/antoniochiappetta/OneDrive - Aalto University/University/Aalto/Hackatons/Junction/Junction2019-IoK-security_awareness_kids/Assets/Team Animations/Image Sequences/Antonio/Antonio.051.png</pathurl>
                      <rate>
                        <timebase>24</timebase>
                        <ntsc>FALSE</ntsc>
                      </rate>
                      <duration>162</duration>
                      <timecode>
                        <rate>
                          <timebase>24</timebase>
                          <ntsc>FALSE</ntsc>
                        </rate>
                      </timecode>
                      <media>
                        <video>
                          <duration>1</duration>
                          <samplecharacteristics>
                            <anamorphic>FALSE</anamorphic>
                            <pixelaspectratio>square</pixelaspectratio>
                            <fielddominance>none</fielddominance>
                            <width>686</width>
                            <height>511</height>
                          </samplecharacteristics>
                        </video>
                      </media>
                    </file>
                  </clipitem>
                </track>
              </video>
            </media>
          </clip>
          <clip explodedTracks="true" frameBlend="FALSE" id="masterclip-54">
            <uuid>e058f3c5-7fcf-4f61-b782-55f2e7779cc5</uuid>
            <masterclipid>masterclip-54</masterclipid>
            <ismasterclip>TRUE</ismasterclip>
            <duration>162</duration>
            <in>0</in>
            <out>162</out>
            <name>Antonio.052.png</name>
            <rate>
              <timebase>24</timebase>
              <ntsc>FALSE</ntsc>
            </rate>
            <media>
              <video>
                <track>
                  <clipitem frameBlend="FALSE" id="clipitem-55">
                    <name>Antonio.052.png</name>
                    <masterclipid>masterclip-54</masterclipid>
                    <rate>
                      <timebase>24</timebase>
                      <ntsc>FALSE</ntsc>
                    </rate>
                    <alphatype>straight</alphatype>
                    <pixelaspectratio>square</pixelaspectratio>
                    <anamorphic>FALSE</anamorphic>
                    <file id="file-54">
                      <name>Antonio.052.png</name>
                      <pathurl>file://localhost/Users/antoniochiappetta/OneDrive - Aalto University/University/Aalto/Hackatons/Junction/Junction2019-IoK-security_awareness_kids/Assets/Team Animations/Image Sequences/Antonio/Antonio.052.png</pathurl>
                      <rate>
                        <timebase>24</timebase>
                        <ntsc>FALSE</ntsc>
                      </rate>
                      <duration>162</duration>
                      <timecode>
                        <rate>
                          <timebase>24</timebase>
                          <ntsc>FALSE</ntsc>
                        </rate>
                      </timecode>
                      <media>
                        <video>
                          <duration>1</duration>
                          <samplecharacteristics>
                            <anamorphic>FALSE</anamorphic>
                            <pixelaspectratio>square</pixelaspectratio>
                            <fielddominance>none</fielddominance>
                            <width>686</width>
                            <height>511</height>
                          </samplecharacteristics>
                        </video>
                      </media>
                    </file>
                  </clipitem>
                </track>
              </video>
            </media>
          </clip>
          <clip explodedTracks="true" frameBlend="FALSE" id="masterclip-55">
            <uuid>245c82b4-7374-4afd-aee5-ad8cd6d2721b</uuid>
            <masterclipid>masterclip-55</masterclipid>
            <ismasterclip>TRUE</ismasterclip>
            <duration>162</duration>
            <in>0</in>
            <out>162</out>
            <name>Antonio.053.png</name>
            <rate>
              <timebase>24</timebase>
              <ntsc>FALSE</ntsc>
            </rate>
            <media>
              <video>
                <track>
                  <clipitem frameBlend="FALSE" id="clipitem-56">
                    <name>Antonio.053.png</name>
                    <masterclipid>masterclip-55</masterclipid>
                    <rate>
                      <timebase>24</timebase>
                      <ntsc>FALSE</ntsc>
                    </rate>
                    <alphatype>straight</alphatype>
                    <pixelaspectratio>square</pixelaspectratio>
                    <anamorphic>FALSE</anamorphic>
                    <file id="file-55">
                      <name>Antonio.053.png</name>
                      <pathurl>file://localhost/Users/antoniochiappetta/OneDrive - Aalto University/University/Aalto/Hackatons/Junction/Junction2019-IoK-security_awareness_kids/Assets/Team Animations/Image Sequences/Antonio/Antonio.053.png</pathurl>
                      <rate>
                        <timebase>24</timebase>
                        <ntsc>FALSE</ntsc>
                      </rate>
                      <duration>162</duration>
                      <timecode>
                        <rate>
                          <timebase>24</timebase>
                          <ntsc>FALSE</ntsc>
                        </rate>
                      </timecode>
                      <media>
                        <video>
                          <duration>1</duration>
                          <samplecharacteristics>
                            <anamorphic>FALSE</anamorphic>
                            <pixelaspectratio>square</pixelaspectratio>
                            <fielddominance>none</fielddominance>
                            <width>686</width>
                            <height>511</height>
                          </samplecharacteristics>
                        </video>
                      </media>
                    </file>
                  </clipitem>
                </track>
              </video>
            </media>
          </clip>
          <clip explodedTracks="true" frameBlend="FALSE" id="masterclip-56">
            <uuid>f0765367-c5d9-4c21-888c-c1bae0ed6724</uuid>
            <masterclipid>masterclip-56</masterclipid>
            <ismasterclip>TRUE</ismasterclip>
            <duration>162</duration>
            <in>0</in>
            <out>162</out>
            <name>Antonio.054.png</name>
            <rate>
              <timebase>24</timebase>
              <ntsc>FALSE</ntsc>
            </rate>
            <media>
              <video>
                <track>
                  <clipitem frameBlend="FALSE" id="clipitem-57">
                    <name>Antonio.054.png</name>
                    <masterclipid>masterclip-56</masterclipid>
                    <rate>
                      <timebase>24</timebase>
                      <ntsc>FALSE</ntsc>
                    </rate>
                    <alphatype>straight</alphatype>
                    <pixelaspectratio>square</pixelaspectratio>
                    <anamorphic>FALSE</anamorphic>
                    <file id="file-56">
                      <name>Antonio.054.png</name>
                      <pathurl>file://localhost/Users/antoniochiappetta/OneDrive - Aalto University/University/Aalto/Hackatons/Junction/Junction2019-IoK-security_awareness_kids/Assets/Team Animations/Image Sequences/Antonio/Antonio.054.png</pathurl>
                      <rate>
                        <timebase>24</timebase>
                        <ntsc>FALSE</ntsc>
                      </rate>
                      <duration>162</duration>
                      <timecode>
                        <rate>
                          <timebase>24</timebase>
                          <ntsc>FALSE</ntsc>
                        </rate>
                      </timecode>
                      <media>
                        <video>
                          <duration>1</duration>
                          <samplecharacteristics>
                            <anamorphic>FALSE</anamorphic>
                            <pixelaspectratio>square</pixelaspectratio>
                            <fielddominance>none</fielddominance>
                            <width>686</width>
                            <height>511</height>
                          </samplecharacteristics>
                        </video>
                      </media>
                    </file>
                  </clipitem>
                </track>
              </video>
            </media>
          </clip>
          <clip explodedTracks="true" frameBlend="FALSE" id="masterclip-57">
            <uuid>f57bbba0-dc1a-474c-943d-6340ad9033e2</uuid>
            <masterclipid>masterclip-57</masterclipid>
            <ismasterclip>TRUE</ismasterclip>
            <duration>162</duration>
            <in>0</in>
            <out>162</out>
            <name>Antonio.055.png</name>
            <rate>
              <timebase>24</timebase>
              <ntsc>FALSE</ntsc>
            </rate>
            <media>
              <video>
                <track>
                  <clipitem frameBlend="FALSE" id="clipitem-58">
                    <name>Antonio.055.png</name>
                    <masterclipid>masterclip-57</masterclipid>
                    <rate>
                      <timebase>24</timebase>
                      <ntsc>FALSE</ntsc>
                    </rate>
                    <alphatype>straight</alphatype>
                    <pixelaspectratio>square</pixelaspectratio>
                    <anamorphic>FALSE</anamorphic>
                    <file id="file-57">
                      <name>Antonio.055.png</name>
                      <pathurl>file://localhost/Users/antoniochiappetta/OneDrive - Aalto University/University/Aalto/Hackatons/Junction/Junction2019-IoK-security_awareness_kids/Assets/Team Animations/Image Sequences/Antonio/Antonio.055.png</pathurl>
                      <rate>
                        <timebase>24</timebase>
                        <ntsc>FALSE</ntsc>
                      </rate>
                      <duration>162</duration>
                      <timecode>
                        <rate>
                          <timebase>24</timebase>
                          <ntsc>FALSE</ntsc>
                        </rate>
                      </timecode>
                      <media>
                        <video>
                          <duration>1</duration>
                          <samplecharacteristics>
                            <anamorphic>FALSE</anamorphic>
                            <pixelaspectratio>square</pixelaspectratio>
                            <fielddominance>none</fielddominance>
                            <width>686</width>
                            <height>511</height>
                          </samplecharacteristics>
                        </video>
                      </media>
                    </file>
                  </clipitem>
                </track>
              </video>
            </media>
          </clip>
          <clip explodedTracks="true" frameBlend="FALSE" id="masterclip-58">
            <uuid>9bce17a3-fb69-48fa-a632-3974fc724b0f</uuid>
            <masterclipid>masterclip-58</masterclipid>
            <ismasterclip>TRUE</ismasterclip>
            <duration>162</duration>
            <in>0</in>
            <out>162</out>
            <name>Antonio.056.png</name>
            <rate>
              <timebase>24</timebase>
              <ntsc>FALSE</ntsc>
            </rate>
            <media>
              <video>
                <track>
                  <clipitem frameBlend="FALSE" id="clipitem-59">
                    <name>Antonio.056.png</name>
                    <masterclipid>masterclip-58</masterclipid>
                    <rate>
                      <timebase>24</timebase>
                      <ntsc>FALSE</ntsc>
                    </rate>
                    <alphatype>straight</alphatype>
                    <pixelaspectratio>square</pixelaspectratio>
                    <anamorphic>FALSE</anamorphic>
                    <file id="file-58">
                      <name>Antonio.056.png</name>
                      <pathurl>file://localhost/Users/antoniochiappetta/OneDrive - Aalto University/University/Aalto/Hackatons/Junction/Junction2019-IoK-security_awareness_kids/Assets/Team Animations/Image Sequences/Antonio/Antonio.056.png</pathurl>
                      <rate>
                        <timebase>24</timebase>
                        <ntsc>FALSE</ntsc>
                      </rate>
                      <duration>162</duration>
                      <timecode>
                        <rate>
                          <timebase>24</timebase>
                          <ntsc>FALSE</ntsc>
                        </rate>
                      </timecode>
                      <media>
                        <video>
                          <duration>1</duration>
                          <samplecharacteristics>
                            <anamorphic>FALSE</anamorphic>
                            <pixelaspectratio>square</pixelaspectratio>
                            <fielddominance>none</fielddominance>
                            <width>686</width>
                            <height>511</height>
                          </samplecharacteristics>
                        </video>
                      </media>
                    </file>
                  </clipitem>
                </track>
              </video>
            </media>
          </clip>
          <clip explodedTracks="true" frameBlend="FALSE" id="masterclip-59">
            <uuid>1075aed0-f815-42ab-9021-2f319f1d8d82</uuid>
            <masterclipid>masterclip-59</masterclipid>
            <ismasterclip>TRUE</ismasterclip>
            <duration>162</duration>
            <in>0</in>
            <out>162</out>
            <name>Antonio.057.png</name>
            <rate>
              <timebase>24</timebase>
              <ntsc>FALSE</ntsc>
            </rate>
            <media>
              <video>
                <track>
                  <clipitem frameBlend="FALSE" id="clipitem-60">
                    <name>Antonio.057.png</name>
                    <masterclipid>masterclip-59</masterclipid>
                    <rate>
                      <timebase>24</timebase>
                      <ntsc>FALSE</ntsc>
                    </rate>
                    <alphatype>straight</alphatype>
                    <pixelaspectratio>square</pixelaspectratio>
                    <anamorphic>FALSE</anamorphic>
                    <file id="file-59">
                      <name>Antonio.057.png</name>
                      <pathurl>file://localhost/Users/antoniochiappetta/OneDrive - Aalto University/University/Aalto/Hackatons/Junction/Junction2019-IoK-security_awareness_kids/Assets/Team Animations/Image Sequences/Antonio/Antonio.057.png</pathurl>
                      <rate>
                        <timebase>24</timebase>
                        <ntsc>FALSE</ntsc>
                      </rate>
                      <duration>162</duration>
                      <timecode>
                        <rate>
                          <timebase>24</timebase>
                          <ntsc>FALSE</ntsc>
                        </rate>
                      </timecode>
                      <media>
                        <video>
                          <duration>1</duration>
                          <samplecharacteristics>
                            <anamorphic>FALSE</anamorphic>
                            <pixelaspectratio>square</pixelaspectratio>
                            <fielddominance>none</fielddominance>
                            <width>686</width>
                            <height>511</height>
                          </samplecharacteristics>
                        </video>
                      </media>
                    </file>
                  </clipitem>
                </track>
              </video>
            </media>
          </clip>
          <clip explodedTracks="true" frameBlend="FALSE" id="masterclip-60">
            <uuid>fe886820-15d8-4e9e-b403-364721ddd333</uuid>
            <masterclipid>masterclip-60</masterclipid>
            <ismasterclip>TRUE</ismasterclip>
            <duration>162</duration>
            <in>0</in>
            <out>162</out>
            <name>Antonio.058.png</name>
            <rate>
              <timebase>24</timebase>
              <ntsc>FALSE</ntsc>
            </rate>
            <media>
              <video>
                <track>
                  <clipitem frameBlend="FALSE" id="clipitem-61">
                    <name>Antonio.058.png</name>
                    <masterclipid>masterclip-60</masterclipid>
                    <rate>
                      <timebase>24</timebase>
                      <ntsc>FALSE</ntsc>
                    </rate>
                    <alphatype>straight</alphatype>
                    <pixelaspectratio>square</pixelaspectratio>
                    <anamorphic>FALSE</anamorphic>
                    <file id="file-60">
                      <name>Antonio.058.png</name>
                      <pathurl>file://localhost/Users/antoniochiappetta/OneDrive - Aalto University/University/Aalto/Hackatons/Junction/Junction2019-IoK-security_awareness_kids/Assets/Team Animations/Image Sequences/Antonio/Antonio.058.png</pathurl>
                      <rate>
                        <timebase>24</timebase>
                        <ntsc>FALSE</ntsc>
                      </rate>
                      <duration>162</duration>
                      <timecode>
                        <rate>
                          <timebase>24</timebase>
                          <ntsc>FALSE</ntsc>
                        </rate>
                      </timecode>
                      <media>
                        <video>
                          <duration>1</duration>
                          <samplecharacteristics>
                            <anamorphic>FALSE</anamorphic>
                            <pixelaspectratio>square</pixelaspectratio>
                            <fielddominance>none</fielddominance>
                            <width>686</width>
                            <height>511</height>
                          </samplecharacteristics>
                        </video>
                      </media>
                    </file>
                  </clipitem>
                </track>
              </video>
            </media>
          </clip>
          <clip explodedTracks="true" frameBlend="FALSE" id="masterclip-61">
            <uuid>80d4bdc8-af4a-4fa6-ae33-7d768071c8c3</uuid>
            <masterclipid>masterclip-61</masterclipid>
            <ismasterclip>TRUE</ismasterclip>
            <duration>162</duration>
            <in>0</in>
            <out>162</out>
            <name>Antonio.059.png</name>
            <rate>
              <timebase>24</timebase>
              <ntsc>FALSE</ntsc>
            </rate>
            <media>
              <video>
                <track>
                  <clipitem frameBlend="FALSE" id="clipitem-62">
                    <name>Antonio.059.png</name>
                    <masterclipid>masterclip-61</masterclipid>
                    <rate>
                      <timebase>24</timebase>
                      <ntsc>FALSE</ntsc>
                    </rate>
                    <alphatype>straight</alphatype>
                    <pixelaspectratio>square</pixelaspectratio>
                    <anamorphic>FALSE</anamorphic>
                    <file id="file-61">
                      <name>Antonio.059.png</name>
                      <pathurl>file://localhost/Users/antoniochiappetta/OneDrive - Aalto University/University/Aalto/Hackatons/Junction/Junction2019-IoK-security_awareness_kids/Assets/Team Animations/Image Sequences/Antonio/Antonio.059.png</pathurl>
                      <rate>
                        <timebase>24</timebase>
                        <ntsc>FALSE</ntsc>
                      </rate>
                      <duration>162</duration>
                      <timecode>
                        <rate>
                          <timebase>24</timebase>
                          <ntsc>FALSE</ntsc>
                        </rate>
                      </timecode>
                      <media>
                        <video>
                          <duration>1</duration>
                          <samplecharacteristics>
                            <anamorphic>FALSE</anamorphic>
                            <pixelaspectratio>square</pixelaspectratio>
                            <fielddominance>none</fielddominance>
                            <width>686</width>
                            <height>511</height>
                          </samplecharacteristics>
                        </video>
                      </media>
                    </file>
                  </clipitem>
                </track>
              </video>
            </media>
          </clip>
          <clip explodedTracks="true" frameBlend="FALSE" id="masterclip-62">
            <uuid>0a95706b-f751-4543-b471-194947e9c6b6</uuid>
            <masterclipid>masterclip-62</masterclipid>
            <ismasterclip>TRUE</ismasterclip>
            <duration>162</duration>
            <in>0</in>
            <out>162</out>
            <name>Antonio.060.png</name>
            <rate>
              <timebase>24</timebase>
              <ntsc>FALSE</ntsc>
            </rate>
            <media>
              <video>
                <track>
                  <clipitem frameBlend="FALSE" id="clipitem-63">
                    <name>Antonio.060.png</name>
                    <masterclipid>masterclip-62</masterclipid>
                    <rate>
                      <timebase>24</timebase>
                      <ntsc>FALSE</ntsc>
                    </rate>
                    <alphatype>straight</alphatype>
                    <pixelaspectratio>square</pixelaspectratio>
                    <anamorphic>FALSE</anamorphic>
                    <file id="file-62">
                      <name>Antonio.060.png</name>
                      <pathurl>file://localhost/Users/antoniochiappetta/OneDrive - Aalto University/University/Aalto/Hackatons/Junction/Junction2019-IoK-security_awareness_kids/Assets/Team Animations/Image Sequences/Antonio/Antonio.060.png</pathurl>
                      <rate>
                        <timebase>24</timebase>
                        <ntsc>FALSE</ntsc>
                      </rate>
                      <duration>162</duration>
                      <timecode>
                        <rate>
                          <timebase>24</timebase>
                          <ntsc>FALSE</ntsc>
                        </rate>
                      </timecode>
                      <media>
                        <video>
                          <duration>1</duration>
                          <samplecharacteristics>
                            <anamorphic>FALSE</anamorphic>
                            <pixelaspectratio>square</pixelaspectratio>
                            <fielddominance>none</fielddominance>
                            <width>686</width>
                            <height>511</height>
                          </samplecharacteristics>
                        </video>
                      </media>
                    </file>
                  </clipitem>
                </track>
              </video>
            </media>
          </clip>
          <clip explodedTracks="true" frameBlend="FALSE" id="masterclip-63">
            <uuid>0048e00a-0256-4390-ba56-e5b6c4ebe75b</uuid>
            <masterclipid>masterclip-63</masterclipid>
            <ismasterclip>TRUE</ismasterclip>
            <duration>162</duration>
            <in>0</in>
            <out>162</out>
            <name>Antonio.061.png</name>
            <rate>
              <timebase>24</timebase>
              <ntsc>FALSE</ntsc>
            </rate>
            <media>
              <video>
                <track>
                  <clipitem frameBlend="FALSE" id="clipitem-64">
                    <name>Antonio.061.png</name>
                    <masterclipid>masterclip-63</masterclipid>
                    <rate>
                      <timebase>24</timebase>
                      <ntsc>FALSE</ntsc>
                    </rate>
                    <alphatype>straight</alphatype>
                    <pixelaspectratio>square</pixelaspectratio>
                    <anamorphic>FALSE</anamorphic>
                    <file id="file-63">
                      <name>Antonio.061.png</name>
                      <pathurl>file://localhost/Users/antoniochiappetta/OneDrive - Aalto University/University/Aalto/Hackatons/Junction/Junction2019-IoK-security_awareness_kids/Assets/Team Animations/Image Sequences/Antonio/Antonio.061.png</pathurl>
                      <rate>
                        <timebase>24</timebase>
                        <ntsc>FALSE</ntsc>
                      </rate>
                      <duration>162</duration>
                      <timecode>
                        <rate>
                          <timebase>24</timebase>
                          <ntsc>FALSE</ntsc>
                        </rate>
                      </timecode>
                      <media>
                        <video>
                          <duration>1</duration>
                          <samplecharacteristics>
                            <anamorphic>FALSE</anamorphic>
                            <pixelaspectratio>square</pixelaspectratio>
                            <fielddominance>none</fielddominance>
                            <width>686</width>
                            <height>511</height>
                          </samplecharacteristics>
                        </video>
                      </media>
                    </file>
                  </clipitem>
                </track>
              </video>
            </media>
          </clip>
          <clip explodedTracks="true" frameBlend="FALSE" id="masterclip-64">
            <uuid>37df04ee-662b-471e-a14e-b3cb99d3f0eb</uuid>
            <masterclipid>masterclip-64</masterclipid>
            <ismasterclip>TRUE</ismasterclip>
            <duration>162</duration>
            <in>0</in>
            <out>162</out>
            <name>Antonio.062.png</name>
            <rate>
              <timebase>24</timebase>
              <ntsc>FALSE</ntsc>
            </rate>
            <media>
              <video>
                <track>
                  <clipitem frameBlend="FALSE" id="clipitem-65">
                    <name>Antonio.062.png</name>
                    <masterclipid>masterclip-64</masterclipid>
                    <rate>
                      <timebase>24</timebase>
                      <ntsc>FALSE</ntsc>
                    </rate>
                    <alphatype>straight</alphatype>
                    <pixelaspectratio>square</pixelaspectratio>
                    <anamorphic>FALSE</anamorphic>
                    <file id="file-64">
                      <name>Antonio.062.png</name>
                      <pathurl>file://localhost/Users/antoniochiappetta/OneDrive - Aalto University/University/Aalto/Hackatons/Junction/Junction2019-IoK-security_awareness_kids/Assets/Team Animations/Image Sequences/Antonio/Antonio.062.png</pathurl>
                      <rate>
                        <timebase>24</timebase>
                        <ntsc>FALSE</ntsc>
                      </rate>
                      <duration>162</duration>
                      <timecode>
                        <rate>
                          <timebase>24</timebase>
                          <ntsc>FALSE</ntsc>
                        </rate>
                      </timecode>
                      <media>
                        <video>
                          <duration>1</duration>
                          <samplecharacteristics>
                            <anamorphic>FALSE</anamorphic>
                            <pixelaspectratio>square</pixelaspectratio>
                            <fielddominance>none</fielddominance>
                            <width>686</width>
                            <height>511</height>
                          </samplecharacteristics>
                        </video>
                      </media>
                    </file>
                  </clipitem>
                </track>
              </video>
            </media>
          </clip>
          <clip explodedTracks="true" frameBlend="FALSE" id="masterclip-65">
            <uuid>18126bde-79bb-47cb-abcb-06fa6b9a4a99</uuid>
            <masterclipid>masterclip-65</masterclipid>
            <ismasterclip>TRUE</ismasterclip>
            <duration>162</duration>
            <in>0</in>
            <out>162</out>
            <name>Antonio.063.png</name>
            <rate>
              <timebase>24</timebase>
              <ntsc>FALSE</ntsc>
            </rate>
            <media>
              <video>
                <track>
                  <clipitem frameBlend="FALSE" id="clipitem-66">
                    <name>Antonio.063.png</name>
                    <masterclipid>masterclip-65</masterclipid>
                    <rate>
                      <timebase>24</timebase>
                      <ntsc>FALSE</ntsc>
                    </rate>
                    <alphatype>straight</alphatype>
                    <pixelaspectratio>square</pixelaspectratio>
                    <anamorphic>FALSE</anamorphic>
                    <file id="file-65">
                      <name>Antonio.063.png</name>
                      <pathurl>file://localhost/Users/antoniochiappetta/OneDrive - Aalto University/University/Aalto/Hackatons/Junction/Junction2019-IoK-security_awareness_kids/Assets/Team Animations/Image Sequences/Antonio/Antonio.063.png</pathurl>
                      <rate>
                        <timebase>24</timebase>
                        <ntsc>FALSE</ntsc>
                      </rate>
                      <duration>162</duration>
                      <timecode>
                        <rate>
                          <timebase>24</timebase>
                          <ntsc>FALSE</ntsc>
                        </rate>
                      </timecode>
                      <media>
                        <video>
                          <duration>1</duration>
                          <samplecharacteristics>
                            <anamorphic>FALSE</anamorphic>
                            <pixelaspectratio>square</pixelaspectratio>
                            <fielddominance>none</fielddominance>
                            <width>686</width>
                            <height>511</height>
                          </samplecharacteristics>
                        </video>
                      </media>
                    </file>
                  </clipitem>
                </track>
              </video>
            </media>
          </clip>
          <clip explodedTracks="true" frameBlend="FALSE" id="masterclip-66">
            <uuid>6c6f90c9-32d9-4798-8b75-d1afb007499a</uuid>
            <masterclipid>masterclip-66</masterclipid>
            <ismasterclip>TRUE</ismasterclip>
            <duration>162</duration>
            <in>0</in>
            <out>162</out>
            <name>Antonio.064.png</name>
            <rate>
              <timebase>24</timebase>
              <ntsc>FALSE</ntsc>
            </rate>
            <media>
              <video>
                <track>
                  <clipitem frameBlend="FALSE" id="clipitem-67">
                    <name>Antonio.064.png</name>
                    <masterclipid>masterclip-66</masterclipid>
                    <rate>
                      <timebase>24</timebase>
                      <ntsc>FALSE</ntsc>
                    </rate>
                    <alphatype>straight</alphatype>
                    <pixelaspectratio>square</pixelaspectratio>
                    <anamorphic>FALSE</anamorphic>
                    <file id="file-66">
                      <name>Antonio.064.png</name>
                      <pathurl>file://localhost/Users/antoniochiappetta/OneDrive - Aalto University/University/Aalto/Hackatons/Junction/Junction2019-IoK-security_awareness_kids/Assets/Team Animations/Image Sequences/Antonio/Antonio.064.png</pathurl>
                      <rate>
                        <timebase>24</timebase>
                        <ntsc>FALSE</ntsc>
                      </rate>
                      <duration>162</duration>
                      <timecode>
                        <rate>
                          <timebase>24</timebase>
                          <ntsc>FALSE</ntsc>
                        </rate>
                      </timecode>
                      <media>
                        <video>
                          <duration>1</duration>
                          <samplecharacteristics>
                            <anamorphic>FALSE</anamorphic>
                            <pixelaspectratio>square</pixelaspectratio>
                            <fielddominance>none</fielddominance>
                            <width>686</width>
                            <height>511</height>
                          </samplecharacteristics>
                        </video>
                      </media>
                    </file>
                  </clipitem>
                </track>
              </video>
            </media>
          </clip>
          <clip explodedTracks="true" frameBlend="FALSE" id="masterclip-67">
            <uuid>b1400ce0-69b7-498d-9e9f-92d14e694c98</uuid>
            <masterclipid>masterclip-67</masterclipid>
            <ismasterclip>TRUE</ismasterclip>
            <duration>162</duration>
            <in>0</in>
            <out>162</out>
            <name>Antonio.065.png</name>
            <rate>
              <timebase>24</timebase>
              <ntsc>FALSE</ntsc>
            </rate>
            <media>
              <video>
                <track>
                  <clipitem frameBlend="FALSE" id="clipitem-68">
                    <name>Antonio.065.png</name>
                    <masterclipid>masterclip-67</masterclipid>
                    <rate>
                      <timebase>24</timebase>
                      <ntsc>FALSE</ntsc>
                    </rate>
                    <alphatype>straight</alphatype>
                    <pixelaspectratio>square</pixelaspectratio>
                    <anamorphic>FALSE</anamorphic>
                    <file id="file-67">
                      <name>Antonio.065.png</name>
                      <pathurl>file://localhost/Users/antoniochiappetta/OneDrive - Aalto University/University/Aalto/Hackatons/Junction/Junction2019-IoK-security_awareness_kids/Assets/Team Animations/Image Sequences/Antonio/Antonio.065.png</pathurl>
                      <rate>
                        <timebase>24</timebase>
                        <ntsc>FALSE</ntsc>
                      </rate>
                      <duration>162</duration>
                      <timecode>
                        <rate>
                          <timebase>24</timebase>
                          <ntsc>FALSE</ntsc>
                        </rate>
                      </timecode>
                      <media>
                        <video>
                          <duration>1</duration>
                          <samplecharacteristics>
                            <anamorphic>FALSE</anamorphic>
                            <pixelaspectratio>square</pixelaspectratio>
                            <fielddominance>none</fielddominance>
                            <width>686</width>
                            <height>511</height>
                          </samplecharacteristics>
                        </video>
                      </media>
                    </file>
                  </clipitem>
                </track>
              </video>
            </media>
          </clip>
          <clip explodedTracks="true" frameBlend="FALSE" id="masterclip-68">
            <uuid>5db892a2-3aee-4ff6-8f46-cf8fa034da05</uuid>
            <masterclipid>masterclip-68</masterclipid>
            <ismasterclip>TRUE</ismasterclip>
            <duration>162</duration>
            <in>0</in>
            <out>162</out>
            <name>Antonio.066.png</name>
            <rate>
              <timebase>24</timebase>
              <ntsc>FALSE</ntsc>
            </rate>
            <media>
              <video>
                <track>
                  <clipitem frameBlend="FALSE" id="clipitem-69">
                    <name>Antonio.066.png</name>
                    <masterclipid>masterclip-68</masterclipid>
                    <rate>
                      <timebase>24</timebase>
                      <ntsc>FALSE</ntsc>
                    </rate>
                    <alphatype>straight</alphatype>
                    <pixelaspectratio>square</pixelaspectratio>
                    <anamorphic>FALSE</anamorphic>
                    <file id="file-68">
                      <name>Antonio.066.png</name>
                      <pathurl>file://localhost/Users/antoniochiappetta/OneDrive - Aalto University/University/Aalto/Hackatons/Junction/Junction2019-IoK-security_awareness_kids/Assets/Team Animations/Image Sequences/Antonio/Antonio.066.png</pathurl>
                      <rate>
                        <timebase>24</timebase>
                        <ntsc>FALSE</ntsc>
                      </rate>
                      <duration>162</duration>
                      <timecode>
                        <rate>
                          <timebase>24</timebase>
                          <ntsc>FALSE</ntsc>
                        </rate>
                      </timecode>
                      <media>
                        <video>
                          <duration>1</duration>
                          <samplecharacteristics>
                            <anamorphic>FALSE</anamorphic>
                            <pixelaspectratio>square</pixelaspectratio>
                            <fielddominance>none</fielddominance>
                            <width>686</width>
                            <height>511</height>
                          </samplecharacteristics>
                        </video>
                      </media>
                    </file>
                  </clipitem>
                </track>
              </video>
            </media>
          </clip>
          <clip explodedTracks="true" frameBlend="FALSE" id="masterclip-69">
            <uuid>0f0ef24c-25a1-4932-b9dd-6d9fb9deaf9e</uuid>
            <masterclipid>masterclip-69</masterclipid>
            <ismasterclip>TRUE</ismasterclip>
            <duration>162</duration>
            <in>0</in>
            <out>162</out>
            <name>Antonio.067.png</name>
            <rate>
              <timebase>24</timebase>
              <ntsc>FALSE</ntsc>
            </rate>
            <media>
              <video>
                <track>
                  <clipitem frameBlend="FALSE" id="clipitem-70">
                    <name>Antonio.067.png</name>
                    <masterclipid>masterclip-69</masterclipid>
                    <rate>
                      <timebase>24</timebase>
                      <ntsc>FALSE</ntsc>
                    </rate>
                    <alphatype>straight</alphatype>
                    <pixelaspectratio>square</pixelaspectratio>
                    <anamorphic>FALSE</anamorphic>
                    <file id="file-69">
                      <name>Antonio.067.png</name>
                      <pathurl>file://localhost/Users/antoniochiappetta/OneDrive - Aalto University/University/Aalto/Hackatons/Junction/Junction2019-IoK-security_awareness_kids/Assets/Team Animations/Image Sequences/Antonio/Antonio.067.png</pathurl>
                      <rate>
                        <timebase>24</timebase>
                        <ntsc>FALSE</ntsc>
                      </rate>
                      <duration>162</duration>
                      <timecode>
                        <rate>
                          <timebase>24</timebase>
                          <ntsc>FALSE</ntsc>
                        </rate>
                      </timecode>
                      <media>
                        <video>
                          <duration>1</duration>
                          <samplecharacteristics>
                            <anamorphic>FALSE</anamorphic>
                            <pixelaspectratio>square</pixelaspectratio>
                            <fielddominance>none</fielddominance>
                            <width>686</width>
                            <height>511</height>
                          </samplecharacteristics>
                        </video>
                      </media>
                    </file>
                  </clipitem>
                </track>
              </video>
            </media>
          </clip>
          <clip explodedTracks="true" frameBlend="FALSE" id="masterclip-70">
            <uuid>44560af8-094c-45cd-a41e-48f30f3f4da4</uuid>
            <masterclipid>masterclip-70</masterclipid>
            <ismasterclip>TRUE</ismasterclip>
            <duration>162</duration>
            <in>0</in>
            <out>162</out>
            <name>Antonio.068.png</name>
            <rate>
              <timebase>24</timebase>
              <ntsc>FALSE</ntsc>
            </rate>
            <media>
              <video>
                <track>
                  <clipitem frameBlend="FALSE" id="clipitem-71">
                    <name>Antonio.068.png</name>
                    <masterclipid>masterclip-70</masterclipid>
                    <rate>
                      <timebase>24</timebase>
                      <ntsc>FALSE</ntsc>
                    </rate>
                    <alphatype>straight</alphatype>
                    <pixelaspectratio>square</pixelaspectratio>
                    <anamorphic>FALSE</anamorphic>
                    <file id="file-70">
                      <name>Antonio.068.png</name>
                      <pathurl>file://localhost/Users/antoniochiappetta/OneDrive - Aalto University/University/Aalto/Hackatons/Junction/Junction2019-IoK-security_awareness_kids/Assets/Team Animations/Image Sequences/Antonio/Antonio.068.png</pathurl>
                      <rate>
                        <timebase>24</timebase>
                        <ntsc>FALSE</ntsc>
                      </rate>
                      <duration>162</duration>
                      <timecode>
                        <rate>
                          <timebase>24</timebase>
                          <ntsc>FALSE</ntsc>
                        </rate>
                      </timecode>
                      <media>
                        <video>
                          <duration>1</duration>
                          <samplecharacteristics>
                            <anamorphic>FALSE</anamorphic>
                            <pixelaspectratio>square</pixelaspectratio>
                            <fielddominance>none</fielddominance>
                            <width>686</width>
                            <height>511</height>
                          </samplecharacteristics>
                        </video>
                      </media>
                    </file>
                  </clipitem>
                </track>
              </video>
            </media>
          </clip>
          <clip explodedTracks="true" frameBlend="FALSE" id="masterclip-71">
            <uuid>cc1269c7-5835-4c96-a49a-81668c77d207</uuid>
            <masterclipid>masterclip-71</masterclipid>
            <ismasterclip>TRUE</ismasterclip>
            <duration>162</duration>
            <in>0</in>
            <out>162</out>
            <name>Antonio.069.png</name>
            <rate>
              <timebase>24</timebase>
              <ntsc>FALSE</ntsc>
            </rate>
            <media>
              <video>
                <track>
                  <clipitem frameBlend="FALSE" id="clipitem-72">
                    <name>Antonio.069.png</name>
                    <masterclipid>masterclip-71</masterclipid>
                    <rate>
                      <timebase>24</timebase>
                      <ntsc>FALSE</ntsc>
                    </rate>
                    <alphatype>straight</alphatype>
                    <pixelaspectratio>square</pixelaspectratio>
                    <anamorphic>FALSE</anamorphic>
                    <file id="file-71">
                      <name>Antonio.069.png</name>
                      <pathurl>file://localhost/Users/antoniochiappetta/OneDrive - Aalto University/University/Aalto/Hackatons/Junction/Junction2019-IoK-security_awareness_kids/Assets/Team Animations/Image Sequences/Antonio/Antonio.069.png</pathurl>
                      <rate>
                        <timebase>24</timebase>
                        <ntsc>FALSE</ntsc>
                      </rate>
                      <duration>162</duration>
                      <timecode>
                        <rate>
                          <timebase>24</timebase>
                          <ntsc>FALSE</ntsc>
                        </rate>
                      </timecode>
                      <media>
                        <video>
                          <duration>1</duration>
                          <samplecharacteristics>
                            <anamorphic>FALSE</anamorphic>
                            <pixelaspectratio>square</pixelaspectratio>
                            <fielddominance>none</fielddominance>
                            <width>686</width>
                            <height>511</height>
                          </samplecharacteristics>
                        </video>
                      </media>
                    </file>
                  </clipitem>
                </track>
              </video>
            </media>
          </clip>
          <clip explodedTracks="true" frameBlend="FALSE" id="masterclip-72">
            <uuid>cf9e5ff1-23f5-44f4-9a40-c2646839984a</uuid>
            <masterclipid>masterclip-72</masterclipid>
            <ismasterclip>TRUE</ismasterclip>
            <duration>162</duration>
            <in>0</in>
            <out>162</out>
            <name>Antonio.070.png</name>
            <rate>
              <timebase>24</timebase>
              <ntsc>FALSE</ntsc>
            </rate>
            <media>
              <video>
                <track>
                  <clipitem frameBlend="FALSE" id="clipitem-73">
                    <name>Antonio.070.png</name>
                    <masterclipid>masterclip-72</masterclipid>
                    <rate>
                      <timebase>24</timebase>
                      <ntsc>FALSE</ntsc>
                    </rate>
                    <alphatype>straight</alphatype>
                    <pixelaspectratio>square</pixelaspectratio>
                    <anamorphic>FALSE</anamorphic>
                    <file id="file-72">
                      <name>Antonio.070.png</name>
                      <pathurl>file://localhost/Users/antoniochiappetta/OneDrive - Aalto University/University/Aalto/Hackatons/Junction/Junction2019-IoK-security_awareness_kids/Assets/Team Animations/Image Sequences/Antonio/Antonio.070.png</pathurl>
                      <rate>
                        <timebase>24</timebase>
                        <ntsc>FALSE</ntsc>
                      </rate>
                      <duration>162</duration>
                      <timecode>
                        <rate>
                          <timebase>24</timebase>
                          <ntsc>FALSE</ntsc>
                        </rate>
                      </timecode>
                      <media>
                        <video>
                          <duration>1</duration>
                          <samplecharacteristics>
                            <anamorphic>FALSE</anamorphic>
                            <pixelaspectratio>square</pixelaspectratio>
                            <fielddominance>none</fielddominance>
                            <width>686</width>
                            <height>511</height>
                          </samplecharacteristics>
                        </video>
                      </media>
                    </file>
                  </clipitem>
                </track>
              </video>
            </media>
          </clip>
          <clip explodedTracks="true" frameBlend="FALSE" id="masterclip-73">
            <uuid>0b297a75-25cb-40df-9df6-6431ec818c12</uuid>
            <masterclipid>masterclip-73</masterclipid>
            <ismasterclip>TRUE</ismasterclip>
            <duration>162</duration>
            <in>0</in>
            <out>162</out>
            <name>Antonio.071.png</name>
            <rate>
              <timebase>24</timebase>
              <ntsc>FALSE</ntsc>
            </rate>
            <media>
              <video>
                <track>
                  <clipitem frameBlend="FALSE" id="clipitem-74">
                    <name>Antonio.071.png</name>
                    <masterclipid>masterclip-73</masterclipid>
                    <rate>
                      <timebase>24</timebase>
                      <ntsc>FALSE</ntsc>
                    </rate>
                    <alphatype>straight</alphatype>
                    <pixelaspectratio>square</pixelaspectratio>
                    <anamorphic>FALSE</anamorphic>
                    <file id="file-73">
                      <name>Antonio.071.png</name>
                      <pathurl>file://localhost/Users/antoniochiappetta/OneDrive - Aalto University/University/Aalto/Hackatons/Junction/Junction2019-IoK-security_awareness_kids/Assets/Team Animations/Image Sequences/Antonio/Antonio.071.png</pathurl>
                      <rate>
                        <timebase>24</timebase>
                        <ntsc>FALSE</ntsc>
                      </rate>
                      <duration>162</duration>
                      <timecode>
                        <rate>
                          <timebase>24</timebase>
                          <ntsc>FALSE</ntsc>
                        </rate>
                      </timecode>
                      <media>
                        <video>
                          <duration>1</duration>
                          <samplecharacteristics>
                            <anamorphic>FALSE</anamorphic>
                            <pixelaspectratio>square</pixelaspectratio>
                            <fielddominance>none</fielddominance>
                            <width>686</width>
                            <height>511</height>
                          </samplecharacteristics>
                        </video>
                      </media>
                    </file>
                  </clipitem>
                </track>
              </video>
            </media>
          </clip>
          <clip explodedTracks="true" frameBlend="FALSE" id="masterclip-74">
            <uuid>73eabf31-7535-4391-9b9a-99d40cb9ed5d</uuid>
            <masterclipid>masterclip-74</masterclipid>
            <ismasterclip>TRUE</ismasterclip>
            <duration>162</duration>
            <in>0</in>
            <out>162</out>
            <name>Antonio.072.png</name>
            <rate>
              <timebase>24</timebase>
              <ntsc>FALSE</ntsc>
            </rate>
            <media>
              <video>
                <track>
                  <clipitem frameBlend="FALSE" id="clipitem-75">
                    <name>Antonio.072.png</name>
                    <masterclipid>masterclip-74</masterclipid>
                    <rate>
                      <timebase>24</timebase>
                      <ntsc>FALSE</ntsc>
                    </rate>
                    <alphatype>straight</alphatype>
                    <pixelaspectratio>square</pixelaspectratio>
                    <anamorphic>FALSE</anamorphic>
                    <file id="file-74">
                      <name>Antonio.072.png</name>
                      <pathurl>file://localhost/Users/antoniochiappetta/OneDrive - Aalto University/University/Aalto/Hackatons/Junction/Junction2019-IoK-security_awareness_kids/Assets/Team Animations/Image Sequences/Antonio/Antonio.072.png</pathurl>
                      <rate>
                        <timebase>24</timebase>
                        <ntsc>FALSE</ntsc>
                      </rate>
                      <duration>162</duration>
                      <timecode>
                        <rate>
                          <timebase>24</timebase>
                          <ntsc>FALSE</ntsc>
                        </rate>
                      </timecode>
                      <media>
                        <video>
                          <duration>1</duration>
                          <samplecharacteristics>
                            <anamorphic>FALSE</anamorphic>
                            <pixelaspectratio>square</pixelaspectratio>
                            <fielddominance>none</fielddominance>
                            <width>686</width>
                            <height>511</height>
                          </samplecharacteristics>
                        </video>
                      </media>
                    </file>
                  </clipitem>
                </track>
              </video>
            </media>
          </clip>
          <clip explodedTracks="true" frameBlend="FALSE" id="masterclip-75">
            <uuid>e817db3a-051f-4863-8cdb-fc0653ef94ed</uuid>
            <masterclipid>masterclip-75</masterclipid>
            <ismasterclip>TRUE</ismasterclip>
            <duration>162</duration>
            <in>0</in>
            <out>162</out>
            <name>Antonio.073.png</name>
            <rate>
              <timebase>24</timebase>
              <ntsc>FALSE</ntsc>
            </rate>
            <media>
              <video>
                <track>
                  <clipitem frameBlend="FALSE" id="clipitem-76">
                    <name>Antonio.073.png</name>
                    <masterclipid>masterclip-75</masterclipid>
                    <rate>
                      <timebase>24</timebase>
                      <ntsc>FALSE</ntsc>
                    </rate>
                    <alphatype>straight</alphatype>
                    <pixelaspectratio>square</pixelaspectratio>
                    <anamorphic>FALSE</anamorphic>
                    <file id="file-75">
                      <name>Antonio.073.png</name>
                      <pathurl>file://localhost/Users/antoniochiappetta/OneDrive - Aalto University/University/Aalto/Hackatons/Junction/Junction2019-IoK-security_awareness_kids/Assets/Team Animations/Image Sequences/Antonio/Antonio.073.png</pathurl>
                      <rate>
                        <timebase>24</timebase>
                        <ntsc>FALSE</ntsc>
                      </rate>
                      <duration>162</duration>
                      <timecode>
                        <rate>
                          <timebase>24</timebase>
                          <ntsc>FALSE</ntsc>
                        </rate>
                      </timecode>
                      <media>
                        <video>
                          <duration>1</duration>
                          <samplecharacteristics>
                            <anamorphic>FALSE</anamorphic>
                            <pixelaspectratio>square</pixelaspectratio>
                            <fielddominance>none</fielddominance>
                            <width>686</width>
                            <height>511</height>
                          </samplecharacteristics>
                        </video>
                      </media>
                    </file>
                  </clipitem>
                </track>
              </video>
            </media>
          </clip>
          <clip explodedTracks="true" frameBlend="FALSE" id="masterclip-76">
            <uuid>955182dd-9aef-43e1-a1a2-fc024c34bb63</uuid>
            <masterclipid>masterclip-76</masterclipid>
            <ismasterclip>TRUE</ismasterclip>
            <duration>162</duration>
            <in>0</in>
            <out>162</out>
            <name>Antonio.074.png</name>
            <rate>
              <timebase>24</timebase>
              <ntsc>FALSE</ntsc>
            </rate>
            <media>
              <video>
                <track>
                  <clipitem frameBlend="FALSE" id="clipitem-77">
                    <name>Antonio.074.png</name>
                    <masterclipid>masterclip-76</masterclipid>
                    <rate>
                      <timebase>24</timebase>
                      <ntsc>FALSE</ntsc>
                    </rate>
                    <alphatype>straight</alphatype>
                    <pixelaspectratio>square</pixelaspectratio>
                    <anamorphic>FALSE</anamorphic>
                    <file id="file-76">
                      <name>Antonio.074.png</name>
                      <pathurl>file://localhost/Users/antoniochiappetta/OneDrive - Aalto University/University/Aalto/Hackatons/Junction/Junction2019-IoK-security_awareness_kids/Assets/Team Animations/Image Sequences/Antonio/Antonio.074.png</pathurl>
                      <rate>
                        <timebase>24</timebase>
                        <ntsc>FALSE</ntsc>
                      </rate>
                      <duration>162</duration>
                      <timecode>
                        <rate>
                          <timebase>24</timebase>
                          <ntsc>FALSE</ntsc>
                        </rate>
                      </timecode>
                      <media>
                        <video>
                          <duration>1</duration>
                          <samplecharacteristics>
                            <anamorphic>FALSE</anamorphic>
                            <pixelaspectratio>square</pixelaspectratio>
                            <fielddominance>none</fielddominance>
                            <width>686</width>
                            <height>511</height>
                          </samplecharacteristics>
                        </video>
                      </media>
                    </file>
                  </clipitem>
                </track>
              </video>
            </media>
          </clip>
          <clip explodedTracks="true" frameBlend="FALSE" id="masterclip-77">
            <uuid>23199da5-fda2-464b-b75c-eca9e35c7018</uuid>
            <masterclipid>masterclip-77</masterclipid>
            <ismasterclip>TRUE</ismasterclip>
            <duration>162</duration>
            <in>0</in>
            <out>162</out>
            <name>Antonio.075.png</name>
            <rate>
              <timebase>24</timebase>
              <ntsc>FALSE</ntsc>
            </rate>
            <media>
              <video>
                <track>
                  <clipitem frameBlend="FALSE" id="clipitem-78">
                    <name>Antonio.075.png</name>
                    <masterclipid>masterclip-77</masterclipid>
                    <rate>
                      <timebase>24</timebase>
                      <ntsc>FALSE</ntsc>
                    </rate>
                    <alphatype>straight</alphatype>
                    <pixelaspectratio>square</pixelaspectratio>
                    <anamorphic>FALSE</anamorphic>
                    <file id="file-77">
                      <name>Antonio.075.png</name>
                      <pathurl>file://localhost/Users/antoniochiappetta/OneDrive - Aalto University/University/Aalto/Hackatons/Junction/Junction2019-IoK-security_awareness_kids/Assets/Team Animations/Image Sequences/Antonio/Antonio.075.png</pathurl>
                      <rate>
                        <timebase>24</timebase>
                        <ntsc>FALSE</ntsc>
                      </rate>
                      <duration>162</duration>
                      <timecode>
                        <rate>
                          <timebase>24</timebase>
                          <ntsc>FALSE</ntsc>
                        </rate>
                      </timecode>
                      <media>
                        <video>
                          <duration>1</duration>
                          <samplecharacteristics>
                            <anamorphic>FALSE</anamorphic>
                            <pixelaspectratio>square</pixelaspectratio>
                            <fielddominance>none</fielddominance>
                            <width>686</width>
                            <height>511</height>
                          </samplecharacteristics>
                        </video>
                      </media>
                    </file>
                  </clipitem>
                </track>
              </video>
            </media>
          </clip>
          <clip explodedTracks="true" frameBlend="FALSE" id="masterclip-78">
            <uuid>24139ef4-df5f-47aa-b9a1-fb61c70ba44e</uuid>
            <masterclipid>masterclip-78</masterclipid>
            <ismasterclip>TRUE</ismasterclip>
            <duration>162</duration>
            <in>0</in>
            <out>162</out>
            <name>Antonio.076.png</name>
            <rate>
              <timebase>24</timebase>
              <ntsc>FALSE</ntsc>
            </rate>
            <media>
              <video>
                <track>
                  <clipitem frameBlend="FALSE" id="clipitem-79">
                    <name>Antonio.076.png</name>
                    <masterclipid>masterclip-78</masterclipid>
                    <rate>
                      <timebase>24</timebase>
                      <ntsc>FALSE</ntsc>
                    </rate>
                    <alphatype>straight</alphatype>
                    <pixelaspectratio>square</pixelaspectratio>
                    <anamorphic>FALSE</anamorphic>
                    <file id="file-78">
                      <name>Antonio.076.png</name>
                      <pathurl>file://localhost/Users/antoniochiappetta/OneDrive - Aalto University/University/Aalto/Hackatons/Junction/Junction2019-IoK-security_awareness_kids/Assets/Team Animations/Image Sequences/Antonio/Antonio.076.png</pathurl>
                      <rate>
                        <timebase>24</timebase>
                        <ntsc>FALSE</ntsc>
                      </rate>
                      <duration>162</duration>
                      <timecode>
                        <rate>
                          <timebase>24</timebase>
                          <ntsc>FALSE</ntsc>
                        </rate>
                      </timecode>
                      <media>
                        <video>
                          <duration>1</duration>
                          <samplecharacteristics>
                            <anamorphic>FALSE</anamorphic>
                            <pixelaspectratio>square</pixelaspectratio>
                            <fielddominance>none</fielddominance>
                            <width>686</width>
                            <height>511</height>
                          </samplecharacteristics>
                        </video>
                      </media>
                    </file>
                  </clipitem>
                </track>
              </video>
            </media>
          </clip>
          <clip explodedTracks="true" frameBlend="FALSE" id="masterclip-79">
            <uuid>bac4feb9-b2ba-44d3-b094-f6647e0e2d4f</uuid>
            <masterclipid>masterclip-79</masterclipid>
            <ismasterclip>TRUE</ismasterclip>
            <duration>162</duration>
            <in>0</in>
            <out>162</out>
            <name>Antonio.077.png</name>
            <rate>
              <timebase>24</timebase>
              <ntsc>FALSE</ntsc>
            </rate>
            <media>
              <video>
                <track>
                  <clipitem frameBlend="FALSE" id="clipitem-80">
                    <name>Antonio.077.png</name>
                    <masterclipid>masterclip-79</masterclipid>
                    <rate>
                      <timebase>24</timebase>
                      <ntsc>FALSE</ntsc>
                    </rate>
                    <alphatype>straight</alphatype>
                    <pixelaspectratio>square</pixelaspectratio>
                    <anamorphic>FALSE</anamorphic>
                    <file id="file-79">
                      <name>Antonio.077.png</name>
                      <pathurl>file://localhost/Users/antoniochiappetta/OneDrive - Aalto University/University/Aalto/Hackatons/Junction/Junction2019-IoK-security_awareness_kids/Assets/Team Animations/Image Sequences/Antonio/Antonio.077.png</pathurl>
                      <rate>
                        <timebase>24</timebase>
                        <ntsc>FALSE</ntsc>
                      </rate>
                      <duration>162</duration>
                      <timecode>
                        <rate>
                          <timebase>24</timebase>
                          <ntsc>FALSE</ntsc>
                        </rate>
                      </timecode>
                      <media>
                        <video>
                          <duration>1</duration>
                          <samplecharacteristics>
                            <anamorphic>FALSE</anamorphic>
                            <pixelaspectratio>square</pixelaspectratio>
                            <fielddominance>none</fielddominance>
                            <width>686</width>
                            <height>511</height>
                          </samplecharacteristics>
                        </video>
                      </media>
                    </file>
                  </clipitem>
                </track>
              </video>
            </media>
          </clip>
          <clip explodedTracks="true" frameBlend="FALSE" id="masterclip-80">
            <uuid>9a3d7fa2-a92e-4ab3-9488-6e7495d8de8b</uuid>
            <masterclipid>masterclip-80</masterclipid>
            <ismasterclip>TRUE</ismasterclip>
            <duration>162</duration>
            <in>0</in>
            <out>162</out>
            <name>Antonio.078.png</name>
            <rate>
              <timebase>24</timebase>
              <ntsc>FALSE</ntsc>
            </rate>
            <media>
              <video>
                <track>
                  <clipitem frameBlend="FALSE" id="clipitem-81">
                    <name>Antonio.078.png</name>
                    <masterclipid>masterclip-80</masterclipid>
                    <rate>
                      <timebase>24</timebase>
                      <ntsc>FALSE</ntsc>
                    </rate>
                    <alphatype>straight</alphatype>
                    <pixelaspectratio>square</pixelaspectratio>
                    <anamorphic>FALSE</anamorphic>
                    <file id="file-80">
                      <name>Antonio.078.png</name>
                      <pathurl>file://localhost/Users/antoniochiappetta/OneDrive - Aalto University/University/Aalto/Hackatons/Junction/Junction2019-IoK-security_awareness_kids/Assets/Team Animations/Image Sequences/Antonio/Antonio.078.png</pathurl>
                      <rate>
                        <timebase>24</timebase>
                        <ntsc>FALSE</ntsc>
                      </rate>
                      <duration>162</duration>
                      <timecode>
                        <rate>
                          <timebase>24</timebase>
                          <ntsc>FALSE</ntsc>
                        </rate>
                      </timecode>
                      <media>
                        <video>
                          <duration>1</duration>
                          <samplecharacteristics>
                            <anamorphic>FALSE</anamorphic>
                            <pixelaspectratio>square</pixelaspectratio>
                            <fielddominance>none</fielddominance>
                            <width>686</width>
                            <height>511</height>
                          </samplecharacteristics>
                        </video>
                      </media>
                    </file>
                  </clipitem>
                </track>
              </video>
            </media>
          </clip>
          <clip explodedTracks="true" frameBlend="FALSE" id="masterclip-81">
            <uuid>7dc8cf55-0eb5-4737-a333-df7cd6cce3f9</uuid>
            <masterclipid>masterclip-81</masterclipid>
            <ismasterclip>TRUE</ismasterclip>
            <duration>162</duration>
            <in>0</in>
            <out>162</out>
            <name>Antonio.079.png</name>
            <rate>
              <timebase>24</timebase>
              <ntsc>FALSE</ntsc>
            </rate>
            <media>
              <video>
                <track>
                  <clipitem frameBlend="FALSE" id="clipitem-82">
                    <name>Antonio.079.png</name>
                    <masterclipid>masterclip-81</masterclipid>
                    <rate>
                      <timebase>24</timebase>
                      <ntsc>FALSE</ntsc>
                    </rate>
                    <alphatype>straight</alphatype>
                    <pixelaspectratio>square</pixelaspectratio>
                    <anamorphic>FALSE</anamorphic>
                    <file id="file-81">
                      <name>Antonio.079.png</name>
                      <pathurl>file://localhost/Users/antoniochiappetta/OneDrive - Aalto University/University/Aalto/Hackatons/Junction/Junction2019-IoK-security_awareness_kids/Assets/Team Animations/Image Sequences/Antonio/Antonio.079.png</pathurl>
                      <rate>
                        <timebase>24</timebase>
                        <ntsc>FALSE</ntsc>
                      </rate>
                      <duration>162</duration>
                      <timecode>
                        <rate>
                          <timebase>24</timebase>
                          <ntsc>FALSE</ntsc>
                        </rate>
                      </timecode>
                      <media>
                        <video>
                          <duration>1</duration>
                          <samplecharacteristics>
                            <anamorphic>FALSE</anamorphic>
                            <pixelaspectratio>square</pixelaspectratio>
                            <fielddominance>none</fielddominance>
                            <width>686</width>
                            <height>511</height>
                          </samplecharacteristics>
                        </video>
                      </media>
                    </file>
                  </clipitem>
                </track>
              </video>
            </media>
          </clip>
          <clip explodedTracks="true" frameBlend="FALSE" id="masterclip-82">
            <uuid>e0e4505d-b5ec-4c6d-9efd-1aab42a31947</uuid>
            <masterclipid>masterclip-82</masterclipid>
            <ismasterclip>TRUE</ismasterclip>
            <duration>162</duration>
            <in>0</in>
            <out>162</out>
            <name>Antonio.080.png</name>
            <rate>
              <timebase>24</timebase>
              <ntsc>FALSE</ntsc>
            </rate>
            <media>
              <video>
                <track>
                  <clipitem frameBlend="FALSE" id="clipitem-83">
                    <name>Antonio.080.png</name>
                    <masterclipid>masterclip-82</masterclipid>
                    <rate>
                      <timebase>24</timebase>
                      <ntsc>FALSE</ntsc>
                    </rate>
                    <alphatype>straight</alphatype>
                    <pixelaspectratio>square</pixelaspectratio>
                    <anamorphic>FALSE</anamorphic>
                    <file id="file-82">
                      <name>Antonio.080.png</name>
                      <pathurl>file://localhost/Users/antoniochiappetta/OneDrive - Aalto University/University/Aalto/Hackatons/Junction/Junction2019-IoK-security_awareness_kids/Assets/Team Animations/Image Sequences/Antonio/Antonio.080.png</pathurl>
                      <rate>
                        <timebase>24</timebase>
                        <ntsc>FALSE</ntsc>
                      </rate>
                      <duration>162</duration>
                      <timecode>
                        <rate>
                          <timebase>24</timebase>
                          <ntsc>FALSE</ntsc>
                        </rate>
                      </timecode>
                      <media>
                        <video>
                          <duration>1</duration>
                          <samplecharacteristics>
                            <anamorphic>FALSE</anamorphic>
                            <pixelaspectratio>square</pixelaspectratio>
                            <fielddominance>none</fielddominance>
                            <width>686</width>
                            <height>511</height>
                          </samplecharacteristics>
                        </video>
                      </media>
                    </file>
                  </clipitem>
                </track>
              </video>
            </media>
          </clip>
          <clip explodedTracks="true" frameBlend="FALSE" id="masterclip-83">
            <uuid>eab00fc0-fb2a-46d1-ae96-093f73d22700</uuid>
            <masterclipid>masterclip-83</masterclipid>
            <ismasterclip>TRUE</ismasterclip>
            <duration>162</duration>
            <in>0</in>
            <out>162</out>
            <name>Antonio.081.png</name>
            <rate>
              <timebase>24</timebase>
              <ntsc>FALSE</ntsc>
            </rate>
            <media>
              <video>
                <track>
                  <clipitem frameBlend="FALSE" id="clipitem-84">
                    <name>Antonio.081.png</name>
                    <masterclipid>masterclip-83</masterclipid>
                    <rate>
                      <timebase>24</timebase>
                      <ntsc>FALSE</ntsc>
                    </rate>
                    <alphatype>straight</alphatype>
                    <pixelaspectratio>square</pixelaspectratio>
                    <anamorphic>FALSE</anamorphic>
                    <file id="file-83">
                      <name>Antonio.081.png</name>
                      <pathurl>file://localhost/Users/antoniochiappetta/OneDrive - Aalto University/University/Aalto/Hackatons/Junction/Junction2019-IoK-security_awareness_kids/Assets/Team Animations/Image Sequences/Antonio/Antonio.081.png</pathurl>
                      <rate>
                        <timebase>24</timebase>
                        <ntsc>FALSE</ntsc>
                      </rate>
                      <duration>162</duration>
                      <timecode>
                        <rate>
                          <timebase>24</timebase>
                          <ntsc>FALSE</ntsc>
                        </rate>
                      </timecode>
                      <media>
                        <video>
                          <duration>1</duration>
                          <samplecharacteristics>
                            <anamorphic>FALSE</anamorphic>
                            <pixelaspectratio>square</pixelaspectratio>
                            <fielddominance>none</fielddominance>
                            <width>686</width>
                            <height>511</height>
                          </samplecharacteristics>
                        </video>
                      </media>
                    </file>
                  </clipitem>
                </track>
              </video>
            </media>
          </clip>
          <clip explodedTracks="true" frameBlend="FALSE" id="masterclip-84">
            <uuid>f106f3ac-261e-4d7d-82e7-652d2184a4c4</uuid>
            <masterclipid>masterclip-84</masterclipid>
            <ismasterclip>TRUE</ismasterclip>
            <duration>162</duration>
            <in>0</in>
            <out>162</out>
            <name>Antonio.082.png</name>
            <rate>
              <timebase>24</timebase>
              <ntsc>FALSE</ntsc>
            </rate>
            <media>
              <video>
                <track>
                  <clipitem frameBlend="FALSE" id="clipitem-85">
                    <name>Antonio.082.png</name>
                    <masterclipid>masterclip-84</masterclipid>
                    <rate>
                      <timebase>24</timebase>
                      <ntsc>FALSE</ntsc>
                    </rate>
                    <alphatype>straight</alphatype>
                    <pixelaspectratio>square</pixelaspectratio>
                    <anamorphic>FALSE</anamorphic>
                    <file id="file-84">
                      <name>Antonio.082.png</name>
                      <pathurl>file://localhost/Users/antoniochiappetta/OneDrive - Aalto University/University/Aalto/Hackatons/Junction/Junction2019-IoK-security_awareness_kids/Assets/Team Animations/Image Sequences/Antonio/Antonio.082.png</pathurl>
                      <rate>
                        <timebase>24</timebase>
                        <ntsc>FALSE</ntsc>
                      </rate>
                      <duration>162</duration>
                      <timecode>
                        <rate>
                          <timebase>24</timebase>
                          <ntsc>FALSE</ntsc>
                        </rate>
                      </timecode>
                      <media>
                        <video>
                          <duration>1</duration>
                          <samplecharacteristics>
                            <anamorphic>FALSE</anamorphic>
                            <pixelaspectratio>square</pixelaspectratio>
                            <fielddominance>none</fielddominance>
                            <width>686</width>
                            <height>511</height>
                          </samplecharacteristics>
                        </video>
                      </media>
                    </file>
                  </clipitem>
                </track>
              </video>
            </media>
          </clip>
          <clip explodedTracks="true" frameBlend="FALSE" id="masterclip-85">
            <uuid>1146678a-43b8-43f7-8f0a-5f3b31d2949e</uuid>
            <masterclipid>masterclip-85</masterclipid>
            <ismasterclip>TRUE</ismasterclip>
            <duration>162</duration>
            <in>0</in>
            <out>162</out>
            <name>Antonio.083.png</name>
            <rate>
              <timebase>24</timebase>
              <ntsc>FALSE</ntsc>
            </rate>
            <media>
              <video>
                <track>
                  <clipitem frameBlend="FALSE" id="clipitem-86">
                    <name>Antonio.083.png</name>
                    <masterclipid>masterclip-85</masterclipid>
                    <rate>
                      <timebase>24</timebase>
                      <ntsc>FALSE</ntsc>
                    </rate>
                    <alphatype>straight</alphatype>
                    <pixelaspectratio>square</pixelaspectratio>
                    <anamorphic>FALSE</anamorphic>
                    <file id="file-85">
                      <name>Antonio.083.png</name>
                      <pathurl>file://localhost/Users/antoniochiappetta/OneDrive - Aalto University/University/Aalto/Hackatons/Junction/Junction2019-IoK-security_awareness_kids/Assets/Team Animations/Image Sequences/Antonio/Antonio.083.png</pathurl>
                      <rate>
                        <timebase>24</timebase>
                        <ntsc>FALSE</ntsc>
                      </rate>
                      <duration>162</duration>
                      <timecode>
                        <rate>
                          <timebase>24</timebase>
                          <ntsc>FALSE</ntsc>
                        </rate>
                      </timecode>
                      <media>
                        <video>
                          <duration>1</duration>
                          <samplecharacteristics>
                            <anamorphic>FALSE</anamorphic>
                            <pixelaspectratio>square</pixelaspectratio>
                            <fielddominance>none</fielddominance>
                            <width>686</width>
                            <height>511</height>
                          </samplecharacteristics>
                        </video>
                      </media>
                    </file>
                  </clipitem>
                </track>
              </video>
            </media>
          </clip>
          <clip explodedTracks="true" frameBlend="FALSE" id="masterclip-86">
            <uuid>a716adca-4212-4254-92e0-47b6fcdff921</uuid>
            <masterclipid>masterclip-86</masterclipid>
            <ismasterclip>TRUE</ismasterclip>
            <duration>162</duration>
            <in>0</in>
            <out>162</out>
            <name>Antonio.084.png</name>
            <rate>
              <timebase>24</timebase>
              <ntsc>FALSE</ntsc>
            </rate>
            <media>
              <video>
                <track>
                  <clipitem frameBlend="FALSE" id="clipitem-87">
                    <name>Antonio.084.png</name>
                    <masterclipid>masterclip-86</masterclipid>
                    <rate>
                      <timebase>24</timebase>
                      <ntsc>FALSE</ntsc>
                    </rate>
                    <alphatype>straight</alphatype>
                    <pixelaspectratio>square</pixelaspectratio>
                    <anamorphic>FALSE</anamorphic>
                    <file id="file-86">
                      <name>Antonio.084.png</name>
                      <pathurl>file://localhost/Users/antoniochiappetta/OneDrive - Aalto University/University/Aalto/Hackatons/Junction/Junction2019-IoK-security_awareness_kids/Assets/Team Animations/Image Sequences/Antonio/Antonio.084.png</pathurl>
                      <rate>
                        <timebase>24</timebase>
                        <ntsc>FALSE</ntsc>
                      </rate>
                      <duration>162</duration>
                      <timecode>
                        <rate>
                          <timebase>24</timebase>
                          <ntsc>FALSE</ntsc>
                        </rate>
                      </timecode>
                      <media>
                        <video>
                          <duration>1</duration>
                          <samplecharacteristics>
                            <anamorphic>FALSE</anamorphic>
                            <pixelaspectratio>square</pixelaspectratio>
                            <fielddominance>none</fielddominance>
                            <width>686</width>
                            <height>511</height>
                          </samplecharacteristics>
                        </video>
                      </media>
                    </file>
                  </clipitem>
                </track>
              </video>
            </media>
          </clip>
          <clip explodedTracks="true" frameBlend="FALSE" id="masterclip-87">
            <uuid>899a5a72-7e8d-4f0f-9936-3bf2c7fa97db</uuid>
            <masterclipid>masterclip-87</masterclipid>
            <ismasterclip>TRUE</ismasterclip>
            <duration>162</duration>
            <in>0</in>
            <out>162</out>
            <name>Antonio.085.png</name>
            <rate>
              <timebase>24</timebase>
              <ntsc>FALSE</ntsc>
            </rate>
            <media>
              <video>
                <track>
                  <clipitem frameBlend="FALSE" id="clipitem-88">
                    <name>Antonio.085.png</name>
                    <masterclipid>masterclip-87</masterclipid>
                    <rate>
                      <timebase>24</timebase>
                      <ntsc>FALSE</ntsc>
                    </rate>
                    <alphatype>straight</alphatype>
                    <pixelaspectratio>square</pixelaspectratio>
                    <anamorphic>FALSE</anamorphic>
                    <file id="file-87">
                      <name>Antonio.085.png</name>
                      <pathurl>file://localhost/Users/antoniochiappetta/OneDrive - Aalto University/University/Aalto/Hackatons/Junction/Junction2019-IoK-security_awareness_kids/Assets/Team Animations/Image Sequences/Antonio/Antonio.085.png</pathurl>
                      <rate>
                        <timebase>24</timebase>
                        <ntsc>FALSE</ntsc>
                      </rate>
                      <duration>162</duration>
                      <timecode>
                        <rate>
                          <timebase>24</timebase>
                          <ntsc>FALSE</ntsc>
                        </rate>
                      </timecode>
                      <media>
                        <video>
                          <duration>1</duration>
                          <samplecharacteristics>
                            <anamorphic>FALSE</anamorphic>
                            <pixelaspectratio>square</pixelaspectratio>
                            <fielddominance>none</fielddominance>
                            <width>686</width>
                            <height>511</height>
                          </samplecharacteristics>
                        </video>
                      </media>
                    </file>
                  </clipitem>
                </track>
              </video>
            </media>
          </clip>
          <clip explodedTracks="true" frameBlend="FALSE" id="masterclip-88">
            <uuid>117757f9-fbc0-4e0c-96fc-3316cd6b200b</uuid>
            <masterclipid>masterclip-88</masterclipid>
            <ismasterclip>TRUE</ismasterclip>
            <duration>162</duration>
            <in>0</in>
            <out>162</out>
            <name>Antonio.086.png</name>
            <rate>
              <timebase>24</timebase>
              <ntsc>FALSE</ntsc>
            </rate>
            <media>
              <video>
                <track>
                  <clipitem frameBlend="FALSE" id="clipitem-89">
                    <name>Antonio.086.png</name>
                    <masterclipid>masterclip-88</masterclipid>
                    <rate>
                      <timebase>24</timebase>
                      <ntsc>FALSE</ntsc>
                    </rate>
                    <alphatype>straight</alphatype>
                    <pixelaspectratio>square</pixelaspectratio>
                    <anamorphic>FALSE</anamorphic>
                    <file id="file-88">
                      <name>Antonio.086.png</name>
                      <pathurl>file://localhost/Users/antoniochiappetta/OneDrive - Aalto University/University/Aalto/Hackatons/Junction/Junction2019-IoK-security_awareness_kids/Assets/Team Animations/Image Sequences/Antonio/Antonio.086.png</pathurl>
                      <rate>
                        <timebase>24</timebase>
                        <ntsc>FALSE</ntsc>
                      </rate>
                      <duration>162</duration>
                      <timecode>
                        <rate>
                          <timebase>24</timebase>
                          <ntsc>FALSE</ntsc>
                        </rate>
                      </timecode>
                      <media>
                        <video>
                          <duration>1</duration>
                          <samplecharacteristics>
                            <anamorphic>FALSE</anamorphic>
                            <pixelaspectratio>square</pixelaspectratio>
                            <fielddominance>none</fielddominance>
                            <width>686</width>
                            <height>511</height>
                          </samplecharacteristics>
                        </video>
                      </media>
                    </file>
                  </clipitem>
                </track>
              </video>
            </media>
          </clip>
          <clip explodedTracks="true" frameBlend="FALSE" id="masterclip-89">
            <uuid>25d972c0-e02a-482d-81bb-ac0549f10985</uuid>
            <masterclipid>masterclip-89</masterclipid>
            <ismasterclip>TRUE</ismasterclip>
            <duration>162</duration>
            <in>0</in>
            <out>162</out>
            <name>Antonio.087.png</name>
            <rate>
              <timebase>24</timebase>
              <ntsc>FALSE</ntsc>
            </rate>
            <media>
              <video>
                <track>
                  <clipitem frameBlend="FALSE" id="clipitem-90">
                    <name>Antonio.087.png</name>
                    <masterclipid>masterclip-89</masterclipid>
                    <rate>
                      <timebase>24</timebase>
                      <ntsc>FALSE</ntsc>
                    </rate>
                    <alphatype>straight</alphatype>
                    <pixelaspectratio>square</pixelaspectratio>
                    <anamorphic>FALSE</anamorphic>
                    <file id="file-89">
                      <name>Antonio.087.png</name>
                      <pathurl>file://localhost/Users/antoniochiappetta/OneDrive - Aalto University/University/Aalto/Hackatons/Junction/Junction2019-IoK-security_awareness_kids/Assets/Team Animations/Image Sequences/Antonio/Antonio.087.png</pathurl>
                      <rate>
                        <timebase>24</timebase>
                        <ntsc>FALSE</ntsc>
                      </rate>
                      <duration>162</duration>
                      <timecode>
                        <rate>
                          <timebase>24</timebase>
                          <ntsc>FALSE</ntsc>
                        </rate>
                      </timecode>
                      <media>
                        <video>
                          <duration>1</duration>
                          <samplecharacteristics>
                            <anamorphic>FALSE</anamorphic>
                            <pixelaspectratio>square</pixelaspectratio>
                            <fielddominance>none</fielddominance>
                            <width>686</width>
                            <height>511</height>
                          </samplecharacteristics>
                        </video>
                      </media>
                    </file>
                  </clipitem>
                </track>
              </video>
            </media>
          </clip>
          <clip explodedTracks="true" frameBlend="FALSE" id="masterclip-90">
            <uuid>263f4885-8880-43fe-809a-30ab11f11c4f</uuid>
            <masterclipid>masterclip-90</masterclipid>
            <ismasterclip>TRUE</ismasterclip>
            <duration>162</duration>
            <in>0</in>
            <out>162</out>
            <name>Antonio.088.png</name>
            <rate>
              <timebase>24</timebase>
              <ntsc>FALSE</ntsc>
            </rate>
            <media>
              <video>
                <track>
                  <clipitem frameBlend="FALSE" id="clipitem-91">
                    <name>Antonio.088.png</name>
                    <masterclipid>masterclip-90</masterclipid>
                    <rate>
                      <timebase>24</timebase>
                      <ntsc>FALSE</ntsc>
                    </rate>
                    <alphatype>straight</alphatype>
                    <pixelaspectratio>square</pixelaspectratio>
                    <anamorphic>FALSE</anamorphic>
                    <file id="file-90">
                      <name>Antonio.088.png</name>
                      <pathurl>file://localhost/Users/antoniochiappetta/OneDrive - Aalto University/University/Aalto/Hackatons/Junction/Junction2019-IoK-security_awareness_kids/Assets/Team Animations/Image Sequences/Antonio/Antonio.088.png</pathurl>
                      <rate>
                        <timebase>24</timebase>
                        <ntsc>FALSE</ntsc>
                      </rate>
                      <duration>162</duration>
                      <timecode>
                        <rate>
                          <timebase>24</timebase>
                          <ntsc>FALSE</ntsc>
                        </rate>
                      </timecode>
                      <media>
                        <video>
                          <duration>1</duration>
                          <samplecharacteristics>
                            <anamorphic>FALSE</anamorphic>
                            <pixelaspectratio>square</pixelaspectratio>
                            <fielddominance>none</fielddominance>
                            <width>686</width>
                            <height>511</height>
                          </samplecharacteristics>
                        </video>
                      </media>
                    </file>
                  </clipitem>
                </track>
              </video>
            </media>
          </clip>
          <clip explodedTracks="true" frameBlend="FALSE" id="masterclip-91">
            <uuid>e0c1eb38-792c-4271-8af4-a732cacc4998</uuid>
            <masterclipid>masterclip-91</masterclipid>
            <ismasterclip>TRUE</ismasterclip>
            <duration>162</duration>
            <in>0</in>
            <out>162</out>
            <name>Antonio.089.png</name>
            <rate>
              <timebase>24</timebase>
              <ntsc>FALSE</ntsc>
            </rate>
            <media>
              <video>
                <track>
                  <clipitem frameBlend="FALSE" id="clipitem-92">
                    <name>Antonio.089.png</name>
                    <masterclipid>masterclip-91</masterclipid>
                    <rate>
                      <timebase>24</timebase>
                      <ntsc>FALSE</ntsc>
                    </rate>
                    <alphatype>straight</alphatype>
                    <pixelaspectratio>square</pixelaspectratio>
                    <anamorphic>FALSE</anamorphic>
                    <file id="file-91">
                      <name>Antonio.089.png</name>
                      <pathurl>file://localhost/Users/antoniochiappetta/OneDrive - Aalto University/University/Aalto/Hackatons/Junction/Junction2019-IoK-security_awareness_kids/Assets/Team Animations/Image Sequences/Antonio/Antonio.089.png</pathurl>
                      <rate>
                        <timebase>24</timebase>
                        <ntsc>FALSE</ntsc>
                      </rate>
                      <duration>162</duration>
                      <timecode>
                        <rate>
                          <timebase>24</timebase>
                          <ntsc>FALSE</ntsc>
                        </rate>
                      </timecode>
                      <media>
                        <video>
                          <duration>1</duration>
                          <samplecharacteristics>
                            <anamorphic>FALSE</anamorphic>
                            <pixelaspectratio>square</pixelaspectratio>
                            <fielddominance>none</fielddominance>
                            <width>686</width>
                            <height>511</height>
                          </samplecharacteristics>
                        </video>
                      </media>
                    </file>
                  </clipitem>
                </track>
              </video>
            </media>
          </clip>
          <clip explodedTracks="true" frameBlend="FALSE" id="masterclip-92">
            <uuid>f5fc0e42-b26e-436f-888e-d994d5f9aea1</uuid>
            <masterclipid>masterclip-92</masterclipid>
            <ismasterclip>TRUE</ismasterclip>
            <duration>162</duration>
            <in>0</in>
            <out>162</out>
            <name>Antonio.090.png</name>
            <rate>
              <timebase>24</timebase>
              <ntsc>FALSE</ntsc>
            </rate>
            <media>
              <video>
                <track>
                  <clipitem frameBlend="FALSE" id="clipitem-93">
                    <name>Antonio.090.png</name>
                    <masterclipid>masterclip-92</masterclipid>
                    <rate>
                      <timebase>24</timebase>
                      <ntsc>FALSE</ntsc>
                    </rate>
                    <alphatype>straight</alphatype>
                    <pixelaspectratio>square</pixelaspectratio>
                    <anamorphic>FALSE</anamorphic>
                    <file id="file-92">
                      <name>Antonio.090.png</name>
                      <pathurl>file://localhost/Users/antoniochiappetta/OneDrive - Aalto University/University/Aalto/Hackatons/Junction/Junction2019-IoK-security_awareness_kids/Assets/Team Animations/Image Sequences/Antonio/Antonio.090.png</pathurl>
                      <rate>
                        <timebase>24</timebase>
                        <ntsc>FALSE</ntsc>
                      </rate>
                      <duration>162</duration>
                      <timecode>
                        <rate>
                          <timebase>24</timebase>
                          <ntsc>FALSE</ntsc>
                        </rate>
                      </timecode>
                      <media>
                        <video>
                          <duration>1</duration>
                          <samplecharacteristics>
                            <anamorphic>FALSE</anamorphic>
                            <pixelaspectratio>square</pixelaspectratio>
                            <fielddominance>none</fielddominance>
                            <width>686</width>
                            <height>511</height>
                          </samplecharacteristics>
                        </video>
                      </media>
                    </file>
                  </clipitem>
                </track>
              </video>
            </media>
          </clip>
          <clip explodedTracks="true" frameBlend="FALSE" id="masterclip-93">
            <uuid>c4e30b15-f597-4583-9a49-9f373017e51b</uuid>
            <masterclipid>masterclip-93</masterclipid>
            <ismasterclip>TRUE</ismasterclip>
            <duration>162</duration>
            <in>0</in>
            <out>162</out>
            <name>Antonio.091.png</name>
            <rate>
              <timebase>24</timebase>
              <ntsc>FALSE</ntsc>
            </rate>
            <media>
              <video>
                <track>
                  <clipitem frameBlend="FALSE" id="clipitem-94">
                    <name>Antonio.091.png</name>
                    <masterclipid>masterclip-93</masterclipid>
                    <rate>
                      <timebase>24</timebase>
                      <ntsc>FALSE</ntsc>
                    </rate>
                    <alphatype>straight</alphatype>
                    <pixelaspectratio>square</pixelaspectratio>
                    <anamorphic>FALSE</anamorphic>
                    <file id="file-93">
                      <name>Antonio.091.png</name>
                      <pathurl>file://localhost/Users/antoniochiappetta/OneDrive - Aalto University/University/Aalto/Hackatons/Junction/Junction2019-IoK-security_awareness_kids/Assets/Team Animations/Image Sequences/Antonio/Antonio.091.png</pathurl>
                      <rate>
                        <timebase>24</timebase>
                        <ntsc>FALSE</ntsc>
                      </rate>
                      <duration>162</duration>
                      <timecode>
                        <rate>
                          <timebase>24</timebase>
                          <ntsc>FALSE</ntsc>
                        </rate>
                      </timecode>
                      <media>
                        <video>
                          <duration>1</duration>
                          <samplecharacteristics>
                            <anamorphic>FALSE</anamorphic>
                            <pixelaspectratio>square</pixelaspectratio>
                            <fielddominance>none</fielddominance>
                            <width>686</width>
                            <height>511</height>
                          </samplecharacteristics>
                        </video>
                      </media>
                    </file>
                  </clipitem>
                </track>
              </video>
            </media>
          </clip>
          <clip explodedTracks="true" frameBlend="FALSE" id="masterclip-94">
            <uuid>a7c15719-0159-42a3-8301-b3aa943c0e62</uuid>
            <masterclipid>masterclip-94</masterclipid>
            <ismasterclip>TRUE</ismasterclip>
            <duration>162</duration>
            <in>0</in>
            <out>162</out>
            <name>Antonio.092.png</name>
            <rate>
              <timebase>24</timebase>
              <ntsc>FALSE</ntsc>
            </rate>
            <media>
              <video>
                <track>
                  <clipitem frameBlend="FALSE" id="clipitem-95">
                    <name>Antonio.092.png</name>
                    <masterclipid>masterclip-94</masterclipid>
                    <rate>
                      <timebase>24</timebase>
                      <ntsc>FALSE</ntsc>
                    </rate>
                    <alphatype>straight</alphatype>
                    <pixelaspectratio>square</pixelaspectratio>
                    <anamorphic>FALSE</anamorphic>
                    <file id="file-94">
                      <name>Antonio.092.png</name>
                      <pathurl>file://localhost/Users/antoniochiappetta/OneDrive - Aalto University/University/Aalto/Hackatons/Junction/Junction2019-IoK-security_awareness_kids/Assets/Team Animations/Image Sequences/Antonio/Antonio.092.png</pathurl>
                      <rate>
                        <timebase>24</timebase>
                        <ntsc>FALSE</ntsc>
                      </rate>
                      <duration>162</duration>
                      <timecode>
                        <rate>
                          <timebase>24</timebase>
                          <ntsc>FALSE</ntsc>
                        </rate>
                      </timecode>
                      <media>
                        <video>
                          <duration>1</duration>
                          <samplecharacteristics>
                            <anamorphic>FALSE</anamorphic>
                            <pixelaspectratio>square</pixelaspectratio>
                            <fielddominance>none</fielddominance>
                            <width>686</width>
                            <height>511</height>
                          </samplecharacteristics>
                        </video>
                      </media>
                    </file>
                  </clipitem>
                </track>
              </video>
            </media>
          </clip>
          <clip explodedTracks="true" frameBlend="FALSE" id="masterclip-95">
            <uuid>92cb6fd7-be6e-4ecf-a930-ec76622a28af</uuid>
            <masterclipid>masterclip-95</masterclipid>
            <ismasterclip>TRUE</ismasterclip>
            <duration>162</duration>
            <in>0</in>
            <out>162</out>
            <name>Antonio.093.png</name>
            <rate>
              <timebase>24</timebase>
              <ntsc>FALSE</ntsc>
            </rate>
            <media>
              <video>
                <track>
                  <clipitem frameBlend="FALSE" id="clipitem-96">
                    <name>Antonio.093.png</name>
                    <masterclipid>masterclip-95</masterclipid>
                    <rate>
                      <timebase>24</timebase>
                      <ntsc>FALSE</ntsc>
                    </rate>
                    <alphatype>straight</alphatype>
                    <pixelaspectratio>square</pixelaspectratio>
                    <anamorphic>FALSE</anamorphic>
                    <file id="file-95">
                      <name>Antonio.093.png</name>
                      <pathurl>file://localhost/Users/antoniochiappetta/OneDrive - Aalto University/University/Aalto/Hackatons/Junction/Junction2019-IoK-security_awareness_kids/Assets/Team Animations/Image Sequences/Antonio/Antonio.093.png</pathurl>
                      <rate>
                        <timebase>24</timebase>
                        <ntsc>FALSE</ntsc>
                      </rate>
                      <duration>162</duration>
                      <timecode>
                        <rate>
                          <timebase>24</timebase>
                          <ntsc>FALSE</ntsc>
                        </rate>
                      </timecode>
                      <media>
                        <video>
                          <duration>1</duration>
                          <samplecharacteristics>
                            <anamorphic>FALSE</anamorphic>
                            <pixelaspectratio>square</pixelaspectratio>
                            <fielddominance>none</fielddominance>
                            <width>686</width>
                            <height>511</height>
                          </samplecharacteristics>
                        </video>
                      </media>
                    </file>
                  </clipitem>
                </track>
              </video>
            </media>
          </clip>
          <clip explodedTracks="true" frameBlend="FALSE" id="masterclip-96">
            <uuid>69f4f79e-c96e-4cb9-88dd-832daa074167</uuid>
            <masterclipid>masterclip-96</masterclipid>
            <ismasterclip>TRUE</ismasterclip>
            <duration>162</duration>
            <in>0</in>
            <out>162</out>
            <name>Antonio.094.png</name>
            <rate>
              <timebase>24</timebase>
              <ntsc>FALSE</ntsc>
            </rate>
            <media>
              <video>
                <track>
                  <clipitem frameBlend="FALSE" id="clipitem-97">
                    <name>Antonio.094.png</name>
                    <masterclipid>masterclip-96</masterclipid>
                    <rate>
                      <timebase>24</timebase>
                      <ntsc>FALSE</ntsc>
                    </rate>
                    <alphatype>straight</alphatype>
                    <pixelaspectratio>square</pixelaspectratio>
                    <anamorphic>FALSE</anamorphic>
                    <file id="file-96">
                      <name>Antonio.094.png</name>
                      <pathurl>file://localhost/Users/antoniochiappetta/OneDrive - Aalto University/University/Aalto/Hackatons/Junction/Junction2019-IoK-security_awareness_kids/Assets/Team Animations/Image Sequences/Antonio/Antonio.094.png</pathurl>
                      <rate>
                        <timebase>24</timebase>
                        <ntsc>FALSE</ntsc>
                      </rate>
                      <duration>162</duration>
                      <timecode>
                        <rate>
                          <timebase>24</timebase>
                          <ntsc>FALSE</ntsc>
                        </rate>
                      </timecode>
                      <media>
                        <video>
                          <duration>1</duration>
                          <samplecharacteristics>
                            <anamorphic>FALSE</anamorphic>
                            <pixelaspectratio>square</pixelaspectratio>
                            <fielddominance>none</fielddominance>
                            <width>686</width>
                            <height>511</height>
                          </samplecharacteristics>
                        </video>
                      </media>
                    </file>
                  </clipitem>
                </track>
              </video>
            </media>
          </clip>
          <clip explodedTracks="true" frameBlend="FALSE" id="masterclip-97">
            <uuid>c74e93d8-d87d-4f19-9e1b-191ab8b5eb98</uuid>
            <masterclipid>masterclip-97</masterclipid>
            <ismasterclip>TRUE</ismasterclip>
            <duration>162</duration>
            <in>0</in>
            <out>162</out>
            <name>Antonio.095.png</name>
            <rate>
              <timebase>24</timebase>
              <ntsc>FALSE</ntsc>
            </rate>
            <media>
              <video>
                <track>
                  <clipitem frameBlend="FALSE" id="clipitem-98">
                    <name>Antonio.095.png</name>
                    <masterclipid>masterclip-97</masterclipid>
                    <rate>
                      <timebase>24</timebase>
                      <ntsc>FALSE</ntsc>
                    </rate>
                    <alphatype>straight</alphatype>
                    <pixelaspectratio>square</pixelaspectratio>
                    <anamorphic>FALSE</anamorphic>
                    <file id="file-97">
                      <name>Antonio.095.png</name>
                      <pathurl>file://localhost/Users/antoniochiappetta/OneDrive - Aalto University/University/Aalto/Hackatons/Junction/Junction2019-IoK-security_awareness_kids/Assets/Team Animations/Image Sequences/Antonio/Antonio.095.png</pathurl>
                      <rate>
                        <timebase>24</timebase>
                        <ntsc>FALSE</ntsc>
                      </rate>
                      <duration>162</duration>
                      <timecode>
                        <rate>
                          <timebase>24</timebase>
                          <ntsc>FALSE</ntsc>
                        </rate>
                      </timecode>
                      <media>
                        <video>
                          <duration>1</duration>
                          <samplecharacteristics>
                            <anamorphic>FALSE</anamorphic>
                            <pixelaspectratio>square</pixelaspectratio>
                            <fielddominance>none</fielddominance>
                            <width>686</width>
                            <height>511</height>
                          </samplecharacteristics>
                        </video>
                      </media>
                    </file>
                  </clipitem>
                </track>
              </video>
            </media>
          </clip>
          <clip explodedTracks="true" frameBlend="FALSE" id="masterclip-98">
            <uuid>853d7074-d668-41c9-8413-29c89323e3c4</uuid>
            <masterclipid>masterclip-98</masterclipid>
            <ismasterclip>TRUE</ismasterclip>
            <duration>162</duration>
            <in>0</in>
            <out>162</out>
            <name>Antonio.096.png</name>
            <rate>
              <timebase>24</timebase>
              <ntsc>FALSE</ntsc>
            </rate>
            <media>
              <video>
                <track>
                  <clipitem frameBlend="FALSE" id="clipitem-99">
                    <name>Antonio.096.png</name>
                    <masterclipid>masterclip-98</masterclipid>
                    <rate>
                      <timebase>24</timebase>
                      <ntsc>FALSE</ntsc>
                    </rate>
                    <alphatype>straight</alphatype>
                    <pixelaspectratio>square</pixelaspectratio>
                    <anamorphic>FALSE</anamorphic>
                    <file id="file-98">
                      <name>Antonio.096.png</name>
                      <pathurl>file://localhost/Users/antoniochiappetta/OneDrive - Aalto University/University/Aalto/Hackatons/Junction/Junction2019-IoK-security_awareness_kids/Assets/Team Animations/Image Sequences/Antonio/Antonio.096.png</pathurl>
                      <rate>
                        <timebase>24</timebase>
                        <ntsc>FALSE</ntsc>
                      </rate>
                      <duration>162</duration>
                      <timecode>
                        <rate>
                          <timebase>24</timebase>
                          <ntsc>FALSE</ntsc>
                        </rate>
                      </timecode>
                      <media>
                        <video>
                          <duration>1</duration>
                          <samplecharacteristics>
                            <anamorphic>FALSE</anamorphic>
                            <pixelaspectratio>square</pixelaspectratio>
                            <fielddominance>none</fielddominance>
                            <width>686</width>
                            <height>511</height>
                          </samplecharacteristics>
                        </video>
                      </media>
                    </file>
                  </clipitem>
                </track>
              </video>
            </media>
          </clip>
          <clip explodedTracks="true" frameBlend="FALSE" id="masterclip-99">
            <uuid>bd0c9776-ee56-45dc-b25a-68e0db5c2b32</uuid>
            <masterclipid>masterclip-99</masterclipid>
            <ismasterclip>TRUE</ismasterclip>
            <duration>162</duration>
            <in>0</in>
            <out>162</out>
            <name>Antonio.097.png</name>
            <rate>
              <timebase>24</timebase>
              <ntsc>FALSE</ntsc>
            </rate>
            <media>
              <video>
                <track>
                  <clipitem frameBlend="FALSE" id="clipitem-100">
                    <name>Antonio.097.png</name>
                    <masterclipid>masterclip-99</masterclipid>
                    <rate>
                      <timebase>24</timebase>
                      <ntsc>FALSE</ntsc>
                    </rate>
                    <alphatype>straight</alphatype>
                    <pixelaspectratio>square</pixelaspectratio>
                    <anamorphic>FALSE</anamorphic>
                    <file id="file-99">
                      <name>Antonio.097.png</name>
                      <pathurl>file://localhost/Users/antoniochiappetta/OneDrive - Aalto University/University/Aalto/Hackatons/Junction/Junction2019-IoK-security_awareness_kids/Assets/Team Animations/Image Sequences/Antonio/Antonio.097.png</pathurl>
                      <rate>
                        <timebase>24</timebase>
                        <ntsc>FALSE</ntsc>
                      </rate>
                      <duration>162</duration>
                      <timecode>
                        <rate>
                          <timebase>24</timebase>
                          <ntsc>FALSE</ntsc>
                        </rate>
                      </timecode>
                      <media>
                        <video>
                          <duration>1</duration>
                          <samplecharacteristics>
                            <anamorphic>FALSE</anamorphic>
                            <pixelaspectratio>square</pixelaspectratio>
                            <fielddominance>none</fielddominance>
                            <width>686</width>
                            <height>511</height>
                          </samplecharacteristics>
                        </video>
                      </media>
                    </file>
                  </clipitem>
                </track>
              </video>
            </media>
          </clip>
          <clip explodedTracks="true" frameBlend="FALSE" id="masterclip-100">
            <uuid>5c3d2e8a-523d-4b87-ba91-9fc692c02798</uuid>
            <masterclipid>masterclip-100</masterclipid>
            <ismasterclip>TRUE</ismasterclip>
            <duration>162</duration>
            <in>0</in>
            <out>162</out>
            <name>Antonio.098.png</name>
            <rate>
              <timebase>24</timebase>
              <ntsc>FALSE</ntsc>
            </rate>
            <media>
              <video>
                <track>
                  <clipitem frameBlend="FALSE" id="clipitem-101">
                    <name>Antonio.098.png</name>
                    <masterclipid>masterclip-100</masterclipid>
                    <rate>
                      <timebase>24</timebase>
                      <ntsc>FALSE</ntsc>
                    </rate>
                    <alphatype>straight</alphatype>
                    <pixelaspectratio>square</pixelaspectratio>
                    <anamorphic>FALSE</anamorphic>
                    <file id="file-100">
                      <name>Antonio.098.png</name>
                      <pathurl>file://localhost/Users/antoniochiappetta/OneDrive - Aalto University/University/Aalto/Hackatons/Junction/Junction2019-IoK-security_awareness_kids/Assets/Team Animations/Image Sequences/Antonio/Antonio.098.png</pathurl>
                      <rate>
                        <timebase>24</timebase>
                        <ntsc>FALSE</ntsc>
                      </rate>
                      <duration>162</duration>
                      <timecode>
                        <rate>
                          <timebase>24</timebase>
                          <ntsc>FALSE</ntsc>
                        </rate>
                      </timecode>
                      <media>
                        <video>
                          <duration>1</duration>
                          <samplecharacteristics>
                            <anamorphic>FALSE</anamorphic>
                            <pixelaspectratio>square</pixelaspectratio>
                            <fielddominance>none</fielddominance>
                            <width>686</width>
                            <height>511</height>
                          </samplecharacteristics>
                        </video>
                      </media>
                    </file>
                  </clipitem>
                </track>
              </video>
            </media>
          </clip>
          <clip explodedTracks="true" frameBlend="FALSE" id="masterclip-101">
            <uuid>c88c4b6e-1513-45fe-a37a-549235550aba</uuid>
            <masterclipid>masterclip-101</masterclipid>
            <ismasterclip>TRUE</ismasterclip>
            <duration>162</duration>
            <in>0</in>
            <out>162</out>
            <name>Antonio.099.png</name>
            <rate>
              <timebase>24</timebase>
              <ntsc>FALSE</ntsc>
            </rate>
            <media>
              <video>
                <track>
                  <clipitem frameBlend="FALSE" id="clipitem-102">
                    <name>Antonio.099.png</name>
                    <masterclipid>masterclip-101</masterclipid>
                    <rate>
                      <timebase>24</timebase>
                      <ntsc>FALSE</ntsc>
                    </rate>
                    <alphatype>straight</alphatype>
                    <pixelaspectratio>square</pixelaspectratio>
                    <anamorphic>FALSE</anamorphic>
                    <file id="file-101">
                      <name>Antonio.099.png</name>
                      <pathurl>file://localhost/Users/antoniochiappetta/OneDrive - Aalto University/University/Aalto/Hackatons/Junction/Junction2019-IoK-security_awareness_kids/Assets/Team Animations/Image Sequences/Antonio/Antonio.099.png</pathurl>
                      <rate>
                        <timebase>24</timebase>
                        <ntsc>FALSE</ntsc>
                      </rate>
                      <duration>162</duration>
                      <timecode>
                        <rate>
                          <timebase>24</timebase>
                          <ntsc>FALSE</ntsc>
                        </rate>
                      </timecode>
                      <media>
                        <video>
                          <duration>1</duration>
                          <samplecharacteristics>
                            <anamorphic>FALSE</anamorphic>
                            <pixelaspectratio>square</pixelaspectratio>
                            <fielddominance>none</fielddominance>
                            <width>686</width>
                            <height>511</height>
                          </samplecharacteristics>
                        </video>
                      </media>
                    </file>
                  </clipitem>
                </track>
              </video>
            </media>
          </clip>
          <clip explodedTracks="true" frameBlend="FALSE" id="masterclip-102">
            <uuid>3ee285d8-401b-435c-b8ba-fe5040884fa6</uuid>
            <masterclipid>masterclip-102</masterclipid>
            <ismasterclip>TRUE</ismasterclip>
            <duration>162</duration>
            <in>0</in>
            <out>162</out>
            <name>Antonio.100.png</name>
            <rate>
              <timebase>24</timebase>
              <ntsc>FALSE</ntsc>
            </rate>
            <media>
              <video>
                <track>
                  <clipitem frameBlend="FALSE" id="clipitem-103">
                    <name>Antonio.100.png</name>
                    <masterclipid>masterclip-102</masterclipid>
                    <rate>
                      <timebase>24</timebase>
                      <ntsc>FALSE</ntsc>
                    </rate>
                    <alphatype>straight</alphatype>
                    <pixelaspectratio>square</pixelaspectratio>
                    <anamorphic>FALSE</anamorphic>
                    <file id="file-102">
                      <name>Antonio.100.png</name>
                      <pathurl>file://localhost/Users/antoniochiappetta/OneDrive - Aalto University/University/Aalto/Hackatons/Junction/Junction2019-IoK-security_awareness_kids/Assets/Team Animations/Image Sequences/Antonio/Antonio.100.png</pathurl>
                      <rate>
                        <timebase>24</timebase>
                        <ntsc>FALSE</ntsc>
                      </rate>
                      <duration>162</duration>
                      <timecode>
                        <rate>
                          <timebase>24</timebase>
                          <ntsc>FALSE</ntsc>
                        </rate>
                      </timecode>
                      <media>
                        <video>
                          <duration>1</duration>
                          <samplecharacteristics>
                            <anamorphic>FALSE</anamorphic>
                            <pixelaspectratio>square</pixelaspectratio>
                            <fielddominance>none</fielddominance>
                            <width>686</width>
                            <height>511</height>
                          </samplecharacteristics>
                        </video>
                      </media>
                    </file>
                  </clipitem>
                </track>
              </video>
            </media>
          </clip>
          <clip explodedTracks="true" frameBlend="FALSE" id="masterclip-103">
            <uuid>aaf5407b-14b0-4dd1-8319-86df5840ac3a</uuid>
            <masterclipid>masterclip-103</masterclipid>
            <ismasterclip>TRUE</ismasterclip>
            <duration>162</duration>
            <in>0</in>
            <out>162</out>
            <name>Antonio.101.png</name>
            <rate>
              <timebase>24</timebase>
              <ntsc>FALSE</ntsc>
            </rate>
            <media>
              <video>
                <track>
                  <clipitem frameBlend="FALSE" id="clipitem-104">
                    <name>Antonio.101.png</name>
                    <masterclipid>masterclip-103</masterclipid>
                    <rate>
                      <timebase>24</timebase>
                      <ntsc>FALSE</ntsc>
                    </rate>
                    <alphatype>straight</alphatype>
                    <pixelaspectratio>square</pixelaspectratio>
                    <anamorphic>FALSE</anamorphic>
                    <file id="file-103">
                      <name>Antonio.101.png</name>
                      <pathurl>file://localhost/Users/antoniochiappetta/OneDrive - Aalto University/University/Aalto/Hackatons/Junction/Junction2019-IoK-security_awareness_kids/Assets/Team Animations/Image Sequences/Antonio/Antonio.101.png</pathurl>
                      <rate>
                        <timebase>24</timebase>
                        <ntsc>FALSE</ntsc>
                      </rate>
                      <duration>162</duration>
                      <timecode>
                        <rate>
                          <timebase>24</timebase>
                          <ntsc>FALSE</ntsc>
                        </rate>
                      </timecode>
                      <media>
                        <video>
                          <duration>1</duration>
                          <samplecharacteristics>
                            <anamorphic>FALSE</anamorphic>
                            <pixelaspectratio>square</pixelaspectratio>
                            <fielddominance>none</fielddominance>
                            <width>686</width>
                            <height>511</height>
                          </samplecharacteristics>
                        </video>
                      </media>
                    </file>
                  </clipitem>
                </track>
              </video>
            </media>
          </clip>
          <clip explodedTracks="true" frameBlend="FALSE" id="masterclip-104">
            <uuid>5a7ff9b9-c534-495a-8705-80664121e577</uuid>
            <masterclipid>masterclip-104</masterclipid>
            <ismasterclip>TRUE</ismasterclip>
            <duration>162</duration>
            <in>0</in>
            <out>162</out>
            <name>Antonio.102.png</name>
            <rate>
              <timebase>24</timebase>
              <ntsc>FALSE</ntsc>
            </rate>
            <media>
              <video>
                <track>
                  <clipitem frameBlend="FALSE" id="clipitem-105">
                    <name>Antonio.102.png</name>
                    <masterclipid>masterclip-104</masterclipid>
                    <rate>
                      <timebase>24</timebase>
                      <ntsc>FALSE</ntsc>
                    </rate>
                    <alphatype>straight</alphatype>
                    <pixelaspectratio>square</pixelaspectratio>
                    <anamorphic>FALSE</anamorphic>
                    <file id="file-104">
                      <name>Antonio.102.png</name>
                      <pathurl>file://localhost/Users/antoniochiappetta/OneDrive - Aalto University/University/Aalto/Hackatons/Junction/Junction2019-IoK-security_awareness_kids/Assets/Team Animations/Image Sequences/Antonio/Antonio.102.png</pathurl>
                      <rate>
                        <timebase>24</timebase>
                        <ntsc>FALSE</ntsc>
                      </rate>
                      <duration>162</duration>
                      <timecode>
                        <rate>
                          <timebase>24</timebase>
                          <ntsc>FALSE</ntsc>
                        </rate>
                      </timecode>
                      <media>
                        <video>
                          <duration>1</duration>
                          <samplecharacteristics>
                            <anamorphic>FALSE</anamorphic>
                            <pixelaspectratio>square</pixelaspectratio>
                            <fielddominance>none</fielddominance>
                            <width>686</width>
                            <height>511</height>
                          </samplecharacteristics>
                        </video>
                      </media>
                    </file>
                  </clipitem>
                </track>
              </video>
            </media>
          </clip>
          <clip explodedTracks="true" frameBlend="FALSE" id="masterclip-105">
            <uuid>5f92faf2-ac1e-4533-805e-d57fabb0a6cf</uuid>
            <masterclipid>masterclip-105</masterclipid>
            <ismasterclip>TRUE</ismasterclip>
            <duration>162</duration>
            <in>0</in>
            <out>162</out>
            <name>Antonio.103.png</name>
            <rate>
              <timebase>24</timebase>
              <ntsc>FALSE</ntsc>
            </rate>
            <media>
              <video>
                <track>
                  <clipitem frameBlend="FALSE" id="clipitem-106">
                    <name>Antonio.103.png</name>
                    <masterclipid>masterclip-105</masterclipid>
                    <rate>
                      <timebase>24</timebase>
                      <ntsc>FALSE</ntsc>
                    </rate>
                    <alphatype>straight</alphatype>
                    <pixelaspectratio>square</pixelaspectratio>
                    <anamorphic>FALSE</anamorphic>
                    <file id="file-105">
                      <name>Antonio.103.png</name>
                      <pathurl>file://localhost/Users/antoniochiappetta/OneDrive - Aalto University/University/Aalto/Hackatons/Junction/Junction2019-IoK-security_awareness_kids/Assets/Team Animations/Image Sequences/Antonio/Antonio.103.png</pathurl>
                      <rate>
                        <timebase>24</timebase>
                        <ntsc>FALSE</ntsc>
                      </rate>
                      <duration>162</duration>
                      <timecode>
                        <rate>
                          <timebase>24</timebase>
                          <ntsc>FALSE</ntsc>
                        </rate>
                      </timecode>
                      <media>
                        <video>
                          <duration>1</duration>
                          <samplecharacteristics>
                            <anamorphic>FALSE</anamorphic>
                            <pixelaspectratio>square</pixelaspectratio>
                            <fielddominance>none</fielddominance>
                            <width>686</width>
                            <height>511</height>
                          </samplecharacteristics>
                        </video>
                      </media>
                    </file>
                  </clipitem>
                </track>
              </video>
            </media>
          </clip>
          <clip explodedTracks="true" frameBlend="FALSE" id="masterclip-106">
            <uuid>78f555f6-c645-45c8-87fb-aa8a23394773</uuid>
            <masterclipid>masterclip-106</masterclipid>
            <ismasterclip>TRUE</ismasterclip>
            <duration>162</duration>
            <in>0</in>
            <out>162</out>
            <name>Antonio.104.png</name>
            <rate>
              <timebase>24</timebase>
              <ntsc>FALSE</ntsc>
            </rate>
            <media>
              <video>
                <track>
                  <clipitem frameBlend="FALSE" id="clipitem-107">
                    <name>Antonio.104.png</name>
                    <masterclipid>masterclip-106</masterclipid>
                    <rate>
                      <timebase>24</timebase>
                      <ntsc>FALSE</ntsc>
                    </rate>
                    <alphatype>straight</alphatype>
                    <pixelaspectratio>square</pixelaspectratio>
                    <anamorphic>FALSE</anamorphic>
                    <file id="file-106">
                      <name>Antonio.104.png</name>
                      <pathurl>file://localhost/Users/antoniochiappetta/OneDrive - Aalto University/University/Aalto/Hackatons/Junction/Junction2019-IoK-security_awareness_kids/Assets/Team Animations/Image Sequences/Antonio/Antonio.104.png</pathurl>
                      <rate>
                        <timebase>24</timebase>
                        <ntsc>FALSE</ntsc>
                      </rate>
                      <duration>162</duration>
                      <timecode>
                        <rate>
                          <timebase>24</timebase>
                          <ntsc>FALSE</ntsc>
                        </rate>
                      </timecode>
                      <media>
                        <video>
                          <duration>1</duration>
                          <samplecharacteristics>
                            <anamorphic>FALSE</anamorphic>
                            <pixelaspectratio>square</pixelaspectratio>
                            <fielddominance>none</fielddominance>
                            <width>686</width>
                            <height>511</height>
                          </samplecharacteristics>
                        </video>
                      </media>
                    </file>
                  </clipitem>
                </track>
              </video>
            </media>
          </clip>
          <clip explodedTracks="true" frameBlend="FALSE" id="masterclip-107">
            <uuid>49c7625e-0f87-4b76-8dea-ea037b8b695f</uuid>
            <masterclipid>masterclip-107</masterclipid>
            <ismasterclip>TRUE</ismasterclip>
            <duration>162</duration>
            <in>0</in>
            <out>162</out>
            <name>Antonio.105.png</name>
            <rate>
              <timebase>24</timebase>
              <ntsc>FALSE</ntsc>
            </rate>
            <media>
              <video>
                <track>
                  <clipitem frameBlend="FALSE" id="clipitem-108">
                    <name>Antonio.105.png</name>
                    <masterclipid>masterclip-107</masterclipid>
                    <rate>
                      <timebase>24</timebase>
                      <ntsc>FALSE</ntsc>
                    </rate>
                    <alphatype>straight</alphatype>
                    <pixelaspectratio>square</pixelaspectratio>
                    <anamorphic>FALSE</anamorphic>
                    <file id="file-107">
                      <name>Antonio.105.png</name>
                      <pathurl>file://localhost/Users/antoniochiappetta/OneDrive - Aalto University/University/Aalto/Hackatons/Junction/Junction2019-IoK-security_awareness_kids/Assets/Team Animations/Image Sequences/Antonio/Antonio.105.png</pathurl>
                      <rate>
                        <timebase>24</timebase>
                        <ntsc>FALSE</ntsc>
                      </rate>
                      <duration>162</duration>
                      <timecode>
                        <rate>
                          <timebase>24</timebase>
                          <ntsc>FALSE</ntsc>
                        </rate>
                      </timecode>
                      <media>
                        <video>
                          <duration>1</duration>
                          <samplecharacteristics>
                            <anamorphic>FALSE</anamorphic>
                            <pixelaspectratio>square</pixelaspectratio>
                            <fielddominance>none</fielddominance>
                            <width>686</width>
                            <height>511</height>
                          </samplecharacteristics>
                        </video>
                      </media>
                    </file>
                  </clipitem>
                </track>
              </video>
            </media>
          </clip>
          <clip explodedTracks="true" frameBlend="FALSE" id="masterclip-108">
            <uuid>6e363bc6-05b8-40b7-819c-c26929dcf9c9</uuid>
            <masterclipid>masterclip-108</masterclipid>
            <ismasterclip>TRUE</ismasterclip>
            <duration>162</duration>
            <in>0</in>
            <out>162</out>
            <name>Antonio.106.png</name>
            <rate>
              <timebase>24</timebase>
              <ntsc>FALSE</ntsc>
            </rate>
            <media>
              <video>
                <track>
                  <clipitem frameBlend="FALSE" id="clipitem-109">
                    <name>Antonio.106.png</name>
                    <masterclipid>masterclip-108</masterclipid>
                    <rate>
                      <timebase>24</timebase>
                      <ntsc>FALSE</ntsc>
                    </rate>
                    <alphatype>straight</alphatype>
                    <pixelaspectratio>square</pixelaspectratio>
                    <anamorphic>FALSE</anamorphic>
                    <file id="file-108">
                      <name>Antonio.106.png</name>
                      <pathurl>file://localhost/Users/antoniochiappetta/OneDrive - Aalto University/University/Aalto/Hackatons/Junction/Junction2019-IoK-security_awareness_kids/Assets/Team Animations/Image Sequences/Antonio/Antonio.106.png</pathurl>
                      <rate>
                        <timebase>24</timebase>
                        <ntsc>FALSE</ntsc>
                      </rate>
                      <duration>162</duration>
                      <timecode>
                        <rate>
                          <timebase>24</timebase>
                          <ntsc>FALSE</ntsc>
                        </rate>
                      </timecode>
                      <media>
                        <video>
                          <duration>1</duration>
                          <samplecharacteristics>
                            <anamorphic>FALSE</anamorphic>
                            <pixelaspectratio>square</pixelaspectratio>
                            <fielddominance>none</fielddominance>
                            <width>686</width>
                            <height>511</height>
                          </samplecharacteristics>
                        </video>
                      </media>
                    </file>
                  </clipitem>
                </track>
              </video>
            </media>
          </clip>
          <clip explodedTracks="true" frameBlend="FALSE" id="masterclip-109">
            <uuid>14be9374-38f6-46d8-821a-7976e4df0ce5</uuid>
            <masterclipid>masterclip-109</masterclipid>
            <ismasterclip>TRUE</ismasterclip>
            <duration>162</duration>
            <in>0</in>
            <out>162</out>
            <name>Antonio.107.png</name>
            <rate>
              <timebase>24</timebase>
              <ntsc>FALSE</ntsc>
            </rate>
            <media>
              <video>
                <track>
                  <clipitem frameBlend="FALSE" id="clipitem-110">
                    <name>Antonio.107.png</name>
                    <masterclipid>masterclip-109</masterclipid>
                    <rate>
                      <timebase>24</timebase>
                      <ntsc>FALSE</ntsc>
                    </rate>
                    <alphatype>straight</alphatype>
                    <pixelaspectratio>square</pixelaspectratio>
                    <anamorphic>FALSE</anamorphic>
                    <file id="file-109">
                      <name>Antonio.107.png</name>
                      <pathurl>file://localhost/Users/antoniochiappetta/OneDrive - Aalto University/University/Aalto/Hackatons/Junction/Junction2019-IoK-security_awareness_kids/Assets/Team Animations/Image Sequences/Antonio/Antonio.107.png</pathurl>
                      <rate>
                        <timebase>24</timebase>
                        <ntsc>FALSE</ntsc>
                      </rate>
                      <duration>162</duration>
                      <timecode>
                        <rate>
                          <timebase>24</timebase>
                          <ntsc>FALSE</ntsc>
                        </rate>
                      </timecode>
                      <media>
                        <video>
                          <duration>1</duration>
                          <samplecharacteristics>
                            <anamorphic>FALSE</anamorphic>
                            <pixelaspectratio>square</pixelaspectratio>
                            <fielddominance>none</fielddominance>
                            <width>686</width>
                            <height>511</height>
                          </samplecharacteristics>
                        </video>
                      </media>
                    </file>
                  </clipitem>
                </track>
              </video>
            </media>
          </clip>
          <clip explodedTracks="true" frameBlend="FALSE" id="masterclip-110">
            <uuid>22bc47ec-e4e1-4f84-8702-ac1dbd12e86a</uuid>
            <masterclipid>masterclip-110</masterclipid>
            <ismasterclip>TRUE</ismasterclip>
            <duration>162</duration>
            <in>0</in>
            <out>162</out>
            <name>Antonio.108.png</name>
            <rate>
              <timebase>24</timebase>
              <ntsc>FALSE</ntsc>
            </rate>
            <media>
              <video>
                <track>
                  <clipitem frameBlend="FALSE" id="clipitem-111">
                    <name>Antonio.108.png</name>
                    <masterclipid>masterclip-110</masterclipid>
                    <rate>
                      <timebase>24</timebase>
                      <ntsc>FALSE</ntsc>
                    </rate>
                    <alphatype>straight</alphatype>
                    <pixelaspectratio>square</pixelaspectratio>
                    <anamorphic>FALSE</anamorphic>
                    <file id="file-110">
                      <name>Antonio.108.png</name>
                      <pathurl>file://localhost/Users/antoniochiappetta/OneDrive - Aalto University/University/Aalto/Hackatons/Junction/Junction2019-IoK-security_awareness_kids/Assets/Team Animations/Image Sequences/Antonio/Antonio.108.png</pathurl>
                      <rate>
                        <timebase>24</timebase>
                        <ntsc>FALSE</ntsc>
                      </rate>
                      <duration>162</duration>
                      <timecode>
                        <rate>
                          <timebase>24</timebase>
                          <ntsc>FALSE</ntsc>
                        </rate>
                      </timecode>
                      <media>
                        <video>
                          <duration>1</duration>
                          <samplecharacteristics>
                            <anamorphic>FALSE</anamorphic>
                            <pixelaspectratio>square</pixelaspectratio>
                            <fielddominance>none</fielddominance>
                            <width>686</width>
                            <height>511</height>
                          </samplecharacteristics>
                        </video>
                      </media>
                    </file>
                  </clipitem>
                </track>
              </video>
            </media>
          </clip>
          <clip explodedTracks="true" frameBlend="FALSE" id="masterclip-111">
            <uuid>2d20d2f2-2845-4146-b146-d953ab6e8567</uuid>
            <masterclipid>masterclip-111</masterclipid>
            <ismasterclip>TRUE</ismasterclip>
            <duration>162</duration>
            <in>0</in>
            <out>162</out>
            <name>Antonio.109.png</name>
            <rate>
              <timebase>24</timebase>
              <ntsc>FALSE</ntsc>
            </rate>
            <media>
              <video>
                <track>
                  <clipitem frameBlend="FALSE" id="clipitem-112">
                    <name>Antonio.109.png</name>
                    <masterclipid>masterclip-111</masterclipid>
                    <rate>
                      <timebase>24</timebase>
                      <ntsc>FALSE</ntsc>
                    </rate>
                    <alphatype>straight</alphatype>
                    <pixelaspectratio>square</pixelaspectratio>
                    <anamorphic>FALSE</anamorphic>
                    <file id="file-111">
                      <name>Antonio.109.png</name>
                      <pathurl>file://localhost/Users/antoniochiappetta/OneDrive - Aalto University/University/Aalto/Hackatons/Junction/Junction2019-IoK-security_awareness_kids/Assets/Team Animations/Image Sequences/Antonio/Antonio.109.png</pathurl>
                      <rate>
                        <timebase>24</timebase>
                        <ntsc>FALSE</ntsc>
                      </rate>
                      <duration>162</duration>
                      <timecode>
                        <rate>
                          <timebase>24</timebase>
                          <ntsc>FALSE</ntsc>
                        </rate>
                      </timecode>
                      <media>
                        <video>
                          <duration>1</duration>
                          <samplecharacteristics>
                            <anamorphic>FALSE</anamorphic>
                            <pixelaspectratio>square</pixelaspectratio>
                            <fielddominance>none</fielddominance>
                            <width>686</width>
                            <height>511</height>
                          </samplecharacteristics>
                        </video>
                      </media>
                    </file>
                  </clipitem>
                </track>
              </video>
            </media>
          </clip>
          <clip explodedTracks="true" frameBlend="FALSE" id="masterclip-112">
            <uuid>a2ee7ce1-4d02-4cc9-89e0-e884bd5ed566</uuid>
            <masterclipid>masterclip-112</masterclipid>
            <ismasterclip>TRUE</ismasterclip>
            <duration>162</duration>
            <in>0</in>
            <out>162</out>
            <name>Antonio.110.png</name>
            <rate>
              <timebase>24</timebase>
              <ntsc>FALSE</ntsc>
            </rate>
            <media>
              <video>
                <track>
                  <clipitem frameBlend="FALSE" id="clipitem-113">
                    <name>Antonio.110.png</name>
                    <masterclipid>masterclip-112</masterclipid>
                    <rate>
                      <timebase>24</timebase>
                      <ntsc>FALSE</ntsc>
                    </rate>
                    <alphatype>straight</alphatype>
                    <pixelaspectratio>square</pixelaspectratio>
                    <anamorphic>FALSE</anamorphic>
                    <file id="file-112">
                      <name>Antonio.110.png</name>
                      <pathurl>file://localhost/Users/antoniochiappetta/OneDrive - Aalto University/University/Aalto/Hackatons/Junction/Junction2019-IoK-security_awareness_kids/Assets/Team Animations/Image Sequences/Antonio/Antonio.110.png</pathurl>
                      <rate>
                        <timebase>24</timebase>
                        <ntsc>FALSE</ntsc>
                      </rate>
                      <duration>162</duration>
                      <timecode>
                        <rate>
                          <timebase>24</timebase>
                          <ntsc>FALSE</ntsc>
                        </rate>
                      </timecode>
                      <media>
                        <video>
                          <duration>1</duration>
                          <samplecharacteristics>
                            <anamorphic>FALSE</anamorphic>
                            <pixelaspectratio>square</pixelaspectratio>
                            <fielddominance>none</fielddominance>
                            <width>686</width>
                            <height>511</height>
                          </samplecharacteristics>
                        </video>
                      </media>
                    </file>
                  </clipitem>
                </track>
              </video>
            </media>
          </clip>
          <clip explodedTracks="true" frameBlend="FALSE" id="masterclip-113">
            <uuid>f84ae1b2-7681-4f34-8a92-dfe97de9059a</uuid>
            <masterclipid>masterclip-113</masterclipid>
            <ismasterclip>TRUE</ismasterclip>
            <duration>162</duration>
            <in>0</in>
            <out>162</out>
            <name>Antonio.111.png</name>
            <rate>
              <timebase>24</timebase>
              <ntsc>FALSE</ntsc>
            </rate>
            <media>
              <video>
                <track>
                  <clipitem frameBlend="FALSE" id="clipitem-114">
                    <name>Antonio.111.png</name>
                    <masterclipid>masterclip-113</masterclipid>
                    <rate>
                      <timebase>24</timebase>
                      <ntsc>FALSE</ntsc>
                    </rate>
                    <alphatype>straight</alphatype>
                    <pixelaspectratio>square</pixelaspectratio>
                    <anamorphic>FALSE</anamorphic>
                    <file id="file-113">
                      <name>Antonio.111.png</name>
                      <pathurl>file://localhost/Users/antoniochiappetta/OneDrive - Aalto University/University/Aalto/Hackatons/Junction/Junction2019-IoK-security_awareness_kids/Assets/Team Animations/Image Sequences/Antonio/Antonio.111.png</pathurl>
                      <rate>
                        <timebase>24</timebase>
                        <ntsc>FALSE</ntsc>
                      </rate>
                      <duration>162</duration>
                      <timecode>
                        <rate>
                          <timebase>24</timebase>
                          <ntsc>FALSE</ntsc>
                        </rate>
                      </timecode>
                      <media>
                        <video>
                          <duration>1</duration>
                          <samplecharacteristics>
                            <anamorphic>FALSE</anamorphic>
                            <pixelaspectratio>square</pixelaspectratio>
                            <fielddominance>none</fielddominance>
                            <width>686</width>
                            <height>511</height>
                          </samplecharacteristics>
                        </video>
                      </media>
                    </file>
                  </clipitem>
                </track>
              </video>
            </media>
          </clip>
          <clip explodedTracks="true" frameBlend="FALSE" id="masterclip-114">
            <uuid>5c2a490e-8d7a-4512-b6d4-51a8316085aa</uuid>
            <masterclipid>masterclip-114</masterclipid>
            <ismasterclip>TRUE</ismasterclip>
            <duration>162</duration>
            <in>0</in>
            <out>162</out>
            <name>Antonio.112.png</name>
            <rate>
              <timebase>24</timebase>
              <ntsc>FALSE</ntsc>
            </rate>
            <media>
              <video>
                <track>
                  <clipitem frameBlend="FALSE" id="clipitem-115">
                    <name>Antonio.112.png</name>
                    <masterclipid>masterclip-114</masterclipid>
                    <rate>
                      <timebase>24</timebase>
                      <ntsc>FALSE</ntsc>
                    </rate>
                    <alphatype>straight</alphatype>
                    <pixelaspectratio>square</pixelaspectratio>
                    <anamorphic>FALSE</anamorphic>
                    <file id="file-114">
                      <name>Antonio.112.png</name>
                      <pathurl>file://localhost/Users/antoniochiappetta/OneDrive - Aalto University/University/Aalto/Hackatons/Junction/Junction2019-IoK-security_awareness_kids/Assets/Team Animations/Image Sequences/Antonio/Antonio.112.png</pathurl>
                      <rate>
                        <timebase>24</timebase>
                        <ntsc>FALSE</ntsc>
                      </rate>
                      <duration>162</duration>
                      <timecode>
                        <rate>
                          <timebase>24</timebase>
                          <ntsc>FALSE</ntsc>
                        </rate>
                      </timecode>
                      <media>
                        <video>
                          <duration>1</duration>
                          <samplecharacteristics>
                            <anamorphic>FALSE</anamorphic>
                            <pixelaspectratio>square</pixelaspectratio>
                            <fielddominance>none</fielddominance>
                            <width>686</width>
                            <height>511</height>
                          </samplecharacteristics>
                        </video>
                      </media>
                    </file>
                  </clipitem>
                </track>
              </video>
            </media>
          </clip>
          <clip explodedTracks="true" frameBlend="FALSE" id="masterclip-115">
            <uuid>fe1994dc-3529-4260-90d6-d4cd40c0ef46</uuid>
            <masterclipid>masterclip-115</masterclipid>
            <ismasterclip>TRUE</ismasterclip>
            <duration>162</duration>
            <in>0</in>
            <out>162</out>
            <name>Antonio.113.png</name>
            <rate>
              <timebase>24</timebase>
              <ntsc>FALSE</ntsc>
            </rate>
            <media>
              <video>
                <track>
                  <clipitem frameBlend="FALSE" id="clipitem-116">
                    <name>Antonio.113.png</name>
                    <masterclipid>masterclip-115</masterclipid>
                    <rate>
                      <timebase>24</timebase>
                      <ntsc>FALSE</ntsc>
                    </rate>
                    <alphatype>straight</alphatype>
                    <pixelaspectratio>square</pixelaspectratio>
                    <anamorphic>FALSE</anamorphic>
                    <file id="file-115">
                      <name>Antonio.113.png</name>
                      <pathurl>file://localhost/Users/antoniochiappetta/OneDrive - Aalto University/University/Aalto/Hackatons/Junction/Junction2019-IoK-security_awareness_kids/Assets/Team Animations/Image Sequences/Antonio/Antonio.113.png</pathurl>
                      <rate>
                        <timebase>24</timebase>
                        <ntsc>FALSE</ntsc>
                      </rate>
                      <duration>162</duration>
                      <timecode>
                        <rate>
                          <timebase>24</timebase>
                          <ntsc>FALSE</ntsc>
                        </rate>
                      </timecode>
                      <media>
                        <video>
                          <duration>1</duration>
                          <samplecharacteristics>
                            <anamorphic>FALSE</anamorphic>
                            <pixelaspectratio>square</pixelaspectratio>
                            <fielddominance>none</fielddominance>
                            <width>686</width>
                            <height>511</height>
                          </samplecharacteristics>
                        </video>
                      </media>
                    </file>
                  </clipitem>
                </track>
              </video>
            </media>
          </clip>
          <clip explodedTracks="true" frameBlend="FALSE" id="masterclip-116">
            <uuid>9cf8f3b9-d899-4ae0-a22f-70fda85e6b59</uuid>
            <masterclipid>masterclip-116</masterclipid>
            <ismasterclip>TRUE</ismasterclip>
            <duration>162</duration>
            <in>0</in>
            <out>162</out>
            <name>Antonio.114.png</name>
            <rate>
              <timebase>24</timebase>
              <ntsc>FALSE</ntsc>
            </rate>
            <media>
              <video>
                <track>
                  <clipitem frameBlend="FALSE" id="clipitem-117">
                    <name>Antonio.114.png</name>
                    <masterclipid>masterclip-116</masterclipid>
                    <rate>
                      <timebase>24</timebase>
                      <ntsc>FALSE</ntsc>
                    </rate>
                    <alphatype>straight</alphatype>
                    <pixelaspectratio>square</pixelaspectratio>
                    <anamorphic>FALSE</anamorphic>
                    <file id="file-116">
                      <name>Antonio.114.png</name>
                      <pathurl>file://localhost/Users/antoniochiappetta/OneDrive - Aalto University/University/Aalto/Hackatons/Junction/Junction2019-IoK-security_awareness_kids/Assets/Team Animations/Image Sequences/Antonio/Antonio.114.png</pathurl>
                      <rate>
                        <timebase>24</timebase>
                        <ntsc>FALSE</ntsc>
                      </rate>
                      <duration>162</duration>
                      <timecode>
                        <rate>
                          <timebase>24</timebase>
                          <ntsc>FALSE</ntsc>
                        </rate>
                      </timecode>
                      <media>
                        <video>
                          <duration>1</duration>
                          <samplecharacteristics>
                            <anamorphic>FALSE</anamorphic>
                            <pixelaspectratio>square</pixelaspectratio>
                            <fielddominance>none</fielddominance>
                            <width>686</width>
                            <height>511</height>
                          </samplecharacteristics>
                        </video>
                      </media>
                    </file>
                  </clipitem>
                </track>
              </video>
            </media>
          </clip>
          <clip explodedTracks="true" frameBlend="FALSE" id="masterclip-117">
            <uuid>c4da18b9-6876-471a-a3ee-73a21c562836</uuid>
            <masterclipid>masterclip-117</masterclipid>
            <ismasterclip>TRUE</ismasterclip>
            <duration>162</duration>
            <in>0</in>
            <out>162</out>
            <name>Antonio.115.png</name>
            <rate>
              <timebase>24</timebase>
              <ntsc>FALSE</ntsc>
            </rate>
            <media>
              <video>
                <track>
                  <clipitem frameBlend="FALSE" id="clipitem-118">
                    <name>Antonio.115.png</name>
                    <masterclipid>masterclip-117</masterclipid>
                    <rate>
                      <timebase>24</timebase>
                      <ntsc>FALSE</ntsc>
                    </rate>
                    <alphatype>straight</alphatype>
                    <pixelaspectratio>square</pixelaspectratio>
                    <anamorphic>FALSE</anamorphic>
                    <file id="file-117">
                      <name>Antonio.115.png</name>
                      <pathurl>file://localhost/Users/antoniochiappetta/OneDrive - Aalto University/University/Aalto/Hackatons/Junction/Junction2019-IoK-security_awareness_kids/Assets/Team Animations/Image Sequences/Antonio/Antonio.115.png</pathurl>
                      <rate>
                        <timebase>24</timebase>
                        <ntsc>FALSE</ntsc>
                      </rate>
                      <duration>162</duration>
                      <timecode>
                        <rate>
                          <timebase>24</timebase>
                          <ntsc>FALSE</ntsc>
                        </rate>
                      </timecode>
                      <media>
                        <video>
                          <duration>1</duration>
                          <samplecharacteristics>
                            <anamorphic>FALSE</anamorphic>
                            <pixelaspectratio>square</pixelaspectratio>
                            <fielddominance>none</fielddominance>
                            <width>686</width>
                            <height>511</height>
                          </samplecharacteristics>
                        </video>
                      </media>
                    </file>
                  </clipitem>
                </track>
              </video>
            </media>
          </clip>
          <clip explodedTracks="true" frameBlend="FALSE" id="masterclip-118">
            <uuid>41778e4f-328b-4ef2-9f39-51eb7f48e48b</uuid>
            <masterclipid>masterclip-118</masterclipid>
            <ismasterclip>TRUE</ismasterclip>
            <duration>162</duration>
            <in>0</in>
            <out>162</out>
            <name>Antonio.116.png</name>
            <rate>
              <timebase>24</timebase>
              <ntsc>FALSE</ntsc>
            </rate>
            <media>
              <video>
                <track>
                  <clipitem frameBlend="FALSE" id="clipitem-119">
                    <name>Antonio.116.png</name>
                    <masterclipid>masterclip-118</masterclipid>
                    <rate>
                      <timebase>24</timebase>
                      <ntsc>FALSE</ntsc>
                    </rate>
                    <alphatype>straight</alphatype>
                    <pixelaspectratio>square</pixelaspectratio>
                    <anamorphic>FALSE</anamorphic>
                    <file id="file-118">
                      <name>Antonio.116.png</name>
                      <pathurl>file://localhost/Users/antoniochiappetta/OneDrive - Aalto University/University/Aalto/Hackatons/Junction/Junction2019-IoK-security_awareness_kids/Assets/Team Animations/Image Sequences/Antonio/Antonio.116.png</pathurl>
                      <rate>
                        <timebase>24</timebase>
                        <ntsc>FALSE</ntsc>
                      </rate>
                      <duration>162</duration>
                      <timecode>
                        <rate>
                          <timebase>24</timebase>
                          <ntsc>FALSE</ntsc>
                        </rate>
                      </timecode>
                      <media>
                        <video>
                          <duration>1</duration>
                          <samplecharacteristics>
                            <anamorphic>FALSE</anamorphic>
                            <pixelaspectratio>square</pixelaspectratio>
                            <fielddominance>none</fielddominance>
                            <width>686</width>
                            <height>511</height>
                          </samplecharacteristics>
                        </video>
                      </media>
                    </file>
                  </clipitem>
                </track>
              </video>
            </media>
          </clip>
          <clip explodedTracks="true" frameBlend="FALSE" id="masterclip-119">
            <uuid>e15c0840-af99-4dbf-93f0-49d0b10e29a0</uuid>
            <masterclipid>masterclip-119</masterclipid>
            <ismasterclip>TRUE</ismasterclip>
            <duration>162</duration>
            <in>0</in>
            <out>162</out>
            <name>Antonio.117.png</name>
            <rate>
              <timebase>24</timebase>
              <ntsc>FALSE</ntsc>
            </rate>
            <media>
              <video>
                <track>
                  <clipitem frameBlend="FALSE" id="clipitem-120">
                    <name>Antonio.117.png</name>
                    <masterclipid>masterclip-119</masterclipid>
                    <rate>
                      <timebase>24</timebase>
                      <ntsc>FALSE</ntsc>
                    </rate>
                    <alphatype>straight</alphatype>
                    <pixelaspectratio>square</pixelaspectratio>
                    <anamorphic>FALSE</anamorphic>
                    <file id="file-119">
                      <name>Antonio.117.png</name>
                      <pathurl>file://localhost/Users/antoniochiappetta/OneDrive - Aalto University/University/Aalto/Hackatons/Junction/Junction2019-IoK-security_awareness_kids/Assets/Team Animations/Image Sequences/Antonio/Antonio.117.png</pathurl>
                      <rate>
                        <timebase>24</timebase>
                        <ntsc>FALSE</ntsc>
                      </rate>
                      <duration>162</duration>
                      <timecode>
                        <rate>
                          <timebase>24</timebase>
                          <ntsc>FALSE</ntsc>
                        </rate>
                      </timecode>
                      <media>
                        <video>
                          <duration>1</duration>
                          <samplecharacteristics>
                            <anamorphic>FALSE</anamorphic>
                            <pixelaspectratio>square</pixelaspectratio>
                            <fielddominance>none</fielddominance>
                            <width>686</width>
                            <height>511</height>
                          </samplecharacteristics>
                        </video>
                      </media>
                    </file>
                  </clipitem>
                </track>
              </video>
            </media>
          </clip>
          <clip explodedTracks="true" frameBlend="FALSE" id="masterclip-120">
            <uuid>9ef1dc6b-f679-46de-98bf-795397b8d6b2</uuid>
            <masterclipid>masterclip-120</masterclipid>
            <ismasterclip>TRUE</ismasterclip>
            <duration>162</duration>
            <in>0</in>
            <out>162</out>
            <name>Antonio.118.png</name>
            <rate>
              <timebase>24</timebase>
              <ntsc>FALSE</ntsc>
            </rate>
            <media>
              <video>
                <track>
                  <clipitem frameBlend="FALSE" id="clipitem-121">
                    <name>Antonio.118.png</name>
                    <masterclipid>masterclip-120</masterclipid>
                    <rate>
                      <timebase>24</timebase>
                      <ntsc>FALSE</ntsc>
                    </rate>
                    <alphatype>straight</alphatype>
                    <pixelaspectratio>square</pixelaspectratio>
                    <anamorphic>FALSE</anamorphic>
                    <file id="file-120">
                      <name>Antonio.118.png</name>
                      <pathurl>file://localhost/Users/antoniochiappetta/OneDrive - Aalto University/University/Aalto/Hackatons/Junction/Junction2019-IoK-security_awareness_kids/Assets/Team Animations/Image Sequences/Antonio/Antonio.118.png</pathurl>
                      <rate>
                        <timebase>24</timebase>
                        <ntsc>FALSE</ntsc>
                      </rate>
                      <duration>162</duration>
                      <timecode>
                        <rate>
                          <timebase>24</timebase>
                          <ntsc>FALSE</ntsc>
                        </rate>
                      </timecode>
                      <media>
                        <video>
                          <duration>1</duration>
                          <samplecharacteristics>
                            <anamorphic>FALSE</anamorphic>
                            <pixelaspectratio>square</pixelaspectratio>
                            <fielddominance>none</fielddominance>
                            <width>686</width>
                            <height>511</height>
                          </samplecharacteristics>
                        </video>
                      </media>
                    </file>
                  </clipitem>
                </track>
              </video>
            </media>
          </clip>
          <clip explodedTracks="true" frameBlend="FALSE" id="masterclip-121">
            <uuid>c46bc7ec-2c60-4399-82fc-e01211db626e</uuid>
            <masterclipid>masterclip-121</masterclipid>
            <ismasterclip>TRUE</ismasterclip>
            <duration>162</duration>
            <in>0</in>
            <out>162</out>
            <name>Antonio.119.png</name>
            <rate>
              <timebase>24</timebase>
              <ntsc>FALSE</ntsc>
            </rate>
            <media>
              <video>
                <track>
                  <clipitem frameBlend="FALSE" id="clipitem-122">
                    <name>Antonio.119.png</name>
                    <masterclipid>masterclip-121</masterclipid>
                    <rate>
                      <timebase>24</timebase>
                      <ntsc>FALSE</ntsc>
                    </rate>
                    <alphatype>straight</alphatype>
                    <pixelaspectratio>square</pixelaspectratio>
                    <anamorphic>FALSE</anamorphic>
                    <file id="file-121">
                      <name>Antonio.119.png</name>
                      <pathurl>file://localhost/Users/antoniochiappetta/OneDrive - Aalto University/University/Aalto/Hackatons/Junction/Junction2019-IoK-security_awareness_kids/Assets/Team Animations/Image Sequences/Antonio/Antonio.119.png</pathurl>
                      <rate>
                        <timebase>24</timebase>
                        <ntsc>FALSE</ntsc>
                      </rate>
                      <duration>162</duration>
                      <timecode>
                        <rate>
                          <timebase>24</timebase>
                          <ntsc>FALSE</ntsc>
                        </rate>
                      </timecode>
                      <media>
                        <video>
                          <duration>1</duration>
                          <samplecharacteristics>
                            <anamorphic>FALSE</anamorphic>
                            <pixelaspectratio>square</pixelaspectratio>
                            <fielddominance>none</fielddominance>
                            <width>686</width>
                            <height>511</height>
                          </samplecharacteristics>
                        </video>
                      </media>
                    </file>
                  </clipitem>
                </track>
              </video>
            </media>
          </clip>
          <clip explodedTracks="true" frameBlend="FALSE" id="masterclip-122">
            <uuid>0bbadd9d-6df9-4f24-a9a1-bebfbf2d7273</uuid>
            <masterclipid>masterclip-122</masterclipid>
            <ismasterclip>TRUE</ismasterclip>
            <duration>162</duration>
            <in>0</in>
            <out>162</out>
            <name>Antonio.120.png</name>
            <rate>
              <timebase>24</timebase>
              <ntsc>FALSE</ntsc>
            </rate>
            <media>
              <video>
                <track>
                  <clipitem frameBlend="FALSE" id="clipitem-123">
                    <name>Antonio.120.png</name>
                    <masterclipid>masterclip-122</masterclipid>
                    <rate>
                      <timebase>24</timebase>
                      <ntsc>FALSE</ntsc>
                    </rate>
                    <alphatype>straight</alphatype>
                    <pixelaspectratio>square</pixelaspectratio>
                    <anamorphic>FALSE</anamorphic>
                    <file id="file-122">
                      <name>Antonio.120.png</name>
                      <pathurl>file://localhost/Users/antoniochiappetta/OneDrive - Aalto University/University/Aalto/Hackatons/Junction/Junction2019-IoK-security_awareness_kids/Assets/Team Animations/Image Sequences/Antonio/Antonio.120.png</pathurl>
                      <rate>
                        <timebase>24</timebase>
                        <ntsc>FALSE</ntsc>
                      </rate>
                      <duration>162</duration>
                      <timecode>
                        <rate>
                          <timebase>24</timebase>
                          <ntsc>FALSE</ntsc>
                        </rate>
                      </timecode>
                      <media>
                        <video>
                          <duration>1</duration>
                          <samplecharacteristics>
                            <anamorphic>FALSE</anamorphic>
                            <pixelaspectratio>square</pixelaspectratio>
                            <fielddominance>none</fielddominance>
                            <width>686</width>
                            <height>511</height>
                          </samplecharacteristics>
                        </video>
                      </media>
                    </file>
                  </clipitem>
                </track>
              </video>
            </media>
          </clip>
          <clip explodedTracks="true" frameBlend="FALSE" id="masterclip-123">
            <uuid>8cd1bf56-0e2a-44ea-8ce1-0e2defde2d15</uuid>
            <masterclipid>masterclip-123</masterclipid>
            <ismasterclip>TRUE</ismasterclip>
            <duration>162</duration>
            <in>0</in>
            <out>162</out>
            <name>Antonio.121.png</name>
            <rate>
              <timebase>24</timebase>
              <ntsc>FALSE</ntsc>
            </rate>
            <media>
              <video>
                <track>
                  <clipitem frameBlend="FALSE" id="clipitem-124">
                    <name>Antonio.121.png</name>
                    <masterclipid>masterclip-123</masterclipid>
                    <rate>
                      <timebase>24</timebase>
                      <ntsc>FALSE</ntsc>
                    </rate>
                    <alphatype>straight</alphatype>
                    <pixelaspectratio>square</pixelaspectratio>
                    <anamorphic>FALSE</anamorphic>
                    <file id="file-123">
                      <name>Antonio.121.png</name>
                      <pathurl>file://localhost/Users/antoniochiappetta/OneDrive - Aalto University/University/Aalto/Hackatons/Junction/Junction2019-IoK-security_awareness_kids/Assets/Team Animations/Image Sequences/Antonio/Antonio.121.png</pathurl>
                      <rate>
                        <timebase>24</timebase>
                        <ntsc>FALSE</ntsc>
                      </rate>
                      <duration>162</duration>
                      <timecode>
                        <rate>
                          <timebase>24</timebase>
                          <ntsc>FALSE</ntsc>
                        </rate>
                      </timecode>
                      <media>
                        <video>
                          <duration>1</duration>
                          <samplecharacteristics>
                            <anamorphic>FALSE</anamorphic>
                            <pixelaspectratio>square</pixelaspectratio>
                            <fielddominance>none</fielddominance>
                            <width>686</width>
                            <height>511</height>
                          </samplecharacteristics>
                        </video>
                      </media>
                    </file>
                  </clipitem>
                </track>
              </video>
            </media>
          </clip>
          <clip explodedTracks="true" frameBlend="FALSE" id="masterclip-124">
            <uuid>56fd2647-9685-4ef9-ab71-dd56db3942f4</uuid>
            <masterclipid>masterclip-124</masterclipid>
            <ismasterclip>TRUE</ismasterclip>
            <duration>162</duration>
            <in>0</in>
            <out>162</out>
            <name>Antonio.122.png</name>
            <rate>
              <timebase>24</timebase>
              <ntsc>FALSE</ntsc>
            </rate>
            <media>
              <video>
                <track>
                  <clipitem frameBlend="FALSE" id="clipitem-125">
                    <name>Antonio.122.png</name>
                    <masterclipid>masterclip-124</masterclipid>
                    <rate>
                      <timebase>24</timebase>
                      <ntsc>FALSE</ntsc>
                    </rate>
                    <alphatype>straight</alphatype>
                    <pixelaspectratio>square</pixelaspectratio>
                    <anamorphic>FALSE</anamorphic>
                    <file id="file-124">
                      <name>Antonio.122.png</name>
                      <pathurl>file://localhost/Users/antoniochiappetta/OneDrive - Aalto University/University/Aalto/Hackatons/Junction/Junction2019-IoK-security_awareness_kids/Assets/Team Animations/Image Sequences/Antonio/Antonio.122.png</pathurl>
                      <rate>
                        <timebase>24</timebase>
                        <ntsc>FALSE</ntsc>
                      </rate>
                      <duration>162</duration>
                      <timecode>
                        <rate>
                          <timebase>24</timebase>
                          <ntsc>FALSE</ntsc>
                        </rate>
                      </timecode>
                      <media>
                        <video>
                          <duration>1</duration>
                          <samplecharacteristics>
                            <anamorphic>FALSE</anamorphic>
                            <pixelaspectratio>square</pixelaspectratio>
                            <fielddominance>none</fielddominance>
                            <width>686</width>
                            <height>511</height>
                          </samplecharacteristics>
                        </video>
                      </media>
                    </file>
                  </clipitem>
                </track>
              </video>
            </media>
          </clip>
          <clip explodedTracks="true" frameBlend="FALSE" id="masterclip-125">
            <uuid>acc9acd3-3abd-4da2-9e66-2b325960bb5c</uuid>
            <masterclipid>masterclip-125</masterclipid>
            <ismasterclip>TRUE</ismasterclip>
            <duration>162</duration>
            <in>0</in>
            <out>162</out>
            <name>Antonio.123.png</name>
            <rate>
              <timebase>24</timebase>
              <ntsc>FALSE</ntsc>
            </rate>
            <media>
              <video>
                <track>
                  <clipitem frameBlend="FALSE" id="clipitem-126">
                    <name>Antonio.123.png</name>
                    <masterclipid>masterclip-125</masterclipid>
                    <rate>
                      <timebase>24</timebase>
                      <ntsc>FALSE</ntsc>
                    </rate>
                    <alphatype>straight</alphatype>
                    <pixelaspectratio>square</pixelaspectratio>
                    <anamorphic>FALSE</anamorphic>
                    <file id="file-125">
                      <name>Antonio.123.png</name>
                      <pathurl>file://localhost/Users/antoniochiappetta/OneDrive - Aalto University/University/Aalto/Hackatons/Junction/Junction2019-IoK-security_awareness_kids/Assets/Team Animations/Image Sequences/Antonio/Antonio.123.png</pathurl>
                      <rate>
                        <timebase>24</timebase>
                        <ntsc>FALSE</ntsc>
                      </rate>
                      <duration>162</duration>
                      <timecode>
                        <rate>
                          <timebase>24</timebase>
                          <ntsc>FALSE</ntsc>
                        </rate>
                      </timecode>
                      <media>
                        <video>
                          <duration>1</duration>
                          <samplecharacteristics>
                            <anamorphic>FALSE</anamorphic>
                            <pixelaspectratio>square</pixelaspectratio>
                            <fielddominance>none</fielddominance>
                            <width>686</width>
                            <height>511</height>
                          </samplecharacteristics>
                        </video>
                      </media>
                    </file>
                  </clipitem>
                </track>
              </video>
            </media>
          </clip>
          <clip explodedTracks="true" frameBlend="FALSE" id="masterclip-126">
            <uuid>fb2a9b75-fa37-43e5-a41b-d7006daeba4f</uuid>
            <masterclipid>masterclip-126</masterclipid>
            <ismasterclip>TRUE</ismasterclip>
            <duration>162</duration>
            <in>0</in>
            <out>162</out>
            <name>Antonio.124.png</name>
            <rate>
              <timebase>24</timebase>
              <ntsc>FALSE</ntsc>
            </rate>
            <media>
              <video>
                <track>
                  <clipitem frameBlend="FALSE" id="clipitem-127">
                    <name>Antonio.124.png</name>
                    <masterclipid>masterclip-126</masterclipid>
                    <rate>
                      <timebase>24</timebase>
                      <ntsc>FALSE</ntsc>
                    </rate>
                    <alphatype>straight</alphatype>
                    <pixelaspectratio>square</pixelaspectratio>
                    <anamorphic>FALSE</anamorphic>
                    <file id="file-126">
                      <name>Antonio.124.png</name>
                      <pathurl>file://localhost/Users/antoniochiappetta/OneDrive - Aalto University/University/Aalto/Hackatons/Junction/Junction2019-IoK-security_awareness_kids/Assets/Team Animations/Image Sequences/Antonio/Antonio.124.png</pathurl>
                      <rate>
                        <timebase>24</timebase>
                        <ntsc>FALSE</ntsc>
                      </rate>
                      <duration>162</duration>
                      <timecode>
                        <rate>
                          <timebase>24</timebase>
                          <ntsc>FALSE</ntsc>
                        </rate>
                      </timecode>
                      <media>
                        <video>
                          <duration>1</duration>
                          <samplecharacteristics>
                            <anamorphic>FALSE</anamorphic>
                            <pixelaspectratio>square</pixelaspectratio>
                            <fielddominance>none</fielddominance>
                            <width>686</width>
                            <height>511</height>
                          </samplecharacteristics>
                        </video>
                      </media>
                    </file>
                  </clipitem>
                </track>
              </video>
            </media>
          </clip>
          <clip explodedTracks="true" frameBlend="FALSE" id="masterclip-127">
            <uuid>edef9995-8db5-4d0f-b25d-9c6e2dc4b3b2</uuid>
            <masterclipid>masterclip-127</masterclipid>
            <ismasterclip>TRUE</ismasterclip>
            <duration>162</duration>
            <in>0</in>
            <out>162</out>
            <name>Antonio.125.png</name>
            <rate>
              <timebase>24</timebase>
              <ntsc>FALSE</ntsc>
            </rate>
            <media>
              <video>
                <track>
                  <clipitem frameBlend="FALSE" id="clipitem-128">
                    <name>Antonio.125.png</name>
                    <masterclipid>masterclip-127</masterclipid>
                    <rate>
                      <timebase>24</timebase>
                      <ntsc>FALSE</ntsc>
                    </rate>
                    <alphatype>straight</alphatype>
                    <pixelaspectratio>square</pixelaspectratio>
                    <anamorphic>FALSE</anamorphic>
                    <file id="file-127">
                      <name>Antonio.125.png</name>
                      <pathurl>file://localhost/Users/antoniochiappetta/OneDrive - Aalto University/University/Aalto/Hackatons/Junction/Junction2019-IoK-security_awareness_kids/Assets/Team Animations/Image Sequences/Antonio/Antonio.125.png</pathurl>
                      <rate>
                        <timebase>24</timebase>
                        <ntsc>FALSE</ntsc>
                      </rate>
                      <duration>162</duration>
                      <timecode>
                        <rate>
                          <timebase>24</timebase>
                          <ntsc>FALSE</ntsc>
                        </rate>
                      </timecode>
                      <media>
                        <video>
                          <duration>1</duration>
                          <samplecharacteristics>
                            <anamorphic>FALSE</anamorphic>
                            <pixelaspectratio>square</pixelaspectratio>
                            <fielddominance>none</fielddominance>
                            <width>686</width>
                            <height>511</height>
                          </samplecharacteristics>
                        </video>
                      </media>
                    </file>
                  </clipitem>
                </track>
              </video>
            </media>
          </clip>
          <clip explodedTracks="true" frameBlend="FALSE" id="masterclip-128">
            <uuid>040f9ca5-e1e3-4b0c-9497-c69d4c9dbfce</uuid>
            <masterclipid>masterclip-128</masterclipid>
            <ismasterclip>TRUE</ismasterclip>
            <duration>162</duration>
            <in>0</in>
            <out>162</out>
            <name>Antonio.126.png</name>
            <rate>
              <timebase>24</timebase>
              <ntsc>FALSE</ntsc>
            </rate>
            <media>
              <video>
                <track>
                  <clipitem frameBlend="FALSE" id="clipitem-129">
                    <name>Antonio.126.png</name>
                    <masterclipid>masterclip-128</masterclipid>
                    <rate>
                      <timebase>24</timebase>
                      <ntsc>FALSE</ntsc>
                    </rate>
                    <alphatype>straight</alphatype>
                    <pixelaspectratio>square</pixelaspectratio>
                    <anamorphic>FALSE</anamorphic>
                    <file id="file-128">
                      <name>Antonio.126.png</name>
                      <pathurl>file://localhost/Users/antoniochiappetta/OneDrive - Aalto University/University/Aalto/Hackatons/Junction/Junction2019-IoK-security_awareness_kids/Assets/Team Animations/Image Sequences/Antonio/Antonio.126.png</pathurl>
                      <rate>
                        <timebase>24</timebase>
                        <ntsc>FALSE</ntsc>
                      </rate>
                      <duration>162</duration>
                      <timecode>
                        <rate>
                          <timebase>24</timebase>
                          <ntsc>FALSE</ntsc>
                        </rate>
                      </timecode>
                      <media>
                        <video>
                          <duration>1</duration>
                          <samplecharacteristics>
                            <anamorphic>FALSE</anamorphic>
                            <pixelaspectratio>square</pixelaspectratio>
                            <fielddominance>none</fielddominance>
                            <width>686</width>
                            <height>511</height>
                          </samplecharacteristics>
                        </video>
                      </media>
                    </file>
                  </clipitem>
                </track>
              </video>
            </media>
          </clip>
          <clip explodedTracks="true" frameBlend="FALSE" id="masterclip-129">
            <uuid>dee18e7f-7c98-4616-be42-34d39809fd48</uuid>
            <masterclipid>masterclip-129</masterclipid>
            <ismasterclip>TRUE</ismasterclip>
            <duration>162</duration>
            <in>0</in>
            <out>162</out>
            <name>Antonio.127.png</name>
            <rate>
              <timebase>24</timebase>
              <ntsc>FALSE</ntsc>
            </rate>
            <media>
              <video>
                <track>
                  <clipitem frameBlend="FALSE" id="clipitem-130">
                    <name>Antonio.127.png</name>
                    <masterclipid>masterclip-129</masterclipid>
                    <rate>
                      <timebase>24</timebase>
                      <ntsc>FALSE</ntsc>
                    </rate>
                    <alphatype>straight</alphatype>
                    <pixelaspectratio>square</pixelaspectratio>
                    <anamorphic>FALSE</anamorphic>
                    <file id="file-129">
                      <name>Antonio.127.png</name>
                      <pathurl>file://localhost/Users/antoniochiappetta/OneDrive - Aalto University/University/Aalto/Hackatons/Junction/Junction2019-IoK-security_awareness_kids/Assets/Team Animations/Image Sequences/Antonio/Antonio.127.png</pathurl>
                      <rate>
                        <timebase>24</timebase>
                        <ntsc>FALSE</ntsc>
                      </rate>
                      <duration>162</duration>
                      <timecode>
                        <rate>
                          <timebase>24</timebase>
                          <ntsc>FALSE</ntsc>
                        </rate>
                      </timecode>
                      <media>
                        <video>
                          <duration>1</duration>
                          <samplecharacteristics>
                            <anamorphic>FALSE</anamorphic>
                            <pixelaspectratio>square</pixelaspectratio>
                            <fielddominance>none</fielddominance>
                            <width>686</width>
                            <height>511</height>
                          </samplecharacteristics>
                        </video>
                      </media>
                    </file>
                  </clipitem>
                </track>
              </video>
            </media>
          </clip>
          <clip explodedTracks="true" frameBlend="FALSE" id="masterclip-130">
            <uuid>73b79717-944e-4513-827a-81d744b68a4d</uuid>
            <masterclipid>masterclip-130</masterclipid>
            <ismasterclip>TRUE</ismasterclip>
            <duration>162</duration>
            <in>0</in>
            <out>162</out>
            <name>Antonio.128.png</name>
            <rate>
              <timebase>24</timebase>
              <ntsc>FALSE</ntsc>
            </rate>
            <media>
              <video>
                <track>
                  <clipitem frameBlend="FALSE" id="clipitem-131">
                    <name>Antonio.128.png</name>
                    <masterclipid>masterclip-130</masterclipid>
                    <rate>
                      <timebase>24</timebase>
                      <ntsc>FALSE</ntsc>
                    </rate>
                    <alphatype>straight</alphatype>
                    <pixelaspectratio>square</pixelaspectratio>
                    <anamorphic>FALSE</anamorphic>
                    <file id="file-130">
                      <name>Antonio.128.png</name>
                      <pathurl>file://localhost/Users/antoniochiappetta/OneDrive - Aalto University/University/Aalto/Hackatons/Junction/Junction2019-IoK-security_awareness_kids/Assets/Team Animations/Image Sequences/Antonio/Antonio.128.png</pathurl>
                      <rate>
                        <timebase>24</timebase>
                        <ntsc>FALSE</ntsc>
                      </rate>
                      <duration>162</duration>
                      <timecode>
                        <rate>
                          <timebase>24</timebase>
                          <ntsc>FALSE</ntsc>
                        </rate>
                      </timecode>
                      <media>
                        <video>
                          <duration>1</duration>
                          <samplecharacteristics>
                            <anamorphic>FALSE</anamorphic>
                            <pixelaspectratio>square</pixelaspectratio>
                            <fielddominance>none</fielddominance>
                            <width>686</width>
                            <height>511</height>
                          </samplecharacteristics>
                        </video>
                      </media>
                    </file>
                  </clipitem>
                </track>
              </video>
            </media>
          </clip>
          <clip explodedTracks="true" frameBlend="FALSE" id="masterclip-131">
            <uuid>177429cc-cc46-4ff7-a4ae-cb52aea9b306</uuid>
            <masterclipid>masterclip-131</masterclipid>
            <ismasterclip>TRUE</ismasterclip>
            <duration>162</duration>
            <in>0</in>
            <out>162</out>
            <name>Antonio.129.png</name>
            <rate>
              <timebase>24</timebase>
              <ntsc>FALSE</ntsc>
            </rate>
            <media>
              <video>
                <track>
                  <clipitem frameBlend="FALSE" id="clipitem-132">
                    <name>Antonio.129.png</name>
                    <masterclipid>masterclip-131</masterclipid>
                    <rate>
                      <timebase>24</timebase>
                      <ntsc>FALSE</ntsc>
                    </rate>
                    <alphatype>straight</alphatype>
                    <pixelaspectratio>square</pixelaspectratio>
                    <anamorphic>FALSE</anamorphic>
                    <file id="file-131">
                      <name>Antonio.129.png</name>
                      <pathurl>file://localhost/Users/antoniochiappetta/OneDrive - Aalto University/University/Aalto/Hackatons/Junction/Junction2019-IoK-security_awareness_kids/Assets/Team Animations/Image Sequences/Antonio/Antonio.129.png</pathurl>
                      <rate>
                        <timebase>24</timebase>
                        <ntsc>FALSE</ntsc>
                      </rate>
                      <duration>162</duration>
                      <timecode>
                        <rate>
                          <timebase>24</timebase>
                          <ntsc>FALSE</ntsc>
                        </rate>
                      </timecode>
                      <media>
                        <video>
                          <duration>1</duration>
                          <samplecharacteristics>
                            <anamorphic>FALSE</anamorphic>
                            <pixelaspectratio>square</pixelaspectratio>
                            <fielddominance>none</fielddominance>
                            <width>686</width>
                            <height>511</height>
                          </samplecharacteristics>
                        </video>
                      </media>
                    </file>
                  </clipitem>
                </track>
              </video>
            </media>
          </clip>
          <clip explodedTracks="true" frameBlend="FALSE" id="masterclip-132">
            <uuid>11709686-41fb-4917-bce2-b0ce8d67ef34</uuid>
            <masterclipid>masterclip-132</masterclipid>
            <ismasterclip>TRUE</ismasterclip>
            <duration>162</duration>
            <in>0</in>
            <out>162</out>
            <name>Antonio.130.png</name>
            <rate>
              <timebase>24</timebase>
              <ntsc>FALSE</ntsc>
            </rate>
            <media>
              <video>
                <track>
                  <clipitem frameBlend="FALSE" id="clipitem-133">
                    <name>Antonio.130.png</name>
                    <masterclipid>masterclip-132</masterclipid>
                    <rate>
                      <timebase>24</timebase>
                      <ntsc>FALSE</ntsc>
                    </rate>
                    <alphatype>straight</alphatype>
                    <pixelaspectratio>square</pixelaspectratio>
                    <anamorphic>FALSE</anamorphic>
                    <file id="file-132">
                      <name>Antonio.130.png</name>
                      <pathurl>file://localhost/Users/antoniochiappetta/OneDrive - Aalto University/University/Aalto/Hackatons/Junction/Junction2019-IoK-security_awareness_kids/Assets/Team Animations/Image Sequences/Antonio/Antonio.130.png</pathurl>
                      <rate>
                        <timebase>24</timebase>
                        <ntsc>FALSE</ntsc>
                      </rate>
                      <duration>162</duration>
                      <timecode>
                        <rate>
                          <timebase>24</timebase>
                          <ntsc>FALSE</ntsc>
                        </rate>
                      </timecode>
                      <media>
                        <video>
                          <duration>1</duration>
                          <samplecharacteristics>
                            <anamorphic>FALSE</anamorphic>
                            <pixelaspectratio>square</pixelaspectratio>
                            <fielddominance>none</fielddominance>
                            <width>686</width>
                            <height>511</height>
                          </samplecharacteristics>
                        </video>
                      </media>
                    </file>
                  </clipitem>
                </track>
              </video>
            </media>
          </clip>
          <clip explodedTracks="true" frameBlend="FALSE" id="masterclip-133">
            <uuid>a871cc9b-75f1-4df4-aafe-64b54e1201f4</uuid>
            <masterclipid>masterclip-133</masterclipid>
            <ismasterclip>TRUE</ismasterclip>
            <duration>162</duration>
            <in>0</in>
            <out>162</out>
            <name>Antonio.131.png</name>
            <rate>
              <timebase>24</timebase>
              <ntsc>FALSE</ntsc>
            </rate>
            <media>
              <video>
                <track>
                  <clipitem frameBlend="FALSE" id="clipitem-134">
                    <name>Antonio.131.png</name>
                    <masterclipid>masterclip-133</masterclipid>
                    <rate>
                      <timebase>24</timebase>
                      <ntsc>FALSE</ntsc>
                    </rate>
                    <alphatype>straight</alphatype>
                    <pixelaspectratio>square</pixelaspectratio>
                    <anamorphic>FALSE</anamorphic>
                    <file id="file-133">
                      <name>Antonio.131.png</name>
                      <pathurl>file://localhost/Users/antoniochiappetta/OneDrive - Aalto University/University/Aalto/Hackatons/Junction/Junction2019-IoK-security_awareness_kids/Assets/Team Animations/Image Sequences/Antonio/Antonio.131.png</pathurl>
                      <rate>
                        <timebase>24</timebase>
                        <ntsc>FALSE</ntsc>
                      </rate>
                      <duration>162</duration>
                      <timecode>
                        <rate>
                          <timebase>24</timebase>
                          <ntsc>FALSE</ntsc>
                        </rate>
                      </timecode>
                      <media>
                        <video>
                          <duration>1</duration>
                          <samplecharacteristics>
                            <anamorphic>FALSE</anamorphic>
                            <pixelaspectratio>square</pixelaspectratio>
                            <fielddominance>none</fielddominance>
                            <width>686</width>
                            <height>511</height>
                          </samplecharacteristics>
                        </video>
                      </media>
                    </file>
                  </clipitem>
                </track>
              </video>
            </media>
          </clip>
          <clip explodedTracks="true" frameBlend="FALSE" id="masterclip-134">
            <uuid>259bd87b-c3f2-47e2-93dc-698ee5639792</uuid>
            <masterclipid>masterclip-134</masterclipid>
            <ismasterclip>TRUE</ismasterclip>
            <duration>162</duration>
            <in>0</in>
            <out>162</out>
            <name>Antonio.132.png</name>
            <rate>
              <timebase>24</timebase>
              <ntsc>FALSE</ntsc>
            </rate>
            <media>
              <video>
                <track>
                  <clipitem frameBlend="FALSE" id="clipitem-135">
                    <name>Antonio.132.png</name>
                    <masterclipid>masterclip-134</masterclipid>
                    <rate>
                      <timebase>24</timebase>
                      <ntsc>FALSE</ntsc>
                    </rate>
                    <alphatype>straight</alphatype>
                    <pixelaspectratio>square</pixelaspectratio>
                    <anamorphic>FALSE</anamorphic>
                    <file id="file-134">
                      <name>Antonio.132.png</name>
                      <pathurl>file://localhost/Users/antoniochiappetta/OneDrive - Aalto University/University/Aalto/Hackatons/Junction/Junction2019-IoK-security_awareness_kids/Assets/Team Animations/Image Sequences/Antonio/Antonio.132.png</pathurl>
                      <rate>
                        <timebase>24</timebase>
                        <ntsc>FALSE</ntsc>
                      </rate>
                      <duration>162</duration>
                      <timecode>
                        <rate>
                          <timebase>24</timebase>
                          <ntsc>FALSE</ntsc>
                        </rate>
                      </timecode>
                      <media>
                        <video>
                          <duration>1</duration>
                          <samplecharacteristics>
                            <anamorphic>FALSE</anamorphic>
                            <pixelaspectratio>square</pixelaspectratio>
                            <fielddominance>none</fielddominance>
                            <width>686</width>
                            <height>511</height>
                          </samplecharacteristics>
                        </video>
                      </media>
                    </file>
                  </clipitem>
                </track>
              </video>
            </media>
          </clip>
          <clip explodedTracks="true" frameBlend="FALSE" id="masterclip-135">
            <uuid>4681a8fa-9909-44aa-8744-6c28c6568844</uuid>
            <masterclipid>masterclip-135</masterclipid>
            <ismasterclip>TRUE</ismasterclip>
            <duration>162</duration>
            <in>0</in>
            <out>162</out>
            <name>Antonio.133.png</name>
            <rate>
              <timebase>24</timebase>
              <ntsc>FALSE</ntsc>
            </rate>
            <media>
              <video>
                <track>
                  <clipitem frameBlend="FALSE" id="clipitem-136">
                    <name>Antonio.133.png</name>
                    <masterclipid>masterclip-135</masterclipid>
                    <rate>
                      <timebase>24</timebase>
                      <ntsc>FALSE</ntsc>
                    </rate>
                    <alphatype>straight</alphatype>
                    <pixelaspectratio>square</pixelaspectratio>
                    <anamorphic>FALSE</anamorphic>
                    <file id="file-135">
                      <name>Antonio.133.png</name>
                      <pathurl>file://localhost/Users/antoniochiappetta/OneDrive - Aalto University/University/Aalto/Hackatons/Junction/Junction2019-IoK-security_awareness_kids/Assets/Team Animations/Image Sequences/Antonio/Antonio.133.png</pathurl>
                      <rate>
                        <timebase>24</timebase>
                        <ntsc>FALSE</ntsc>
                      </rate>
                      <duration>162</duration>
                      <timecode>
                        <rate>
                          <timebase>24</timebase>
                          <ntsc>FALSE</ntsc>
                        </rate>
                      </timecode>
                      <media>
                        <video>
                          <duration>1</duration>
                          <samplecharacteristics>
                            <anamorphic>FALSE</anamorphic>
                            <pixelaspectratio>square</pixelaspectratio>
                            <fielddominance>none</fielddominance>
                            <width>686</width>
                            <height>511</height>
                          </samplecharacteristics>
                        </video>
                      </media>
                    </file>
                  </clipitem>
                </track>
              </video>
            </media>
          </clip>
          <clip explodedTracks="true" frameBlend="FALSE" id="masterclip-136">
            <uuid>d3d84531-13b3-4d30-acb9-652e9214e96e</uuid>
            <masterclipid>masterclip-136</masterclipid>
            <ismasterclip>TRUE</ismasterclip>
            <duration>162</duration>
            <in>0</in>
            <out>162</out>
            <name>Antonio.134.png</name>
            <rate>
              <timebase>24</timebase>
              <ntsc>FALSE</ntsc>
            </rate>
            <media>
              <video>
                <track>
                  <clipitem frameBlend="FALSE" id="clipitem-137">
                    <name>Antonio.134.png</name>
                    <masterclipid>masterclip-136</masterclipid>
                    <rate>
                      <timebase>24</timebase>
                      <ntsc>FALSE</ntsc>
                    </rate>
                    <alphatype>straight</alphatype>
                    <pixelaspectratio>square</pixelaspectratio>
                    <anamorphic>FALSE</anamorphic>
                    <file id="file-136">
                      <name>Antonio.134.png</name>
                      <pathurl>file://localhost/Users/antoniochiappetta/OneDrive - Aalto University/University/Aalto/Hackatons/Junction/Junction2019-IoK-security_awareness_kids/Assets/Team Animations/Image Sequences/Antonio/Antonio.134.png</pathurl>
                      <rate>
                        <timebase>24</timebase>
                        <ntsc>FALSE</ntsc>
                      </rate>
                      <duration>162</duration>
                      <timecode>
                        <rate>
                          <timebase>24</timebase>
                          <ntsc>FALSE</ntsc>
                        </rate>
                      </timecode>
                      <media>
                        <video>
                          <duration>1</duration>
                          <samplecharacteristics>
                            <anamorphic>FALSE</anamorphic>
                            <pixelaspectratio>square</pixelaspectratio>
                            <fielddominance>none</fielddominance>
                            <width>686</width>
                            <height>511</height>
                          </samplecharacteristics>
                        </video>
                      </media>
                    </file>
                  </clipitem>
                </track>
              </video>
            </media>
          </clip>
          <clip explodedTracks="true" frameBlend="FALSE" id="masterclip-137">
            <uuid>b89e04ad-f573-4c9b-a297-313ed55df904</uuid>
            <masterclipid>masterclip-137</masterclipid>
            <ismasterclip>TRUE</ismasterclip>
            <duration>162</duration>
            <in>0</in>
            <out>162</out>
            <name>Antonio.135.png</name>
            <rate>
              <timebase>24</timebase>
              <ntsc>FALSE</ntsc>
            </rate>
            <media>
              <video>
                <track>
                  <clipitem frameBlend="FALSE" id="clipitem-138">
                    <name>Antonio.135.png</name>
                    <masterclipid>masterclip-137</masterclipid>
                    <rate>
                      <timebase>24</timebase>
                      <ntsc>FALSE</ntsc>
                    </rate>
                    <alphatype>straight</alphatype>
                    <pixelaspectratio>square</pixelaspectratio>
                    <anamorphic>FALSE</anamorphic>
                    <file id="file-137">
                      <name>Antonio.135.png</name>
                      <pathurl>file://localhost/Users/antoniochiappetta/OneDrive - Aalto University/University/Aalto/Hackatons/Junction/Junction2019-IoK-security_awareness_kids/Assets/Team Animations/Image Sequences/Antonio/Antonio.135.png</pathurl>
                      <rate>
                        <timebase>24</timebase>
                        <ntsc>FALSE</ntsc>
                      </rate>
                      <duration>162</duration>
                      <timecode>
                        <rate>
                          <timebase>24</timebase>
                          <ntsc>FALSE</ntsc>
                        </rate>
                      </timecode>
                      <media>
                        <video>
                          <duration>1</duration>
                          <samplecharacteristics>
                            <anamorphic>FALSE</anamorphic>
                            <pixelaspectratio>square</pixelaspectratio>
                            <fielddominance>none</fielddominance>
                            <width>686</width>
                            <height>511</height>
                          </samplecharacteristics>
                        </video>
                      </media>
                    </file>
                  </clipitem>
                </track>
              </video>
            </media>
          </clip>
          <clip explodedTracks="true" frameBlend="FALSE" id="masterclip-138">
            <uuid>e35291e0-7217-4805-a2db-9c70bf6a2b43</uuid>
            <masterclipid>masterclip-138</masterclipid>
            <ismasterclip>TRUE</ismasterclip>
            <duration>162</duration>
            <in>0</in>
            <out>162</out>
            <name>Antonio.136.png</name>
            <rate>
              <timebase>24</timebase>
              <ntsc>FALSE</ntsc>
            </rate>
            <media>
              <video>
                <track>
                  <clipitem frameBlend="FALSE" id="clipitem-139">
                    <name>Antonio.136.png</name>
                    <masterclipid>masterclip-138</masterclipid>
                    <rate>
                      <timebase>24</timebase>
                      <ntsc>FALSE</ntsc>
                    </rate>
                    <alphatype>straight</alphatype>
                    <pixelaspectratio>square</pixelaspectratio>
                    <anamorphic>FALSE</anamorphic>
                    <file id="file-138">
                      <name>Antonio.136.png</name>
                      <pathurl>file://localhost/Users/antoniochiappetta/OneDrive - Aalto University/University/Aalto/Hackatons/Junction/Junction2019-IoK-security_awareness_kids/Assets/Team Animations/Image Sequences/Antonio/Antonio.136.png</pathurl>
                      <rate>
                        <timebase>24</timebase>
                        <ntsc>FALSE</ntsc>
                      </rate>
                      <duration>162</duration>
                      <timecode>
                        <rate>
                          <timebase>24</timebase>
                          <ntsc>FALSE</ntsc>
                        </rate>
                      </timecode>
                      <media>
                        <video>
                          <duration>1</duration>
                          <samplecharacteristics>
                            <anamorphic>FALSE</anamorphic>
                            <pixelaspectratio>square</pixelaspectratio>
                            <fielddominance>none</fielddominance>
                            <width>686</width>
                            <height>511</height>
                          </samplecharacteristics>
                        </video>
                      </media>
                    </file>
                  </clipitem>
                </track>
              </video>
            </media>
          </clip>
          <clip explodedTracks="true" frameBlend="FALSE" id="masterclip-139">
            <uuid>fac26ae9-0526-490a-b409-04a555e1b7bf</uuid>
            <masterclipid>masterclip-139</masterclipid>
            <ismasterclip>TRUE</ismasterclip>
            <duration>162</duration>
            <in>0</in>
            <out>162</out>
            <name>Antonio.137.png</name>
            <rate>
              <timebase>24</timebase>
              <ntsc>FALSE</ntsc>
            </rate>
            <media>
              <video>
                <track>
                  <clipitem frameBlend="FALSE" id="clipitem-140">
                    <name>Antonio.137.png</name>
                    <masterclipid>masterclip-139</masterclipid>
                    <rate>
                      <timebase>24</timebase>
                      <ntsc>FALSE</ntsc>
                    </rate>
                    <alphatype>straight</alphatype>
                    <pixelaspectratio>square</pixelaspectratio>
                    <anamorphic>FALSE</anamorphic>
                    <file id="file-139">
                      <name>Antonio.137.png</name>
                      <pathurl>file://localhost/Users/antoniochiappetta/OneDrive - Aalto University/University/Aalto/Hackatons/Junction/Junction2019-IoK-security_awareness_kids/Assets/Team Animations/Image Sequences/Antonio/Antonio.137.png</pathurl>
                      <rate>
                        <timebase>24</timebase>
                        <ntsc>FALSE</ntsc>
                      </rate>
                      <duration>162</duration>
                      <timecode>
                        <rate>
                          <timebase>24</timebase>
                          <ntsc>FALSE</ntsc>
                        </rate>
                      </timecode>
                      <media>
                        <video>
                          <duration>1</duration>
                          <samplecharacteristics>
                            <anamorphic>FALSE</anamorphic>
                            <pixelaspectratio>square</pixelaspectratio>
                            <fielddominance>none</fielddominance>
                            <width>686</width>
                            <height>511</height>
                          </samplecharacteristics>
                        </video>
                      </media>
                    </file>
                  </clipitem>
                </track>
              </video>
            </media>
          </clip>
          <clip explodedTracks="true" frameBlend="FALSE" id="masterclip-140">
            <uuid>7bc114c9-42e5-42bd-aaf8-7f73006afda8</uuid>
            <masterclipid>masterclip-140</masterclipid>
            <ismasterclip>TRUE</ismasterclip>
            <duration>162</duration>
            <in>0</in>
            <out>162</out>
            <name>Antonio.138.png</name>
            <rate>
              <timebase>24</timebase>
              <ntsc>FALSE</ntsc>
            </rate>
            <media>
              <video>
                <track>
                  <clipitem frameBlend="FALSE" id="clipitem-141">
                    <name>Antonio.138.png</name>
                    <masterclipid>masterclip-140</masterclipid>
                    <rate>
                      <timebase>24</timebase>
                      <ntsc>FALSE</ntsc>
                    </rate>
                    <alphatype>straight</alphatype>
                    <pixelaspectratio>square</pixelaspectratio>
                    <anamorphic>FALSE</anamorphic>
                    <file id="file-140">
                      <name>Antonio.138.png</name>
                      <pathurl>file://localhost/Users/antoniochiappetta/OneDrive - Aalto University/University/Aalto/Hackatons/Junction/Junction2019-IoK-security_awareness_kids/Assets/Team Animations/Image Sequences/Antonio/Antonio.138.png</pathurl>
                      <rate>
                        <timebase>24</timebase>
                        <ntsc>FALSE</ntsc>
                      </rate>
                      <duration>162</duration>
                      <timecode>
                        <rate>
                          <timebase>24</timebase>
                          <ntsc>FALSE</ntsc>
                        </rate>
                      </timecode>
                      <media>
                        <video>
                          <duration>1</duration>
                          <samplecharacteristics>
                            <anamorphic>FALSE</anamorphic>
                            <pixelaspectratio>square</pixelaspectratio>
                            <fielddominance>none</fielddominance>
                            <width>686</width>
                            <height>511</height>
                          </samplecharacteristics>
                        </video>
                      </media>
                    </file>
                  </clipitem>
                </track>
              </video>
            </media>
          </clip>
          <clip explodedTracks="true" frameBlend="FALSE" id="masterclip-141">
            <uuid>e47476aa-ff27-438d-b874-e1ad2dea8046</uuid>
            <masterclipid>masterclip-141</masterclipid>
            <ismasterclip>TRUE</ismasterclip>
            <duration>162</duration>
            <in>0</in>
            <out>162</out>
            <name>Antonio.139.png</name>
            <rate>
              <timebase>24</timebase>
              <ntsc>FALSE</ntsc>
            </rate>
            <media>
              <video>
                <track>
                  <clipitem frameBlend="FALSE" id="clipitem-142">
                    <name>Antonio.139.png</name>
                    <masterclipid>masterclip-141</masterclipid>
                    <rate>
                      <timebase>24</timebase>
                      <ntsc>FALSE</ntsc>
                    </rate>
                    <alphatype>straight</alphatype>
                    <pixelaspectratio>square</pixelaspectratio>
                    <anamorphic>FALSE</anamorphic>
                    <file id="file-141">
                      <name>Antonio.139.png</name>
                      <pathurl>file://localhost/Users/antoniochiappetta/OneDrive - Aalto University/University/Aalto/Hackatons/Junction/Junction2019-IoK-security_awareness_kids/Assets/Team Animations/Image Sequences/Antonio/Antonio.139.png</pathurl>
                      <rate>
                        <timebase>24</timebase>
                        <ntsc>FALSE</ntsc>
                      </rate>
                      <duration>162</duration>
                      <timecode>
                        <rate>
                          <timebase>24</timebase>
                          <ntsc>FALSE</ntsc>
                        </rate>
                      </timecode>
                      <media>
                        <video>
                          <duration>1</duration>
                          <samplecharacteristics>
                            <anamorphic>FALSE</anamorphic>
                            <pixelaspectratio>square</pixelaspectratio>
                            <fielddominance>none</fielddominance>
                            <width>686</width>
                            <height>511</height>
                          </samplecharacteristics>
                        </video>
                      </media>
                    </file>
                  </clipitem>
                </track>
              </video>
            </media>
          </clip>
          <clip explodedTracks="true" frameBlend="FALSE" id="masterclip-142">
            <uuid>d96d6ebd-7a71-494b-9563-6d8846108dde</uuid>
            <masterclipid>masterclip-142</masterclipid>
            <ismasterclip>TRUE</ismasterclip>
            <duration>162</duration>
            <in>0</in>
            <out>162</out>
            <name>Antonio.140.png</name>
            <rate>
              <timebase>24</timebase>
              <ntsc>FALSE</ntsc>
            </rate>
            <media>
              <video>
                <track>
                  <clipitem frameBlend="FALSE" id="clipitem-143">
                    <name>Antonio.140.png</name>
                    <masterclipid>masterclip-142</masterclipid>
                    <rate>
                      <timebase>24</timebase>
                      <ntsc>FALSE</ntsc>
                    </rate>
                    <alphatype>straight</alphatype>
                    <pixelaspectratio>square</pixelaspectratio>
                    <anamorphic>FALSE</anamorphic>
                    <file id="file-142">
                      <name>Antonio.140.png</name>
                      <pathurl>file://localhost/Users/antoniochiappetta/OneDrive - Aalto University/University/Aalto/Hackatons/Junction/Junction2019-IoK-security_awareness_kids/Assets/Team Animations/Image Sequences/Antonio/Antonio.140.png</pathurl>
                      <rate>
                        <timebase>24</timebase>
                        <ntsc>FALSE</ntsc>
                      </rate>
                      <duration>162</duration>
                      <timecode>
                        <rate>
                          <timebase>24</timebase>
                          <ntsc>FALSE</ntsc>
                        </rate>
                      </timecode>
                      <media>
                        <video>
                          <duration>1</duration>
                          <samplecharacteristics>
                            <anamorphic>FALSE</anamorphic>
                            <pixelaspectratio>square</pixelaspectratio>
                            <fielddominance>none</fielddominance>
                            <width>686</width>
                            <height>511</height>
                          </samplecharacteristics>
                        </video>
                      </media>
                    </file>
                  </clipitem>
                </track>
              </video>
            </media>
          </clip>
          <clip explodedTracks="true" frameBlend="FALSE" id="masterclip-143">
            <uuid>166cb3b7-4786-44a0-aed4-7c448e8b85b4</uuid>
            <masterclipid>masterclip-143</masterclipid>
            <ismasterclip>TRUE</ismasterclip>
            <duration>162</duration>
            <in>0</in>
            <out>162</out>
            <name>Antonio.141.png</name>
            <rate>
              <timebase>24</timebase>
              <ntsc>FALSE</ntsc>
            </rate>
            <media>
              <video>
                <track>
                  <clipitem frameBlend="FALSE" id="clipitem-144">
                    <name>Antonio.141.png</name>
                    <masterclipid>masterclip-143</masterclipid>
                    <rate>
                      <timebase>24</timebase>
                      <ntsc>FALSE</ntsc>
                    </rate>
                    <alphatype>straight</alphatype>
                    <pixelaspectratio>square</pixelaspectratio>
                    <anamorphic>FALSE</anamorphic>
                    <file id="file-143">
                      <name>Antonio.141.png</name>
                      <pathurl>file://localhost/Users/antoniochiappetta/OneDrive - Aalto University/University/Aalto/Hackatons/Junction/Junction2019-IoK-security_awareness_kids/Assets/Team Animations/Image Sequences/Antonio/Antonio.141.png</pathurl>
                      <rate>
                        <timebase>24</timebase>
                        <ntsc>FALSE</ntsc>
                      </rate>
                      <duration>162</duration>
                      <timecode>
                        <rate>
                          <timebase>24</timebase>
                          <ntsc>FALSE</ntsc>
                        </rate>
                      </timecode>
                      <media>
                        <video>
                          <duration>1</duration>
                          <samplecharacteristics>
                            <anamorphic>FALSE</anamorphic>
                            <pixelaspectratio>square</pixelaspectratio>
                            <fielddominance>none</fielddominance>
                            <width>686</width>
                            <height>511</height>
                          </samplecharacteristics>
                        </video>
                      </media>
                    </file>
                  </clipitem>
                </track>
              </video>
            </media>
          </clip>
          <clip explodedTracks="true" frameBlend="FALSE" id="masterclip-144">
            <uuid>24356a31-5088-49b9-8839-703b1c3ca47a</uuid>
            <masterclipid>masterclip-144</masterclipid>
            <ismasterclip>TRUE</ismasterclip>
            <duration>162</duration>
            <in>0</in>
            <out>162</out>
            <name>Antonio.142.png</name>
            <rate>
              <timebase>24</timebase>
              <ntsc>FALSE</ntsc>
            </rate>
            <media>
              <video>
                <track>
                  <clipitem frameBlend="FALSE" id="clipitem-145">
                    <name>Antonio.142.png</name>
                    <masterclipid>masterclip-144</masterclipid>
                    <rate>
                      <timebase>24</timebase>
                      <ntsc>FALSE</ntsc>
                    </rate>
                    <alphatype>straight</alphatype>
                    <pixelaspectratio>square</pixelaspectratio>
                    <anamorphic>FALSE</anamorphic>
                    <file id="file-144">
                      <name>Antonio.142.png</name>
                      <pathurl>file://localhost/Users/antoniochiappetta/OneDrive - Aalto University/University/Aalto/Hackatons/Junction/Junction2019-IoK-security_awareness_kids/Assets/Team Animations/Image Sequences/Antonio/Antonio.142.png</pathurl>
                      <rate>
                        <timebase>24</timebase>
                        <ntsc>FALSE</ntsc>
                      </rate>
                      <duration>162</duration>
                      <timecode>
                        <rate>
                          <timebase>24</timebase>
                          <ntsc>FALSE</ntsc>
                        </rate>
                      </timecode>
                      <media>
                        <video>
                          <duration>1</duration>
                          <samplecharacteristics>
                            <anamorphic>FALSE</anamorphic>
                            <pixelaspectratio>square</pixelaspectratio>
                            <fielddominance>none</fielddominance>
                            <width>686</width>
                            <height>511</height>
                          </samplecharacteristics>
                        </video>
                      </media>
                    </file>
                  </clipitem>
                </track>
              </video>
            </media>
          </clip>
          <clip explodedTracks="true" frameBlend="FALSE" id="masterclip-145">
            <uuid>af0f5d5f-9913-4e5a-a974-8addea2895e2</uuid>
            <masterclipid>masterclip-145</masterclipid>
            <ismasterclip>TRUE</ismasterclip>
            <duration>162</duration>
            <in>0</in>
            <out>162</out>
            <name>Antonio.143.png</name>
            <rate>
              <timebase>24</timebase>
              <ntsc>FALSE</ntsc>
            </rate>
            <media>
              <video>
                <track>
                  <clipitem frameBlend="FALSE" id="clipitem-146">
                    <name>Antonio.143.png</name>
                    <masterclipid>masterclip-145</masterclipid>
                    <rate>
                      <timebase>24</timebase>
                      <ntsc>FALSE</ntsc>
                    </rate>
                    <alphatype>straight</alphatype>
                    <pixelaspectratio>square</pixelaspectratio>
                    <anamorphic>FALSE</anamorphic>
                    <file id="file-145">
                      <name>Antonio.143.png</name>
                      <pathurl>file://localhost/Users/antoniochiappetta/OneDrive - Aalto University/University/Aalto/Hackatons/Junction/Junction2019-IoK-security_awareness_kids/Assets/Team Animations/Image Sequences/Antonio/Antonio.143.png</pathurl>
                      <rate>
                        <timebase>24</timebase>
                        <ntsc>FALSE</ntsc>
                      </rate>
                      <duration>162</duration>
                      <timecode>
                        <rate>
                          <timebase>24</timebase>
                          <ntsc>FALSE</ntsc>
                        </rate>
                      </timecode>
                      <media>
                        <video>
                          <duration>1</duration>
                          <samplecharacteristics>
                            <anamorphic>FALSE</anamorphic>
                            <pixelaspectratio>square</pixelaspectratio>
                            <fielddominance>none</fielddominance>
                            <width>686</width>
                            <height>511</height>
                          </samplecharacteristics>
                        </video>
                      </media>
                    </file>
                  </clipitem>
                </track>
              </video>
            </media>
          </clip>
          <clip explodedTracks="true" frameBlend="FALSE" id="masterclip-146">
            <uuid>6a8f1255-525e-4dca-b328-65e0e5542cc0</uuid>
            <masterclipid>masterclip-146</masterclipid>
            <ismasterclip>TRUE</ismasterclip>
            <duration>162</duration>
            <in>0</in>
            <out>162</out>
            <name>Antonio.144.png</name>
            <rate>
              <timebase>24</timebase>
              <ntsc>FALSE</ntsc>
            </rate>
            <media>
              <video>
                <track>
                  <clipitem frameBlend="FALSE" id="clipitem-147">
                    <name>Antonio.144.png</name>
                    <masterclipid>masterclip-146</masterclipid>
                    <rate>
                      <timebase>24</timebase>
                      <ntsc>FALSE</ntsc>
                    </rate>
                    <alphatype>straight</alphatype>
                    <pixelaspectratio>square</pixelaspectratio>
                    <anamorphic>FALSE</anamorphic>
                    <file id="file-146">
                      <name>Antonio.144.png</name>
                      <pathurl>file://localhost/Users/antoniochiappetta/OneDrive - Aalto University/University/Aalto/Hackatons/Junction/Junction2019-IoK-security_awareness_kids/Assets/Team Animations/Image Sequences/Antonio/Antonio.144.png</pathurl>
                      <rate>
                        <timebase>24</timebase>
                        <ntsc>FALSE</ntsc>
                      </rate>
                      <duration>162</duration>
                      <timecode>
                        <rate>
                          <timebase>24</timebase>
                          <ntsc>FALSE</ntsc>
                        </rate>
                      </timecode>
                      <media>
                        <video>
                          <duration>1</duration>
                          <samplecharacteristics>
                            <anamorphic>FALSE</anamorphic>
                            <pixelaspectratio>square</pixelaspectratio>
                            <fielddominance>none</fielddominance>
                            <width>686</width>
                            <height>511</height>
                          </samplecharacteristics>
                        </video>
                      </media>
                    </file>
                  </clipitem>
                </track>
              </video>
            </media>
          </clip>
          <clip explodedTracks="true" frameBlend="FALSE" id="masterclip-147">
            <uuid>616e02d0-ddb2-4814-a247-dddf2a339de7</uuid>
            <masterclipid>masterclip-147</masterclipid>
            <ismasterclip>TRUE</ismasterclip>
            <duration>162</duration>
            <in>0</in>
            <out>162</out>
            <name>Antonio.145.png</name>
            <rate>
              <timebase>24</timebase>
              <ntsc>FALSE</ntsc>
            </rate>
            <media>
              <video>
                <track>
                  <clipitem frameBlend="FALSE" id="clipitem-148">
                    <name>Antonio.145.png</name>
                    <masterclipid>masterclip-147</masterclipid>
                    <rate>
                      <timebase>24</timebase>
                      <ntsc>FALSE</ntsc>
                    </rate>
                    <alphatype>straight</alphatype>
                    <pixelaspectratio>square</pixelaspectratio>
                    <anamorphic>FALSE</anamorphic>
                    <file id="file-147">
                      <name>Antonio.145.png</name>
                      <pathurl>file://localhost/Users/antoniochiappetta/OneDrive - Aalto University/University/Aalto/Hackatons/Junction/Junction2019-IoK-security_awareness_kids/Assets/Team Animations/Image Sequences/Antonio/Antonio.145.png</pathurl>
                      <rate>
                        <timebase>24</timebase>
                        <ntsc>FALSE</ntsc>
                      </rate>
                      <duration>162</duration>
                      <timecode>
                        <rate>
                          <timebase>24</timebase>
                          <ntsc>FALSE</ntsc>
                        </rate>
                      </timecode>
                      <media>
                        <video>
                          <duration>1</duration>
                          <samplecharacteristics>
                            <anamorphic>FALSE</anamorphic>
                            <pixelaspectratio>square</pixelaspectratio>
                            <fielddominance>none</fielddominance>
                            <width>686</width>
                            <height>511</height>
                          </samplecharacteristics>
                        </video>
                      </media>
                    </file>
                  </clipitem>
                </track>
              </video>
            </media>
          </clip>
          <clip explodedTracks="true" frameBlend="FALSE" id="masterclip-148">
            <uuid>b69d9c7c-77c9-4154-b7b2-60cad95d3a89</uuid>
            <masterclipid>masterclip-148</masterclipid>
            <ismasterclip>TRUE</ismasterclip>
            <duration>162</duration>
            <in>0</in>
            <out>162</out>
            <name>Antonio.146.png</name>
            <rate>
              <timebase>24</timebase>
              <ntsc>FALSE</ntsc>
            </rate>
            <media>
              <video>
                <track>
                  <clipitem frameBlend="FALSE" id="clipitem-149">
                    <name>Antonio.146.png</name>
                    <masterclipid>masterclip-148</masterclipid>
                    <rate>
                      <timebase>24</timebase>
                      <ntsc>FALSE</ntsc>
                    </rate>
                    <alphatype>straight</alphatype>
                    <pixelaspectratio>square</pixelaspectratio>
                    <anamorphic>FALSE</anamorphic>
                    <file id="file-148">
                      <name>Antonio.146.png</name>
                      <pathurl>file://localhost/Users/antoniochiappetta/OneDrive - Aalto University/University/Aalto/Hackatons/Junction/Junction2019-IoK-security_awareness_kids/Assets/Team Animations/Image Sequences/Antonio/Antonio.146.png</pathurl>
                      <rate>
                        <timebase>24</timebase>
                        <ntsc>FALSE</ntsc>
                      </rate>
                      <duration>162</duration>
                      <timecode>
                        <rate>
                          <timebase>24</timebase>
                          <ntsc>FALSE</ntsc>
                        </rate>
                      </timecode>
                      <media>
                        <video>
                          <duration>1</duration>
                          <samplecharacteristics>
                            <anamorphic>FALSE</anamorphic>
                            <pixelaspectratio>square</pixelaspectratio>
                            <fielddominance>none</fielddominance>
                            <width>686</width>
                            <height>511</height>
                          </samplecharacteristics>
                        </video>
                      </media>
                    </file>
                  </clipitem>
                </track>
              </video>
            </media>
          </clip>
          <clip explodedTracks="true" frameBlend="FALSE" id="masterclip-149">
            <uuid>ec3fda44-8538-476d-8b08-b06769bec5c5</uuid>
            <masterclipid>masterclip-149</masterclipid>
            <ismasterclip>TRUE</ismasterclip>
            <duration>162</duration>
            <in>0</in>
            <out>162</out>
            <name>Antonio.147.png</name>
            <rate>
              <timebase>24</timebase>
              <ntsc>FALSE</ntsc>
            </rate>
            <media>
              <video>
                <track>
                  <clipitem frameBlend="FALSE" id="clipitem-150">
                    <name>Antonio.147.png</name>
                    <masterclipid>masterclip-149</masterclipid>
                    <rate>
                      <timebase>24</timebase>
                      <ntsc>FALSE</ntsc>
                    </rate>
                    <alphatype>straight</alphatype>
                    <pixelaspectratio>square</pixelaspectratio>
                    <anamorphic>FALSE</anamorphic>
                    <file id="file-149">
                      <name>Antonio.147.png</name>
                      <pathurl>file://localhost/Users/antoniochiappetta/OneDrive - Aalto University/University/Aalto/Hackatons/Junction/Junction2019-IoK-security_awareness_kids/Assets/Team Animations/Image Sequences/Antonio/Antonio.147.png</pathurl>
                      <rate>
                        <timebase>24</timebase>
                        <ntsc>FALSE</ntsc>
                      </rate>
                      <duration>162</duration>
                      <timecode>
                        <rate>
                          <timebase>24</timebase>
                          <ntsc>FALSE</ntsc>
                        </rate>
                      </timecode>
                      <media>
                        <video>
                          <duration>1</duration>
                          <samplecharacteristics>
                            <anamorphic>FALSE</anamorphic>
                            <pixelaspectratio>square</pixelaspectratio>
                            <fielddominance>none</fielddominance>
                            <width>686</width>
                            <height>511</height>
                          </samplecharacteristics>
                        </video>
                      </media>
                    </file>
                  </clipitem>
                </track>
              </video>
            </media>
          </clip>
          <clip explodedTracks="true" frameBlend="FALSE" id="masterclip-150">
            <uuid>88d7ee7f-a9b4-4ae2-a965-e977e2267f56</uuid>
            <masterclipid>masterclip-150</masterclipid>
            <ismasterclip>TRUE</ismasterclip>
            <duration>162</duration>
            <in>0</in>
            <out>162</out>
            <name>Antonio.148.png</name>
            <rate>
              <timebase>24</timebase>
              <ntsc>FALSE</ntsc>
            </rate>
            <media>
              <video>
                <track>
                  <clipitem frameBlend="FALSE" id="clipitem-151">
                    <name>Antonio.148.png</name>
                    <masterclipid>masterclip-150</masterclipid>
                    <rate>
                      <timebase>24</timebase>
                      <ntsc>FALSE</ntsc>
                    </rate>
                    <alphatype>straight</alphatype>
                    <pixelaspectratio>square</pixelaspectratio>
                    <anamorphic>FALSE</anamorphic>
                    <file id="file-150">
                      <name>Antonio.148.png</name>
                      <pathurl>file://localhost/Users/antoniochiappetta/OneDrive - Aalto University/University/Aalto/Hackatons/Junction/Junction2019-IoK-security_awareness_kids/Assets/Team Animations/Image Sequences/Antonio/Antonio.148.png</pathurl>
                      <rate>
                        <timebase>24</timebase>
                        <ntsc>FALSE</ntsc>
                      </rate>
                      <duration>162</duration>
                      <timecode>
                        <rate>
                          <timebase>24</timebase>
                          <ntsc>FALSE</ntsc>
                        </rate>
                      </timecode>
                      <media>
                        <video>
                          <duration>1</duration>
                          <samplecharacteristics>
                            <anamorphic>FALSE</anamorphic>
                            <pixelaspectratio>square</pixelaspectratio>
                            <fielddominance>none</fielddominance>
                            <width>686</width>
                            <height>511</height>
                          </samplecharacteristics>
                        </video>
                      </media>
                    </file>
                  </clipitem>
                </track>
              </video>
            </media>
          </clip>
          <clip explodedTracks="true" frameBlend="FALSE" id="masterclip-151">
            <uuid>88c599f2-1771-460f-b869-7c6add5b9f5a</uuid>
            <masterclipid>masterclip-151</masterclipid>
            <ismasterclip>TRUE</ismasterclip>
            <duration>162</duration>
            <in>0</in>
            <out>162</out>
            <name>Antonio.149.png</name>
            <rate>
              <timebase>24</timebase>
              <ntsc>FALSE</ntsc>
            </rate>
            <media>
              <video>
                <track>
                  <clipitem frameBlend="FALSE" id="clipitem-152">
                    <name>Antonio.149.png</name>
                    <masterclipid>masterclip-151</masterclipid>
                    <rate>
                      <timebase>24</timebase>
                      <ntsc>FALSE</ntsc>
                    </rate>
                    <alphatype>straight</alphatype>
                    <pixelaspectratio>square</pixelaspectratio>
                    <anamorphic>FALSE</anamorphic>
                    <file id="file-151">
                      <name>Antonio.149.png</name>
                      <pathurl>file://localhost/Users/antoniochiappetta/OneDrive - Aalto University/University/Aalto/Hackatons/Junction/Junction2019-IoK-security_awareness_kids/Assets/Team Animations/Image Sequences/Antonio/Antonio.149.png</pathurl>
                      <rate>
                        <timebase>24</timebase>
                        <ntsc>FALSE</ntsc>
                      </rate>
                      <duration>162</duration>
                      <timecode>
                        <rate>
                          <timebase>24</timebase>
                          <ntsc>FALSE</ntsc>
                        </rate>
                      </timecode>
                      <media>
                        <video>
                          <duration>1</duration>
                          <samplecharacteristics>
                            <anamorphic>FALSE</anamorphic>
                            <pixelaspectratio>square</pixelaspectratio>
                            <fielddominance>none</fielddominance>
                            <width>686</width>
                            <height>511</height>
                          </samplecharacteristics>
                        </video>
                      </media>
                    </file>
                  </clipitem>
                </track>
              </video>
            </media>
          </clip>
          <clip explodedTracks="true" frameBlend="FALSE" id="masterclip-152">
            <uuid>a12d4a5e-ce82-465e-8bc4-df17a597b157</uuid>
            <masterclipid>masterclip-152</masterclipid>
            <ismasterclip>TRUE</ismasterclip>
            <duration>162</duration>
            <in>0</in>
            <out>162</out>
            <name>Antonio.150.png</name>
            <rate>
              <timebase>24</timebase>
              <ntsc>FALSE</ntsc>
            </rate>
            <media>
              <video>
                <track>
                  <clipitem frameBlend="FALSE" id="clipitem-153">
                    <name>Antonio.150.png</name>
                    <masterclipid>masterclip-152</masterclipid>
                    <rate>
                      <timebase>24</timebase>
                      <ntsc>FALSE</ntsc>
                    </rate>
                    <alphatype>straight</alphatype>
                    <pixelaspectratio>square</pixelaspectratio>
                    <anamorphic>FALSE</anamorphic>
                    <file id="file-152">
                      <name>Antonio.150.png</name>
                      <pathurl>file://localhost/Users/antoniochiappetta/OneDrive - Aalto University/University/Aalto/Hackatons/Junction/Junction2019-IoK-security_awareness_kids/Assets/Team Animations/Image Sequences/Antonio/Antonio.150.png</pathurl>
                      <rate>
                        <timebase>24</timebase>
                        <ntsc>FALSE</ntsc>
                      </rate>
                      <duration>162</duration>
                      <timecode>
                        <rate>
                          <timebase>24</timebase>
                          <ntsc>FALSE</ntsc>
                        </rate>
                      </timecode>
                      <media>
                        <video>
                          <duration>1</duration>
                          <samplecharacteristics>
                            <anamorphic>FALSE</anamorphic>
                            <pixelaspectratio>square</pixelaspectratio>
                            <fielddominance>none</fielddominance>
                            <width>686</width>
                            <height>511</height>
                          </samplecharacteristics>
                        </video>
                      </media>
                    </file>
                  </clipitem>
                </track>
              </video>
            </media>
          </clip>
          <clip explodedTracks="true" frameBlend="FALSE" id="masterclip-153">
            <uuid>20a056b8-db94-4186-98c5-0d1aa4c56a4c</uuid>
            <masterclipid>masterclip-153</masterclipid>
            <ismasterclip>TRUE</ismasterclip>
            <duration>162</duration>
            <in>0</in>
            <out>162</out>
            <name>Antonio.151.png</name>
            <rate>
              <timebase>24</timebase>
              <ntsc>FALSE</ntsc>
            </rate>
            <media>
              <video>
                <track>
                  <clipitem frameBlend="FALSE" id="clipitem-154">
                    <name>Antonio.151.png</name>
                    <masterclipid>masterclip-153</masterclipid>
                    <rate>
                      <timebase>24</timebase>
                      <ntsc>FALSE</ntsc>
                    </rate>
                    <alphatype>straight</alphatype>
                    <pixelaspectratio>square</pixelaspectratio>
                    <anamorphic>FALSE</anamorphic>
                    <file id="file-153">
                      <name>Antonio.151.png</name>
                      <pathurl>file://localhost/Users/antoniochiappetta/OneDrive - Aalto University/University/Aalto/Hackatons/Junction/Junction2019-IoK-security_awareness_kids/Assets/Team Animations/Image Sequences/Antonio/Antonio.151.png</pathurl>
                      <rate>
                        <timebase>24</timebase>
                        <ntsc>FALSE</ntsc>
                      </rate>
                      <duration>162</duration>
                      <timecode>
                        <rate>
                          <timebase>24</timebase>
                          <ntsc>FALSE</ntsc>
                        </rate>
                      </timecode>
                      <media>
                        <video>
                          <duration>1</duration>
                          <samplecharacteristics>
                            <anamorphic>FALSE</anamorphic>
                            <pixelaspectratio>square</pixelaspectratio>
                            <fielddominance>none</fielddominance>
                            <width>686</width>
                            <height>511</height>
                          </samplecharacteristics>
                        </video>
                      </media>
                    </file>
                  </clipitem>
                </track>
              </video>
            </media>
          </clip>
          <clip explodedTracks="true" frameBlend="FALSE" id="masterclip-154">
            <uuid>faa10739-05ac-44e6-a550-8a8990dcd015</uuid>
            <masterclipid>masterclip-154</masterclipid>
            <ismasterclip>TRUE</ismasterclip>
            <duration>162</duration>
            <in>0</in>
            <out>162</out>
            <name>Antonio.152.png</name>
            <rate>
              <timebase>24</timebase>
              <ntsc>FALSE</ntsc>
            </rate>
            <media>
              <video>
                <track>
                  <clipitem frameBlend="FALSE" id="clipitem-155">
                    <name>Antonio.152.png</name>
                    <masterclipid>masterclip-154</masterclipid>
                    <rate>
                      <timebase>24</timebase>
                      <ntsc>FALSE</ntsc>
                    </rate>
                    <alphatype>straight</alphatype>
                    <pixelaspectratio>square</pixelaspectratio>
                    <anamorphic>FALSE</anamorphic>
                    <file id="file-154">
                      <name>Antonio.152.png</name>
                      <pathurl>file://localhost/Users/antoniochiappetta/OneDrive - Aalto University/University/Aalto/Hackatons/Junction/Junction2019-IoK-security_awareness_kids/Assets/Team Animations/Image Sequences/Antonio/Antonio.152.png</pathurl>
                      <rate>
                        <timebase>24</timebase>
                        <ntsc>FALSE</ntsc>
                      </rate>
                      <duration>162</duration>
                      <timecode>
                        <rate>
                          <timebase>24</timebase>
                          <ntsc>FALSE</ntsc>
                        </rate>
                      </timecode>
                      <media>
                        <video>
                          <duration>1</duration>
                          <samplecharacteristics>
                            <anamorphic>FALSE</anamorphic>
                            <pixelaspectratio>square</pixelaspectratio>
                            <fielddominance>none</fielddominance>
                            <width>686</width>
                            <height>511</height>
                          </samplecharacteristics>
                        </video>
                      </media>
                    </file>
                  </clipitem>
                </track>
              </video>
            </media>
          </clip>
          <clip explodedTracks="true" frameBlend="FALSE" id="masterclip-155">
            <uuid>34521d55-ad56-407a-92b4-7b82acb78ff5</uuid>
            <masterclipid>masterclip-155</masterclipid>
            <ismasterclip>TRUE</ismasterclip>
            <duration>162</duration>
            <in>0</in>
            <out>162</out>
            <name>Antonio.153.png</name>
            <rate>
              <timebase>24</timebase>
              <ntsc>FALSE</ntsc>
            </rate>
            <media>
              <video>
                <track>
                  <clipitem frameBlend="FALSE" id="clipitem-156">
                    <name>Antonio.153.png</name>
                    <masterclipid>masterclip-155</masterclipid>
                    <rate>
                      <timebase>24</timebase>
                      <ntsc>FALSE</ntsc>
                    </rate>
                    <alphatype>straight</alphatype>
                    <pixelaspectratio>square</pixelaspectratio>
                    <anamorphic>FALSE</anamorphic>
                    <file id="file-155">
                      <name>Antonio.153.png</name>
                      <pathurl>file://localhost/Users/antoniochiappetta/OneDrive - Aalto University/University/Aalto/Hackatons/Junction/Junction2019-IoK-security_awareness_kids/Assets/Team Animations/Image Sequences/Antonio/Antonio.153.png</pathurl>
                      <rate>
                        <timebase>24</timebase>
                        <ntsc>FALSE</ntsc>
                      </rate>
                      <duration>162</duration>
                      <timecode>
                        <rate>
                          <timebase>24</timebase>
                          <ntsc>FALSE</ntsc>
                        </rate>
                      </timecode>
                      <media>
                        <video>
                          <duration>1</duration>
                          <samplecharacteristics>
                            <anamorphic>FALSE</anamorphic>
                            <pixelaspectratio>square</pixelaspectratio>
                            <fielddominance>none</fielddominance>
                            <width>686</width>
                            <height>511</height>
                          </samplecharacteristics>
                        </video>
                      </media>
                    </file>
                  </clipitem>
                </track>
              </video>
            </media>
          </clip>
          <clip explodedTracks="true" frameBlend="FALSE" id="masterclip-156">
            <uuid>839beaf8-bdf5-491a-ad42-8d56a96647c2</uuid>
            <masterclipid>masterclip-156</masterclipid>
            <ismasterclip>TRUE</ismasterclip>
            <duration>162</duration>
            <in>0</in>
            <out>162</out>
            <name>Antonio.154.png</name>
            <rate>
              <timebase>24</timebase>
              <ntsc>FALSE</ntsc>
            </rate>
            <media>
              <video>
                <track>
                  <clipitem frameBlend="FALSE" id="clipitem-157">
                    <name>Antonio.154.png</name>
                    <masterclipid>masterclip-156</masterclipid>
                    <rate>
                      <timebase>24</timebase>
                      <ntsc>FALSE</ntsc>
                    </rate>
                    <alphatype>straight</alphatype>
                    <pixelaspectratio>square</pixelaspectratio>
                    <anamorphic>FALSE</anamorphic>
                    <file id="file-156">
                      <name>Antonio.154.png</name>
                      <pathurl>file://localhost/Users/antoniochiappetta/OneDrive - Aalto University/University/Aalto/Hackatons/Junction/Junction2019-IoK-security_awareness_kids/Assets/Team Animations/Image Sequences/Antonio/Antonio.154.png</pathurl>
                      <rate>
                        <timebase>24</timebase>
                        <ntsc>FALSE</ntsc>
                      </rate>
                      <duration>162</duration>
                      <timecode>
                        <rate>
                          <timebase>24</timebase>
                          <ntsc>FALSE</ntsc>
                        </rate>
                      </timecode>
                      <media>
                        <video>
                          <duration>1</duration>
                          <samplecharacteristics>
                            <anamorphic>FALSE</anamorphic>
                            <pixelaspectratio>square</pixelaspectratio>
                            <fielddominance>none</fielddominance>
                            <width>686</width>
                            <height>511</height>
                          </samplecharacteristics>
                        </video>
                      </media>
                    </file>
                  </clipitem>
                </track>
              </video>
            </media>
          </clip>
          <clip explodedTracks="true" frameBlend="FALSE" id="masterclip-157">
            <uuid>7bb77434-0171-40c4-b4fb-5b7c59c657fb</uuid>
            <masterclipid>masterclip-157</masterclipid>
            <ismasterclip>TRUE</ismasterclip>
            <duration>162</duration>
            <in>0</in>
            <out>162</out>
            <name>Antonio.155.png</name>
            <rate>
              <timebase>24</timebase>
              <ntsc>FALSE</ntsc>
            </rate>
            <media>
              <video>
                <track>
                  <clipitem frameBlend="FALSE" id="clipitem-158">
                    <name>Antonio.155.png</name>
                    <masterclipid>masterclip-157</masterclipid>
                    <rate>
                      <timebase>24</timebase>
                      <ntsc>FALSE</ntsc>
                    </rate>
                    <alphatype>straight</alphatype>
                    <pixelaspectratio>square</pixelaspectratio>
                    <anamorphic>FALSE</anamorphic>
                    <file id="file-157">
                      <name>Antonio.155.png</name>
                      <pathurl>file://localhost/Users/antoniochiappetta/OneDrive - Aalto University/University/Aalto/Hackatons/Junction/Junction2019-IoK-security_awareness_kids/Assets/Team Animations/Image Sequences/Antonio/Antonio.155.png</pathurl>
                      <rate>
                        <timebase>24</timebase>
                        <ntsc>FALSE</ntsc>
                      </rate>
                      <duration>162</duration>
                      <timecode>
                        <rate>
                          <timebase>24</timebase>
                          <ntsc>FALSE</ntsc>
                        </rate>
                      </timecode>
                      <media>
                        <video>
                          <duration>1</duration>
                          <samplecharacteristics>
                            <anamorphic>FALSE</anamorphic>
                            <pixelaspectratio>square</pixelaspectratio>
                            <fielddominance>none</fielddominance>
                            <width>686</width>
                            <height>511</height>
                          </samplecharacteristics>
                        </video>
                      </media>
                    </file>
                  </clipitem>
                </track>
              </video>
            </media>
          </clip>
          <clip explodedTracks="true" frameBlend="FALSE" id="masterclip-158">
            <uuid>85d7e323-53c4-401e-8ce2-f2ab28111c4a</uuid>
            <masterclipid>masterclip-158</masterclipid>
            <ismasterclip>TRUE</ismasterclip>
            <duration>162</duration>
            <in>0</in>
            <out>162</out>
            <name>Antonio.156.png</name>
            <rate>
              <timebase>24</timebase>
              <ntsc>FALSE</ntsc>
            </rate>
            <media>
              <video>
                <track>
                  <clipitem frameBlend="FALSE" id="clipitem-159">
                    <name>Antonio.156.png</name>
                    <masterclipid>masterclip-158</masterclipid>
                    <rate>
                      <timebase>24</timebase>
                      <ntsc>FALSE</ntsc>
                    </rate>
                    <alphatype>straight</alphatype>
                    <pixelaspectratio>square</pixelaspectratio>
                    <anamorphic>FALSE</anamorphic>
                    <file id="file-158">
                      <name>Antonio.156.png</name>
                      <pathurl>file://localhost/Users/antoniochiappetta/OneDrive - Aalto University/University/Aalto/Hackatons/Junction/Junction2019-IoK-security_awareness_kids/Assets/Team Animations/Image Sequences/Antonio/Antonio.156.png</pathurl>
                      <rate>
                        <timebase>24</timebase>
                        <ntsc>FALSE</ntsc>
                      </rate>
                      <duration>162</duration>
                      <timecode>
                        <rate>
                          <timebase>24</timebase>
                          <ntsc>FALSE</ntsc>
                        </rate>
                      </timecode>
                      <media>
                        <video>
                          <duration>1</duration>
                          <samplecharacteristics>
                            <anamorphic>FALSE</anamorphic>
                            <pixelaspectratio>square</pixelaspectratio>
                            <fielddominance>none</fielddominance>
                            <width>686</width>
                            <height>511</height>
                          </samplecharacteristics>
                        </video>
                      </media>
                    </file>
                  </clipitem>
                </track>
              </video>
            </media>
          </clip>
          <clip explodedTracks="true" frameBlend="FALSE" id="masterclip-159">
            <uuid>61dd8d9b-01b6-42fb-a053-c716eef0b8a7</uuid>
            <masterclipid>masterclip-159</masterclipid>
            <ismasterclip>TRUE</ismasterclip>
            <duration>162</duration>
            <in>0</in>
            <out>162</out>
            <name>Antonio.157.png</name>
            <rate>
              <timebase>24</timebase>
              <ntsc>FALSE</ntsc>
            </rate>
            <media>
              <video>
                <track>
                  <clipitem frameBlend="FALSE" id="clipitem-160">
                    <name>Antonio.157.png</name>
                    <masterclipid>masterclip-159</masterclipid>
                    <rate>
                      <timebase>24</timebase>
                      <ntsc>FALSE</ntsc>
                    </rate>
                    <alphatype>straight</alphatype>
                    <pixelaspectratio>square</pixelaspectratio>
                    <anamorphic>FALSE</anamorphic>
                    <file id="file-159">
                      <name>Antonio.157.png</name>
                      <pathurl>file://localhost/Users/antoniochiappetta/OneDrive - Aalto University/University/Aalto/Hackatons/Junction/Junction2019-IoK-security_awareness_kids/Assets/Team Animations/Image Sequences/Antonio/Antonio.157.png</pathurl>
                      <rate>
                        <timebase>24</timebase>
                        <ntsc>FALSE</ntsc>
                      </rate>
                      <duration>162</duration>
                      <timecode>
                        <rate>
                          <timebase>24</timebase>
                          <ntsc>FALSE</ntsc>
                        </rate>
                      </timecode>
                      <media>
                        <video>
                          <duration>1</duration>
                          <samplecharacteristics>
                            <anamorphic>FALSE</anamorphic>
                            <pixelaspectratio>square</pixelaspectratio>
                            <fielddominance>none</fielddominance>
                            <width>686</width>
                            <height>511</height>
                          </samplecharacteristics>
                        </video>
                      </media>
                    </file>
                  </clipitem>
                </track>
              </video>
            </media>
          </clip>
          <clip explodedTracks="true" frameBlend="FALSE" id="masterclip-160">
            <uuid>6c0c186f-fadc-4e5b-91b0-618094818270</uuid>
            <masterclipid>masterclip-160</masterclipid>
            <ismasterclip>TRUE</ismasterclip>
            <duration>162</duration>
            <in>0</in>
            <out>162</out>
            <name>Antonio.158.png</name>
            <rate>
              <timebase>24</timebase>
              <ntsc>FALSE</ntsc>
            </rate>
            <media>
              <video>
                <track>
                  <clipitem frameBlend="FALSE" id="clipitem-161">
                    <name>Antonio.158.png</name>
                    <masterclipid>masterclip-160</masterclipid>
                    <rate>
                      <timebase>24</timebase>
                      <ntsc>FALSE</ntsc>
                    </rate>
                    <alphatype>straight</alphatype>
                    <pixelaspectratio>square</pixelaspectratio>
                    <anamorphic>FALSE</anamorphic>
                    <file id="file-160">
                      <name>Antonio.158.png</name>
                      <pathurl>file://localhost/Users/antoniochiappetta/OneDrive - Aalto University/University/Aalto/Hackatons/Junction/Junction2019-IoK-security_awareness_kids/Assets/Team Animations/Image Sequences/Antonio/Antonio.158.png</pathurl>
                      <rate>
                        <timebase>24</timebase>
                        <ntsc>FALSE</ntsc>
                      </rate>
                      <duration>162</duration>
                      <timecode>
                        <rate>
                          <timebase>24</timebase>
                          <ntsc>FALSE</ntsc>
                        </rate>
                      </timecode>
                      <media>
                        <video>
                          <duration>1</duration>
                          <samplecharacteristics>
                            <anamorphic>FALSE</anamorphic>
                            <pixelaspectratio>square</pixelaspectratio>
                            <fielddominance>none</fielddominance>
                            <width>686</width>
                            <height>511</height>
                          </samplecharacteristics>
                        </video>
                      </media>
                    </file>
                  </clipitem>
                </track>
              </video>
            </media>
          </clip>
          <clip explodedTracks="true" frameBlend="FALSE" id="masterclip-161">
            <uuid>e41e6d5e-1d8f-4ad4-9546-cd14393d35c7</uuid>
            <masterclipid>masterclip-161</masterclipid>
            <ismasterclip>TRUE</ismasterclip>
            <duration>162</duration>
            <in>0</in>
            <out>162</out>
            <name>Antonio.159.png</name>
            <rate>
              <timebase>24</timebase>
              <ntsc>FALSE</ntsc>
            </rate>
            <media>
              <video>
                <track>
                  <clipitem frameBlend="FALSE" id="clipitem-162">
                    <name>Antonio.159.png</name>
                    <masterclipid>masterclip-161</masterclipid>
                    <rate>
                      <timebase>24</timebase>
                      <ntsc>FALSE</ntsc>
                    </rate>
                    <alphatype>straight</alphatype>
                    <pixelaspectratio>square</pixelaspectratio>
                    <anamorphic>FALSE</anamorphic>
                    <file id="file-161">
                      <name>Antonio.159.png</name>
                      <pathurl>file://localhost/Users/antoniochiappetta/OneDrive - Aalto University/University/Aalto/Hackatons/Junction/Junction2019-IoK-security_awareness_kids/Assets/Team Animations/Image Sequences/Antonio/Antonio.159.png</pathurl>
                      <rate>
                        <timebase>24</timebase>
                        <ntsc>FALSE</ntsc>
                      </rate>
                      <duration>162</duration>
                      <timecode>
                        <rate>
                          <timebase>24</timebase>
                          <ntsc>FALSE</ntsc>
                        </rate>
                      </timecode>
                      <media>
                        <video>
                          <duration>1</duration>
                          <samplecharacteristics>
                            <anamorphic>FALSE</anamorphic>
                            <pixelaspectratio>square</pixelaspectratio>
                            <fielddominance>none</fielddominance>
                            <width>686</width>
                            <height>511</height>
                          </samplecharacteristics>
                        </video>
                      </media>
                    </file>
                  </clipitem>
                </track>
              </video>
            </media>
          </clip>
          <clip explodedTracks="true" frameBlend="FALSE" id="masterclip-162">
            <uuid>26bdfd11-aa98-4d95-92a4-6977a176fb30</uuid>
            <masterclipid>masterclip-162</masterclipid>
            <ismasterclip>TRUE</ismasterclip>
            <duration>162</duration>
            <in>0</in>
            <out>162</out>
            <name>Antonio.160.png</name>
            <rate>
              <timebase>24</timebase>
              <ntsc>FALSE</ntsc>
            </rate>
            <media>
              <video>
                <track>
                  <clipitem frameBlend="FALSE" id="clipitem-163">
                    <name>Antonio.160.png</name>
                    <masterclipid>masterclip-162</masterclipid>
                    <rate>
                      <timebase>24</timebase>
                      <ntsc>FALSE</ntsc>
                    </rate>
                    <alphatype>straight</alphatype>
                    <pixelaspectratio>square</pixelaspectratio>
                    <anamorphic>FALSE</anamorphic>
                    <file id="file-162">
                      <name>Antonio.160.png</name>
                      <pathurl>file://localhost/Users/antoniochiappetta/OneDrive - Aalto University/University/Aalto/Hackatons/Junction/Junction2019-IoK-security_awareness_kids/Assets/Team Animations/Image Sequences/Antonio/Antonio.160.png</pathurl>
                      <rate>
                        <timebase>24</timebase>
                        <ntsc>FALSE</ntsc>
                      </rate>
                      <duration>162</duration>
                      <timecode>
                        <rate>
                          <timebase>24</timebase>
                          <ntsc>FALSE</ntsc>
                        </rate>
                      </timecode>
                      <media>
                        <video>
                          <duration>1</duration>
                          <samplecharacteristics>
                            <anamorphic>FALSE</anamorphic>
                            <pixelaspectratio>square</pixelaspectratio>
                            <fielddominance>none</fielddominance>
                            <width>686</width>
                            <height>511</height>
                          </samplecharacteristics>
                        </video>
                      </media>
                    </file>
                  </clipitem>
                </track>
              </video>
            </media>
          </clip>
          <clip explodedTracks="true" frameBlend="FALSE" id="masterclip-163">
            <uuid>61ac3dcc-0cb3-48f2-b818-481cb2d746a7</uuid>
            <masterclipid>masterclip-163</masterclipid>
            <ismasterclip>TRUE</ismasterclip>
            <duration>162</duration>
            <in>0</in>
            <out>162</out>
            <name>Antonio.161.png</name>
            <rate>
              <timebase>24</timebase>
              <ntsc>FALSE</ntsc>
            </rate>
            <media>
              <video>
                <track>
                  <clipitem frameBlend="FALSE" id="clipitem-164">
                    <name>Antonio.161.png</name>
                    <masterclipid>masterclip-163</masterclipid>
                    <rate>
                      <timebase>24</timebase>
                      <ntsc>FALSE</ntsc>
                    </rate>
                    <alphatype>straight</alphatype>
                    <pixelaspectratio>square</pixelaspectratio>
                    <anamorphic>FALSE</anamorphic>
                    <file id="file-163">
                      <name>Antonio.161.png</name>
                      <pathurl>file://localhost/Users/antoniochiappetta/OneDrive - Aalto University/University/Aalto/Hackatons/Junction/Junction2019-IoK-security_awareness_kids/Assets/Team Animations/Image Sequences/Antonio/Antonio.161.png</pathurl>
                      <rate>
                        <timebase>24</timebase>
                        <ntsc>FALSE</ntsc>
                      </rate>
                      <duration>162</duration>
                      <timecode>
                        <rate>
                          <timebase>24</timebase>
                          <ntsc>FALSE</ntsc>
                        </rate>
                      </timecode>
                      <media>
                        <video>
                          <duration>1</duration>
                          <samplecharacteristics>
                            <anamorphic>FALSE</anamorphic>
                            <pixelaspectratio>square</pixelaspectratio>
                            <fielddominance>none</fielddominance>
                            <width>686</width>
                            <height>511</height>
                          </samplecharacteristics>
                        </video>
                      </media>
                    </file>
                  </clipitem>
                </track>
              </video>
            </media>
          </clip>
        </children>
      </bin>
    </children>
  </project>

</xmeml>
