<?xml version="1.0" encoding="UTF-8" standalone="yes" ?>
<!DOCTYPE xmeml>
<xmeml version="4">

  <project>
    <name>James</name>
    <children>
      <sequence MZ.Sequence.EditingModeGUID="35d109db-457b-43c1-9452-9cb7be9f121c" explodedTracks="true" id="sequence-1">
        <uuid>8ebcb09b-fd1f-4dae-9375-3bc325651668</uuid>
        <duration>141</duration>
        <rate>
          <timebase>24</timebase>
          <ntsc>FALSE</ntsc>
        </rate>
        <name>James</name>
        <media>
          <video>
            <track>
              <clipitem frameBlend="FALSE" id="clipitem-144">
                <name>James.000.png</name>
                <masterclipid>masterclip-2</masterclipid>
                <rate>
                  <timebase>24</timebase>
                  <ntsc>FALSE</ntsc>
                </rate>
                <duration>1</duration>
                <enabled>TRUE</enabled>
                <alphatype>straight</alphatype>
                <rate>
                  <timebase>24</timebase>
                  <ntsc>FALSE</ntsc>
                </rate>
                <enabled>TRUE</enabled>
                <start>0</start>
                <end>1</end>
                <file id="file-2"/>
              </clipitem>
              <clipitem frameBlend="FALSE" id="clipitem-145">
                <name>James.001.png</name>
                <masterclipid>masterclip-3</masterclipid>
                <rate>
                  <timebase>24</timebase>
                  <ntsc>FALSE</ntsc>
                </rate>
                <duration>1</duration>
                <enabled>TRUE</enabled>
                <alphatype>straight</alphatype>
                <rate>
                  <timebase>24</timebase>
                  <ntsc>FALSE</ntsc>
                </rate>
                <enabled>TRUE</enabled>
                <start>1</start>
                <end>2</end>
                <file id="file-3"/>
              </clipitem>
              <clipitem frameBlend="FALSE" id="clipitem-146">
                <name>James.002.png</name>
                <masterclipid>masterclip-4</masterclipid>
                <rate>
                  <timebase>24</timebase>
                  <ntsc>FALSE</ntsc>
                </rate>
                <duration>1</duration>
                <enabled>TRUE</enabled>
                <alphatype>straight</alphatype>
                <rate>
                  <timebase>24</timebase>
                  <ntsc>FALSE</ntsc>
                </rate>
                <enabled>TRUE</enabled>
                <start>2</start>
                <end>3</end>
                <file id="file-4"/>
              </clipitem>
              <clipitem frameBlend="FALSE" id="clipitem-147">
                <name>James.003.png</name>
                <masterclipid>masterclip-5</masterclipid>
                <rate>
                  <timebase>24</timebase>
                  <ntsc>FALSE</ntsc>
                </rate>
                <duration>1</duration>
                <enabled>TRUE</enabled>
                <alphatype>straight</alphatype>
                <rate>
                  <timebase>24</timebase>
                  <ntsc>FALSE</ntsc>
                </rate>
                <enabled>TRUE</enabled>
                <start>3</start>
                <end>4</end>
                <file id="file-5"/>
              </clipitem>
              <clipitem frameBlend="FALSE" id="clipitem-148">
                <name>James.004.png</name>
                <masterclipid>masterclip-6</masterclipid>
                <rate>
                  <timebase>24</timebase>
                  <ntsc>FALSE</ntsc>
                </rate>
                <duration>1</duration>
                <enabled>TRUE</enabled>
                <alphatype>straight</alphatype>
                <rate>
                  <timebase>24</timebase>
                  <ntsc>FALSE</ntsc>
                </rate>
                <enabled>TRUE</enabled>
                <start>4</start>
                <end>5</end>
                <file id="file-6"/>
              </clipitem>
              <clipitem frameBlend="FALSE" id="clipitem-149">
                <name>James.005.png</name>
                <masterclipid>masterclip-7</masterclipid>
                <rate>
                  <timebase>24</timebase>
                  <ntsc>FALSE</ntsc>
                </rate>
                <duration>1</duration>
                <enabled>TRUE</enabled>
                <alphatype>straight</alphatype>
                <rate>
                  <timebase>24</timebase>
                  <ntsc>FALSE</ntsc>
                </rate>
                <enabled>TRUE</enabled>
                <start>5</start>
                <end>6</end>
                <file id="file-7"/>
              </clipitem>
              <clipitem frameBlend="FALSE" id="clipitem-150">
                <name>James.006.png</name>
                <masterclipid>masterclip-8</masterclipid>
                <rate>
                  <timebase>24</timebase>
                  <ntsc>FALSE</ntsc>
                </rate>
                <duration>1</duration>
                <enabled>TRUE</enabled>
                <alphatype>straight</alphatype>
                <rate>
                  <timebase>24</timebase>
                  <ntsc>FALSE</ntsc>
                </rate>
                <enabled>TRUE</enabled>
                <start>6</start>
                <end>7</end>
                <file id="file-8"/>
              </clipitem>
              <clipitem frameBlend="FALSE" id="clipitem-151">
                <name>James.007.png</name>
                <masterclipid>masterclip-9</masterclipid>
                <rate>
                  <timebase>24</timebase>
                  <ntsc>FALSE</ntsc>
                </rate>
                <duration>1</duration>
                <enabled>TRUE</enabled>
                <alphatype>straight</alphatype>
                <rate>
                  <timebase>24</timebase>
                  <ntsc>FALSE</ntsc>
                </rate>
                <enabled>TRUE</enabled>
                <start>7</start>
                <end>8</end>
                <file id="file-9"/>
              </clipitem>
              <clipitem frameBlend="FALSE" id="clipitem-152">
                <name>James.008.png</name>
                <masterclipid>masterclip-10</masterclipid>
                <rate>
                  <timebase>24</timebase>
                  <ntsc>FALSE</ntsc>
                </rate>
                <duration>1</duration>
                <enabled>TRUE</enabled>
                <alphatype>straight</alphatype>
                <rate>
                  <timebase>24</timebase>
                  <ntsc>FALSE</ntsc>
                </rate>
                <enabled>TRUE</enabled>
                <start>8</start>
                <end>9</end>
                <file id="file-10"/>
              </clipitem>
              <clipitem frameBlend="FALSE" id="clipitem-153">
                <name>James.009.png</name>
                <masterclipid>masterclip-11</masterclipid>
                <rate>
                  <timebase>24</timebase>
                  <ntsc>FALSE</ntsc>
                </rate>
                <duration>1</duration>
                <enabled>TRUE</enabled>
                <alphatype>straight</alphatype>
                <rate>
                  <timebase>24</timebase>
                  <ntsc>FALSE</ntsc>
                </rate>
                <enabled>TRUE</enabled>
                <start>9</start>
                <end>10</end>
                <file id="file-11"/>
              </clipitem>
              <clipitem frameBlend="FALSE" id="clipitem-154">
                <name>James.010.png</name>
                <masterclipid>masterclip-12</masterclipid>
                <rate>
                  <timebase>24</timebase>
                  <ntsc>FALSE</ntsc>
                </rate>
                <duration>1</duration>
                <enabled>TRUE</enabled>
                <alphatype>straight</alphatype>
                <rate>
                  <timebase>24</timebase>
                  <ntsc>FALSE</ntsc>
                </rate>
                <enabled>TRUE</enabled>
                <start>10</start>
                <end>11</end>
                <file id="file-12"/>
              </clipitem>
              <clipitem frameBlend="FALSE" id="clipitem-155">
                <name>James.011.png</name>
                <masterclipid>masterclip-13</masterclipid>
                <rate>
                  <timebase>24</timebase>
                  <ntsc>FALSE</ntsc>
                </rate>
                <duration>1</duration>
                <enabled>TRUE</enabled>
                <alphatype>straight</alphatype>
                <rate>
                  <timebase>24</timebase>
                  <ntsc>FALSE</ntsc>
                </rate>
                <enabled>TRUE</enabled>
                <start>11</start>
                <end>12</end>
                <file id="file-13"/>
              </clipitem>
              <clipitem frameBlend="FALSE" id="clipitem-156">
                <name>James.012.png</name>
                <masterclipid>masterclip-14</masterclipid>
                <rate>
                  <timebase>24</timebase>
                  <ntsc>FALSE</ntsc>
                </rate>
                <duration>1</duration>
                <enabled>TRUE</enabled>
                <alphatype>straight</alphatype>
                <rate>
                  <timebase>24</timebase>
                  <ntsc>FALSE</ntsc>
                </rate>
                <enabled>TRUE</enabled>
                <start>12</start>
                <end>13</end>
                <file id="file-14"/>
              </clipitem>
              <clipitem frameBlend="FALSE" id="clipitem-157">
                <name>James.013.png</name>
                <masterclipid>masterclip-15</masterclipid>
                <rate>
                  <timebase>24</timebase>
                  <ntsc>FALSE</ntsc>
                </rate>
                <duration>1</duration>
                <enabled>TRUE</enabled>
                <alphatype>straight</alphatype>
                <rate>
                  <timebase>24</timebase>
                  <ntsc>FALSE</ntsc>
                </rate>
                <enabled>TRUE</enabled>
                <start>13</start>
                <end>14</end>
                <file id="file-15"/>
              </clipitem>
              <clipitem frameBlend="FALSE" id="clipitem-158">
                <name>James.014.png</name>
                <masterclipid>masterclip-16</masterclipid>
                <rate>
                  <timebase>24</timebase>
                  <ntsc>FALSE</ntsc>
                </rate>
                <duration>1</duration>
                <enabled>TRUE</enabled>
                <alphatype>straight</alphatype>
                <rate>
                  <timebase>24</timebase>
                  <ntsc>FALSE</ntsc>
                </rate>
                <enabled>TRUE</enabled>
                <start>14</start>
                <end>15</end>
                <file id="file-16"/>
              </clipitem>
              <clipitem frameBlend="FALSE" id="clipitem-159">
                <name>James.015.png</name>
                <masterclipid>masterclip-17</masterclipid>
                <rate>
                  <timebase>24</timebase>
                  <ntsc>FALSE</ntsc>
                </rate>
                <duration>1</duration>
                <enabled>TRUE</enabled>
                <alphatype>straight</alphatype>
                <rate>
                  <timebase>24</timebase>
                  <ntsc>FALSE</ntsc>
                </rate>
                <enabled>TRUE</enabled>
                <start>15</start>
                <end>16</end>
                <file id="file-17"/>
              </clipitem>
              <clipitem frameBlend="FALSE" id="clipitem-160">
                <name>James.016.png</name>
                <masterclipid>masterclip-18</masterclipid>
                <rate>
                  <timebase>24</timebase>
                  <ntsc>FALSE</ntsc>
                </rate>
                <duration>1</duration>
                <enabled>TRUE</enabled>
                <alphatype>straight</alphatype>
                <rate>
                  <timebase>24</timebase>
                  <ntsc>FALSE</ntsc>
                </rate>
                <enabled>TRUE</enabled>
                <start>16</start>
                <end>17</end>
                <file id="file-18"/>
              </clipitem>
              <clipitem frameBlend="FALSE" id="clipitem-161">
                <name>James.017.png</name>
                <masterclipid>masterclip-19</masterclipid>
                <rate>
                  <timebase>24</timebase>
                  <ntsc>FALSE</ntsc>
                </rate>
                <duration>1</duration>
                <enabled>TRUE</enabled>
                <alphatype>straight</alphatype>
                <rate>
                  <timebase>24</timebase>
                  <ntsc>FALSE</ntsc>
                </rate>
                <enabled>TRUE</enabled>
                <start>17</start>
                <end>18</end>
                <file id="file-19"/>
              </clipitem>
              <clipitem frameBlend="FALSE" id="clipitem-162">
                <name>James.018.png</name>
                <masterclipid>masterclip-20</masterclipid>
                <rate>
                  <timebase>24</timebase>
                  <ntsc>FALSE</ntsc>
                </rate>
                <duration>1</duration>
                <enabled>TRUE</enabled>
                <alphatype>straight</alphatype>
                <rate>
                  <timebase>24</timebase>
                  <ntsc>FALSE</ntsc>
                </rate>
                <enabled>TRUE</enabled>
                <start>18</start>
                <end>19</end>
                <file id="file-20"/>
              </clipitem>
              <clipitem frameBlend="FALSE" id="clipitem-163">
                <name>James.019.png</name>
                <masterclipid>masterclip-21</masterclipid>
                <rate>
                  <timebase>24</timebase>
                  <ntsc>FALSE</ntsc>
                </rate>
                <duration>1</duration>
                <enabled>TRUE</enabled>
                <alphatype>straight</alphatype>
                <rate>
                  <timebase>24</timebase>
                  <ntsc>FALSE</ntsc>
                </rate>
                <enabled>TRUE</enabled>
                <start>19</start>
                <end>20</end>
                <file id="file-21"/>
              </clipitem>
              <clipitem frameBlend="FALSE" id="clipitem-164">
                <name>James.020.png</name>
                <masterclipid>masterclip-22</masterclipid>
                <rate>
                  <timebase>24</timebase>
                  <ntsc>FALSE</ntsc>
                </rate>
                <duration>1</duration>
                <enabled>TRUE</enabled>
                <alphatype>straight</alphatype>
                <rate>
                  <timebase>24</timebase>
                  <ntsc>FALSE</ntsc>
                </rate>
                <enabled>TRUE</enabled>
                <start>20</start>
                <end>21</end>
                <file id="file-22"/>
              </clipitem>
              <clipitem frameBlend="FALSE" id="clipitem-165">
                <name>James.021.png</name>
                <masterclipid>masterclip-23</masterclipid>
                <rate>
                  <timebase>24</timebase>
                  <ntsc>FALSE</ntsc>
                </rate>
                <duration>1</duration>
                <enabled>TRUE</enabled>
                <alphatype>straight</alphatype>
                <rate>
                  <timebase>24</timebase>
                  <ntsc>FALSE</ntsc>
                </rate>
                <enabled>TRUE</enabled>
                <start>21</start>
                <end>22</end>
                <file id="file-23"/>
              </clipitem>
              <clipitem frameBlend="FALSE" id="clipitem-166">
                <name>James.022.png</name>
                <masterclipid>masterclip-24</masterclipid>
                <rate>
                  <timebase>24</timebase>
                  <ntsc>FALSE</ntsc>
                </rate>
                <duration>1</duration>
                <enabled>TRUE</enabled>
                <alphatype>straight</alphatype>
                <rate>
                  <timebase>24</timebase>
                  <ntsc>FALSE</ntsc>
                </rate>
                <enabled>TRUE</enabled>
                <start>22</start>
                <end>23</end>
                <file id="file-24"/>
              </clipitem>
              <clipitem frameBlend="FALSE" id="clipitem-167">
                <name>James.023.png</name>
                <masterclipid>masterclip-25</masterclipid>
                <rate>
                  <timebase>24</timebase>
                  <ntsc>FALSE</ntsc>
                </rate>
                <duration>1</duration>
                <enabled>TRUE</enabled>
                <alphatype>straight</alphatype>
                <rate>
                  <timebase>24</timebase>
                  <ntsc>FALSE</ntsc>
                </rate>
                <enabled>TRUE</enabled>
                <start>23</start>
                <end>24</end>
                <file id="file-25"/>
              </clipitem>
              <clipitem frameBlend="FALSE" id="clipitem-168">
                <name>James.024.png</name>
                <masterclipid>masterclip-26</masterclipid>
                <rate>
                  <timebase>24</timebase>
                  <ntsc>FALSE</ntsc>
                </rate>
                <duration>1</duration>
                <enabled>TRUE</enabled>
                <alphatype>straight</alphatype>
                <rate>
                  <timebase>24</timebase>
                  <ntsc>FALSE</ntsc>
                </rate>
                <enabled>TRUE</enabled>
                <start>24</start>
                <end>25</end>
                <file id="file-26"/>
              </clipitem>
              <clipitem frameBlend="FALSE" id="clipitem-169">
                <name>James.025.png</name>
                <masterclipid>masterclip-27</masterclipid>
                <rate>
                  <timebase>24</timebase>
                  <ntsc>FALSE</ntsc>
                </rate>
                <duration>1</duration>
                <enabled>TRUE</enabled>
                <alphatype>straight</alphatype>
                <rate>
                  <timebase>24</timebase>
                  <ntsc>FALSE</ntsc>
                </rate>
                <enabled>TRUE</enabled>
                <start>25</start>
                <end>26</end>
                <file id="file-27"/>
              </clipitem>
              <clipitem frameBlend="FALSE" id="clipitem-170">
                <name>James.026.png</name>
                <masterclipid>masterclip-28</masterclipid>
                <rate>
                  <timebase>24</timebase>
                  <ntsc>FALSE</ntsc>
                </rate>
                <duration>1</duration>
                <enabled>TRUE</enabled>
                <alphatype>straight</alphatype>
                <rate>
                  <timebase>24</timebase>
                  <ntsc>FALSE</ntsc>
                </rate>
                <enabled>TRUE</enabled>
                <start>26</start>
                <end>27</end>
                <file id="file-28"/>
              </clipitem>
              <clipitem frameBlend="FALSE" id="clipitem-171">
                <name>James.027.png</name>
                <masterclipid>masterclip-29</masterclipid>
                <rate>
                  <timebase>24</timebase>
                  <ntsc>FALSE</ntsc>
                </rate>
                <duration>1</duration>
                <enabled>TRUE</enabled>
                <alphatype>straight</alphatype>
                <rate>
                  <timebase>24</timebase>
                  <ntsc>FALSE</ntsc>
                </rate>
                <enabled>TRUE</enabled>
                <start>27</start>
                <end>28</end>
                <file id="file-29"/>
              </clipitem>
              <clipitem frameBlend="FALSE" id="clipitem-172">
                <name>James.028.png</name>
                <masterclipid>masterclip-30</masterclipid>
                <rate>
                  <timebase>24</timebase>
                  <ntsc>FALSE</ntsc>
                </rate>
                <duration>1</duration>
                <enabled>TRUE</enabled>
                <alphatype>straight</alphatype>
                <rate>
                  <timebase>24</timebase>
                  <ntsc>FALSE</ntsc>
                </rate>
                <enabled>TRUE</enabled>
                <start>28</start>
                <end>29</end>
                <file id="file-30"/>
              </clipitem>
              <clipitem frameBlend="FALSE" id="clipitem-173">
                <name>James.029.png</name>
                <masterclipid>masterclip-31</masterclipid>
                <rate>
                  <timebase>24</timebase>
                  <ntsc>FALSE</ntsc>
                </rate>
                <duration>1</duration>
                <enabled>TRUE</enabled>
                <alphatype>straight</alphatype>
                <rate>
                  <timebase>24</timebase>
                  <ntsc>FALSE</ntsc>
                </rate>
                <enabled>TRUE</enabled>
                <start>29</start>
                <end>30</end>
                <file id="file-31"/>
              </clipitem>
              <clipitem frameBlend="FALSE" id="clipitem-174">
                <name>James.030.png</name>
                <masterclipid>masterclip-32</masterclipid>
                <rate>
                  <timebase>24</timebase>
                  <ntsc>FALSE</ntsc>
                </rate>
                <duration>1</duration>
                <enabled>TRUE</enabled>
                <alphatype>straight</alphatype>
                <rate>
                  <timebase>24</timebase>
                  <ntsc>FALSE</ntsc>
                </rate>
                <enabled>TRUE</enabled>
                <start>30</start>
                <end>31</end>
                <file id="file-32"/>
              </clipitem>
              <clipitem frameBlend="FALSE" id="clipitem-175">
                <name>James.031.png</name>
                <masterclipid>masterclip-33</masterclipid>
                <rate>
                  <timebase>24</timebase>
                  <ntsc>FALSE</ntsc>
                </rate>
                <duration>1</duration>
                <enabled>TRUE</enabled>
                <alphatype>straight</alphatype>
                <rate>
                  <timebase>24</timebase>
                  <ntsc>FALSE</ntsc>
                </rate>
                <enabled>TRUE</enabled>
                <start>31</start>
                <end>32</end>
                <file id="file-33"/>
              </clipitem>
              <clipitem frameBlend="FALSE" id="clipitem-176">
                <name>James.032.png</name>
                <masterclipid>masterclip-34</masterclipid>
                <rate>
                  <timebase>24</timebase>
                  <ntsc>FALSE</ntsc>
                </rate>
                <duration>1</duration>
                <enabled>TRUE</enabled>
                <alphatype>straight</alphatype>
                <rate>
                  <timebase>24</timebase>
                  <ntsc>FALSE</ntsc>
                </rate>
                <enabled>TRUE</enabled>
                <start>32</start>
                <end>33</end>
                <file id="file-34"/>
              </clipitem>
              <clipitem frameBlend="FALSE" id="clipitem-177">
                <name>James.033.png</name>
                <masterclipid>masterclip-35</masterclipid>
                <rate>
                  <timebase>24</timebase>
                  <ntsc>FALSE</ntsc>
                </rate>
                <duration>1</duration>
                <enabled>TRUE</enabled>
                <alphatype>straight</alphatype>
                <rate>
                  <timebase>24</timebase>
                  <ntsc>FALSE</ntsc>
                </rate>
                <enabled>TRUE</enabled>
                <start>33</start>
                <end>34</end>
                <file id="file-35"/>
              </clipitem>
              <clipitem frameBlend="FALSE" id="clipitem-178">
                <name>James.034.png</name>
                <masterclipid>masterclip-36</masterclipid>
                <rate>
                  <timebase>24</timebase>
                  <ntsc>FALSE</ntsc>
                </rate>
                <duration>1</duration>
                <enabled>TRUE</enabled>
                <alphatype>straight</alphatype>
                <rate>
                  <timebase>24</timebase>
                  <ntsc>FALSE</ntsc>
                </rate>
                <enabled>TRUE</enabled>
                <start>34</start>
                <end>35</end>
                <file id="file-36"/>
              </clipitem>
              <clipitem frameBlend="FALSE" id="clipitem-179">
                <name>James.035.png</name>
                <masterclipid>masterclip-37</masterclipid>
                <rate>
                  <timebase>24</timebase>
                  <ntsc>FALSE</ntsc>
                </rate>
                <duration>1</duration>
                <enabled>TRUE</enabled>
                <alphatype>straight</alphatype>
                <rate>
                  <timebase>24</timebase>
                  <ntsc>FALSE</ntsc>
                </rate>
                <enabled>TRUE</enabled>
                <start>35</start>
                <end>36</end>
                <file id="file-37"/>
              </clipitem>
              <clipitem frameBlend="FALSE" id="clipitem-180">
                <name>James.036.png</name>
                <masterclipid>masterclip-38</masterclipid>
                <rate>
                  <timebase>24</timebase>
                  <ntsc>FALSE</ntsc>
                </rate>
                <duration>1</duration>
                <enabled>TRUE</enabled>
                <alphatype>straight</alphatype>
                <rate>
                  <timebase>24</timebase>
                  <ntsc>FALSE</ntsc>
                </rate>
                <enabled>TRUE</enabled>
                <start>36</start>
                <end>37</end>
                <file id="file-38"/>
              </clipitem>
              <clipitem frameBlend="FALSE" id="clipitem-181">
                <name>James.037.png</name>
                <masterclipid>masterclip-39</masterclipid>
                <rate>
                  <timebase>24</timebase>
                  <ntsc>FALSE</ntsc>
                </rate>
                <duration>1</duration>
                <enabled>TRUE</enabled>
                <alphatype>straight</alphatype>
                <rate>
                  <timebase>24</timebase>
                  <ntsc>FALSE</ntsc>
                </rate>
                <enabled>TRUE</enabled>
                <start>37</start>
                <end>38</end>
                <file id="file-39"/>
              </clipitem>
              <clipitem frameBlend="FALSE" id="clipitem-182">
                <name>James.038.png</name>
                <masterclipid>masterclip-40</masterclipid>
                <rate>
                  <timebase>24</timebase>
                  <ntsc>FALSE</ntsc>
                </rate>
                <duration>1</duration>
                <enabled>TRUE</enabled>
                <alphatype>straight</alphatype>
                <rate>
                  <timebase>24</timebase>
                  <ntsc>FALSE</ntsc>
                </rate>
                <enabled>TRUE</enabled>
                <start>38</start>
                <end>39</end>
                <file id="file-40"/>
              </clipitem>
              <clipitem frameBlend="FALSE" id="clipitem-183">
                <name>James.039.png</name>
                <masterclipid>masterclip-41</masterclipid>
                <rate>
                  <timebase>24</timebase>
                  <ntsc>FALSE</ntsc>
                </rate>
                <duration>1</duration>
                <enabled>TRUE</enabled>
                <alphatype>straight</alphatype>
                <rate>
                  <timebase>24</timebase>
                  <ntsc>FALSE</ntsc>
                </rate>
                <enabled>TRUE</enabled>
                <start>39</start>
                <end>40</end>
                <file id="file-41"/>
              </clipitem>
              <clipitem frameBlend="FALSE" id="clipitem-184">
                <name>James.040.png</name>
                <masterclipid>masterclip-42</masterclipid>
                <rate>
                  <timebase>24</timebase>
                  <ntsc>FALSE</ntsc>
                </rate>
                <duration>1</duration>
                <enabled>TRUE</enabled>
                <alphatype>straight</alphatype>
                <rate>
                  <timebase>24</timebase>
                  <ntsc>FALSE</ntsc>
                </rate>
                <enabled>TRUE</enabled>
                <start>40</start>
                <end>41</end>
                <file id="file-42"/>
              </clipitem>
              <clipitem frameBlend="FALSE" id="clipitem-185">
                <name>James.041.png</name>
                <masterclipid>masterclip-43</masterclipid>
                <rate>
                  <timebase>24</timebase>
                  <ntsc>FALSE</ntsc>
                </rate>
                <duration>1</duration>
                <enabled>TRUE</enabled>
                <alphatype>straight</alphatype>
                <rate>
                  <timebase>24</timebase>
                  <ntsc>FALSE</ntsc>
                </rate>
                <enabled>TRUE</enabled>
                <start>41</start>
                <end>42</end>
                <file id="file-43"/>
              </clipitem>
              <clipitem frameBlend="FALSE" id="clipitem-186">
                <name>James.042.png</name>
                <masterclipid>masterclip-44</masterclipid>
                <rate>
                  <timebase>24</timebase>
                  <ntsc>FALSE</ntsc>
                </rate>
                <duration>1</duration>
                <enabled>TRUE</enabled>
                <alphatype>straight</alphatype>
                <rate>
                  <timebase>24</timebase>
                  <ntsc>FALSE</ntsc>
                </rate>
                <enabled>TRUE</enabled>
                <start>42</start>
                <end>43</end>
                <file id="file-44"/>
              </clipitem>
              <clipitem frameBlend="FALSE" id="clipitem-187">
                <name>James.043.png</name>
                <masterclipid>masterclip-45</masterclipid>
                <rate>
                  <timebase>24</timebase>
                  <ntsc>FALSE</ntsc>
                </rate>
                <duration>1</duration>
                <enabled>TRUE</enabled>
                <alphatype>straight</alphatype>
                <rate>
                  <timebase>24</timebase>
                  <ntsc>FALSE</ntsc>
                </rate>
                <enabled>TRUE</enabled>
                <start>43</start>
                <end>44</end>
                <file id="file-45"/>
              </clipitem>
              <clipitem frameBlend="FALSE" id="clipitem-188">
                <name>James.044.png</name>
                <masterclipid>masterclip-46</masterclipid>
                <rate>
                  <timebase>24</timebase>
                  <ntsc>FALSE</ntsc>
                </rate>
                <duration>1</duration>
                <enabled>TRUE</enabled>
                <alphatype>straight</alphatype>
                <rate>
                  <timebase>24</timebase>
                  <ntsc>FALSE</ntsc>
                </rate>
                <enabled>TRUE</enabled>
                <start>44</start>
                <end>45</end>
                <file id="file-46"/>
              </clipitem>
              <clipitem frameBlend="FALSE" id="clipitem-189">
                <name>James.045.png</name>
                <masterclipid>masterclip-47</masterclipid>
                <rate>
                  <timebase>24</timebase>
                  <ntsc>FALSE</ntsc>
                </rate>
                <duration>1</duration>
                <enabled>TRUE</enabled>
                <alphatype>straight</alphatype>
                <rate>
                  <timebase>24</timebase>
                  <ntsc>FALSE</ntsc>
                </rate>
                <enabled>TRUE</enabled>
                <start>45</start>
                <end>46</end>
                <file id="file-47"/>
              </clipitem>
              <clipitem frameBlend="FALSE" id="clipitem-190">
                <name>James.046.png</name>
                <masterclipid>masterclip-48</masterclipid>
                <rate>
                  <timebase>24</timebase>
                  <ntsc>FALSE</ntsc>
                </rate>
                <duration>1</duration>
                <enabled>TRUE</enabled>
                <alphatype>straight</alphatype>
                <rate>
                  <timebase>24</timebase>
                  <ntsc>FALSE</ntsc>
                </rate>
                <enabled>TRUE</enabled>
                <start>46</start>
                <end>47</end>
                <file id="file-48"/>
              </clipitem>
              <clipitem frameBlend="FALSE" id="clipitem-191">
                <name>James.047.png</name>
                <masterclipid>masterclip-49</masterclipid>
                <rate>
                  <timebase>24</timebase>
                  <ntsc>FALSE</ntsc>
                </rate>
                <duration>1</duration>
                <enabled>TRUE</enabled>
                <alphatype>straight</alphatype>
                <rate>
                  <timebase>24</timebase>
                  <ntsc>FALSE</ntsc>
                </rate>
                <enabled>TRUE</enabled>
                <start>47</start>
                <end>48</end>
                <file id="file-49"/>
              </clipitem>
              <clipitem frameBlend="FALSE" id="clipitem-192">
                <name>James.048.png</name>
                <masterclipid>masterclip-50</masterclipid>
                <rate>
                  <timebase>24</timebase>
                  <ntsc>FALSE</ntsc>
                </rate>
                <duration>1</duration>
                <enabled>TRUE</enabled>
                <alphatype>straight</alphatype>
                <rate>
                  <timebase>24</timebase>
                  <ntsc>FALSE</ntsc>
                </rate>
                <enabled>TRUE</enabled>
                <start>48</start>
                <end>49</end>
                <file id="file-50"/>
              </clipitem>
              <clipitem frameBlend="FALSE" id="clipitem-193">
                <name>James.049.png</name>
                <masterclipid>masterclip-51</masterclipid>
                <rate>
                  <timebase>24</timebase>
                  <ntsc>FALSE</ntsc>
                </rate>
                <duration>1</duration>
                <enabled>TRUE</enabled>
                <alphatype>straight</alphatype>
                <rate>
                  <timebase>24</timebase>
                  <ntsc>FALSE</ntsc>
                </rate>
                <enabled>TRUE</enabled>
                <start>49</start>
                <end>50</end>
                <file id="file-51"/>
              </clipitem>
              <clipitem frameBlend="FALSE" id="clipitem-194">
                <name>James.050.png</name>
                <masterclipid>masterclip-52</masterclipid>
                <rate>
                  <timebase>24</timebase>
                  <ntsc>FALSE</ntsc>
                </rate>
                <duration>1</duration>
                <enabled>TRUE</enabled>
                <alphatype>straight</alphatype>
                <rate>
                  <timebase>24</timebase>
                  <ntsc>FALSE</ntsc>
                </rate>
                <enabled>TRUE</enabled>
                <start>50</start>
                <end>51</end>
                <file id="file-52"/>
              </clipitem>
              <clipitem frameBlend="FALSE" id="clipitem-195">
                <name>James.051.png</name>
                <masterclipid>masterclip-53</masterclipid>
                <rate>
                  <timebase>24</timebase>
                  <ntsc>FALSE</ntsc>
                </rate>
                <duration>1</duration>
                <enabled>TRUE</enabled>
                <alphatype>straight</alphatype>
                <rate>
                  <timebase>24</timebase>
                  <ntsc>FALSE</ntsc>
                </rate>
                <enabled>TRUE</enabled>
                <start>51</start>
                <end>52</end>
                <file id="file-53"/>
              </clipitem>
              <clipitem frameBlend="FALSE" id="clipitem-196">
                <name>James.052.png</name>
                <masterclipid>masterclip-54</masterclipid>
                <rate>
                  <timebase>24</timebase>
                  <ntsc>FALSE</ntsc>
                </rate>
                <duration>1</duration>
                <enabled>TRUE</enabled>
                <alphatype>straight</alphatype>
                <rate>
                  <timebase>24</timebase>
                  <ntsc>FALSE</ntsc>
                </rate>
                <enabled>TRUE</enabled>
                <start>52</start>
                <end>53</end>
                <file id="file-54"/>
              </clipitem>
              <clipitem frameBlend="FALSE" id="clipitem-197">
                <name>James.053.png</name>
                <masterclipid>masterclip-55</masterclipid>
                <rate>
                  <timebase>24</timebase>
                  <ntsc>FALSE</ntsc>
                </rate>
                <duration>1</duration>
                <enabled>TRUE</enabled>
                <alphatype>straight</alphatype>
                <rate>
                  <timebase>24</timebase>
                  <ntsc>FALSE</ntsc>
                </rate>
                <enabled>TRUE</enabled>
                <start>53</start>
                <end>54</end>
                <file id="file-55"/>
              </clipitem>
              <clipitem frameBlend="FALSE" id="clipitem-198">
                <name>James.054.png</name>
                <masterclipid>masterclip-56</masterclipid>
                <rate>
                  <timebase>24</timebase>
                  <ntsc>FALSE</ntsc>
                </rate>
                <duration>1</duration>
                <enabled>TRUE</enabled>
                <alphatype>straight</alphatype>
                <rate>
                  <timebase>24</timebase>
                  <ntsc>FALSE</ntsc>
                </rate>
                <enabled>TRUE</enabled>
                <start>54</start>
                <end>55</end>
                <file id="file-56"/>
              </clipitem>
              <clipitem frameBlend="FALSE" id="clipitem-199">
                <name>James.055.png</name>
                <masterclipid>masterclip-57</masterclipid>
                <rate>
                  <timebase>24</timebase>
                  <ntsc>FALSE</ntsc>
                </rate>
                <duration>1</duration>
                <enabled>TRUE</enabled>
                <alphatype>straight</alphatype>
                <rate>
                  <timebase>24</timebase>
                  <ntsc>FALSE</ntsc>
                </rate>
                <enabled>TRUE</enabled>
                <start>55</start>
                <end>56</end>
                <file id="file-57"/>
              </clipitem>
              <clipitem frameBlend="FALSE" id="clipitem-200">
                <name>James.056.png</name>
                <masterclipid>masterclip-58</masterclipid>
                <rate>
                  <timebase>24</timebase>
                  <ntsc>FALSE</ntsc>
                </rate>
                <duration>1</duration>
                <enabled>TRUE</enabled>
                <alphatype>straight</alphatype>
                <rate>
                  <timebase>24</timebase>
                  <ntsc>FALSE</ntsc>
                </rate>
                <enabled>TRUE</enabled>
                <start>56</start>
                <end>57</end>
                <file id="file-58"/>
              </clipitem>
              <clipitem frameBlend="FALSE" id="clipitem-201">
                <name>James.057.png</name>
                <masterclipid>masterclip-59</masterclipid>
                <rate>
                  <timebase>24</timebase>
                  <ntsc>FALSE</ntsc>
                </rate>
                <duration>1</duration>
                <enabled>TRUE</enabled>
                <alphatype>straight</alphatype>
                <rate>
                  <timebase>24</timebase>
                  <ntsc>FALSE</ntsc>
                </rate>
                <enabled>TRUE</enabled>
                <start>57</start>
                <end>58</end>
                <file id="file-59"/>
              </clipitem>
              <clipitem frameBlend="FALSE" id="clipitem-202">
                <name>James.058.png</name>
                <masterclipid>masterclip-60</masterclipid>
                <rate>
                  <timebase>24</timebase>
                  <ntsc>FALSE</ntsc>
                </rate>
                <duration>1</duration>
                <enabled>TRUE</enabled>
                <alphatype>straight</alphatype>
                <rate>
                  <timebase>24</timebase>
                  <ntsc>FALSE</ntsc>
                </rate>
                <enabled>TRUE</enabled>
                <start>58</start>
                <end>59</end>
                <file id="file-60"/>
              </clipitem>
              <clipitem frameBlend="FALSE" id="clipitem-203">
                <name>James.059.png</name>
                <masterclipid>masterclip-61</masterclipid>
                <rate>
                  <timebase>24</timebase>
                  <ntsc>FALSE</ntsc>
                </rate>
                <duration>1</duration>
                <enabled>TRUE</enabled>
                <alphatype>straight</alphatype>
                <rate>
                  <timebase>24</timebase>
                  <ntsc>FALSE</ntsc>
                </rate>
                <enabled>TRUE</enabled>
                <start>59</start>
                <end>60</end>
                <file id="file-61"/>
              </clipitem>
              <clipitem frameBlend="FALSE" id="clipitem-204">
                <name>James.060.png</name>
                <masterclipid>masterclip-62</masterclipid>
                <rate>
                  <timebase>24</timebase>
                  <ntsc>FALSE</ntsc>
                </rate>
                <duration>1</duration>
                <enabled>TRUE</enabled>
                <alphatype>straight</alphatype>
                <rate>
                  <timebase>24</timebase>
                  <ntsc>FALSE</ntsc>
                </rate>
                <enabled>TRUE</enabled>
                <start>60</start>
                <end>61</end>
                <file id="file-62"/>
              </clipitem>
              <clipitem frameBlend="FALSE" id="clipitem-205">
                <name>James.061.png</name>
                <masterclipid>masterclip-63</masterclipid>
                <rate>
                  <timebase>24</timebase>
                  <ntsc>FALSE</ntsc>
                </rate>
                <duration>1</duration>
                <enabled>TRUE</enabled>
                <alphatype>straight</alphatype>
                <rate>
                  <timebase>24</timebase>
                  <ntsc>FALSE</ntsc>
                </rate>
                <enabled>TRUE</enabled>
                <start>61</start>
                <end>62</end>
                <file id="file-63"/>
              </clipitem>
              <clipitem frameBlend="FALSE" id="clipitem-206">
                <name>James.062.png</name>
                <masterclipid>masterclip-64</masterclipid>
                <rate>
                  <timebase>24</timebase>
                  <ntsc>FALSE</ntsc>
                </rate>
                <duration>1</duration>
                <enabled>TRUE</enabled>
                <alphatype>straight</alphatype>
                <rate>
                  <timebase>24</timebase>
                  <ntsc>FALSE</ntsc>
                </rate>
                <enabled>TRUE</enabled>
                <start>62</start>
                <end>63</end>
                <file id="file-64"/>
              </clipitem>
              <clipitem frameBlend="FALSE" id="clipitem-207">
                <name>James.063.png</name>
                <masterclipid>masterclip-65</masterclipid>
                <rate>
                  <timebase>24</timebase>
                  <ntsc>FALSE</ntsc>
                </rate>
                <duration>1</duration>
                <enabled>TRUE</enabled>
                <alphatype>straight</alphatype>
                <rate>
                  <timebase>24</timebase>
                  <ntsc>FALSE</ntsc>
                </rate>
                <enabled>TRUE</enabled>
                <start>63</start>
                <end>64</end>
                <file id="file-65"/>
              </clipitem>
              <clipitem frameBlend="FALSE" id="clipitem-208">
                <name>James.064.png</name>
                <masterclipid>masterclip-66</masterclipid>
                <rate>
                  <timebase>24</timebase>
                  <ntsc>FALSE</ntsc>
                </rate>
                <duration>1</duration>
                <enabled>TRUE</enabled>
                <alphatype>straight</alphatype>
                <rate>
                  <timebase>24</timebase>
                  <ntsc>FALSE</ntsc>
                </rate>
                <enabled>TRUE</enabled>
                <start>64</start>
                <end>65</end>
                <file id="file-66"/>
              </clipitem>
              <clipitem frameBlend="FALSE" id="clipitem-209">
                <name>James.065.png</name>
                <masterclipid>masterclip-67</masterclipid>
                <rate>
                  <timebase>24</timebase>
                  <ntsc>FALSE</ntsc>
                </rate>
                <duration>1</duration>
                <enabled>TRUE</enabled>
                <alphatype>straight</alphatype>
                <rate>
                  <timebase>24</timebase>
                  <ntsc>FALSE</ntsc>
                </rate>
                <enabled>TRUE</enabled>
                <start>65</start>
                <end>66</end>
                <file id="file-67"/>
              </clipitem>
              <clipitem frameBlend="FALSE" id="clipitem-210">
                <name>James.066.png</name>
                <masterclipid>masterclip-68</masterclipid>
                <rate>
                  <timebase>24</timebase>
                  <ntsc>FALSE</ntsc>
                </rate>
                <duration>1</duration>
                <enabled>TRUE</enabled>
                <alphatype>straight</alphatype>
                <rate>
                  <timebase>24</timebase>
                  <ntsc>FALSE</ntsc>
                </rate>
                <enabled>TRUE</enabled>
                <start>66</start>
                <end>67</end>
                <file id="file-68"/>
              </clipitem>
              <clipitem frameBlend="FALSE" id="clipitem-211">
                <name>James.067.png</name>
                <masterclipid>masterclip-69</masterclipid>
                <rate>
                  <timebase>24</timebase>
                  <ntsc>FALSE</ntsc>
                </rate>
                <duration>1</duration>
                <enabled>TRUE</enabled>
                <alphatype>straight</alphatype>
                <rate>
                  <timebase>24</timebase>
                  <ntsc>FALSE</ntsc>
                </rate>
                <enabled>TRUE</enabled>
                <start>67</start>
                <end>68</end>
                <file id="file-69"/>
              </clipitem>
              <clipitem frameBlend="FALSE" id="clipitem-212">
                <name>James.068.png</name>
                <masterclipid>masterclip-70</masterclipid>
                <rate>
                  <timebase>24</timebase>
                  <ntsc>FALSE</ntsc>
                </rate>
                <duration>1</duration>
                <enabled>TRUE</enabled>
                <alphatype>straight</alphatype>
                <rate>
                  <timebase>24</timebase>
                  <ntsc>FALSE</ntsc>
                </rate>
                <enabled>TRUE</enabled>
                <start>68</start>
                <end>69</end>
                <file id="file-70"/>
              </clipitem>
              <clipitem frameBlend="FALSE" id="clipitem-213">
                <name>James.069.png</name>
                <masterclipid>masterclip-71</masterclipid>
                <rate>
                  <timebase>24</timebase>
                  <ntsc>FALSE</ntsc>
                </rate>
                <duration>1</duration>
                <enabled>TRUE</enabled>
                <alphatype>straight</alphatype>
                <rate>
                  <timebase>24</timebase>
                  <ntsc>FALSE</ntsc>
                </rate>
                <enabled>TRUE</enabled>
                <start>69</start>
                <end>70</end>
                <file id="file-71"/>
              </clipitem>
              <clipitem frameBlend="FALSE" id="clipitem-214">
                <name>James.070.png</name>
                <masterclipid>masterclip-72</masterclipid>
                <rate>
                  <timebase>24</timebase>
                  <ntsc>FALSE</ntsc>
                </rate>
                <duration>1</duration>
                <enabled>TRUE</enabled>
                <alphatype>straight</alphatype>
                <rate>
                  <timebase>24</timebase>
                  <ntsc>FALSE</ntsc>
                </rate>
                <enabled>TRUE</enabled>
                <start>70</start>
                <end>71</end>
                <file id="file-72"/>
              </clipitem>
              <clipitem frameBlend="FALSE" id="clipitem-215">
                <name>James.071.png</name>
                <masterclipid>masterclip-73</masterclipid>
                <rate>
                  <timebase>24</timebase>
                  <ntsc>FALSE</ntsc>
                </rate>
                <duration>1</duration>
                <enabled>TRUE</enabled>
                <alphatype>straight</alphatype>
                <rate>
                  <timebase>24</timebase>
                  <ntsc>FALSE</ntsc>
                </rate>
                <enabled>TRUE</enabled>
                <start>71</start>
                <end>72</end>
                <file id="file-73"/>
              </clipitem>
              <clipitem frameBlend="FALSE" id="clipitem-216">
                <name>James.072.png</name>
                <masterclipid>masterclip-74</masterclipid>
                <rate>
                  <timebase>24</timebase>
                  <ntsc>FALSE</ntsc>
                </rate>
                <duration>1</duration>
                <enabled>TRUE</enabled>
                <alphatype>straight</alphatype>
                <rate>
                  <timebase>24</timebase>
                  <ntsc>FALSE</ntsc>
                </rate>
                <enabled>TRUE</enabled>
                <start>72</start>
                <end>73</end>
                <file id="file-74"/>
              </clipitem>
              <clipitem frameBlend="FALSE" id="clipitem-217">
                <name>James.073.png</name>
                <masterclipid>masterclip-75</masterclipid>
                <rate>
                  <timebase>24</timebase>
                  <ntsc>FALSE</ntsc>
                </rate>
                <duration>1</duration>
                <enabled>TRUE</enabled>
                <alphatype>straight</alphatype>
                <rate>
                  <timebase>24</timebase>
                  <ntsc>FALSE</ntsc>
                </rate>
                <enabled>TRUE</enabled>
                <start>73</start>
                <end>74</end>
                <file id="file-75"/>
              </clipitem>
              <clipitem frameBlend="FALSE" id="clipitem-218">
                <name>James.074.png</name>
                <masterclipid>masterclip-76</masterclipid>
                <rate>
                  <timebase>24</timebase>
                  <ntsc>FALSE</ntsc>
                </rate>
                <duration>1</duration>
                <enabled>TRUE</enabled>
                <alphatype>straight</alphatype>
                <rate>
                  <timebase>24</timebase>
                  <ntsc>FALSE</ntsc>
                </rate>
                <enabled>TRUE</enabled>
                <start>74</start>
                <end>75</end>
                <file id="file-76"/>
              </clipitem>
              <clipitem frameBlend="FALSE" id="clipitem-219">
                <name>James.075.png</name>
                <masterclipid>masterclip-77</masterclipid>
                <rate>
                  <timebase>24</timebase>
                  <ntsc>FALSE</ntsc>
                </rate>
                <duration>1</duration>
                <enabled>TRUE</enabled>
                <alphatype>straight</alphatype>
                <rate>
                  <timebase>24</timebase>
                  <ntsc>FALSE</ntsc>
                </rate>
                <enabled>TRUE</enabled>
                <start>75</start>
                <end>76</end>
                <file id="file-77"/>
              </clipitem>
              <clipitem frameBlend="FALSE" id="clipitem-220">
                <name>James.076.png</name>
                <masterclipid>masterclip-78</masterclipid>
                <rate>
                  <timebase>24</timebase>
                  <ntsc>FALSE</ntsc>
                </rate>
                <duration>1</duration>
                <enabled>TRUE</enabled>
                <alphatype>straight</alphatype>
                <rate>
                  <timebase>24</timebase>
                  <ntsc>FALSE</ntsc>
                </rate>
                <enabled>TRUE</enabled>
                <start>76</start>
                <end>77</end>
                <file id="file-78"/>
              </clipitem>
              <clipitem frameBlend="FALSE" id="clipitem-221">
                <name>James.077.png</name>
                <masterclipid>masterclip-79</masterclipid>
                <rate>
                  <timebase>24</timebase>
                  <ntsc>FALSE</ntsc>
                </rate>
                <duration>1</duration>
                <enabled>TRUE</enabled>
                <alphatype>straight</alphatype>
                <rate>
                  <timebase>24</timebase>
                  <ntsc>FALSE</ntsc>
                </rate>
                <enabled>TRUE</enabled>
                <start>77</start>
                <end>78</end>
                <file id="file-79"/>
              </clipitem>
              <clipitem frameBlend="FALSE" id="clipitem-222">
                <name>James.078.png</name>
                <masterclipid>masterclip-80</masterclipid>
                <rate>
                  <timebase>24</timebase>
                  <ntsc>FALSE</ntsc>
                </rate>
                <duration>1</duration>
                <enabled>TRUE</enabled>
                <alphatype>straight</alphatype>
                <rate>
                  <timebase>24</timebase>
                  <ntsc>FALSE</ntsc>
                </rate>
                <enabled>TRUE</enabled>
                <start>78</start>
                <end>79</end>
                <file id="file-80"/>
              </clipitem>
              <clipitem frameBlend="FALSE" id="clipitem-223">
                <name>James.079.png</name>
                <masterclipid>masterclip-81</masterclipid>
                <rate>
                  <timebase>24</timebase>
                  <ntsc>FALSE</ntsc>
                </rate>
                <duration>1</duration>
                <enabled>TRUE</enabled>
                <alphatype>straight</alphatype>
                <rate>
                  <timebase>24</timebase>
                  <ntsc>FALSE</ntsc>
                </rate>
                <enabled>TRUE</enabled>
                <start>79</start>
                <end>80</end>
                <file id="file-81"/>
              </clipitem>
              <clipitem frameBlend="FALSE" id="clipitem-224">
                <name>James.080.png</name>
                <masterclipid>masterclip-82</masterclipid>
                <rate>
                  <timebase>24</timebase>
                  <ntsc>FALSE</ntsc>
                </rate>
                <duration>1</duration>
                <enabled>TRUE</enabled>
                <alphatype>straight</alphatype>
                <rate>
                  <timebase>24</timebase>
                  <ntsc>FALSE</ntsc>
                </rate>
                <enabled>TRUE</enabled>
                <start>80</start>
                <end>81</end>
                <file id="file-82"/>
              </clipitem>
              <clipitem frameBlend="FALSE" id="clipitem-225">
                <name>James.081.png</name>
                <masterclipid>masterclip-83</masterclipid>
                <rate>
                  <timebase>24</timebase>
                  <ntsc>FALSE</ntsc>
                </rate>
                <duration>1</duration>
                <enabled>TRUE</enabled>
                <alphatype>straight</alphatype>
                <rate>
                  <timebase>24</timebase>
                  <ntsc>FALSE</ntsc>
                </rate>
                <enabled>TRUE</enabled>
                <start>81</start>
                <end>82</end>
                <file id="file-83"/>
              </clipitem>
              <clipitem frameBlend="FALSE" id="clipitem-226">
                <name>James.082.png</name>
                <masterclipid>masterclip-84</masterclipid>
                <rate>
                  <timebase>24</timebase>
                  <ntsc>FALSE</ntsc>
                </rate>
                <duration>1</duration>
                <enabled>TRUE</enabled>
                <alphatype>straight</alphatype>
                <rate>
                  <timebase>24</timebase>
                  <ntsc>FALSE</ntsc>
                </rate>
                <enabled>TRUE</enabled>
                <start>82</start>
                <end>83</end>
                <file id="file-84"/>
              </clipitem>
              <clipitem frameBlend="FALSE" id="clipitem-227">
                <name>James.083.png</name>
                <masterclipid>masterclip-85</masterclipid>
                <rate>
                  <timebase>24</timebase>
                  <ntsc>FALSE</ntsc>
                </rate>
                <duration>1</duration>
                <enabled>TRUE</enabled>
                <alphatype>straight</alphatype>
                <rate>
                  <timebase>24</timebase>
                  <ntsc>FALSE</ntsc>
                </rate>
                <enabled>TRUE</enabled>
                <start>83</start>
                <end>84</end>
                <file id="file-85"/>
              </clipitem>
              <clipitem frameBlend="FALSE" id="clipitem-228">
                <name>James.084.png</name>
                <masterclipid>masterclip-86</masterclipid>
                <rate>
                  <timebase>24</timebase>
                  <ntsc>FALSE</ntsc>
                </rate>
                <duration>1</duration>
                <enabled>TRUE</enabled>
                <alphatype>straight</alphatype>
                <rate>
                  <timebase>24</timebase>
                  <ntsc>FALSE</ntsc>
                </rate>
                <enabled>TRUE</enabled>
                <start>84</start>
                <end>85</end>
                <file id="file-86"/>
              </clipitem>
              <clipitem frameBlend="FALSE" id="clipitem-229">
                <name>James.085.png</name>
                <masterclipid>masterclip-87</masterclipid>
                <rate>
                  <timebase>24</timebase>
                  <ntsc>FALSE</ntsc>
                </rate>
                <duration>1</duration>
                <enabled>TRUE</enabled>
                <alphatype>straight</alphatype>
                <rate>
                  <timebase>24</timebase>
                  <ntsc>FALSE</ntsc>
                </rate>
                <enabled>TRUE</enabled>
                <start>85</start>
                <end>86</end>
                <file id="file-87"/>
              </clipitem>
              <clipitem frameBlend="FALSE" id="clipitem-230">
                <name>James.086.png</name>
                <masterclipid>masterclip-88</masterclipid>
                <rate>
                  <timebase>24</timebase>
                  <ntsc>FALSE</ntsc>
                </rate>
                <duration>1</duration>
                <enabled>TRUE</enabled>
                <alphatype>straight</alphatype>
                <rate>
                  <timebase>24</timebase>
                  <ntsc>FALSE</ntsc>
                </rate>
                <enabled>TRUE</enabled>
                <start>86</start>
                <end>87</end>
                <file id="file-88"/>
              </clipitem>
              <clipitem frameBlend="FALSE" id="clipitem-231">
                <name>James.087.png</name>
                <masterclipid>masterclip-89</masterclipid>
                <rate>
                  <timebase>24</timebase>
                  <ntsc>FALSE</ntsc>
                </rate>
                <duration>1</duration>
                <enabled>TRUE</enabled>
                <alphatype>straight</alphatype>
                <rate>
                  <timebase>24</timebase>
                  <ntsc>FALSE</ntsc>
                </rate>
                <enabled>TRUE</enabled>
                <start>87</start>
                <end>88</end>
                <file id="file-89"/>
              </clipitem>
              <clipitem frameBlend="FALSE" id="clipitem-232">
                <name>James.088.png</name>
                <masterclipid>masterclip-90</masterclipid>
                <rate>
                  <timebase>24</timebase>
                  <ntsc>FALSE</ntsc>
                </rate>
                <duration>1</duration>
                <enabled>TRUE</enabled>
                <alphatype>straight</alphatype>
                <rate>
                  <timebase>24</timebase>
                  <ntsc>FALSE</ntsc>
                </rate>
                <enabled>TRUE</enabled>
                <start>88</start>
                <end>89</end>
                <file id="file-90"/>
              </clipitem>
              <clipitem frameBlend="FALSE" id="clipitem-233">
                <name>James.089.png</name>
                <masterclipid>masterclip-91</masterclipid>
                <rate>
                  <timebase>24</timebase>
                  <ntsc>FALSE</ntsc>
                </rate>
                <duration>1</duration>
                <enabled>TRUE</enabled>
                <alphatype>straight</alphatype>
                <rate>
                  <timebase>24</timebase>
                  <ntsc>FALSE</ntsc>
                </rate>
                <enabled>TRUE</enabled>
                <start>89</start>
                <end>90</end>
                <file id="file-91"/>
              </clipitem>
              <clipitem frameBlend="FALSE" id="clipitem-234">
                <name>James.090.png</name>
                <masterclipid>masterclip-92</masterclipid>
                <rate>
                  <timebase>24</timebase>
                  <ntsc>FALSE</ntsc>
                </rate>
                <duration>1</duration>
                <enabled>TRUE</enabled>
                <alphatype>straight</alphatype>
                <rate>
                  <timebase>24</timebase>
                  <ntsc>FALSE</ntsc>
                </rate>
                <enabled>TRUE</enabled>
                <start>90</start>
                <end>91</end>
                <file id="file-92"/>
              </clipitem>
              <clipitem frameBlend="FALSE" id="clipitem-235">
                <name>James.091.png</name>
                <masterclipid>masterclip-93</masterclipid>
                <rate>
                  <timebase>24</timebase>
                  <ntsc>FALSE</ntsc>
                </rate>
                <duration>1</duration>
                <enabled>TRUE</enabled>
                <alphatype>straight</alphatype>
                <rate>
                  <timebase>24</timebase>
                  <ntsc>FALSE</ntsc>
                </rate>
                <enabled>TRUE</enabled>
                <start>91</start>
                <end>92</end>
                <file id="file-93"/>
              </clipitem>
              <clipitem frameBlend="FALSE" id="clipitem-236">
                <name>James.092.png</name>
                <masterclipid>masterclip-94</masterclipid>
                <rate>
                  <timebase>24</timebase>
                  <ntsc>FALSE</ntsc>
                </rate>
                <duration>1</duration>
                <enabled>TRUE</enabled>
                <alphatype>straight</alphatype>
                <rate>
                  <timebase>24</timebase>
                  <ntsc>FALSE</ntsc>
                </rate>
                <enabled>TRUE</enabled>
                <start>92</start>
                <end>93</end>
                <file id="file-94"/>
              </clipitem>
              <clipitem frameBlend="FALSE" id="clipitem-237">
                <name>James.093.png</name>
                <masterclipid>masterclip-95</masterclipid>
                <rate>
                  <timebase>24</timebase>
                  <ntsc>FALSE</ntsc>
                </rate>
                <duration>1</duration>
                <enabled>TRUE</enabled>
                <alphatype>straight</alphatype>
                <rate>
                  <timebase>24</timebase>
                  <ntsc>FALSE</ntsc>
                </rate>
                <enabled>TRUE</enabled>
                <start>93</start>
                <end>94</end>
                <file id="file-95"/>
              </clipitem>
              <clipitem frameBlend="FALSE" id="clipitem-238">
                <name>James.094.png</name>
                <masterclipid>masterclip-96</masterclipid>
                <rate>
                  <timebase>24</timebase>
                  <ntsc>FALSE</ntsc>
                </rate>
                <duration>1</duration>
                <enabled>TRUE</enabled>
                <alphatype>straight</alphatype>
                <rate>
                  <timebase>24</timebase>
                  <ntsc>FALSE</ntsc>
                </rate>
                <enabled>TRUE</enabled>
                <start>94</start>
                <end>95</end>
                <file id="file-96"/>
              </clipitem>
              <clipitem frameBlend="FALSE" id="clipitem-239">
                <name>James.095.png</name>
                <masterclipid>masterclip-97</masterclipid>
                <rate>
                  <timebase>24</timebase>
                  <ntsc>FALSE</ntsc>
                </rate>
                <duration>1</duration>
                <enabled>TRUE</enabled>
                <alphatype>straight</alphatype>
                <rate>
                  <timebase>24</timebase>
                  <ntsc>FALSE</ntsc>
                </rate>
                <enabled>TRUE</enabled>
                <start>95</start>
                <end>96</end>
                <file id="file-97"/>
              </clipitem>
              <clipitem frameBlend="FALSE" id="clipitem-240">
                <name>James.096.png</name>
                <masterclipid>masterclip-98</masterclipid>
                <rate>
                  <timebase>24</timebase>
                  <ntsc>FALSE</ntsc>
                </rate>
                <duration>1</duration>
                <enabled>TRUE</enabled>
                <alphatype>straight</alphatype>
                <rate>
                  <timebase>24</timebase>
                  <ntsc>FALSE</ntsc>
                </rate>
                <enabled>TRUE</enabled>
                <start>96</start>
                <end>97</end>
                <file id="file-98"/>
              </clipitem>
              <clipitem frameBlend="FALSE" id="clipitem-241">
                <name>James.097.png</name>
                <masterclipid>masterclip-99</masterclipid>
                <rate>
                  <timebase>24</timebase>
                  <ntsc>FALSE</ntsc>
                </rate>
                <duration>1</duration>
                <enabled>TRUE</enabled>
                <alphatype>straight</alphatype>
                <rate>
                  <timebase>24</timebase>
                  <ntsc>FALSE</ntsc>
                </rate>
                <enabled>TRUE</enabled>
                <start>97</start>
                <end>98</end>
                <file id="file-99"/>
              </clipitem>
              <clipitem frameBlend="FALSE" id="clipitem-242">
                <name>James.098.png</name>
                <masterclipid>masterclip-100</masterclipid>
                <rate>
                  <timebase>24</timebase>
                  <ntsc>FALSE</ntsc>
                </rate>
                <duration>1</duration>
                <enabled>TRUE</enabled>
                <alphatype>straight</alphatype>
                <rate>
                  <timebase>24</timebase>
                  <ntsc>FALSE</ntsc>
                </rate>
                <enabled>TRUE</enabled>
                <start>98</start>
                <end>99</end>
                <file id="file-100"/>
              </clipitem>
              <clipitem frameBlend="FALSE" id="clipitem-243">
                <name>James.099.png</name>
                <masterclipid>masterclip-101</masterclipid>
                <rate>
                  <timebase>24</timebase>
                  <ntsc>FALSE</ntsc>
                </rate>
                <duration>1</duration>
                <enabled>TRUE</enabled>
                <alphatype>straight</alphatype>
                <rate>
                  <timebase>24</timebase>
                  <ntsc>FALSE</ntsc>
                </rate>
                <enabled>TRUE</enabled>
                <start>99</start>
                <end>100</end>
                <file id="file-101"/>
              </clipitem>
              <clipitem frameBlend="FALSE" id="clipitem-244">
                <name>James.100.png</name>
                <masterclipid>masterclip-102</masterclipid>
                <rate>
                  <timebase>24</timebase>
                  <ntsc>FALSE</ntsc>
                </rate>
                <duration>1</duration>
                <enabled>TRUE</enabled>
                <alphatype>straight</alphatype>
                <rate>
                  <timebase>24</timebase>
                  <ntsc>FALSE</ntsc>
                </rate>
                <enabled>TRUE</enabled>
                <start>100</start>
                <end>101</end>
                <file id="file-102"/>
              </clipitem>
              <clipitem frameBlend="FALSE" id="clipitem-245">
                <name>James.101.png</name>
                <masterclipid>masterclip-103</masterclipid>
                <rate>
                  <timebase>24</timebase>
                  <ntsc>FALSE</ntsc>
                </rate>
                <duration>1</duration>
                <enabled>TRUE</enabled>
                <alphatype>straight</alphatype>
                <rate>
                  <timebase>24</timebase>
                  <ntsc>FALSE</ntsc>
                </rate>
                <enabled>TRUE</enabled>
                <start>101</start>
                <end>102</end>
                <file id="file-103"/>
              </clipitem>
              <clipitem frameBlend="FALSE" id="clipitem-246">
                <name>James.102.png</name>
                <masterclipid>masterclip-104</masterclipid>
                <rate>
                  <timebase>24</timebase>
                  <ntsc>FALSE</ntsc>
                </rate>
                <duration>1</duration>
                <enabled>TRUE</enabled>
                <alphatype>straight</alphatype>
                <rate>
                  <timebase>24</timebase>
                  <ntsc>FALSE</ntsc>
                </rate>
                <enabled>TRUE</enabled>
                <start>102</start>
                <end>103</end>
                <file id="file-104"/>
              </clipitem>
              <clipitem frameBlend="FALSE" id="clipitem-247">
                <name>James.103.png</name>
                <masterclipid>masterclip-105</masterclipid>
                <rate>
                  <timebase>24</timebase>
                  <ntsc>FALSE</ntsc>
                </rate>
                <duration>1</duration>
                <enabled>TRUE</enabled>
                <alphatype>straight</alphatype>
                <rate>
                  <timebase>24</timebase>
                  <ntsc>FALSE</ntsc>
                </rate>
                <enabled>TRUE</enabled>
                <start>103</start>
                <end>104</end>
                <file id="file-105"/>
              </clipitem>
              <clipitem frameBlend="FALSE" id="clipitem-248">
                <name>James.104.png</name>
                <masterclipid>masterclip-106</masterclipid>
                <rate>
                  <timebase>24</timebase>
                  <ntsc>FALSE</ntsc>
                </rate>
                <duration>1</duration>
                <enabled>TRUE</enabled>
                <alphatype>straight</alphatype>
                <rate>
                  <timebase>24</timebase>
                  <ntsc>FALSE</ntsc>
                </rate>
                <enabled>TRUE</enabled>
                <start>104</start>
                <end>105</end>
                <file id="file-106"/>
              </clipitem>
              <clipitem frameBlend="FALSE" id="clipitem-249">
                <name>James.105.png</name>
                <masterclipid>masterclip-107</masterclipid>
                <rate>
                  <timebase>24</timebase>
                  <ntsc>FALSE</ntsc>
                </rate>
                <duration>1</duration>
                <enabled>TRUE</enabled>
                <alphatype>straight</alphatype>
                <rate>
                  <timebase>24</timebase>
                  <ntsc>FALSE</ntsc>
                </rate>
                <enabled>TRUE</enabled>
                <start>105</start>
                <end>106</end>
                <file id="file-107"/>
              </clipitem>
              <clipitem frameBlend="FALSE" id="clipitem-250">
                <name>James.106.png</name>
                <masterclipid>masterclip-108</masterclipid>
                <rate>
                  <timebase>24</timebase>
                  <ntsc>FALSE</ntsc>
                </rate>
                <duration>1</duration>
                <enabled>TRUE</enabled>
                <alphatype>straight</alphatype>
                <rate>
                  <timebase>24</timebase>
                  <ntsc>FALSE</ntsc>
                </rate>
                <enabled>TRUE</enabled>
                <start>106</start>
                <end>107</end>
                <file id="file-108"/>
              </clipitem>
              <clipitem frameBlend="FALSE" id="clipitem-251">
                <name>James.107.png</name>
                <masterclipid>masterclip-109</masterclipid>
                <rate>
                  <timebase>24</timebase>
                  <ntsc>FALSE</ntsc>
                </rate>
                <duration>1</duration>
                <enabled>TRUE</enabled>
                <alphatype>straight</alphatype>
                <rate>
                  <timebase>24</timebase>
                  <ntsc>FALSE</ntsc>
                </rate>
                <enabled>TRUE</enabled>
                <start>107</start>
                <end>108</end>
                <file id="file-109"/>
              </clipitem>
              <clipitem frameBlend="FALSE" id="clipitem-252">
                <name>James.108.png</name>
                <masterclipid>masterclip-110</masterclipid>
                <rate>
                  <timebase>24</timebase>
                  <ntsc>FALSE</ntsc>
                </rate>
                <duration>1</duration>
                <enabled>TRUE</enabled>
                <alphatype>straight</alphatype>
                <rate>
                  <timebase>24</timebase>
                  <ntsc>FALSE</ntsc>
                </rate>
                <enabled>TRUE</enabled>
                <start>108</start>
                <end>109</end>
                <file id="file-110"/>
              </clipitem>
              <clipitem frameBlend="FALSE" id="clipitem-253">
                <name>James.109.png</name>
                <masterclipid>masterclip-111</masterclipid>
                <rate>
                  <timebase>24</timebase>
                  <ntsc>FALSE</ntsc>
                </rate>
                <duration>1</duration>
                <enabled>TRUE</enabled>
                <alphatype>straight</alphatype>
                <rate>
                  <timebase>24</timebase>
                  <ntsc>FALSE</ntsc>
                </rate>
                <enabled>TRUE</enabled>
                <start>109</start>
                <end>110</end>
                <file id="file-111"/>
              </clipitem>
              <clipitem frameBlend="FALSE" id="clipitem-254">
                <name>James.110.png</name>
                <masterclipid>masterclip-112</masterclipid>
                <rate>
                  <timebase>24</timebase>
                  <ntsc>FALSE</ntsc>
                </rate>
                <duration>1</duration>
                <enabled>TRUE</enabled>
                <alphatype>straight</alphatype>
                <rate>
                  <timebase>24</timebase>
                  <ntsc>FALSE</ntsc>
                </rate>
                <enabled>TRUE</enabled>
                <start>110</start>
                <end>111</end>
                <file id="file-112"/>
              </clipitem>
              <clipitem frameBlend="FALSE" id="clipitem-255">
                <name>James.111.png</name>
                <masterclipid>masterclip-113</masterclipid>
                <rate>
                  <timebase>24</timebase>
                  <ntsc>FALSE</ntsc>
                </rate>
                <duration>1</duration>
                <enabled>TRUE</enabled>
                <alphatype>straight</alphatype>
                <rate>
                  <timebase>24</timebase>
                  <ntsc>FALSE</ntsc>
                </rate>
                <enabled>TRUE</enabled>
                <start>111</start>
                <end>112</end>
                <file id="file-113"/>
              </clipitem>
              <clipitem frameBlend="FALSE" id="clipitem-256">
                <name>James.112.png</name>
                <masterclipid>masterclip-114</masterclipid>
                <rate>
                  <timebase>24</timebase>
                  <ntsc>FALSE</ntsc>
                </rate>
                <duration>1</duration>
                <enabled>TRUE</enabled>
                <alphatype>straight</alphatype>
                <rate>
                  <timebase>24</timebase>
                  <ntsc>FALSE</ntsc>
                </rate>
                <enabled>TRUE</enabled>
                <start>112</start>
                <end>113</end>
                <file id="file-114"/>
              </clipitem>
              <clipitem frameBlend="FALSE" id="clipitem-257">
                <name>James.113.png</name>
                <masterclipid>masterclip-115</masterclipid>
                <rate>
                  <timebase>24</timebase>
                  <ntsc>FALSE</ntsc>
                </rate>
                <duration>1</duration>
                <enabled>TRUE</enabled>
                <alphatype>straight</alphatype>
                <rate>
                  <timebase>24</timebase>
                  <ntsc>FALSE</ntsc>
                </rate>
                <enabled>TRUE</enabled>
                <start>113</start>
                <end>114</end>
                <file id="file-115"/>
              </clipitem>
              <clipitem frameBlend="FALSE" id="clipitem-258">
                <name>James.114.png</name>
                <masterclipid>masterclip-116</masterclipid>
                <rate>
                  <timebase>24</timebase>
                  <ntsc>FALSE</ntsc>
                </rate>
                <duration>1</duration>
                <enabled>TRUE</enabled>
                <alphatype>straight</alphatype>
                <rate>
                  <timebase>24</timebase>
                  <ntsc>FALSE</ntsc>
                </rate>
                <enabled>TRUE</enabled>
                <start>114</start>
                <end>115</end>
                <file id="file-116"/>
              </clipitem>
              <clipitem frameBlend="FALSE" id="clipitem-259">
                <name>James.115.png</name>
                <masterclipid>masterclip-117</masterclipid>
                <rate>
                  <timebase>24</timebase>
                  <ntsc>FALSE</ntsc>
                </rate>
                <duration>1</duration>
                <enabled>TRUE</enabled>
                <alphatype>straight</alphatype>
                <rate>
                  <timebase>24</timebase>
                  <ntsc>FALSE</ntsc>
                </rate>
                <enabled>TRUE</enabled>
                <start>115</start>
                <end>116</end>
                <file id="file-117"/>
              </clipitem>
              <clipitem frameBlend="FALSE" id="clipitem-260">
                <name>James.116.png</name>
                <masterclipid>masterclip-118</masterclipid>
                <rate>
                  <timebase>24</timebase>
                  <ntsc>FALSE</ntsc>
                </rate>
                <duration>1</duration>
                <enabled>TRUE</enabled>
                <alphatype>straight</alphatype>
                <rate>
                  <timebase>24</timebase>
                  <ntsc>FALSE</ntsc>
                </rate>
                <enabled>TRUE</enabled>
                <start>116</start>
                <end>117</end>
                <file id="file-118"/>
              </clipitem>
              <clipitem frameBlend="FALSE" id="clipitem-261">
                <name>James.117.png</name>
                <masterclipid>masterclip-119</masterclipid>
                <rate>
                  <timebase>24</timebase>
                  <ntsc>FALSE</ntsc>
                </rate>
                <duration>1</duration>
                <enabled>TRUE</enabled>
                <alphatype>straight</alphatype>
                <rate>
                  <timebase>24</timebase>
                  <ntsc>FALSE</ntsc>
                </rate>
                <enabled>TRUE</enabled>
                <start>117</start>
                <end>118</end>
                <file id="file-119"/>
              </clipitem>
              <clipitem frameBlend="FALSE" id="clipitem-262">
                <name>James.118.png</name>
                <masterclipid>masterclip-120</masterclipid>
                <rate>
                  <timebase>24</timebase>
                  <ntsc>FALSE</ntsc>
                </rate>
                <duration>1</duration>
                <enabled>TRUE</enabled>
                <alphatype>straight</alphatype>
                <rate>
                  <timebase>24</timebase>
                  <ntsc>FALSE</ntsc>
                </rate>
                <enabled>TRUE</enabled>
                <start>118</start>
                <end>119</end>
                <file id="file-120"/>
              </clipitem>
              <clipitem frameBlend="FALSE" id="clipitem-263">
                <name>James.119.png</name>
                <masterclipid>masterclip-121</masterclipid>
                <rate>
                  <timebase>24</timebase>
                  <ntsc>FALSE</ntsc>
                </rate>
                <duration>1</duration>
                <enabled>TRUE</enabled>
                <alphatype>straight</alphatype>
                <rate>
                  <timebase>24</timebase>
                  <ntsc>FALSE</ntsc>
                </rate>
                <enabled>TRUE</enabled>
                <start>119</start>
                <end>120</end>
                <file id="file-121"/>
              </clipitem>
              <clipitem frameBlend="FALSE" id="clipitem-264">
                <name>James.120.png</name>
                <masterclipid>masterclip-122</masterclipid>
                <rate>
                  <timebase>24</timebase>
                  <ntsc>FALSE</ntsc>
                </rate>
                <duration>1</duration>
                <enabled>TRUE</enabled>
                <alphatype>straight</alphatype>
                <rate>
                  <timebase>24</timebase>
                  <ntsc>FALSE</ntsc>
                </rate>
                <enabled>TRUE</enabled>
                <start>120</start>
                <end>121</end>
                <file id="file-122"/>
              </clipitem>
              <clipitem frameBlend="FALSE" id="clipitem-265">
                <name>James.121.png</name>
                <masterclipid>masterclip-123</masterclipid>
                <rate>
                  <timebase>24</timebase>
                  <ntsc>FALSE</ntsc>
                </rate>
                <duration>1</duration>
                <enabled>TRUE</enabled>
                <alphatype>straight</alphatype>
                <rate>
                  <timebase>24</timebase>
                  <ntsc>FALSE</ntsc>
                </rate>
                <enabled>TRUE</enabled>
                <start>121</start>
                <end>122</end>
                <file id="file-123"/>
              </clipitem>
              <clipitem frameBlend="FALSE" id="clipitem-266">
                <name>James.122.png</name>
                <masterclipid>masterclip-124</masterclipid>
                <rate>
                  <timebase>24</timebase>
                  <ntsc>FALSE</ntsc>
                </rate>
                <duration>1</duration>
                <enabled>TRUE</enabled>
                <alphatype>straight</alphatype>
                <rate>
                  <timebase>24</timebase>
                  <ntsc>FALSE</ntsc>
                </rate>
                <enabled>TRUE</enabled>
                <start>122</start>
                <end>123</end>
                <file id="file-124"/>
              </clipitem>
              <clipitem frameBlend="FALSE" id="clipitem-267">
                <name>James.123.png</name>
                <masterclipid>masterclip-125</masterclipid>
                <rate>
                  <timebase>24</timebase>
                  <ntsc>FALSE</ntsc>
                </rate>
                <duration>1</duration>
                <enabled>TRUE</enabled>
                <alphatype>straight</alphatype>
                <rate>
                  <timebase>24</timebase>
                  <ntsc>FALSE</ntsc>
                </rate>
                <enabled>TRUE</enabled>
                <start>123</start>
                <end>124</end>
                <file id="file-125"/>
              </clipitem>
              <clipitem frameBlend="FALSE" id="clipitem-268">
                <name>James.124.png</name>
                <masterclipid>masterclip-126</masterclipid>
                <rate>
                  <timebase>24</timebase>
                  <ntsc>FALSE</ntsc>
                </rate>
                <duration>1</duration>
                <enabled>TRUE</enabled>
                <alphatype>straight</alphatype>
                <rate>
                  <timebase>24</timebase>
                  <ntsc>FALSE</ntsc>
                </rate>
                <enabled>TRUE</enabled>
                <start>124</start>
                <end>125</end>
                <file id="file-126"/>
              </clipitem>
              <clipitem frameBlend="FALSE" id="clipitem-269">
                <name>James.125.png</name>
                <masterclipid>masterclip-127</masterclipid>
                <rate>
                  <timebase>24</timebase>
                  <ntsc>FALSE</ntsc>
                </rate>
                <duration>1</duration>
                <enabled>TRUE</enabled>
                <alphatype>straight</alphatype>
                <rate>
                  <timebase>24</timebase>
                  <ntsc>FALSE</ntsc>
                </rate>
                <enabled>TRUE</enabled>
                <start>125</start>
                <end>126</end>
                <file id="file-127"/>
              </clipitem>
              <clipitem frameBlend="FALSE" id="clipitem-270">
                <name>James.126.png</name>
                <masterclipid>masterclip-128</masterclipid>
                <rate>
                  <timebase>24</timebase>
                  <ntsc>FALSE</ntsc>
                </rate>
                <duration>1</duration>
                <enabled>TRUE</enabled>
                <alphatype>straight</alphatype>
                <rate>
                  <timebase>24</timebase>
                  <ntsc>FALSE</ntsc>
                </rate>
                <enabled>TRUE</enabled>
                <start>126</start>
                <end>127</end>
                <file id="file-128"/>
              </clipitem>
              <clipitem frameBlend="FALSE" id="clipitem-271">
                <name>James.127.png</name>
                <masterclipid>masterclip-129</masterclipid>
                <rate>
                  <timebase>24</timebase>
                  <ntsc>FALSE</ntsc>
                </rate>
                <duration>1</duration>
                <enabled>TRUE</enabled>
                <alphatype>straight</alphatype>
                <rate>
                  <timebase>24</timebase>
                  <ntsc>FALSE</ntsc>
                </rate>
                <enabled>TRUE</enabled>
                <start>127</start>
                <end>128</end>
                <file id="file-129"/>
              </clipitem>
              <clipitem frameBlend="FALSE" id="clipitem-272">
                <name>James.128.png</name>
                <masterclipid>masterclip-130</masterclipid>
                <rate>
                  <timebase>24</timebase>
                  <ntsc>FALSE</ntsc>
                </rate>
                <duration>1</duration>
                <enabled>TRUE</enabled>
                <alphatype>straight</alphatype>
                <rate>
                  <timebase>24</timebase>
                  <ntsc>FALSE</ntsc>
                </rate>
                <enabled>TRUE</enabled>
                <start>128</start>
                <end>129</end>
                <file id="file-130"/>
              </clipitem>
              <clipitem frameBlend="FALSE" id="clipitem-273">
                <name>James.129.png</name>
                <masterclipid>masterclip-131</masterclipid>
                <rate>
                  <timebase>24</timebase>
                  <ntsc>FALSE</ntsc>
                </rate>
                <duration>1</duration>
                <enabled>TRUE</enabled>
                <alphatype>straight</alphatype>
                <rate>
                  <timebase>24</timebase>
                  <ntsc>FALSE</ntsc>
                </rate>
                <enabled>TRUE</enabled>
                <start>129</start>
                <end>130</end>
                <file id="file-131"/>
              </clipitem>
              <clipitem frameBlend="FALSE" id="clipitem-274">
                <name>James.130.png</name>
                <masterclipid>masterclip-132</masterclipid>
                <rate>
                  <timebase>24</timebase>
                  <ntsc>FALSE</ntsc>
                </rate>
                <duration>1</duration>
                <enabled>TRUE</enabled>
                <alphatype>straight</alphatype>
                <rate>
                  <timebase>24</timebase>
                  <ntsc>FALSE</ntsc>
                </rate>
                <enabled>TRUE</enabled>
                <start>130</start>
                <end>131</end>
                <file id="file-132"/>
              </clipitem>
              <clipitem frameBlend="FALSE" id="clipitem-275">
                <name>James.131.png</name>
                <masterclipid>masterclip-133</masterclipid>
                <rate>
                  <timebase>24</timebase>
                  <ntsc>FALSE</ntsc>
                </rate>
                <duration>1</duration>
                <enabled>TRUE</enabled>
                <alphatype>straight</alphatype>
                <rate>
                  <timebase>24</timebase>
                  <ntsc>FALSE</ntsc>
                </rate>
                <enabled>TRUE</enabled>
                <start>131</start>
                <end>132</end>
                <file id="file-133"/>
              </clipitem>
              <clipitem frameBlend="FALSE" id="clipitem-276">
                <name>James.132.png</name>
                <masterclipid>masterclip-134</masterclipid>
                <rate>
                  <timebase>24</timebase>
                  <ntsc>FALSE</ntsc>
                </rate>
                <duration>1</duration>
                <enabled>TRUE</enabled>
                <alphatype>straight</alphatype>
                <rate>
                  <timebase>24</timebase>
                  <ntsc>FALSE</ntsc>
                </rate>
                <enabled>TRUE</enabled>
                <start>132</start>
                <end>133</end>
                <file id="file-134"/>
              </clipitem>
              <clipitem frameBlend="FALSE" id="clipitem-277">
                <name>James.133.png</name>
                <masterclipid>masterclip-135</masterclipid>
                <rate>
                  <timebase>24</timebase>
                  <ntsc>FALSE</ntsc>
                </rate>
                <duration>1</duration>
                <enabled>TRUE</enabled>
                <alphatype>straight</alphatype>
                <rate>
                  <timebase>24</timebase>
                  <ntsc>FALSE</ntsc>
                </rate>
                <enabled>TRUE</enabled>
                <start>133</start>
                <end>134</end>
                <file id="file-135"/>
              </clipitem>
              <clipitem frameBlend="FALSE" id="clipitem-278">
                <name>James.134.png</name>
                <masterclipid>masterclip-136</masterclipid>
                <rate>
                  <timebase>24</timebase>
                  <ntsc>FALSE</ntsc>
                </rate>
                <duration>1</duration>
                <enabled>TRUE</enabled>
                <alphatype>straight</alphatype>
                <rate>
                  <timebase>24</timebase>
                  <ntsc>FALSE</ntsc>
                </rate>
                <enabled>TRUE</enabled>
                <start>134</start>
                <end>135</end>
                <file id="file-136"/>
              </clipitem>
              <clipitem frameBlend="FALSE" id="clipitem-279">
                <name>James.135.png</name>
                <masterclipid>masterclip-137</masterclipid>
                <rate>
                  <timebase>24</timebase>
                  <ntsc>FALSE</ntsc>
                </rate>
                <duration>1</duration>
                <enabled>TRUE</enabled>
                <alphatype>straight</alphatype>
                <rate>
                  <timebase>24</timebase>
                  <ntsc>FALSE</ntsc>
                </rate>
                <enabled>TRUE</enabled>
                <start>135</start>
                <end>136</end>
                <file id="file-137"/>
              </clipitem>
              <clipitem frameBlend="FALSE" id="clipitem-280">
                <name>James.136.png</name>
                <masterclipid>masterclip-138</masterclipid>
                <rate>
                  <timebase>24</timebase>
                  <ntsc>FALSE</ntsc>
                </rate>
                <duration>1</duration>
                <enabled>TRUE</enabled>
                <alphatype>straight</alphatype>
                <rate>
                  <timebase>24</timebase>
                  <ntsc>FALSE</ntsc>
                </rate>
                <enabled>TRUE</enabled>
                <start>136</start>
                <end>137</end>
                <file id="file-138"/>
              </clipitem>
              <clipitem frameBlend="FALSE" id="clipitem-281">
                <name>James.137.png</name>
                <masterclipid>masterclip-139</masterclipid>
                <rate>
                  <timebase>24</timebase>
                  <ntsc>FALSE</ntsc>
                </rate>
                <duration>1</duration>
                <enabled>TRUE</enabled>
                <alphatype>straight</alphatype>
                <rate>
                  <timebase>24</timebase>
                  <ntsc>FALSE</ntsc>
                </rate>
                <enabled>TRUE</enabled>
                <start>137</start>
                <end>138</end>
                <file id="file-139"/>
              </clipitem>
              <clipitem frameBlend="FALSE" id="clipitem-282">
                <name>James.138.png</name>
                <masterclipid>masterclip-140</masterclipid>
                <rate>
                  <timebase>24</timebase>
                  <ntsc>FALSE</ntsc>
                </rate>
                <duration>1</duration>
                <enabled>TRUE</enabled>
                <alphatype>straight</alphatype>
                <rate>
                  <timebase>24</timebase>
                  <ntsc>FALSE</ntsc>
                </rate>
                <enabled>TRUE</enabled>
                <start>138</start>
                <end>139</end>
                <file id="file-140"/>
              </clipitem>
              <clipitem frameBlend="FALSE" id="clipitem-283">
                <name>James.139.png</name>
                <masterclipid>masterclip-141</masterclipid>
                <rate>
                  <timebase>24</timebase>
                  <ntsc>FALSE</ntsc>
                </rate>
                <duration>1</duration>
                <enabled>TRUE</enabled>
                <alphatype>straight</alphatype>
                <rate>
                  <timebase>24</timebase>
                  <ntsc>FALSE</ntsc>
                </rate>
                <enabled>TRUE</enabled>
                <start>139</start>
                <end>140</end>
                <file id="file-141"/>
              </clipitem>
              <clipitem frameBlend="FALSE" id="clipitem-284">
                <name>James.140.png</name>
                <masterclipid>masterclip-142</masterclipid>
                <rate>
                  <timebase>24</timebase>
                  <ntsc>FALSE</ntsc>
                </rate>
                <duration>1</duration>
                <enabled>TRUE</enabled>
                <alphatype>straight</alphatype>
                <rate>
                  <timebase>24</timebase>
                  <ntsc>FALSE</ntsc>
                </rate>
                <enabled>TRUE</enabled>
                <start>140</start>
                <end>141</end>
                <file id="file-142"/>
              </clipitem>
            </track>
            <format>
              <samplecharacteristics>
                <anamorphic>FALSE</anamorphic>
                <pixelaspectratio>square</pixelaspectratio>
                <fielddominance>none</fielddominance>
                <width>686</width>
                <height>511</height>
                <rate>
                  <timebase>24</timebase>
                  <ntsc>FALSE</ntsc>
                </rate>
              </samplecharacteristics>
            </format>
          </video>
          <audio>
            <numOutputChannels>2</numOutputChannels>
            <track frameBlend="FALSE" premiereChannelType="Stereo">
              <clipitem frameBlend="FALSE" id="clipitem-1" premiereChannelType="stereo">
                <name>James.wav</name>
                <masterclipid>masterclip-1</masterclipid>
                <rate>
                  <timebase>24</timebase>
                  <ntsc>FALSE</ntsc>
                </rate>
                <start>0</start>
                <end>141</end>
                <in>0</in>
                <out>141</out>
                <sourcetrack>
                  <mediatype>audio</mediatype>
                  <trackindex>1</trackindex>
                </sourcetrack>
                <link>
                  <linkclipref>clipitem-1</linkclipref>
                  <mediatype>audio</mediatype>
                  <trackindex>1</trackindex>
                  <clipindex>1</clipindex>
                  <groupindex>1</groupindex>
                </link>
                <link>
                  <linkclipref>clipitem-2</linkclipref>
                  <mediatype>audio</mediatype>
                  <trackindex>2</trackindex>
                  <clipindex>1</clipindex>
                  <groupindex>1</groupindex>
                </link>
                <file id="file-1"/>
              </clipitem>
              <enabled>TRUE</enabled>
              <outputchannelindex>1</outputchannelindex>
            </track>
            <track frameBlend="FALSE" premiereChannelType="Stereo">
              <clipitem frameBlend="FALSE" id="clipitem-2" premiereChannelType="stereo">
                <name>James.wav</name>
                <masterclipid>masterclip-1</masterclipid>
                <rate>
                  <timebase>24</timebase>
                  <ntsc>FALSE</ntsc>
                </rate>
                <start>0</start>
                <end>141</end>
                <in>0</in>
                <out>141</out>
                <sourcetrack>
                  <mediatype>audio</mediatype>
                  <trackindex>2</trackindex>
                </sourcetrack>
                <link>
                  <linkclipref>clipitem-1</linkclipref>
                  <mediatype>audio</mediatype>
                  <trackindex>1</trackindex>
                  <clipindex>1</clipindex>
                  <groupindex>1</groupindex>
                </link>
                <link>
                  <linkclipref>clipitem-2</linkclipref>
                  <mediatype>audio</mediatype>
                  <trackindex>2</trackindex>
                  <clipindex>1</clipindex>
                  <groupindex>1</groupindex>
                </link>
                <file id="file-1"/>
              </clipitem>
              <enabled>TRUE</enabled>
              <outputchannelindex>2</outputchannelindex>
            </track>
            <outputs>
              <group>
                <index>0</index>
                <numchannels>1</numchannels>
                <downmix>0</downmix>
                <group>
                  <index>0</index>
                </group>
              </group>
              <group>
                <index>1</index>
                <numchannels>1</numchannels>
                <downmix>0</downmix>
                <group>
                  <index>1</index>
                </group>
              </group>
            </outputs>
            <format>
              <samplecharacteristics>
                <samplerate>48000</samplerate>
                <depth>32</depth>
              </samplecharacteristics>
            </format>
          </audio>
        </media>
        <timecode>
          <rate>
            <timebase>24</timebase>
            <ntsc>FALSE</ntsc>
          </rate>
        </timecode>
      </sequence>
      <bin>
        <name>James Bin</name>
        <children>
          <clip explodedTracks="true" frameBlend="FALSE" id="masterclip-1">
            <uuid>f2b70109-628e-45cc-8a6e-c0eb6c5ef7df</uuid>
            <masterclipid>masterclip-1</masterclipid>
            <ismasterclip>TRUE</ismasterclip>
            <duration>141</duration>
            <in>0</in>
            <out>141</out>
            <name>James.wav</name>
            <rate>
              <timebase>24</timebase>
              <ntsc>FALSE</ntsc>
            </rate>
            <media>
              <audio>
                <track>
                  <clipitem frameBlend="FALSE" id="clipitem-1">
                    <name>James.wav</name>
                    <masterclipid>masterclip-1</masterclipid>
                    <rate>
                      <timebase>24</timebase>
                      <ntsc>FALSE</ntsc>
                    </rate>
                    <file id="file-1">
                      <name>James.wav</name>
                      <pathurl>file://localhost/Users/antoniochiappetta/OneDrive - Aalto University/University/Aalto/Hackatons/Junction/Junction2019-IoK-security_awareness_kids/Assets/Team Animations/Image Sequences/James/James.wav</pathurl>
                      <rate>
                        <timebase>24</timebase>
                        <ntsc>FALSE</ntsc>
                      </rate>
                      <duration>141</duration>
                      <timecode>
                        <rate>
                          <timebase>24</timebase>
                          <ntsc>FALSE</ntsc>
                        </rate>
                      </timecode>
                      <media>
                        <audio>
                          <samplecharacteristics>
                            <samplerate>48000</samplerate>
                            <depth>32</depth>
                          </samplecharacteristics>
                          <channelcount>2</channelcount>
                        </audio>
                      </media>
                    </file>
                    <sourcetrack>
                      <mediatype>audio</mediatype>
                      <trackindex>1</trackindex>
                    </sourcetrack>
                    <link>
                      <linkclipref>clipitem-1</linkclipref>
                      <mediatype>audio</mediatype>
                      <trackindex>1</trackindex>
                      <clipindex>1</clipindex>
                      <groupindex>1</groupindex>
                    </link>
                    <link>
                      <linkclipref>clipitem-2</linkclipref>
                      <mediatype>audio</mediatype>
                      <trackindex>2</trackindex>
                      <clipindex>1</clipindex>
                      <groupindex>1</groupindex>
                    </link>
                  </clipitem>
                </track>
                <track>
                  <clipitem frameBlend="FALSE" id="clipitem-2">
                    <name>James.wav</name>
                    <masterclipid>masterclip-1</masterclipid>
                    <rate>
                      <timebase>24</timebase>
                      <ntsc>FALSE</ntsc>
                    </rate>
                    <sourcetrack>
                      <mediatype>audio</mediatype>
                      <trackindex>2</trackindex>
                    </sourcetrack>
                    <link>
                      <linkclipref>clipitem-1</linkclipref>
                      <mediatype>audio</mediatype>
                      <trackindex>1</trackindex>
                      <clipindex>1</clipindex>
                      <groupindex>1</groupindex>
                    </link>
                    <link>
                      <linkclipref>clipitem-2</linkclipref>
                      <mediatype>audio</mediatype>
                      <trackindex>2</trackindex>
                      <clipindex>1</clipindex>
                      <groupindex>1</groupindex>
                    </link>
                  </clipitem>
                </track>
              </audio>
            </media>
          </clip>
          <clip explodedTracks="true" frameBlend="FALSE" id="masterclip-2">
            <uuid>b85cffc5-66c2-4ad4-a6af-10ed78b4c4ec</uuid>
            <masterclipid>masterclip-2</masterclipid>
            <ismasterclip>TRUE</ismasterclip>
            <duration>141</duration>
            <in>0</in>
            <out>141</out>
            <name>James.000.png</name>
            <rate>
              <timebase>24</timebase>
              <ntsc>FALSE</ntsc>
            </rate>
            <media>
              <video>
                <track>
                  <clipitem frameBlend="FALSE" id="clipitem-3">
                    <name>James.000.png</name>
                    <masterclipid>masterclip-2</masterclipid>
                    <rate>
                      <timebase>24</timebase>
                      <ntsc>FALSE</ntsc>
                    </rate>
                    <alphatype>straight</alphatype>
                    <pixelaspectratio>square</pixelaspectratio>
                    <anamorphic>FALSE</anamorphic>
                    <file id="file-2">
                      <name>James.000.png</name>
                      <pathurl>file://localhost/Users/antoniochiappetta/OneDrive - Aalto University/University/Aalto/Hackatons/Junction/Junction2019-IoK-security_awareness_kids/Assets/Team Animations/Image Sequences/James/James.000.png</pathurl>
                      <rate>
                        <timebase>24</timebase>
                        <ntsc>FALSE</ntsc>
                      </rate>
                      <duration>141</duration>
                      <timecode>
                        <rate>
                          <timebase>24</timebase>
                          <ntsc>FALSE</ntsc>
                        </rate>
                      </timecode>
                      <media>
                        <video>
                          <duration>1</duration>
                          <samplecharacteristics>
                            <anamorphic>FALSE</anamorphic>
                            <pixelaspectratio>square</pixelaspectratio>
                            <fielddominance>none</fielddominance>
                            <width>686</width>
                            <height>511</height>
                          </samplecharacteristics>
                        </video>
                      </media>
                    </file>
                  </clipitem>
                </track>
              </video>
            </media>
          </clip>
          <clip explodedTracks="true" frameBlend="FALSE" id="masterclip-3">
            <uuid>469ccd69-28b6-4765-9486-8014880a3c66</uuid>
            <masterclipid>masterclip-3</masterclipid>
            <ismasterclip>TRUE</ismasterclip>
            <duration>141</duration>
            <in>0</in>
            <out>141</out>
            <name>James.001.png</name>
            <rate>
              <timebase>24</timebase>
              <ntsc>FALSE</ntsc>
            </rate>
            <media>
              <video>
                <track>
                  <clipitem frameBlend="FALSE" id="clipitem-4">
                    <name>James.001.png</name>
                    <masterclipid>masterclip-3</masterclipid>
                    <rate>
                      <timebase>24</timebase>
                      <ntsc>FALSE</ntsc>
                    </rate>
                    <alphatype>straight</alphatype>
                    <pixelaspectratio>square</pixelaspectratio>
                    <anamorphic>FALSE</anamorphic>
                    <file id="file-3">
                      <name>James.001.png</name>
                      <pathurl>file://localhost/Users/antoniochiappetta/OneDrive - Aalto University/University/Aalto/Hackatons/Junction/Junction2019-IoK-security_awareness_kids/Assets/Team Animations/Image Sequences/James/James.001.png</pathurl>
                      <rate>
                        <timebase>24</timebase>
                        <ntsc>FALSE</ntsc>
                      </rate>
                      <duration>141</duration>
                      <timecode>
                        <rate>
                          <timebase>24</timebase>
                          <ntsc>FALSE</ntsc>
                        </rate>
                      </timecode>
                      <media>
                        <video>
                          <duration>1</duration>
                          <samplecharacteristics>
                            <anamorphic>FALSE</anamorphic>
                            <pixelaspectratio>square</pixelaspectratio>
                            <fielddominance>none</fielddominance>
                            <width>686</width>
                            <height>511</height>
                          </samplecharacteristics>
                        </video>
                      </media>
                    </file>
                  </clipitem>
                </track>
              </video>
            </media>
          </clip>
          <clip explodedTracks="true" frameBlend="FALSE" id="masterclip-4">
            <uuid>6122416e-ddc8-40c6-bed8-9ca8568f5fa5</uuid>
            <masterclipid>masterclip-4</masterclipid>
            <ismasterclip>TRUE</ismasterclip>
            <duration>141</duration>
            <in>0</in>
            <out>141</out>
            <name>James.002.png</name>
            <rate>
              <timebase>24</timebase>
              <ntsc>FALSE</ntsc>
            </rate>
            <media>
              <video>
                <track>
                  <clipitem frameBlend="FALSE" id="clipitem-5">
                    <name>James.002.png</name>
                    <masterclipid>masterclip-4</masterclipid>
                    <rate>
                      <timebase>24</timebase>
                      <ntsc>FALSE</ntsc>
                    </rate>
                    <alphatype>straight</alphatype>
                    <pixelaspectratio>square</pixelaspectratio>
                    <anamorphic>FALSE</anamorphic>
                    <file id="file-4">
                      <name>James.002.png</name>
                      <pathurl>file://localhost/Users/antoniochiappetta/OneDrive - Aalto University/University/Aalto/Hackatons/Junction/Junction2019-IoK-security_awareness_kids/Assets/Team Animations/Image Sequences/James/James.002.png</pathurl>
                      <rate>
                        <timebase>24</timebase>
                        <ntsc>FALSE</ntsc>
                      </rate>
                      <duration>141</duration>
                      <timecode>
                        <rate>
                          <timebase>24</timebase>
                          <ntsc>FALSE</ntsc>
                        </rate>
                      </timecode>
                      <media>
                        <video>
                          <duration>1</duration>
                          <samplecharacteristics>
                            <anamorphic>FALSE</anamorphic>
                            <pixelaspectratio>square</pixelaspectratio>
                            <fielddominance>none</fielddominance>
                            <width>686</width>
                            <height>511</height>
                          </samplecharacteristics>
                        </video>
                      </media>
                    </file>
                  </clipitem>
                </track>
              </video>
            </media>
          </clip>
          <clip explodedTracks="true" frameBlend="FALSE" id="masterclip-5">
            <uuid>921179a1-fa61-412b-b6f9-80fd640b30bc</uuid>
            <masterclipid>masterclip-5</masterclipid>
            <ismasterclip>TRUE</ismasterclip>
            <duration>141</duration>
            <in>0</in>
            <out>141</out>
            <name>James.003.png</name>
            <rate>
              <timebase>24</timebase>
              <ntsc>FALSE</ntsc>
            </rate>
            <media>
              <video>
                <track>
                  <clipitem frameBlend="FALSE" id="clipitem-6">
                    <name>James.003.png</name>
                    <masterclipid>masterclip-5</masterclipid>
                    <rate>
                      <timebase>24</timebase>
                      <ntsc>FALSE</ntsc>
                    </rate>
                    <alphatype>straight</alphatype>
                    <pixelaspectratio>square</pixelaspectratio>
                    <anamorphic>FALSE</anamorphic>
                    <file id="file-5">
                      <name>James.003.png</name>
                      <pathurl>file://localhost/Users/antoniochiappetta/OneDrive - Aalto University/University/Aalto/Hackatons/Junction/Junction2019-IoK-security_awareness_kids/Assets/Team Animations/Image Sequences/James/James.003.png</pathurl>
                      <rate>
                        <timebase>24</timebase>
                        <ntsc>FALSE</ntsc>
                      </rate>
                      <duration>141</duration>
                      <timecode>
                        <rate>
                          <timebase>24</timebase>
                          <ntsc>FALSE</ntsc>
                        </rate>
                      </timecode>
                      <media>
                        <video>
                          <duration>1</duration>
                          <samplecharacteristics>
                            <anamorphic>FALSE</anamorphic>
                            <pixelaspectratio>square</pixelaspectratio>
                            <fielddominance>none</fielddominance>
                            <width>686</width>
                            <height>511</height>
                          </samplecharacteristics>
                        </video>
                      </media>
                    </file>
                  </clipitem>
                </track>
              </video>
            </media>
          </clip>
          <clip explodedTracks="true" frameBlend="FALSE" id="masterclip-6">
            <uuid>852ecdb0-8af0-4fa6-a998-5733b1992003</uuid>
            <masterclipid>masterclip-6</masterclipid>
            <ismasterclip>TRUE</ismasterclip>
            <duration>141</duration>
            <in>0</in>
            <out>141</out>
            <name>James.004.png</name>
            <rate>
              <timebase>24</timebase>
              <ntsc>FALSE</ntsc>
            </rate>
            <media>
              <video>
                <track>
                  <clipitem frameBlend="FALSE" id="clipitem-7">
                    <name>James.004.png</name>
                    <masterclipid>masterclip-6</masterclipid>
                    <rate>
                      <timebase>24</timebase>
                      <ntsc>FALSE</ntsc>
                    </rate>
                    <alphatype>straight</alphatype>
                    <pixelaspectratio>square</pixelaspectratio>
                    <anamorphic>FALSE</anamorphic>
                    <file id="file-6">
                      <name>James.004.png</name>
                      <pathurl>file://localhost/Users/antoniochiappetta/OneDrive - Aalto University/University/Aalto/Hackatons/Junction/Junction2019-IoK-security_awareness_kids/Assets/Team Animations/Image Sequences/James/James.004.png</pathurl>
                      <rate>
                        <timebase>24</timebase>
                        <ntsc>FALSE</ntsc>
                      </rate>
                      <duration>141</duration>
                      <timecode>
                        <rate>
                          <timebase>24</timebase>
                          <ntsc>FALSE</ntsc>
                        </rate>
                      </timecode>
                      <media>
                        <video>
                          <duration>1</duration>
                          <samplecharacteristics>
                            <anamorphic>FALSE</anamorphic>
                            <pixelaspectratio>square</pixelaspectratio>
                            <fielddominance>none</fielddominance>
                            <width>686</width>
                            <height>511</height>
                          </samplecharacteristics>
                        </video>
                      </media>
                    </file>
                  </clipitem>
                </track>
              </video>
            </media>
          </clip>
          <clip explodedTracks="true" frameBlend="FALSE" id="masterclip-7">
            <uuid>34fae714-e3b3-4410-b2da-1104e4e8585f</uuid>
            <masterclipid>masterclip-7</masterclipid>
            <ismasterclip>TRUE</ismasterclip>
            <duration>141</duration>
            <in>0</in>
            <out>141</out>
            <name>James.005.png</name>
            <rate>
              <timebase>24</timebase>
              <ntsc>FALSE</ntsc>
            </rate>
            <media>
              <video>
                <track>
                  <clipitem frameBlend="FALSE" id="clipitem-8">
                    <name>James.005.png</name>
                    <masterclipid>masterclip-7</masterclipid>
                    <rate>
                      <timebase>24</timebase>
                      <ntsc>FALSE</ntsc>
                    </rate>
                    <alphatype>straight</alphatype>
                    <pixelaspectratio>square</pixelaspectratio>
                    <anamorphic>FALSE</anamorphic>
                    <file id="file-7">
                      <name>James.005.png</name>
                      <pathurl>file://localhost/Users/antoniochiappetta/OneDrive - Aalto University/University/Aalto/Hackatons/Junction/Junction2019-IoK-security_awareness_kids/Assets/Team Animations/Image Sequences/James/James.005.png</pathurl>
                      <rate>
                        <timebase>24</timebase>
                        <ntsc>FALSE</ntsc>
                      </rate>
                      <duration>141</duration>
                      <timecode>
                        <rate>
                          <timebase>24</timebase>
                          <ntsc>FALSE</ntsc>
                        </rate>
                      </timecode>
                      <media>
                        <video>
                          <duration>1</duration>
                          <samplecharacteristics>
                            <anamorphic>FALSE</anamorphic>
                            <pixelaspectratio>square</pixelaspectratio>
                            <fielddominance>none</fielddominance>
                            <width>686</width>
                            <height>511</height>
                          </samplecharacteristics>
                        </video>
                      </media>
                    </file>
                  </clipitem>
                </track>
              </video>
            </media>
          </clip>
          <clip explodedTracks="true" frameBlend="FALSE" id="masterclip-8">
            <uuid>bb2c5fb4-63ba-4619-bfb7-b71faa8d5f56</uuid>
            <masterclipid>masterclip-8</masterclipid>
            <ismasterclip>TRUE</ismasterclip>
            <duration>141</duration>
            <in>0</in>
            <out>141</out>
            <name>James.006.png</name>
            <rate>
              <timebase>24</timebase>
              <ntsc>FALSE</ntsc>
            </rate>
            <media>
              <video>
                <track>
                  <clipitem frameBlend="FALSE" id="clipitem-9">
                    <name>James.006.png</name>
                    <masterclipid>masterclip-8</masterclipid>
                    <rate>
                      <timebase>24</timebase>
                      <ntsc>FALSE</ntsc>
                    </rate>
                    <alphatype>straight</alphatype>
                    <pixelaspectratio>square</pixelaspectratio>
                    <anamorphic>FALSE</anamorphic>
                    <file id="file-8">
                      <name>James.006.png</name>
                      <pathurl>file://localhost/Users/antoniochiappetta/OneDrive - Aalto University/University/Aalto/Hackatons/Junction/Junction2019-IoK-security_awareness_kids/Assets/Team Animations/Image Sequences/James/James.006.png</pathurl>
                      <rate>
                        <timebase>24</timebase>
                        <ntsc>FALSE</ntsc>
                      </rate>
                      <duration>141</duration>
                      <timecode>
                        <rate>
                          <timebase>24</timebase>
                          <ntsc>FALSE</ntsc>
                        </rate>
                      </timecode>
                      <media>
                        <video>
                          <duration>1</duration>
                          <samplecharacteristics>
                            <anamorphic>FALSE</anamorphic>
                            <pixelaspectratio>square</pixelaspectratio>
                            <fielddominance>none</fielddominance>
                            <width>686</width>
                            <height>511</height>
                          </samplecharacteristics>
                        </video>
                      </media>
                    </file>
                  </clipitem>
                </track>
              </video>
            </media>
          </clip>
          <clip explodedTracks="true" frameBlend="FALSE" id="masterclip-9">
            <uuid>e8e55506-347f-4700-bd54-298667ab3962</uuid>
            <masterclipid>masterclip-9</masterclipid>
            <ismasterclip>TRUE</ismasterclip>
            <duration>141</duration>
            <in>0</in>
            <out>141</out>
            <name>James.007.png</name>
            <rate>
              <timebase>24</timebase>
              <ntsc>FALSE</ntsc>
            </rate>
            <media>
              <video>
                <track>
                  <clipitem frameBlend="FALSE" id="clipitem-10">
                    <name>James.007.png</name>
                    <masterclipid>masterclip-9</masterclipid>
                    <rate>
                      <timebase>24</timebase>
                      <ntsc>FALSE</ntsc>
                    </rate>
                    <alphatype>straight</alphatype>
                    <pixelaspectratio>square</pixelaspectratio>
                    <anamorphic>FALSE</anamorphic>
                    <file id="file-9">
                      <name>James.007.png</name>
                      <pathurl>file://localhost/Users/antoniochiappetta/OneDrive - Aalto University/University/Aalto/Hackatons/Junction/Junction2019-IoK-security_awareness_kids/Assets/Team Animations/Image Sequences/James/James.007.png</pathurl>
                      <rate>
                        <timebase>24</timebase>
                        <ntsc>FALSE</ntsc>
                      </rate>
                      <duration>141</duration>
                      <timecode>
                        <rate>
                          <timebase>24</timebase>
                          <ntsc>FALSE</ntsc>
                        </rate>
                      </timecode>
                      <media>
                        <video>
                          <duration>1</duration>
                          <samplecharacteristics>
                            <anamorphic>FALSE</anamorphic>
                            <pixelaspectratio>square</pixelaspectratio>
                            <fielddominance>none</fielddominance>
                            <width>686</width>
                            <height>511</height>
                          </samplecharacteristics>
                        </video>
                      </media>
                    </file>
                  </clipitem>
                </track>
              </video>
            </media>
          </clip>
          <clip explodedTracks="true" frameBlend="FALSE" id="masterclip-10">
            <uuid>d88a7ee2-691b-49c1-8dec-2b14928d47c3</uuid>
            <masterclipid>masterclip-10</masterclipid>
            <ismasterclip>TRUE</ismasterclip>
            <duration>141</duration>
            <in>0</in>
            <out>141</out>
            <name>James.008.png</name>
            <rate>
              <timebase>24</timebase>
              <ntsc>FALSE</ntsc>
            </rate>
            <media>
              <video>
                <track>
                  <clipitem frameBlend="FALSE" id="clipitem-11">
                    <name>James.008.png</name>
                    <masterclipid>masterclip-10</masterclipid>
                    <rate>
                      <timebase>24</timebase>
                      <ntsc>FALSE</ntsc>
                    </rate>
                    <alphatype>straight</alphatype>
                    <pixelaspectratio>square</pixelaspectratio>
                    <anamorphic>FALSE</anamorphic>
                    <file id="file-10">
                      <name>James.008.png</name>
                      <pathurl>file://localhost/Users/antoniochiappetta/OneDrive - Aalto University/University/Aalto/Hackatons/Junction/Junction2019-IoK-security_awareness_kids/Assets/Team Animations/Image Sequences/James/James.008.png</pathurl>
                      <rate>
                        <timebase>24</timebase>
                        <ntsc>FALSE</ntsc>
                      </rate>
                      <duration>141</duration>
                      <timecode>
                        <rate>
                          <timebase>24</timebase>
                          <ntsc>FALSE</ntsc>
                        </rate>
                      </timecode>
                      <media>
                        <video>
                          <duration>1</duration>
                          <samplecharacteristics>
                            <anamorphic>FALSE</anamorphic>
                            <pixelaspectratio>square</pixelaspectratio>
                            <fielddominance>none</fielddominance>
                            <width>686</width>
                            <height>511</height>
                          </samplecharacteristics>
                        </video>
                      </media>
                    </file>
                  </clipitem>
                </track>
              </video>
            </media>
          </clip>
          <clip explodedTracks="true" frameBlend="FALSE" id="masterclip-11">
            <uuid>569c5d8b-89b8-44f8-8aa3-930d612538d7</uuid>
            <masterclipid>masterclip-11</masterclipid>
            <ismasterclip>TRUE</ismasterclip>
            <duration>141</duration>
            <in>0</in>
            <out>141</out>
            <name>James.009.png</name>
            <rate>
              <timebase>24</timebase>
              <ntsc>FALSE</ntsc>
            </rate>
            <media>
              <video>
                <track>
                  <clipitem frameBlend="FALSE" id="clipitem-12">
                    <name>James.009.png</name>
                    <masterclipid>masterclip-11</masterclipid>
                    <rate>
                      <timebase>24</timebase>
                      <ntsc>FALSE</ntsc>
                    </rate>
                    <alphatype>straight</alphatype>
                    <pixelaspectratio>square</pixelaspectratio>
                    <anamorphic>FALSE</anamorphic>
                    <file id="file-11">
                      <name>James.009.png</name>
                      <pathurl>file://localhost/Users/antoniochiappetta/OneDrive - Aalto University/University/Aalto/Hackatons/Junction/Junction2019-IoK-security_awareness_kids/Assets/Team Animations/Image Sequences/James/James.009.png</pathurl>
                      <rate>
                        <timebase>24</timebase>
                        <ntsc>FALSE</ntsc>
                      </rate>
                      <duration>141</duration>
                      <timecode>
                        <rate>
                          <timebase>24</timebase>
                          <ntsc>FALSE</ntsc>
                        </rate>
                      </timecode>
                      <media>
                        <video>
                          <duration>1</duration>
                          <samplecharacteristics>
                            <anamorphic>FALSE</anamorphic>
                            <pixelaspectratio>square</pixelaspectratio>
                            <fielddominance>none</fielddominance>
                            <width>686</width>
                            <height>511</height>
                          </samplecharacteristics>
                        </video>
                      </media>
                    </file>
                  </clipitem>
                </track>
              </video>
            </media>
          </clip>
          <clip explodedTracks="true" frameBlend="FALSE" id="masterclip-12">
            <uuid>2516e5a7-28bb-4c8d-8381-44f05334103f</uuid>
            <masterclipid>masterclip-12</masterclipid>
            <ismasterclip>TRUE</ismasterclip>
            <duration>141</duration>
            <in>0</in>
            <out>141</out>
            <name>James.010.png</name>
            <rate>
              <timebase>24</timebase>
              <ntsc>FALSE</ntsc>
            </rate>
            <media>
              <video>
                <track>
                  <clipitem frameBlend="FALSE" id="clipitem-13">
                    <name>James.010.png</name>
                    <masterclipid>masterclip-12</masterclipid>
                    <rate>
                      <timebase>24</timebase>
                      <ntsc>FALSE</ntsc>
                    </rate>
                    <alphatype>straight</alphatype>
                    <pixelaspectratio>square</pixelaspectratio>
                    <anamorphic>FALSE</anamorphic>
                    <file id="file-12">
                      <name>James.010.png</name>
                      <pathurl>file://localhost/Users/antoniochiappetta/OneDrive - Aalto University/University/Aalto/Hackatons/Junction/Junction2019-IoK-security_awareness_kids/Assets/Team Animations/Image Sequences/James/James.010.png</pathurl>
                      <rate>
                        <timebase>24</timebase>
                        <ntsc>FALSE</ntsc>
                      </rate>
                      <duration>141</duration>
                      <timecode>
                        <rate>
                          <timebase>24</timebase>
                          <ntsc>FALSE</ntsc>
                        </rate>
                      </timecode>
                      <media>
                        <video>
                          <duration>1</duration>
                          <samplecharacteristics>
                            <anamorphic>FALSE</anamorphic>
                            <pixelaspectratio>square</pixelaspectratio>
                            <fielddominance>none</fielddominance>
                            <width>686</width>
                            <height>511</height>
                          </samplecharacteristics>
                        </video>
                      </media>
                    </file>
                  </clipitem>
                </track>
              </video>
            </media>
          </clip>
          <clip explodedTracks="true" frameBlend="FALSE" id="masterclip-13">
            <uuid>85d9bb8e-5a3d-4650-9461-178feeffb822</uuid>
            <masterclipid>masterclip-13</masterclipid>
            <ismasterclip>TRUE</ismasterclip>
            <duration>141</duration>
            <in>0</in>
            <out>141</out>
            <name>James.011.png</name>
            <rate>
              <timebase>24</timebase>
              <ntsc>FALSE</ntsc>
            </rate>
            <media>
              <video>
                <track>
                  <clipitem frameBlend="FALSE" id="clipitem-14">
                    <name>James.011.png</name>
                    <masterclipid>masterclip-13</masterclipid>
                    <rate>
                      <timebase>24</timebase>
                      <ntsc>FALSE</ntsc>
                    </rate>
                    <alphatype>straight</alphatype>
                    <pixelaspectratio>square</pixelaspectratio>
                    <anamorphic>FALSE</anamorphic>
                    <file id="file-13">
                      <name>James.011.png</name>
                      <pathurl>file://localhost/Users/antoniochiappetta/OneDrive - Aalto University/University/Aalto/Hackatons/Junction/Junction2019-IoK-security_awareness_kids/Assets/Team Animations/Image Sequences/James/James.011.png</pathurl>
                      <rate>
                        <timebase>24</timebase>
                        <ntsc>FALSE</ntsc>
                      </rate>
                      <duration>141</duration>
                      <timecode>
                        <rate>
                          <timebase>24</timebase>
                          <ntsc>FALSE</ntsc>
                        </rate>
                      </timecode>
                      <media>
                        <video>
                          <duration>1</duration>
                          <samplecharacteristics>
                            <anamorphic>FALSE</anamorphic>
                            <pixelaspectratio>square</pixelaspectratio>
                            <fielddominance>none</fielddominance>
                            <width>686</width>
                            <height>511</height>
                          </samplecharacteristics>
                        </video>
                      </media>
                    </file>
                  </clipitem>
                </track>
              </video>
            </media>
          </clip>
          <clip explodedTracks="true" frameBlend="FALSE" id="masterclip-14">
            <uuid>7c92842b-4084-4e7b-b01d-784394dc1494</uuid>
            <masterclipid>masterclip-14</masterclipid>
            <ismasterclip>TRUE</ismasterclip>
            <duration>141</duration>
            <in>0</in>
            <out>141</out>
            <name>James.012.png</name>
            <rate>
              <timebase>24</timebase>
              <ntsc>FALSE</ntsc>
            </rate>
            <media>
              <video>
                <track>
                  <clipitem frameBlend="FALSE" id="clipitem-15">
                    <name>James.012.png</name>
                    <masterclipid>masterclip-14</masterclipid>
                    <rate>
                      <timebase>24</timebase>
                      <ntsc>FALSE</ntsc>
                    </rate>
                    <alphatype>straight</alphatype>
                    <pixelaspectratio>square</pixelaspectratio>
                    <anamorphic>FALSE</anamorphic>
                    <file id="file-14">
                      <name>James.012.png</name>
                      <pathurl>file://localhost/Users/antoniochiappetta/OneDrive - Aalto University/University/Aalto/Hackatons/Junction/Junction2019-IoK-security_awareness_kids/Assets/Team Animations/Image Sequences/James/James.012.png</pathurl>
                      <rate>
                        <timebase>24</timebase>
                        <ntsc>FALSE</ntsc>
                      </rate>
                      <duration>141</duration>
                      <timecode>
                        <rate>
                          <timebase>24</timebase>
                          <ntsc>FALSE</ntsc>
                        </rate>
                      </timecode>
                      <media>
                        <video>
                          <duration>1</duration>
                          <samplecharacteristics>
                            <anamorphic>FALSE</anamorphic>
                            <pixelaspectratio>square</pixelaspectratio>
                            <fielddominance>none</fielddominance>
                            <width>686</width>
                            <height>511</height>
                          </samplecharacteristics>
                        </video>
                      </media>
                    </file>
                  </clipitem>
                </track>
              </video>
            </media>
          </clip>
          <clip explodedTracks="true" frameBlend="FALSE" id="masterclip-15">
            <uuid>6449b153-e89f-49dd-aa4b-5281f3636448</uuid>
            <masterclipid>masterclip-15</masterclipid>
            <ismasterclip>TRUE</ismasterclip>
            <duration>141</duration>
            <in>0</in>
            <out>141</out>
            <name>James.013.png</name>
            <rate>
              <timebase>24</timebase>
              <ntsc>FALSE</ntsc>
            </rate>
            <media>
              <video>
                <track>
                  <clipitem frameBlend="FALSE" id="clipitem-16">
                    <name>James.013.png</name>
                    <masterclipid>masterclip-15</masterclipid>
                    <rate>
                      <timebase>24</timebase>
                      <ntsc>FALSE</ntsc>
                    </rate>
                    <alphatype>straight</alphatype>
                    <pixelaspectratio>square</pixelaspectratio>
                    <anamorphic>FALSE</anamorphic>
                    <file id="file-15">
                      <name>James.013.png</name>
                      <pathurl>file://localhost/Users/antoniochiappetta/OneDrive - Aalto University/University/Aalto/Hackatons/Junction/Junction2019-IoK-security_awareness_kids/Assets/Team Animations/Image Sequences/James/James.013.png</pathurl>
                      <rate>
                        <timebase>24</timebase>
                        <ntsc>FALSE</ntsc>
                      </rate>
                      <duration>141</duration>
                      <timecode>
                        <rate>
                          <timebase>24</timebase>
                          <ntsc>FALSE</ntsc>
                        </rate>
                      </timecode>
                      <media>
                        <video>
                          <duration>1</duration>
                          <samplecharacteristics>
                            <anamorphic>FALSE</anamorphic>
                            <pixelaspectratio>square</pixelaspectratio>
                            <fielddominance>none</fielddominance>
                            <width>686</width>
                            <height>511</height>
                          </samplecharacteristics>
                        </video>
                      </media>
                    </file>
                  </clipitem>
                </track>
              </video>
            </media>
          </clip>
          <clip explodedTracks="true" frameBlend="FALSE" id="masterclip-16">
            <uuid>acf8150f-a6ff-4f20-bb7e-d68b5836b54f</uuid>
            <masterclipid>masterclip-16</masterclipid>
            <ismasterclip>TRUE</ismasterclip>
            <duration>141</duration>
            <in>0</in>
            <out>141</out>
            <name>James.014.png</name>
            <rate>
              <timebase>24</timebase>
              <ntsc>FALSE</ntsc>
            </rate>
            <media>
              <video>
                <track>
                  <clipitem frameBlend="FALSE" id="clipitem-17">
                    <name>James.014.png</name>
                    <masterclipid>masterclip-16</masterclipid>
                    <rate>
                      <timebase>24</timebase>
                      <ntsc>FALSE</ntsc>
                    </rate>
                    <alphatype>straight</alphatype>
                    <pixelaspectratio>square</pixelaspectratio>
                    <anamorphic>FALSE</anamorphic>
                    <file id="file-16">
                      <name>James.014.png</name>
                      <pathurl>file://localhost/Users/antoniochiappetta/OneDrive - Aalto University/University/Aalto/Hackatons/Junction/Junction2019-IoK-security_awareness_kids/Assets/Team Animations/Image Sequences/James/James.014.png</pathurl>
                      <rate>
                        <timebase>24</timebase>
                        <ntsc>FALSE</ntsc>
                      </rate>
                      <duration>141</duration>
                      <timecode>
                        <rate>
                          <timebase>24</timebase>
                          <ntsc>FALSE</ntsc>
                        </rate>
                      </timecode>
                      <media>
                        <video>
                          <duration>1</duration>
                          <samplecharacteristics>
                            <anamorphic>FALSE</anamorphic>
                            <pixelaspectratio>square</pixelaspectratio>
                            <fielddominance>none</fielddominance>
                            <width>686</width>
                            <height>511</height>
                          </samplecharacteristics>
                        </video>
                      </media>
                    </file>
                  </clipitem>
                </track>
              </video>
            </media>
          </clip>
          <clip explodedTracks="true" frameBlend="FALSE" id="masterclip-17">
            <uuid>9025aee1-2f2f-4806-9e17-00976f9dd943</uuid>
            <masterclipid>masterclip-17</masterclipid>
            <ismasterclip>TRUE</ismasterclip>
            <duration>141</duration>
            <in>0</in>
            <out>141</out>
            <name>James.015.png</name>
            <rate>
              <timebase>24</timebase>
              <ntsc>FALSE</ntsc>
            </rate>
            <media>
              <video>
                <track>
                  <clipitem frameBlend="FALSE" id="clipitem-18">
                    <name>James.015.png</name>
                    <masterclipid>masterclip-17</masterclipid>
                    <rate>
                      <timebase>24</timebase>
                      <ntsc>FALSE</ntsc>
                    </rate>
                    <alphatype>straight</alphatype>
                    <pixelaspectratio>square</pixelaspectratio>
                    <anamorphic>FALSE</anamorphic>
                    <file id="file-17">
                      <name>James.015.png</name>
                      <pathurl>file://localhost/Users/antoniochiappetta/OneDrive - Aalto University/University/Aalto/Hackatons/Junction/Junction2019-IoK-security_awareness_kids/Assets/Team Animations/Image Sequences/James/James.015.png</pathurl>
                      <rate>
                        <timebase>24</timebase>
                        <ntsc>FALSE</ntsc>
                      </rate>
                      <duration>141</duration>
                      <timecode>
                        <rate>
                          <timebase>24</timebase>
                          <ntsc>FALSE</ntsc>
                        </rate>
                      </timecode>
                      <media>
                        <video>
                          <duration>1</duration>
                          <samplecharacteristics>
                            <anamorphic>FALSE</anamorphic>
                            <pixelaspectratio>square</pixelaspectratio>
                            <fielddominance>none</fielddominance>
                            <width>686</width>
                            <height>511</height>
                          </samplecharacteristics>
                        </video>
                      </media>
                    </file>
                  </clipitem>
                </track>
              </video>
            </media>
          </clip>
          <clip explodedTracks="true" frameBlend="FALSE" id="masterclip-18">
            <uuid>6dd126c3-6bd6-414c-b2a4-c7b79b02a6bc</uuid>
            <masterclipid>masterclip-18</masterclipid>
            <ismasterclip>TRUE</ismasterclip>
            <duration>141</duration>
            <in>0</in>
            <out>141</out>
            <name>James.016.png</name>
            <rate>
              <timebase>24</timebase>
              <ntsc>FALSE</ntsc>
            </rate>
            <media>
              <video>
                <track>
                  <clipitem frameBlend="FALSE" id="clipitem-19">
                    <name>James.016.png</name>
                    <masterclipid>masterclip-18</masterclipid>
                    <rate>
                      <timebase>24</timebase>
                      <ntsc>FALSE</ntsc>
                    </rate>
                    <alphatype>straight</alphatype>
                    <pixelaspectratio>square</pixelaspectratio>
                    <anamorphic>FALSE</anamorphic>
                    <file id="file-18">
                      <name>James.016.png</name>
                      <pathurl>file://localhost/Users/antoniochiappetta/OneDrive - Aalto University/University/Aalto/Hackatons/Junction/Junction2019-IoK-security_awareness_kids/Assets/Team Animations/Image Sequences/James/James.016.png</pathurl>
                      <rate>
                        <timebase>24</timebase>
                        <ntsc>FALSE</ntsc>
                      </rate>
                      <duration>141</duration>
                      <timecode>
                        <rate>
                          <timebase>24</timebase>
                          <ntsc>FALSE</ntsc>
                        </rate>
                      </timecode>
                      <media>
                        <video>
                          <duration>1</duration>
                          <samplecharacteristics>
                            <anamorphic>FALSE</anamorphic>
                            <pixelaspectratio>square</pixelaspectratio>
                            <fielddominance>none</fielddominance>
                            <width>686</width>
                            <height>511</height>
                          </samplecharacteristics>
                        </video>
                      </media>
                    </file>
                  </clipitem>
                </track>
              </video>
            </media>
          </clip>
          <clip explodedTracks="true" frameBlend="FALSE" id="masterclip-19">
            <uuid>6fdb1bf7-a01f-4d6b-80c4-be855fed21e8</uuid>
            <masterclipid>masterclip-19</masterclipid>
            <ismasterclip>TRUE</ismasterclip>
            <duration>141</duration>
            <in>0</in>
            <out>141</out>
            <name>James.017.png</name>
            <rate>
              <timebase>24</timebase>
              <ntsc>FALSE</ntsc>
            </rate>
            <media>
              <video>
                <track>
                  <clipitem frameBlend="FALSE" id="clipitem-20">
                    <name>James.017.png</name>
                    <masterclipid>masterclip-19</masterclipid>
                    <rate>
                      <timebase>24</timebase>
                      <ntsc>FALSE</ntsc>
                    </rate>
                    <alphatype>straight</alphatype>
                    <pixelaspectratio>square</pixelaspectratio>
                    <anamorphic>FALSE</anamorphic>
                    <file id="file-19">
                      <name>James.017.png</name>
                      <pathurl>file://localhost/Users/antoniochiappetta/OneDrive - Aalto University/University/Aalto/Hackatons/Junction/Junction2019-IoK-security_awareness_kids/Assets/Team Animations/Image Sequences/James/James.017.png</pathurl>
                      <rate>
                        <timebase>24</timebase>
                        <ntsc>FALSE</ntsc>
                      </rate>
                      <duration>141</duration>
                      <timecode>
                        <rate>
                          <timebase>24</timebase>
                          <ntsc>FALSE</ntsc>
                        </rate>
                      </timecode>
                      <media>
                        <video>
                          <duration>1</duration>
                          <samplecharacteristics>
                            <anamorphic>FALSE</anamorphic>
                            <pixelaspectratio>square</pixelaspectratio>
                            <fielddominance>none</fielddominance>
                            <width>686</width>
                            <height>511</height>
                          </samplecharacteristics>
                        </video>
                      </media>
                    </file>
                  </clipitem>
                </track>
              </video>
            </media>
          </clip>
          <clip explodedTracks="true" frameBlend="FALSE" id="masterclip-20">
            <uuid>62dccc6f-0eea-4a89-b0e0-b34d3d01404f</uuid>
            <masterclipid>masterclip-20</masterclipid>
            <ismasterclip>TRUE</ismasterclip>
            <duration>141</duration>
            <in>0</in>
            <out>141</out>
            <name>James.018.png</name>
            <rate>
              <timebase>24</timebase>
              <ntsc>FALSE</ntsc>
            </rate>
            <media>
              <video>
                <track>
                  <clipitem frameBlend="FALSE" id="clipitem-21">
                    <name>James.018.png</name>
                    <masterclipid>masterclip-20</masterclipid>
                    <rate>
                      <timebase>24</timebase>
                      <ntsc>FALSE</ntsc>
                    </rate>
                    <alphatype>straight</alphatype>
                    <pixelaspectratio>square</pixelaspectratio>
                    <anamorphic>FALSE</anamorphic>
                    <file id="file-20">
                      <name>James.018.png</name>
                      <pathurl>file://localhost/Users/antoniochiappetta/OneDrive - Aalto University/University/Aalto/Hackatons/Junction/Junction2019-IoK-security_awareness_kids/Assets/Team Animations/Image Sequences/James/James.018.png</pathurl>
                      <rate>
                        <timebase>24</timebase>
                        <ntsc>FALSE</ntsc>
                      </rate>
                      <duration>141</duration>
                      <timecode>
                        <rate>
                          <timebase>24</timebase>
                          <ntsc>FALSE</ntsc>
                        </rate>
                      </timecode>
                      <media>
                        <video>
                          <duration>1</duration>
                          <samplecharacteristics>
                            <anamorphic>FALSE</anamorphic>
                            <pixelaspectratio>square</pixelaspectratio>
                            <fielddominance>none</fielddominance>
                            <width>686</width>
                            <height>511</height>
                          </samplecharacteristics>
                        </video>
                      </media>
                    </file>
                  </clipitem>
                </track>
              </video>
            </media>
          </clip>
          <clip explodedTracks="true" frameBlend="FALSE" id="masterclip-21">
            <uuid>76f15e7a-80ee-4a5d-87c6-8b75667d6bf0</uuid>
            <masterclipid>masterclip-21</masterclipid>
            <ismasterclip>TRUE</ismasterclip>
            <duration>141</duration>
            <in>0</in>
            <out>141</out>
            <name>James.019.png</name>
            <rate>
              <timebase>24</timebase>
              <ntsc>FALSE</ntsc>
            </rate>
            <media>
              <video>
                <track>
                  <clipitem frameBlend="FALSE" id="clipitem-22">
                    <name>James.019.png</name>
                    <masterclipid>masterclip-21</masterclipid>
                    <rate>
                      <timebase>24</timebase>
                      <ntsc>FALSE</ntsc>
                    </rate>
                    <alphatype>straight</alphatype>
                    <pixelaspectratio>square</pixelaspectratio>
                    <anamorphic>FALSE</anamorphic>
                    <file id="file-21">
                      <name>James.019.png</name>
                      <pathurl>file://localhost/Users/antoniochiappetta/OneDrive - Aalto University/University/Aalto/Hackatons/Junction/Junction2019-IoK-security_awareness_kids/Assets/Team Animations/Image Sequences/James/James.019.png</pathurl>
                      <rate>
                        <timebase>24</timebase>
                        <ntsc>FALSE</ntsc>
                      </rate>
                      <duration>141</duration>
                      <timecode>
                        <rate>
                          <timebase>24</timebase>
                          <ntsc>FALSE</ntsc>
                        </rate>
                      </timecode>
                      <media>
                        <video>
                          <duration>1</duration>
                          <samplecharacteristics>
                            <anamorphic>FALSE</anamorphic>
                            <pixelaspectratio>square</pixelaspectratio>
                            <fielddominance>none</fielddominance>
                            <width>686</width>
                            <height>511</height>
                          </samplecharacteristics>
                        </video>
                      </media>
                    </file>
                  </clipitem>
                </track>
              </video>
            </media>
          </clip>
          <clip explodedTracks="true" frameBlend="FALSE" id="masterclip-22">
            <uuid>167b7887-49ab-4ab8-8de1-aca413872de8</uuid>
            <masterclipid>masterclip-22</masterclipid>
            <ismasterclip>TRUE</ismasterclip>
            <duration>141</duration>
            <in>0</in>
            <out>141</out>
            <name>James.020.png</name>
            <rate>
              <timebase>24</timebase>
              <ntsc>FALSE</ntsc>
            </rate>
            <media>
              <video>
                <track>
                  <clipitem frameBlend="FALSE" id="clipitem-23">
                    <name>James.020.png</name>
                    <masterclipid>masterclip-22</masterclipid>
                    <rate>
                      <timebase>24</timebase>
                      <ntsc>FALSE</ntsc>
                    </rate>
                    <alphatype>straight</alphatype>
                    <pixelaspectratio>square</pixelaspectratio>
                    <anamorphic>FALSE</anamorphic>
                    <file id="file-22">
                      <name>James.020.png</name>
                      <pathurl>file://localhost/Users/antoniochiappetta/OneDrive - Aalto University/University/Aalto/Hackatons/Junction/Junction2019-IoK-security_awareness_kids/Assets/Team Animations/Image Sequences/James/James.020.png</pathurl>
                      <rate>
                        <timebase>24</timebase>
                        <ntsc>FALSE</ntsc>
                      </rate>
                      <duration>141</duration>
                      <timecode>
                        <rate>
                          <timebase>24</timebase>
                          <ntsc>FALSE</ntsc>
                        </rate>
                      </timecode>
                      <media>
                        <video>
                          <duration>1</duration>
                          <samplecharacteristics>
                            <anamorphic>FALSE</anamorphic>
                            <pixelaspectratio>square</pixelaspectratio>
                            <fielddominance>none</fielddominance>
                            <width>686</width>
                            <height>511</height>
                          </samplecharacteristics>
                        </video>
                      </media>
                    </file>
                  </clipitem>
                </track>
              </video>
            </media>
          </clip>
          <clip explodedTracks="true" frameBlend="FALSE" id="masterclip-23">
            <uuid>2b757df3-4c8a-4a73-9cd5-17feaf59dc51</uuid>
            <masterclipid>masterclip-23</masterclipid>
            <ismasterclip>TRUE</ismasterclip>
            <duration>141</duration>
            <in>0</in>
            <out>141</out>
            <name>James.021.png</name>
            <rate>
              <timebase>24</timebase>
              <ntsc>FALSE</ntsc>
            </rate>
            <media>
              <video>
                <track>
                  <clipitem frameBlend="FALSE" id="clipitem-24">
                    <name>James.021.png</name>
                    <masterclipid>masterclip-23</masterclipid>
                    <rate>
                      <timebase>24</timebase>
                      <ntsc>FALSE</ntsc>
                    </rate>
                    <alphatype>straight</alphatype>
                    <pixelaspectratio>square</pixelaspectratio>
                    <anamorphic>FALSE</anamorphic>
                    <file id="file-23">
                      <name>James.021.png</name>
                      <pathurl>file://localhost/Users/antoniochiappetta/OneDrive - Aalto University/University/Aalto/Hackatons/Junction/Junction2019-IoK-security_awareness_kids/Assets/Team Animations/Image Sequences/James/James.021.png</pathurl>
                      <rate>
                        <timebase>24</timebase>
                        <ntsc>FALSE</ntsc>
                      </rate>
                      <duration>141</duration>
                      <timecode>
                        <rate>
                          <timebase>24</timebase>
                          <ntsc>FALSE</ntsc>
                        </rate>
                      </timecode>
                      <media>
                        <video>
                          <duration>1</duration>
                          <samplecharacteristics>
                            <anamorphic>FALSE</anamorphic>
                            <pixelaspectratio>square</pixelaspectratio>
                            <fielddominance>none</fielddominance>
                            <width>686</width>
                            <height>511</height>
                          </samplecharacteristics>
                        </video>
                      </media>
                    </file>
                  </clipitem>
                </track>
              </video>
            </media>
          </clip>
          <clip explodedTracks="true" frameBlend="FALSE" id="masterclip-24">
            <uuid>df8caabb-7f01-434e-ab98-d38a2faca202</uuid>
            <masterclipid>masterclip-24</masterclipid>
            <ismasterclip>TRUE</ismasterclip>
            <duration>141</duration>
            <in>0</in>
            <out>141</out>
            <name>James.022.png</name>
            <rate>
              <timebase>24</timebase>
              <ntsc>FALSE</ntsc>
            </rate>
            <media>
              <video>
                <track>
                  <clipitem frameBlend="FALSE" id="clipitem-25">
                    <name>James.022.png</name>
                    <masterclipid>masterclip-24</masterclipid>
                    <rate>
                      <timebase>24</timebase>
                      <ntsc>FALSE</ntsc>
                    </rate>
                    <alphatype>straight</alphatype>
                    <pixelaspectratio>square</pixelaspectratio>
                    <anamorphic>FALSE</anamorphic>
                    <file id="file-24">
                      <name>James.022.png</name>
                      <pathurl>file://localhost/Users/antoniochiappetta/OneDrive - Aalto University/University/Aalto/Hackatons/Junction/Junction2019-IoK-security_awareness_kids/Assets/Team Animations/Image Sequences/James/James.022.png</pathurl>
                      <rate>
                        <timebase>24</timebase>
                        <ntsc>FALSE</ntsc>
                      </rate>
                      <duration>141</duration>
                      <timecode>
                        <rate>
                          <timebase>24</timebase>
                          <ntsc>FALSE</ntsc>
                        </rate>
                      </timecode>
                      <media>
                        <video>
                          <duration>1</duration>
                          <samplecharacteristics>
                            <anamorphic>FALSE</anamorphic>
                            <pixelaspectratio>square</pixelaspectratio>
                            <fielddominance>none</fielddominance>
                            <width>686</width>
                            <height>511</height>
                          </samplecharacteristics>
                        </video>
                      </media>
                    </file>
                  </clipitem>
                </track>
              </video>
            </media>
          </clip>
          <clip explodedTracks="true" frameBlend="FALSE" id="masterclip-25">
            <uuid>e9c9da74-77cc-447c-91dc-e8048e6cf439</uuid>
            <masterclipid>masterclip-25</masterclipid>
            <ismasterclip>TRUE</ismasterclip>
            <duration>141</duration>
            <in>0</in>
            <out>141</out>
            <name>James.023.png</name>
            <rate>
              <timebase>24</timebase>
              <ntsc>FALSE</ntsc>
            </rate>
            <media>
              <video>
                <track>
                  <clipitem frameBlend="FALSE" id="clipitem-26">
                    <name>James.023.png</name>
                    <masterclipid>masterclip-25</masterclipid>
                    <rate>
                      <timebase>24</timebase>
                      <ntsc>FALSE</ntsc>
                    </rate>
                    <alphatype>straight</alphatype>
                    <pixelaspectratio>square</pixelaspectratio>
                    <anamorphic>FALSE</anamorphic>
                    <file id="file-25">
                      <name>James.023.png</name>
                      <pathurl>file://localhost/Users/antoniochiappetta/OneDrive - Aalto University/University/Aalto/Hackatons/Junction/Junction2019-IoK-security_awareness_kids/Assets/Team Animations/Image Sequences/James/James.023.png</pathurl>
                      <rate>
                        <timebase>24</timebase>
                        <ntsc>FALSE</ntsc>
                      </rate>
                      <duration>141</duration>
                      <timecode>
                        <rate>
                          <timebase>24</timebase>
                          <ntsc>FALSE</ntsc>
                        </rate>
                      </timecode>
                      <media>
                        <video>
                          <duration>1</duration>
                          <samplecharacteristics>
                            <anamorphic>FALSE</anamorphic>
                            <pixelaspectratio>square</pixelaspectratio>
                            <fielddominance>none</fielddominance>
                            <width>686</width>
                            <height>511</height>
                          </samplecharacteristics>
                        </video>
                      </media>
                    </file>
                  </clipitem>
                </track>
              </video>
            </media>
          </clip>
          <clip explodedTracks="true" frameBlend="FALSE" id="masterclip-26">
            <uuid>740be97a-2e14-4e72-8b01-896c4b02d958</uuid>
            <masterclipid>masterclip-26</masterclipid>
            <ismasterclip>TRUE</ismasterclip>
            <duration>141</duration>
            <in>0</in>
            <out>141</out>
            <name>James.024.png</name>
            <rate>
              <timebase>24</timebase>
              <ntsc>FALSE</ntsc>
            </rate>
            <media>
              <video>
                <track>
                  <clipitem frameBlend="FALSE" id="clipitem-27">
                    <name>James.024.png</name>
                    <masterclipid>masterclip-26</masterclipid>
                    <rate>
                      <timebase>24</timebase>
                      <ntsc>FALSE</ntsc>
                    </rate>
                    <alphatype>straight</alphatype>
                    <pixelaspectratio>square</pixelaspectratio>
                    <anamorphic>FALSE</anamorphic>
                    <file id="file-26">
                      <name>James.024.png</name>
                      <pathurl>file://localhost/Users/antoniochiappetta/OneDrive - Aalto University/University/Aalto/Hackatons/Junction/Junction2019-IoK-security_awareness_kids/Assets/Team Animations/Image Sequences/James/James.024.png</pathurl>
                      <rate>
                        <timebase>24</timebase>
                        <ntsc>FALSE</ntsc>
                      </rate>
                      <duration>141</duration>
                      <timecode>
                        <rate>
                          <timebase>24</timebase>
                          <ntsc>FALSE</ntsc>
                        </rate>
                      </timecode>
                      <media>
                        <video>
                          <duration>1</duration>
                          <samplecharacteristics>
                            <anamorphic>FALSE</anamorphic>
                            <pixelaspectratio>square</pixelaspectratio>
                            <fielddominance>none</fielddominance>
                            <width>686</width>
                            <height>511</height>
                          </samplecharacteristics>
                        </video>
                      </media>
                    </file>
                  </clipitem>
                </track>
              </video>
            </media>
          </clip>
          <clip explodedTracks="true" frameBlend="FALSE" id="masterclip-27">
            <uuid>95780f7e-46f9-4082-ae7a-53515456716e</uuid>
            <masterclipid>masterclip-27</masterclipid>
            <ismasterclip>TRUE</ismasterclip>
            <duration>141</duration>
            <in>0</in>
            <out>141</out>
            <name>James.025.png</name>
            <rate>
              <timebase>24</timebase>
              <ntsc>FALSE</ntsc>
            </rate>
            <media>
              <video>
                <track>
                  <clipitem frameBlend="FALSE" id="clipitem-28">
                    <name>James.025.png</name>
                    <masterclipid>masterclip-27</masterclipid>
                    <rate>
                      <timebase>24</timebase>
                      <ntsc>FALSE</ntsc>
                    </rate>
                    <alphatype>straight</alphatype>
                    <pixelaspectratio>square</pixelaspectratio>
                    <anamorphic>FALSE</anamorphic>
                    <file id="file-27">
                      <name>James.025.png</name>
                      <pathurl>file://localhost/Users/antoniochiappetta/OneDrive - Aalto University/University/Aalto/Hackatons/Junction/Junction2019-IoK-security_awareness_kids/Assets/Team Animations/Image Sequences/James/James.025.png</pathurl>
                      <rate>
                        <timebase>24</timebase>
                        <ntsc>FALSE</ntsc>
                      </rate>
                      <duration>141</duration>
                      <timecode>
                        <rate>
                          <timebase>24</timebase>
                          <ntsc>FALSE</ntsc>
                        </rate>
                      </timecode>
                      <media>
                        <video>
                          <duration>1</duration>
                          <samplecharacteristics>
                            <anamorphic>FALSE</anamorphic>
                            <pixelaspectratio>square</pixelaspectratio>
                            <fielddominance>none</fielddominance>
                            <width>686</width>
                            <height>511</height>
                          </samplecharacteristics>
                        </video>
                      </media>
                    </file>
                  </clipitem>
                </track>
              </video>
            </media>
          </clip>
          <clip explodedTracks="true" frameBlend="FALSE" id="masterclip-28">
            <uuid>408315b3-4d8d-45b0-8145-cc8a2a449f8f</uuid>
            <masterclipid>masterclip-28</masterclipid>
            <ismasterclip>TRUE</ismasterclip>
            <duration>141</duration>
            <in>0</in>
            <out>141</out>
            <name>James.026.png</name>
            <rate>
              <timebase>24</timebase>
              <ntsc>FALSE</ntsc>
            </rate>
            <media>
              <video>
                <track>
                  <clipitem frameBlend="FALSE" id="clipitem-29">
                    <name>James.026.png</name>
                    <masterclipid>masterclip-28</masterclipid>
                    <rate>
                      <timebase>24</timebase>
                      <ntsc>FALSE</ntsc>
                    </rate>
                    <alphatype>straight</alphatype>
                    <pixelaspectratio>square</pixelaspectratio>
                    <anamorphic>FALSE</anamorphic>
                    <file id="file-28">
                      <name>James.026.png</name>
                      <pathurl>file://localhost/Users/antoniochiappetta/OneDrive - Aalto University/University/Aalto/Hackatons/Junction/Junction2019-IoK-security_awareness_kids/Assets/Team Animations/Image Sequences/James/James.026.png</pathurl>
                      <rate>
                        <timebase>24</timebase>
                        <ntsc>FALSE</ntsc>
                      </rate>
                      <duration>141</duration>
                      <timecode>
                        <rate>
                          <timebase>24</timebase>
                          <ntsc>FALSE</ntsc>
                        </rate>
                      </timecode>
                      <media>
                        <video>
                          <duration>1</duration>
                          <samplecharacteristics>
                            <anamorphic>FALSE</anamorphic>
                            <pixelaspectratio>square</pixelaspectratio>
                            <fielddominance>none</fielddominance>
                            <width>686</width>
                            <height>511</height>
                          </samplecharacteristics>
                        </video>
                      </media>
                    </file>
                  </clipitem>
                </track>
              </video>
            </media>
          </clip>
          <clip explodedTracks="true" frameBlend="FALSE" id="masterclip-29">
            <uuid>d0d95630-c310-4c91-b27a-37b50c0a7d7d</uuid>
            <masterclipid>masterclip-29</masterclipid>
            <ismasterclip>TRUE</ismasterclip>
            <duration>141</duration>
            <in>0</in>
            <out>141</out>
            <name>James.027.png</name>
            <rate>
              <timebase>24</timebase>
              <ntsc>FALSE</ntsc>
            </rate>
            <media>
              <video>
                <track>
                  <clipitem frameBlend="FALSE" id="clipitem-30">
                    <name>James.027.png</name>
                    <masterclipid>masterclip-29</masterclipid>
                    <rate>
                      <timebase>24</timebase>
                      <ntsc>FALSE</ntsc>
                    </rate>
                    <alphatype>straight</alphatype>
                    <pixelaspectratio>square</pixelaspectratio>
                    <anamorphic>FALSE</anamorphic>
                    <file id="file-29">
                      <name>James.027.png</name>
                      <pathurl>file://localhost/Users/antoniochiappetta/OneDrive - Aalto University/University/Aalto/Hackatons/Junction/Junction2019-IoK-security_awareness_kids/Assets/Team Animations/Image Sequences/James/James.027.png</pathurl>
                      <rate>
                        <timebase>24</timebase>
                        <ntsc>FALSE</ntsc>
                      </rate>
                      <duration>141</duration>
                      <timecode>
                        <rate>
                          <timebase>24</timebase>
                          <ntsc>FALSE</ntsc>
                        </rate>
                      </timecode>
                      <media>
                        <video>
                          <duration>1</duration>
                          <samplecharacteristics>
                            <anamorphic>FALSE</anamorphic>
                            <pixelaspectratio>square</pixelaspectratio>
                            <fielddominance>none</fielddominance>
                            <width>686</width>
                            <height>511</height>
                          </samplecharacteristics>
                        </video>
                      </media>
                    </file>
                  </clipitem>
                </track>
              </video>
            </media>
          </clip>
          <clip explodedTracks="true" frameBlend="FALSE" id="masterclip-30">
            <uuid>72325529-297b-4a23-be6b-c0d1c4b3b327</uuid>
            <masterclipid>masterclip-30</masterclipid>
            <ismasterclip>TRUE</ismasterclip>
            <duration>141</duration>
            <in>0</in>
            <out>141</out>
            <name>James.028.png</name>
            <rate>
              <timebase>24</timebase>
              <ntsc>FALSE</ntsc>
            </rate>
            <media>
              <video>
                <track>
                  <clipitem frameBlend="FALSE" id="clipitem-31">
                    <name>James.028.png</name>
                    <masterclipid>masterclip-30</masterclipid>
                    <rate>
                      <timebase>24</timebase>
                      <ntsc>FALSE</ntsc>
                    </rate>
                    <alphatype>straight</alphatype>
                    <pixelaspectratio>square</pixelaspectratio>
                    <anamorphic>FALSE</anamorphic>
                    <file id="file-30">
                      <name>James.028.png</name>
                      <pathurl>file://localhost/Users/antoniochiappetta/OneDrive - Aalto University/University/Aalto/Hackatons/Junction/Junction2019-IoK-security_awareness_kids/Assets/Team Animations/Image Sequences/James/James.028.png</pathurl>
                      <rate>
                        <timebase>24</timebase>
                        <ntsc>FALSE</ntsc>
                      </rate>
                      <duration>141</duration>
                      <timecode>
                        <rate>
                          <timebase>24</timebase>
                          <ntsc>FALSE</ntsc>
                        </rate>
                      </timecode>
                      <media>
                        <video>
                          <duration>1</duration>
                          <samplecharacteristics>
                            <anamorphic>FALSE</anamorphic>
                            <pixelaspectratio>square</pixelaspectratio>
                            <fielddominance>none</fielddominance>
                            <width>686</width>
                            <height>511</height>
                          </samplecharacteristics>
                        </video>
                      </media>
                    </file>
                  </clipitem>
                </track>
              </video>
            </media>
          </clip>
          <clip explodedTracks="true" frameBlend="FALSE" id="masterclip-31">
            <uuid>815f3ad9-500f-4976-bc57-228afc686697</uuid>
            <masterclipid>masterclip-31</masterclipid>
            <ismasterclip>TRUE</ismasterclip>
            <duration>141</duration>
            <in>0</in>
            <out>141</out>
            <name>James.029.png</name>
            <rate>
              <timebase>24</timebase>
              <ntsc>FALSE</ntsc>
            </rate>
            <media>
              <video>
                <track>
                  <clipitem frameBlend="FALSE" id="clipitem-32">
                    <name>James.029.png</name>
                    <masterclipid>masterclip-31</masterclipid>
                    <rate>
                      <timebase>24</timebase>
                      <ntsc>FALSE</ntsc>
                    </rate>
                    <alphatype>straight</alphatype>
                    <pixelaspectratio>square</pixelaspectratio>
                    <anamorphic>FALSE</anamorphic>
                    <file id="file-31">
                      <name>James.029.png</name>
                      <pathurl>file://localhost/Users/antoniochiappetta/OneDrive - Aalto University/University/Aalto/Hackatons/Junction/Junction2019-IoK-security_awareness_kids/Assets/Team Animations/Image Sequences/James/James.029.png</pathurl>
                      <rate>
                        <timebase>24</timebase>
                        <ntsc>FALSE</ntsc>
                      </rate>
                      <duration>141</duration>
                      <timecode>
                        <rate>
                          <timebase>24</timebase>
                          <ntsc>FALSE</ntsc>
                        </rate>
                      </timecode>
                      <media>
                        <video>
                          <duration>1</duration>
                          <samplecharacteristics>
                            <anamorphic>FALSE</anamorphic>
                            <pixelaspectratio>square</pixelaspectratio>
                            <fielddominance>none</fielddominance>
                            <width>686</width>
                            <height>511</height>
                          </samplecharacteristics>
                        </video>
                      </media>
                    </file>
                  </clipitem>
                </track>
              </video>
            </media>
          </clip>
          <clip explodedTracks="true" frameBlend="FALSE" id="masterclip-32">
            <uuid>e6804a7b-c8b6-427f-844c-87ba1a5ee708</uuid>
            <masterclipid>masterclip-32</masterclipid>
            <ismasterclip>TRUE</ismasterclip>
            <duration>141</duration>
            <in>0</in>
            <out>141</out>
            <name>James.030.png</name>
            <rate>
              <timebase>24</timebase>
              <ntsc>FALSE</ntsc>
            </rate>
            <media>
              <video>
                <track>
                  <clipitem frameBlend="FALSE" id="clipitem-33">
                    <name>James.030.png</name>
                    <masterclipid>masterclip-32</masterclipid>
                    <rate>
                      <timebase>24</timebase>
                      <ntsc>FALSE</ntsc>
                    </rate>
                    <alphatype>straight</alphatype>
                    <pixelaspectratio>square</pixelaspectratio>
                    <anamorphic>FALSE</anamorphic>
                    <file id="file-32">
                      <name>James.030.png</name>
                      <pathurl>file://localhost/Users/antoniochiappetta/OneDrive - Aalto University/University/Aalto/Hackatons/Junction/Junction2019-IoK-security_awareness_kids/Assets/Team Animations/Image Sequences/James/James.030.png</pathurl>
                      <rate>
                        <timebase>24</timebase>
                        <ntsc>FALSE</ntsc>
                      </rate>
                      <duration>141</duration>
                      <timecode>
                        <rate>
                          <timebase>24</timebase>
                          <ntsc>FALSE</ntsc>
                        </rate>
                      </timecode>
                      <media>
                        <video>
                          <duration>1</duration>
                          <samplecharacteristics>
                            <anamorphic>FALSE</anamorphic>
                            <pixelaspectratio>square</pixelaspectratio>
                            <fielddominance>none</fielddominance>
                            <width>686</width>
                            <height>511</height>
                          </samplecharacteristics>
                        </video>
                      </media>
                    </file>
                  </clipitem>
                </track>
              </video>
            </media>
          </clip>
          <clip explodedTracks="true" frameBlend="FALSE" id="masterclip-33">
            <uuid>02655450-fec8-4988-83c7-0d4f2b21029a</uuid>
            <masterclipid>masterclip-33</masterclipid>
            <ismasterclip>TRUE</ismasterclip>
            <duration>141</duration>
            <in>0</in>
            <out>141</out>
            <name>James.031.png</name>
            <rate>
              <timebase>24</timebase>
              <ntsc>FALSE</ntsc>
            </rate>
            <media>
              <video>
                <track>
                  <clipitem frameBlend="FALSE" id="clipitem-34">
                    <name>James.031.png</name>
                    <masterclipid>masterclip-33</masterclipid>
                    <rate>
                      <timebase>24</timebase>
                      <ntsc>FALSE</ntsc>
                    </rate>
                    <alphatype>straight</alphatype>
                    <pixelaspectratio>square</pixelaspectratio>
                    <anamorphic>FALSE</anamorphic>
                    <file id="file-33">
                      <name>James.031.png</name>
                      <pathurl>file://localhost/Users/antoniochiappetta/OneDrive - Aalto University/University/Aalto/Hackatons/Junction/Junction2019-IoK-security_awareness_kids/Assets/Team Animations/Image Sequences/James/James.031.png</pathurl>
                      <rate>
                        <timebase>24</timebase>
                        <ntsc>FALSE</ntsc>
                      </rate>
                      <duration>141</duration>
                      <timecode>
                        <rate>
                          <timebase>24</timebase>
                          <ntsc>FALSE</ntsc>
                        </rate>
                      </timecode>
                      <media>
                        <video>
                          <duration>1</duration>
                          <samplecharacteristics>
                            <anamorphic>FALSE</anamorphic>
                            <pixelaspectratio>square</pixelaspectratio>
                            <fielddominance>none</fielddominance>
                            <width>686</width>
                            <height>511</height>
                          </samplecharacteristics>
                        </video>
                      </media>
                    </file>
                  </clipitem>
                </track>
              </video>
            </media>
          </clip>
          <clip explodedTracks="true" frameBlend="FALSE" id="masterclip-34">
            <uuid>c6aa1d35-9556-4695-8c28-79e61c38fa74</uuid>
            <masterclipid>masterclip-34</masterclipid>
            <ismasterclip>TRUE</ismasterclip>
            <duration>141</duration>
            <in>0</in>
            <out>141</out>
            <name>James.032.png</name>
            <rate>
              <timebase>24</timebase>
              <ntsc>FALSE</ntsc>
            </rate>
            <media>
              <video>
                <track>
                  <clipitem frameBlend="FALSE" id="clipitem-35">
                    <name>James.032.png</name>
                    <masterclipid>masterclip-34</masterclipid>
                    <rate>
                      <timebase>24</timebase>
                      <ntsc>FALSE</ntsc>
                    </rate>
                    <alphatype>straight</alphatype>
                    <pixelaspectratio>square</pixelaspectratio>
                    <anamorphic>FALSE</anamorphic>
                    <file id="file-34">
                      <name>James.032.png</name>
                      <pathurl>file://localhost/Users/antoniochiappetta/OneDrive - Aalto University/University/Aalto/Hackatons/Junction/Junction2019-IoK-security_awareness_kids/Assets/Team Animations/Image Sequences/James/James.032.png</pathurl>
                      <rate>
                        <timebase>24</timebase>
                        <ntsc>FALSE</ntsc>
                      </rate>
                      <duration>141</duration>
                      <timecode>
                        <rate>
                          <timebase>24</timebase>
                          <ntsc>FALSE</ntsc>
                        </rate>
                      </timecode>
                      <media>
                        <video>
                          <duration>1</duration>
                          <samplecharacteristics>
                            <anamorphic>FALSE</anamorphic>
                            <pixelaspectratio>square</pixelaspectratio>
                            <fielddominance>none</fielddominance>
                            <width>686</width>
                            <height>511</height>
                          </samplecharacteristics>
                        </video>
                      </media>
                    </file>
                  </clipitem>
                </track>
              </video>
            </media>
          </clip>
          <clip explodedTracks="true" frameBlend="FALSE" id="masterclip-35">
            <uuid>2bffad23-3c69-4236-9313-45bcae01bcb6</uuid>
            <masterclipid>masterclip-35</masterclipid>
            <ismasterclip>TRUE</ismasterclip>
            <duration>141</duration>
            <in>0</in>
            <out>141</out>
            <name>James.033.png</name>
            <rate>
              <timebase>24</timebase>
              <ntsc>FALSE</ntsc>
            </rate>
            <media>
              <video>
                <track>
                  <clipitem frameBlend="FALSE" id="clipitem-36">
                    <name>James.033.png</name>
                    <masterclipid>masterclip-35</masterclipid>
                    <rate>
                      <timebase>24</timebase>
                      <ntsc>FALSE</ntsc>
                    </rate>
                    <alphatype>straight</alphatype>
                    <pixelaspectratio>square</pixelaspectratio>
                    <anamorphic>FALSE</anamorphic>
                    <file id="file-35">
                      <name>James.033.png</name>
                      <pathurl>file://localhost/Users/antoniochiappetta/OneDrive - Aalto University/University/Aalto/Hackatons/Junction/Junction2019-IoK-security_awareness_kids/Assets/Team Animations/Image Sequences/James/James.033.png</pathurl>
                      <rate>
                        <timebase>24</timebase>
                        <ntsc>FALSE</ntsc>
                      </rate>
                      <duration>141</duration>
                      <timecode>
                        <rate>
                          <timebase>24</timebase>
                          <ntsc>FALSE</ntsc>
                        </rate>
                      </timecode>
                      <media>
                        <video>
                          <duration>1</duration>
                          <samplecharacteristics>
                            <anamorphic>FALSE</anamorphic>
                            <pixelaspectratio>square</pixelaspectratio>
                            <fielddominance>none</fielddominance>
                            <width>686</width>
                            <height>511</height>
                          </samplecharacteristics>
                        </video>
                      </media>
                    </file>
                  </clipitem>
                </track>
              </video>
            </media>
          </clip>
          <clip explodedTracks="true" frameBlend="FALSE" id="masterclip-36">
            <uuid>d5905555-5c72-4e86-9a14-b8eadb6f0ee6</uuid>
            <masterclipid>masterclip-36</masterclipid>
            <ismasterclip>TRUE</ismasterclip>
            <duration>141</duration>
            <in>0</in>
            <out>141</out>
            <name>James.034.png</name>
            <rate>
              <timebase>24</timebase>
              <ntsc>FALSE</ntsc>
            </rate>
            <media>
              <video>
                <track>
                  <clipitem frameBlend="FALSE" id="clipitem-37">
                    <name>James.034.png</name>
                    <masterclipid>masterclip-36</masterclipid>
                    <rate>
                      <timebase>24</timebase>
                      <ntsc>FALSE</ntsc>
                    </rate>
                    <alphatype>straight</alphatype>
                    <pixelaspectratio>square</pixelaspectratio>
                    <anamorphic>FALSE</anamorphic>
                    <file id="file-36">
                      <name>James.034.png</name>
                      <pathurl>file://localhost/Users/antoniochiappetta/OneDrive - Aalto University/University/Aalto/Hackatons/Junction/Junction2019-IoK-security_awareness_kids/Assets/Team Animations/Image Sequences/James/James.034.png</pathurl>
                      <rate>
                        <timebase>24</timebase>
                        <ntsc>FALSE</ntsc>
                      </rate>
                      <duration>141</duration>
                      <timecode>
                        <rate>
                          <timebase>24</timebase>
                          <ntsc>FALSE</ntsc>
                        </rate>
                      </timecode>
                      <media>
                        <video>
                          <duration>1</duration>
                          <samplecharacteristics>
                            <anamorphic>FALSE</anamorphic>
                            <pixelaspectratio>square</pixelaspectratio>
                            <fielddominance>none</fielddominance>
                            <width>686</width>
                            <height>511</height>
                          </samplecharacteristics>
                        </video>
                      </media>
                    </file>
                  </clipitem>
                </track>
              </video>
            </media>
          </clip>
          <clip explodedTracks="true" frameBlend="FALSE" id="masterclip-37">
            <uuid>2ce321bc-b678-4115-af6a-43079a948c9b</uuid>
            <masterclipid>masterclip-37</masterclipid>
            <ismasterclip>TRUE</ismasterclip>
            <duration>141</duration>
            <in>0</in>
            <out>141</out>
            <name>James.035.png</name>
            <rate>
              <timebase>24</timebase>
              <ntsc>FALSE</ntsc>
            </rate>
            <media>
              <video>
                <track>
                  <clipitem frameBlend="FALSE" id="clipitem-38">
                    <name>James.035.png</name>
                    <masterclipid>masterclip-37</masterclipid>
                    <rate>
                      <timebase>24</timebase>
                      <ntsc>FALSE</ntsc>
                    </rate>
                    <alphatype>straight</alphatype>
                    <pixelaspectratio>square</pixelaspectratio>
                    <anamorphic>FALSE</anamorphic>
                    <file id="file-37">
                      <name>James.035.png</name>
                      <pathurl>file://localhost/Users/antoniochiappetta/OneDrive - Aalto University/University/Aalto/Hackatons/Junction/Junction2019-IoK-security_awareness_kids/Assets/Team Animations/Image Sequences/James/James.035.png</pathurl>
                      <rate>
                        <timebase>24</timebase>
                        <ntsc>FALSE</ntsc>
                      </rate>
                      <duration>141</duration>
                      <timecode>
                        <rate>
                          <timebase>24</timebase>
                          <ntsc>FALSE</ntsc>
                        </rate>
                      </timecode>
                      <media>
                        <video>
                          <duration>1</duration>
                          <samplecharacteristics>
                            <anamorphic>FALSE</anamorphic>
                            <pixelaspectratio>square</pixelaspectratio>
                            <fielddominance>none</fielddominance>
                            <width>686</width>
                            <height>511</height>
                          </samplecharacteristics>
                        </video>
                      </media>
                    </file>
                  </clipitem>
                </track>
              </video>
            </media>
          </clip>
          <clip explodedTracks="true" frameBlend="FALSE" id="masterclip-38">
            <uuid>0e4b64be-565a-4ba2-827e-e381fe9c3b4c</uuid>
            <masterclipid>masterclip-38</masterclipid>
            <ismasterclip>TRUE</ismasterclip>
            <duration>141</duration>
            <in>0</in>
            <out>141</out>
            <name>James.036.png</name>
            <rate>
              <timebase>24</timebase>
              <ntsc>FALSE</ntsc>
            </rate>
            <media>
              <video>
                <track>
                  <clipitem frameBlend="FALSE" id="clipitem-39">
                    <name>James.036.png</name>
                    <masterclipid>masterclip-38</masterclipid>
                    <rate>
                      <timebase>24</timebase>
                      <ntsc>FALSE</ntsc>
                    </rate>
                    <alphatype>straight</alphatype>
                    <pixelaspectratio>square</pixelaspectratio>
                    <anamorphic>FALSE</anamorphic>
                    <file id="file-38">
                      <name>James.036.png</name>
                      <pathurl>file://localhost/Users/antoniochiappetta/OneDrive - Aalto University/University/Aalto/Hackatons/Junction/Junction2019-IoK-security_awareness_kids/Assets/Team Animations/Image Sequences/James/James.036.png</pathurl>
                      <rate>
                        <timebase>24</timebase>
                        <ntsc>FALSE</ntsc>
                      </rate>
                      <duration>141</duration>
                      <timecode>
                        <rate>
                          <timebase>24</timebase>
                          <ntsc>FALSE</ntsc>
                        </rate>
                      </timecode>
                      <media>
                        <video>
                          <duration>1</duration>
                          <samplecharacteristics>
                            <anamorphic>FALSE</anamorphic>
                            <pixelaspectratio>square</pixelaspectratio>
                            <fielddominance>none</fielddominance>
                            <width>686</width>
                            <height>511</height>
                          </samplecharacteristics>
                        </video>
                      </media>
                    </file>
                  </clipitem>
                </track>
              </video>
            </media>
          </clip>
          <clip explodedTracks="true" frameBlend="FALSE" id="masterclip-39">
            <uuid>e9feba62-41c3-470d-aed5-1a5c47b2993a</uuid>
            <masterclipid>masterclip-39</masterclipid>
            <ismasterclip>TRUE</ismasterclip>
            <duration>141</duration>
            <in>0</in>
            <out>141</out>
            <name>James.037.png</name>
            <rate>
              <timebase>24</timebase>
              <ntsc>FALSE</ntsc>
            </rate>
            <media>
              <video>
                <track>
                  <clipitem frameBlend="FALSE" id="clipitem-40">
                    <name>James.037.png</name>
                    <masterclipid>masterclip-39</masterclipid>
                    <rate>
                      <timebase>24</timebase>
                      <ntsc>FALSE</ntsc>
                    </rate>
                    <alphatype>straight</alphatype>
                    <pixelaspectratio>square</pixelaspectratio>
                    <anamorphic>FALSE</anamorphic>
                    <file id="file-39">
                      <name>James.037.png</name>
                      <pathurl>file://localhost/Users/antoniochiappetta/OneDrive - Aalto University/University/Aalto/Hackatons/Junction/Junction2019-IoK-security_awareness_kids/Assets/Team Animations/Image Sequences/James/James.037.png</pathurl>
                      <rate>
                        <timebase>24</timebase>
                        <ntsc>FALSE</ntsc>
                      </rate>
                      <duration>141</duration>
                      <timecode>
                        <rate>
                          <timebase>24</timebase>
                          <ntsc>FALSE</ntsc>
                        </rate>
                      </timecode>
                      <media>
                        <video>
                          <duration>1</duration>
                          <samplecharacteristics>
                            <anamorphic>FALSE</anamorphic>
                            <pixelaspectratio>square</pixelaspectratio>
                            <fielddominance>none</fielddominance>
                            <width>686</width>
                            <height>511</height>
                          </samplecharacteristics>
                        </video>
                      </media>
                    </file>
                  </clipitem>
                </track>
              </video>
            </media>
          </clip>
          <clip explodedTracks="true" frameBlend="FALSE" id="masterclip-40">
            <uuid>7ea6f692-8ba3-490a-ad05-1d1981094dc7</uuid>
            <masterclipid>masterclip-40</masterclipid>
            <ismasterclip>TRUE</ismasterclip>
            <duration>141</duration>
            <in>0</in>
            <out>141</out>
            <name>James.038.png</name>
            <rate>
              <timebase>24</timebase>
              <ntsc>FALSE</ntsc>
            </rate>
            <media>
              <video>
                <track>
                  <clipitem frameBlend="FALSE" id="clipitem-41">
                    <name>James.038.png</name>
                    <masterclipid>masterclip-40</masterclipid>
                    <rate>
                      <timebase>24</timebase>
                      <ntsc>FALSE</ntsc>
                    </rate>
                    <alphatype>straight</alphatype>
                    <pixelaspectratio>square</pixelaspectratio>
                    <anamorphic>FALSE</anamorphic>
                    <file id="file-40">
                      <name>James.038.png</name>
                      <pathurl>file://localhost/Users/antoniochiappetta/OneDrive - Aalto University/University/Aalto/Hackatons/Junction/Junction2019-IoK-security_awareness_kids/Assets/Team Animations/Image Sequences/James/James.038.png</pathurl>
                      <rate>
                        <timebase>24</timebase>
                        <ntsc>FALSE</ntsc>
                      </rate>
                      <duration>141</duration>
                      <timecode>
                        <rate>
                          <timebase>24</timebase>
                          <ntsc>FALSE</ntsc>
                        </rate>
                      </timecode>
                      <media>
                        <video>
                          <duration>1</duration>
                          <samplecharacteristics>
                            <anamorphic>FALSE</anamorphic>
                            <pixelaspectratio>square</pixelaspectratio>
                            <fielddominance>none</fielddominance>
                            <width>686</width>
                            <height>511</height>
                          </samplecharacteristics>
                        </video>
                      </media>
                    </file>
                  </clipitem>
                </track>
              </video>
            </media>
          </clip>
          <clip explodedTracks="true" frameBlend="FALSE" id="masterclip-41">
            <uuid>48cc6810-d531-47e0-8583-9d86e552e1e3</uuid>
            <masterclipid>masterclip-41</masterclipid>
            <ismasterclip>TRUE</ismasterclip>
            <duration>141</duration>
            <in>0</in>
            <out>141</out>
            <name>James.039.png</name>
            <rate>
              <timebase>24</timebase>
              <ntsc>FALSE</ntsc>
            </rate>
            <media>
              <video>
                <track>
                  <clipitem frameBlend="FALSE" id="clipitem-42">
                    <name>James.039.png</name>
                    <masterclipid>masterclip-41</masterclipid>
                    <rate>
                      <timebase>24</timebase>
                      <ntsc>FALSE</ntsc>
                    </rate>
                    <alphatype>straight</alphatype>
                    <pixelaspectratio>square</pixelaspectratio>
                    <anamorphic>FALSE</anamorphic>
                    <file id="file-41">
                      <name>James.039.png</name>
                      <pathurl>file://localhost/Users/antoniochiappetta/OneDrive - Aalto University/University/Aalto/Hackatons/Junction/Junction2019-IoK-security_awareness_kids/Assets/Team Animations/Image Sequences/James/James.039.png</pathurl>
                      <rate>
                        <timebase>24</timebase>
                        <ntsc>FALSE</ntsc>
                      </rate>
                      <duration>141</duration>
                      <timecode>
                        <rate>
                          <timebase>24</timebase>
                          <ntsc>FALSE</ntsc>
                        </rate>
                      </timecode>
                      <media>
                        <video>
                          <duration>1</duration>
                          <samplecharacteristics>
                            <anamorphic>FALSE</anamorphic>
                            <pixelaspectratio>square</pixelaspectratio>
                            <fielddominance>none</fielddominance>
                            <width>686</width>
                            <height>511</height>
                          </samplecharacteristics>
                        </video>
                      </media>
                    </file>
                  </clipitem>
                </track>
              </video>
            </media>
          </clip>
          <clip explodedTracks="true" frameBlend="FALSE" id="masterclip-42">
            <uuid>1b24066a-b268-4a0f-8f1a-82b291ebdf51</uuid>
            <masterclipid>masterclip-42</masterclipid>
            <ismasterclip>TRUE</ismasterclip>
            <duration>141</duration>
            <in>0</in>
            <out>141</out>
            <name>James.040.png</name>
            <rate>
              <timebase>24</timebase>
              <ntsc>FALSE</ntsc>
            </rate>
            <media>
              <video>
                <track>
                  <clipitem frameBlend="FALSE" id="clipitem-43">
                    <name>James.040.png</name>
                    <masterclipid>masterclip-42</masterclipid>
                    <rate>
                      <timebase>24</timebase>
                      <ntsc>FALSE</ntsc>
                    </rate>
                    <alphatype>straight</alphatype>
                    <pixelaspectratio>square</pixelaspectratio>
                    <anamorphic>FALSE</anamorphic>
                    <file id="file-42">
                      <name>James.040.png</name>
                      <pathurl>file://localhost/Users/antoniochiappetta/OneDrive - Aalto University/University/Aalto/Hackatons/Junction/Junction2019-IoK-security_awareness_kids/Assets/Team Animations/Image Sequences/James/James.040.png</pathurl>
                      <rate>
                        <timebase>24</timebase>
                        <ntsc>FALSE</ntsc>
                      </rate>
                      <duration>141</duration>
                      <timecode>
                        <rate>
                          <timebase>24</timebase>
                          <ntsc>FALSE</ntsc>
                        </rate>
                      </timecode>
                      <media>
                        <video>
                          <duration>1</duration>
                          <samplecharacteristics>
                            <anamorphic>FALSE</anamorphic>
                            <pixelaspectratio>square</pixelaspectratio>
                            <fielddominance>none</fielddominance>
                            <width>686</width>
                            <height>511</height>
                          </samplecharacteristics>
                        </video>
                      </media>
                    </file>
                  </clipitem>
                </track>
              </video>
            </media>
          </clip>
          <clip explodedTracks="true" frameBlend="FALSE" id="masterclip-43">
            <uuid>381774e4-456d-4ae5-a19e-6015ed015a5a</uuid>
            <masterclipid>masterclip-43</masterclipid>
            <ismasterclip>TRUE</ismasterclip>
            <duration>141</duration>
            <in>0</in>
            <out>141</out>
            <name>James.041.png</name>
            <rate>
              <timebase>24</timebase>
              <ntsc>FALSE</ntsc>
            </rate>
            <media>
              <video>
                <track>
                  <clipitem frameBlend="FALSE" id="clipitem-44">
                    <name>James.041.png</name>
                    <masterclipid>masterclip-43</masterclipid>
                    <rate>
                      <timebase>24</timebase>
                      <ntsc>FALSE</ntsc>
                    </rate>
                    <alphatype>straight</alphatype>
                    <pixelaspectratio>square</pixelaspectratio>
                    <anamorphic>FALSE</anamorphic>
                    <file id="file-43">
                      <name>James.041.png</name>
                      <pathurl>file://localhost/Users/antoniochiappetta/OneDrive - Aalto University/University/Aalto/Hackatons/Junction/Junction2019-IoK-security_awareness_kids/Assets/Team Animations/Image Sequences/James/James.041.png</pathurl>
                      <rate>
                        <timebase>24</timebase>
                        <ntsc>FALSE</ntsc>
                      </rate>
                      <duration>141</duration>
                      <timecode>
                        <rate>
                          <timebase>24</timebase>
                          <ntsc>FALSE</ntsc>
                        </rate>
                      </timecode>
                      <media>
                        <video>
                          <duration>1</duration>
                          <samplecharacteristics>
                            <anamorphic>FALSE</anamorphic>
                            <pixelaspectratio>square</pixelaspectratio>
                            <fielddominance>none</fielddominance>
                            <width>686</width>
                            <height>511</height>
                          </samplecharacteristics>
                        </video>
                      </media>
                    </file>
                  </clipitem>
                </track>
              </video>
            </media>
          </clip>
          <clip explodedTracks="true" frameBlend="FALSE" id="masterclip-44">
            <uuid>81412700-bd1b-41f8-8c75-34520034f4ef</uuid>
            <masterclipid>masterclip-44</masterclipid>
            <ismasterclip>TRUE</ismasterclip>
            <duration>141</duration>
            <in>0</in>
            <out>141</out>
            <name>James.042.png</name>
            <rate>
              <timebase>24</timebase>
              <ntsc>FALSE</ntsc>
            </rate>
            <media>
              <video>
                <track>
                  <clipitem frameBlend="FALSE" id="clipitem-45">
                    <name>James.042.png</name>
                    <masterclipid>masterclip-44</masterclipid>
                    <rate>
                      <timebase>24</timebase>
                      <ntsc>FALSE</ntsc>
                    </rate>
                    <alphatype>straight</alphatype>
                    <pixelaspectratio>square</pixelaspectratio>
                    <anamorphic>FALSE</anamorphic>
                    <file id="file-44">
                      <name>James.042.png</name>
                      <pathurl>file://localhost/Users/antoniochiappetta/OneDrive - Aalto University/University/Aalto/Hackatons/Junction/Junction2019-IoK-security_awareness_kids/Assets/Team Animations/Image Sequences/James/James.042.png</pathurl>
                      <rate>
                        <timebase>24</timebase>
                        <ntsc>FALSE</ntsc>
                      </rate>
                      <duration>141</duration>
                      <timecode>
                        <rate>
                          <timebase>24</timebase>
                          <ntsc>FALSE</ntsc>
                        </rate>
                      </timecode>
                      <media>
                        <video>
                          <duration>1</duration>
                          <samplecharacteristics>
                            <anamorphic>FALSE</anamorphic>
                            <pixelaspectratio>square</pixelaspectratio>
                            <fielddominance>none</fielddominance>
                            <width>686</width>
                            <height>511</height>
                          </samplecharacteristics>
                        </video>
                      </media>
                    </file>
                  </clipitem>
                </track>
              </video>
            </media>
          </clip>
          <clip explodedTracks="true" frameBlend="FALSE" id="masterclip-45">
            <uuid>de61ce26-7626-447d-90e8-7e57909b0538</uuid>
            <masterclipid>masterclip-45</masterclipid>
            <ismasterclip>TRUE</ismasterclip>
            <duration>141</duration>
            <in>0</in>
            <out>141</out>
            <name>James.043.png</name>
            <rate>
              <timebase>24</timebase>
              <ntsc>FALSE</ntsc>
            </rate>
            <media>
              <video>
                <track>
                  <clipitem frameBlend="FALSE" id="clipitem-46">
                    <name>James.043.png</name>
                    <masterclipid>masterclip-45</masterclipid>
                    <rate>
                      <timebase>24</timebase>
                      <ntsc>FALSE</ntsc>
                    </rate>
                    <alphatype>straight</alphatype>
                    <pixelaspectratio>square</pixelaspectratio>
                    <anamorphic>FALSE</anamorphic>
                    <file id="file-45">
                      <name>James.043.png</name>
                      <pathurl>file://localhost/Users/antoniochiappetta/OneDrive - Aalto University/University/Aalto/Hackatons/Junction/Junction2019-IoK-security_awareness_kids/Assets/Team Animations/Image Sequences/James/James.043.png</pathurl>
                      <rate>
                        <timebase>24</timebase>
                        <ntsc>FALSE</ntsc>
                      </rate>
                      <duration>141</duration>
                      <timecode>
                        <rate>
                          <timebase>24</timebase>
                          <ntsc>FALSE</ntsc>
                        </rate>
                      </timecode>
                      <media>
                        <video>
                          <duration>1</duration>
                          <samplecharacteristics>
                            <anamorphic>FALSE</anamorphic>
                            <pixelaspectratio>square</pixelaspectratio>
                            <fielddominance>none</fielddominance>
                            <width>686</width>
                            <height>511</height>
                          </samplecharacteristics>
                        </video>
                      </media>
                    </file>
                  </clipitem>
                </track>
              </video>
            </media>
          </clip>
          <clip explodedTracks="true" frameBlend="FALSE" id="masterclip-46">
            <uuid>ead71808-5e25-4afd-8cdd-a48114711a82</uuid>
            <masterclipid>masterclip-46</masterclipid>
            <ismasterclip>TRUE</ismasterclip>
            <duration>141</duration>
            <in>0</in>
            <out>141</out>
            <name>James.044.png</name>
            <rate>
              <timebase>24</timebase>
              <ntsc>FALSE</ntsc>
            </rate>
            <media>
              <video>
                <track>
                  <clipitem frameBlend="FALSE" id="clipitem-47">
                    <name>James.044.png</name>
                    <masterclipid>masterclip-46</masterclipid>
                    <rate>
                      <timebase>24</timebase>
                      <ntsc>FALSE</ntsc>
                    </rate>
                    <alphatype>straight</alphatype>
                    <pixelaspectratio>square</pixelaspectratio>
                    <anamorphic>FALSE</anamorphic>
                    <file id="file-46">
                      <name>James.044.png</name>
                      <pathurl>file://localhost/Users/antoniochiappetta/OneDrive - Aalto University/University/Aalto/Hackatons/Junction/Junction2019-IoK-security_awareness_kids/Assets/Team Animations/Image Sequences/James/James.044.png</pathurl>
                      <rate>
                        <timebase>24</timebase>
                        <ntsc>FALSE</ntsc>
                      </rate>
                      <duration>141</duration>
                      <timecode>
                        <rate>
                          <timebase>24</timebase>
                          <ntsc>FALSE</ntsc>
                        </rate>
                      </timecode>
                      <media>
                        <video>
                          <duration>1</duration>
                          <samplecharacteristics>
                            <anamorphic>FALSE</anamorphic>
                            <pixelaspectratio>square</pixelaspectratio>
                            <fielddominance>none</fielddominance>
                            <width>686</width>
                            <height>511</height>
                          </samplecharacteristics>
                        </video>
                      </media>
                    </file>
                  </clipitem>
                </track>
              </video>
            </media>
          </clip>
          <clip explodedTracks="true" frameBlend="FALSE" id="masterclip-47">
            <uuid>d01150d3-60fb-4736-b4e4-61b60831f13a</uuid>
            <masterclipid>masterclip-47</masterclipid>
            <ismasterclip>TRUE</ismasterclip>
            <duration>141</duration>
            <in>0</in>
            <out>141</out>
            <name>James.045.png</name>
            <rate>
              <timebase>24</timebase>
              <ntsc>FALSE</ntsc>
            </rate>
            <media>
              <video>
                <track>
                  <clipitem frameBlend="FALSE" id="clipitem-48">
                    <name>James.045.png</name>
                    <masterclipid>masterclip-47</masterclipid>
                    <rate>
                      <timebase>24</timebase>
                      <ntsc>FALSE</ntsc>
                    </rate>
                    <alphatype>straight</alphatype>
                    <pixelaspectratio>square</pixelaspectratio>
                    <anamorphic>FALSE</anamorphic>
                    <file id="file-47">
                      <name>James.045.png</name>
                      <pathurl>file://localhost/Users/antoniochiappetta/OneDrive - Aalto University/University/Aalto/Hackatons/Junction/Junction2019-IoK-security_awareness_kids/Assets/Team Animations/Image Sequences/James/James.045.png</pathurl>
                      <rate>
                        <timebase>24</timebase>
                        <ntsc>FALSE</ntsc>
                      </rate>
                      <duration>141</duration>
                      <timecode>
                        <rate>
                          <timebase>24</timebase>
                          <ntsc>FALSE</ntsc>
                        </rate>
                      </timecode>
                      <media>
                        <video>
                          <duration>1</duration>
                          <samplecharacteristics>
                            <anamorphic>FALSE</anamorphic>
                            <pixelaspectratio>square</pixelaspectratio>
                            <fielddominance>none</fielddominance>
                            <width>686</width>
                            <height>511</height>
                          </samplecharacteristics>
                        </video>
                      </media>
                    </file>
                  </clipitem>
                </track>
              </video>
            </media>
          </clip>
          <clip explodedTracks="true" frameBlend="FALSE" id="masterclip-48">
            <uuid>5456bcfe-442c-4946-9b2b-de0527182e07</uuid>
            <masterclipid>masterclip-48</masterclipid>
            <ismasterclip>TRUE</ismasterclip>
            <duration>141</duration>
            <in>0</in>
            <out>141</out>
            <name>James.046.png</name>
            <rate>
              <timebase>24</timebase>
              <ntsc>FALSE</ntsc>
            </rate>
            <media>
              <video>
                <track>
                  <clipitem frameBlend="FALSE" id="clipitem-49">
                    <name>James.046.png</name>
                    <masterclipid>masterclip-48</masterclipid>
                    <rate>
                      <timebase>24</timebase>
                      <ntsc>FALSE</ntsc>
                    </rate>
                    <alphatype>straight</alphatype>
                    <pixelaspectratio>square</pixelaspectratio>
                    <anamorphic>FALSE</anamorphic>
                    <file id="file-48">
                      <name>James.046.png</name>
                      <pathurl>file://localhost/Users/antoniochiappetta/OneDrive - Aalto University/University/Aalto/Hackatons/Junction/Junction2019-IoK-security_awareness_kids/Assets/Team Animations/Image Sequences/James/James.046.png</pathurl>
                      <rate>
                        <timebase>24</timebase>
                        <ntsc>FALSE</ntsc>
                      </rate>
                      <duration>141</duration>
                      <timecode>
                        <rate>
                          <timebase>24</timebase>
                          <ntsc>FALSE</ntsc>
                        </rate>
                      </timecode>
                      <media>
                        <video>
                          <duration>1</duration>
                          <samplecharacteristics>
                            <anamorphic>FALSE</anamorphic>
                            <pixelaspectratio>square</pixelaspectratio>
                            <fielddominance>none</fielddominance>
                            <width>686</width>
                            <height>511</height>
                          </samplecharacteristics>
                        </video>
                      </media>
                    </file>
                  </clipitem>
                </track>
              </video>
            </media>
          </clip>
          <clip explodedTracks="true" frameBlend="FALSE" id="masterclip-49">
            <uuid>6005c965-16d5-4e20-823a-1552f77a6733</uuid>
            <masterclipid>masterclip-49</masterclipid>
            <ismasterclip>TRUE</ismasterclip>
            <duration>141</duration>
            <in>0</in>
            <out>141</out>
            <name>James.047.png</name>
            <rate>
              <timebase>24</timebase>
              <ntsc>FALSE</ntsc>
            </rate>
            <media>
              <video>
                <track>
                  <clipitem frameBlend="FALSE" id="clipitem-50">
                    <name>James.047.png</name>
                    <masterclipid>masterclip-49</masterclipid>
                    <rate>
                      <timebase>24</timebase>
                      <ntsc>FALSE</ntsc>
                    </rate>
                    <alphatype>straight</alphatype>
                    <pixelaspectratio>square</pixelaspectratio>
                    <anamorphic>FALSE</anamorphic>
                    <file id="file-49">
                      <name>James.047.png</name>
                      <pathurl>file://localhost/Users/antoniochiappetta/OneDrive - Aalto University/University/Aalto/Hackatons/Junction/Junction2019-IoK-security_awareness_kids/Assets/Team Animations/Image Sequences/James/James.047.png</pathurl>
                      <rate>
                        <timebase>24</timebase>
                        <ntsc>FALSE</ntsc>
                      </rate>
                      <duration>141</duration>
                      <timecode>
                        <rate>
                          <timebase>24</timebase>
                          <ntsc>FALSE</ntsc>
                        </rate>
                      </timecode>
                      <media>
                        <video>
                          <duration>1</duration>
                          <samplecharacteristics>
                            <anamorphic>FALSE</anamorphic>
                            <pixelaspectratio>square</pixelaspectratio>
                            <fielddominance>none</fielddominance>
                            <width>686</width>
                            <height>511</height>
                          </samplecharacteristics>
                        </video>
                      </media>
                    </file>
                  </clipitem>
                </track>
              </video>
            </media>
          </clip>
          <clip explodedTracks="true" frameBlend="FALSE" id="masterclip-50">
            <uuid>0377448d-e4eb-4926-ad11-308132a40a9d</uuid>
            <masterclipid>masterclip-50</masterclipid>
            <ismasterclip>TRUE</ismasterclip>
            <duration>141</duration>
            <in>0</in>
            <out>141</out>
            <name>James.048.png</name>
            <rate>
              <timebase>24</timebase>
              <ntsc>FALSE</ntsc>
            </rate>
            <media>
              <video>
                <track>
                  <clipitem frameBlend="FALSE" id="clipitem-51">
                    <name>James.048.png</name>
                    <masterclipid>masterclip-50</masterclipid>
                    <rate>
                      <timebase>24</timebase>
                      <ntsc>FALSE</ntsc>
                    </rate>
                    <alphatype>straight</alphatype>
                    <pixelaspectratio>square</pixelaspectratio>
                    <anamorphic>FALSE</anamorphic>
                    <file id="file-50">
                      <name>James.048.png</name>
                      <pathurl>file://localhost/Users/antoniochiappetta/OneDrive - Aalto University/University/Aalto/Hackatons/Junction/Junction2019-IoK-security_awareness_kids/Assets/Team Animations/Image Sequences/James/James.048.png</pathurl>
                      <rate>
                        <timebase>24</timebase>
                        <ntsc>FALSE</ntsc>
                      </rate>
                      <duration>141</duration>
                      <timecode>
                        <rate>
                          <timebase>24</timebase>
                          <ntsc>FALSE</ntsc>
                        </rate>
                      </timecode>
                      <media>
                        <video>
                          <duration>1</duration>
                          <samplecharacteristics>
                            <anamorphic>FALSE</anamorphic>
                            <pixelaspectratio>square</pixelaspectratio>
                            <fielddominance>none</fielddominance>
                            <width>686</width>
                            <height>511</height>
                          </samplecharacteristics>
                        </video>
                      </media>
                    </file>
                  </clipitem>
                </track>
              </video>
            </media>
          </clip>
          <clip explodedTracks="true" frameBlend="FALSE" id="masterclip-51">
            <uuid>e4426941-75f4-4e8a-9467-661253f6f1b5</uuid>
            <masterclipid>masterclip-51</masterclipid>
            <ismasterclip>TRUE</ismasterclip>
            <duration>141</duration>
            <in>0</in>
            <out>141</out>
            <name>James.049.png</name>
            <rate>
              <timebase>24</timebase>
              <ntsc>FALSE</ntsc>
            </rate>
            <media>
              <video>
                <track>
                  <clipitem frameBlend="FALSE" id="clipitem-52">
                    <name>James.049.png</name>
                    <masterclipid>masterclip-51</masterclipid>
                    <rate>
                      <timebase>24</timebase>
                      <ntsc>FALSE</ntsc>
                    </rate>
                    <alphatype>straight</alphatype>
                    <pixelaspectratio>square</pixelaspectratio>
                    <anamorphic>FALSE</anamorphic>
                    <file id="file-51">
                      <name>James.049.png</name>
                      <pathurl>file://localhost/Users/antoniochiappetta/OneDrive - Aalto University/University/Aalto/Hackatons/Junction/Junction2019-IoK-security_awareness_kids/Assets/Team Animations/Image Sequences/James/James.049.png</pathurl>
                      <rate>
                        <timebase>24</timebase>
                        <ntsc>FALSE</ntsc>
                      </rate>
                      <duration>141</duration>
                      <timecode>
                        <rate>
                          <timebase>24</timebase>
                          <ntsc>FALSE</ntsc>
                        </rate>
                      </timecode>
                      <media>
                        <video>
                          <duration>1</duration>
                          <samplecharacteristics>
                            <anamorphic>FALSE</anamorphic>
                            <pixelaspectratio>square</pixelaspectratio>
                            <fielddominance>none</fielddominance>
                            <width>686</width>
                            <height>511</height>
                          </samplecharacteristics>
                        </video>
                      </media>
                    </file>
                  </clipitem>
                </track>
              </video>
            </media>
          </clip>
          <clip explodedTracks="true" frameBlend="FALSE" id="masterclip-52">
            <uuid>57315093-394f-4853-ad2b-90c75fa94b12</uuid>
            <masterclipid>masterclip-52</masterclipid>
            <ismasterclip>TRUE</ismasterclip>
            <duration>141</duration>
            <in>0</in>
            <out>141</out>
            <name>James.050.png</name>
            <rate>
              <timebase>24</timebase>
              <ntsc>FALSE</ntsc>
            </rate>
            <media>
              <video>
                <track>
                  <clipitem frameBlend="FALSE" id="clipitem-53">
                    <name>James.050.png</name>
                    <masterclipid>masterclip-52</masterclipid>
                    <rate>
                      <timebase>24</timebase>
                      <ntsc>FALSE</ntsc>
                    </rate>
                    <alphatype>straight</alphatype>
                    <pixelaspectratio>square</pixelaspectratio>
                    <anamorphic>FALSE</anamorphic>
                    <file id="file-52">
                      <name>James.050.png</name>
                      <pathurl>file://localhost/Users/antoniochiappetta/OneDrive - Aalto University/University/Aalto/Hackatons/Junction/Junction2019-IoK-security_awareness_kids/Assets/Team Animations/Image Sequences/James/James.050.png</pathurl>
                      <rate>
                        <timebase>24</timebase>
                        <ntsc>FALSE</ntsc>
                      </rate>
                      <duration>141</duration>
                      <timecode>
                        <rate>
                          <timebase>24</timebase>
                          <ntsc>FALSE</ntsc>
                        </rate>
                      </timecode>
                      <media>
                        <video>
                          <duration>1</duration>
                          <samplecharacteristics>
                            <anamorphic>FALSE</anamorphic>
                            <pixelaspectratio>square</pixelaspectratio>
                            <fielddominance>none</fielddominance>
                            <width>686</width>
                            <height>511</height>
                          </samplecharacteristics>
                        </video>
                      </media>
                    </file>
                  </clipitem>
                </track>
              </video>
            </media>
          </clip>
          <clip explodedTracks="true" frameBlend="FALSE" id="masterclip-53">
            <uuid>6b890206-5681-4d7b-961b-f5cf084fd949</uuid>
            <masterclipid>masterclip-53</masterclipid>
            <ismasterclip>TRUE</ismasterclip>
            <duration>141</duration>
            <in>0</in>
            <out>141</out>
            <name>James.051.png</name>
            <rate>
              <timebase>24</timebase>
              <ntsc>FALSE</ntsc>
            </rate>
            <media>
              <video>
                <track>
                  <clipitem frameBlend="FALSE" id="clipitem-54">
                    <name>James.051.png</name>
                    <masterclipid>masterclip-53</masterclipid>
                    <rate>
                      <timebase>24</timebase>
                      <ntsc>FALSE</ntsc>
                    </rate>
                    <alphatype>straight</alphatype>
                    <pixelaspectratio>square</pixelaspectratio>
                    <anamorphic>FALSE</anamorphic>
                    <file id="file-53">
                      <name>James.051.png</name>
                      <pathurl>file://localhost/Users/antoniochiappetta/OneDrive - Aalto University/University/Aalto/Hackatons/Junction/Junction2019-IoK-security_awareness_kids/Assets/Team Animations/Image Sequences/James/James.051.png</pathurl>
                      <rate>
                        <timebase>24</timebase>
                        <ntsc>FALSE</ntsc>
                      </rate>
                      <duration>141</duration>
                      <timecode>
                        <rate>
                          <timebase>24</timebase>
                          <ntsc>FALSE</ntsc>
                        </rate>
                      </timecode>
                      <media>
                        <video>
                          <duration>1</duration>
                          <samplecharacteristics>
                            <anamorphic>FALSE</anamorphic>
                            <pixelaspectratio>square</pixelaspectratio>
                            <fielddominance>none</fielddominance>
                            <width>686</width>
                            <height>511</height>
                          </samplecharacteristics>
                        </video>
                      </media>
                    </file>
                  </clipitem>
                </track>
              </video>
            </media>
          </clip>
          <clip explodedTracks="true" frameBlend="FALSE" id="masterclip-54">
            <uuid>73f7431d-3530-4b7d-827e-65470b1c0e70</uuid>
            <masterclipid>masterclip-54</masterclipid>
            <ismasterclip>TRUE</ismasterclip>
            <duration>141</duration>
            <in>0</in>
            <out>141</out>
            <name>James.052.png</name>
            <rate>
              <timebase>24</timebase>
              <ntsc>FALSE</ntsc>
            </rate>
            <media>
              <video>
                <track>
                  <clipitem frameBlend="FALSE" id="clipitem-55">
                    <name>James.052.png</name>
                    <masterclipid>masterclip-54</masterclipid>
                    <rate>
                      <timebase>24</timebase>
                      <ntsc>FALSE</ntsc>
                    </rate>
                    <alphatype>straight</alphatype>
                    <pixelaspectratio>square</pixelaspectratio>
                    <anamorphic>FALSE</anamorphic>
                    <file id="file-54">
                      <name>James.052.png</name>
                      <pathurl>file://localhost/Users/antoniochiappetta/OneDrive - Aalto University/University/Aalto/Hackatons/Junction/Junction2019-IoK-security_awareness_kids/Assets/Team Animations/Image Sequences/James/James.052.png</pathurl>
                      <rate>
                        <timebase>24</timebase>
                        <ntsc>FALSE</ntsc>
                      </rate>
                      <duration>141</duration>
                      <timecode>
                        <rate>
                          <timebase>24</timebase>
                          <ntsc>FALSE</ntsc>
                        </rate>
                      </timecode>
                      <media>
                        <video>
                          <duration>1</duration>
                          <samplecharacteristics>
                            <anamorphic>FALSE</anamorphic>
                            <pixelaspectratio>square</pixelaspectratio>
                            <fielddominance>none</fielddominance>
                            <width>686</width>
                            <height>511</height>
                          </samplecharacteristics>
                        </video>
                      </media>
                    </file>
                  </clipitem>
                </track>
              </video>
            </media>
          </clip>
          <clip explodedTracks="true" frameBlend="FALSE" id="masterclip-55">
            <uuid>2eb4b583-4037-40fb-86e4-de88db80458a</uuid>
            <masterclipid>masterclip-55</masterclipid>
            <ismasterclip>TRUE</ismasterclip>
            <duration>141</duration>
            <in>0</in>
            <out>141</out>
            <name>James.053.png</name>
            <rate>
              <timebase>24</timebase>
              <ntsc>FALSE</ntsc>
            </rate>
            <media>
              <video>
                <track>
                  <clipitem frameBlend="FALSE" id="clipitem-56">
                    <name>James.053.png</name>
                    <masterclipid>masterclip-55</masterclipid>
                    <rate>
                      <timebase>24</timebase>
                      <ntsc>FALSE</ntsc>
                    </rate>
                    <alphatype>straight</alphatype>
                    <pixelaspectratio>square</pixelaspectratio>
                    <anamorphic>FALSE</anamorphic>
                    <file id="file-55">
                      <name>James.053.png</name>
                      <pathurl>file://localhost/Users/antoniochiappetta/OneDrive - Aalto University/University/Aalto/Hackatons/Junction/Junction2019-IoK-security_awareness_kids/Assets/Team Animations/Image Sequences/James/James.053.png</pathurl>
                      <rate>
                        <timebase>24</timebase>
                        <ntsc>FALSE</ntsc>
                      </rate>
                      <duration>141</duration>
                      <timecode>
                        <rate>
                          <timebase>24</timebase>
                          <ntsc>FALSE</ntsc>
                        </rate>
                      </timecode>
                      <media>
                        <video>
                          <duration>1</duration>
                          <samplecharacteristics>
                            <anamorphic>FALSE</anamorphic>
                            <pixelaspectratio>square</pixelaspectratio>
                            <fielddominance>none</fielddominance>
                            <width>686</width>
                            <height>511</height>
                          </samplecharacteristics>
                        </video>
                      </media>
                    </file>
                  </clipitem>
                </track>
              </video>
            </media>
          </clip>
          <clip explodedTracks="true" frameBlend="FALSE" id="masterclip-56">
            <uuid>39d4b9e0-9331-48dc-8d44-21bd838fa591</uuid>
            <masterclipid>masterclip-56</masterclipid>
            <ismasterclip>TRUE</ismasterclip>
            <duration>141</duration>
            <in>0</in>
            <out>141</out>
            <name>James.054.png</name>
            <rate>
              <timebase>24</timebase>
              <ntsc>FALSE</ntsc>
            </rate>
            <media>
              <video>
                <track>
                  <clipitem frameBlend="FALSE" id="clipitem-57">
                    <name>James.054.png</name>
                    <masterclipid>masterclip-56</masterclipid>
                    <rate>
                      <timebase>24</timebase>
                      <ntsc>FALSE</ntsc>
                    </rate>
                    <alphatype>straight</alphatype>
                    <pixelaspectratio>square</pixelaspectratio>
                    <anamorphic>FALSE</anamorphic>
                    <file id="file-56">
                      <name>James.054.png</name>
                      <pathurl>file://localhost/Users/antoniochiappetta/OneDrive - Aalto University/University/Aalto/Hackatons/Junction/Junction2019-IoK-security_awareness_kids/Assets/Team Animations/Image Sequences/James/James.054.png</pathurl>
                      <rate>
                        <timebase>24</timebase>
                        <ntsc>FALSE</ntsc>
                      </rate>
                      <duration>141</duration>
                      <timecode>
                        <rate>
                          <timebase>24</timebase>
                          <ntsc>FALSE</ntsc>
                        </rate>
                      </timecode>
                      <media>
                        <video>
                          <duration>1</duration>
                          <samplecharacteristics>
                            <anamorphic>FALSE</anamorphic>
                            <pixelaspectratio>square</pixelaspectratio>
                            <fielddominance>none</fielddominance>
                            <width>686</width>
                            <height>511</height>
                          </samplecharacteristics>
                        </video>
                      </media>
                    </file>
                  </clipitem>
                </track>
              </video>
            </media>
          </clip>
          <clip explodedTracks="true" frameBlend="FALSE" id="masterclip-57">
            <uuid>3b3cfcb6-94e0-4343-ba0b-93df696cf5c6</uuid>
            <masterclipid>masterclip-57</masterclipid>
            <ismasterclip>TRUE</ismasterclip>
            <duration>141</duration>
            <in>0</in>
            <out>141</out>
            <name>James.055.png</name>
            <rate>
              <timebase>24</timebase>
              <ntsc>FALSE</ntsc>
            </rate>
            <media>
              <video>
                <track>
                  <clipitem frameBlend="FALSE" id="clipitem-58">
                    <name>James.055.png</name>
                    <masterclipid>masterclip-57</masterclipid>
                    <rate>
                      <timebase>24</timebase>
                      <ntsc>FALSE</ntsc>
                    </rate>
                    <alphatype>straight</alphatype>
                    <pixelaspectratio>square</pixelaspectratio>
                    <anamorphic>FALSE</anamorphic>
                    <file id="file-57">
                      <name>James.055.png</name>
                      <pathurl>file://localhost/Users/antoniochiappetta/OneDrive - Aalto University/University/Aalto/Hackatons/Junction/Junction2019-IoK-security_awareness_kids/Assets/Team Animations/Image Sequences/James/James.055.png</pathurl>
                      <rate>
                        <timebase>24</timebase>
                        <ntsc>FALSE</ntsc>
                      </rate>
                      <duration>141</duration>
                      <timecode>
                        <rate>
                          <timebase>24</timebase>
                          <ntsc>FALSE</ntsc>
                        </rate>
                      </timecode>
                      <media>
                        <video>
                          <duration>1</duration>
                          <samplecharacteristics>
                            <anamorphic>FALSE</anamorphic>
                            <pixelaspectratio>square</pixelaspectratio>
                            <fielddominance>none</fielddominance>
                            <width>686</width>
                            <height>511</height>
                          </samplecharacteristics>
                        </video>
                      </media>
                    </file>
                  </clipitem>
                </track>
              </video>
            </media>
          </clip>
          <clip explodedTracks="true" frameBlend="FALSE" id="masterclip-58">
            <uuid>10fe3ae8-c460-42b0-8922-2d9353dfe2c2</uuid>
            <masterclipid>masterclip-58</masterclipid>
            <ismasterclip>TRUE</ismasterclip>
            <duration>141</duration>
            <in>0</in>
            <out>141</out>
            <name>James.056.png</name>
            <rate>
              <timebase>24</timebase>
              <ntsc>FALSE</ntsc>
            </rate>
            <media>
              <video>
                <track>
                  <clipitem frameBlend="FALSE" id="clipitem-59">
                    <name>James.056.png</name>
                    <masterclipid>masterclip-58</masterclipid>
                    <rate>
                      <timebase>24</timebase>
                      <ntsc>FALSE</ntsc>
                    </rate>
                    <alphatype>straight</alphatype>
                    <pixelaspectratio>square</pixelaspectratio>
                    <anamorphic>FALSE</anamorphic>
                    <file id="file-58">
                      <name>James.056.png</name>
                      <pathurl>file://localhost/Users/antoniochiappetta/OneDrive - Aalto University/University/Aalto/Hackatons/Junction/Junction2019-IoK-security_awareness_kids/Assets/Team Animations/Image Sequences/James/James.056.png</pathurl>
                      <rate>
                        <timebase>24</timebase>
                        <ntsc>FALSE</ntsc>
                      </rate>
                      <duration>141</duration>
                      <timecode>
                        <rate>
                          <timebase>24</timebase>
                          <ntsc>FALSE</ntsc>
                        </rate>
                      </timecode>
                      <media>
                        <video>
                          <duration>1</duration>
                          <samplecharacteristics>
                            <anamorphic>FALSE</anamorphic>
                            <pixelaspectratio>square</pixelaspectratio>
                            <fielddominance>none</fielddominance>
                            <width>686</width>
                            <height>511</height>
                          </samplecharacteristics>
                        </video>
                      </media>
                    </file>
                  </clipitem>
                </track>
              </video>
            </media>
          </clip>
          <clip explodedTracks="true" frameBlend="FALSE" id="masterclip-59">
            <uuid>b0ec8252-c68e-46e1-b99d-7dd9054a9ccc</uuid>
            <masterclipid>masterclip-59</masterclipid>
            <ismasterclip>TRUE</ismasterclip>
            <duration>141</duration>
            <in>0</in>
            <out>141</out>
            <name>James.057.png</name>
            <rate>
              <timebase>24</timebase>
              <ntsc>FALSE</ntsc>
            </rate>
            <media>
              <video>
                <track>
                  <clipitem frameBlend="FALSE" id="clipitem-60">
                    <name>James.057.png</name>
                    <masterclipid>masterclip-59</masterclipid>
                    <rate>
                      <timebase>24</timebase>
                      <ntsc>FALSE</ntsc>
                    </rate>
                    <alphatype>straight</alphatype>
                    <pixelaspectratio>square</pixelaspectratio>
                    <anamorphic>FALSE</anamorphic>
                    <file id="file-59">
                      <name>James.057.png</name>
                      <pathurl>file://localhost/Users/antoniochiappetta/OneDrive - Aalto University/University/Aalto/Hackatons/Junction/Junction2019-IoK-security_awareness_kids/Assets/Team Animations/Image Sequences/James/James.057.png</pathurl>
                      <rate>
                        <timebase>24</timebase>
                        <ntsc>FALSE</ntsc>
                      </rate>
                      <duration>141</duration>
                      <timecode>
                        <rate>
                          <timebase>24</timebase>
                          <ntsc>FALSE</ntsc>
                        </rate>
                      </timecode>
                      <media>
                        <video>
                          <duration>1</duration>
                          <samplecharacteristics>
                            <anamorphic>FALSE</anamorphic>
                            <pixelaspectratio>square</pixelaspectratio>
                            <fielddominance>none</fielddominance>
                            <width>686</width>
                            <height>511</height>
                          </samplecharacteristics>
                        </video>
                      </media>
                    </file>
                  </clipitem>
                </track>
              </video>
            </media>
          </clip>
          <clip explodedTracks="true" frameBlend="FALSE" id="masterclip-60">
            <uuid>9b914108-ea2d-4486-9717-b98ca806a562</uuid>
            <masterclipid>masterclip-60</masterclipid>
            <ismasterclip>TRUE</ismasterclip>
            <duration>141</duration>
            <in>0</in>
            <out>141</out>
            <name>James.058.png</name>
            <rate>
              <timebase>24</timebase>
              <ntsc>FALSE</ntsc>
            </rate>
            <media>
              <video>
                <track>
                  <clipitem frameBlend="FALSE" id="clipitem-61">
                    <name>James.058.png</name>
                    <masterclipid>masterclip-60</masterclipid>
                    <rate>
                      <timebase>24</timebase>
                      <ntsc>FALSE</ntsc>
                    </rate>
                    <alphatype>straight</alphatype>
                    <pixelaspectratio>square</pixelaspectratio>
                    <anamorphic>FALSE</anamorphic>
                    <file id="file-60">
                      <name>James.058.png</name>
                      <pathurl>file://localhost/Users/antoniochiappetta/OneDrive - Aalto University/University/Aalto/Hackatons/Junction/Junction2019-IoK-security_awareness_kids/Assets/Team Animations/Image Sequences/James/James.058.png</pathurl>
                      <rate>
                        <timebase>24</timebase>
                        <ntsc>FALSE</ntsc>
                      </rate>
                      <duration>141</duration>
                      <timecode>
                        <rate>
                          <timebase>24</timebase>
                          <ntsc>FALSE</ntsc>
                        </rate>
                      </timecode>
                      <media>
                        <video>
                          <duration>1</duration>
                          <samplecharacteristics>
                            <anamorphic>FALSE</anamorphic>
                            <pixelaspectratio>square</pixelaspectratio>
                            <fielddominance>none</fielddominance>
                            <width>686</width>
                            <height>511</height>
                          </samplecharacteristics>
                        </video>
                      </media>
                    </file>
                  </clipitem>
                </track>
              </video>
            </media>
          </clip>
          <clip explodedTracks="true" frameBlend="FALSE" id="masterclip-61">
            <uuid>98ed3349-577d-4d07-b8b4-4d058f418b2f</uuid>
            <masterclipid>masterclip-61</masterclipid>
            <ismasterclip>TRUE</ismasterclip>
            <duration>141</duration>
            <in>0</in>
            <out>141</out>
            <name>James.059.png</name>
            <rate>
              <timebase>24</timebase>
              <ntsc>FALSE</ntsc>
            </rate>
            <media>
              <video>
                <track>
                  <clipitem frameBlend="FALSE" id="clipitem-62">
                    <name>James.059.png</name>
                    <masterclipid>masterclip-61</masterclipid>
                    <rate>
                      <timebase>24</timebase>
                      <ntsc>FALSE</ntsc>
                    </rate>
                    <alphatype>straight</alphatype>
                    <pixelaspectratio>square</pixelaspectratio>
                    <anamorphic>FALSE</anamorphic>
                    <file id="file-61">
                      <name>James.059.png</name>
                      <pathurl>file://localhost/Users/antoniochiappetta/OneDrive - Aalto University/University/Aalto/Hackatons/Junction/Junction2019-IoK-security_awareness_kids/Assets/Team Animations/Image Sequences/James/James.059.png</pathurl>
                      <rate>
                        <timebase>24</timebase>
                        <ntsc>FALSE</ntsc>
                      </rate>
                      <duration>141</duration>
                      <timecode>
                        <rate>
                          <timebase>24</timebase>
                          <ntsc>FALSE</ntsc>
                        </rate>
                      </timecode>
                      <media>
                        <video>
                          <duration>1</duration>
                          <samplecharacteristics>
                            <anamorphic>FALSE</anamorphic>
                            <pixelaspectratio>square</pixelaspectratio>
                            <fielddominance>none</fielddominance>
                            <width>686</width>
                            <height>511</height>
                          </samplecharacteristics>
                        </video>
                      </media>
                    </file>
                  </clipitem>
                </track>
              </video>
            </media>
          </clip>
          <clip explodedTracks="true" frameBlend="FALSE" id="masterclip-62">
            <uuid>fb833beb-13bf-4bd0-9702-e8d569be1f51</uuid>
            <masterclipid>masterclip-62</masterclipid>
            <ismasterclip>TRUE</ismasterclip>
            <duration>141</duration>
            <in>0</in>
            <out>141</out>
            <name>James.060.png</name>
            <rate>
              <timebase>24</timebase>
              <ntsc>FALSE</ntsc>
            </rate>
            <media>
              <video>
                <track>
                  <clipitem frameBlend="FALSE" id="clipitem-63">
                    <name>James.060.png</name>
                    <masterclipid>masterclip-62</masterclipid>
                    <rate>
                      <timebase>24</timebase>
                      <ntsc>FALSE</ntsc>
                    </rate>
                    <alphatype>straight</alphatype>
                    <pixelaspectratio>square</pixelaspectratio>
                    <anamorphic>FALSE</anamorphic>
                    <file id="file-62">
                      <name>James.060.png</name>
                      <pathurl>file://localhost/Users/antoniochiappetta/OneDrive - Aalto University/University/Aalto/Hackatons/Junction/Junction2019-IoK-security_awareness_kids/Assets/Team Animations/Image Sequences/James/James.060.png</pathurl>
                      <rate>
                        <timebase>24</timebase>
                        <ntsc>FALSE</ntsc>
                      </rate>
                      <duration>141</duration>
                      <timecode>
                        <rate>
                          <timebase>24</timebase>
                          <ntsc>FALSE</ntsc>
                        </rate>
                      </timecode>
                      <media>
                        <video>
                          <duration>1</duration>
                          <samplecharacteristics>
                            <anamorphic>FALSE</anamorphic>
                            <pixelaspectratio>square</pixelaspectratio>
                            <fielddominance>none</fielddominance>
                            <width>686</width>
                            <height>511</height>
                          </samplecharacteristics>
                        </video>
                      </media>
                    </file>
                  </clipitem>
                </track>
              </video>
            </media>
          </clip>
          <clip explodedTracks="true" frameBlend="FALSE" id="masterclip-63">
            <uuid>fd743c59-33f3-4fb2-a309-a7697a4b4423</uuid>
            <masterclipid>masterclip-63</masterclipid>
            <ismasterclip>TRUE</ismasterclip>
            <duration>141</duration>
            <in>0</in>
            <out>141</out>
            <name>James.061.png</name>
            <rate>
              <timebase>24</timebase>
              <ntsc>FALSE</ntsc>
            </rate>
            <media>
              <video>
                <track>
                  <clipitem frameBlend="FALSE" id="clipitem-64">
                    <name>James.061.png</name>
                    <masterclipid>masterclip-63</masterclipid>
                    <rate>
                      <timebase>24</timebase>
                      <ntsc>FALSE</ntsc>
                    </rate>
                    <alphatype>straight</alphatype>
                    <pixelaspectratio>square</pixelaspectratio>
                    <anamorphic>FALSE</anamorphic>
                    <file id="file-63">
                      <name>James.061.png</name>
                      <pathurl>file://localhost/Users/antoniochiappetta/OneDrive - Aalto University/University/Aalto/Hackatons/Junction/Junction2019-IoK-security_awareness_kids/Assets/Team Animations/Image Sequences/James/James.061.png</pathurl>
                      <rate>
                        <timebase>24</timebase>
                        <ntsc>FALSE</ntsc>
                      </rate>
                      <duration>141</duration>
                      <timecode>
                        <rate>
                          <timebase>24</timebase>
                          <ntsc>FALSE</ntsc>
                        </rate>
                      </timecode>
                      <media>
                        <video>
                          <duration>1</duration>
                          <samplecharacteristics>
                            <anamorphic>FALSE</anamorphic>
                            <pixelaspectratio>square</pixelaspectratio>
                            <fielddominance>none</fielddominance>
                            <width>686</width>
                            <height>511</height>
                          </samplecharacteristics>
                        </video>
                      </media>
                    </file>
                  </clipitem>
                </track>
              </video>
            </media>
          </clip>
          <clip explodedTracks="true" frameBlend="FALSE" id="masterclip-64">
            <uuid>472548b2-85c7-4d8c-8e3e-23c51fec4da6</uuid>
            <masterclipid>masterclip-64</masterclipid>
            <ismasterclip>TRUE</ismasterclip>
            <duration>141</duration>
            <in>0</in>
            <out>141</out>
            <name>James.062.png</name>
            <rate>
              <timebase>24</timebase>
              <ntsc>FALSE</ntsc>
            </rate>
            <media>
              <video>
                <track>
                  <clipitem frameBlend="FALSE" id="clipitem-65">
                    <name>James.062.png</name>
                    <masterclipid>masterclip-64</masterclipid>
                    <rate>
                      <timebase>24</timebase>
                      <ntsc>FALSE</ntsc>
                    </rate>
                    <alphatype>straight</alphatype>
                    <pixelaspectratio>square</pixelaspectratio>
                    <anamorphic>FALSE</anamorphic>
                    <file id="file-64">
                      <name>James.062.png</name>
                      <pathurl>file://localhost/Users/antoniochiappetta/OneDrive - Aalto University/University/Aalto/Hackatons/Junction/Junction2019-IoK-security_awareness_kids/Assets/Team Animations/Image Sequences/James/James.062.png</pathurl>
                      <rate>
                        <timebase>24</timebase>
                        <ntsc>FALSE</ntsc>
                      </rate>
                      <duration>141</duration>
                      <timecode>
                        <rate>
                          <timebase>24</timebase>
                          <ntsc>FALSE</ntsc>
                        </rate>
                      </timecode>
                      <media>
                        <video>
                          <duration>1</duration>
                          <samplecharacteristics>
                            <anamorphic>FALSE</anamorphic>
                            <pixelaspectratio>square</pixelaspectratio>
                            <fielddominance>none</fielddominance>
                            <width>686</width>
                            <height>511</height>
                          </samplecharacteristics>
                        </video>
                      </media>
                    </file>
                  </clipitem>
                </track>
              </video>
            </media>
          </clip>
          <clip explodedTracks="true" frameBlend="FALSE" id="masterclip-65">
            <uuid>48c5744b-8e29-49d9-a96d-c29068dd56de</uuid>
            <masterclipid>masterclip-65</masterclipid>
            <ismasterclip>TRUE</ismasterclip>
            <duration>141</duration>
            <in>0</in>
            <out>141</out>
            <name>James.063.png</name>
            <rate>
              <timebase>24</timebase>
              <ntsc>FALSE</ntsc>
            </rate>
            <media>
              <video>
                <track>
                  <clipitem frameBlend="FALSE" id="clipitem-66">
                    <name>James.063.png</name>
                    <masterclipid>masterclip-65</masterclipid>
                    <rate>
                      <timebase>24</timebase>
                      <ntsc>FALSE</ntsc>
                    </rate>
                    <alphatype>straight</alphatype>
                    <pixelaspectratio>square</pixelaspectratio>
                    <anamorphic>FALSE</anamorphic>
                    <file id="file-65">
                      <name>James.063.png</name>
                      <pathurl>file://localhost/Users/antoniochiappetta/OneDrive - Aalto University/University/Aalto/Hackatons/Junction/Junction2019-IoK-security_awareness_kids/Assets/Team Animations/Image Sequences/James/James.063.png</pathurl>
                      <rate>
                        <timebase>24</timebase>
                        <ntsc>FALSE</ntsc>
                      </rate>
                      <duration>141</duration>
                      <timecode>
                        <rate>
                          <timebase>24</timebase>
                          <ntsc>FALSE</ntsc>
                        </rate>
                      </timecode>
                      <media>
                        <video>
                          <duration>1</duration>
                          <samplecharacteristics>
                            <anamorphic>FALSE</anamorphic>
                            <pixelaspectratio>square</pixelaspectratio>
                            <fielddominance>none</fielddominance>
                            <width>686</width>
                            <height>511</height>
                          </samplecharacteristics>
                        </video>
                      </media>
                    </file>
                  </clipitem>
                </track>
              </video>
            </media>
          </clip>
          <clip explodedTracks="true" frameBlend="FALSE" id="masterclip-66">
            <uuid>fd3347d9-b58f-47c4-be0c-f09d4be3fc7f</uuid>
            <masterclipid>masterclip-66</masterclipid>
            <ismasterclip>TRUE</ismasterclip>
            <duration>141</duration>
            <in>0</in>
            <out>141</out>
            <name>James.064.png</name>
            <rate>
              <timebase>24</timebase>
              <ntsc>FALSE</ntsc>
            </rate>
            <media>
              <video>
                <track>
                  <clipitem frameBlend="FALSE" id="clipitem-67">
                    <name>James.064.png</name>
                    <masterclipid>masterclip-66</masterclipid>
                    <rate>
                      <timebase>24</timebase>
                      <ntsc>FALSE</ntsc>
                    </rate>
                    <alphatype>straight</alphatype>
                    <pixelaspectratio>square</pixelaspectratio>
                    <anamorphic>FALSE</anamorphic>
                    <file id="file-66">
                      <name>James.064.png</name>
                      <pathurl>file://localhost/Users/antoniochiappetta/OneDrive - Aalto University/University/Aalto/Hackatons/Junction/Junction2019-IoK-security_awareness_kids/Assets/Team Animations/Image Sequences/James/James.064.png</pathurl>
                      <rate>
                        <timebase>24</timebase>
                        <ntsc>FALSE</ntsc>
                      </rate>
                      <duration>141</duration>
                      <timecode>
                        <rate>
                          <timebase>24</timebase>
                          <ntsc>FALSE</ntsc>
                        </rate>
                      </timecode>
                      <media>
                        <video>
                          <duration>1</duration>
                          <samplecharacteristics>
                            <anamorphic>FALSE</anamorphic>
                            <pixelaspectratio>square</pixelaspectratio>
                            <fielddominance>none</fielddominance>
                            <width>686</width>
                            <height>511</height>
                          </samplecharacteristics>
                        </video>
                      </media>
                    </file>
                  </clipitem>
                </track>
              </video>
            </media>
          </clip>
          <clip explodedTracks="true" frameBlend="FALSE" id="masterclip-67">
            <uuid>ecb47759-ff3b-4296-bd55-005cb05f4934</uuid>
            <masterclipid>masterclip-67</masterclipid>
            <ismasterclip>TRUE</ismasterclip>
            <duration>141</duration>
            <in>0</in>
            <out>141</out>
            <name>James.065.png</name>
            <rate>
              <timebase>24</timebase>
              <ntsc>FALSE</ntsc>
            </rate>
            <media>
              <video>
                <track>
                  <clipitem frameBlend="FALSE" id="clipitem-68">
                    <name>James.065.png</name>
                    <masterclipid>masterclip-67</masterclipid>
                    <rate>
                      <timebase>24</timebase>
                      <ntsc>FALSE</ntsc>
                    </rate>
                    <alphatype>straight</alphatype>
                    <pixelaspectratio>square</pixelaspectratio>
                    <anamorphic>FALSE</anamorphic>
                    <file id="file-67">
                      <name>James.065.png</name>
                      <pathurl>file://localhost/Users/antoniochiappetta/OneDrive - Aalto University/University/Aalto/Hackatons/Junction/Junction2019-IoK-security_awareness_kids/Assets/Team Animations/Image Sequences/James/James.065.png</pathurl>
                      <rate>
                        <timebase>24</timebase>
                        <ntsc>FALSE</ntsc>
                      </rate>
                      <duration>141</duration>
                      <timecode>
                        <rate>
                          <timebase>24</timebase>
                          <ntsc>FALSE</ntsc>
                        </rate>
                      </timecode>
                      <media>
                        <video>
                          <duration>1</duration>
                          <samplecharacteristics>
                            <anamorphic>FALSE</anamorphic>
                            <pixelaspectratio>square</pixelaspectratio>
                            <fielddominance>none</fielddominance>
                            <width>686</width>
                            <height>511</height>
                          </samplecharacteristics>
                        </video>
                      </media>
                    </file>
                  </clipitem>
                </track>
              </video>
            </media>
          </clip>
          <clip explodedTracks="true" frameBlend="FALSE" id="masterclip-68">
            <uuid>d7d33049-7cf0-47bf-808e-1048bf7e2bd5</uuid>
            <masterclipid>masterclip-68</masterclipid>
            <ismasterclip>TRUE</ismasterclip>
            <duration>141</duration>
            <in>0</in>
            <out>141</out>
            <name>James.066.png</name>
            <rate>
              <timebase>24</timebase>
              <ntsc>FALSE</ntsc>
            </rate>
            <media>
              <video>
                <track>
                  <clipitem frameBlend="FALSE" id="clipitem-69">
                    <name>James.066.png</name>
                    <masterclipid>masterclip-68</masterclipid>
                    <rate>
                      <timebase>24</timebase>
                      <ntsc>FALSE</ntsc>
                    </rate>
                    <alphatype>straight</alphatype>
                    <pixelaspectratio>square</pixelaspectratio>
                    <anamorphic>FALSE</anamorphic>
                    <file id="file-68">
                      <name>James.066.png</name>
                      <pathurl>file://localhost/Users/antoniochiappetta/OneDrive - Aalto University/University/Aalto/Hackatons/Junction/Junction2019-IoK-security_awareness_kids/Assets/Team Animations/Image Sequences/James/James.066.png</pathurl>
                      <rate>
                        <timebase>24</timebase>
                        <ntsc>FALSE</ntsc>
                      </rate>
                      <duration>141</duration>
                      <timecode>
                        <rate>
                          <timebase>24</timebase>
                          <ntsc>FALSE</ntsc>
                        </rate>
                      </timecode>
                      <media>
                        <video>
                          <duration>1</duration>
                          <samplecharacteristics>
                            <anamorphic>FALSE</anamorphic>
                            <pixelaspectratio>square</pixelaspectratio>
                            <fielddominance>none</fielddominance>
                            <width>686</width>
                            <height>511</height>
                          </samplecharacteristics>
                        </video>
                      </media>
                    </file>
                  </clipitem>
                </track>
              </video>
            </media>
          </clip>
          <clip explodedTracks="true" frameBlend="FALSE" id="masterclip-69">
            <uuid>a7bad7a2-ced9-4484-b0d9-44e8572a5319</uuid>
            <masterclipid>masterclip-69</masterclipid>
            <ismasterclip>TRUE</ismasterclip>
            <duration>141</duration>
            <in>0</in>
            <out>141</out>
            <name>James.067.png</name>
            <rate>
              <timebase>24</timebase>
              <ntsc>FALSE</ntsc>
            </rate>
            <media>
              <video>
                <track>
                  <clipitem frameBlend="FALSE" id="clipitem-70">
                    <name>James.067.png</name>
                    <masterclipid>masterclip-69</masterclipid>
                    <rate>
                      <timebase>24</timebase>
                      <ntsc>FALSE</ntsc>
                    </rate>
                    <alphatype>straight</alphatype>
                    <pixelaspectratio>square</pixelaspectratio>
                    <anamorphic>FALSE</anamorphic>
                    <file id="file-69">
                      <name>James.067.png</name>
                      <pathurl>file://localhost/Users/antoniochiappetta/OneDrive - Aalto University/University/Aalto/Hackatons/Junction/Junction2019-IoK-security_awareness_kids/Assets/Team Animations/Image Sequences/James/James.067.png</pathurl>
                      <rate>
                        <timebase>24</timebase>
                        <ntsc>FALSE</ntsc>
                      </rate>
                      <duration>141</duration>
                      <timecode>
                        <rate>
                          <timebase>24</timebase>
                          <ntsc>FALSE</ntsc>
                        </rate>
                      </timecode>
                      <media>
                        <video>
                          <duration>1</duration>
                          <samplecharacteristics>
                            <anamorphic>FALSE</anamorphic>
                            <pixelaspectratio>square</pixelaspectratio>
                            <fielddominance>none</fielddominance>
                            <width>686</width>
                            <height>511</height>
                          </samplecharacteristics>
                        </video>
                      </media>
                    </file>
                  </clipitem>
                </track>
              </video>
            </media>
          </clip>
          <clip explodedTracks="true" frameBlend="FALSE" id="masterclip-70">
            <uuid>36ea4745-70e6-49a7-b518-153504b305c4</uuid>
            <masterclipid>masterclip-70</masterclipid>
            <ismasterclip>TRUE</ismasterclip>
            <duration>141</duration>
            <in>0</in>
            <out>141</out>
            <name>James.068.png</name>
            <rate>
              <timebase>24</timebase>
              <ntsc>FALSE</ntsc>
            </rate>
            <media>
              <video>
                <track>
                  <clipitem frameBlend="FALSE" id="clipitem-71">
                    <name>James.068.png</name>
                    <masterclipid>masterclip-70</masterclipid>
                    <rate>
                      <timebase>24</timebase>
                      <ntsc>FALSE</ntsc>
                    </rate>
                    <alphatype>straight</alphatype>
                    <pixelaspectratio>square</pixelaspectratio>
                    <anamorphic>FALSE</anamorphic>
                    <file id="file-70">
                      <name>James.068.png</name>
                      <pathurl>file://localhost/Users/antoniochiappetta/OneDrive - Aalto University/University/Aalto/Hackatons/Junction/Junction2019-IoK-security_awareness_kids/Assets/Team Animations/Image Sequences/James/James.068.png</pathurl>
                      <rate>
                        <timebase>24</timebase>
                        <ntsc>FALSE</ntsc>
                      </rate>
                      <duration>141</duration>
                      <timecode>
                        <rate>
                          <timebase>24</timebase>
                          <ntsc>FALSE</ntsc>
                        </rate>
                      </timecode>
                      <media>
                        <video>
                          <duration>1</duration>
                          <samplecharacteristics>
                            <anamorphic>FALSE</anamorphic>
                            <pixelaspectratio>square</pixelaspectratio>
                            <fielddominance>none</fielddominance>
                            <width>686</width>
                            <height>511</height>
                          </samplecharacteristics>
                        </video>
                      </media>
                    </file>
                  </clipitem>
                </track>
              </video>
            </media>
          </clip>
          <clip explodedTracks="true" frameBlend="FALSE" id="masterclip-71">
            <uuid>5c90e879-e45e-4c5e-9a6d-a48895d7277b</uuid>
            <masterclipid>masterclip-71</masterclipid>
            <ismasterclip>TRUE</ismasterclip>
            <duration>141</duration>
            <in>0</in>
            <out>141</out>
            <name>James.069.png</name>
            <rate>
              <timebase>24</timebase>
              <ntsc>FALSE</ntsc>
            </rate>
            <media>
              <video>
                <track>
                  <clipitem frameBlend="FALSE" id="clipitem-72">
                    <name>James.069.png</name>
                    <masterclipid>masterclip-71</masterclipid>
                    <rate>
                      <timebase>24</timebase>
                      <ntsc>FALSE</ntsc>
                    </rate>
                    <alphatype>straight</alphatype>
                    <pixelaspectratio>square</pixelaspectratio>
                    <anamorphic>FALSE</anamorphic>
                    <file id="file-71">
                      <name>James.069.png</name>
                      <pathurl>file://localhost/Users/antoniochiappetta/OneDrive - Aalto University/University/Aalto/Hackatons/Junction/Junction2019-IoK-security_awareness_kids/Assets/Team Animations/Image Sequences/James/James.069.png</pathurl>
                      <rate>
                        <timebase>24</timebase>
                        <ntsc>FALSE</ntsc>
                      </rate>
                      <duration>141</duration>
                      <timecode>
                        <rate>
                          <timebase>24</timebase>
                          <ntsc>FALSE</ntsc>
                        </rate>
                      </timecode>
                      <media>
                        <video>
                          <duration>1</duration>
                          <samplecharacteristics>
                            <anamorphic>FALSE</anamorphic>
                            <pixelaspectratio>square</pixelaspectratio>
                            <fielddominance>none</fielddominance>
                            <width>686</width>
                            <height>511</height>
                          </samplecharacteristics>
                        </video>
                      </media>
                    </file>
                  </clipitem>
                </track>
              </video>
            </media>
          </clip>
          <clip explodedTracks="true" frameBlend="FALSE" id="masterclip-72">
            <uuid>d8b78732-15b4-4b06-9a3a-07f6f751d70b</uuid>
            <masterclipid>masterclip-72</masterclipid>
            <ismasterclip>TRUE</ismasterclip>
            <duration>141</duration>
            <in>0</in>
            <out>141</out>
            <name>James.070.png</name>
            <rate>
              <timebase>24</timebase>
              <ntsc>FALSE</ntsc>
            </rate>
            <media>
              <video>
                <track>
                  <clipitem frameBlend="FALSE" id="clipitem-73">
                    <name>James.070.png</name>
                    <masterclipid>masterclip-72</masterclipid>
                    <rate>
                      <timebase>24</timebase>
                      <ntsc>FALSE</ntsc>
                    </rate>
                    <alphatype>straight</alphatype>
                    <pixelaspectratio>square</pixelaspectratio>
                    <anamorphic>FALSE</anamorphic>
                    <file id="file-72">
                      <name>James.070.png</name>
                      <pathurl>file://localhost/Users/antoniochiappetta/OneDrive - Aalto University/University/Aalto/Hackatons/Junction/Junction2019-IoK-security_awareness_kids/Assets/Team Animations/Image Sequences/James/James.070.png</pathurl>
                      <rate>
                        <timebase>24</timebase>
                        <ntsc>FALSE</ntsc>
                      </rate>
                      <duration>141</duration>
                      <timecode>
                        <rate>
                          <timebase>24</timebase>
                          <ntsc>FALSE</ntsc>
                        </rate>
                      </timecode>
                      <media>
                        <video>
                          <duration>1</duration>
                          <samplecharacteristics>
                            <anamorphic>FALSE</anamorphic>
                            <pixelaspectratio>square</pixelaspectratio>
                            <fielddominance>none</fielddominance>
                            <width>686</width>
                            <height>511</height>
                          </samplecharacteristics>
                        </video>
                      </media>
                    </file>
                  </clipitem>
                </track>
              </video>
            </media>
          </clip>
          <clip explodedTracks="true" frameBlend="FALSE" id="masterclip-73">
            <uuid>bb003f4f-9b8e-49b8-822c-c23a882aa7bc</uuid>
            <masterclipid>masterclip-73</masterclipid>
            <ismasterclip>TRUE</ismasterclip>
            <duration>141</duration>
            <in>0</in>
            <out>141</out>
            <name>James.071.png</name>
            <rate>
              <timebase>24</timebase>
              <ntsc>FALSE</ntsc>
            </rate>
            <media>
              <video>
                <track>
                  <clipitem frameBlend="FALSE" id="clipitem-74">
                    <name>James.071.png</name>
                    <masterclipid>masterclip-73</masterclipid>
                    <rate>
                      <timebase>24</timebase>
                      <ntsc>FALSE</ntsc>
                    </rate>
                    <alphatype>straight</alphatype>
                    <pixelaspectratio>square</pixelaspectratio>
                    <anamorphic>FALSE</anamorphic>
                    <file id="file-73">
                      <name>James.071.png</name>
                      <pathurl>file://localhost/Users/antoniochiappetta/OneDrive - Aalto University/University/Aalto/Hackatons/Junction/Junction2019-IoK-security_awareness_kids/Assets/Team Animations/Image Sequences/James/James.071.png</pathurl>
                      <rate>
                        <timebase>24</timebase>
                        <ntsc>FALSE</ntsc>
                      </rate>
                      <duration>141</duration>
                      <timecode>
                        <rate>
                          <timebase>24</timebase>
                          <ntsc>FALSE</ntsc>
                        </rate>
                      </timecode>
                      <media>
                        <video>
                          <duration>1</duration>
                          <samplecharacteristics>
                            <anamorphic>FALSE</anamorphic>
                            <pixelaspectratio>square</pixelaspectratio>
                            <fielddominance>none</fielddominance>
                            <width>686</width>
                            <height>511</height>
                          </samplecharacteristics>
                        </video>
                      </media>
                    </file>
                  </clipitem>
                </track>
              </video>
            </media>
          </clip>
          <clip explodedTracks="true" frameBlend="FALSE" id="masterclip-74">
            <uuid>f249f4dc-c265-4b99-afc1-6f092622a359</uuid>
            <masterclipid>masterclip-74</masterclipid>
            <ismasterclip>TRUE</ismasterclip>
            <duration>141</duration>
            <in>0</in>
            <out>141</out>
            <name>James.072.png</name>
            <rate>
              <timebase>24</timebase>
              <ntsc>FALSE</ntsc>
            </rate>
            <media>
              <video>
                <track>
                  <clipitem frameBlend="FALSE" id="clipitem-75">
                    <name>James.072.png</name>
                    <masterclipid>masterclip-74</masterclipid>
                    <rate>
                      <timebase>24</timebase>
                      <ntsc>FALSE</ntsc>
                    </rate>
                    <alphatype>straight</alphatype>
                    <pixelaspectratio>square</pixelaspectratio>
                    <anamorphic>FALSE</anamorphic>
                    <file id="file-74">
                      <name>James.072.png</name>
                      <pathurl>file://localhost/Users/antoniochiappetta/OneDrive - Aalto University/University/Aalto/Hackatons/Junction/Junction2019-IoK-security_awareness_kids/Assets/Team Animations/Image Sequences/James/James.072.png</pathurl>
                      <rate>
                        <timebase>24</timebase>
                        <ntsc>FALSE</ntsc>
                      </rate>
                      <duration>141</duration>
                      <timecode>
                        <rate>
                          <timebase>24</timebase>
                          <ntsc>FALSE</ntsc>
                        </rate>
                      </timecode>
                      <media>
                        <video>
                          <duration>1</duration>
                          <samplecharacteristics>
                            <anamorphic>FALSE</anamorphic>
                            <pixelaspectratio>square</pixelaspectratio>
                            <fielddominance>none</fielddominance>
                            <width>686</width>
                            <height>511</height>
                          </samplecharacteristics>
                        </video>
                      </media>
                    </file>
                  </clipitem>
                </track>
              </video>
            </media>
          </clip>
          <clip explodedTracks="true" frameBlend="FALSE" id="masterclip-75">
            <uuid>724c4217-89f0-4041-aed7-30eaac3e9545</uuid>
            <masterclipid>masterclip-75</masterclipid>
            <ismasterclip>TRUE</ismasterclip>
            <duration>141</duration>
            <in>0</in>
            <out>141</out>
            <name>James.073.png</name>
            <rate>
              <timebase>24</timebase>
              <ntsc>FALSE</ntsc>
            </rate>
            <media>
              <video>
                <track>
                  <clipitem frameBlend="FALSE" id="clipitem-76">
                    <name>James.073.png</name>
                    <masterclipid>masterclip-75</masterclipid>
                    <rate>
                      <timebase>24</timebase>
                      <ntsc>FALSE</ntsc>
                    </rate>
                    <alphatype>straight</alphatype>
                    <pixelaspectratio>square</pixelaspectratio>
                    <anamorphic>FALSE</anamorphic>
                    <file id="file-75">
                      <name>James.073.png</name>
                      <pathurl>file://localhost/Users/antoniochiappetta/OneDrive - Aalto University/University/Aalto/Hackatons/Junction/Junction2019-IoK-security_awareness_kids/Assets/Team Animations/Image Sequences/James/James.073.png</pathurl>
                      <rate>
                        <timebase>24</timebase>
                        <ntsc>FALSE</ntsc>
                      </rate>
                      <duration>141</duration>
                      <timecode>
                        <rate>
                          <timebase>24</timebase>
                          <ntsc>FALSE</ntsc>
                        </rate>
                      </timecode>
                      <media>
                        <video>
                          <duration>1</duration>
                          <samplecharacteristics>
                            <anamorphic>FALSE</anamorphic>
                            <pixelaspectratio>square</pixelaspectratio>
                            <fielddominance>none</fielddominance>
                            <width>686</width>
                            <height>511</height>
                          </samplecharacteristics>
                        </video>
                      </media>
                    </file>
                  </clipitem>
                </track>
              </video>
            </media>
          </clip>
          <clip explodedTracks="true" frameBlend="FALSE" id="masterclip-76">
            <uuid>ca1f1d2b-686d-4a72-a9d4-589dd8ae26f1</uuid>
            <masterclipid>masterclip-76</masterclipid>
            <ismasterclip>TRUE</ismasterclip>
            <duration>141</duration>
            <in>0</in>
            <out>141</out>
            <name>James.074.png</name>
            <rate>
              <timebase>24</timebase>
              <ntsc>FALSE</ntsc>
            </rate>
            <media>
              <video>
                <track>
                  <clipitem frameBlend="FALSE" id="clipitem-77">
                    <name>James.074.png</name>
                    <masterclipid>masterclip-76</masterclipid>
                    <rate>
                      <timebase>24</timebase>
                      <ntsc>FALSE</ntsc>
                    </rate>
                    <alphatype>straight</alphatype>
                    <pixelaspectratio>square</pixelaspectratio>
                    <anamorphic>FALSE</anamorphic>
                    <file id="file-76">
                      <name>James.074.png</name>
                      <pathurl>file://localhost/Users/antoniochiappetta/OneDrive - Aalto University/University/Aalto/Hackatons/Junction/Junction2019-IoK-security_awareness_kids/Assets/Team Animations/Image Sequences/James/James.074.png</pathurl>
                      <rate>
                        <timebase>24</timebase>
                        <ntsc>FALSE</ntsc>
                      </rate>
                      <duration>141</duration>
                      <timecode>
                        <rate>
                          <timebase>24</timebase>
                          <ntsc>FALSE</ntsc>
                        </rate>
                      </timecode>
                      <media>
                        <video>
                          <duration>1</duration>
                          <samplecharacteristics>
                            <anamorphic>FALSE</anamorphic>
                            <pixelaspectratio>square</pixelaspectratio>
                            <fielddominance>none</fielddominance>
                            <width>686</width>
                            <height>511</height>
                          </samplecharacteristics>
                        </video>
                      </media>
                    </file>
                  </clipitem>
                </track>
              </video>
            </media>
          </clip>
          <clip explodedTracks="true" frameBlend="FALSE" id="masterclip-77">
            <uuid>32e10569-66e9-40ea-88c4-558e502f4204</uuid>
            <masterclipid>masterclip-77</masterclipid>
            <ismasterclip>TRUE</ismasterclip>
            <duration>141</duration>
            <in>0</in>
            <out>141</out>
            <name>James.075.png</name>
            <rate>
              <timebase>24</timebase>
              <ntsc>FALSE</ntsc>
            </rate>
            <media>
              <video>
                <track>
                  <clipitem frameBlend="FALSE" id="clipitem-78">
                    <name>James.075.png</name>
                    <masterclipid>masterclip-77</masterclipid>
                    <rate>
                      <timebase>24</timebase>
                      <ntsc>FALSE</ntsc>
                    </rate>
                    <alphatype>straight</alphatype>
                    <pixelaspectratio>square</pixelaspectratio>
                    <anamorphic>FALSE</anamorphic>
                    <file id="file-77">
                      <name>James.075.png</name>
                      <pathurl>file://localhost/Users/antoniochiappetta/OneDrive - Aalto University/University/Aalto/Hackatons/Junction/Junction2019-IoK-security_awareness_kids/Assets/Team Animations/Image Sequences/James/James.075.png</pathurl>
                      <rate>
                        <timebase>24</timebase>
                        <ntsc>FALSE</ntsc>
                      </rate>
                      <duration>141</duration>
                      <timecode>
                        <rate>
                          <timebase>24</timebase>
                          <ntsc>FALSE</ntsc>
                        </rate>
                      </timecode>
                      <media>
                        <video>
                          <duration>1</duration>
                          <samplecharacteristics>
                            <anamorphic>FALSE</anamorphic>
                            <pixelaspectratio>square</pixelaspectratio>
                            <fielddominance>none</fielddominance>
                            <width>686</width>
                            <height>511</height>
                          </samplecharacteristics>
                        </video>
                      </media>
                    </file>
                  </clipitem>
                </track>
              </video>
            </media>
          </clip>
          <clip explodedTracks="true" frameBlend="FALSE" id="masterclip-78">
            <uuid>adfbfc8a-793a-45ce-9b23-7a1c291b727f</uuid>
            <masterclipid>masterclip-78</masterclipid>
            <ismasterclip>TRUE</ismasterclip>
            <duration>141</duration>
            <in>0</in>
            <out>141</out>
            <name>James.076.png</name>
            <rate>
              <timebase>24</timebase>
              <ntsc>FALSE</ntsc>
            </rate>
            <media>
              <video>
                <track>
                  <clipitem frameBlend="FALSE" id="clipitem-79">
                    <name>James.076.png</name>
                    <masterclipid>masterclip-78</masterclipid>
                    <rate>
                      <timebase>24</timebase>
                      <ntsc>FALSE</ntsc>
                    </rate>
                    <alphatype>straight</alphatype>
                    <pixelaspectratio>square</pixelaspectratio>
                    <anamorphic>FALSE</anamorphic>
                    <file id="file-78">
                      <name>James.076.png</name>
                      <pathurl>file://localhost/Users/antoniochiappetta/OneDrive - Aalto University/University/Aalto/Hackatons/Junction/Junction2019-IoK-security_awareness_kids/Assets/Team Animations/Image Sequences/James/James.076.png</pathurl>
                      <rate>
                        <timebase>24</timebase>
                        <ntsc>FALSE</ntsc>
                      </rate>
                      <duration>141</duration>
                      <timecode>
                        <rate>
                          <timebase>24</timebase>
                          <ntsc>FALSE</ntsc>
                        </rate>
                      </timecode>
                      <media>
                        <video>
                          <duration>1</duration>
                          <samplecharacteristics>
                            <anamorphic>FALSE</anamorphic>
                            <pixelaspectratio>square</pixelaspectratio>
                            <fielddominance>none</fielddominance>
                            <width>686</width>
                            <height>511</height>
                          </samplecharacteristics>
                        </video>
                      </media>
                    </file>
                  </clipitem>
                </track>
              </video>
            </media>
          </clip>
          <clip explodedTracks="true" frameBlend="FALSE" id="masterclip-79">
            <uuid>661539b4-840b-42a7-ab67-9ddf168f4de8</uuid>
            <masterclipid>masterclip-79</masterclipid>
            <ismasterclip>TRUE</ismasterclip>
            <duration>141</duration>
            <in>0</in>
            <out>141</out>
            <name>James.077.png</name>
            <rate>
              <timebase>24</timebase>
              <ntsc>FALSE</ntsc>
            </rate>
            <media>
              <video>
                <track>
                  <clipitem frameBlend="FALSE" id="clipitem-80">
                    <name>James.077.png</name>
                    <masterclipid>masterclip-79</masterclipid>
                    <rate>
                      <timebase>24</timebase>
                      <ntsc>FALSE</ntsc>
                    </rate>
                    <alphatype>straight</alphatype>
                    <pixelaspectratio>square</pixelaspectratio>
                    <anamorphic>FALSE</anamorphic>
                    <file id="file-79">
                      <name>James.077.png</name>
                      <pathurl>file://localhost/Users/antoniochiappetta/OneDrive - Aalto University/University/Aalto/Hackatons/Junction/Junction2019-IoK-security_awareness_kids/Assets/Team Animations/Image Sequences/James/James.077.png</pathurl>
                      <rate>
                        <timebase>24</timebase>
                        <ntsc>FALSE</ntsc>
                      </rate>
                      <duration>141</duration>
                      <timecode>
                        <rate>
                          <timebase>24</timebase>
                          <ntsc>FALSE</ntsc>
                        </rate>
                      </timecode>
                      <media>
                        <video>
                          <duration>1</duration>
                          <samplecharacteristics>
                            <anamorphic>FALSE</anamorphic>
                            <pixelaspectratio>square</pixelaspectratio>
                            <fielddominance>none</fielddominance>
                            <width>686</width>
                            <height>511</height>
                          </samplecharacteristics>
                        </video>
                      </media>
                    </file>
                  </clipitem>
                </track>
              </video>
            </media>
          </clip>
          <clip explodedTracks="true" frameBlend="FALSE" id="masterclip-80">
            <uuid>0fa1d1e4-6295-4ae3-ab10-d40758e0a574</uuid>
            <masterclipid>masterclip-80</masterclipid>
            <ismasterclip>TRUE</ismasterclip>
            <duration>141</duration>
            <in>0</in>
            <out>141</out>
            <name>James.078.png</name>
            <rate>
              <timebase>24</timebase>
              <ntsc>FALSE</ntsc>
            </rate>
            <media>
              <video>
                <track>
                  <clipitem frameBlend="FALSE" id="clipitem-81">
                    <name>James.078.png</name>
                    <masterclipid>masterclip-80</masterclipid>
                    <rate>
                      <timebase>24</timebase>
                      <ntsc>FALSE</ntsc>
                    </rate>
                    <alphatype>straight</alphatype>
                    <pixelaspectratio>square</pixelaspectratio>
                    <anamorphic>FALSE</anamorphic>
                    <file id="file-80">
                      <name>James.078.png</name>
                      <pathurl>file://localhost/Users/antoniochiappetta/OneDrive - Aalto University/University/Aalto/Hackatons/Junction/Junction2019-IoK-security_awareness_kids/Assets/Team Animations/Image Sequences/James/James.078.png</pathurl>
                      <rate>
                        <timebase>24</timebase>
                        <ntsc>FALSE</ntsc>
                      </rate>
                      <duration>141</duration>
                      <timecode>
                        <rate>
                          <timebase>24</timebase>
                          <ntsc>FALSE</ntsc>
                        </rate>
                      </timecode>
                      <media>
                        <video>
                          <duration>1</duration>
                          <samplecharacteristics>
                            <anamorphic>FALSE</anamorphic>
                            <pixelaspectratio>square</pixelaspectratio>
                            <fielddominance>none</fielddominance>
                            <width>686</width>
                            <height>511</height>
                          </samplecharacteristics>
                        </video>
                      </media>
                    </file>
                  </clipitem>
                </track>
              </video>
            </media>
          </clip>
          <clip explodedTracks="true" frameBlend="FALSE" id="masterclip-81">
            <uuid>1057fbf1-b807-4f68-bdad-c26f0d8a47c6</uuid>
            <masterclipid>masterclip-81</masterclipid>
            <ismasterclip>TRUE</ismasterclip>
            <duration>141</duration>
            <in>0</in>
            <out>141</out>
            <name>James.079.png</name>
            <rate>
              <timebase>24</timebase>
              <ntsc>FALSE</ntsc>
            </rate>
            <media>
              <video>
                <track>
                  <clipitem frameBlend="FALSE" id="clipitem-82">
                    <name>James.079.png</name>
                    <masterclipid>masterclip-81</masterclipid>
                    <rate>
                      <timebase>24</timebase>
                      <ntsc>FALSE</ntsc>
                    </rate>
                    <alphatype>straight</alphatype>
                    <pixelaspectratio>square</pixelaspectratio>
                    <anamorphic>FALSE</anamorphic>
                    <file id="file-81">
                      <name>James.079.png</name>
                      <pathurl>file://localhost/Users/antoniochiappetta/OneDrive - Aalto University/University/Aalto/Hackatons/Junction/Junction2019-IoK-security_awareness_kids/Assets/Team Animations/Image Sequences/James/James.079.png</pathurl>
                      <rate>
                        <timebase>24</timebase>
                        <ntsc>FALSE</ntsc>
                      </rate>
                      <duration>141</duration>
                      <timecode>
                        <rate>
                          <timebase>24</timebase>
                          <ntsc>FALSE</ntsc>
                        </rate>
                      </timecode>
                      <media>
                        <video>
                          <duration>1</duration>
                          <samplecharacteristics>
                            <anamorphic>FALSE</anamorphic>
                            <pixelaspectratio>square</pixelaspectratio>
                            <fielddominance>none</fielddominance>
                            <width>686</width>
                            <height>511</height>
                          </samplecharacteristics>
                        </video>
                      </media>
                    </file>
                  </clipitem>
                </track>
              </video>
            </media>
          </clip>
          <clip explodedTracks="true" frameBlend="FALSE" id="masterclip-82">
            <uuid>4feb36a5-7d2a-4eb4-846b-0eae16bbe99c</uuid>
            <masterclipid>masterclip-82</masterclipid>
            <ismasterclip>TRUE</ismasterclip>
            <duration>141</duration>
            <in>0</in>
            <out>141</out>
            <name>James.080.png</name>
            <rate>
              <timebase>24</timebase>
              <ntsc>FALSE</ntsc>
            </rate>
            <media>
              <video>
                <track>
                  <clipitem frameBlend="FALSE" id="clipitem-83">
                    <name>James.080.png</name>
                    <masterclipid>masterclip-82</masterclipid>
                    <rate>
                      <timebase>24</timebase>
                      <ntsc>FALSE</ntsc>
                    </rate>
                    <alphatype>straight</alphatype>
                    <pixelaspectratio>square</pixelaspectratio>
                    <anamorphic>FALSE</anamorphic>
                    <file id="file-82">
                      <name>James.080.png</name>
                      <pathurl>file://localhost/Users/antoniochiappetta/OneDrive - Aalto University/University/Aalto/Hackatons/Junction/Junction2019-IoK-security_awareness_kids/Assets/Team Animations/Image Sequences/James/James.080.png</pathurl>
                      <rate>
                        <timebase>24</timebase>
                        <ntsc>FALSE</ntsc>
                      </rate>
                      <duration>141</duration>
                      <timecode>
                        <rate>
                          <timebase>24</timebase>
                          <ntsc>FALSE</ntsc>
                        </rate>
                      </timecode>
                      <media>
                        <video>
                          <duration>1</duration>
                          <samplecharacteristics>
                            <anamorphic>FALSE</anamorphic>
                            <pixelaspectratio>square</pixelaspectratio>
                            <fielddominance>none</fielddominance>
                            <width>686</width>
                            <height>511</height>
                          </samplecharacteristics>
                        </video>
                      </media>
                    </file>
                  </clipitem>
                </track>
              </video>
            </media>
          </clip>
          <clip explodedTracks="true" frameBlend="FALSE" id="masterclip-83">
            <uuid>d2a51e85-501c-4274-af8b-47dc34c76eff</uuid>
            <masterclipid>masterclip-83</masterclipid>
            <ismasterclip>TRUE</ismasterclip>
            <duration>141</duration>
            <in>0</in>
            <out>141</out>
            <name>James.081.png</name>
            <rate>
              <timebase>24</timebase>
              <ntsc>FALSE</ntsc>
            </rate>
            <media>
              <video>
                <track>
                  <clipitem frameBlend="FALSE" id="clipitem-84">
                    <name>James.081.png</name>
                    <masterclipid>masterclip-83</masterclipid>
                    <rate>
                      <timebase>24</timebase>
                      <ntsc>FALSE</ntsc>
                    </rate>
                    <alphatype>straight</alphatype>
                    <pixelaspectratio>square</pixelaspectratio>
                    <anamorphic>FALSE</anamorphic>
                    <file id="file-83">
                      <name>James.081.png</name>
                      <pathurl>file://localhost/Users/antoniochiappetta/OneDrive - Aalto University/University/Aalto/Hackatons/Junction/Junction2019-IoK-security_awareness_kids/Assets/Team Animations/Image Sequences/James/James.081.png</pathurl>
                      <rate>
                        <timebase>24</timebase>
                        <ntsc>FALSE</ntsc>
                      </rate>
                      <duration>141</duration>
                      <timecode>
                        <rate>
                          <timebase>24</timebase>
                          <ntsc>FALSE</ntsc>
                        </rate>
                      </timecode>
                      <media>
                        <video>
                          <duration>1</duration>
                          <samplecharacteristics>
                            <anamorphic>FALSE</anamorphic>
                            <pixelaspectratio>square</pixelaspectratio>
                            <fielddominance>none</fielddominance>
                            <width>686</width>
                            <height>511</height>
                          </samplecharacteristics>
                        </video>
                      </media>
                    </file>
                  </clipitem>
                </track>
              </video>
            </media>
          </clip>
          <clip explodedTracks="true" frameBlend="FALSE" id="masterclip-84">
            <uuid>da572d1b-203c-48c2-81fd-b10265468cc8</uuid>
            <masterclipid>masterclip-84</masterclipid>
            <ismasterclip>TRUE</ismasterclip>
            <duration>141</duration>
            <in>0</in>
            <out>141</out>
            <name>James.082.png</name>
            <rate>
              <timebase>24</timebase>
              <ntsc>FALSE</ntsc>
            </rate>
            <media>
              <video>
                <track>
                  <clipitem frameBlend="FALSE" id="clipitem-85">
                    <name>James.082.png</name>
                    <masterclipid>masterclip-84</masterclipid>
                    <rate>
                      <timebase>24</timebase>
                      <ntsc>FALSE</ntsc>
                    </rate>
                    <alphatype>straight</alphatype>
                    <pixelaspectratio>square</pixelaspectratio>
                    <anamorphic>FALSE</anamorphic>
                    <file id="file-84">
                      <name>James.082.png</name>
                      <pathurl>file://localhost/Users/antoniochiappetta/OneDrive - Aalto University/University/Aalto/Hackatons/Junction/Junction2019-IoK-security_awareness_kids/Assets/Team Animations/Image Sequences/James/James.082.png</pathurl>
                      <rate>
                        <timebase>24</timebase>
                        <ntsc>FALSE</ntsc>
                      </rate>
                      <duration>141</duration>
                      <timecode>
                        <rate>
                          <timebase>24</timebase>
                          <ntsc>FALSE</ntsc>
                        </rate>
                      </timecode>
                      <media>
                        <video>
                          <duration>1</duration>
                          <samplecharacteristics>
                            <anamorphic>FALSE</anamorphic>
                            <pixelaspectratio>square</pixelaspectratio>
                            <fielddominance>none</fielddominance>
                            <width>686</width>
                            <height>511</height>
                          </samplecharacteristics>
                        </video>
                      </media>
                    </file>
                  </clipitem>
                </track>
              </video>
            </media>
          </clip>
          <clip explodedTracks="true" frameBlend="FALSE" id="masterclip-85">
            <uuid>cd822b27-8e9b-4938-a639-28580ecd34ed</uuid>
            <masterclipid>masterclip-85</masterclipid>
            <ismasterclip>TRUE</ismasterclip>
            <duration>141</duration>
            <in>0</in>
            <out>141</out>
            <name>James.083.png</name>
            <rate>
              <timebase>24</timebase>
              <ntsc>FALSE</ntsc>
            </rate>
            <media>
              <video>
                <track>
                  <clipitem frameBlend="FALSE" id="clipitem-86">
                    <name>James.083.png</name>
                    <masterclipid>masterclip-85</masterclipid>
                    <rate>
                      <timebase>24</timebase>
                      <ntsc>FALSE</ntsc>
                    </rate>
                    <alphatype>straight</alphatype>
                    <pixelaspectratio>square</pixelaspectratio>
                    <anamorphic>FALSE</anamorphic>
                    <file id="file-85">
                      <name>James.083.png</name>
                      <pathurl>file://localhost/Users/antoniochiappetta/OneDrive - Aalto University/University/Aalto/Hackatons/Junction/Junction2019-IoK-security_awareness_kids/Assets/Team Animations/Image Sequences/James/James.083.png</pathurl>
                      <rate>
                        <timebase>24</timebase>
                        <ntsc>FALSE</ntsc>
                      </rate>
                      <duration>141</duration>
                      <timecode>
                        <rate>
                          <timebase>24</timebase>
                          <ntsc>FALSE</ntsc>
                        </rate>
                      </timecode>
                      <media>
                        <video>
                          <duration>1</duration>
                          <samplecharacteristics>
                            <anamorphic>FALSE</anamorphic>
                            <pixelaspectratio>square</pixelaspectratio>
                            <fielddominance>none</fielddominance>
                            <width>686</width>
                            <height>511</height>
                          </samplecharacteristics>
                        </video>
                      </media>
                    </file>
                  </clipitem>
                </track>
              </video>
            </media>
          </clip>
          <clip explodedTracks="true" frameBlend="FALSE" id="masterclip-86">
            <uuid>d6202c84-c7da-4891-b0ac-ae1372d8f434</uuid>
            <masterclipid>masterclip-86</masterclipid>
            <ismasterclip>TRUE</ismasterclip>
            <duration>141</duration>
            <in>0</in>
            <out>141</out>
            <name>James.084.png</name>
            <rate>
              <timebase>24</timebase>
              <ntsc>FALSE</ntsc>
            </rate>
            <media>
              <video>
                <track>
                  <clipitem frameBlend="FALSE" id="clipitem-87">
                    <name>James.084.png</name>
                    <masterclipid>masterclip-86</masterclipid>
                    <rate>
                      <timebase>24</timebase>
                      <ntsc>FALSE</ntsc>
                    </rate>
                    <alphatype>straight</alphatype>
                    <pixelaspectratio>square</pixelaspectratio>
                    <anamorphic>FALSE</anamorphic>
                    <file id="file-86">
                      <name>James.084.png</name>
                      <pathurl>file://localhost/Users/antoniochiappetta/OneDrive - Aalto University/University/Aalto/Hackatons/Junction/Junction2019-IoK-security_awareness_kids/Assets/Team Animations/Image Sequences/James/James.084.png</pathurl>
                      <rate>
                        <timebase>24</timebase>
                        <ntsc>FALSE</ntsc>
                      </rate>
                      <duration>141</duration>
                      <timecode>
                        <rate>
                          <timebase>24</timebase>
                          <ntsc>FALSE</ntsc>
                        </rate>
                      </timecode>
                      <media>
                        <video>
                          <duration>1</duration>
                          <samplecharacteristics>
                            <anamorphic>FALSE</anamorphic>
                            <pixelaspectratio>square</pixelaspectratio>
                            <fielddominance>none</fielddominance>
                            <width>686</width>
                            <height>511</height>
                          </samplecharacteristics>
                        </video>
                      </media>
                    </file>
                  </clipitem>
                </track>
              </video>
            </media>
          </clip>
          <clip explodedTracks="true" frameBlend="FALSE" id="masterclip-87">
            <uuid>41bdf582-632e-48cf-b09b-2bed38420dcd</uuid>
            <masterclipid>masterclip-87</masterclipid>
            <ismasterclip>TRUE</ismasterclip>
            <duration>141</duration>
            <in>0</in>
            <out>141</out>
            <name>James.085.png</name>
            <rate>
              <timebase>24</timebase>
              <ntsc>FALSE</ntsc>
            </rate>
            <media>
              <video>
                <track>
                  <clipitem frameBlend="FALSE" id="clipitem-88">
                    <name>James.085.png</name>
                    <masterclipid>masterclip-87</masterclipid>
                    <rate>
                      <timebase>24</timebase>
                      <ntsc>FALSE</ntsc>
                    </rate>
                    <alphatype>straight</alphatype>
                    <pixelaspectratio>square</pixelaspectratio>
                    <anamorphic>FALSE</anamorphic>
                    <file id="file-87">
                      <name>James.085.png</name>
                      <pathurl>file://localhost/Users/antoniochiappetta/OneDrive - Aalto University/University/Aalto/Hackatons/Junction/Junction2019-IoK-security_awareness_kids/Assets/Team Animations/Image Sequences/James/James.085.png</pathurl>
                      <rate>
                        <timebase>24</timebase>
                        <ntsc>FALSE</ntsc>
                      </rate>
                      <duration>141</duration>
                      <timecode>
                        <rate>
                          <timebase>24</timebase>
                          <ntsc>FALSE</ntsc>
                        </rate>
                      </timecode>
                      <media>
                        <video>
                          <duration>1</duration>
                          <samplecharacteristics>
                            <anamorphic>FALSE</anamorphic>
                            <pixelaspectratio>square</pixelaspectratio>
                            <fielddominance>none</fielddominance>
                            <width>686</width>
                            <height>511</height>
                          </samplecharacteristics>
                        </video>
                      </media>
                    </file>
                  </clipitem>
                </track>
              </video>
            </media>
          </clip>
          <clip explodedTracks="true" frameBlend="FALSE" id="masterclip-88">
            <uuid>63f2e12b-1a46-41db-979d-aa6ee0e94b80</uuid>
            <masterclipid>masterclip-88</masterclipid>
            <ismasterclip>TRUE</ismasterclip>
            <duration>141</duration>
            <in>0</in>
            <out>141</out>
            <name>James.086.png</name>
            <rate>
              <timebase>24</timebase>
              <ntsc>FALSE</ntsc>
            </rate>
            <media>
              <video>
                <track>
                  <clipitem frameBlend="FALSE" id="clipitem-89">
                    <name>James.086.png</name>
                    <masterclipid>masterclip-88</masterclipid>
                    <rate>
                      <timebase>24</timebase>
                      <ntsc>FALSE</ntsc>
                    </rate>
                    <alphatype>straight</alphatype>
                    <pixelaspectratio>square</pixelaspectratio>
                    <anamorphic>FALSE</anamorphic>
                    <file id="file-88">
                      <name>James.086.png</name>
                      <pathurl>file://localhost/Users/antoniochiappetta/OneDrive - Aalto University/University/Aalto/Hackatons/Junction/Junction2019-IoK-security_awareness_kids/Assets/Team Animations/Image Sequences/James/James.086.png</pathurl>
                      <rate>
                        <timebase>24</timebase>
                        <ntsc>FALSE</ntsc>
                      </rate>
                      <duration>141</duration>
                      <timecode>
                        <rate>
                          <timebase>24</timebase>
                          <ntsc>FALSE</ntsc>
                        </rate>
                      </timecode>
                      <media>
                        <video>
                          <duration>1</duration>
                          <samplecharacteristics>
                            <anamorphic>FALSE</anamorphic>
                            <pixelaspectratio>square</pixelaspectratio>
                            <fielddominance>none</fielddominance>
                            <width>686</width>
                            <height>511</height>
                          </samplecharacteristics>
                        </video>
                      </media>
                    </file>
                  </clipitem>
                </track>
              </video>
            </media>
          </clip>
          <clip explodedTracks="true" frameBlend="FALSE" id="masterclip-89">
            <uuid>662c237c-7d37-4cfd-9f6d-016b57c7b3ae</uuid>
            <masterclipid>masterclip-89</masterclipid>
            <ismasterclip>TRUE</ismasterclip>
            <duration>141</duration>
            <in>0</in>
            <out>141</out>
            <name>James.087.png</name>
            <rate>
              <timebase>24</timebase>
              <ntsc>FALSE</ntsc>
            </rate>
            <media>
              <video>
                <track>
                  <clipitem frameBlend="FALSE" id="clipitem-90">
                    <name>James.087.png</name>
                    <masterclipid>masterclip-89</masterclipid>
                    <rate>
                      <timebase>24</timebase>
                      <ntsc>FALSE</ntsc>
                    </rate>
                    <alphatype>straight</alphatype>
                    <pixelaspectratio>square</pixelaspectratio>
                    <anamorphic>FALSE</anamorphic>
                    <file id="file-89">
                      <name>James.087.png</name>
                      <pathurl>file://localhost/Users/antoniochiappetta/OneDrive - Aalto University/University/Aalto/Hackatons/Junction/Junction2019-IoK-security_awareness_kids/Assets/Team Animations/Image Sequences/James/James.087.png</pathurl>
                      <rate>
                        <timebase>24</timebase>
                        <ntsc>FALSE</ntsc>
                      </rate>
                      <duration>141</duration>
                      <timecode>
                        <rate>
                          <timebase>24</timebase>
                          <ntsc>FALSE</ntsc>
                        </rate>
                      </timecode>
                      <media>
                        <video>
                          <duration>1</duration>
                          <samplecharacteristics>
                            <anamorphic>FALSE</anamorphic>
                            <pixelaspectratio>square</pixelaspectratio>
                            <fielddominance>none</fielddominance>
                            <width>686</width>
                            <height>511</height>
                          </samplecharacteristics>
                        </video>
                      </media>
                    </file>
                  </clipitem>
                </track>
              </video>
            </media>
          </clip>
          <clip explodedTracks="true" frameBlend="FALSE" id="masterclip-90">
            <uuid>d6a7fd4c-d313-44a4-b4f7-a15a7d9aaf81</uuid>
            <masterclipid>masterclip-90</masterclipid>
            <ismasterclip>TRUE</ismasterclip>
            <duration>141</duration>
            <in>0</in>
            <out>141</out>
            <name>James.088.png</name>
            <rate>
              <timebase>24</timebase>
              <ntsc>FALSE</ntsc>
            </rate>
            <media>
              <video>
                <track>
                  <clipitem frameBlend="FALSE" id="clipitem-91">
                    <name>James.088.png</name>
                    <masterclipid>masterclip-90</masterclipid>
                    <rate>
                      <timebase>24</timebase>
                      <ntsc>FALSE</ntsc>
                    </rate>
                    <alphatype>straight</alphatype>
                    <pixelaspectratio>square</pixelaspectratio>
                    <anamorphic>FALSE</anamorphic>
                    <file id="file-90">
                      <name>James.088.png</name>
                      <pathurl>file://localhost/Users/antoniochiappetta/OneDrive - Aalto University/University/Aalto/Hackatons/Junction/Junction2019-IoK-security_awareness_kids/Assets/Team Animations/Image Sequences/James/James.088.png</pathurl>
                      <rate>
                        <timebase>24</timebase>
                        <ntsc>FALSE</ntsc>
                      </rate>
                      <duration>141</duration>
                      <timecode>
                        <rate>
                          <timebase>24</timebase>
                          <ntsc>FALSE</ntsc>
                        </rate>
                      </timecode>
                      <media>
                        <video>
                          <duration>1</duration>
                          <samplecharacteristics>
                            <anamorphic>FALSE</anamorphic>
                            <pixelaspectratio>square</pixelaspectratio>
                            <fielddominance>none</fielddominance>
                            <width>686</width>
                            <height>511</height>
                          </samplecharacteristics>
                        </video>
                      </media>
                    </file>
                  </clipitem>
                </track>
              </video>
            </media>
          </clip>
          <clip explodedTracks="true" frameBlend="FALSE" id="masterclip-91">
            <uuid>6746681e-ef25-4ad3-9163-da442c897219</uuid>
            <masterclipid>masterclip-91</masterclipid>
            <ismasterclip>TRUE</ismasterclip>
            <duration>141</duration>
            <in>0</in>
            <out>141</out>
            <name>James.089.png</name>
            <rate>
              <timebase>24</timebase>
              <ntsc>FALSE</ntsc>
            </rate>
            <media>
              <video>
                <track>
                  <clipitem frameBlend="FALSE" id="clipitem-92">
                    <name>James.089.png</name>
                    <masterclipid>masterclip-91</masterclipid>
                    <rate>
                      <timebase>24</timebase>
                      <ntsc>FALSE</ntsc>
                    </rate>
                    <alphatype>straight</alphatype>
                    <pixelaspectratio>square</pixelaspectratio>
                    <anamorphic>FALSE</anamorphic>
                    <file id="file-91">
                      <name>James.089.png</name>
                      <pathurl>file://localhost/Users/antoniochiappetta/OneDrive - Aalto University/University/Aalto/Hackatons/Junction/Junction2019-IoK-security_awareness_kids/Assets/Team Animations/Image Sequences/James/James.089.png</pathurl>
                      <rate>
                        <timebase>24</timebase>
                        <ntsc>FALSE</ntsc>
                      </rate>
                      <duration>141</duration>
                      <timecode>
                        <rate>
                          <timebase>24</timebase>
                          <ntsc>FALSE</ntsc>
                        </rate>
                      </timecode>
                      <media>
                        <video>
                          <duration>1</duration>
                          <samplecharacteristics>
                            <anamorphic>FALSE</anamorphic>
                            <pixelaspectratio>square</pixelaspectratio>
                            <fielddominance>none</fielddominance>
                            <width>686</width>
                            <height>511</height>
                          </samplecharacteristics>
                        </video>
                      </media>
                    </file>
                  </clipitem>
                </track>
              </video>
            </media>
          </clip>
          <clip explodedTracks="true" frameBlend="FALSE" id="masterclip-92">
            <uuid>70e0f78b-3351-4673-a60f-7cba3fd0931a</uuid>
            <masterclipid>masterclip-92</masterclipid>
            <ismasterclip>TRUE</ismasterclip>
            <duration>141</duration>
            <in>0</in>
            <out>141</out>
            <name>James.090.png</name>
            <rate>
              <timebase>24</timebase>
              <ntsc>FALSE</ntsc>
            </rate>
            <media>
              <video>
                <track>
                  <clipitem frameBlend="FALSE" id="clipitem-93">
                    <name>James.090.png</name>
                    <masterclipid>masterclip-92</masterclipid>
                    <rate>
                      <timebase>24</timebase>
                      <ntsc>FALSE</ntsc>
                    </rate>
                    <alphatype>straight</alphatype>
                    <pixelaspectratio>square</pixelaspectratio>
                    <anamorphic>FALSE</anamorphic>
                    <file id="file-92">
                      <name>James.090.png</name>
                      <pathurl>file://localhost/Users/antoniochiappetta/OneDrive - Aalto University/University/Aalto/Hackatons/Junction/Junction2019-IoK-security_awareness_kids/Assets/Team Animations/Image Sequences/James/James.090.png</pathurl>
                      <rate>
                        <timebase>24</timebase>
                        <ntsc>FALSE</ntsc>
                      </rate>
                      <duration>141</duration>
                      <timecode>
                        <rate>
                          <timebase>24</timebase>
                          <ntsc>FALSE</ntsc>
                        </rate>
                      </timecode>
                      <media>
                        <video>
                          <duration>1</duration>
                          <samplecharacteristics>
                            <anamorphic>FALSE</anamorphic>
                            <pixelaspectratio>square</pixelaspectratio>
                            <fielddominance>none</fielddominance>
                            <width>686</width>
                            <height>511</height>
                          </samplecharacteristics>
                        </video>
                      </media>
                    </file>
                  </clipitem>
                </track>
              </video>
            </media>
          </clip>
          <clip explodedTracks="true" frameBlend="FALSE" id="masterclip-93">
            <uuid>fcaae03d-e834-4bdc-adb1-4775662f2b71</uuid>
            <masterclipid>masterclip-93</masterclipid>
            <ismasterclip>TRUE</ismasterclip>
            <duration>141</duration>
            <in>0</in>
            <out>141</out>
            <name>James.091.png</name>
            <rate>
              <timebase>24</timebase>
              <ntsc>FALSE</ntsc>
            </rate>
            <media>
              <video>
                <track>
                  <clipitem frameBlend="FALSE" id="clipitem-94">
                    <name>James.091.png</name>
                    <masterclipid>masterclip-93</masterclipid>
                    <rate>
                      <timebase>24</timebase>
                      <ntsc>FALSE</ntsc>
                    </rate>
                    <alphatype>straight</alphatype>
                    <pixelaspectratio>square</pixelaspectratio>
                    <anamorphic>FALSE</anamorphic>
                    <file id="file-93">
                      <name>James.091.png</name>
                      <pathurl>file://localhost/Users/antoniochiappetta/OneDrive - Aalto University/University/Aalto/Hackatons/Junction/Junction2019-IoK-security_awareness_kids/Assets/Team Animations/Image Sequences/James/James.091.png</pathurl>
                      <rate>
                        <timebase>24</timebase>
                        <ntsc>FALSE</ntsc>
                      </rate>
                      <duration>141</duration>
                      <timecode>
                        <rate>
                          <timebase>24</timebase>
                          <ntsc>FALSE</ntsc>
                        </rate>
                      </timecode>
                      <media>
                        <video>
                          <duration>1</duration>
                          <samplecharacteristics>
                            <anamorphic>FALSE</anamorphic>
                            <pixelaspectratio>square</pixelaspectratio>
                            <fielddominance>none</fielddominance>
                            <width>686</width>
                            <height>511</height>
                          </samplecharacteristics>
                        </video>
                      </media>
                    </file>
                  </clipitem>
                </track>
              </video>
            </media>
          </clip>
          <clip explodedTracks="true" frameBlend="FALSE" id="masterclip-94">
            <uuid>227a15b2-6a40-4e14-9c94-be0482894e22</uuid>
            <masterclipid>masterclip-94</masterclipid>
            <ismasterclip>TRUE</ismasterclip>
            <duration>141</duration>
            <in>0</in>
            <out>141</out>
            <name>James.092.png</name>
            <rate>
              <timebase>24</timebase>
              <ntsc>FALSE</ntsc>
            </rate>
            <media>
              <video>
                <track>
                  <clipitem frameBlend="FALSE" id="clipitem-95">
                    <name>James.092.png</name>
                    <masterclipid>masterclip-94</masterclipid>
                    <rate>
                      <timebase>24</timebase>
                      <ntsc>FALSE</ntsc>
                    </rate>
                    <alphatype>straight</alphatype>
                    <pixelaspectratio>square</pixelaspectratio>
                    <anamorphic>FALSE</anamorphic>
                    <file id="file-94">
                      <name>James.092.png</name>
                      <pathurl>file://localhost/Users/antoniochiappetta/OneDrive - Aalto University/University/Aalto/Hackatons/Junction/Junction2019-IoK-security_awareness_kids/Assets/Team Animations/Image Sequences/James/James.092.png</pathurl>
                      <rate>
                        <timebase>24</timebase>
                        <ntsc>FALSE</ntsc>
                      </rate>
                      <duration>141</duration>
                      <timecode>
                        <rate>
                          <timebase>24</timebase>
                          <ntsc>FALSE</ntsc>
                        </rate>
                      </timecode>
                      <media>
                        <video>
                          <duration>1</duration>
                          <samplecharacteristics>
                            <anamorphic>FALSE</anamorphic>
                            <pixelaspectratio>square</pixelaspectratio>
                            <fielddominance>none</fielddominance>
                            <width>686</width>
                            <height>511</height>
                          </samplecharacteristics>
                        </video>
                      </media>
                    </file>
                  </clipitem>
                </track>
              </video>
            </media>
          </clip>
          <clip explodedTracks="true" frameBlend="FALSE" id="masterclip-95">
            <uuid>79c98c76-0de9-41a2-88b6-9ebd2cb78394</uuid>
            <masterclipid>masterclip-95</masterclipid>
            <ismasterclip>TRUE</ismasterclip>
            <duration>141</duration>
            <in>0</in>
            <out>141</out>
            <name>James.093.png</name>
            <rate>
              <timebase>24</timebase>
              <ntsc>FALSE</ntsc>
            </rate>
            <media>
              <video>
                <track>
                  <clipitem frameBlend="FALSE" id="clipitem-96">
                    <name>James.093.png</name>
                    <masterclipid>masterclip-95</masterclipid>
                    <rate>
                      <timebase>24</timebase>
                      <ntsc>FALSE</ntsc>
                    </rate>
                    <alphatype>straight</alphatype>
                    <pixelaspectratio>square</pixelaspectratio>
                    <anamorphic>FALSE</anamorphic>
                    <file id="file-95">
                      <name>James.093.png</name>
                      <pathurl>file://localhost/Users/antoniochiappetta/OneDrive - Aalto University/University/Aalto/Hackatons/Junction/Junction2019-IoK-security_awareness_kids/Assets/Team Animations/Image Sequences/James/James.093.png</pathurl>
                      <rate>
                        <timebase>24</timebase>
                        <ntsc>FALSE</ntsc>
                      </rate>
                      <duration>141</duration>
                      <timecode>
                        <rate>
                          <timebase>24</timebase>
                          <ntsc>FALSE</ntsc>
                        </rate>
                      </timecode>
                      <media>
                        <video>
                          <duration>1</duration>
                          <samplecharacteristics>
                            <anamorphic>FALSE</anamorphic>
                            <pixelaspectratio>square</pixelaspectratio>
                            <fielddominance>none</fielddominance>
                            <width>686</width>
                            <height>511</height>
                          </samplecharacteristics>
                        </video>
                      </media>
                    </file>
                  </clipitem>
                </track>
              </video>
            </media>
          </clip>
          <clip explodedTracks="true" frameBlend="FALSE" id="masterclip-96">
            <uuid>9fa30cd3-c739-4378-8f21-fcfe325b1dee</uuid>
            <masterclipid>masterclip-96</masterclipid>
            <ismasterclip>TRUE</ismasterclip>
            <duration>141</duration>
            <in>0</in>
            <out>141</out>
            <name>James.094.png</name>
            <rate>
              <timebase>24</timebase>
              <ntsc>FALSE</ntsc>
            </rate>
            <media>
              <video>
                <track>
                  <clipitem frameBlend="FALSE" id="clipitem-97">
                    <name>James.094.png</name>
                    <masterclipid>masterclip-96</masterclipid>
                    <rate>
                      <timebase>24</timebase>
                      <ntsc>FALSE</ntsc>
                    </rate>
                    <alphatype>straight</alphatype>
                    <pixelaspectratio>square</pixelaspectratio>
                    <anamorphic>FALSE</anamorphic>
                    <file id="file-96">
                      <name>James.094.png</name>
                      <pathurl>file://localhost/Users/antoniochiappetta/OneDrive - Aalto University/University/Aalto/Hackatons/Junction/Junction2019-IoK-security_awareness_kids/Assets/Team Animations/Image Sequences/James/James.094.png</pathurl>
                      <rate>
                        <timebase>24</timebase>
                        <ntsc>FALSE</ntsc>
                      </rate>
                      <duration>141</duration>
                      <timecode>
                        <rate>
                          <timebase>24</timebase>
                          <ntsc>FALSE</ntsc>
                        </rate>
                      </timecode>
                      <media>
                        <video>
                          <duration>1</duration>
                          <samplecharacteristics>
                            <anamorphic>FALSE</anamorphic>
                            <pixelaspectratio>square</pixelaspectratio>
                            <fielddominance>none</fielddominance>
                            <width>686</width>
                            <height>511</height>
                          </samplecharacteristics>
                        </video>
                      </media>
                    </file>
                  </clipitem>
                </track>
              </video>
            </media>
          </clip>
          <clip explodedTracks="true" frameBlend="FALSE" id="masterclip-97">
            <uuid>a37f1c88-7cb3-457f-a58d-507cc91b42df</uuid>
            <masterclipid>masterclip-97</masterclipid>
            <ismasterclip>TRUE</ismasterclip>
            <duration>141</duration>
            <in>0</in>
            <out>141</out>
            <name>James.095.png</name>
            <rate>
              <timebase>24</timebase>
              <ntsc>FALSE</ntsc>
            </rate>
            <media>
              <video>
                <track>
                  <clipitem frameBlend="FALSE" id="clipitem-98">
                    <name>James.095.png</name>
                    <masterclipid>masterclip-97</masterclipid>
                    <rate>
                      <timebase>24</timebase>
                      <ntsc>FALSE</ntsc>
                    </rate>
                    <alphatype>straight</alphatype>
                    <pixelaspectratio>square</pixelaspectratio>
                    <anamorphic>FALSE</anamorphic>
                    <file id="file-97">
                      <name>James.095.png</name>
                      <pathurl>file://localhost/Users/antoniochiappetta/OneDrive - Aalto University/University/Aalto/Hackatons/Junction/Junction2019-IoK-security_awareness_kids/Assets/Team Animations/Image Sequences/James/James.095.png</pathurl>
                      <rate>
                        <timebase>24</timebase>
                        <ntsc>FALSE</ntsc>
                      </rate>
                      <duration>141</duration>
                      <timecode>
                        <rate>
                          <timebase>24</timebase>
                          <ntsc>FALSE</ntsc>
                        </rate>
                      </timecode>
                      <media>
                        <video>
                          <duration>1</duration>
                          <samplecharacteristics>
                            <anamorphic>FALSE</anamorphic>
                            <pixelaspectratio>square</pixelaspectratio>
                            <fielddominance>none</fielddominance>
                            <width>686</width>
                            <height>511</height>
                          </samplecharacteristics>
                        </video>
                      </media>
                    </file>
                  </clipitem>
                </track>
              </video>
            </media>
          </clip>
          <clip explodedTracks="true" frameBlend="FALSE" id="masterclip-98">
            <uuid>c56ce22e-4deb-45d4-8e0c-0fa0ea516321</uuid>
            <masterclipid>masterclip-98</masterclipid>
            <ismasterclip>TRUE</ismasterclip>
            <duration>141</duration>
            <in>0</in>
            <out>141</out>
            <name>James.096.png</name>
            <rate>
              <timebase>24</timebase>
              <ntsc>FALSE</ntsc>
            </rate>
            <media>
              <video>
                <track>
                  <clipitem frameBlend="FALSE" id="clipitem-99">
                    <name>James.096.png</name>
                    <masterclipid>masterclip-98</masterclipid>
                    <rate>
                      <timebase>24</timebase>
                      <ntsc>FALSE</ntsc>
                    </rate>
                    <alphatype>straight</alphatype>
                    <pixelaspectratio>square</pixelaspectratio>
                    <anamorphic>FALSE</anamorphic>
                    <file id="file-98">
                      <name>James.096.png</name>
                      <pathurl>file://localhost/Users/antoniochiappetta/OneDrive - Aalto University/University/Aalto/Hackatons/Junction/Junction2019-IoK-security_awareness_kids/Assets/Team Animations/Image Sequences/James/James.096.png</pathurl>
                      <rate>
                        <timebase>24</timebase>
                        <ntsc>FALSE</ntsc>
                      </rate>
                      <duration>141</duration>
                      <timecode>
                        <rate>
                          <timebase>24</timebase>
                          <ntsc>FALSE</ntsc>
                        </rate>
                      </timecode>
                      <media>
                        <video>
                          <duration>1</duration>
                          <samplecharacteristics>
                            <anamorphic>FALSE</anamorphic>
                            <pixelaspectratio>square</pixelaspectratio>
                            <fielddominance>none</fielddominance>
                            <width>686</width>
                            <height>511</height>
                          </samplecharacteristics>
                        </video>
                      </media>
                    </file>
                  </clipitem>
                </track>
              </video>
            </media>
          </clip>
          <clip explodedTracks="true" frameBlend="FALSE" id="masterclip-99">
            <uuid>b06dca6e-888e-45b9-a9e4-f38c03756bdf</uuid>
            <masterclipid>masterclip-99</masterclipid>
            <ismasterclip>TRUE</ismasterclip>
            <duration>141</duration>
            <in>0</in>
            <out>141</out>
            <name>James.097.png</name>
            <rate>
              <timebase>24</timebase>
              <ntsc>FALSE</ntsc>
            </rate>
            <media>
              <video>
                <track>
                  <clipitem frameBlend="FALSE" id="clipitem-100">
                    <name>James.097.png</name>
                    <masterclipid>masterclip-99</masterclipid>
                    <rate>
                      <timebase>24</timebase>
                      <ntsc>FALSE</ntsc>
                    </rate>
                    <alphatype>straight</alphatype>
                    <pixelaspectratio>square</pixelaspectratio>
                    <anamorphic>FALSE</anamorphic>
                    <file id="file-99">
                      <name>James.097.png</name>
                      <pathurl>file://localhost/Users/antoniochiappetta/OneDrive - Aalto University/University/Aalto/Hackatons/Junction/Junction2019-IoK-security_awareness_kids/Assets/Team Animations/Image Sequences/James/James.097.png</pathurl>
                      <rate>
                        <timebase>24</timebase>
                        <ntsc>FALSE</ntsc>
                      </rate>
                      <duration>141</duration>
                      <timecode>
                        <rate>
                          <timebase>24</timebase>
                          <ntsc>FALSE</ntsc>
                        </rate>
                      </timecode>
                      <media>
                        <video>
                          <duration>1</duration>
                          <samplecharacteristics>
                            <anamorphic>FALSE</anamorphic>
                            <pixelaspectratio>square</pixelaspectratio>
                            <fielddominance>none</fielddominance>
                            <width>686</width>
                            <height>511</height>
                          </samplecharacteristics>
                        </video>
                      </media>
                    </file>
                  </clipitem>
                </track>
              </video>
            </media>
          </clip>
          <clip explodedTracks="true" frameBlend="FALSE" id="masterclip-100">
            <uuid>3a9005f6-d9ed-46cf-90c0-4ac75200f535</uuid>
            <masterclipid>masterclip-100</masterclipid>
            <ismasterclip>TRUE</ismasterclip>
            <duration>141</duration>
            <in>0</in>
            <out>141</out>
            <name>James.098.png</name>
            <rate>
              <timebase>24</timebase>
              <ntsc>FALSE</ntsc>
            </rate>
            <media>
              <video>
                <track>
                  <clipitem frameBlend="FALSE" id="clipitem-101">
                    <name>James.098.png</name>
                    <masterclipid>masterclip-100</masterclipid>
                    <rate>
                      <timebase>24</timebase>
                      <ntsc>FALSE</ntsc>
                    </rate>
                    <alphatype>straight</alphatype>
                    <pixelaspectratio>square</pixelaspectratio>
                    <anamorphic>FALSE</anamorphic>
                    <file id="file-100">
                      <name>James.098.png</name>
                      <pathurl>file://localhost/Users/antoniochiappetta/OneDrive - Aalto University/University/Aalto/Hackatons/Junction/Junction2019-IoK-security_awareness_kids/Assets/Team Animations/Image Sequences/James/James.098.png</pathurl>
                      <rate>
                        <timebase>24</timebase>
                        <ntsc>FALSE</ntsc>
                      </rate>
                      <duration>141</duration>
                      <timecode>
                        <rate>
                          <timebase>24</timebase>
                          <ntsc>FALSE</ntsc>
                        </rate>
                      </timecode>
                      <media>
                        <video>
                          <duration>1</duration>
                          <samplecharacteristics>
                            <anamorphic>FALSE</anamorphic>
                            <pixelaspectratio>square</pixelaspectratio>
                            <fielddominance>none</fielddominance>
                            <width>686</width>
                            <height>511</height>
                          </samplecharacteristics>
                        </video>
                      </media>
                    </file>
                  </clipitem>
                </track>
              </video>
            </media>
          </clip>
          <clip explodedTracks="true" frameBlend="FALSE" id="masterclip-101">
            <uuid>8c1a57e4-92f0-4590-acc6-de98c089569a</uuid>
            <masterclipid>masterclip-101</masterclipid>
            <ismasterclip>TRUE</ismasterclip>
            <duration>141</duration>
            <in>0</in>
            <out>141</out>
            <name>James.099.png</name>
            <rate>
              <timebase>24</timebase>
              <ntsc>FALSE</ntsc>
            </rate>
            <media>
              <video>
                <track>
                  <clipitem frameBlend="FALSE" id="clipitem-102">
                    <name>James.099.png</name>
                    <masterclipid>masterclip-101</masterclipid>
                    <rate>
                      <timebase>24</timebase>
                      <ntsc>FALSE</ntsc>
                    </rate>
                    <alphatype>straight</alphatype>
                    <pixelaspectratio>square</pixelaspectratio>
                    <anamorphic>FALSE</anamorphic>
                    <file id="file-101">
                      <name>James.099.png</name>
                      <pathurl>file://localhost/Users/antoniochiappetta/OneDrive - Aalto University/University/Aalto/Hackatons/Junction/Junction2019-IoK-security_awareness_kids/Assets/Team Animations/Image Sequences/James/James.099.png</pathurl>
                      <rate>
                        <timebase>24</timebase>
                        <ntsc>FALSE</ntsc>
                      </rate>
                      <duration>141</duration>
                      <timecode>
                        <rate>
                          <timebase>24</timebase>
                          <ntsc>FALSE</ntsc>
                        </rate>
                      </timecode>
                      <media>
                        <video>
                          <duration>1</duration>
                          <samplecharacteristics>
                            <anamorphic>FALSE</anamorphic>
                            <pixelaspectratio>square</pixelaspectratio>
                            <fielddominance>none</fielddominance>
                            <width>686</width>
                            <height>511</height>
                          </samplecharacteristics>
                        </video>
                      </media>
                    </file>
                  </clipitem>
                </track>
              </video>
            </media>
          </clip>
          <clip explodedTracks="true" frameBlend="FALSE" id="masterclip-102">
            <uuid>95f49f59-a4c6-4762-b0ea-780129cbda99</uuid>
            <masterclipid>masterclip-102</masterclipid>
            <ismasterclip>TRUE</ismasterclip>
            <duration>141</duration>
            <in>0</in>
            <out>141</out>
            <name>James.100.png</name>
            <rate>
              <timebase>24</timebase>
              <ntsc>FALSE</ntsc>
            </rate>
            <media>
              <video>
                <track>
                  <clipitem frameBlend="FALSE" id="clipitem-103">
                    <name>James.100.png</name>
                    <masterclipid>masterclip-102</masterclipid>
                    <rate>
                      <timebase>24</timebase>
                      <ntsc>FALSE</ntsc>
                    </rate>
                    <alphatype>straight</alphatype>
                    <pixelaspectratio>square</pixelaspectratio>
                    <anamorphic>FALSE</anamorphic>
                    <file id="file-102">
                      <name>James.100.png</name>
                      <pathurl>file://localhost/Users/antoniochiappetta/OneDrive - Aalto University/University/Aalto/Hackatons/Junction/Junction2019-IoK-security_awareness_kids/Assets/Team Animations/Image Sequences/James/James.100.png</pathurl>
                      <rate>
                        <timebase>24</timebase>
                        <ntsc>FALSE</ntsc>
                      </rate>
                      <duration>141</duration>
                      <timecode>
                        <rate>
                          <timebase>24</timebase>
                          <ntsc>FALSE</ntsc>
                        </rate>
                      </timecode>
                      <media>
                        <video>
                          <duration>1</duration>
                          <samplecharacteristics>
                            <anamorphic>FALSE</anamorphic>
                            <pixelaspectratio>square</pixelaspectratio>
                            <fielddominance>none</fielddominance>
                            <width>686</width>
                            <height>511</height>
                          </samplecharacteristics>
                        </video>
                      </media>
                    </file>
                  </clipitem>
                </track>
              </video>
            </media>
          </clip>
          <clip explodedTracks="true" frameBlend="FALSE" id="masterclip-103">
            <uuid>c132e4b2-f8bb-4ccb-849a-5acb9264e434</uuid>
            <masterclipid>masterclip-103</masterclipid>
            <ismasterclip>TRUE</ismasterclip>
            <duration>141</duration>
            <in>0</in>
            <out>141</out>
            <name>James.101.png</name>
            <rate>
              <timebase>24</timebase>
              <ntsc>FALSE</ntsc>
            </rate>
            <media>
              <video>
                <track>
                  <clipitem frameBlend="FALSE" id="clipitem-104">
                    <name>James.101.png</name>
                    <masterclipid>masterclip-103</masterclipid>
                    <rate>
                      <timebase>24</timebase>
                      <ntsc>FALSE</ntsc>
                    </rate>
                    <alphatype>straight</alphatype>
                    <pixelaspectratio>square</pixelaspectratio>
                    <anamorphic>FALSE</anamorphic>
                    <file id="file-103">
                      <name>James.101.png</name>
                      <pathurl>file://localhost/Users/antoniochiappetta/OneDrive - Aalto University/University/Aalto/Hackatons/Junction/Junction2019-IoK-security_awareness_kids/Assets/Team Animations/Image Sequences/James/James.101.png</pathurl>
                      <rate>
                        <timebase>24</timebase>
                        <ntsc>FALSE</ntsc>
                      </rate>
                      <duration>141</duration>
                      <timecode>
                        <rate>
                          <timebase>24</timebase>
                          <ntsc>FALSE</ntsc>
                        </rate>
                      </timecode>
                      <media>
                        <video>
                          <duration>1</duration>
                          <samplecharacteristics>
                            <anamorphic>FALSE</anamorphic>
                            <pixelaspectratio>square</pixelaspectratio>
                            <fielddominance>none</fielddominance>
                            <width>686</width>
                            <height>511</height>
                          </samplecharacteristics>
                        </video>
                      </media>
                    </file>
                  </clipitem>
                </track>
              </video>
            </media>
          </clip>
          <clip explodedTracks="true" frameBlend="FALSE" id="masterclip-104">
            <uuid>6214ea6e-34ac-4cd6-ac48-320c298564fd</uuid>
            <masterclipid>masterclip-104</masterclipid>
            <ismasterclip>TRUE</ismasterclip>
            <duration>141</duration>
            <in>0</in>
            <out>141</out>
            <name>James.102.png</name>
            <rate>
              <timebase>24</timebase>
              <ntsc>FALSE</ntsc>
            </rate>
            <media>
              <video>
                <track>
                  <clipitem frameBlend="FALSE" id="clipitem-105">
                    <name>James.102.png</name>
                    <masterclipid>masterclip-104</masterclipid>
                    <rate>
                      <timebase>24</timebase>
                      <ntsc>FALSE</ntsc>
                    </rate>
                    <alphatype>straight</alphatype>
                    <pixelaspectratio>square</pixelaspectratio>
                    <anamorphic>FALSE</anamorphic>
                    <file id="file-104">
                      <name>James.102.png</name>
                      <pathurl>file://localhost/Users/antoniochiappetta/OneDrive - Aalto University/University/Aalto/Hackatons/Junction/Junction2019-IoK-security_awareness_kids/Assets/Team Animations/Image Sequences/James/James.102.png</pathurl>
                      <rate>
                        <timebase>24</timebase>
                        <ntsc>FALSE</ntsc>
                      </rate>
                      <duration>141</duration>
                      <timecode>
                        <rate>
                          <timebase>24</timebase>
                          <ntsc>FALSE</ntsc>
                        </rate>
                      </timecode>
                      <media>
                        <video>
                          <duration>1</duration>
                          <samplecharacteristics>
                            <anamorphic>FALSE</anamorphic>
                            <pixelaspectratio>square</pixelaspectratio>
                            <fielddominance>none</fielddominance>
                            <width>686</width>
                            <height>511</height>
                          </samplecharacteristics>
                        </video>
                      </media>
                    </file>
                  </clipitem>
                </track>
              </video>
            </media>
          </clip>
          <clip explodedTracks="true" frameBlend="FALSE" id="masterclip-105">
            <uuid>2d3004ee-a83b-4a40-bfb6-c1a697e08620</uuid>
            <masterclipid>masterclip-105</masterclipid>
            <ismasterclip>TRUE</ismasterclip>
            <duration>141</duration>
            <in>0</in>
            <out>141</out>
            <name>James.103.png</name>
            <rate>
              <timebase>24</timebase>
              <ntsc>FALSE</ntsc>
            </rate>
            <media>
              <video>
                <track>
                  <clipitem frameBlend="FALSE" id="clipitem-106">
                    <name>James.103.png</name>
                    <masterclipid>masterclip-105</masterclipid>
                    <rate>
                      <timebase>24</timebase>
                      <ntsc>FALSE</ntsc>
                    </rate>
                    <alphatype>straight</alphatype>
                    <pixelaspectratio>square</pixelaspectratio>
                    <anamorphic>FALSE</anamorphic>
                    <file id="file-105">
                      <name>James.103.png</name>
                      <pathurl>file://localhost/Users/antoniochiappetta/OneDrive - Aalto University/University/Aalto/Hackatons/Junction/Junction2019-IoK-security_awareness_kids/Assets/Team Animations/Image Sequences/James/James.103.png</pathurl>
                      <rate>
                        <timebase>24</timebase>
                        <ntsc>FALSE</ntsc>
                      </rate>
                      <duration>141</duration>
                      <timecode>
                        <rate>
                          <timebase>24</timebase>
                          <ntsc>FALSE</ntsc>
                        </rate>
                      </timecode>
                      <media>
                        <video>
                          <duration>1</duration>
                          <samplecharacteristics>
                            <anamorphic>FALSE</anamorphic>
                            <pixelaspectratio>square</pixelaspectratio>
                            <fielddominance>none</fielddominance>
                            <width>686</width>
                            <height>511</height>
                          </samplecharacteristics>
                        </video>
                      </media>
                    </file>
                  </clipitem>
                </track>
              </video>
            </media>
          </clip>
          <clip explodedTracks="true" frameBlend="FALSE" id="masterclip-106">
            <uuid>236b17b1-a9a5-402f-97c4-d132eb8be549</uuid>
            <masterclipid>masterclip-106</masterclipid>
            <ismasterclip>TRUE</ismasterclip>
            <duration>141</duration>
            <in>0</in>
            <out>141</out>
            <name>James.104.png</name>
            <rate>
              <timebase>24</timebase>
              <ntsc>FALSE</ntsc>
            </rate>
            <media>
              <video>
                <track>
                  <clipitem frameBlend="FALSE" id="clipitem-107">
                    <name>James.104.png</name>
                    <masterclipid>masterclip-106</masterclipid>
                    <rate>
                      <timebase>24</timebase>
                      <ntsc>FALSE</ntsc>
                    </rate>
                    <alphatype>straight</alphatype>
                    <pixelaspectratio>square</pixelaspectratio>
                    <anamorphic>FALSE</anamorphic>
                    <file id="file-106">
                      <name>James.104.png</name>
                      <pathurl>file://localhost/Users/antoniochiappetta/OneDrive - Aalto University/University/Aalto/Hackatons/Junction/Junction2019-IoK-security_awareness_kids/Assets/Team Animations/Image Sequences/James/James.104.png</pathurl>
                      <rate>
                        <timebase>24</timebase>
                        <ntsc>FALSE</ntsc>
                      </rate>
                      <duration>141</duration>
                      <timecode>
                        <rate>
                          <timebase>24</timebase>
                          <ntsc>FALSE</ntsc>
                        </rate>
                      </timecode>
                      <media>
                        <video>
                          <duration>1</duration>
                          <samplecharacteristics>
                            <anamorphic>FALSE</anamorphic>
                            <pixelaspectratio>square</pixelaspectratio>
                            <fielddominance>none</fielddominance>
                            <width>686</width>
                            <height>511</height>
                          </samplecharacteristics>
                        </video>
                      </media>
                    </file>
                  </clipitem>
                </track>
              </video>
            </media>
          </clip>
          <clip explodedTracks="true" frameBlend="FALSE" id="masterclip-107">
            <uuid>aaef16e9-53be-4b7c-8620-44a11256acb1</uuid>
            <masterclipid>masterclip-107</masterclipid>
            <ismasterclip>TRUE</ismasterclip>
            <duration>141</duration>
            <in>0</in>
            <out>141</out>
            <name>James.105.png</name>
            <rate>
              <timebase>24</timebase>
              <ntsc>FALSE</ntsc>
            </rate>
            <media>
              <video>
                <track>
                  <clipitem frameBlend="FALSE" id="clipitem-108">
                    <name>James.105.png</name>
                    <masterclipid>masterclip-107</masterclipid>
                    <rate>
                      <timebase>24</timebase>
                      <ntsc>FALSE</ntsc>
                    </rate>
                    <alphatype>straight</alphatype>
                    <pixelaspectratio>square</pixelaspectratio>
                    <anamorphic>FALSE</anamorphic>
                    <file id="file-107">
                      <name>James.105.png</name>
                      <pathurl>file://localhost/Users/antoniochiappetta/OneDrive - Aalto University/University/Aalto/Hackatons/Junction/Junction2019-IoK-security_awareness_kids/Assets/Team Animations/Image Sequences/James/James.105.png</pathurl>
                      <rate>
                        <timebase>24</timebase>
                        <ntsc>FALSE</ntsc>
                      </rate>
                      <duration>141</duration>
                      <timecode>
                        <rate>
                          <timebase>24</timebase>
                          <ntsc>FALSE</ntsc>
                        </rate>
                      </timecode>
                      <media>
                        <video>
                          <duration>1</duration>
                          <samplecharacteristics>
                            <anamorphic>FALSE</anamorphic>
                            <pixelaspectratio>square</pixelaspectratio>
                            <fielddominance>none</fielddominance>
                            <width>686</width>
                            <height>511</height>
                          </samplecharacteristics>
                        </video>
                      </media>
                    </file>
                  </clipitem>
                </track>
              </video>
            </media>
          </clip>
          <clip explodedTracks="true" frameBlend="FALSE" id="masterclip-108">
            <uuid>ad71b9f6-684b-4bd8-9e89-001de7513b90</uuid>
            <masterclipid>masterclip-108</masterclipid>
            <ismasterclip>TRUE</ismasterclip>
            <duration>141</duration>
            <in>0</in>
            <out>141</out>
            <name>James.106.png</name>
            <rate>
              <timebase>24</timebase>
              <ntsc>FALSE</ntsc>
            </rate>
            <media>
              <video>
                <track>
                  <clipitem frameBlend="FALSE" id="clipitem-109">
                    <name>James.106.png</name>
                    <masterclipid>masterclip-108</masterclipid>
                    <rate>
                      <timebase>24</timebase>
                      <ntsc>FALSE</ntsc>
                    </rate>
                    <alphatype>straight</alphatype>
                    <pixelaspectratio>square</pixelaspectratio>
                    <anamorphic>FALSE</anamorphic>
                    <file id="file-108">
                      <name>James.106.png</name>
                      <pathurl>file://localhost/Users/antoniochiappetta/OneDrive - Aalto University/University/Aalto/Hackatons/Junction/Junction2019-IoK-security_awareness_kids/Assets/Team Animations/Image Sequences/James/James.106.png</pathurl>
                      <rate>
                        <timebase>24</timebase>
                        <ntsc>FALSE</ntsc>
                      </rate>
                      <duration>141</duration>
                      <timecode>
                        <rate>
                          <timebase>24</timebase>
                          <ntsc>FALSE</ntsc>
                        </rate>
                      </timecode>
                      <media>
                        <video>
                          <duration>1</duration>
                          <samplecharacteristics>
                            <anamorphic>FALSE</anamorphic>
                            <pixelaspectratio>square</pixelaspectratio>
                            <fielddominance>none</fielddominance>
                            <width>686</width>
                            <height>511</height>
                          </samplecharacteristics>
                        </video>
                      </media>
                    </file>
                  </clipitem>
                </track>
              </video>
            </media>
          </clip>
          <clip explodedTracks="true" frameBlend="FALSE" id="masterclip-109">
            <uuid>1fa7205b-ca6f-4b77-8d7a-0982f5e98f56</uuid>
            <masterclipid>masterclip-109</masterclipid>
            <ismasterclip>TRUE</ismasterclip>
            <duration>141</duration>
            <in>0</in>
            <out>141</out>
            <name>James.107.png</name>
            <rate>
              <timebase>24</timebase>
              <ntsc>FALSE</ntsc>
            </rate>
            <media>
              <video>
                <track>
                  <clipitem frameBlend="FALSE" id="clipitem-110">
                    <name>James.107.png</name>
                    <masterclipid>masterclip-109</masterclipid>
                    <rate>
                      <timebase>24</timebase>
                      <ntsc>FALSE</ntsc>
                    </rate>
                    <alphatype>straight</alphatype>
                    <pixelaspectratio>square</pixelaspectratio>
                    <anamorphic>FALSE</anamorphic>
                    <file id="file-109">
                      <name>James.107.png</name>
                      <pathurl>file://localhost/Users/antoniochiappetta/OneDrive - Aalto University/University/Aalto/Hackatons/Junction/Junction2019-IoK-security_awareness_kids/Assets/Team Animations/Image Sequences/James/James.107.png</pathurl>
                      <rate>
                        <timebase>24</timebase>
                        <ntsc>FALSE</ntsc>
                      </rate>
                      <duration>141</duration>
                      <timecode>
                        <rate>
                          <timebase>24</timebase>
                          <ntsc>FALSE</ntsc>
                        </rate>
                      </timecode>
                      <media>
                        <video>
                          <duration>1</duration>
                          <samplecharacteristics>
                            <anamorphic>FALSE</anamorphic>
                            <pixelaspectratio>square</pixelaspectratio>
                            <fielddominance>none</fielddominance>
                            <width>686</width>
                            <height>511</height>
                          </samplecharacteristics>
                        </video>
                      </media>
                    </file>
                  </clipitem>
                </track>
              </video>
            </media>
          </clip>
          <clip explodedTracks="true" frameBlend="FALSE" id="masterclip-110">
            <uuid>1d51c983-6089-4025-b894-e4b0ef91fe27</uuid>
            <masterclipid>masterclip-110</masterclipid>
            <ismasterclip>TRUE</ismasterclip>
            <duration>141</duration>
            <in>0</in>
            <out>141</out>
            <name>James.108.png</name>
            <rate>
              <timebase>24</timebase>
              <ntsc>FALSE</ntsc>
            </rate>
            <media>
              <video>
                <track>
                  <clipitem frameBlend="FALSE" id="clipitem-111">
                    <name>James.108.png</name>
                    <masterclipid>masterclip-110</masterclipid>
                    <rate>
                      <timebase>24</timebase>
                      <ntsc>FALSE</ntsc>
                    </rate>
                    <alphatype>straight</alphatype>
                    <pixelaspectratio>square</pixelaspectratio>
                    <anamorphic>FALSE</anamorphic>
                    <file id="file-110">
                      <name>James.108.png</name>
                      <pathurl>file://localhost/Users/antoniochiappetta/OneDrive - Aalto University/University/Aalto/Hackatons/Junction/Junction2019-IoK-security_awareness_kids/Assets/Team Animations/Image Sequences/James/James.108.png</pathurl>
                      <rate>
                        <timebase>24</timebase>
                        <ntsc>FALSE</ntsc>
                      </rate>
                      <duration>141</duration>
                      <timecode>
                        <rate>
                          <timebase>24</timebase>
                          <ntsc>FALSE</ntsc>
                        </rate>
                      </timecode>
                      <media>
                        <video>
                          <duration>1</duration>
                          <samplecharacteristics>
                            <anamorphic>FALSE</anamorphic>
                            <pixelaspectratio>square</pixelaspectratio>
                            <fielddominance>none</fielddominance>
                            <width>686</width>
                            <height>511</height>
                          </samplecharacteristics>
                        </video>
                      </media>
                    </file>
                  </clipitem>
                </track>
              </video>
            </media>
          </clip>
          <clip explodedTracks="true" frameBlend="FALSE" id="masterclip-111">
            <uuid>6512ff73-7fa1-450d-ba73-ed6d0201ea04</uuid>
            <masterclipid>masterclip-111</masterclipid>
            <ismasterclip>TRUE</ismasterclip>
            <duration>141</duration>
            <in>0</in>
            <out>141</out>
            <name>James.109.png</name>
            <rate>
              <timebase>24</timebase>
              <ntsc>FALSE</ntsc>
            </rate>
            <media>
              <video>
                <track>
                  <clipitem frameBlend="FALSE" id="clipitem-112">
                    <name>James.109.png</name>
                    <masterclipid>masterclip-111</masterclipid>
                    <rate>
                      <timebase>24</timebase>
                      <ntsc>FALSE</ntsc>
                    </rate>
                    <alphatype>straight</alphatype>
                    <pixelaspectratio>square</pixelaspectratio>
                    <anamorphic>FALSE</anamorphic>
                    <file id="file-111">
                      <name>James.109.png</name>
                      <pathurl>file://localhost/Users/antoniochiappetta/OneDrive - Aalto University/University/Aalto/Hackatons/Junction/Junction2019-IoK-security_awareness_kids/Assets/Team Animations/Image Sequences/James/James.109.png</pathurl>
                      <rate>
                        <timebase>24</timebase>
                        <ntsc>FALSE</ntsc>
                      </rate>
                      <duration>141</duration>
                      <timecode>
                        <rate>
                          <timebase>24</timebase>
                          <ntsc>FALSE</ntsc>
                        </rate>
                      </timecode>
                      <media>
                        <video>
                          <duration>1</duration>
                          <samplecharacteristics>
                            <anamorphic>FALSE</anamorphic>
                            <pixelaspectratio>square</pixelaspectratio>
                            <fielddominance>none</fielddominance>
                            <width>686</width>
                            <height>511</height>
                          </samplecharacteristics>
                        </video>
                      </media>
                    </file>
                  </clipitem>
                </track>
              </video>
            </media>
          </clip>
          <clip explodedTracks="true" frameBlend="FALSE" id="masterclip-112">
            <uuid>7869f4b7-9175-4feb-a987-0e3e8283b72f</uuid>
            <masterclipid>masterclip-112</masterclipid>
            <ismasterclip>TRUE</ismasterclip>
            <duration>141</duration>
            <in>0</in>
            <out>141</out>
            <name>James.110.png</name>
            <rate>
              <timebase>24</timebase>
              <ntsc>FALSE</ntsc>
            </rate>
            <media>
              <video>
                <track>
                  <clipitem frameBlend="FALSE" id="clipitem-113">
                    <name>James.110.png</name>
                    <masterclipid>masterclip-112</masterclipid>
                    <rate>
                      <timebase>24</timebase>
                      <ntsc>FALSE</ntsc>
                    </rate>
                    <alphatype>straight</alphatype>
                    <pixelaspectratio>square</pixelaspectratio>
                    <anamorphic>FALSE</anamorphic>
                    <file id="file-112">
                      <name>James.110.png</name>
                      <pathurl>file://localhost/Users/antoniochiappetta/OneDrive - Aalto University/University/Aalto/Hackatons/Junction/Junction2019-IoK-security_awareness_kids/Assets/Team Animations/Image Sequences/James/James.110.png</pathurl>
                      <rate>
                        <timebase>24</timebase>
                        <ntsc>FALSE</ntsc>
                      </rate>
                      <duration>141</duration>
                      <timecode>
                        <rate>
                          <timebase>24</timebase>
                          <ntsc>FALSE</ntsc>
                        </rate>
                      </timecode>
                      <media>
                        <video>
                          <duration>1</duration>
                          <samplecharacteristics>
                            <anamorphic>FALSE</anamorphic>
                            <pixelaspectratio>square</pixelaspectratio>
                            <fielddominance>none</fielddominance>
                            <width>686</width>
                            <height>511</height>
                          </samplecharacteristics>
                        </video>
                      </media>
                    </file>
                  </clipitem>
                </track>
              </video>
            </media>
          </clip>
          <clip explodedTracks="true" frameBlend="FALSE" id="masterclip-113">
            <uuid>a330cd4f-1e97-4050-a8fa-6eeed9705755</uuid>
            <masterclipid>masterclip-113</masterclipid>
            <ismasterclip>TRUE</ismasterclip>
            <duration>141</duration>
            <in>0</in>
            <out>141</out>
            <name>James.111.png</name>
            <rate>
              <timebase>24</timebase>
              <ntsc>FALSE</ntsc>
            </rate>
            <media>
              <video>
                <track>
                  <clipitem frameBlend="FALSE" id="clipitem-114">
                    <name>James.111.png</name>
                    <masterclipid>masterclip-113</masterclipid>
                    <rate>
                      <timebase>24</timebase>
                      <ntsc>FALSE</ntsc>
                    </rate>
                    <alphatype>straight</alphatype>
                    <pixelaspectratio>square</pixelaspectratio>
                    <anamorphic>FALSE</anamorphic>
                    <file id="file-113">
                      <name>James.111.png</name>
                      <pathurl>file://localhost/Users/antoniochiappetta/OneDrive - Aalto University/University/Aalto/Hackatons/Junction/Junction2019-IoK-security_awareness_kids/Assets/Team Animations/Image Sequences/James/James.111.png</pathurl>
                      <rate>
                        <timebase>24</timebase>
                        <ntsc>FALSE</ntsc>
                      </rate>
                      <duration>141</duration>
                      <timecode>
                        <rate>
                          <timebase>24</timebase>
                          <ntsc>FALSE</ntsc>
                        </rate>
                      </timecode>
                      <media>
                        <video>
                          <duration>1</duration>
                          <samplecharacteristics>
                            <anamorphic>FALSE</anamorphic>
                            <pixelaspectratio>square</pixelaspectratio>
                            <fielddominance>none</fielddominance>
                            <width>686</width>
                            <height>511</height>
                          </samplecharacteristics>
                        </video>
                      </media>
                    </file>
                  </clipitem>
                </track>
              </video>
            </media>
          </clip>
          <clip explodedTracks="true" frameBlend="FALSE" id="masterclip-114">
            <uuid>2335827c-7875-4ceb-9528-4b5684a8a0ff</uuid>
            <masterclipid>masterclip-114</masterclipid>
            <ismasterclip>TRUE</ismasterclip>
            <duration>141</duration>
            <in>0</in>
            <out>141</out>
            <name>James.112.png</name>
            <rate>
              <timebase>24</timebase>
              <ntsc>FALSE</ntsc>
            </rate>
            <media>
              <video>
                <track>
                  <clipitem frameBlend="FALSE" id="clipitem-115">
                    <name>James.112.png</name>
                    <masterclipid>masterclip-114</masterclipid>
                    <rate>
                      <timebase>24</timebase>
                      <ntsc>FALSE</ntsc>
                    </rate>
                    <alphatype>straight</alphatype>
                    <pixelaspectratio>square</pixelaspectratio>
                    <anamorphic>FALSE</anamorphic>
                    <file id="file-114">
                      <name>James.112.png</name>
                      <pathurl>file://localhost/Users/antoniochiappetta/OneDrive - Aalto University/University/Aalto/Hackatons/Junction/Junction2019-IoK-security_awareness_kids/Assets/Team Animations/Image Sequences/James/James.112.png</pathurl>
                      <rate>
                        <timebase>24</timebase>
                        <ntsc>FALSE</ntsc>
                      </rate>
                      <duration>141</duration>
                      <timecode>
                        <rate>
                          <timebase>24</timebase>
                          <ntsc>FALSE</ntsc>
                        </rate>
                      </timecode>
                      <media>
                        <video>
                          <duration>1</duration>
                          <samplecharacteristics>
                            <anamorphic>FALSE</anamorphic>
                            <pixelaspectratio>square</pixelaspectratio>
                            <fielddominance>none</fielddominance>
                            <width>686</width>
                            <height>511</height>
                          </samplecharacteristics>
                        </video>
                      </media>
                    </file>
                  </clipitem>
                </track>
              </video>
            </media>
          </clip>
          <clip explodedTracks="true" frameBlend="FALSE" id="masterclip-115">
            <uuid>7845c9ca-78d0-4e15-a755-2c45576d3e49</uuid>
            <masterclipid>masterclip-115</masterclipid>
            <ismasterclip>TRUE</ismasterclip>
            <duration>141</duration>
            <in>0</in>
            <out>141</out>
            <name>James.113.png</name>
            <rate>
              <timebase>24</timebase>
              <ntsc>FALSE</ntsc>
            </rate>
            <media>
              <video>
                <track>
                  <clipitem frameBlend="FALSE" id="clipitem-116">
                    <name>James.113.png</name>
                    <masterclipid>masterclip-115</masterclipid>
                    <rate>
                      <timebase>24</timebase>
                      <ntsc>FALSE</ntsc>
                    </rate>
                    <alphatype>straight</alphatype>
                    <pixelaspectratio>square</pixelaspectratio>
                    <anamorphic>FALSE</anamorphic>
                    <file id="file-115">
                      <name>James.113.png</name>
                      <pathurl>file://localhost/Users/antoniochiappetta/OneDrive - Aalto University/University/Aalto/Hackatons/Junction/Junction2019-IoK-security_awareness_kids/Assets/Team Animations/Image Sequences/James/James.113.png</pathurl>
                      <rate>
                        <timebase>24</timebase>
                        <ntsc>FALSE</ntsc>
                      </rate>
                      <duration>141</duration>
                      <timecode>
                        <rate>
                          <timebase>24</timebase>
                          <ntsc>FALSE</ntsc>
                        </rate>
                      </timecode>
                      <media>
                        <video>
                          <duration>1</duration>
                          <samplecharacteristics>
                            <anamorphic>FALSE</anamorphic>
                            <pixelaspectratio>square</pixelaspectratio>
                            <fielddominance>none</fielddominance>
                            <width>686</width>
                            <height>511</height>
                          </samplecharacteristics>
                        </video>
                      </media>
                    </file>
                  </clipitem>
                </track>
              </video>
            </media>
          </clip>
          <clip explodedTracks="true" frameBlend="FALSE" id="masterclip-116">
            <uuid>d6b9ff6d-c782-4d9c-a9e6-0b3b71d81ada</uuid>
            <masterclipid>masterclip-116</masterclipid>
            <ismasterclip>TRUE</ismasterclip>
            <duration>141</duration>
            <in>0</in>
            <out>141</out>
            <name>James.114.png</name>
            <rate>
              <timebase>24</timebase>
              <ntsc>FALSE</ntsc>
            </rate>
            <media>
              <video>
                <track>
                  <clipitem frameBlend="FALSE" id="clipitem-117">
                    <name>James.114.png</name>
                    <masterclipid>masterclip-116</masterclipid>
                    <rate>
                      <timebase>24</timebase>
                      <ntsc>FALSE</ntsc>
                    </rate>
                    <alphatype>straight</alphatype>
                    <pixelaspectratio>square</pixelaspectratio>
                    <anamorphic>FALSE</anamorphic>
                    <file id="file-116">
                      <name>James.114.png</name>
                      <pathurl>file://localhost/Users/antoniochiappetta/OneDrive - Aalto University/University/Aalto/Hackatons/Junction/Junction2019-IoK-security_awareness_kids/Assets/Team Animations/Image Sequences/James/James.114.png</pathurl>
                      <rate>
                        <timebase>24</timebase>
                        <ntsc>FALSE</ntsc>
                      </rate>
                      <duration>141</duration>
                      <timecode>
                        <rate>
                          <timebase>24</timebase>
                          <ntsc>FALSE</ntsc>
                        </rate>
                      </timecode>
                      <media>
                        <video>
                          <duration>1</duration>
                          <samplecharacteristics>
                            <anamorphic>FALSE</anamorphic>
                            <pixelaspectratio>square</pixelaspectratio>
                            <fielddominance>none</fielddominance>
                            <width>686</width>
                            <height>511</height>
                          </samplecharacteristics>
                        </video>
                      </media>
                    </file>
                  </clipitem>
                </track>
              </video>
            </media>
          </clip>
          <clip explodedTracks="true" frameBlend="FALSE" id="masterclip-117">
            <uuid>3a5bdfd2-d71f-4607-af90-e600c37e360f</uuid>
            <masterclipid>masterclip-117</masterclipid>
            <ismasterclip>TRUE</ismasterclip>
            <duration>141</duration>
            <in>0</in>
            <out>141</out>
            <name>James.115.png</name>
            <rate>
              <timebase>24</timebase>
              <ntsc>FALSE</ntsc>
            </rate>
            <media>
              <video>
                <track>
                  <clipitem frameBlend="FALSE" id="clipitem-118">
                    <name>James.115.png</name>
                    <masterclipid>masterclip-117</masterclipid>
                    <rate>
                      <timebase>24</timebase>
                      <ntsc>FALSE</ntsc>
                    </rate>
                    <alphatype>straight</alphatype>
                    <pixelaspectratio>square</pixelaspectratio>
                    <anamorphic>FALSE</anamorphic>
                    <file id="file-117">
                      <name>James.115.png</name>
                      <pathurl>file://localhost/Users/antoniochiappetta/OneDrive - Aalto University/University/Aalto/Hackatons/Junction/Junction2019-IoK-security_awareness_kids/Assets/Team Animations/Image Sequences/James/James.115.png</pathurl>
                      <rate>
                        <timebase>24</timebase>
                        <ntsc>FALSE</ntsc>
                      </rate>
                      <duration>141</duration>
                      <timecode>
                        <rate>
                          <timebase>24</timebase>
                          <ntsc>FALSE</ntsc>
                        </rate>
                      </timecode>
                      <media>
                        <video>
                          <duration>1</duration>
                          <samplecharacteristics>
                            <anamorphic>FALSE</anamorphic>
                            <pixelaspectratio>square</pixelaspectratio>
                            <fielddominance>none</fielddominance>
                            <width>686</width>
                            <height>511</height>
                          </samplecharacteristics>
                        </video>
                      </media>
                    </file>
                  </clipitem>
                </track>
              </video>
            </media>
          </clip>
          <clip explodedTracks="true" frameBlend="FALSE" id="masterclip-118">
            <uuid>5db99236-2f3a-4745-b33e-3e1928f49cd0</uuid>
            <masterclipid>masterclip-118</masterclipid>
            <ismasterclip>TRUE</ismasterclip>
            <duration>141</duration>
            <in>0</in>
            <out>141</out>
            <name>James.116.png</name>
            <rate>
              <timebase>24</timebase>
              <ntsc>FALSE</ntsc>
            </rate>
            <media>
              <video>
                <track>
                  <clipitem frameBlend="FALSE" id="clipitem-119">
                    <name>James.116.png</name>
                    <masterclipid>masterclip-118</masterclipid>
                    <rate>
                      <timebase>24</timebase>
                      <ntsc>FALSE</ntsc>
                    </rate>
                    <alphatype>straight</alphatype>
                    <pixelaspectratio>square</pixelaspectratio>
                    <anamorphic>FALSE</anamorphic>
                    <file id="file-118">
                      <name>James.116.png</name>
                      <pathurl>file://localhost/Users/antoniochiappetta/OneDrive - Aalto University/University/Aalto/Hackatons/Junction/Junction2019-IoK-security_awareness_kids/Assets/Team Animations/Image Sequences/James/James.116.png</pathurl>
                      <rate>
                        <timebase>24</timebase>
                        <ntsc>FALSE</ntsc>
                      </rate>
                      <duration>141</duration>
                      <timecode>
                        <rate>
                          <timebase>24</timebase>
                          <ntsc>FALSE</ntsc>
                        </rate>
                      </timecode>
                      <media>
                        <video>
                          <duration>1</duration>
                          <samplecharacteristics>
                            <anamorphic>FALSE</anamorphic>
                            <pixelaspectratio>square</pixelaspectratio>
                            <fielddominance>none</fielddominance>
                            <width>686</width>
                            <height>511</height>
                          </samplecharacteristics>
                        </video>
                      </media>
                    </file>
                  </clipitem>
                </track>
              </video>
            </media>
          </clip>
          <clip explodedTracks="true" frameBlend="FALSE" id="masterclip-119">
            <uuid>54880c00-e571-49d3-b9bf-214bc4857b96</uuid>
            <masterclipid>masterclip-119</masterclipid>
            <ismasterclip>TRUE</ismasterclip>
            <duration>141</duration>
            <in>0</in>
            <out>141</out>
            <name>James.117.png</name>
            <rate>
              <timebase>24</timebase>
              <ntsc>FALSE</ntsc>
            </rate>
            <media>
              <video>
                <track>
                  <clipitem frameBlend="FALSE" id="clipitem-120">
                    <name>James.117.png</name>
                    <masterclipid>masterclip-119</masterclipid>
                    <rate>
                      <timebase>24</timebase>
                      <ntsc>FALSE</ntsc>
                    </rate>
                    <alphatype>straight</alphatype>
                    <pixelaspectratio>square</pixelaspectratio>
                    <anamorphic>FALSE</anamorphic>
                    <file id="file-119">
                      <name>James.117.png</name>
                      <pathurl>file://localhost/Users/antoniochiappetta/OneDrive - Aalto University/University/Aalto/Hackatons/Junction/Junction2019-IoK-security_awareness_kids/Assets/Team Animations/Image Sequences/James/James.117.png</pathurl>
                      <rate>
                        <timebase>24</timebase>
                        <ntsc>FALSE</ntsc>
                      </rate>
                      <duration>141</duration>
                      <timecode>
                        <rate>
                          <timebase>24</timebase>
                          <ntsc>FALSE</ntsc>
                        </rate>
                      </timecode>
                      <media>
                        <video>
                          <duration>1</duration>
                          <samplecharacteristics>
                            <anamorphic>FALSE</anamorphic>
                            <pixelaspectratio>square</pixelaspectratio>
                            <fielddominance>none</fielddominance>
                            <width>686</width>
                            <height>511</height>
                          </samplecharacteristics>
                        </video>
                      </media>
                    </file>
                  </clipitem>
                </track>
              </video>
            </media>
          </clip>
          <clip explodedTracks="true" frameBlend="FALSE" id="masterclip-120">
            <uuid>344c191d-20b4-40d3-bc5d-bdd194f30d7b</uuid>
            <masterclipid>masterclip-120</masterclipid>
            <ismasterclip>TRUE</ismasterclip>
            <duration>141</duration>
            <in>0</in>
            <out>141</out>
            <name>James.118.png</name>
            <rate>
              <timebase>24</timebase>
              <ntsc>FALSE</ntsc>
            </rate>
            <media>
              <video>
                <track>
                  <clipitem frameBlend="FALSE" id="clipitem-121">
                    <name>James.118.png</name>
                    <masterclipid>masterclip-120</masterclipid>
                    <rate>
                      <timebase>24</timebase>
                      <ntsc>FALSE</ntsc>
                    </rate>
                    <alphatype>straight</alphatype>
                    <pixelaspectratio>square</pixelaspectratio>
                    <anamorphic>FALSE</anamorphic>
                    <file id="file-120">
                      <name>James.118.png</name>
                      <pathurl>file://localhost/Users/antoniochiappetta/OneDrive - Aalto University/University/Aalto/Hackatons/Junction/Junction2019-IoK-security_awareness_kids/Assets/Team Animations/Image Sequences/James/James.118.png</pathurl>
                      <rate>
                        <timebase>24</timebase>
                        <ntsc>FALSE</ntsc>
                      </rate>
                      <duration>141</duration>
                      <timecode>
                        <rate>
                          <timebase>24</timebase>
                          <ntsc>FALSE</ntsc>
                        </rate>
                      </timecode>
                      <media>
                        <video>
                          <duration>1</duration>
                          <samplecharacteristics>
                            <anamorphic>FALSE</anamorphic>
                            <pixelaspectratio>square</pixelaspectratio>
                            <fielddominance>none</fielddominance>
                            <width>686</width>
                            <height>511</height>
                          </samplecharacteristics>
                        </video>
                      </media>
                    </file>
                  </clipitem>
                </track>
              </video>
            </media>
          </clip>
          <clip explodedTracks="true" frameBlend="FALSE" id="masterclip-121">
            <uuid>efd10667-ea2a-4cea-85bb-0fbcb3e27ac1</uuid>
            <masterclipid>masterclip-121</masterclipid>
            <ismasterclip>TRUE</ismasterclip>
            <duration>141</duration>
            <in>0</in>
            <out>141</out>
            <name>James.119.png</name>
            <rate>
              <timebase>24</timebase>
              <ntsc>FALSE</ntsc>
            </rate>
            <media>
              <video>
                <track>
                  <clipitem frameBlend="FALSE" id="clipitem-122">
                    <name>James.119.png</name>
                    <masterclipid>masterclip-121</masterclipid>
                    <rate>
                      <timebase>24</timebase>
                      <ntsc>FALSE</ntsc>
                    </rate>
                    <alphatype>straight</alphatype>
                    <pixelaspectratio>square</pixelaspectratio>
                    <anamorphic>FALSE</anamorphic>
                    <file id="file-121">
                      <name>James.119.png</name>
                      <pathurl>file://localhost/Users/antoniochiappetta/OneDrive - Aalto University/University/Aalto/Hackatons/Junction/Junction2019-IoK-security_awareness_kids/Assets/Team Animations/Image Sequences/James/James.119.png</pathurl>
                      <rate>
                        <timebase>24</timebase>
                        <ntsc>FALSE</ntsc>
                      </rate>
                      <duration>141</duration>
                      <timecode>
                        <rate>
                          <timebase>24</timebase>
                          <ntsc>FALSE</ntsc>
                        </rate>
                      </timecode>
                      <media>
                        <video>
                          <duration>1</duration>
                          <samplecharacteristics>
                            <anamorphic>FALSE</anamorphic>
                            <pixelaspectratio>square</pixelaspectratio>
                            <fielddominance>none</fielddominance>
                            <width>686</width>
                            <height>511</height>
                          </samplecharacteristics>
                        </video>
                      </media>
                    </file>
                  </clipitem>
                </track>
              </video>
            </media>
          </clip>
          <clip explodedTracks="true" frameBlend="FALSE" id="masterclip-122">
            <uuid>35527e6a-42fa-47ef-962b-b8e14088e388</uuid>
            <masterclipid>masterclip-122</masterclipid>
            <ismasterclip>TRUE</ismasterclip>
            <duration>141</duration>
            <in>0</in>
            <out>141</out>
            <name>James.120.png</name>
            <rate>
              <timebase>24</timebase>
              <ntsc>FALSE</ntsc>
            </rate>
            <media>
              <video>
                <track>
                  <clipitem frameBlend="FALSE" id="clipitem-123">
                    <name>James.120.png</name>
                    <masterclipid>masterclip-122</masterclipid>
                    <rate>
                      <timebase>24</timebase>
                      <ntsc>FALSE</ntsc>
                    </rate>
                    <alphatype>straight</alphatype>
                    <pixelaspectratio>square</pixelaspectratio>
                    <anamorphic>FALSE</anamorphic>
                    <file id="file-122">
                      <name>James.120.png</name>
                      <pathurl>file://localhost/Users/antoniochiappetta/OneDrive - Aalto University/University/Aalto/Hackatons/Junction/Junction2019-IoK-security_awareness_kids/Assets/Team Animations/Image Sequences/James/James.120.png</pathurl>
                      <rate>
                        <timebase>24</timebase>
                        <ntsc>FALSE</ntsc>
                      </rate>
                      <duration>141</duration>
                      <timecode>
                        <rate>
                          <timebase>24</timebase>
                          <ntsc>FALSE</ntsc>
                        </rate>
                      </timecode>
                      <media>
                        <video>
                          <duration>1</duration>
                          <samplecharacteristics>
                            <anamorphic>FALSE</anamorphic>
                            <pixelaspectratio>square</pixelaspectratio>
                            <fielddominance>none</fielddominance>
                            <width>686</width>
                            <height>511</height>
                          </samplecharacteristics>
                        </video>
                      </media>
                    </file>
                  </clipitem>
                </track>
              </video>
            </media>
          </clip>
          <clip explodedTracks="true" frameBlend="FALSE" id="masterclip-123">
            <uuid>110d4318-397b-460f-a8b4-28aedf582308</uuid>
            <masterclipid>masterclip-123</masterclipid>
            <ismasterclip>TRUE</ismasterclip>
            <duration>141</duration>
            <in>0</in>
            <out>141</out>
            <name>James.121.png</name>
            <rate>
              <timebase>24</timebase>
              <ntsc>FALSE</ntsc>
            </rate>
            <media>
              <video>
                <track>
                  <clipitem frameBlend="FALSE" id="clipitem-124">
                    <name>James.121.png</name>
                    <masterclipid>masterclip-123</masterclipid>
                    <rate>
                      <timebase>24</timebase>
                      <ntsc>FALSE</ntsc>
                    </rate>
                    <alphatype>straight</alphatype>
                    <pixelaspectratio>square</pixelaspectratio>
                    <anamorphic>FALSE</anamorphic>
                    <file id="file-123">
                      <name>James.121.png</name>
                      <pathurl>file://localhost/Users/antoniochiappetta/OneDrive - Aalto University/University/Aalto/Hackatons/Junction/Junction2019-IoK-security_awareness_kids/Assets/Team Animations/Image Sequences/James/James.121.png</pathurl>
                      <rate>
                        <timebase>24</timebase>
                        <ntsc>FALSE</ntsc>
                      </rate>
                      <duration>141</duration>
                      <timecode>
                        <rate>
                          <timebase>24</timebase>
                          <ntsc>FALSE</ntsc>
                        </rate>
                      </timecode>
                      <media>
                        <video>
                          <duration>1</duration>
                          <samplecharacteristics>
                            <anamorphic>FALSE</anamorphic>
                            <pixelaspectratio>square</pixelaspectratio>
                            <fielddominance>none</fielddominance>
                            <width>686</width>
                            <height>511</height>
                          </samplecharacteristics>
                        </video>
                      </media>
                    </file>
                  </clipitem>
                </track>
              </video>
            </media>
          </clip>
          <clip explodedTracks="true" frameBlend="FALSE" id="masterclip-124">
            <uuid>61404e68-e262-463c-8d9b-90e024e89f76</uuid>
            <masterclipid>masterclip-124</masterclipid>
            <ismasterclip>TRUE</ismasterclip>
            <duration>141</duration>
            <in>0</in>
            <out>141</out>
            <name>James.122.png</name>
            <rate>
              <timebase>24</timebase>
              <ntsc>FALSE</ntsc>
            </rate>
            <media>
              <video>
                <track>
                  <clipitem frameBlend="FALSE" id="clipitem-125">
                    <name>James.122.png</name>
                    <masterclipid>masterclip-124</masterclipid>
                    <rate>
                      <timebase>24</timebase>
                      <ntsc>FALSE</ntsc>
                    </rate>
                    <alphatype>straight</alphatype>
                    <pixelaspectratio>square</pixelaspectratio>
                    <anamorphic>FALSE</anamorphic>
                    <file id="file-124">
                      <name>James.122.png</name>
                      <pathurl>file://localhost/Users/antoniochiappetta/OneDrive - Aalto University/University/Aalto/Hackatons/Junction/Junction2019-IoK-security_awareness_kids/Assets/Team Animations/Image Sequences/James/James.122.png</pathurl>
                      <rate>
                        <timebase>24</timebase>
                        <ntsc>FALSE</ntsc>
                      </rate>
                      <duration>141</duration>
                      <timecode>
                        <rate>
                          <timebase>24</timebase>
                          <ntsc>FALSE</ntsc>
                        </rate>
                      </timecode>
                      <media>
                        <video>
                          <duration>1</duration>
                          <samplecharacteristics>
                            <anamorphic>FALSE</anamorphic>
                            <pixelaspectratio>square</pixelaspectratio>
                            <fielddominance>none</fielddominance>
                            <width>686</width>
                            <height>511</height>
                          </samplecharacteristics>
                        </video>
                      </media>
                    </file>
                  </clipitem>
                </track>
              </video>
            </media>
          </clip>
          <clip explodedTracks="true" frameBlend="FALSE" id="masterclip-125">
            <uuid>d3c604ec-8825-47fd-a2f1-49b269b98c2a</uuid>
            <masterclipid>masterclip-125</masterclipid>
            <ismasterclip>TRUE</ismasterclip>
            <duration>141</duration>
            <in>0</in>
            <out>141</out>
            <name>James.123.png</name>
            <rate>
              <timebase>24</timebase>
              <ntsc>FALSE</ntsc>
            </rate>
            <media>
              <video>
                <track>
                  <clipitem frameBlend="FALSE" id="clipitem-126">
                    <name>James.123.png</name>
                    <masterclipid>masterclip-125</masterclipid>
                    <rate>
                      <timebase>24</timebase>
                      <ntsc>FALSE</ntsc>
                    </rate>
                    <alphatype>straight</alphatype>
                    <pixelaspectratio>square</pixelaspectratio>
                    <anamorphic>FALSE</anamorphic>
                    <file id="file-125">
                      <name>James.123.png</name>
                      <pathurl>file://localhost/Users/antoniochiappetta/OneDrive - Aalto University/University/Aalto/Hackatons/Junction/Junction2019-IoK-security_awareness_kids/Assets/Team Animations/Image Sequences/James/James.123.png</pathurl>
                      <rate>
                        <timebase>24</timebase>
                        <ntsc>FALSE</ntsc>
                      </rate>
                      <duration>141</duration>
                      <timecode>
                        <rate>
                          <timebase>24</timebase>
                          <ntsc>FALSE</ntsc>
                        </rate>
                      </timecode>
                      <media>
                        <video>
                          <duration>1</duration>
                          <samplecharacteristics>
                            <anamorphic>FALSE</anamorphic>
                            <pixelaspectratio>square</pixelaspectratio>
                            <fielddominance>none</fielddominance>
                            <width>686</width>
                            <height>511</height>
                          </samplecharacteristics>
                        </video>
                      </media>
                    </file>
                  </clipitem>
                </track>
              </video>
            </media>
          </clip>
          <clip explodedTracks="true" frameBlend="FALSE" id="masterclip-126">
            <uuid>285f4158-0919-45c2-b438-d6b081824f1c</uuid>
            <masterclipid>masterclip-126</masterclipid>
            <ismasterclip>TRUE</ismasterclip>
            <duration>141</duration>
            <in>0</in>
            <out>141</out>
            <name>James.124.png</name>
            <rate>
              <timebase>24</timebase>
              <ntsc>FALSE</ntsc>
            </rate>
            <media>
              <video>
                <track>
                  <clipitem frameBlend="FALSE" id="clipitem-127">
                    <name>James.124.png</name>
                    <masterclipid>masterclip-126</masterclipid>
                    <rate>
                      <timebase>24</timebase>
                      <ntsc>FALSE</ntsc>
                    </rate>
                    <alphatype>straight</alphatype>
                    <pixelaspectratio>square</pixelaspectratio>
                    <anamorphic>FALSE</anamorphic>
                    <file id="file-126">
                      <name>James.124.png</name>
                      <pathurl>file://localhost/Users/antoniochiappetta/OneDrive - Aalto University/University/Aalto/Hackatons/Junction/Junction2019-IoK-security_awareness_kids/Assets/Team Animations/Image Sequences/James/James.124.png</pathurl>
                      <rate>
                        <timebase>24</timebase>
                        <ntsc>FALSE</ntsc>
                      </rate>
                      <duration>141</duration>
                      <timecode>
                        <rate>
                          <timebase>24</timebase>
                          <ntsc>FALSE</ntsc>
                        </rate>
                      </timecode>
                      <media>
                        <video>
                          <duration>1</duration>
                          <samplecharacteristics>
                            <anamorphic>FALSE</anamorphic>
                            <pixelaspectratio>square</pixelaspectratio>
                            <fielddominance>none</fielddominance>
                            <width>686</width>
                            <height>511</height>
                          </samplecharacteristics>
                        </video>
                      </media>
                    </file>
                  </clipitem>
                </track>
              </video>
            </media>
          </clip>
          <clip explodedTracks="true" frameBlend="FALSE" id="masterclip-127">
            <uuid>8cf0b998-2725-4541-a9f8-88a3709a758e</uuid>
            <masterclipid>masterclip-127</masterclipid>
            <ismasterclip>TRUE</ismasterclip>
            <duration>141</duration>
            <in>0</in>
            <out>141</out>
            <name>James.125.png</name>
            <rate>
              <timebase>24</timebase>
              <ntsc>FALSE</ntsc>
            </rate>
            <media>
              <video>
                <track>
                  <clipitem frameBlend="FALSE" id="clipitem-128">
                    <name>James.125.png</name>
                    <masterclipid>masterclip-127</masterclipid>
                    <rate>
                      <timebase>24</timebase>
                      <ntsc>FALSE</ntsc>
                    </rate>
                    <alphatype>straight</alphatype>
                    <pixelaspectratio>square</pixelaspectratio>
                    <anamorphic>FALSE</anamorphic>
                    <file id="file-127">
                      <name>James.125.png</name>
                      <pathurl>file://localhost/Users/antoniochiappetta/OneDrive - Aalto University/University/Aalto/Hackatons/Junction/Junction2019-IoK-security_awareness_kids/Assets/Team Animations/Image Sequences/James/James.125.png</pathurl>
                      <rate>
                        <timebase>24</timebase>
                        <ntsc>FALSE</ntsc>
                      </rate>
                      <duration>141</duration>
                      <timecode>
                        <rate>
                          <timebase>24</timebase>
                          <ntsc>FALSE</ntsc>
                        </rate>
                      </timecode>
                      <media>
                        <video>
                          <duration>1</duration>
                          <samplecharacteristics>
                            <anamorphic>FALSE</anamorphic>
                            <pixelaspectratio>square</pixelaspectratio>
                            <fielddominance>none</fielddominance>
                            <width>686</width>
                            <height>511</height>
                          </samplecharacteristics>
                        </video>
                      </media>
                    </file>
                  </clipitem>
                </track>
              </video>
            </media>
          </clip>
          <clip explodedTracks="true" frameBlend="FALSE" id="masterclip-128">
            <uuid>f61d84c1-a631-4df2-bc36-bf8d604feee4</uuid>
            <masterclipid>masterclip-128</masterclipid>
            <ismasterclip>TRUE</ismasterclip>
            <duration>141</duration>
            <in>0</in>
            <out>141</out>
            <name>James.126.png</name>
            <rate>
              <timebase>24</timebase>
              <ntsc>FALSE</ntsc>
            </rate>
            <media>
              <video>
                <track>
                  <clipitem frameBlend="FALSE" id="clipitem-129">
                    <name>James.126.png</name>
                    <masterclipid>masterclip-128</masterclipid>
                    <rate>
                      <timebase>24</timebase>
                      <ntsc>FALSE</ntsc>
                    </rate>
                    <alphatype>straight</alphatype>
                    <pixelaspectratio>square</pixelaspectratio>
                    <anamorphic>FALSE</anamorphic>
                    <file id="file-128">
                      <name>James.126.png</name>
                      <pathurl>file://localhost/Users/antoniochiappetta/OneDrive - Aalto University/University/Aalto/Hackatons/Junction/Junction2019-IoK-security_awareness_kids/Assets/Team Animations/Image Sequences/James/James.126.png</pathurl>
                      <rate>
                        <timebase>24</timebase>
                        <ntsc>FALSE</ntsc>
                      </rate>
                      <duration>141</duration>
                      <timecode>
                        <rate>
                          <timebase>24</timebase>
                          <ntsc>FALSE</ntsc>
                        </rate>
                      </timecode>
                      <media>
                        <video>
                          <duration>1</duration>
                          <samplecharacteristics>
                            <anamorphic>FALSE</anamorphic>
                            <pixelaspectratio>square</pixelaspectratio>
                            <fielddominance>none</fielddominance>
                            <width>686</width>
                            <height>511</height>
                          </samplecharacteristics>
                        </video>
                      </media>
                    </file>
                  </clipitem>
                </track>
              </video>
            </media>
          </clip>
          <clip explodedTracks="true" frameBlend="FALSE" id="masterclip-129">
            <uuid>5de5b1ea-40dc-4205-8b7f-89d014c0be55</uuid>
            <masterclipid>masterclip-129</masterclipid>
            <ismasterclip>TRUE</ismasterclip>
            <duration>141</duration>
            <in>0</in>
            <out>141</out>
            <name>James.127.png</name>
            <rate>
              <timebase>24</timebase>
              <ntsc>FALSE</ntsc>
            </rate>
            <media>
              <video>
                <track>
                  <clipitem frameBlend="FALSE" id="clipitem-130">
                    <name>James.127.png</name>
                    <masterclipid>masterclip-129</masterclipid>
                    <rate>
                      <timebase>24</timebase>
                      <ntsc>FALSE</ntsc>
                    </rate>
                    <alphatype>straight</alphatype>
                    <pixelaspectratio>square</pixelaspectratio>
                    <anamorphic>FALSE</anamorphic>
                    <file id="file-129">
                      <name>James.127.png</name>
                      <pathurl>file://localhost/Users/antoniochiappetta/OneDrive - Aalto University/University/Aalto/Hackatons/Junction/Junction2019-IoK-security_awareness_kids/Assets/Team Animations/Image Sequences/James/James.127.png</pathurl>
                      <rate>
                        <timebase>24</timebase>
                        <ntsc>FALSE</ntsc>
                      </rate>
                      <duration>141</duration>
                      <timecode>
                        <rate>
                          <timebase>24</timebase>
                          <ntsc>FALSE</ntsc>
                        </rate>
                      </timecode>
                      <media>
                        <video>
                          <duration>1</duration>
                          <samplecharacteristics>
                            <anamorphic>FALSE</anamorphic>
                            <pixelaspectratio>square</pixelaspectratio>
                            <fielddominance>none</fielddominance>
                            <width>686</width>
                            <height>511</height>
                          </samplecharacteristics>
                        </video>
                      </media>
                    </file>
                  </clipitem>
                </track>
              </video>
            </media>
          </clip>
          <clip explodedTracks="true" frameBlend="FALSE" id="masterclip-130">
            <uuid>2c5d8ee1-9fd9-47a9-b9c9-b68770239a7c</uuid>
            <masterclipid>masterclip-130</masterclipid>
            <ismasterclip>TRUE</ismasterclip>
            <duration>141</duration>
            <in>0</in>
            <out>141</out>
            <name>James.128.png</name>
            <rate>
              <timebase>24</timebase>
              <ntsc>FALSE</ntsc>
            </rate>
            <media>
              <video>
                <track>
                  <clipitem frameBlend="FALSE" id="clipitem-131">
                    <name>James.128.png</name>
                    <masterclipid>masterclip-130</masterclipid>
                    <rate>
                      <timebase>24</timebase>
                      <ntsc>FALSE</ntsc>
                    </rate>
                    <alphatype>straight</alphatype>
                    <pixelaspectratio>square</pixelaspectratio>
                    <anamorphic>FALSE</anamorphic>
                    <file id="file-130">
                      <name>James.128.png</name>
                      <pathurl>file://localhost/Users/antoniochiappetta/OneDrive - Aalto University/University/Aalto/Hackatons/Junction/Junction2019-IoK-security_awareness_kids/Assets/Team Animations/Image Sequences/James/James.128.png</pathurl>
                      <rate>
                        <timebase>24</timebase>
                        <ntsc>FALSE</ntsc>
                      </rate>
                      <duration>141</duration>
                      <timecode>
                        <rate>
                          <timebase>24</timebase>
                          <ntsc>FALSE</ntsc>
                        </rate>
                      </timecode>
                      <media>
                        <video>
                          <duration>1</duration>
                          <samplecharacteristics>
                            <anamorphic>FALSE</anamorphic>
                            <pixelaspectratio>square</pixelaspectratio>
                            <fielddominance>none</fielddominance>
                            <width>686</width>
                            <height>511</height>
                          </samplecharacteristics>
                        </video>
                      </media>
                    </file>
                  </clipitem>
                </track>
              </video>
            </media>
          </clip>
          <clip explodedTracks="true" frameBlend="FALSE" id="masterclip-131">
            <uuid>27f1f047-48ac-4b3a-a53a-4b1c7c804f65</uuid>
            <masterclipid>masterclip-131</masterclipid>
            <ismasterclip>TRUE</ismasterclip>
            <duration>141</duration>
            <in>0</in>
            <out>141</out>
            <name>James.129.png</name>
            <rate>
              <timebase>24</timebase>
              <ntsc>FALSE</ntsc>
            </rate>
            <media>
              <video>
                <track>
                  <clipitem frameBlend="FALSE" id="clipitem-132">
                    <name>James.129.png</name>
                    <masterclipid>masterclip-131</masterclipid>
                    <rate>
                      <timebase>24</timebase>
                      <ntsc>FALSE</ntsc>
                    </rate>
                    <alphatype>straight</alphatype>
                    <pixelaspectratio>square</pixelaspectratio>
                    <anamorphic>FALSE</anamorphic>
                    <file id="file-131">
                      <name>James.129.png</name>
                      <pathurl>file://localhost/Users/antoniochiappetta/OneDrive - Aalto University/University/Aalto/Hackatons/Junction/Junction2019-IoK-security_awareness_kids/Assets/Team Animations/Image Sequences/James/James.129.png</pathurl>
                      <rate>
                        <timebase>24</timebase>
                        <ntsc>FALSE</ntsc>
                      </rate>
                      <duration>141</duration>
                      <timecode>
                        <rate>
                          <timebase>24</timebase>
                          <ntsc>FALSE</ntsc>
                        </rate>
                      </timecode>
                      <media>
                        <video>
                          <duration>1</duration>
                          <samplecharacteristics>
                            <anamorphic>FALSE</anamorphic>
                            <pixelaspectratio>square</pixelaspectratio>
                            <fielddominance>none</fielddominance>
                            <width>686</width>
                            <height>511</height>
                          </samplecharacteristics>
                        </video>
                      </media>
                    </file>
                  </clipitem>
                </track>
              </video>
            </media>
          </clip>
          <clip explodedTracks="true" frameBlend="FALSE" id="masterclip-132">
            <uuid>4b33a3be-4900-4157-b344-de72d551f7fb</uuid>
            <masterclipid>masterclip-132</masterclipid>
            <ismasterclip>TRUE</ismasterclip>
            <duration>141</duration>
            <in>0</in>
            <out>141</out>
            <name>James.130.png</name>
            <rate>
              <timebase>24</timebase>
              <ntsc>FALSE</ntsc>
            </rate>
            <media>
              <video>
                <track>
                  <clipitem frameBlend="FALSE" id="clipitem-133">
                    <name>James.130.png</name>
                    <masterclipid>masterclip-132</masterclipid>
                    <rate>
                      <timebase>24</timebase>
                      <ntsc>FALSE</ntsc>
                    </rate>
                    <alphatype>straight</alphatype>
                    <pixelaspectratio>square</pixelaspectratio>
                    <anamorphic>FALSE</anamorphic>
                    <file id="file-132">
                      <name>James.130.png</name>
                      <pathurl>file://localhost/Users/antoniochiappetta/OneDrive - Aalto University/University/Aalto/Hackatons/Junction/Junction2019-IoK-security_awareness_kids/Assets/Team Animations/Image Sequences/James/James.130.png</pathurl>
                      <rate>
                        <timebase>24</timebase>
                        <ntsc>FALSE</ntsc>
                      </rate>
                      <duration>141</duration>
                      <timecode>
                        <rate>
                          <timebase>24</timebase>
                          <ntsc>FALSE</ntsc>
                        </rate>
                      </timecode>
                      <media>
                        <video>
                          <duration>1</duration>
                          <samplecharacteristics>
                            <anamorphic>FALSE</anamorphic>
                            <pixelaspectratio>square</pixelaspectratio>
                            <fielddominance>none</fielddominance>
                            <width>686</width>
                            <height>511</height>
                          </samplecharacteristics>
                        </video>
                      </media>
                    </file>
                  </clipitem>
                </track>
              </video>
            </media>
          </clip>
          <clip explodedTracks="true" frameBlend="FALSE" id="masterclip-133">
            <uuid>40896d12-9185-4f66-b941-702e4f4dc975</uuid>
            <masterclipid>masterclip-133</masterclipid>
            <ismasterclip>TRUE</ismasterclip>
            <duration>141</duration>
            <in>0</in>
            <out>141</out>
            <name>James.131.png</name>
            <rate>
              <timebase>24</timebase>
              <ntsc>FALSE</ntsc>
            </rate>
            <media>
              <video>
                <track>
                  <clipitem frameBlend="FALSE" id="clipitem-134">
                    <name>James.131.png</name>
                    <masterclipid>masterclip-133</masterclipid>
                    <rate>
                      <timebase>24</timebase>
                      <ntsc>FALSE</ntsc>
                    </rate>
                    <alphatype>straight</alphatype>
                    <pixelaspectratio>square</pixelaspectratio>
                    <anamorphic>FALSE</anamorphic>
                    <file id="file-133">
                      <name>James.131.png</name>
                      <pathurl>file://localhost/Users/antoniochiappetta/OneDrive - Aalto University/University/Aalto/Hackatons/Junction/Junction2019-IoK-security_awareness_kids/Assets/Team Animations/Image Sequences/James/James.131.png</pathurl>
                      <rate>
                        <timebase>24</timebase>
                        <ntsc>FALSE</ntsc>
                      </rate>
                      <duration>141</duration>
                      <timecode>
                        <rate>
                          <timebase>24</timebase>
                          <ntsc>FALSE</ntsc>
                        </rate>
                      </timecode>
                      <media>
                        <video>
                          <duration>1</duration>
                          <samplecharacteristics>
                            <anamorphic>FALSE</anamorphic>
                            <pixelaspectratio>square</pixelaspectratio>
                            <fielddominance>none</fielddominance>
                            <width>686</width>
                            <height>511</height>
                          </samplecharacteristics>
                        </video>
                      </media>
                    </file>
                  </clipitem>
                </track>
              </video>
            </media>
          </clip>
          <clip explodedTracks="true" frameBlend="FALSE" id="masterclip-134">
            <uuid>eb4b66ac-f198-46db-b499-e9eedf487d79</uuid>
            <masterclipid>masterclip-134</masterclipid>
            <ismasterclip>TRUE</ismasterclip>
            <duration>141</duration>
            <in>0</in>
            <out>141</out>
            <name>James.132.png</name>
            <rate>
              <timebase>24</timebase>
              <ntsc>FALSE</ntsc>
            </rate>
            <media>
              <video>
                <track>
                  <clipitem frameBlend="FALSE" id="clipitem-135">
                    <name>James.132.png</name>
                    <masterclipid>masterclip-134</masterclipid>
                    <rate>
                      <timebase>24</timebase>
                      <ntsc>FALSE</ntsc>
                    </rate>
                    <alphatype>straight</alphatype>
                    <pixelaspectratio>square</pixelaspectratio>
                    <anamorphic>FALSE</anamorphic>
                    <file id="file-134">
                      <name>James.132.png</name>
                      <pathurl>file://localhost/Users/antoniochiappetta/OneDrive - Aalto University/University/Aalto/Hackatons/Junction/Junction2019-IoK-security_awareness_kids/Assets/Team Animations/Image Sequences/James/James.132.png</pathurl>
                      <rate>
                        <timebase>24</timebase>
                        <ntsc>FALSE</ntsc>
                      </rate>
                      <duration>141</duration>
                      <timecode>
                        <rate>
                          <timebase>24</timebase>
                          <ntsc>FALSE</ntsc>
                        </rate>
                      </timecode>
                      <media>
                        <video>
                          <duration>1</duration>
                          <samplecharacteristics>
                            <anamorphic>FALSE</anamorphic>
                            <pixelaspectratio>square</pixelaspectratio>
                            <fielddominance>none</fielddominance>
                            <width>686</width>
                            <height>511</height>
                          </samplecharacteristics>
                        </video>
                      </media>
                    </file>
                  </clipitem>
                </track>
              </video>
            </media>
          </clip>
          <clip explodedTracks="true" frameBlend="FALSE" id="masterclip-135">
            <uuid>10255eb7-8ca3-41ba-9b31-0c87f8c9f80e</uuid>
            <masterclipid>masterclip-135</masterclipid>
            <ismasterclip>TRUE</ismasterclip>
            <duration>141</duration>
            <in>0</in>
            <out>141</out>
            <name>James.133.png</name>
            <rate>
              <timebase>24</timebase>
              <ntsc>FALSE</ntsc>
            </rate>
            <media>
              <video>
                <track>
                  <clipitem frameBlend="FALSE" id="clipitem-136">
                    <name>James.133.png</name>
                    <masterclipid>masterclip-135</masterclipid>
                    <rate>
                      <timebase>24</timebase>
                      <ntsc>FALSE</ntsc>
                    </rate>
                    <alphatype>straight</alphatype>
                    <pixelaspectratio>square</pixelaspectratio>
                    <anamorphic>FALSE</anamorphic>
                    <file id="file-135">
                      <name>James.133.png</name>
                      <pathurl>file://localhost/Users/antoniochiappetta/OneDrive - Aalto University/University/Aalto/Hackatons/Junction/Junction2019-IoK-security_awareness_kids/Assets/Team Animations/Image Sequences/James/James.133.png</pathurl>
                      <rate>
                        <timebase>24</timebase>
                        <ntsc>FALSE</ntsc>
                      </rate>
                      <duration>141</duration>
                      <timecode>
                        <rate>
                          <timebase>24</timebase>
                          <ntsc>FALSE</ntsc>
                        </rate>
                      </timecode>
                      <media>
                        <video>
                          <duration>1</duration>
                          <samplecharacteristics>
                            <anamorphic>FALSE</anamorphic>
                            <pixelaspectratio>square</pixelaspectratio>
                            <fielddominance>none</fielddominance>
                            <width>686</width>
                            <height>511</height>
                          </samplecharacteristics>
                        </video>
                      </media>
                    </file>
                  </clipitem>
                </track>
              </video>
            </media>
          </clip>
          <clip explodedTracks="true" frameBlend="FALSE" id="masterclip-136">
            <uuid>d6b57a99-c4de-4383-8e90-0f4aef8c5bb9</uuid>
            <masterclipid>masterclip-136</masterclipid>
            <ismasterclip>TRUE</ismasterclip>
            <duration>141</duration>
            <in>0</in>
            <out>141</out>
            <name>James.134.png</name>
            <rate>
              <timebase>24</timebase>
              <ntsc>FALSE</ntsc>
            </rate>
            <media>
              <video>
                <track>
                  <clipitem frameBlend="FALSE" id="clipitem-137">
                    <name>James.134.png</name>
                    <masterclipid>masterclip-136</masterclipid>
                    <rate>
                      <timebase>24</timebase>
                      <ntsc>FALSE</ntsc>
                    </rate>
                    <alphatype>straight</alphatype>
                    <pixelaspectratio>square</pixelaspectratio>
                    <anamorphic>FALSE</anamorphic>
                    <file id="file-136">
                      <name>James.134.png</name>
                      <pathurl>file://localhost/Users/antoniochiappetta/OneDrive - Aalto University/University/Aalto/Hackatons/Junction/Junction2019-IoK-security_awareness_kids/Assets/Team Animations/Image Sequences/James/James.134.png</pathurl>
                      <rate>
                        <timebase>24</timebase>
                        <ntsc>FALSE</ntsc>
                      </rate>
                      <duration>141</duration>
                      <timecode>
                        <rate>
                          <timebase>24</timebase>
                          <ntsc>FALSE</ntsc>
                        </rate>
                      </timecode>
                      <media>
                        <video>
                          <duration>1</duration>
                          <samplecharacteristics>
                            <anamorphic>FALSE</anamorphic>
                            <pixelaspectratio>square</pixelaspectratio>
                            <fielddominance>none</fielddominance>
                            <width>686</width>
                            <height>511</height>
                          </samplecharacteristics>
                        </video>
                      </media>
                    </file>
                  </clipitem>
                </track>
              </video>
            </media>
          </clip>
          <clip explodedTracks="true" frameBlend="FALSE" id="masterclip-137">
            <uuid>fc4ff01e-0347-482e-97c6-91f54249d79c</uuid>
            <masterclipid>masterclip-137</masterclipid>
            <ismasterclip>TRUE</ismasterclip>
            <duration>141</duration>
            <in>0</in>
            <out>141</out>
            <name>James.135.png</name>
            <rate>
              <timebase>24</timebase>
              <ntsc>FALSE</ntsc>
            </rate>
            <media>
              <video>
                <track>
                  <clipitem frameBlend="FALSE" id="clipitem-138">
                    <name>James.135.png</name>
                    <masterclipid>masterclip-137</masterclipid>
                    <rate>
                      <timebase>24</timebase>
                      <ntsc>FALSE</ntsc>
                    </rate>
                    <alphatype>straight</alphatype>
                    <pixelaspectratio>square</pixelaspectratio>
                    <anamorphic>FALSE</anamorphic>
                    <file id="file-137">
                      <name>James.135.png</name>
                      <pathurl>file://localhost/Users/antoniochiappetta/OneDrive - Aalto University/University/Aalto/Hackatons/Junction/Junction2019-IoK-security_awareness_kids/Assets/Team Animations/Image Sequences/James/James.135.png</pathurl>
                      <rate>
                        <timebase>24</timebase>
                        <ntsc>FALSE</ntsc>
                      </rate>
                      <duration>141</duration>
                      <timecode>
                        <rate>
                          <timebase>24</timebase>
                          <ntsc>FALSE</ntsc>
                        </rate>
                      </timecode>
                      <media>
                        <video>
                          <duration>1</duration>
                          <samplecharacteristics>
                            <anamorphic>FALSE</anamorphic>
                            <pixelaspectratio>square</pixelaspectratio>
                            <fielddominance>none</fielddominance>
                            <width>686</width>
                            <height>511</height>
                          </samplecharacteristics>
                        </video>
                      </media>
                    </file>
                  </clipitem>
                </track>
              </video>
            </media>
          </clip>
          <clip explodedTracks="true" frameBlend="FALSE" id="masterclip-138">
            <uuid>2ea4345c-eba2-4674-91e1-d9d99777e0f2</uuid>
            <masterclipid>masterclip-138</masterclipid>
            <ismasterclip>TRUE</ismasterclip>
            <duration>141</duration>
            <in>0</in>
            <out>141</out>
            <name>James.136.png</name>
            <rate>
              <timebase>24</timebase>
              <ntsc>FALSE</ntsc>
            </rate>
            <media>
              <video>
                <track>
                  <clipitem frameBlend="FALSE" id="clipitem-139">
                    <name>James.136.png</name>
                    <masterclipid>masterclip-138</masterclipid>
                    <rate>
                      <timebase>24</timebase>
                      <ntsc>FALSE</ntsc>
                    </rate>
                    <alphatype>straight</alphatype>
                    <pixelaspectratio>square</pixelaspectratio>
                    <anamorphic>FALSE</anamorphic>
                    <file id="file-138">
                      <name>James.136.png</name>
                      <pathurl>file://localhost/Users/antoniochiappetta/OneDrive - Aalto University/University/Aalto/Hackatons/Junction/Junction2019-IoK-security_awareness_kids/Assets/Team Animations/Image Sequences/James/James.136.png</pathurl>
                      <rate>
                        <timebase>24</timebase>
                        <ntsc>FALSE</ntsc>
                      </rate>
                      <duration>141</duration>
                      <timecode>
                        <rate>
                          <timebase>24</timebase>
                          <ntsc>FALSE</ntsc>
                        </rate>
                      </timecode>
                      <media>
                        <video>
                          <duration>1</duration>
                          <samplecharacteristics>
                            <anamorphic>FALSE</anamorphic>
                            <pixelaspectratio>square</pixelaspectratio>
                            <fielddominance>none</fielddominance>
                            <width>686</width>
                            <height>511</height>
                          </samplecharacteristics>
                        </video>
                      </media>
                    </file>
                  </clipitem>
                </track>
              </video>
            </media>
          </clip>
          <clip explodedTracks="true" frameBlend="FALSE" id="masterclip-139">
            <uuid>4bd5fb10-0804-4733-bc4c-512e2addd225</uuid>
            <masterclipid>masterclip-139</masterclipid>
            <ismasterclip>TRUE</ismasterclip>
            <duration>141</duration>
            <in>0</in>
            <out>141</out>
            <name>James.137.png</name>
            <rate>
              <timebase>24</timebase>
              <ntsc>FALSE</ntsc>
            </rate>
            <media>
              <video>
                <track>
                  <clipitem frameBlend="FALSE" id="clipitem-140">
                    <name>James.137.png</name>
                    <masterclipid>masterclip-139</masterclipid>
                    <rate>
                      <timebase>24</timebase>
                      <ntsc>FALSE</ntsc>
                    </rate>
                    <alphatype>straight</alphatype>
                    <pixelaspectratio>square</pixelaspectratio>
                    <anamorphic>FALSE</anamorphic>
                    <file id="file-139">
                      <name>James.137.png</name>
                      <pathurl>file://localhost/Users/antoniochiappetta/OneDrive - Aalto University/University/Aalto/Hackatons/Junction/Junction2019-IoK-security_awareness_kids/Assets/Team Animations/Image Sequences/James/James.137.png</pathurl>
                      <rate>
                        <timebase>24</timebase>
                        <ntsc>FALSE</ntsc>
                      </rate>
                      <duration>141</duration>
                      <timecode>
                        <rate>
                          <timebase>24</timebase>
                          <ntsc>FALSE</ntsc>
                        </rate>
                      </timecode>
                      <media>
                        <video>
                          <duration>1</duration>
                          <samplecharacteristics>
                            <anamorphic>FALSE</anamorphic>
                            <pixelaspectratio>square</pixelaspectratio>
                            <fielddominance>none</fielddominance>
                            <width>686</width>
                            <height>511</height>
                          </samplecharacteristics>
                        </video>
                      </media>
                    </file>
                  </clipitem>
                </track>
              </video>
            </media>
          </clip>
          <clip explodedTracks="true" frameBlend="FALSE" id="masterclip-140">
            <uuid>3d431dc6-bac0-4034-8928-e7b9fad7bc08</uuid>
            <masterclipid>masterclip-140</masterclipid>
            <ismasterclip>TRUE</ismasterclip>
            <duration>141</duration>
            <in>0</in>
            <out>141</out>
            <name>James.138.png</name>
            <rate>
              <timebase>24</timebase>
              <ntsc>FALSE</ntsc>
            </rate>
            <media>
              <video>
                <track>
                  <clipitem frameBlend="FALSE" id="clipitem-141">
                    <name>James.138.png</name>
                    <masterclipid>masterclip-140</masterclipid>
                    <rate>
                      <timebase>24</timebase>
                      <ntsc>FALSE</ntsc>
                    </rate>
                    <alphatype>straight</alphatype>
                    <pixelaspectratio>square</pixelaspectratio>
                    <anamorphic>FALSE</anamorphic>
                    <file id="file-140">
                      <name>James.138.png</name>
                      <pathurl>file://localhost/Users/antoniochiappetta/OneDrive - Aalto University/University/Aalto/Hackatons/Junction/Junction2019-IoK-security_awareness_kids/Assets/Team Animations/Image Sequences/James/James.138.png</pathurl>
                      <rate>
                        <timebase>24</timebase>
                        <ntsc>FALSE</ntsc>
                      </rate>
                      <duration>141</duration>
                      <timecode>
                        <rate>
                          <timebase>24</timebase>
                          <ntsc>FALSE</ntsc>
                        </rate>
                      </timecode>
                      <media>
                        <video>
                          <duration>1</duration>
                          <samplecharacteristics>
                            <anamorphic>FALSE</anamorphic>
                            <pixelaspectratio>square</pixelaspectratio>
                            <fielddominance>none</fielddominance>
                            <width>686</width>
                            <height>511</height>
                          </samplecharacteristics>
                        </video>
                      </media>
                    </file>
                  </clipitem>
                </track>
              </video>
            </media>
          </clip>
          <clip explodedTracks="true" frameBlend="FALSE" id="masterclip-141">
            <uuid>58086034-1be7-4aa0-aad8-d22eeee2f1d2</uuid>
            <masterclipid>masterclip-141</masterclipid>
            <ismasterclip>TRUE</ismasterclip>
            <duration>141</duration>
            <in>0</in>
            <out>141</out>
            <name>James.139.png</name>
            <rate>
              <timebase>24</timebase>
              <ntsc>FALSE</ntsc>
            </rate>
            <media>
              <video>
                <track>
                  <clipitem frameBlend="FALSE" id="clipitem-142">
                    <name>James.139.png</name>
                    <masterclipid>masterclip-141</masterclipid>
                    <rate>
                      <timebase>24</timebase>
                      <ntsc>FALSE</ntsc>
                    </rate>
                    <alphatype>straight</alphatype>
                    <pixelaspectratio>square</pixelaspectratio>
                    <anamorphic>FALSE</anamorphic>
                    <file id="file-141">
                      <name>James.139.png</name>
                      <pathurl>file://localhost/Users/antoniochiappetta/OneDrive - Aalto University/University/Aalto/Hackatons/Junction/Junction2019-IoK-security_awareness_kids/Assets/Team Animations/Image Sequences/James/James.139.png</pathurl>
                      <rate>
                        <timebase>24</timebase>
                        <ntsc>FALSE</ntsc>
                      </rate>
                      <duration>141</duration>
                      <timecode>
                        <rate>
                          <timebase>24</timebase>
                          <ntsc>FALSE</ntsc>
                        </rate>
                      </timecode>
                      <media>
                        <video>
                          <duration>1</duration>
                          <samplecharacteristics>
                            <anamorphic>FALSE</anamorphic>
                            <pixelaspectratio>square</pixelaspectratio>
                            <fielddominance>none</fielddominance>
                            <width>686</width>
                            <height>511</height>
                          </samplecharacteristics>
                        </video>
                      </media>
                    </file>
                  </clipitem>
                </track>
              </video>
            </media>
          </clip>
          <clip explodedTracks="true" frameBlend="FALSE" id="masterclip-142">
            <uuid>be4314f2-9531-4619-88fb-1aafb50ee9ad</uuid>
            <masterclipid>masterclip-142</masterclipid>
            <ismasterclip>TRUE</ismasterclip>
            <duration>141</duration>
            <in>0</in>
            <out>141</out>
            <name>James.140.png</name>
            <rate>
              <timebase>24</timebase>
              <ntsc>FALSE</ntsc>
            </rate>
            <media>
              <video>
                <track>
                  <clipitem frameBlend="FALSE" id="clipitem-143">
                    <name>James.140.png</name>
                    <masterclipid>masterclip-142</masterclipid>
                    <rate>
                      <timebase>24</timebase>
                      <ntsc>FALSE</ntsc>
                    </rate>
                    <alphatype>straight</alphatype>
                    <pixelaspectratio>square</pixelaspectratio>
                    <anamorphic>FALSE</anamorphic>
                    <file id="file-142">
                      <name>James.140.png</name>
                      <pathurl>file://localhost/Users/antoniochiappetta/OneDrive - Aalto University/University/Aalto/Hackatons/Junction/Junction2019-IoK-security_awareness_kids/Assets/Team Animations/Image Sequences/James/James.140.png</pathurl>
                      <rate>
                        <timebase>24</timebase>
                        <ntsc>FALSE</ntsc>
                      </rate>
                      <duration>141</duration>
                      <timecode>
                        <rate>
                          <timebase>24</timebase>
                          <ntsc>FALSE</ntsc>
                        </rate>
                      </timecode>
                      <media>
                        <video>
                          <duration>1</duration>
                          <samplecharacteristics>
                            <anamorphic>FALSE</anamorphic>
                            <pixelaspectratio>square</pixelaspectratio>
                            <fielddominance>none</fielddominance>
                            <width>686</width>
                            <height>511</height>
                          </samplecharacteristics>
                        </video>
                      </media>
                    </file>
                  </clipitem>
                </track>
              </video>
            </media>
          </clip>
        </children>
      </bin>
    </children>
  </project>

</xmeml>
