<?xml version="1.0" encoding="UTF-8" standalone="yes" ?>
<!DOCTYPE xmeml>
<xmeml version="4">

  <project>
    <name>Luca</name>
    <children>
      <sequence MZ.Sequence.EditingModeGUID="35d109db-457b-43c1-9452-9cb7be9f121c" explodedTracks="true" id="sequence-1">
        <uuid>4d51752c-b2e9-4b0f-a767-28a31c965c19</uuid>
        <duration>144</duration>
        <rate>
          <timebase>24</timebase>
          <ntsc>FALSE</ntsc>
        </rate>
        <name>Luca</name>
        <media>
          <video>
            <track>
              <clipitem frameBlend="FALSE" id="clipitem-147">
                <name>Luca.000.png</name>
                <masterclipid>masterclip-2</masterclipid>
                <rate>
                  <timebase>24</timebase>
                  <ntsc>FALSE</ntsc>
                </rate>
                <duration>1</duration>
                <enabled>TRUE</enabled>
                <alphatype>straight</alphatype>
                <rate>
                  <timebase>24</timebase>
                  <ntsc>FALSE</ntsc>
                </rate>
                <enabled>TRUE</enabled>
                <start>0</start>
                <end>1</end>
                <file id="file-2"/>
              </clipitem>
              <clipitem frameBlend="FALSE" id="clipitem-148">
                <name>Luca.001.png</name>
                <masterclipid>masterclip-3</masterclipid>
                <rate>
                  <timebase>24</timebase>
                  <ntsc>FALSE</ntsc>
                </rate>
                <duration>1</duration>
                <enabled>TRUE</enabled>
                <alphatype>straight</alphatype>
                <rate>
                  <timebase>24</timebase>
                  <ntsc>FALSE</ntsc>
                </rate>
                <enabled>TRUE</enabled>
                <start>1</start>
                <end>2</end>
                <file id="file-3"/>
              </clipitem>
              <clipitem frameBlend="FALSE" id="clipitem-149">
                <name>Luca.002.png</name>
                <masterclipid>masterclip-4</masterclipid>
                <rate>
                  <timebase>24</timebase>
                  <ntsc>FALSE</ntsc>
                </rate>
                <duration>1</duration>
                <enabled>TRUE</enabled>
                <alphatype>straight</alphatype>
                <rate>
                  <timebase>24</timebase>
                  <ntsc>FALSE</ntsc>
                </rate>
                <enabled>TRUE</enabled>
                <start>2</start>
                <end>3</end>
                <file id="file-4"/>
              </clipitem>
              <clipitem frameBlend="FALSE" id="clipitem-150">
                <name>Luca.003.png</name>
                <masterclipid>masterclip-5</masterclipid>
                <rate>
                  <timebase>24</timebase>
                  <ntsc>FALSE</ntsc>
                </rate>
                <duration>1</duration>
                <enabled>TRUE</enabled>
                <alphatype>straight</alphatype>
                <rate>
                  <timebase>24</timebase>
                  <ntsc>FALSE</ntsc>
                </rate>
                <enabled>TRUE</enabled>
                <start>3</start>
                <end>4</end>
                <file id="file-5"/>
              </clipitem>
              <clipitem frameBlend="FALSE" id="clipitem-151">
                <name>Luca.004.png</name>
                <masterclipid>masterclip-6</masterclipid>
                <rate>
                  <timebase>24</timebase>
                  <ntsc>FALSE</ntsc>
                </rate>
                <duration>1</duration>
                <enabled>TRUE</enabled>
                <alphatype>straight</alphatype>
                <rate>
                  <timebase>24</timebase>
                  <ntsc>FALSE</ntsc>
                </rate>
                <enabled>TRUE</enabled>
                <start>4</start>
                <end>5</end>
                <file id="file-6"/>
              </clipitem>
              <clipitem frameBlend="FALSE" id="clipitem-152">
                <name>Luca.005.png</name>
                <masterclipid>masterclip-7</masterclipid>
                <rate>
                  <timebase>24</timebase>
                  <ntsc>FALSE</ntsc>
                </rate>
                <duration>1</duration>
                <enabled>TRUE</enabled>
                <alphatype>straight</alphatype>
                <rate>
                  <timebase>24</timebase>
                  <ntsc>FALSE</ntsc>
                </rate>
                <enabled>TRUE</enabled>
                <start>5</start>
                <end>6</end>
                <file id="file-7"/>
              </clipitem>
              <clipitem frameBlend="FALSE" id="clipitem-153">
                <name>Luca.006.png</name>
                <masterclipid>masterclip-8</masterclipid>
                <rate>
                  <timebase>24</timebase>
                  <ntsc>FALSE</ntsc>
                </rate>
                <duration>1</duration>
                <enabled>TRUE</enabled>
                <alphatype>straight</alphatype>
                <rate>
                  <timebase>24</timebase>
                  <ntsc>FALSE</ntsc>
                </rate>
                <enabled>TRUE</enabled>
                <start>6</start>
                <end>7</end>
                <file id="file-8"/>
              </clipitem>
              <clipitem frameBlend="FALSE" id="clipitem-154">
                <name>Luca.007.png</name>
                <masterclipid>masterclip-9</masterclipid>
                <rate>
                  <timebase>24</timebase>
                  <ntsc>FALSE</ntsc>
                </rate>
                <duration>1</duration>
                <enabled>TRUE</enabled>
                <alphatype>straight</alphatype>
                <rate>
                  <timebase>24</timebase>
                  <ntsc>FALSE</ntsc>
                </rate>
                <enabled>TRUE</enabled>
                <start>7</start>
                <end>8</end>
                <file id="file-9"/>
              </clipitem>
              <clipitem frameBlend="FALSE" id="clipitem-155">
                <name>Luca.008.png</name>
                <masterclipid>masterclip-10</masterclipid>
                <rate>
                  <timebase>24</timebase>
                  <ntsc>FALSE</ntsc>
                </rate>
                <duration>1</duration>
                <enabled>TRUE</enabled>
                <alphatype>straight</alphatype>
                <rate>
                  <timebase>24</timebase>
                  <ntsc>FALSE</ntsc>
                </rate>
                <enabled>TRUE</enabled>
                <start>8</start>
                <end>9</end>
                <file id="file-10"/>
              </clipitem>
              <clipitem frameBlend="FALSE" id="clipitem-156">
                <name>Luca.009.png</name>
                <masterclipid>masterclip-11</masterclipid>
                <rate>
                  <timebase>24</timebase>
                  <ntsc>FALSE</ntsc>
                </rate>
                <duration>1</duration>
                <enabled>TRUE</enabled>
                <alphatype>straight</alphatype>
                <rate>
                  <timebase>24</timebase>
                  <ntsc>FALSE</ntsc>
                </rate>
                <enabled>TRUE</enabled>
                <start>9</start>
                <end>10</end>
                <file id="file-11"/>
              </clipitem>
              <clipitem frameBlend="FALSE" id="clipitem-157">
                <name>Luca.010.png</name>
                <masterclipid>masterclip-12</masterclipid>
                <rate>
                  <timebase>24</timebase>
                  <ntsc>FALSE</ntsc>
                </rate>
                <duration>1</duration>
                <enabled>TRUE</enabled>
                <alphatype>straight</alphatype>
                <rate>
                  <timebase>24</timebase>
                  <ntsc>FALSE</ntsc>
                </rate>
                <enabled>TRUE</enabled>
                <start>10</start>
                <end>11</end>
                <file id="file-12"/>
              </clipitem>
              <clipitem frameBlend="FALSE" id="clipitem-158">
                <name>Luca.011.png</name>
                <masterclipid>masterclip-13</masterclipid>
                <rate>
                  <timebase>24</timebase>
                  <ntsc>FALSE</ntsc>
                </rate>
                <duration>1</duration>
                <enabled>TRUE</enabled>
                <alphatype>straight</alphatype>
                <rate>
                  <timebase>24</timebase>
                  <ntsc>FALSE</ntsc>
                </rate>
                <enabled>TRUE</enabled>
                <start>11</start>
                <end>12</end>
                <file id="file-13"/>
              </clipitem>
              <clipitem frameBlend="FALSE" id="clipitem-159">
                <name>Luca.012.png</name>
                <masterclipid>masterclip-14</masterclipid>
                <rate>
                  <timebase>24</timebase>
                  <ntsc>FALSE</ntsc>
                </rate>
                <duration>1</duration>
                <enabled>TRUE</enabled>
                <alphatype>straight</alphatype>
                <rate>
                  <timebase>24</timebase>
                  <ntsc>FALSE</ntsc>
                </rate>
                <enabled>TRUE</enabled>
                <start>12</start>
                <end>13</end>
                <file id="file-14"/>
              </clipitem>
              <clipitem frameBlend="FALSE" id="clipitem-160">
                <name>Luca.013.png</name>
                <masterclipid>masterclip-15</masterclipid>
                <rate>
                  <timebase>24</timebase>
                  <ntsc>FALSE</ntsc>
                </rate>
                <duration>1</duration>
                <enabled>TRUE</enabled>
                <alphatype>straight</alphatype>
                <rate>
                  <timebase>24</timebase>
                  <ntsc>FALSE</ntsc>
                </rate>
                <enabled>TRUE</enabled>
                <start>13</start>
                <end>14</end>
                <file id="file-15"/>
              </clipitem>
              <clipitem frameBlend="FALSE" id="clipitem-161">
                <name>Luca.014.png</name>
                <masterclipid>masterclip-16</masterclipid>
                <rate>
                  <timebase>24</timebase>
                  <ntsc>FALSE</ntsc>
                </rate>
                <duration>1</duration>
                <enabled>TRUE</enabled>
                <alphatype>straight</alphatype>
                <rate>
                  <timebase>24</timebase>
                  <ntsc>FALSE</ntsc>
                </rate>
                <enabled>TRUE</enabled>
                <start>14</start>
                <end>15</end>
                <file id="file-16"/>
              </clipitem>
              <clipitem frameBlend="FALSE" id="clipitem-162">
                <name>Luca.015.png</name>
                <masterclipid>masterclip-17</masterclipid>
                <rate>
                  <timebase>24</timebase>
                  <ntsc>FALSE</ntsc>
                </rate>
                <duration>1</duration>
                <enabled>TRUE</enabled>
                <alphatype>straight</alphatype>
                <rate>
                  <timebase>24</timebase>
                  <ntsc>FALSE</ntsc>
                </rate>
                <enabled>TRUE</enabled>
                <start>15</start>
                <end>16</end>
                <file id="file-17"/>
              </clipitem>
              <clipitem frameBlend="FALSE" id="clipitem-163">
                <name>Luca.016.png</name>
                <masterclipid>masterclip-18</masterclipid>
                <rate>
                  <timebase>24</timebase>
                  <ntsc>FALSE</ntsc>
                </rate>
                <duration>1</duration>
                <enabled>TRUE</enabled>
                <alphatype>straight</alphatype>
                <rate>
                  <timebase>24</timebase>
                  <ntsc>FALSE</ntsc>
                </rate>
                <enabled>TRUE</enabled>
                <start>16</start>
                <end>17</end>
                <file id="file-18"/>
              </clipitem>
              <clipitem frameBlend="FALSE" id="clipitem-164">
                <name>Luca.017.png</name>
                <masterclipid>masterclip-19</masterclipid>
                <rate>
                  <timebase>24</timebase>
                  <ntsc>FALSE</ntsc>
                </rate>
                <duration>1</duration>
                <enabled>TRUE</enabled>
                <alphatype>straight</alphatype>
                <rate>
                  <timebase>24</timebase>
                  <ntsc>FALSE</ntsc>
                </rate>
                <enabled>TRUE</enabled>
                <start>17</start>
                <end>18</end>
                <file id="file-19"/>
              </clipitem>
              <clipitem frameBlend="FALSE" id="clipitem-165">
                <name>Luca.018.png</name>
                <masterclipid>masterclip-20</masterclipid>
                <rate>
                  <timebase>24</timebase>
                  <ntsc>FALSE</ntsc>
                </rate>
                <duration>1</duration>
                <enabled>TRUE</enabled>
                <alphatype>straight</alphatype>
                <rate>
                  <timebase>24</timebase>
                  <ntsc>FALSE</ntsc>
                </rate>
                <enabled>TRUE</enabled>
                <start>18</start>
                <end>19</end>
                <file id="file-20"/>
              </clipitem>
              <clipitem frameBlend="FALSE" id="clipitem-166">
                <name>Luca.019.png</name>
                <masterclipid>masterclip-21</masterclipid>
                <rate>
                  <timebase>24</timebase>
                  <ntsc>FALSE</ntsc>
                </rate>
                <duration>1</duration>
                <enabled>TRUE</enabled>
                <alphatype>straight</alphatype>
                <rate>
                  <timebase>24</timebase>
                  <ntsc>FALSE</ntsc>
                </rate>
                <enabled>TRUE</enabled>
                <start>19</start>
                <end>20</end>
                <file id="file-21"/>
              </clipitem>
              <clipitem frameBlend="FALSE" id="clipitem-167">
                <name>Luca.020.png</name>
                <masterclipid>masterclip-22</masterclipid>
                <rate>
                  <timebase>24</timebase>
                  <ntsc>FALSE</ntsc>
                </rate>
                <duration>1</duration>
                <enabled>TRUE</enabled>
                <alphatype>straight</alphatype>
                <rate>
                  <timebase>24</timebase>
                  <ntsc>FALSE</ntsc>
                </rate>
                <enabled>TRUE</enabled>
                <start>20</start>
                <end>21</end>
                <file id="file-22"/>
              </clipitem>
              <clipitem frameBlend="FALSE" id="clipitem-168">
                <name>Luca.021.png</name>
                <masterclipid>masterclip-23</masterclipid>
                <rate>
                  <timebase>24</timebase>
                  <ntsc>FALSE</ntsc>
                </rate>
                <duration>1</duration>
                <enabled>TRUE</enabled>
                <alphatype>straight</alphatype>
                <rate>
                  <timebase>24</timebase>
                  <ntsc>FALSE</ntsc>
                </rate>
                <enabled>TRUE</enabled>
                <start>21</start>
                <end>22</end>
                <file id="file-23"/>
              </clipitem>
              <clipitem frameBlend="FALSE" id="clipitem-169">
                <name>Luca.022.png</name>
                <masterclipid>masterclip-24</masterclipid>
                <rate>
                  <timebase>24</timebase>
                  <ntsc>FALSE</ntsc>
                </rate>
                <duration>1</duration>
                <enabled>TRUE</enabled>
                <alphatype>straight</alphatype>
                <rate>
                  <timebase>24</timebase>
                  <ntsc>FALSE</ntsc>
                </rate>
                <enabled>TRUE</enabled>
                <start>22</start>
                <end>23</end>
                <file id="file-24"/>
              </clipitem>
              <clipitem frameBlend="FALSE" id="clipitem-170">
                <name>Luca.023.png</name>
                <masterclipid>masterclip-25</masterclipid>
                <rate>
                  <timebase>24</timebase>
                  <ntsc>FALSE</ntsc>
                </rate>
                <duration>1</duration>
                <enabled>TRUE</enabled>
                <alphatype>straight</alphatype>
                <rate>
                  <timebase>24</timebase>
                  <ntsc>FALSE</ntsc>
                </rate>
                <enabled>TRUE</enabled>
                <start>23</start>
                <end>24</end>
                <file id="file-25"/>
              </clipitem>
              <clipitem frameBlend="FALSE" id="clipitem-171">
                <name>Luca.024.png</name>
                <masterclipid>masterclip-26</masterclipid>
                <rate>
                  <timebase>24</timebase>
                  <ntsc>FALSE</ntsc>
                </rate>
                <duration>1</duration>
                <enabled>TRUE</enabled>
                <alphatype>straight</alphatype>
                <rate>
                  <timebase>24</timebase>
                  <ntsc>FALSE</ntsc>
                </rate>
                <enabled>TRUE</enabled>
                <start>24</start>
                <end>25</end>
                <file id="file-26"/>
              </clipitem>
              <clipitem frameBlend="FALSE" id="clipitem-172">
                <name>Luca.025.png</name>
                <masterclipid>masterclip-27</masterclipid>
                <rate>
                  <timebase>24</timebase>
                  <ntsc>FALSE</ntsc>
                </rate>
                <duration>1</duration>
                <enabled>TRUE</enabled>
                <alphatype>straight</alphatype>
                <rate>
                  <timebase>24</timebase>
                  <ntsc>FALSE</ntsc>
                </rate>
                <enabled>TRUE</enabled>
                <start>25</start>
                <end>26</end>
                <file id="file-27"/>
              </clipitem>
              <clipitem frameBlend="FALSE" id="clipitem-173">
                <name>Luca.026.png</name>
                <masterclipid>masterclip-28</masterclipid>
                <rate>
                  <timebase>24</timebase>
                  <ntsc>FALSE</ntsc>
                </rate>
                <duration>1</duration>
                <enabled>TRUE</enabled>
                <alphatype>straight</alphatype>
                <rate>
                  <timebase>24</timebase>
                  <ntsc>FALSE</ntsc>
                </rate>
                <enabled>TRUE</enabled>
                <start>26</start>
                <end>27</end>
                <file id="file-28"/>
              </clipitem>
              <clipitem frameBlend="FALSE" id="clipitem-174">
                <name>Luca.027.png</name>
                <masterclipid>masterclip-29</masterclipid>
                <rate>
                  <timebase>24</timebase>
                  <ntsc>FALSE</ntsc>
                </rate>
                <duration>1</duration>
                <enabled>TRUE</enabled>
                <alphatype>straight</alphatype>
                <rate>
                  <timebase>24</timebase>
                  <ntsc>FALSE</ntsc>
                </rate>
                <enabled>TRUE</enabled>
                <start>27</start>
                <end>28</end>
                <file id="file-29"/>
              </clipitem>
              <clipitem frameBlend="FALSE" id="clipitem-175">
                <name>Luca.028.png</name>
                <masterclipid>masterclip-30</masterclipid>
                <rate>
                  <timebase>24</timebase>
                  <ntsc>FALSE</ntsc>
                </rate>
                <duration>1</duration>
                <enabled>TRUE</enabled>
                <alphatype>straight</alphatype>
                <rate>
                  <timebase>24</timebase>
                  <ntsc>FALSE</ntsc>
                </rate>
                <enabled>TRUE</enabled>
                <start>28</start>
                <end>29</end>
                <file id="file-30"/>
              </clipitem>
              <clipitem frameBlend="FALSE" id="clipitem-176">
                <name>Luca.029.png</name>
                <masterclipid>masterclip-31</masterclipid>
                <rate>
                  <timebase>24</timebase>
                  <ntsc>FALSE</ntsc>
                </rate>
                <duration>1</duration>
                <enabled>TRUE</enabled>
                <alphatype>straight</alphatype>
                <rate>
                  <timebase>24</timebase>
                  <ntsc>FALSE</ntsc>
                </rate>
                <enabled>TRUE</enabled>
                <start>29</start>
                <end>30</end>
                <file id="file-31"/>
              </clipitem>
              <clipitem frameBlend="FALSE" id="clipitem-177">
                <name>Luca.030.png</name>
                <masterclipid>masterclip-32</masterclipid>
                <rate>
                  <timebase>24</timebase>
                  <ntsc>FALSE</ntsc>
                </rate>
                <duration>1</duration>
                <enabled>TRUE</enabled>
                <alphatype>straight</alphatype>
                <rate>
                  <timebase>24</timebase>
                  <ntsc>FALSE</ntsc>
                </rate>
                <enabled>TRUE</enabled>
                <start>30</start>
                <end>31</end>
                <file id="file-32"/>
              </clipitem>
              <clipitem frameBlend="FALSE" id="clipitem-178">
                <name>Luca.031.png</name>
                <masterclipid>masterclip-33</masterclipid>
                <rate>
                  <timebase>24</timebase>
                  <ntsc>FALSE</ntsc>
                </rate>
                <duration>1</duration>
                <enabled>TRUE</enabled>
                <alphatype>straight</alphatype>
                <rate>
                  <timebase>24</timebase>
                  <ntsc>FALSE</ntsc>
                </rate>
                <enabled>TRUE</enabled>
                <start>31</start>
                <end>32</end>
                <file id="file-33"/>
              </clipitem>
              <clipitem frameBlend="FALSE" id="clipitem-179">
                <name>Luca.032.png</name>
                <masterclipid>masterclip-34</masterclipid>
                <rate>
                  <timebase>24</timebase>
                  <ntsc>FALSE</ntsc>
                </rate>
                <duration>1</duration>
                <enabled>TRUE</enabled>
                <alphatype>straight</alphatype>
                <rate>
                  <timebase>24</timebase>
                  <ntsc>FALSE</ntsc>
                </rate>
                <enabled>TRUE</enabled>
                <start>32</start>
                <end>33</end>
                <file id="file-34"/>
              </clipitem>
              <clipitem frameBlend="FALSE" id="clipitem-180">
                <name>Luca.033.png</name>
                <masterclipid>masterclip-35</masterclipid>
                <rate>
                  <timebase>24</timebase>
                  <ntsc>FALSE</ntsc>
                </rate>
                <duration>1</duration>
                <enabled>TRUE</enabled>
                <alphatype>straight</alphatype>
                <rate>
                  <timebase>24</timebase>
                  <ntsc>FALSE</ntsc>
                </rate>
                <enabled>TRUE</enabled>
                <start>33</start>
                <end>34</end>
                <file id="file-35"/>
              </clipitem>
              <clipitem frameBlend="FALSE" id="clipitem-181">
                <name>Luca.034.png</name>
                <masterclipid>masterclip-36</masterclipid>
                <rate>
                  <timebase>24</timebase>
                  <ntsc>FALSE</ntsc>
                </rate>
                <duration>1</duration>
                <enabled>TRUE</enabled>
                <alphatype>straight</alphatype>
                <rate>
                  <timebase>24</timebase>
                  <ntsc>FALSE</ntsc>
                </rate>
                <enabled>TRUE</enabled>
                <start>34</start>
                <end>35</end>
                <file id="file-36"/>
              </clipitem>
              <clipitem frameBlend="FALSE" id="clipitem-182">
                <name>Luca.035.png</name>
                <masterclipid>masterclip-37</masterclipid>
                <rate>
                  <timebase>24</timebase>
                  <ntsc>FALSE</ntsc>
                </rate>
                <duration>1</duration>
                <enabled>TRUE</enabled>
                <alphatype>straight</alphatype>
                <rate>
                  <timebase>24</timebase>
                  <ntsc>FALSE</ntsc>
                </rate>
                <enabled>TRUE</enabled>
                <start>35</start>
                <end>36</end>
                <file id="file-37"/>
              </clipitem>
              <clipitem frameBlend="FALSE" id="clipitem-183">
                <name>Luca.036.png</name>
                <masterclipid>masterclip-38</masterclipid>
                <rate>
                  <timebase>24</timebase>
                  <ntsc>FALSE</ntsc>
                </rate>
                <duration>1</duration>
                <enabled>TRUE</enabled>
                <alphatype>straight</alphatype>
                <rate>
                  <timebase>24</timebase>
                  <ntsc>FALSE</ntsc>
                </rate>
                <enabled>TRUE</enabled>
                <start>36</start>
                <end>37</end>
                <file id="file-38"/>
              </clipitem>
              <clipitem frameBlend="FALSE" id="clipitem-184">
                <name>Luca.037.png</name>
                <masterclipid>masterclip-39</masterclipid>
                <rate>
                  <timebase>24</timebase>
                  <ntsc>FALSE</ntsc>
                </rate>
                <duration>1</duration>
                <enabled>TRUE</enabled>
                <alphatype>straight</alphatype>
                <rate>
                  <timebase>24</timebase>
                  <ntsc>FALSE</ntsc>
                </rate>
                <enabled>TRUE</enabled>
                <start>37</start>
                <end>38</end>
                <file id="file-39"/>
              </clipitem>
              <clipitem frameBlend="FALSE" id="clipitem-185">
                <name>Luca.038.png</name>
                <masterclipid>masterclip-40</masterclipid>
                <rate>
                  <timebase>24</timebase>
                  <ntsc>FALSE</ntsc>
                </rate>
                <duration>1</duration>
                <enabled>TRUE</enabled>
                <alphatype>straight</alphatype>
                <rate>
                  <timebase>24</timebase>
                  <ntsc>FALSE</ntsc>
                </rate>
                <enabled>TRUE</enabled>
                <start>38</start>
                <end>39</end>
                <file id="file-40"/>
              </clipitem>
              <clipitem frameBlend="FALSE" id="clipitem-186">
                <name>Luca.039.png</name>
                <masterclipid>masterclip-41</masterclipid>
                <rate>
                  <timebase>24</timebase>
                  <ntsc>FALSE</ntsc>
                </rate>
                <duration>1</duration>
                <enabled>TRUE</enabled>
                <alphatype>straight</alphatype>
                <rate>
                  <timebase>24</timebase>
                  <ntsc>FALSE</ntsc>
                </rate>
                <enabled>TRUE</enabled>
                <start>39</start>
                <end>40</end>
                <file id="file-41"/>
              </clipitem>
              <clipitem frameBlend="FALSE" id="clipitem-187">
                <name>Luca.040.png</name>
                <masterclipid>masterclip-42</masterclipid>
                <rate>
                  <timebase>24</timebase>
                  <ntsc>FALSE</ntsc>
                </rate>
                <duration>1</duration>
                <enabled>TRUE</enabled>
                <alphatype>straight</alphatype>
                <rate>
                  <timebase>24</timebase>
                  <ntsc>FALSE</ntsc>
                </rate>
                <enabled>TRUE</enabled>
                <start>40</start>
                <end>41</end>
                <file id="file-42"/>
              </clipitem>
              <clipitem frameBlend="FALSE" id="clipitem-188">
                <name>Luca.041.png</name>
                <masterclipid>masterclip-43</masterclipid>
                <rate>
                  <timebase>24</timebase>
                  <ntsc>FALSE</ntsc>
                </rate>
                <duration>1</duration>
                <enabled>TRUE</enabled>
                <alphatype>straight</alphatype>
                <rate>
                  <timebase>24</timebase>
                  <ntsc>FALSE</ntsc>
                </rate>
                <enabled>TRUE</enabled>
                <start>41</start>
                <end>42</end>
                <file id="file-43"/>
              </clipitem>
              <clipitem frameBlend="FALSE" id="clipitem-189">
                <name>Luca.042.png</name>
                <masterclipid>masterclip-44</masterclipid>
                <rate>
                  <timebase>24</timebase>
                  <ntsc>FALSE</ntsc>
                </rate>
                <duration>1</duration>
                <enabled>TRUE</enabled>
                <alphatype>straight</alphatype>
                <rate>
                  <timebase>24</timebase>
                  <ntsc>FALSE</ntsc>
                </rate>
                <enabled>TRUE</enabled>
                <start>42</start>
                <end>43</end>
                <file id="file-44"/>
              </clipitem>
              <clipitem frameBlend="FALSE" id="clipitem-190">
                <name>Luca.043.png</name>
                <masterclipid>masterclip-45</masterclipid>
                <rate>
                  <timebase>24</timebase>
                  <ntsc>FALSE</ntsc>
                </rate>
                <duration>1</duration>
                <enabled>TRUE</enabled>
                <alphatype>straight</alphatype>
                <rate>
                  <timebase>24</timebase>
                  <ntsc>FALSE</ntsc>
                </rate>
                <enabled>TRUE</enabled>
                <start>43</start>
                <end>44</end>
                <file id="file-45"/>
              </clipitem>
              <clipitem frameBlend="FALSE" id="clipitem-191">
                <name>Luca.044.png</name>
                <masterclipid>masterclip-46</masterclipid>
                <rate>
                  <timebase>24</timebase>
                  <ntsc>FALSE</ntsc>
                </rate>
                <duration>1</duration>
                <enabled>TRUE</enabled>
                <alphatype>straight</alphatype>
                <rate>
                  <timebase>24</timebase>
                  <ntsc>FALSE</ntsc>
                </rate>
                <enabled>TRUE</enabled>
                <start>44</start>
                <end>45</end>
                <file id="file-46"/>
              </clipitem>
              <clipitem frameBlend="FALSE" id="clipitem-192">
                <name>Luca.045.png</name>
                <masterclipid>masterclip-47</masterclipid>
                <rate>
                  <timebase>24</timebase>
                  <ntsc>FALSE</ntsc>
                </rate>
                <duration>1</duration>
                <enabled>TRUE</enabled>
                <alphatype>straight</alphatype>
                <rate>
                  <timebase>24</timebase>
                  <ntsc>FALSE</ntsc>
                </rate>
                <enabled>TRUE</enabled>
                <start>45</start>
                <end>46</end>
                <file id="file-47"/>
              </clipitem>
              <clipitem frameBlend="FALSE" id="clipitem-193">
                <name>Luca.046.png</name>
                <masterclipid>masterclip-48</masterclipid>
                <rate>
                  <timebase>24</timebase>
                  <ntsc>FALSE</ntsc>
                </rate>
                <duration>1</duration>
                <enabled>TRUE</enabled>
                <alphatype>straight</alphatype>
                <rate>
                  <timebase>24</timebase>
                  <ntsc>FALSE</ntsc>
                </rate>
                <enabled>TRUE</enabled>
                <start>46</start>
                <end>47</end>
                <file id="file-48"/>
              </clipitem>
              <clipitem frameBlend="FALSE" id="clipitem-194">
                <name>Luca.047.png</name>
                <masterclipid>masterclip-49</masterclipid>
                <rate>
                  <timebase>24</timebase>
                  <ntsc>FALSE</ntsc>
                </rate>
                <duration>1</duration>
                <enabled>TRUE</enabled>
                <alphatype>straight</alphatype>
                <rate>
                  <timebase>24</timebase>
                  <ntsc>FALSE</ntsc>
                </rate>
                <enabled>TRUE</enabled>
                <start>47</start>
                <end>48</end>
                <file id="file-49"/>
              </clipitem>
              <clipitem frameBlend="FALSE" id="clipitem-195">
                <name>Luca.048.png</name>
                <masterclipid>masterclip-50</masterclipid>
                <rate>
                  <timebase>24</timebase>
                  <ntsc>FALSE</ntsc>
                </rate>
                <duration>1</duration>
                <enabled>TRUE</enabled>
                <alphatype>straight</alphatype>
                <rate>
                  <timebase>24</timebase>
                  <ntsc>FALSE</ntsc>
                </rate>
                <enabled>TRUE</enabled>
                <start>48</start>
                <end>49</end>
                <file id="file-50"/>
              </clipitem>
              <clipitem frameBlend="FALSE" id="clipitem-196">
                <name>Luca.049.png</name>
                <masterclipid>masterclip-51</masterclipid>
                <rate>
                  <timebase>24</timebase>
                  <ntsc>FALSE</ntsc>
                </rate>
                <duration>1</duration>
                <enabled>TRUE</enabled>
                <alphatype>straight</alphatype>
                <rate>
                  <timebase>24</timebase>
                  <ntsc>FALSE</ntsc>
                </rate>
                <enabled>TRUE</enabled>
                <start>49</start>
                <end>50</end>
                <file id="file-51"/>
              </clipitem>
              <clipitem frameBlend="FALSE" id="clipitem-197">
                <name>Luca.050.png</name>
                <masterclipid>masterclip-52</masterclipid>
                <rate>
                  <timebase>24</timebase>
                  <ntsc>FALSE</ntsc>
                </rate>
                <duration>1</duration>
                <enabled>TRUE</enabled>
                <alphatype>straight</alphatype>
                <rate>
                  <timebase>24</timebase>
                  <ntsc>FALSE</ntsc>
                </rate>
                <enabled>TRUE</enabled>
                <start>50</start>
                <end>51</end>
                <file id="file-52"/>
              </clipitem>
              <clipitem frameBlend="FALSE" id="clipitem-198">
                <name>Luca.051.png</name>
                <masterclipid>masterclip-53</masterclipid>
                <rate>
                  <timebase>24</timebase>
                  <ntsc>FALSE</ntsc>
                </rate>
                <duration>1</duration>
                <enabled>TRUE</enabled>
                <alphatype>straight</alphatype>
                <rate>
                  <timebase>24</timebase>
                  <ntsc>FALSE</ntsc>
                </rate>
                <enabled>TRUE</enabled>
                <start>51</start>
                <end>52</end>
                <file id="file-53"/>
              </clipitem>
              <clipitem frameBlend="FALSE" id="clipitem-199">
                <name>Luca.052.png</name>
                <masterclipid>masterclip-54</masterclipid>
                <rate>
                  <timebase>24</timebase>
                  <ntsc>FALSE</ntsc>
                </rate>
                <duration>1</duration>
                <enabled>TRUE</enabled>
                <alphatype>straight</alphatype>
                <rate>
                  <timebase>24</timebase>
                  <ntsc>FALSE</ntsc>
                </rate>
                <enabled>TRUE</enabled>
                <start>52</start>
                <end>53</end>
                <file id="file-54"/>
              </clipitem>
              <clipitem frameBlend="FALSE" id="clipitem-200">
                <name>Luca.053.png</name>
                <masterclipid>masterclip-55</masterclipid>
                <rate>
                  <timebase>24</timebase>
                  <ntsc>FALSE</ntsc>
                </rate>
                <duration>1</duration>
                <enabled>TRUE</enabled>
                <alphatype>straight</alphatype>
                <rate>
                  <timebase>24</timebase>
                  <ntsc>FALSE</ntsc>
                </rate>
                <enabled>TRUE</enabled>
                <start>53</start>
                <end>54</end>
                <file id="file-55"/>
              </clipitem>
              <clipitem frameBlend="FALSE" id="clipitem-201">
                <name>Luca.054.png</name>
                <masterclipid>masterclip-56</masterclipid>
                <rate>
                  <timebase>24</timebase>
                  <ntsc>FALSE</ntsc>
                </rate>
                <duration>1</duration>
                <enabled>TRUE</enabled>
                <alphatype>straight</alphatype>
                <rate>
                  <timebase>24</timebase>
                  <ntsc>FALSE</ntsc>
                </rate>
                <enabled>TRUE</enabled>
                <start>54</start>
                <end>55</end>
                <file id="file-56"/>
              </clipitem>
              <clipitem frameBlend="FALSE" id="clipitem-202">
                <name>Luca.055.png</name>
                <masterclipid>masterclip-57</masterclipid>
                <rate>
                  <timebase>24</timebase>
                  <ntsc>FALSE</ntsc>
                </rate>
                <duration>1</duration>
                <enabled>TRUE</enabled>
                <alphatype>straight</alphatype>
                <rate>
                  <timebase>24</timebase>
                  <ntsc>FALSE</ntsc>
                </rate>
                <enabled>TRUE</enabled>
                <start>55</start>
                <end>56</end>
                <file id="file-57"/>
              </clipitem>
              <clipitem frameBlend="FALSE" id="clipitem-203">
                <name>Luca.056.png</name>
                <masterclipid>masterclip-58</masterclipid>
                <rate>
                  <timebase>24</timebase>
                  <ntsc>FALSE</ntsc>
                </rate>
                <duration>1</duration>
                <enabled>TRUE</enabled>
                <alphatype>straight</alphatype>
                <rate>
                  <timebase>24</timebase>
                  <ntsc>FALSE</ntsc>
                </rate>
                <enabled>TRUE</enabled>
                <start>56</start>
                <end>57</end>
                <file id="file-58"/>
              </clipitem>
              <clipitem frameBlend="FALSE" id="clipitem-204">
                <name>Luca.057.png</name>
                <masterclipid>masterclip-59</masterclipid>
                <rate>
                  <timebase>24</timebase>
                  <ntsc>FALSE</ntsc>
                </rate>
                <duration>1</duration>
                <enabled>TRUE</enabled>
                <alphatype>straight</alphatype>
                <rate>
                  <timebase>24</timebase>
                  <ntsc>FALSE</ntsc>
                </rate>
                <enabled>TRUE</enabled>
                <start>57</start>
                <end>58</end>
                <file id="file-59"/>
              </clipitem>
              <clipitem frameBlend="FALSE" id="clipitem-205">
                <name>Luca.058.png</name>
                <masterclipid>masterclip-60</masterclipid>
                <rate>
                  <timebase>24</timebase>
                  <ntsc>FALSE</ntsc>
                </rate>
                <duration>1</duration>
                <enabled>TRUE</enabled>
                <alphatype>straight</alphatype>
                <rate>
                  <timebase>24</timebase>
                  <ntsc>FALSE</ntsc>
                </rate>
                <enabled>TRUE</enabled>
                <start>58</start>
                <end>59</end>
                <file id="file-60"/>
              </clipitem>
              <clipitem frameBlend="FALSE" id="clipitem-206">
                <name>Luca.059.png</name>
                <masterclipid>masterclip-61</masterclipid>
                <rate>
                  <timebase>24</timebase>
                  <ntsc>FALSE</ntsc>
                </rate>
                <duration>1</duration>
                <enabled>TRUE</enabled>
                <alphatype>straight</alphatype>
                <rate>
                  <timebase>24</timebase>
                  <ntsc>FALSE</ntsc>
                </rate>
                <enabled>TRUE</enabled>
                <start>59</start>
                <end>60</end>
                <file id="file-61"/>
              </clipitem>
              <clipitem frameBlend="FALSE" id="clipitem-207">
                <name>Luca.060.png</name>
                <masterclipid>masterclip-62</masterclipid>
                <rate>
                  <timebase>24</timebase>
                  <ntsc>FALSE</ntsc>
                </rate>
                <duration>1</duration>
                <enabled>TRUE</enabled>
                <alphatype>straight</alphatype>
                <rate>
                  <timebase>24</timebase>
                  <ntsc>FALSE</ntsc>
                </rate>
                <enabled>TRUE</enabled>
                <start>60</start>
                <end>61</end>
                <file id="file-62"/>
              </clipitem>
              <clipitem frameBlend="FALSE" id="clipitem-208">
                <name>Luca.061.png</name>
                <masterclipid>masterclip-63</masterclipid>
                <rate>
                  <timebase>24</timebase>
                  <ntsc>FALSE</ntsc>
                </rate>
                <duration>1</duration>
                <enabled>TRUE</enabled>
                <alphatype>straight</alphatype>
                <rate>
                  <timebase>24</timebase>
                  <ntsc>FALSE</ntsc>
                </rate>
                <enabled>TRUE</enabled>
                <start>61</start>
                <end>62</end>
                <file id="file-63"/>
              </clipitem>
              <clipitem frameBlend="FALSE" id="clipitem-209">
                <name>Luca.062.png</name>
                <masterclipid>masterclip-64</masterclipid>
                <rate>
                  <timebase>24</timebase>
                  <ntsc>FALSE</ntsc>
                </rate>
                <duration>1</duration>
                <enabled>TRUE</enabled>
                <alphatype>straight</alphatype>
                <rate>
                  <timebase>24</timebase>
                  <ntsc>FALSE</ntsc>
                </rate>
                <enabled>TRUE</enabled>
                <start>62</start>
                <end>63</end>
                <file id="file-64"/>
              </clipitem>
              <clipitem frameBlend="FALSE" id="clipitem-210">
                <name>Luca.063.png</name>
                <masterclipid>masterclip-65</masterclipid>
                <rate>
                  <timebase>24</timebase>
                  <ntsc>FALSE</ntsc>
                </rate>
                <duration>1</duration>
                <enabled>TRUE</enabled>
                <alphatype>straight</alphatype>
                <rate>
                  <timebase>24</timebase>
                  <ntsc>FALSE</ntsc>
                </rate>
                <enabled>TRUE</enabled>
                <start>63</start>
                <end>64</end>
                <file id="file-65"/>
              </clipitem>
              <clipitem frameBlend="FALSE" id="clipitem-211">
                <name>Luca.064.png</name>
                <masterclipid>masterclip-66</masterclipid>
                <rate>
                  <timebase>24</timebase>
                  <ntsc>FALSE</ntsc>
                </rate>
                <duration>1</duration>
                <enabled>TRUE</enabled>
                <alphatype>straight</alphatype>
                <rate>
                  <timebase>24</timebase>
                  <ntsc>FALSE</ntsc>
                </rate>
                <enabled>TRUE</enabled>
                <start>64</start>
                <end>65</end>
                <file id="file-66"/>
              </clipitem>
              <clipitem frameBlend="FALSE" id="clipitem-212">
                <name>Luca.065.png</name>
                <masterclipid>masterclip-67</masterclipid>
                <rate>
                  <timebase>24</timebase>
                  <ntsc>FALSE</ntsc>
                </rate>
                <duration>1</duration>
                <enabled>TRUE</enabled>
                <alphatype>straight</alphatype>
                <rate>
                  <timebase>24</timebase>
                  <ntsc>FALSE</ntsc>
                </rate>
                <enabled>TRUE</enabled>
                <start>65</start>
                <end>66</end>
                <file id="file-67"/>
              </clipitem>
              <clipitem frameBlend="FALSE" id="clipitem-213">
                <name>Luca.066.png</name>
                <masterclipid>masterclip-68</masterclipid>
                <rate>
                  <timebase>24</timebase>
                  <ntsc>FALSE</ntsc>
                </rate>
                <duration>1</duration>
                <enabled>TRUE</enabled>
                <alphatype>straight</alphatype>
                <rate>
                  <timebase>24</timebase>
                  <ntsc>FALSE</ntsc>
                </rate>
                <enabled>TRUE</enabled>
                <start>66</start>
                <end>67</end>
                <file id="file-68"/>
              </clipitem>
              <clipitem frameBlend="FALSE" id="clipitem-214">
                <name>Luca.067.png</name>
                <masterclipid>masterclip-69</masterclipid>
                <rate>
                  <timebase>24</timebase>
                  <ntsc>FALSE</ntsc>
                </rate>
                <duration>1</duration>
                <enabled>TRUE</enabled>
                <alphatype>straight</alphatype>
                <rate>
                  <timebase>24</timebase>
                  <ntsc>FALSE</ntsc>
                </rate>
                <enabled>TRUE</enabled>
                <start>67</start>
                <end>68</end>
                <file id="file-69"/>
              </clipitem>
              <clipitem frameBlend="FALSE" id="clipitem-215">
                <name>Luca.068.png</name>
                <masterclipid>masterclip-70</masterclipid>
                <rate>
                  <timebase>24</timebase>
                  <ntsc>FALSE</ntsc>
                </rate>
                <duration>1</duration>
                <enabled>TRUE</enabled>
                <alphatype>straight</alphatype>
                <rate>
                  <timebase>24</timebase>
                  <ntsc>FALSE</ntsc>
                </rate>
                <enabled>TRUE</enabled>
                <start>68</start>
                <end>69</end>
                <file id="file-70"/>
              </clipitem>
              <clipitem frameBlend="FALSE" id="clipitem-216">
                <name>Luca.069.png</name>
                <masterclipid>masterclip-71</masterclipid>
                <rate>
                  <timebase>24</timebase>
                  <ntsc>FALSE</ntsc>
                </rate>
                <duration>1</duration>
                <enabled>TRUE</enabled>
                <alphatype>straight</alphatype>
                <rate>
                  <timebase>24</timebase>
                  <ntsc>FALSE</ntsc>
                </rate>
                <enabled>TRUE</enabled>
                <start>69</start>
                <end>70</end>
                <file id="file-71"/>
              </clipitem>
              <clipitem frameBlend="FALSE" id="clipitem-217">
                <name>Luca.070.png</name>
                <masterclipid>masterclip-72</masterclipid>
                <rate>
                  <timebase>24</timebase>
                  <ntsc>FALSE</ntsc>
                </rate>
                <duration>1</duration>
                <enabled>TRUE</enabled>
                <alphatype>straight</alphatype>
                <rate>
                  <timebase>24</timebase>
                  <ntsc>FALSE</ntsc>
                </rate>
                <enabled>TRUE</enabled>
                <start>70</start>
                <end>71</end>
                <file id="file-72"/>
              </clipitem>
              <clipitem frameBlend="FALSE" id="clipitem-218">
                <name>Luca.071.png</name>
                <masterclipid>masterclip-73</masterclipid>
                <rate>
                  <timebase>24</timebase>
                  <ntsc>FALSE</ntsc>
                </rate>
                <duration>1</duration>
                <enabled>TRUE</enabled>
                <alphatype>straight</alphatype>
                <rate>
                  <timebase>24</timebase>
                  <ntsc>FALSE</ntsc>
                </rate>
                <enabled>TRUE</enabled>
                <start>71</start>
                <end>72</end>
                <file id="file-73"/>
              </clipitem>
              <clipitem frameBlend="FALSE" id="clipitem-219">
                <name>Luca.072.png</name>
                <masterclipid>masterclip-74</masterclipid>
                <rate>
                  <timebase>24</timebase>
                  <ntsc>FALSE</ntsc>
                </rate>
                <duration>1</duration>
                <enabled>TRUE</enabled>
                <alphatype>straight</alphatype>
                <rate>
                  <timebase>24</timebase>
                  <ntsc>FALSE</ntsc>
                </rate>
                <enabled>TRUE</enabled>
                <start>72</start>
                <end>73</end>
                <file id="file-74"/>
              </clipitem>
              <clipitem frameBlend="FALSE" id="clipitem-220">
                <name>Luca.073.png</name>
                <masterclipid>masterclip-75</masterclipid>
                <rate>
                  <timebase>24</timebase>
                  <ntsc>FALSE</ntsc>
                </rate>
                <duration>1</duration>
                <enabled>TRUE</enabled>
                <alphatype>straight</alphatype>
                <rate>
                  <timebase>24</timebase>
                  <ntsc>FALSE</ntsc>
                </rate>
                <enabled>TRUE</enabled>
                <start>73</start>
                <end>74</end>
                <file id="file-75"/>
              </clipitem>
              <clipitem frameBlend="FALSE" id="clipitem-221">
                <name>Luca.074.png</name>
                <masterclipid>masterclip-76</masterclipid>
                <rate>
                  <timebase>24</timebase>
                  <ntsc>FALSE</ntsc>
                </rate>
                <duration>1</duration>
                <enabled>TRUE</enabled>
                <alphatype>straight</alphatype>
                <rate>
                  <timebase>24</timebase>
                  <ntsc>FALSE</ntsc>
                </rate>
                <enabled>TRUE</enabled>
                <start>74</start>
                <end>75</end>
                <file id="file-76"/>
              </clipitem>
              <clipitem frameBlend="FALSE" id="clipitem-222">
                <name>Luca.075.png</name>
                <masterclipid>masterclip-77</masterclipid>
                <rate>
                  <timebase>24</timebase>
                  <ntsc>FALSE</ntsc>
                </rate>
                <duration>1</duration>
                <enabled>TRUE</enabled>
                <alphatype>straight</alphatype>
                <rate>
                  <timebase>24</timebase>
                  <ntsc>FALSE</ntsc>
                </rate>
                <enabled>TRUE</enabled>
                <start>75</start>
                <end>76</end>
                <file id="file-77"/>
              </clipitem>
              <clipitem frameBlend="FALSE" id="clipitem-223">
                <name>Luca.076.png</name>
                <masterclipid>masterclip-78</masterclipid>
                <rate>
                  <timebase>24</timebase>
                  <ntsc>FALSE</ntsc>
                </rate>
                <duration>1</duration>
                <enabled>TRUE</enabled>
                <alphatype>straight</alphatype>
                <rate>
                  <timebase>24</timebase>
                  <ntsc>FALSE</ntsc>
                </rate>
                <enabled>TRUE</enabled>
                <start>76</start>
                <end>77</end>
                <file id="file-78"/>
              </clipitem>
              <clipitem frameBlend="FALSE" id="clipitem-224">
                <name>Luca.077.png</name>
                <masterclipid>masterclip-79</masterclipid>
                <rate>
                  <timebase>24</timebase>
                  <ntsc>FALSE</ntsc>
                </rate>
                <duration>1</duration>
                <enabled>TRUE</enabled>
                <alphatype>straight</alphatype>
                <rate>
                  <timebase>24</timebase>
                  <ntsc>FALSE</ntsc>
                </rate>
                <enabled>TRUE</enabled>
                <start>77</start>
                <end>78</end>
                <file id="file-79"/>
              </clipitem>
              <clipitem frameBlend="FALSE" id="clipitem-225">
                <name>Luca.078.png</name>
                <masterclipid>masterclip-80</masterclipid>
                <rate>
                  <timebase>24</timebase>
                  <ntsc>FALSE</ntsc>
                </rate>
                <duration>1</duration>
                <enabled>TRUE</enabled>
                <alphatype>straight</alphatype>
                <rate>
                  <timebase>24</timebase>
                  <ntsc>FALSE</ntsc>
                </rate>
                <enabled>TRUE</enabled>
                <start>78</start>
                <end>79</end>
                <file id="file-80"/>
              </clipitem>
              <clipitem frameBlend="FALSE" id="clipitem-226">
                <name>Luca.079.png</name>
                <masterclipid>masterclip-81</masterclipid>
                <rate>
                  <timebase>24</timebase>
                  <ntsc>FALSE</ntsc>
                </rate>
                <duration>1</duration>
                <enabled>TRUE</enabled>
                <alphatype>straight</alphatype>
                <rate>
                  <timebase>24</timebase>
                  <ntsc>FALSE</ntsc>
                </rate>
                <enabled>TRUE</enabled>
                <start>79</start>
                <end>80</end>
                <file id="file-81"/>
              </clipitem>
              <clipitem frameBlend="FALSE" id="clipitem-227">
                <name>Luca.080.png</name>
                <masterclipid>masterclip-82</masterclipid>
                <rate>
                  <timebase>24</timebase>
                  <ntsc>FALSE</ntsc>
                </rate>
                <duration>1</duration>
                <enabled>TRUE</enabled>
                <alphatype>straight</alphatype>
                <rate>
                  <timebase>24</timebase>
                  <ntsc>FALSE</ntsc>
                </rate>
                <enabled>TRUE</enabled>
                <start>80</start>
                <end>81</end>
                <file id="file-82"/>
              </clipitem>
              <clipitem frameBlend="FALSE" id="clipitem-228">
                <name>Luca.081.png</name>
                <masterclipid>masterclip-83</masterclipid>
                <rate>
                  <timebase>24</timebase>
                  <ntsc>FALSE</ntsc>
                </rate>
                <duration>1</duration>
                <enabled>TRUE</enabled>
                <alphatype>straight</alphatype>
                <rate>
                  <timebase>24</timebase>
                  <ntsc>FALSE</ntsc>
                </rate>
                <enabled>TRUE</enabled>
                <start>81</start>
                <end>82</end>
                <file id="file-83"/>
              </clipitem>
              <clipitem frameBlend="FALSE" id="clipitem-229">
                <name>Luca.082.png</name>
                <masterclipid>masterclip-84</masterclipid>
                <rate>
                  <timebase>24</timebase>
                  <ntsc>FALSE</ntsc>
                </rate>
                <duration>1</duration>
                <enabled>TRUE</enabled>
                <alphatype>straight</alphatype>
                <rate>
                  <timebase>24</timebase>
                  <ntsc>FALSE</ntsc>
                </rate>
                <enabled>TRUE</enabled>
                <start>82</start>
                <end>83</end>
                <file id="file-84"/>
              </clipitem>
              <clipitem frameBlend="FALSE" id="clipitem-230">
                <name>Luca.083.png</name>
                <masterclipid>masterclip-85</masterclipid>
                <rate>
                  <timebase>24</timebase>
                  <ntsc>FALSE</ntsc>
                </rate>
                <duration>1</duration>
                <enabled>TRUE</enabled>
                <alphatype>straight</alphatype>
                <rate>
                  <timebase>24</timebase>
                  <ntsc>FALSE</ntsc>
                </rate>
                <enabled>TRUE</enabled>
                <start>83</start>
                <end>84</end>
                <file id="file-85"/>
              </clipitem>
              <clipitem frameBlend="FALSE" id="clipitem-231">
                <name>Luca.084.png</name>
                <masterclipid>masterclip-86</masterclipid>
                <rate>
                  <timebase>24</timebase>
                  <ntsc>FALSE</ntsc>
                </rate>
                <duration>1</duration>
                <enabled>TRUE</enabled>
                <alphatype>straight</alphatype>
                <rate>
                  <timebase>24</timebase>
                  <ntsc>FALSE</ntsc>
                </rate>
                <enabled>TRUE</enabled>
                <start>84</start>
                <end>85</end>
                <file id="file-86"/>
              </clipitem>
              <clipitem frameBlend="FALSE" id="clipitem-232">
                <name>Luca.085.png</name>
                <masterclipid>masterclip-87</masterclipid>
                <rate>
                  <timebase>24</timebase>
                  <ntsc>FALSE</ntsc>
                </rate>
                <duration>1</duration>
                <enabled>TRUE</enabled>
                <alphatype>straight</alphatype>
                <rate>
                  <timebase>24</timebase>
                  <ntsc>FALSE</ntsc>
                </rate>
                <enabled>TRUE</enabled>
                <start>85</start>
                <end>86</end>
                <file id="file-87"/>
              </clipitem>
              <clipitem frameBlend="FALSE" id="clipitem-233">
                <name>Luca.086.png</name>
                <masterclipid>masterclip-88</masterclipid>
                <rate>
                  <timebase>24</timebase>
                  <ntsc>FALSE</ntsc>
                </rate>
                <duration>1</duration>
                <enabled>TRUE</enabled>
                <alphatype>straight</alphatype>
                <rate>
                  <timebase>24</timebase>
                  <ntsc>FALSE</ntsc>
                </rate>
                <enabled>TRUE</enabled>
                <start>86</start>
                <end>87</end>
                <file id="file-88"/>
              </clipitem>
              <clipitem frameBlend="FALSE" id="clipitem-234">
                <name>Luca.087.png</name>
                <masterclipid>masterclip-89</masterclipid>
                <rate>
                  <timebase>24</timebase>
                  <ntsc>FALSE</ntsc>
                </rate>
                <duration>1</duration>
                <enabled>TRUE</enabled>
                <alphatype>straight</alphatype>
                <rate>
                  <timebase>24</timebase>
                  <ntsc>FALSE</ntsc>
                </rate>
                <enabled>TRUE</enabled>
                <start>87</start>
                <end>88</end>
                <file id="file-89"/>
              </clipitem>
              <clipitem frameBlend="FALSE" id="clipitem-235">
                <name>Luca.088.png</name>
                <masterclipid>masterclip-90</masterclipid>
                <rate>
                  <timebase>24</timebase>
                  <ntsc>FALSE</ntsc>
                </rate>
                <duration>1</duration>
                <enabled>TRUE</enabled>
                <alphatype>straight</alphatype>
                <rate>
                  <timebase>24</timebase>
                  <ntsc>FALSE</ntsc>
                </rate>
                <enabled>TRUE</enabled>
                <start>88</start>
                <end>89</end>
                <file id="file-90"/>
              </clipitem>
              <clipitem frameBlend="FALSE" id="clipitem-236">
                <name>Luca.089.png</name>
                <masterclipid>masterclip-91</masterclipid>
                <rate>
                  <timebase>24</timebase>
                  <ntsc>FALSE</ntsc>
                </rate>
                <duration>1</duration>
                <enabled>TRUE</enabled>
                <alphatype>straight</alphatype>
                <rate>
                  <timebase>24</timebase>
                  <ntsc>FALSE</ntsc>
                </rate>
                <enabled>TRUE</enabled>
                <start>89</start>
                <end>90</end>
                <file id="file-91"/>
              </clipitem>
              <clipitem frameBlend="FALSE" id="clipitem-237">
                <name>Luca.090.png</name>
                <masterclipid>masterclip-92</masterclipid>
                <rate>
                  <timebase>24</timebase>
                  <ntsc>FALSE</ntsc>
                </rate>
                <duration>1</duration>
                <enabled>TRUE</enabled>
                <alphatype>straight</alphatype>
                <rate>
                  <timebase>24</timebase>
                  <ntsc>FALSE</ntsc>
                </rate>
                <enabled>TRUE</enabled>
                <start>90</start>
                <end>91</end>
                <file id="file-92"/>
              </clipitem>
              <clipitem frameBlend="FALSE" id="clipitem-238">
                <name>Luca.091.png</name>
                <masterclipid>masterclip-93</masterclipid>
                <rate>
                  <timebase>24</timebase>
                  <ntsc>FALSE</ntsc>
                </rate>
                <duration>1</duration>
                <enabled>TRUE</enabled>
                <alphatype>straight</alphatype>
                <rate>
                  <timebase>24</timebase>
                  <ntsc>FALSE</ntsc>
                </rate>
                <enabled>TRUE</enabled>
                <start>91</start>
                <end>92</end>
                <file id="file-93"/>
              </clipitem>
              <clipitem frameBlend="FALSE" id="clipitem-239">
                <name>Luca.092.png</name>
                <masterclipid>masterclip-94</masterclipid>
                <rate>
                  <timebase>24</timebase>
                  <ntsc>FALSE</ntsc>
                </rate>
                <duration>1</duration>
                <enabled>TRUE</enabled>
                <alphatype>straight</alphatype>
                <rate>
                  <timebase>24</timebase>
                  <ntsc>FALSE</ntsc>
                </rate>
                <enabled>TRUE</enabled>
                <start>92</start>
                <end>93</end>
                <file id="file-94"/>
              </clipitem>
              <clipitem frameBlend="FALSE" id="clipitem-240">
                <name>Luca.093.png</name>
                <masterclipid>masterclip-95</masterclipid>
                <rate>
                  <timebase>24</timebase>
                  <ntsc>FALSE</ntsc>
                </rate>
                <duration>1</duration>
                <enabled>TRUE</enabled>
                <alphatype>straight</alphatype>
                <rate>
                  <timebase>24</timebase>
                  <ntsc>FALSE</ntsc>
                </rate>
                <enabled>TRUE</enabled>
                <start>93</start>
                <end>94</end>
                <file id="file-95"/>
              </clipitem>
              <clipitem frameBlend="FALSE" id="clipitem-241">
                <name>Luca.094.png</name>
                <masterclipid>masterclip-96</masterclipid>
                <rate>
                  <timebase>24</timebase>
                  <ntsc>FALSE</ntsc>
                </rate>
                <duration>1</duration>
                <enabled>TRUE</enabled>
                <alphatype>straight</alphatype>
                <rate>
                  <timebase>24</timebase>
                  <ntsc>FALSE</ntsc>
                </rate>
                <enabled>TRUE</enabled>
                <start>94</start>
                <end>95</end>
                <file id="file-96"/>
              </clipitem>
              <clipitem frameBlend="FALSE" id="clipitem-242">
                <name>Luca.095.png</name>
                <masterclipid>masterclip-97</masterclipid>
                <rate>
                  <timebase>24</timebase>
                  <ntsc>FALSE</ntsc>
                </rate>
                <duration>1</duration>
                <enabled>TRUE</enabled>
                <alphatype>straight</alphatype>
                <rate>
                  <timebase>24</timebase>
                  <ntsc>FALSE</ntsc>
                </rate>
                <enabled>TRUE</enabled>
                <start>95</start>
                <end>96</end>
                <file id="file-97"/>
              </clipitem>
              <clipitem frameBlend="FALSE" id="clipitem-243">
                <name>Luca.096.png</name>
                <masterclipid>masterclip-98</masterclipid>
                <rate>
                  <timebase>24</timebase>
                  <ntsc>FALSE</ntsc>
                </rate>
                <duration>1</duration>
                <enabled>TRUE</enabled>
                <alphatype>straight</alphatype>
                <rate>
                  <timebase>24</timebase>
                  <ntsc>FALSE</ntsc>
                </rate>
                <enabled>TRUE</enabled>
                <start>96</start>
                <end>97</end>
                <file id="file-98"/>
              </clipitem>
              <clipitem frameBlend="FALSE" id="clipitem-244">
                <name>Luca.097.png</name>
                <masterclipid>masterclip-99</masterclipid>
                <rate>
                  <timebase>24</timebase>
                  <ntsc>FALSE</ntsc>
                </rate>
                <duration>1</duration>
                <enabled>TRUE</enabled>
                <alphatype>straight</alphatype>
                <rate>
                  <timebase>24</timebase>
                  <ntsc>FALSE</ntsc>
                </rate>
                <enabled>TRUE</enabled>
                <start>97</start>
                <end>98</end>
                <file id="file-99"/>
              </clipitem>
              <clipitem frameBlend="FALSE" id="clipitem-245">
                <name>Luca.098.png</name>
                <masterclipid>masterclip-100</masterclipid>
                <rate>
                  <timebase>24</timebase>
                  <ntsc>FALSE</ntsc>
                </rate>
                <duration>1</duration>
                <enabled>TRUE</enabled>
                <alphatype>straight</alphatype>
                <rate>
                  <timebase>24</timebase>
                  <ntsc>FALSE</ntsc>
                </rate>
                <enabled>TRUE</enabled>
                <start>98</start>
                <end>99</end>
                <file id="file-100"/>
              </clipitem>
              <clipitem frameBlend="FALSE" id="clipitem-246">
                <name>Luca.099.png</name>
                <masterclipid>masterclip-101</masterclipid>
                <rate>
                  <timebase>24</timebase>
                  <ntsc>FALSE</ntsc>
                </rate>
                <duration>1</duration>
                <enabled>TRUE</enabled>
                <alphatype>straight</alphatype>
                <rate>
                  <timebase>24</timebase>
                  <ntsc>FALSE</ntsc>
                </rate>
                <enabled>TRUE</enabled>
                <start>99</start>
                <end>100</end>
                <file id="file-101"/>
              </clipitem>
              <clipitem frameBlend="FALSE" id="clipitem-247">
                <name>Luca.100.png</name>
                <masterclipid>masterclip-102</masterclipid>
                <rate>
                  <timebase>24</timebase>
                  <ntsc>FALSE</ntsc>
                </rate>
                <duration>1</duration>
                <enabled>TRUE</enabled>
                <alphatype>straight</alphatype>
                <rate>
                  <timebase>24</timebase>
                  <ntsc>FALSE</ntsc>
                </rate>
                <enabled>TRUE</enabled>
                <start>100</start>
                <end>101</end>
                <file id="file-102"/>
              </clipitem>
              <clipitem frameBlend="FALSE" id="clipitem-248">
                <name>Luca.101.png</name>
                <masterclipid>masterclip-103</masterclipid>
                <rate>
                  <timebase>24</timebase>
                  <ntsc>FALSE</ntsc>
                </rate>
                <duration>1</duration>
                <enabled>TRUE</enabled>
                <alphatype>straight</alphatype>
                <rate>
                  <timebase>24</timebase>
                  <ntsc>FALSE</ntsc>
                </rate>
                <enabled>TRUE</enabled>
                <start>101</start>
                <end>102</end>
                <file id="file-103"/>
              </clipitem>
              <clipitem frameBlend="FALSE" id="clipitem-249">
                <name>Luca.102.png</name>
                <masterclipid>masterclip-104</masterclipid>
                <rate>
                  <timebase>24</timebase>
                  <ntsc>FALSE</ntsc>
                </rate>
                <duration>1</duration>
                <enabled>TRUE</enabled>
                <alphatype>straight</alphatype>
                <rate>
                  <timebase>24</timebase>
                  <ntsc>FALSE</ntsc>
                </rate>
                <enabled>TRUE</enabled>
                <start>102</start>
                <end>103</end>
                <file id="file-104"/>
              </clipitem>
              <clipitem frameBlend="FALSE" id="clipitem-250">
                <name>Luca.103.png</name>
                <masterclipid>masterclip-105</masterclipid>
                <rate>
                  <timebase>24</timebase>
                  <ntsc>FALSE</ntsc>
                </rate>
                <duration>1</duration>
                <enabled>TRUE</enabled>
                <alphatype>straight</alphatype>
                <rate>
                  <timebase>24</timebase>
                  <ntsc>FALSE</ntsc>
                </rate>
                <enabled>TRUE</enabled>
                <start>103</start>
                <end>104</end>
                <file id="file-105"/>
              </clipitem>
              <clipitem frameBlend="FALSE" id="clipitem-251">
                <name>Luca.104.png</name>
                <masterclipid>masterclip-106</masterclipid>
                <rate>
                  <timebase>24</timebase>
                  <ntsc>FALSE</ntsc>
                </rate>
                <duration>1</duration>
                <enabled>TRUE</enabled>
                <alphatype>straight</alphatype>
                <rate>
                  <timebase>24</timebase>
                  <ntsc>FALSE</ntsc>
                </rate>
                <enabled>TRUE</enabled>
                <start>104</start>
                <end>105</end>
                <file id="file-106"/>
              </clipitem>
              <clipitem frameBlend="FALSE" id="clipitem-252">
                <name>Luca.105.png</name>
                <masterclipid>masterclip-107</masterclipid>
                <rate>
                  <timebase>24</timebase>
                  <ntsc>FALSE</ntsc>
                </rate>
                <duration>1</duration>
                <enabled>TRUE</enabled>
                <alphatype>straight</alphatype>
                <rate>
                  <timebase>24</timebase>
                  <ntsc>FALSE</ntsc>
                </rate>
                <enabled>TRUE</enabled>
                <start>105</start>
                <end>106</end>
                <file id="file-107"/>
              </clipitem>
              <clipitem frameBlend="FALSE" id="clipitem-253">
                <name>Luca.106.png</name>
                <masterclipid>masterclip-108</masterclipid>
                <rate>
                  <timebase>24</timebase>
                  <ntsc>FALSE</ntsc>
                </rate>
                <duration>1</duration>
                <enabled>TRUE</enabled>
                <alphatype>straight</alphatype>
                <rate>
                  <timebase>24</timebase>
                  <ntsc>FALSE</ntsc>
                </rate>
                <enabled>TRUE</enabled>
                <start>106</start>
                <end>107</end>
                <file id="file-108"/>
              </clipitem>
              <clipitem frameBlend="FALSE" id="clipitem-254">
                <name>Luca.107.png</name>
                <masterclipid>masterclip-109</masterclipid>
                <rate>
                  <timebase>24</timebase>
                  <ntsc>FALSE</ntsc>
                </rate>
                <duration>1</duration>
                <enabled>TRUE</enabled>
                <alphatype>straight</alphatype>
                <rate>
                  <timebase>24</timebase>
                  <ntsc>FALSE</ntsc>
                </rate>
                <enabled>TRUE</enabled>
                <start>107</start>
                <end>108</end>
                <file id="file-109"/>
              </clipitem>
              <clipitem frameBlend="FALSE" id="clipitem-255">
                <name>Luca.108.png</name>
                <masterclipid>masterclip-110</masterclipid>
                <rate>
                  <timebase>24</timebase>
                  <ntsc>FALSE</ntsc>
                </rate>
                <duration>1</duration>
                <enabled>TRUE</enabled>
                <alphatype>straight</alphatype>
                <rate>
                  <timebase>24</timebase>
                  <ntsc>FALSE</ntsc>
                </rate>
                <enabled>TRUE</enabled>
                <start>108</start>
                <end>109</end>
                <file id="file-110"/>
              </clipitem>
              <clipitem frameBlend="FALSE" id="clipitem-256">
                <name>Luca.109.png</name>
                <masterclipid>masterclip-111</masterclipid>
                <rate>
                  <timebase>24</timebase>
                  <ntsc>FALSE</ntsc>
                </rate>
                <duration>1</duration>
                <enabled>TRUE</enabled>
                <alphatype>straight</alphatype>
                <rate>
                  <timebase>24</timebase>
                  <ntsc>FALSE</ntsc>
                </rate>
                <enabled>TRUE</enabled>
                <start>109</start>
                <end>110</end>
                <file id="file-111"/>
              </clipitem>
              <clipitem frameBlend="FALSE" id="clipitem-257">
                <name>Luca.110.png</name>
                <masterclipid>masterclip-112</masterclipid>
                <rate>
                  <timebase>24</timebase>
                  <ntsc>FALSE</ntsc>
                </rate>
                <duration>1</duration>
                <enabled>TRUE</enabled>
                <alphatype>straight</alphatype>
                <rate>
                  <timebase>24</timebase>
                  <ntsc>FALSE</ntsc>
                </rate>
                <enabled>TRUE</enabled>
                <start>110</start>
                <end>111</end>
                <file id="file-112"/>
              </clipitem>
              <clipitem frameBlend="FALSE" id="clipitem-258">
                <name>Luca.111.png</name>
                <masterclipid>masterclip-113</masterclipid>
                <rate>
                  <timebase>24</timebase>
                  <ntsc>FALSE</ntsc>
                </rate>
                <duration>1</duration>
                <enabled>TRUE</enabled>
                <alphatype>straight</alphatype>
                <rate>
                  <timebase>24</timebase>
                  <ntsc>FALSE</ntsc>
                </rate>
                <enabled>TRUE</enabled>
                <start>111</start>
                <end>112</end>
                <file id="file-113"/>
              </clipitem>
              <clipitem frameBlend="FALSE" id="clipitem-259">
                <name>Luca.112.png</name>
                <masterclipid>masterclip-114</masterclipid>
                <rate>
                  <timebase>24</timebase>
                  <ntsc>FALSE</ntsc>
                </rate>
                <duration>1</duration>
                <enabled>TRUE</enabled>
                <alphatype>straight</alphatype>
                <rate>
                  <timebase>24</timebase>
                  <ntsc>FALSE</ntsc>
                </rate>
                <enabled>TRUE</enabled>
                <start>112</start>
                <end>113</end>
                <file id="file-114"/>
              </clipitem>
              <clipitem frameBlend="FALSE" id="clipitem-260">
                <name>Luca.113.png</name>
                <masterclipid>masterclip-115</masterclipid>
                <rate>
                  <timebase>24</timebase>
                  <ntsc>FALSE</ntsc>
                </rate>
                <duration>1</duration>
                <enabled>TRUE</enabled>
                <alphatype>straight</alphatype>
                <rate>
                  <timebase>24</timebase>
                  <ntsc>FALSE</ntsc>
                </rate>
                <enabled>TRUE</enabled>
                <start>113</start>
                <end>114</end>
                <file id="file-115"/>
              </clipitem>
              <clipitem frameBlend="FALSE" id="clipitem-261">
                <name>Luca.114.png</name>
                <masterclipid>masterclip-116</masterclipid>
                <rate>
                  <timebase>24</timebase>
                  <ntsc>FALSE</ntsc>
                </rate>
                <duration>1</duration>
                <enabled>TRUE</enabled>
                <alphatype>straight</alphatype>
                <rate>
                  <timebase>24</timebase>
                  <ntsc>FALSE</ntsc>
                </rate>
                <enabled>TRUE</enabled>
                <start>114</start>
                <end>115</end>
                <file id="file-116"/>
              </clipitem>
              <clipitem frameBlend="FALSE" id="clipitem-262">
                <name>Luca.115.png</name>
                <masterclipid>masterclip-117</masterclipid>
                <rate>
                  <timebase>24</timebase>
                  <ntsc>FALSE</ntsc>
                </rate>
                <duration>1</duration>
                <enabled>TRUE</enabled>
                <alphatype>straight</alphatype>
                <rate>
                  <timebase>24</timebase>
                  <ntsc>FALSE</ntsc>
                </rate>
                <enabled>TRUE</enabled>
                <start>115</start>
                <end>116</end>
                <file id="file-117"/>
              </clipitem>
              <clipitem frameBlend="FALSE" id="clipitem-263">
                <name>Luca.116.png</name>
                <masterclipid>masterclip-118</masterclipid>
                <rate>
                  <timebase>24</timebase>
                  <ntsc>FALSE</ntsc>
                </rate>
                <duration>1</duration>
                <enabled>TRUE</enabled>
                <alphatype>straight</alphatype>
                <rate>
                  <timebase>24</timebase>
                  <ntsc>FALSE</ntsc>
                </rate>
                <enabled>TRUE</enabled>
                <start>116</start>
                <end>117</end>
                <file id="file-118"/>
              </clipitem>
              <clipitem frameBlend="FALSE" id="clipitem-264">
                <name>Luca.117.png</name>
                <masterclipid>masterclip-119</masterclipid>
                <rate>
                  <timebase>24</timebase>
                  <ntsc>FALSE</ntsc>
                </rate>
                <duration>1</duration>
                <enabled>TRUE</enabled>
                <alphatype>straight</alphatype>
                <rate>
                  <timebase>24</timebase>
                  <ntsc>FALSE</ntsc>
                </rate>
                <enabled>TRUE</enabled>
                <start>117</start>
                <end>118</end>
                <file id="file-119"/>
              </clipitem>
              <clipitem frameBlend="FALSE" id="clipitem-265">
                <name>Luca.118.png</name>
                <masterclipid>masterclip-120</masterclipid>
                <rate>
                  <timebase>24</timebase>
                  <ntsc>FALSE</ntsc>
                </rate>
                <duration>1</duration>
                <enabled>TRUE</enabled>
                <alphatype>straight</alphatype>
                <rate>
                  <timebase>24</timebase>
                  <ntsc>FALSE</ntsc>
                </rate>
                <enabled>TRUE</enabled>
                <start>118</start>
                <end>119</end>
                <file id="file-120"/>
              </clipitem>
              <clipitem frameBlend="FALSE" id="clipitem-266">
                <name>Luca.119.png</name>
                <masterclipid>masterclip-121</masterclipid>
                <rate>
                  <timebase>24</timebase>
                  <ntsc>FALSE</ntsc>
                </rate>
                <duration>1</duration>
                <enabled>TRUE</enabled>
                <alphatype>straight</alphatype>
                <rate>
                  <timebase>24</timebase>
                  <ntsc>FALSE</ntsc>
                </rate>
                <enabled>TRUE</enabled>
                <start>119</start>
                <end>120</end>
                <file id="file-121"/>
              </clipitem>
              <clipitem frameBlend="FALSE" id="clipitem-267">
                <name>Luca.120.png</name>
                <masterclipid>masterclip-122</masterclipid>
                <rate>
                  <timebase>24</timebase>
                  <ntsc>FALSE</ntsc>
                </rate>
                <duration>1</duration>
                <enabled>TRUE</enabled>
                <alphatype>straight</alphatype>
                <rate>
                  <timebase>24</timebase>
                  <ntsc>FALSE</ntsc>
                </rate>
                <enabled>TRUE</enabled>
                <start>120</start>
                <end>121</end>
                <file id="file-122"/>
              </clipitem>
              <clipitem frameBlend="FALSE" id="clipitem-268">
                <name>Luca.121.png</name>
                <masterclipid>masterclip-123</masterclipid>
                <rate>
                  <timebase>24</timebase>
                  <ntsc>FALSE</ntsc>
                </rate>
                <duration>1</duration>
                <enabled>TRUE</enabled>
                <alphatype>straight</alphatype>
                <rate>
                  <timebase>24</timebase>
                  <ntsc>FALSE</ntsc>
                </rate>
                <enabled>TRUE</enabled>
                <start>121</start>
                <end>122</end>
                <file id="file-123"/>
              </clipitem>
              <clipitem frameBlend="FALSE" id="clipitem-269">
                <name>Luca.122.png</name>
                <masterclipid>masterclip-124</masterclipid>
                <rate>
                  <timebase>24</timebase>
                  <ntsc>FALSE</ntsc>
                </rate>
                <duration>1</duration>
                <enabled>TRUE</enabled>
                <alphatype>straight</alphatype>
                <rate>
                  <timebase>24</timebase>
                  <ntsc>FALSE</ntsc>
                </rate>
                <enabled>TRUE</enabled>
                <start>122</start>
                <end>123</end>
                <file id="file-124"/>
              </clipitem>
              <clipitem frameBlend="FALSE" id="clipitem-270">
                <name>Luca.123.png</name>
                <masterclipid>masterclip-125</masterclipid>
                <rate>
                  <timebase>24</timebase>
                  <ntsc>FALSE</ntsc>
                </rate>
                <duration>1</duration>
                <enabled>TRUE</enabled>
                <alphatype>straight</alphatype>
                <rate>
                  <timebase>24</timebase>
                  <ntsc>FALSE</ntsc>
                </rate>
                <enabled>TRUE</enabled>
                <start>123</start>
                <end>124</end>
                <file id="file-125"/>
              </clipitem>
              <clipitem frameBlend="FALSE" id="clipitem-271">
                <name>Luca.124.png</name>
                <masterclipid>masterclip-126</masterclipid>
                <rate>
                  <timebase>24</timebase>
                  <ntsc>FALSE</ntsc>
                </rate>
                <duration>1</duration>
                <enabled>TRUE</enabled>
                <alphatype>straight</alphatype>
                <rate>
                  <timebase>24</timebase>
                  <ntsc>FALSE</ntsc>
                </rate>
                <enabled>TRUE</enabled>
                <start>124</start>
                <end>125</end>
                <file id="file-126"/>
              </clipitem>
              <clipitem frameBlend="FALSE" id="clipitem-272">
                <name>Luca.125.png</name>
                <masterclipid>masterclip-127</masterclipid>
                <rate>
                  <timebase>24</timebase>
                  <ntsc>FALSE</ntsc>
                </rate>
                <duration>1</duration>
                <enabled>TRUE</enabled>
                <alphatype>straight</alphatype>
                <rate>
                  <timebase>24</timebase>
                  <ntsc>FALSE</ntsc>
                </rate>
                <enabled>TRUE</enabled>
                <start>125</start>
                <end>126</end>
                <file id="file-127"/>
              </clipitem>
              <clipitem frameBlend="FALSE" id="clipitem-273">
                <name>Luca.126.png</name>
                <masterclipid>masterclip-128</masterclipid>
                <rate>
                  <timebase>24</timebase>
                  <ntsc>FALSE</ntsc>
                </rate>
                <duration>1</duration>
                <enabled>TRUE</enabled>
                <alphatype>straight</alphatype>
                <rate>
                  <timebase>24</timebase>
                  <ntsc>FALSE</ntsc>
                </rate>
                <enabled>TRUE</enabled>
                <start>126</start>
                <end>127</end>
                <file id="file-128"/>
              </clipitem>
              <clipitem frameBlend="FALSE" id="clipitem-274">
                <name>Luca.127.png</name>
                <masterclipid>masterclip-129</masterclipid>
                <rate>
                  <timebase>24</timebase>
                  <ntsc>FALSE</ntsc>
                </rate>
                <duration>1</duration>
                <enabled>TRUE</enabled>
                <alphatype>straight</alphatype>
                <rate>
                  <timebase>24</timebase>
                  <ntsc>FALSE</ntsc>
                </rate>
                <enabled>TRUE</enabled>
                <start>127</start>
                <end>128</end>
                <file id="file-129"/>
              </clipitem>
              <clipitem frameBlend="FALSE" id="clipitem-275">
                <name>Luca.128.png</name>
                <masterclipid>masterclip-130</masterclipid>
                <rate>
                  <timebase>24</timebase>
                  <ntsc>FALSE</ntsc>
                </rate>
                <duration>1</duration>
                <enabled>TRUE</enabled>
                <alphatype>straight</alphatype>
                <rate>
                  <timebase>24</timebase>
                  <ntsc>FALSE</ntsc>
                </rate>
                <enabled>TRUE</enabled>
                <start>128</start>
                <end>129</end>
                <file id="file-130"/>
              </clipitem>
              <clipitem frameBlend="FALSE" id="clipitem-276">
                <name>Luca.129.png</name>
                <masterclipid>masterclip-131</masterclipid>
                <rate>
                  <timebase>24</timebase>
                  <ntsc>FALSE</ntsc>
                </rate>
                <duration>1</duration>
                <enabled>TRUE</enabled>
                <alphatype>straight</alphatype>
                <rate>
                  <timebase>24</timebase>
                  <ntsc>FALSE</ntsc>
                </rate>
                <enabled>TRUE</enabled>
                <start>129</start>
                <end>130</end>
                <file id="file-131"/>
              </clipitem>
              <clipitem frameBlend="FALSE" id="clipitem-277">
                <name>Luca.130.png</name>
                <masterclipid>masterclip-132</masterclipid>
                <rate>
                  <timebase>24</timebase>
                  <ntsc>FALSE</ntsc>
                </rate>
                <duration>1</duration>
                <enabled>TRUE</enabled>
                <alphatype>straight</alphatype>
                <rate>
                  <timebase>24</timebase>
                  <ntsc>FALSE</ntsc>
                </rate>
                <enabled>TRUE</enabled>
                <start>130</start>
                <end>131</end>
                <file id="file-132"/>
              </clipitem>
              <clipitem frameBlend="FALSE" id="clipitem-278">
                <name>Luca.131.png</name>
                <masterclipid>masterclip-133</masterclipid>
                <rate>
                  <timebase>24</timebase>
                  <ntsc>FALSE</ntsc>
                </rate>
                <duration>1</duration>
                <enabled>TRUE</enabled>
                <alphatype>straight</alphatype>
                <rate>
                  <timebase>24</timebase>
                  <ntsc>FALSE</ntsc>
                </rate>
                <enabled>TRUE</enabled>
                <start>131</start>
                <end>132</end>
                <file id="file-133"/>
              </clipitem>
              <clipitem frameBlend="FALSE" id="clipitem-279">
                <name>Luca.132.png</name>
                <masterclipid>masterclip-134</masterclipid>
                <rate>
                  <timebase>24</timebase>
                  <ntsc>FALSE</ntsc>
                </rate>
                <duration>1</duration>
                <enabled>TRUE</enabled>
                <alphatype>straight</alphatype>
                <rate>
                  <timebase>24</timebase>
                  <ntsc>FALSE</ntsc>
                </rate>
                <enabled>TRUE</enabled>
                <start>132</start>
                <end>133</end>
                <file id="file-134"/>
              </clipitem>
              <clipitem frameBlend="FALSE" id="clipitem-280">
                <name>Luca.133.png</name>
                <masterclipid>masterclip-135</masterclipid>
                <rate>
                  <timebase>24</timebase>
                  <ntsc>FALSE</ntsc>
                </rate>
                <duration>1</duration>
                <enabled>TRUE</enabled>
                <alphatype>straight</alphatype>
                <rate>
                  <timebase>24</timebase>
                  <ntsc>FALSE</ntsc>
                </rate>
                <enabled>TRUE</enabled>
                <start>133</start>
                <end>134</end>
                <file id="file-135"/>
              </clipitem>
              <clipitem frameBlend="FALSE" id="clipitem-281">
                <name>Luca.134.png</name>
                <masterclipid>masterclip-136</masterclipid>
                <rate>
                  <timebase>24</timebase>
                  <ntsc>FALSE</ntsc>
                </rate>
                <duration>1</duration>
                <enabled>TRUE</enabled>
                <alphatype>straight</alphatype>
                <rate>
                  <timebase>24</timebase>
                  <ntsc>FALSE</ntsc>
                </rate>
                <enabled>TRUE</enabled>
                <start>134</start>
                <end>135</end>
                <file id="file-136"/>
              </clipitem>
              <clipitem frameBlend="FALSE" id="clipitem-282">
                <name>Luca.135.png</name>
                <masterclipid>masterclip-137</masterclipid>
                <rate>
                  <timebase>24</timebase>
                  <ntsc>FALSE</ntsc>
                </rate>
                <duration>1</duration>
                <enabled>TRUE</enabled>
                <alphatype>straight</alphatype>
                <rate>
                  <timebase>24</timebase>
                  <ntsc>FALSE</ntsc>
                </rate>
                <enabled>TRUE</enabled>
                <start>135</start>
                <end>136</end>
                <file id="file-137"/>
              </clipitem>
              <clipitem frameBlend="FALSE" id="clipitem-283">
                <name>Luca.136.png</name>
                <masterclipid>masterclip-138</masterclipid>
                <rate>
                  <timebase>24</timebase>
                  <ntsc>FALSE</ntsc>
                </rate>
                <duration>1</duration>
                <enabled>TRUE</enabled>
                <alphatype>straight</alphatype>
                <rate>
                  <timebase>24</timebase>
                  <ntsc>FALSE</ntsc>
                </rate>
                <enabled>TRUE</enabled>
                <start>136</start>
                <end>137</end>
                <file id="file-138"/>
              </clipitem>
              <clipitem frameBlend="FALSE" id="clipitem-284">
                <name>Luca.137.png</name>
                <masterclipid>masterclip-139</masterclipid>
                <rate>
                  <timebase>24</timebase>
                  <ntsc>FALSE</ntsc>
                </rate>
                <duration>1</duration>
                <enabled>TRUE</enabled>
                <alphatype>straight</alphatype>
                <rate>
                  <timebase>24</timebase>
                  <ntsc>FALSE</ntsc>
                </rate>
                <enabled>TRUE</enabled>
                <start>137</start>
                <end>138</end>
                <file id="file-139"/>
              </clipitem>
              <clipitem frameBlend="FALSE" id="clipitem-285">
                <name>Luca.138.png</name>
                <masterclipid>masterclip-140</masterclipid>
                <rate>
                  <timebase>24</timebase>
                  <ntsc>FALSE</ntsc>
                </rate>
                <duration>1</duration>
                <enabled>TRUE</enabled>
                <alphatype>straight</alphatype>
                <rate>
                  <timebase>24</timebase>
                  <ntsc>FALSE</ntsc>
                </rate>
                <enabled>TRUE</enabled>
                <start>138</start>
                <end>139</end>
                <file id="file-140"/>
              </clipitem>
              <clipitem frameBlend="FALSE" id="clipitem-286">
                <name>Luca.139.png</name>
                <masterclipid>masterclip-141</masterclipid>
                <rate>
                  <timebase>24</timebase>
                  <ntsc>FALSE</ntsc>
                </rate>
                <duration>1</duration>
                <enabled>TRUE</enabled>
                <alphatype>straight</alphatype>
                <rate>
                  <timebase>24</timebase>
                  <ntsc>FALSE</ntsc>
                </rate>
                <enabled>TRUE</enabled>
                <start>139</start>
                <end>140</end>
                <file id="file-141"/>
              </clipitem>
              <clipitem frameBlend="FALSE" id="clipitem-287">
                <name>Luca.140.png</name>
                <masterclipid>masterclip-142</masterclipid>
                <rate>
                  <timebase>24</timebase>
                  <ntsc>FALSE</ntsc>
                </rate>
                <duration>1</duration>
                <enabled>TRUE</enabled>
                <alphatype>straight</alphatype>
                <rate>
                  <timebase>24</timebase>
                  <ntsc>FALSE</ntsc>
                </rate>
                <enabled>TRUE</enabled>
                <start>140</start>
                <end>141</end>
                <file id="file-142"/>
              </clipitem>
              <clipitem frameBlend="FALSE" id="clipitem-288">
                <name>Luca.141.png</name>
                <masterclipid>masterclip-143</masterclipid>
                <rate>
                  <timebase>24</timebase>
                  <ntsc>FALSE</ntsc>
                </rate>
                <duration>1</duration>
                <enabled>TRUE</enabled>
                <alphatype>straight</alphatype>
                <rate>
                  <timebase>24</timebase>
                  <ntsc>FALSE</ntsc>
                </rate>
                <enabled>TRUE</enabled>
                <start>141</start>
                <end>142</end>
                <file id="file-143"/>
              </clipitem>
              <clipitem frameBlend="FALSE" id="clipitem-289">
                <name>Luca.142.png</name>
                <masterclipid>masterclip-144</masterclipid>
                <rate>
                  <timebase>24</timebase>
                  <ntsc>FALSE</ntsc>
                </rate>
                <duration>1</duration>
                <enabled>TRUE</enabled>
                <alphatype>straight</alphatype>
                <rate>
                  <timebase>24</timebase>
                  <ntsc>FALSE</ntsc>
                </rate>
                <enabled>TRUE</enabled>
                <start>142</start>
                <end>143</end>
                <file id="file-144"/>
              </clipitem>
              <clipitem frameBlend="FALSE" id="clipitem-290">
                <name>Luca.143.png</name>
                <masterclipid>masterclip-145</masterclipid>
                <rate>
                  <timebase>24</timebase>
                  <ntsc>FALSE</ntsc>
                </rate>
                <duration>1</duration>
                <enabled>TRUE</enabled>
                <alphatype>straight</alphatype>
                <rate>
                  <timebase>24</timebase>
                  <ntsc>FALSE</ntsc>
                </rate>
                <enabled>TRUE</enabled>
                <start>143</start>
                <end>144</end>
                <file id="file-145"/>
              </clipitem>
            </track>
            <format>
              <samplecharacteristics>
                <anamorphic>FALSE</anamorphic>
                <pixelaspectratio>square</pixelaspectratio>
                <fielddominance>none</fielddominance>
                <width>686</width>
                <height>510</height>
                <rate>
                  <timebase>24</timebase>
                  <ntsc>FALSE</ntsc>
                </rate>
              </samplecharacteristics>
            </format>
          </video>
          <audio>
            <numOutputChannels>2</numOutputChannels>
            <track frameBlend="FALSE" premiereChannelType="Stereo">
              <clipitem frameBlend="FALSE" id="clipitem-1" premiereChannelType="stereo">
                <name>Luca.wav</name>
                <masterclipid>masterclip-1</masterclipid>
                <rate>
                  <timebase>24</timebase>
                  <ntsc>FALSE</ntsc>
                </rate>
                <start>0</start>
                <end>144</end>
                <in>0</in>
                <out>144</out>
                <sourcetrack>
                  <mediatype>audio</mediatype>
                  <trackindex>1</trackindex>
                </sourcetrack>
                <link>
                  <linkclipref>clipitem-1</linkclipref>
                  <mediatype>audio</mediatype>
                  <trackindex>1</trackindex>
                  <clipindex>1</clipindex>
                  <groupindex>1</groupindex>
                </link>
                <link>
                  <linkclipref>clipitem-2</linkclipref>
                  <mediatype>audio</mediatype>
                  <trackindex>2</trackindex>
                  <clipindex>1</clipindex>
                  <groupindex>1</groupindex>
                </link>
                <file id="file-1"/>
              </clipitem>
              <enabled>TRUE</enabled>
              <outputchannelindex>1</outputchannelindex>
            </track>
            <track frameBlend="FALSE" premiereChannelType="Stereo">
              <clipitem frameBlend="FALSE" id="clipitem-2" premiereChannelType="stereo">
                <name>Luca.wav</name>
                <masterclipid>masterclip-1</masterclipid>
                <rate>
                  <timebase>24</timebase>
                  <ntsc>FALSE</ntsc>
                </rate>
                <start>0</start>
                <end>144</end>
                <in>0</in>
                <out>144</out>
                <sourcetrack>
                  <mediatype>audio</mediatype>
                  <trackindex>2</trackindex>
                </sourcetrack>
                <link>
                  <linkclipref>clipitem-1</linkclipref>
                  <mediatype>audio</mediatype>
                  <trackindex>1</trackindex>
                  <clipindex>1</clipindex>
                  <groupindex>1</groupindex>
                </link>
                <link>
                  <linkclipref>clipitem-2</linkclipref>
                  <mediatype>audio</mediatype>
                  <trackindex>2</trackindex>
                  <clipindex>1</clipindex>
                  <groupindex>1</groupindex>
                </link>
                <file id="file-1"/>
              </clipitem>
              <enabled>TRUE</enabled>
              <outputchannelindex>2</outputchannelindex>
            </track>
            <outputs>
              <group>
                <index>0</index>
                <numchannels>1</numchannels>
                <downmix>0</downmix>
                <group>
                  <index>0</index>
                </group>
              </group>
              <group>
                <index>1</index>
                <numchannels>1</numchannels>
                <downmix>0</downmix>
                <group>
                  <index>1</index>
                </group>
              </group>
            </outputs>
            <format>
              <samplecharacteristics>
                <samplerate>48000</samplerate>
                <depth>32</depth>
              </samplecharacteristics>
            </format>
          </audio>
        </media>
        <timecode>
          <rate>
            <timebase>24</timebase>
            <ntsc>FALSE</ntsc>
          </rate>
        </timecode>
      </sequence>
      <bin>
        <name>Luca Bin</name>
        <children>
          <clip explodedTracks="true" frameBlend="FALSE" id="masterclip-1">
            <uuid>9a758a44-65bc-41c3-82ef-edd4f4b13436</uuid>
            <masterclipid>masterclip-1</masterclipid>
            <ismasterclip>TRUE</ismasterclip>
            <duration>144</duration>
            <in>0</in>
            <out>144</out>
            <name>Luca.wav</name>
            <rate>
              <timebase>24</timebase>
              <ntsc>FALSE</ntsc>
            </rate>
            <media>
              <audio>
                <track>
                  <clipitem frameBlend="FALSE" id="clipitem-1">
                    <name>Luca.wav</name>
                    <masterclipid>masterclip-1</masterclipid>
                    <rate>
                      <timebase>24</timebase>
                      <ntsc>FALSE</ntsc>
                    </rate>
                    <file id="file-1">
                      <name>Luca.wav</name>
                      <pathurl>file://localhost/Users/antoniochiappetta/OneDrive - Aalto University/University/Aalto/Hackatons/Junction/Junction2019-IoK-security_awareness_kids/Assets/Team Animations/Image Sequences/Luca/Luca.wav</pathurl>
                      <rate>
                        <timebase>24</timebase>
                        <ntsc>FALSE</ntsc>
                      </rate>
                      <duration>144</duration>
                      <timecode>
                        <rate>
                          <timebase>24</timebase>
                          <ntsc>FALSE</ntsc>
                        </rate>
                      </timecode>
                      <media>
                        <audio>
                          <samplecharacteristics>
                            <samplerate>48000</samplerate>
                            <depth>32</depth>
                          </samplecharacteristics>
                          <channelcount>2</channelcount>
                        </audio>
                      </media>
                    </file>
                    <sourcetrack>
                      <mediatype>audio</mediatype>
                      <trackindex>1</trackindex>
                    </sourcetrack>
                    <link>
                      <linkclipref>clipitem-1</linkclipref>
                      <mediatype>audio</mediatype>
                      <trackindex>1</trackindex>
                      <clipindex>1</clipindex>
                      <groupindex>1</groupindex>
                    </link>
                    <link>
                      <linkclipref>clipitem-2</linkclipref>
                      <mediatype>audio</mediatype>
                      <trackindex>2</trackindex>
                      <clipindex>1</clipindex>
                      <groupindex>1</groupindex>
                    </link>
                  </clipitem>
                </track>
                <track>
                  <clipitem frameBlend="FALSE" id="clipitem-2">
                    <name>Luca.wav</name>
                    <masterclipid>masterclip-1</masterclipid>
                    <rate>
                      <timebase>24</timebase>
                      <ntsc>FALSE</ntsc>
                    </rate>
                    <sourcetrack>
                      <mediatype>audio</mediatype>
                      <trackindex>2</trackindex>
                    </sourcetrack>
                    <link>
                      <linkclipref>clipitem-1</linkclipref>
                      <mediatype>audio</mediatype>
                      <trackindex>1</trackindex>
                      <clipindex>1</clipindex>
                      <groupindex>1</groupindex>
                    </link>
                    <link>
                      <linkclipref>clipitem-2</linkclipref>
                      <mediatype>audio</mediatype>
                      <trackindex>2</trackindex>
                      <clipindex>1</clipindex>
                      <groupindex>1</groupindex>
                    </link>
                  </clipitem>
                </track>
              </audio>
            </media>
          </clip>
          <clip explodedTracks="true" frameBlend="FALSE" id="masterclip-2">
            <uuid>1b499f2f-d29d-4795-9e4d-bd976202d75c</uuid>
            <masterclipid>masterclip-2</masterclipid>
            <ismasterclip>TRUE</ismasterclip>
            <duration>144</duration>
            <in>0</in>
            <out>144</out>
            <name>Luca.000.png</name>
            <rate>
              <timebase>24</timebase>
              <ntsc>FALSE</ntsc>
            </rate>
            <media>
              <video>
                <track>
                  <clipitem frameBlend="FALSE" id="clipitem-3">
                    <name>Luca.000.png</name>
                    <masterclipid>masterclip-2</masterclipid>
                    <rate>
                      <timebase>24</timebase>
                      <ntsc>FALSE</ntsc>
                    </rate>
                    <alphatype>straight</alphatype>
                    <pixelaspectratio>square</pixelaspectratio>
                    <anamorphic>FALSE</anamorphic>
                    <file id="file-2">
                      <name>Luca.000.png</name>
                      <pathurl>file://localhost/Users/antoniochiappetta/OneDrive - Aalto University/University/Aalto/Hackatons/Junction/Junction2019-IoK-security_awareness_kids/Assets/Team Animations/Image Sequences/Luca/Luca.000.png</pathurl>
                      <rate>
                        <timebase>24</timebase>
                        <ntsc>FALSE</ntsc>
                      </rate>
                      <duration>144</duration>
                      <timecode>
                        <rate>
                          <timebase>24</timebase>
                          <ntsc>FALSE</ntsc>
                        </rate>
                      </timecode>
                      <media>
                        <video>
                          <duration>1</duration>
                          <samplecharacteristics>
                            <anamorphic>FALSE</anamorphic>
                            <pixelaspectratio>square</pixelaspectratio>
                            <fielddominance>none</fielddominance>
                            <width>686</width>
                            <height>510</height>
                          </samplecharacteristics>
                        </video>
                      </media>
                    </file>
                  </clipitem>
                </track>
              </video>
            </media>
          </clip>
          <clip explodedTracks="true" frameBlend="FALSE" id="masterclip-3">
            <uuid>ec7fd9a8-eca4-47f8-aedd-7b80204dee6f</uuid>
            <masterclipid>masterclip-3</masterclipid>
            <ismasterclip>TRUE</ismasterclip>
            <duration>144</duration>
            <in>0</in>
            <out>144</out>
            <name>Luca.001.png</name>
            <rate>
              <timebase>24</timebase>
              <ntsc>FALSE</ntsc>
            </rate>
            <media>
              <video>
                <track>
                  <clipitem frameBlend="FALSE" id="clipitem-4">
                    <name>Luca.001.png</name>
                    <masterclipid>masterclip-3</masterclipid>
                    <rate>
                      <timebase>24</timebase>
                      <ntsc>FALSE</ntsc>
                    </rate>
                    <alphatype>straight</alphatype>
                    <pixelaspectratio>square</pixelaspectratio>
                    <anamorphic>FALSE</anamorphic>
                    <file id="file-3">
                      <name>Luca.001.png</name>
                      <pathurl>file://localhost/Users/antoniochiappetta/OneDrive - Aalto University/University/Aalto/Hackatons/Junction/Junction2019-IoK-security_awareness_kids/Assets/Team Animations/Image Sequences/Luca/Luca.001.png</pathurl>
                      <rate>
                        <timebase>24</timebase>
                        <ntsc>FALSE</ntsc>
                      </rate>
                      <duration>144</duration>
                      <timecode>
                        <rate>
                          <timebase>24</timebase>
                          <ntsc>FALSE</ntsc>
                        </rate>
                      </timecode>
                      <media>
                        <video>
                          <duration>1</duration>
                          <samplecharacteristics>
                            <anamorphic>FALSE</anamorphic>
                            <pixelaspectratio>square</pixelaspectratio>
                            <fielddominance>none</fielddominance>
                            <width>686</width>
                            <height>510</height>
                          </samplecharacteristics>
                        </video>
                      </media>
                    </file>
                  </clipitem>
                </track>
              </video>
            </media>
          </clip>
          <clip explodedTracks="true" frameBlend="FALSE" id="masterclip-4">
            <uuid>82ee4a5b-2cfc-4591-bc87-359c6566454f</uuid>
            <masterclipid>masterclip-4</masterclipid>
            <ismasterclip>TRUE</ismasterclip>
            <duration>144</duration>
            <in>0</in>
            <out>144</out>
            <name>Luca.002.png</name>
            <rate>
              <timebase>24</timebase>
              <ntsc>FALSE</ntsc>
            </rate>
            <media>
              <video>
                <track>
                  <clipitem frameBlend="FALSE" id="clipitem-5">
                    <name>Luca.002.png</name>
                    <masterclipid>masterclip-4</masterclipid>
                    <rate>
                      <timebase>24</timebase>
                      <ntsc>FALSE</ntsc>
                    </rate>
                    <alphatype>straight</alphatype>
                    <pixelaspectratio>square</pixelaspectratio>
                    <anamorphic>FALSE</anamorphic>
                    <file id="file-4">
                      <name>Luca.002.png</name>
                      <pathurl>file://localhost/Users/antoniochiappetta/OneDrive - Aalto University/University/Aalto/Hackatons/Junction/Junction2019-IoK-security_awareness_kids/Assets/Team Animations/Image Sequences/Luca/Luca.002.png</pathurl>
                      <rate>
                        <timebase>24</timebase>
                        <ntsc>FALSE</ntsc>
                      </rate>
                      <duration>144</duration>
                      <timecode>
                        <rate>
                          <timebase>24</timebase>
                          <ntsc>FALSE</ntsc>
                        </rate>
                      </timecode>
                      <media>
                        <video>
                          <duration>1</duration>
                          <samplecharacteristics>
                            <anamorphic>FALSE</anamorphic>
                            <pixelaspectratio>square</pixelaspectratio>
                            <fielddominance>none</fielddominance>
                            <width>686</width>
                            <height>510</height>
                          </samplecharacteristics>
                        </video>
                      </media>
                    </file>
                  </clipitem>
                </track>
              </video>
            </media>
          </clip>
          <clip explodedTracks="true" frameBlend="FALSE" id="masterclip-5">
            <uuid>b14e085d-c8b8-4de8-9753-11700c225d6d</uuid>
            <masterclipid>masterclip-5</masterclipid>
            <ismasterclip>TRUE</ismasterclip>
            <duration>144</duration>
            <in>0</in>
            <out>144</out>
            <name>Luca.003.png</name>
            <rate>
              <timebase>24</timebase>
              <ntsc>FALSE</ntsc>
            </rate>
            <media>
              <video>
                <track>
                  <clipitem frameBlend="FALSE" id="clipitem-6">
                    <name>Luca.003.png</name>
                    <masterclipid>masterclip-5</masterclipid>
                    <rate>
                      <timebase>24</timebase>
                      <ntsc>FALSE</ntsc>
                    </rate>
                    <alphatype>straight</alphatype>
                    <pixelaspectratio>square</pixelaspectratio>
                    <anamorphic>FALSE</anamorphic>
                    <file id="file-5">
                      <name>Luca.003.png</name>
                      <pathurl>file://localhost/Users/antoniochiappetta/OneDrive - Aalto University/University/Aalto/Hackatons/Junction/Junction2019-IoK-security_awareness_kids/Assets/Team Animations/Image Sequences/Luca/Luca.003.png</pathurl>
                      <rate>
                        <timebase>24</timebase>
                        <ntsc>FALSE</ntsc>
                      </rate>
                      <duration>144</duration>
                      <timecode>
                        <rate>
                          <timebase>24</timebase>
                          <ntsc>FALSE</ntsc>
                        </rate>
                      </timecode>
                      <media>
                        <video>
                          <duration>1</duration>
                          <samplecharacteristics>
                            <anamorphic>FALSE</anamorphic>
                            <pixelaspectratio>square</pixelaspectratio>
                            <fielddominance>none</fielddominance>
                            <width>686</width>
                            <height>510</height>
                          </samplecharacteristics>
                        </video>
                      </media>
                    </file>
                  </clipitem>
                </track>
              </video>
            </media>
          </clip>
          <clip explodedTracks="true" frameBlend="FALSE" id="masterclip-6">
            <uuid>861164e8-72f1-4c84-a8b2-88a038c5cef6</uuid>
            <masterclipid>masterclip-6</masterclipid>
            <ismasterclip>TRUE</ismasterclip>
            <duration>144</duration>
            <in>0</in>
            <out>144</out>
            <name>Luca.004.png</name>
            <rate>
              <timebase>24</timebase>
              <ntsc>FALSE</ntsc>
            </rate>
            <media>
              <video>
                <track>
                  <clipitem frameBlend="FALSE" id="clipitem-7">
                    <name>Luca.004.png</name>
                    <masterclipid>masterclip-6</masterclipid>
                    <rate>
                      <timebase>24</timebase>
                      <ntsc>FALSE</ntsc>
                    </rate>
                    <alphatype>straight</alphatype>
                    <pixelaspectratio>square</pixelaspectratio>
                    <anamorphic>FALSE</anamorphic>
                    <file id="file-6">
                      <name>Luca.004.png</name>
                      <pathurl>file://localhost/Users/antoniochiappetta/OneDrive - Aalto University/University/Aalto/Hackatons/Junction/Junction2019-IoK-security_awareness_kids/Assets/Team Animations/Image Sequences/Luca/Luca.004.png</pathurl>
                      <rate>
                        <timebase>24</timebase>
                        <ntsc>FALSE</ntsc>
                      </rate>
                      <duration>144</duration>
                      <timecode>
                        <rate>
                          <timebase>24</timebase>
                          <ntsc>FALSE</ntsc>
                        </rate>
                      </timecode>
                      <media>
                        <video>
                          <duration>1</duration>
                          <samplecharacteristics>
                            <anamorphic>FALSE</anamorphic>
                            <pixelaspectratio>square</pixelaspectratio>
                            <fielddominance>none</fielddominance>
                            <width>686</width>
                            <height>510</height>
                          </samplecharacteristics>
                        </video>
                      </media>
                    </file>
                  </clipitem>
                </track>
              </video>
            </media>
          </clip>
          <clip explodedTracks="true" frameBlend="FALSE" id="masterclip-7">
            <uuid>9402e051-80db-4166-8f88-08bd72ece640</uuid>
            <masterclipid>masterclip-7</masterclipid>
            <ismasterclip>TRUE</ismasterclip>
            <duration>144</duration>
            <in>0</in>
            <out>144</out>
            <name>Luca.005.png</name>
            <rate>
              <timebase>24</timebase>
              <ntsc>FALSE</ntsc>
            </rate>
            <media>
              <video>
                <track>
                  <clipitem frameBlend="FALSE" id="clipitem-8">
                    <name>Luca.005.png</name>
                    <masterclipid>masterclip-7</masterclipid>
                    <rate>
                      <timebase>24</timebase>
                      <ntsc>FALSE</ntsc>
                    </rate>
                    <alphatype>straight</alphatype>
                    <pixelaspectratio>square</pixelaspectratio>
                    <anamorphic>FALSE</anamorphic>
                    <file id="file-7">
                      <name>Luca.005.png</name>
                      <pathurl>file://localhost/Users/antoniochiappetta/OneDrive - Aalto University/University/Aalto/Hackatons/Junction/Junction2019-IoK-security_awareness_kids/Assets/Team Animations/Image Sequences/Luca/Luca.005.png</pathurl>
                      <rate>
                        <timebase>24</timebase>
                        <ntsc>FALSE</ntsc>
                      </rate>
                      <duration>144</duration>
                      <timecode>
                        <rate>
                          <timebase>24</timebase>
                          <ntsc>FALSE</ntsc>
                        </rate>
                      </timecode>
                      <media>
                        <video>
                          <duration>1</duration>
                          <samplecharacteristics>
                            <anamorphic>FALSE</anamorphic>
                            <pixelaspectratio>square</pixelaspectratio>
                            <fielddominance>none</fielddominance>
                            <width>686</width>
                            <height>510</height>
                          </samplecharacteristics>
                        </video>
                      </media>
                    </file>
                  </clipitem>
                </track>
              </video>
            </media>
          </clip>
          <clip explodedTracks="true" frameBlend="FALSE" id="masterclip-8">
            <uuid>b23e7239-4eff-49a5-837a-0596b49e618b</uuid>
            <masterclipid>masterclip-8</masterclipid>
            <ismasterclip>TRUE</ismasterclip>
            <duration>144</duration>
            <in>0</in>
            <out>144</out>
            <name>Luca.006.png</name>
            <rate>
              <timebase>24</timebase>
              <ntsc>FALSE</ntsc>
            </rate>
            <media>
              <video>
                <track>
                  <clipitem frameBlend="FALSE" id="clipitem-9">
                    <name>Luca.006.png</name>
                    <masterclipid>masterclip-8</masterclipid>
                    <rate>
                      <timebase>24</timebase>
                      <ntsc>FALSE</ntsc>
                    </rate>
                    <alphatype>straight</alphatype>
                    <pixelaspectratio>square</pixelaspectratio>
                    <anamorphic>FALSE</anamorphic>
                    <file id="file-8">
                      <name>Luca.006.png</name>
                      <pathurl>file://localhost/Users/antoniochiappetta/OneDrive - Aalto University/University/Aalto/Hackatons/Junction/Junction2019-IoK-security_awareness_kids/Assets/Team Animations/Image Sequences/Luca/Luca.006.png</pathurl>
                      <rate>
                        <timebase>24</timebase>
                        <ntsc>FALSE</ntsc>
                      </rate>
                      <duration>144</duration>
                      <timecode>
                        <rate>
                          <timebase>24</timebase>
                          <ntsc>FALSE</ntsc>
                        </rate>
                      </timecode>
                      <media>
                        <video>
                          <duration>1</duration>
                          <samplecharacteristics>
                            <anamorphic>FALSE</anamorphic>
                            <pixelaspectratio>square</pixelaspectratio>
                            <fielddominance>none</fielddominance>
                            <width>686</width>
                            <height>510</height>
                          </samplecharacteristics>
                        </video>
                      </media>
                    </file>
                  </clipitem>
                </track>
              </video>
            </media>
          </clip>
          <clip explodedTracks="true" frameBlend="FALSE" id="masterclip-9">
            <uuid>5c0ba225-5e35-40d5-a40e-dc1b15840d6a</uuid>
            <masterclipid>masterclip-9</masterclipid>
            <ismasterclip>TRUE</ismasterclip>
            <duration>144</duration>
            <in>0</in>
            <out>144</out>
            <name>Luca.007.png</name>
            <rate>
              <timebase>24</timebase>
              <ntsc>FALSE</ntsc>
            </rate>
            <media>
              <video>
                <track>
                  <clipitem frameBlend="FALSE" id="clipitem-10">
                    <name>Luca.007.png</name>
                    <masterclipid>masterclip-9</masterclipid>
                    <rate>
                      <timebase>24</timebase>
                      <ntsc>FALSE</ntsc>
                    </rate>
                    <alphatype>straight</alphatype>
                    <pixelaspectratio>square</pixelaspectratio>
                    <anamorphic>FALSE</anamorphic>
                    <file id="file-9">
                      <name>Luca.007.png</name>
                      <pathurl>file://localhost/Users/antoniochiappetta/OneDrive - Aalto University/University/Aalto/Hackatons/Junction/Junction2019-IoK-security_awareness_kids/Assets/Team Animations/Image Sequences/Luca/Luca.007.png</pathurl>
                      <rate>
                        <timebase>24</timebase>
                        <ntsc>FALSE</ntsc>
                      </rate>
                      <duration>144</duration>
                      <timecode>
                        <rate>
                          <timebase>24</timebase>
                          <ntsc>FALSE</ntsc>
                        </rate>
                      </timecode>
                      <media>
                        <video>
                          <duration>1</duration>
                          <samplecharacteristics>
                            <anamorphic>FALSE</anamorphic>
                            <pixelaspectratio>square</pixelaspectratio>
                            <fielddominance>none</fielddominance>
                            <width>686</width>
                            <height>510</height>
                          </samplecharacteristics>
                        </video>
                      </media>
                    </file>
                  </clipitem>
                </track>
              </video>
            </media>
          </clip>
          <clip explodedTracks="true" frameBlend="FALSE" id="masterclip-10">
            <uuid>130111b6-2df1-43b8-bbb1-d27218ccc8c8</uuid>
            <masterclipid>masterclip-10</masterclipid>
            <ismasterclip>TRUE</ismasterclip>
            <duration>144</duration>
            <in>0</in>
            <out>144</out>
            <name>Luca.008.png</name>
            <rate>
              <timebase>24</timebase>
              <ntsc>FALSE</ntsc>
            </rate>
            <media>
              <video>
                <track>
                  <clipitem frameBlend="FALSE" id="clipitem-11">
                    <name>Luca.008.png</name>
                    <masterclipid>masterclip-10</masterclipid>
                    <rate>
                      <timebase>24</timebase>
                      <ntsc>FALSE</ntsc>
                    </rate>
                    <alphatype>straight</alphatype>
                    <pixelaspectratio>square</pixelaspectratio>
                    <anamorphic>FALSE</anamorphic>
                    <file id="file-10">
                      <name>Luca.008.png</name>
                      <pathurl>file://localhost/Users/antoniochiappetta/OneDrive - Aalto University/University/Aalto/Hackatons/Junction/Junction2019-IoK-security_awareness_kids/Assets/Team Animations/Image Sequences/Luca/Luca.008.png</pathurl>
                      <rate>
                        <timebase>24</timebase>
                        <ntsc>FALSE</ntsc>
                      </rate>
                      <duration>144</duration>
                      <timecode>
                        <rate>
                          <timebase>24</timebase>
                          <ntsc>FALSE</ntsc>
                        </rate>
                      </timecode>
                      <media>
                        <video>
                          <duration>1</duration>
                          <samplecharacteristics>
                            <anamorphic>FALSE</anamorphic>
                            <pixelaspectratio>square</pixelaspectratio>
                            <fielddominance>none</fielddominance>
                            <width>686</width>
                            <height>510</height>
                          </samplecharacteristics>
                        </video>
                      </media>
                    </file>
                  </clipitem>
                </track>
              </video>
            </media>
          </clip>
          <clip explodedTracks="true" frameBlend="FALSE" id="masterclip-11">
            <uuid>ce6425da-2f9d-41a1-9f17-0a254fa9bc8d</uuid>
            <masterclipid>masterclip-11</masterclipid>
            <ismasterclip>TRUE</ismasterclip>
            <duration>144</duration>
            <in>0</in>
            <out>144</out>
            <name>Luca.009.png</name>
            <rate>
              <timebase>24</timebase>
              <ntsc>FALSE</ntsc>
            </rate>
            <media>
              <video>
                <track>
                  <clipitem frameBlend="FALSE" id="clipitem-12">
                    <name>Luca.009.png</name>
                    <masterclipid>masterclip-11</masterclipid>
                    <rate>
                      <timebase>24</timebase>
                      <ntsc>FALSE</ntsc>
                    </rate>
                    <alphatype>straight</alphatype>
                    <pixelaspectratio>square</pixelaspectratio>
                    <anamorphic>FALSE</anamorphic>
                    <file id="file-11">
                      <name>Luca.009.png</name>
                      <pathurl>file://localhost/Users/antoniochiappetta/OneDrive - Aalto University/University/Aalto/Hackatons/Junction/Junction2019-IoK-security_awareness_kids/Assets/Team Animations/Image Sequences/Luca/Luca.009.png</pathurl>
                      <rate>
                        <timebase>24</timebase>
                        <ntsc>FALSE</ntsc>
                      </rate>
                      <duration>144</duration>
                      <timecode>
                        <rate>
                          <timebase>24</timebase>
                          <ntsc>FALSE</ntsc>
                        </rate>
                      </timecode>
                      <media>
                        <video>
                          <duration>1</duration>
                          <samplecharacteristics>
                            <anamorphic>FALSE</anamorphic>
                            <pixelaspectratio>square</pixelaspectratio>
                            <fielddominance>none</fielddominance>
                            <width>686</width>
                            <height>510</height>
                          </samplecharacteristics>
                        </video>
                      </media>
                    </file>
                  </clipitem>
                </track>
              </video>
            </media>
          </clip>
          <clip explodedTracks="true" frameBlend="FALSE" id="masterclip-12">
            <uuid>e6442a58-8032-4c6c-9a16-6e9936405046</uuid>
            <masterclipid>masterclip-12</masterclipid>
            <ismasterclip>TRUE</ismasterclip>
            <duration>144</duration>
            <in>0</in>
            <out>144</out>
            <name>Luca.010.png</name>
            <rate>
              <timebase>24</timebase>
              <ntsc>FALSE</ntsc>
            </rate>
            <media>
              <video>
                <track>
                  <clipitem frameBlend="FALSE" id="clipitem-13">
                    <name>Luca.010.png</name>
                    <masterclipid>masterclip-12</masterclipid>
                    <rate>
                      <timebase>24</timebase>
                      <ntsc>FALSE</ntsc>
                    </rate>
                    <alphatype>straight</alphatype>
                    <pixelaspectratio>square</pixelaspectratio>
                    <anamorphic>FALSE</anamorphic>
                    <file id="file-12">
                      <name>Luca.010.png</name>
                      <pathurl>file://localhost/Users/antoniochiappetta/OneDrive - Aalto University/University/Aalto/Hackatons/Junction/Junction2019-IoK-security_awareness_kids/Assets/Team Animations/Image Sequences/Luca/Luca.010.png</pathurl>
                      <rate>
                        <timebase>24</timebase>
                        <ntsc>FALSE</ntsc>
                      </rate>
                      <duration>144</duration>
                      <timecode>
                        <rate>
                          <timebase>24</timebase>
                          <ntsc>FALSE</ntsc>
                        </rate>
                      </timecode>
                      <media>
                        <video>
                          <duration>1</duration>
                          <samplecharacteristics>
                            <anamorphic>FALSE</anamorphic>
                            <pixelaspectratio>square</pixelaspectratio>
                            <fielddominance>none</fielddominance>
                            <width>686</width>
                            <height>510</height>
                          </samplecharacteristics>
                        </video>
                      </media>
                    </file>
                  </clipitem>
                </track>
              </video>
            </media>
          </clip>
          <clip explodedTracks="true" frameBlend="FALSE" id="masterclip-13">
            <uuid>f7681cc4-cbfd-4286-bb46-d1545d451b5b</uuid>
            <masterclipid>masterclip-13</masterclipid>
            <ismasterclip>TRUE</ismasterclip>
            <duration>144</duration>
            <in>0</in>
            <out>144</out>
            <name>Luca.011.png</name>
            <rate>
              <timebase>24</timebase>
              <ntsc>FALSE</ntsc>
            </rate>
            <media>
              <video>
                <track>
                  <clipitem frameBlend="FALSE" id="clipitem-14">
                    <name>Luca.011.png</name>
                    <masterclipid>masterclip-13</masterclipid>
                    <rate>
                      <timebase>24</timebase>
                      <ntsc>FALSE</ntsc>
                    </rate>
                    <alphatype>straight</alphatype>
                    <pixelaspectratio>square</pixelaspectratio>
                    <anamorphic>FALSE</anamorphic>
                    <file id="file-13">
                      <name>Luca.011.png</name>
                      <pathurl>file://localhost/Users/antoniochiappetta/OneDrive - Aalto University/University/Aalto/Hackatons/Junction/Junction2019-IoK-security_awareness_kids/Assets/Team Animations/Image Sequences/Luca/Luca.011.png</pathurl>
                      <rate>
                        <timebase>24</timebase>
                        <ntsc>FALSE</ntsc>
                      </rate>
                      <duration>144</duration>
                      <timecode>
                        <rate>
                          <timebase>24</timebase>
                          <ntsc>FALSE</ntsc>
                        </rate>
                      </timecode>
                      <media>
                        <video>
                          <duration>1</duration>
                          <samplecharacteristics>
                            <anamorphic>FALSE</anamorphic>
                            <pixelaspectratio>square</pixelaspectratio>
                            <fielddominance>none</fielddominance>
                            <width>686</width>
                            <height>510</height>
                          </samplecharacteristics>
                        </video>
                      </media>
                    </file>
                  </clipitem>
                </track>
              </video>
            </media>
          </clip>
          <clip explodedTracks="true" frameBlend="FALSE" id="masterclip-14">
            <uuid>c658f43c-7116-4e46-ab84-2de797e497ad</uuid>
            <masterclipid>masterclip-14</masterclipid>
            <ismasterclip>TRUE</ismasterclip>
            <duration>144</duration>
            <in>0</in>
            <out>144</out>
            <name>Luca.012.png</name>
            <rate>
              <timebase>24</timebase>
              <ntsc>FALSE</ntsc>
            </rate>
            <media>
              <video>
                <track>
                  <clipitem frameBlend="FALSE" id="clipitem-15">
                    <name>Luca.012.png</name>
                    <masterclipid>masterclip-14</masterclipid>
                    <rate>
                      <timebase>24</timebase>
                      <ntsc>FALSE</ntsc>
                    </rate>
                    <alphatype>straight</alphatype>
                    <pixelaspectratio>square</pixelaspectratio>
                    <anamorphic>FALSE</anamorphic>
                    <file id="file-14">
                      <name>Luca.012.png</name>
                      <pathurl>file://localhost/Users/antoniochiappetta/OneDrive - Aalto University/University/Aalto/Hackatons/Junction/Junction2019-IoK-security_awareness_kids/Assets/Team Animations/Image Sequences/Luca/Luca.012.png</pathurl>
                      <rate>
                        <timebase>24</timebase>
                        <ntsc>FALSE</ntsc>
                      </rate>
                      <duration>144</duration>
                      <timecode>
                        <rate>
                          <timebase>24</timebase>
                          <ntsc>FALSE</ntsc>
                        </rate>
                      </timecode>
                      <media>
                        <video>
                          <duration>1</duration>
                          <samplecharacteristics>
                            <anamorphic>FALSE</anamorphic>
                            <pixelaspectratio>square</pixelaspectratio>
                            <fielddominance>none</fielddominance>
                            <width>686</width>
                            <height>510</height>
                          </samplecharacteristics>
                        </video>
                      </media>
                    </file>
                  </clipitem>
                </track>
              </video>
            </media>
          </clip>
          <clip explodedTracks="true" frameBlend="FALSE" id="masterclip-15">
            <uuid>5340cd06-202a-4eee-8bc4-c64aeec91ffb</uuid>
            <masterclipid>masterclip-15</masterclipid>
            <ismasterclip>TRUE</ismasterclip>
            <duration>144</duration>
            <in>0</in>
            <out>144</out>
            <name>Luca.013.png</name>
            <rate>
              <timebase>24</timebase>
              <ntsc>FALSE</ntsc>
            </rate>
            <media>
              <video>
                <track>
                  <clipitem frameBlend="FALSE" id="clipitem-16">
                    <name>Luca.013.png</name>
                    <masterclipid>masterclip-15</masterclipid>
                    <rate>
                      <timebase>24</timebase>
                      <ntsc>FALSE</ntsc>
                    </rate>
                    <alphatype>straight</alphatype>
                    <pixelaspectratio>square</pixelaspectratio>
                    <anamorphic>FALSE</anamorphic>
                    <file id="file-15">
                      <name>Luca.013.png</name>
                      <pathurl>file://localhost/Users/antoniochiappetta/OneDrive - Aalto University/University/Aalto/Hackatons/Junction/Junction2019-IoK-security_awareness_kids/Assets/Team Animations/Image Sequences/Luca/Luca.013.png</pathurl>
                      <rate>
                        <timebase>24</timebase>
                        <ntsc>FALSE</ntsc>
                      </rate>
                      <duration>144</duration>
                      <timecode>
                        <rate>
                          <timebase>24</timebase>
                          <ntsc>FALSE</ntsc>
                        </rate>
                      </timecode>
                      <media>
                        <video>
                          <duration>1</duration>
                          <samplecharacteristics>
                            <anamorphic>FALSE</anamorphic>
                            <pixelaspectratio>square</pixelaspectratio>
                            <fielddominance>none</fielddominance>
                            <width>686</width>
                            <height>510</height>
                          </samplecharacteristics>
                        </video>
                      </media>
                    </file>
                  </clipitem>
                </track>
              </video>
            </media>
          </clip>
          <clip explodedTracks="true" frameBlend="FALSE" id="masterclip-16">
            <uuid>23437243-9934-4029-b48d-2b7bc0f84a73</uuid>
            <masterclipid>masterclip-16</masterclipid>
            <ismasterclip>TRUE</ismasterclip>
            <duration>144</duration>
            <in>0</in>
            <out>144</out>
            <name>Luca.014.png</name>
            <rate>
              <timebase>24</timebase>
              <ntsc>FALSE</ntsc>
            </rate>
            <media>
              <video>
                <track>
                  <clipitem frameBlend="FALSE" id="clipitem-17">
                    <name>Luca.014.png</name>
                    <masterclipid>masterclip-16</masterclipid>
                    <rate>
                      <timebase>24</timebase>
                      <ntsc>FALSE</ntsc>
                    </rate>
                    <alphatype>straight</alphatype>
                    <pixelaspectratio>square</pixelaspectratio>
                    <anamorphic>FALSE</anamorphic>
                    <file id="file-16">
                      <name>Luca.014.png</name>
                      <pathurl>file://localhost/Users/antoniochiappetta/OneDrive - Aalto University/University/Aalto/Hackatons/Junction/Junction2019-IoK-security_awareness_kids/Assets/Team Animations/Image Sequences/Luca/Luca.014.png</pathurl>
                      <rate>
                        <timebase>24</timebase>
                        <ntsc>FALSE</ntsc>
                      </rate>
                      <duration>144</duration>
                      <timecode>
                        <rate>
                          <timebase>24</timebase>
                          <ntsc>FALSE</ntsc>
                        </rate>
                      </timecode>
                      <media>
                        <video>
                          <duration>1</duration>
                          <samplecharacteristics>
                            <anamorphic>FALSE</anamorphic>
                            <pixelaspectratio>square</pixelaspectratio>
                            <fielddominance>none</fielddominance>
                            <width>686</width>
                            <height>510</height>
                          </samplecharacteristics>
                        </video>
                      </media>
                    </file>
                  </clipitem>
                </track>
              </video>
            </media>
          </clip>
          <clip explodedTracks="true" frameBlend="FALSE" id="masterclip-17">
            <uuid>12fabc34-d785-40dd-b7b8-f774fe5cb03f</uuid>
            <masterclipid>masterclip-17</masterclipid>
            <ismasterclip>TRUE</ismasterclip>
            <duration>144</duration>
            <in>0</in>
            <out>144</out>
            <name>Luca.015.png</name>
            <rate>
              <timebase>24</timebase>
              <ntsc>FALSE</ntsc>
            </rate>
            <media>
              <video>
                <track>
                  <clipitem frameBlend="FALSE" id="clipitem-18">
                    <name>Luca.015.png</name>
                    <masterclipid>masterclip-17</masterclipid>
                    <rate>
                      <timebase>24</timebase>
                      <ntsc>FALSE</ntsc>
                    </rate>
                    <alphatype>straight</alphatype>
                    <pixelaspectratio>square</pixelaspectratio>
                    <anamorphic>FALSE</anamorphic>
                    <file id="file-17">
                      <name>Luca.015.png</name>
                      <pathurl>file://localhost/Users/antoniochiappetta/OneDrive - Aalto University/University/Aalto/Hackatons/Junction/Junction2019-IoK-security_awareness_kids/Assets/Team Animations/Image Sequences/Luca/Luca.015.png</pathurl>
                      <rate>
                        <timebase>24</timebase>
                        <ntsc>FALSE</ntsc>
                      </rate>
                      <duration>144</duration>
                      <timecode>
                        <rate>
                          <timebase>24</timebase>
                          <ntsc>FALSE</ntsc>
                        </rate>
                      </timecode>
                      <media>
                        <video>
                          <duration>1</duration>
                          <samplecharacteristics>
                            <anamorphic>FALSE</anamorphic>
                            <pixelaspectratio>square</pixelaspectratio>
                            <fielddominance>none</fielddominance>
                            <width>686</width>
                            <height>510</height>
                          </samplecharacteristics>
                        </video>
                      </media>
                    </file>
                  </clipitem>
                </track>
              </video>
            </media>
          </clip>
          <clip explodedTracks="true" frameBlend="FALSE" id="masterclip-18">
            <uuid>dc7df3e0-d507-4cb8-a84c-52b8b3ae9bbb</uuid>
            <masterclipid>masterclip-18</masterclipid>
            <ismasterclip>TRUE</ismasterclip>
            <duration>144</duration>
            <in>0</in>
            <out>144</out>
            <name>Luca.016.png</name>
            <rate>
              <timebase>24</timebase>
              <ntsc>FALSE</ntsc>
            </rate>
            <media>
              <video>
                <track>
                  <clipitem frameBlend="FALSE" id="clipitem-19">
                    <name>Luca.016.png</name>
                    <masterclipid>masterclip-18</masterclipid>
                    <rate>
                      <timebase>24</timebase>
                      <ntsc>FALSE</ntsc>
                    </rate>
                    <alphatype>straight</alphatype>
                    <pixelaspectratio>square</pixelaspectratio>
                    <anamorphic>FALSE</anamorphic>
                    <file id="file-18">
                      <name>Luca.016.png</name>
                      <pathurl>file://localhost/Users/antoniochiappetta/OneDrive - Aalto University/University/Aalto/Hackatons/Junction/Junction2019-IoK-security_awareness_kids/Assets/Team Animations/Image Sequences/Luca/Luca.016.png</pathurl>
                      <rate>
                        <timebase>24</timebase>
                        <ntsc>FALSE</ntsc>
                      </rate>
                      <duration>144</duration>
                      <timecode>
                        <rate>
                          <timebase>24</timebase>
                          <ntsc>FALSE</ntsc>
                        </rate>
                      </timecode>
                      <media>
                        <video>
                          <duration>1</duration>
                          <samplecharacteristics>
                            <anamorphic>FALSE</anamorphic>
                            <pixelaspectratio>square</pixelaspectratio>
                            <fielddominance>none</fielddominance>
                            <width>686</width>
                            <height>510</height>
                          </samplecharacteristics>
                        </video>
                      </media>
                    </file>
                  </clipitem>
                </track>
              </video>
            </media>
          </clip>
          <clip explodedTracks="true" frameBlend="FALSE" id="masterclip-19">
            <uuid>3c83a4e5-814f-472c-bf41-0f8cf4d3cd96</uuid>
            <masterclipid>masterclip-19</masterclipid>
            <ismasterclip>TRUE</ismasterclip>
            <duration>144</duration>
            <in>0</in>
            <out>144</out>
            <name>Luca.017.png</name>
            <rate>
              <timebase>24</timebase>
              <ntsc>FALSE</ntsc>
            </rate>
            <media>
              <video>
                <track>
                  <clipitem frameBlend="FALSE" id="clipitem-20">
                    <name>Luca.017.png</name>
                    <masterclipid>masterclip-19</masterclipid>
                    <rate>
                      <timebase>24</timebase>
                      <ntsc>FALSE</ntsc>
                    </rate>
                    <alphatype>straight</alphatype>
                    <pixelaspectratio>square</pixelaspectratio>
                    <anamorphic>FALSE</anamorphic>
                    <file id="file-19">
                      <name>Luca.017.png</name>
                      <pathurl>file://localhost/Users/antoniochiappetta/OneDrive - Aalto University/University/Aalto/Hackatons/Junction/Junction2019-IoK-security_awareness_kids/Assets/Team Animations/Image Sequences/Luca/Luca.017.png</pathurl>
                      <rate>
                        <timebase>24</timebase>
                        <ntsc>FALSE</ntsc>
                      </rate>
                      <duration>144</duration>
                      <timecode>
                        <rate>
                          <timebase>24</timebase>
                          <ntsc>FALSE</ntsc>
                        </rate>
                      </timecode>
                      <media>
                        <video>
                          <duration>1</duration>
                          <samplecharacteristics>
                            <anamorphic>FALSE</anamorphic>
                            <pixelaspectratio>square</pixelaspectratio>
                            <fielddominance>none</fielddominance>
                            <width>686</width>
                            <height>510</height>
                          </samplecharacteristics>
                        </video>
                      </media>
                    </file>
                  </clipitem>
                </track>
              </video>
            </media>
          </clip>
          <clip explodedTracks="true" frameBlend="FALSE" id="masterclip-20">
            <uuid>fdac4b2a-bf1a-4578-b4b7-9ae252b78a95</uuid>
            <masterclipid>masterclip-20</masterclipid>
            <ismasterclip>TRUE</ismasterclip>
            <duration>144</duration>
            <in>0</in>
            <out>144</out>
            <name>Luca.018.png</name>
            <rate>
              <timebase>24</timebase>
              <ntsc>FALSE</ntsc>
            </rate>
            <media>
              <video>
                <track>
                  <clipitem frameBlend="FALSE" id="clipitem-21">
                    <name>Luca.018.png</name>
                    <masterclipid>masterclip-20</masterclipid>
                    <rate>
                      <timebase>24</timebase>
                      <ntsc>FALSE</ntsc>
                    </rate>
                    <alphatype>straight</alphatype>
                    <pixelaspectratio>square</pixelaspectratio>
                    <anamorphic>FALSE</anamorphic>
                    <file id="file-20">
                      <name>Luca.018.png</name>
                      <pathurl>file://localhost/Users/antoniochiappetta/OneDrive - Aalto University/University/Aalto/Hackatons/Junction/Junction2019-IoK-security_awareness_kids/Assets/Team Animations/Image Sequences/Luca/Luca.018.png</pathurl>
                      <rate>
                        <timebase>24</timebase>
                        <ntsc>FALSE</ntsc>
                      </rate>
                      <duration>144</duration>
                      <timecode>
                        <rate>
                          <timebase>24</timebase>
                          <ntsc>FALSE</ntsc>
                        </rate>
                      </timecode>
                      <media>
                        <video>
                          <duration>1</duration>
                          <samplecharacteristics>
                            <anamorphic>FALSE</anamorphic>
                            <pixelaspectratio>square</pixelaspectratio>
                            <fielddominance>none</fielddominance>
                            <width>686</width>
                            <height>510</height>
                          </samplecharacteristics>
                        </video>
                      </media>
                    </file>
                  </clipitem>
                </track>
              </video>
            </media>
          </clip>
          <clip explodedTracks="true" frameBlend="FALSE" id="masterclip-21">
            <uuid>069fdb34-b48c-460c-8754-aaa3673fd036</uuid>
            <masterclipid>masterclip-21</masterclipid>
            <ismasterclip>TRUE</ismasterclip>
            <duration>144</duration>
            <in>0</in>
            <out>144</out>
            <name>Luca.019.png</name>
            <rate>
              <timebase>24</timebase>
              <ntsc>FALSE</ntsc>
            </rate>
            <media>
              <video>
                <track>
                  <clipitem frameBlend="FALSE" id="clipitem-22">
                    <name>Luca.019.png</name>
                    <masterclipid>masterclip-21</masterclipid>
                    <rate>
                      <timebase>24</timebase>
                      <ntsc>FALSE</ntsc>
                    </rate>
                    <alphatype>straight</alphatype>
                    <pixelaspectratio>square</pixelaspectratio>
                    <anamorphic>FALSE</anamorphic>
                    <file id="file-21">
                      <name>Luca.019.png</name>
                      <pathurl>file://localhost/Users/antoniochiappetta/OneDrive - Aalto University/University/Aalto/Hackatons/Junction/Junction2019-IoK-security_awareness_kids/Assets/Team Animations/Image Sequences/Luca/Luca.019.png</pathurl>
                      <rate>
                        <timebase>24</timebase>
                        <ntsc>FALSE</ntsc>
                      </rate>
                      <duration>144</duration>
                      <timecode>
                        <rate>
                          <timebase>24</timebase>
                          <ntsc>FALSE</ntsc>
                        </rate>
                      </timecode>
                      <media>
                        <video>
                          <duration>1</duration>
                          <samplecharacteristics>
                            <anamorphic>FALSE</anamorphic>
                            <pixelaspectratio>square</pixelaspectratio>
                            <fielddominance>none</fielddominance>
                            <width>686</width>
                            <height>510</height>
                          </samplecharacteristics>
                        </video>
                      </media>
                    </file>
                  </clipitem>
                </track>
              </video>
            </media>
          </clip>
          <clip explodedTracks="true" frameBlend="FALSE" id="masterclip-22">
            <uuid>86976e0a-d587-42ef-867f-31635b6b9720</uuid>
            <masterclipid>masterclip-22</masterclipid>
            <ismasterclip>TRUE</ismasterclip>
            <duration>144</duration>
            <in>0</in>
            <out>144</out>
            <name>Luca.020.png</name>
            <rate>
              <timebase>24</timebase>
              <ntsc>FALSE</ntsc>
            </rate>
            <media>
              <video>
                <track>
                  <clipitem frameBlend="FALSE" id="clipitem-23">
                    <name>Luca.020.png</name>
                    <masterclipid>masterclip-22</masterclipid>
                    <rate>
                      <timebase>24</timebase>
                      <ntsc>FALSE</ntsc>
                    </rate>
                    <alphatype>straight</alphatype>
                    <pixelaspectratio>square</pixelaspectratio>
                    <anamorphic>FALSE</anamorphic>
                    <file id="file-22">
                      <name>Luca.020.png</name>
                      <pathurl>file://localhost/Users/antoniochiappetta/OneDrive - Aalto University/University/Aalto/Hackatons/Junction/Junction2019-IoK-security_awareness_kids/Assets/Team Animations/Image Sequences/Luca/Luca.020.png</pathurl>
                      <rate>
                        <timebase>24</timebase>
                        <ntsc>FALSE</ntsc>
                      </rate>
                      <duration>144</duration>
                      <timecode>
                        <rate>
                          <timebase>24</timebase>
                          <ntsc>FALSE</ntsc>
                        </rate>
                      </timecode>
                      <media>
                        <video>
                          <duration>1</duration>
                          <samplecharacteristics>
                            <anamorphic>FALSE</anamorphic>
                            <pixelaspectratio>square</pixelaspectratio>
                            <fielddominance>none</fielddominance>
                            <width>686</width>
                            <height>510</height>
                          </samplecharacteristics>
                        </video>
                      </media>
                    </file>
                  </clipitem>
                </track>
              </video>
            </media>
          </clip>
          <clip explodedTracks="true" frameBlend="FALSE" id="masterclip-23">
            <uuid>3fe385ac-ef75-4ea1-9c3f-b844d592960b</uuid>
            <masterclipid>masterclip-23</masterclipid>
            <ismasterclip>TRUE</ismasterclip>
            <duration>144</duration>
            <in>0</in>
            <out>144</out>
            <name>Luca.021.png</name>
            <rate>
              <timebase>24</timebase>
              <ntsc>FALSE</ntsc>
            </rate>
            <media>
              <video>
                <track>
                  <clipitem frameBlend="FALSE" id="clipitem-24">
                    <name>Luca.021.png</name>
                    <masterclipid>masterclip-23</masterclipid>
                    <rate>
                      <timebase>24</timebase>
                      <ntsc>FALSE</ntsc>
                    </rate>
                    <alphatype>straight</alphatype>
                    <pixelaspectratio>square</pixelaspectratio>
                    <anamorphic>FALSE</anamorphic>
                    <file id="file-23">
                      <name>Luca.021.png</name>
                      <pathurl>file://localhost/Users/antoniochiappetta/OneDrive - Aalto University/University/Aalto/Hackatons/Junction/Junction2019-IoK-security_awareness_kids/Assets/Team Animations/Image Sequences/Luca/Luca.021.png</pathurl>
                      <rate>
                        <timebase>24</timebase>
                        <ntsc>FALSE</ntsc>
                      </rate>
                      <duration>144</duration>
                      <timecode>
                        <rate>
                          <timebase>24</timebase>
                          <ntsc>FALSE</ntsc>
                        </rate>
                      </timecode>
                      <media>
                        <video>
                          <duration>1</duration>
                          <samplecharacteristics>
                            <anamorphic>FALSE</anamorphic>
                            <pixelaspectratio>square</pixelaspectratio>
                            <fielddominance>none</fielddominance>
                            <width>686</width>
                            <height>510</height>
                          </samplecharacteristics>
                        </video>
                      </media>
                    </file>
                  </clipitem>
                </track>
              </video>
            </media>
          </clip>
          <clip explodedTracks="true" frameBlend="FALSE" id="masterclip-24">
            <uuid>5fb56454-c50a-4bfa-a8a4-af881e983cfa</uuid>
            <masterclipid>masterclip-24</masterclipid>
            <ismasterclip>TRUE</ismasterclip>
            <duration>144</duration>
            <in>0</in>
            <out>144</out>
            <name>Luca.022.png</name>
            <rate>
              <timebase>24</timebase>
              <ntsc>FALSE</ntsc>
            </rate>
            <media>
              <video>
                <track>
                  <clipitem frameBlend="FALSE" id="clipitem-25">
                    <name>Luca.022.png</name>
                    <masterclipid>masterclip-24</masterclipid>
                    <rate>
                      <timebase>24</timebase>
                      <ntsc>FALSE</ntsc>
                    </rate>
                    <alphatype>straight</alphatype>
                    <pixelaspectratio>square</pixelaspectratio>
                    <anamorphic>FALSE</anamorphic>
                    <file id="file-24">
                      <name>Luca.022.png</name>
                      <pathurl>file://localhost/Users/antoniochiappetta/OneDrive - Aalto University/University/Aalto/Hackatons/Junction/Junction2019-IoK-security_awareness_kids/Assets/Team Animations/Image Sequences/Luca/Luca.022.png</pathurl>
                      <rate>
                        <timebase>24</timebase>
                        <ntsc>FALSE</ntsc>
                      </rate>
                      <duration>144</duration>
                      <timecode>
                        <rate>
                          <timebase>24</timebase>
                          <ntsc>FALSE</ntsc>
                        </rate>
                      </timecode>
                      <media>
                        <video>
                          <duration>1</duration>
                          <samplecharacteristics>
                            <anamorphic>FALSE</anamorphic>
                            <pixelaspectratio>square</pixelaspectratio>
                            <fielddominance>none</fielddominance>
                            <width>686</width>
                            <height>510</height>
                          </samplecharacteristics>
                        </video>
                      </media>
                    </file>
                  </clipitem>
                </track>
              </video>
            </media>
          </clip>
          <clip explodedTracks="true" frameBlend="FALSE" id="masterclip-25">
            <uuid>08cd0dbd-07ea-45cd-8a29-e9ba93c86c49</uuid>
            <masterclipid>masterclip-25</masterclipid>
            <ismasterclip>TRUE</ismasterclip>
            <duration>144</duration>
            <in>0</in>
            <out>144</out>
            <name>Luca.023.png</name>
            <rate>
              <timebase>24</timebase>
              <ntsc>FALSE</ntsc>
            </rate>
            <media>
              <video>
                <track>
                  <clipitem frameBlend="FALSE" id="clipitem-26">
                    <name>Luca.023.png</name>
                    <masterclipid>masterclip-25</masterclipid>
                    <rate>
                      <timebase>24</timebase>
                      <ntsc>FALSE</ntsc>
                    </rate>
                    <alphatype>straight</alphatype>
                    <pixelaspectratio>square</pixelaspectratio>
                    <anamorphic>FALSE</anamorphic>
                    <file id="file-25">
                      <name>Luca.023.png</name>
                      <pathurl>file://localhost/Users/antoniochiappetta/OneDrive - Aalto University/University/Aalto/Hackatons/Junction/Junction2019-IoK-security_awareness_kids/Assets/Team Animations/Image Sequences/Luca/Luca.023.png</pathurl>
                      <rate>
                        <timebase>24</timebase>
                        <ntsc>FALSE</ntsc>
                      </rate>
                      <duration>144</duration>
                      <timecode>
                        <rate>
                          <timebase>24</timebase>
                          <ntsc>FALSE</ntsc>
                        </rate>
                      </timecode>
                      <media>
                        <video>
                          <duration>1</duration>
                          <samplecharacteristics>
                            <anamorphic>FALSE</anamorphic>
                            <pixelaspectratio>square</pixelaspectratio>
                            <fielddominance>none</fielddominance>
                            <width>686</width>
                            <height>510</height>
                          </samplecharacteristics>
                        </video>
                      </media>
                    </file>
                  </clipitem>
                </track>
              </video>
            </media>
          </clip>
          <clip explodedTracks="true" frameBlend="FALSE" id="masterclip-26">
            <uuid>4c78eac6-4a6f-48ef-bc85-4c054cbbd7be</uuid>
            <masterclipid>masterclip-26</masterclipid>
            <ismasterclip>TRUE</ismasterclip>
            <duration>144</duration>
            <in>0</in>
            <out>144</out>
            <name>Luca.024.png</name>
            <rate>
              <timebase>24</timebase>
              <ntsc>FALSE</ntsc>
            </rate>
            <media>
              <video>
                <track>
                  <clipitem frameBlend="FALSE" id="clipitem-27">
                    <name>Luca.024.png</name>
                    <masterclipid>masterclip-26</masterclipid>
                    <rate>
                      <timebase>24</timebase>
                      <ntsc>FALSE</ntsc>
                    </rate>
                    <alphatype>straight</alphatype>
                    <pixelaspectratio>square</pixelaspectratio>
                    <anamorphic>FALSE</anamorphic>
                    <file id="file-26">
                      <name>Luca.024.png</name>
                      <pathurl>file://localhost/Users/antoniochiappetta/OneDrive - Aalto University/University/Aalto/Hackatons/Junction/Junction2019-IoK-security_awareness_kids/Assets/Team Animations/Image Sequences/Luca/Luca.024.png</pathurl>
                      <rate>
                        <timebase>24</timebase>
                        <ntsc>FALSE</ntsc>
                      </rate>
                      <duration>144</duration>
                      <timecode>
                        <rate>
                          <timebase>24</timebase>
                          <ntsc>FALSE</ntsc>
                        </rate>
                      </timecode>
                      <media>
                        <video>
                          <duration>1</duration>
                          <samplecharacteristics>
                            <anamorphic>FALSE</anamorphic>
                            <pixelaspectratio>square</pixelaspectratio>
                            <fielddominance>none</fielddominance>
                            <width>686</width>
                            <height>510</height>
                          </samplecharacteristics>
                        </video>
                      </media>
                    </file>
                  </clipitem>
                </track>
              </video>
            </media>
          </clip>
          <clip explodedTracks="true" frameBlend="FALSE" id="masterclip-27">
            <uuid>e6f43539-b9ae-46f0-a0cf-a5221b841bc0</uuid>
            <masterclipid>masterclip-27</masterclipid>
            <ismasterclip>TRUE</ismasterclip>
            <duration>144</duration>
            <in>0</in>
            <out>144</out>
            <name>Luca.025.png</name>
            <rate>
              <timebase>24</timebase>
              <ntsc>FALSE</ntsc>
            </rate>
            <media>
              <video>
                <track>
                  <clipitem frameBlend="FALSE" id="clipitem-28">
                    <name>Luca.025.png</name>
                    <masterclipid>masterclip-27</masterclipid>
                    <rate>
                      <timebase>24</timebase>
                      <ntsc>FALSE</ntsc>
                    </rate>
                    <alphatype>straight</alphatype>
                    <pixelaspectratio>square</pixelaspectratio>
                    <anamorphic>FALSE</anamorphic>
                    <file id="file-27">
                      <name>Luca.025.png</name>
                      <pathurl>file://localhost/Users/antoniochiappetta/OneDrive - Aalto University/University/Aalto/Hackatons/Junction/Junction2019-IoK-security_awareness_kids/Assets/Team Animations/Image Sequences/Luca/Luca.025.png</pathurl>
                      <rate>
                        <timebase>24</timebase>
                        <ntsc>FALSE</ntsc>
                      </rate>
                      <duration>144</duration>
                      <timecode>
                        <rate>
                          <timebase>24</timebase>
                          <ntsc>FALSE</ntsc>
                        </rate>
                      </timecode>
                      <media>
                        <video>
                          <duration>1</duration>
                          <samplecharacteristics>
                            <anamorphic>FALSE</anamorphic>
                            <pixelaspectratio>square</pixelaspectratio>
                            <fielddominance>none</fielddominance>
                            <width>686</width>
                            <height>510</height>
                          </samplecharacteristics>
                        </video>
                      </media>
                    </file>
                  </clipitem>
                </track>
              </video>
            </media>
          </clip>
          <clip explodedTracks="true" frameBlend="FALSE" id="masterclip-28">
            <uuid>30f15da7-e623-4bde-91ca-84f6a53f8492</uuid>
            <masterclipid>masterclip-28</masterclipid>
            <ismasterclip>TRUE</ismasterclip>
            <duration>144</duration>
            <in>0</in>
            <out>144</out>
            <name>Luca.026.png</name>
            <rate>
              <timebase>24</timebase>
              <ntsc>FALSE</ntsc>
            </rate>
            <media>
              <video>
                <track>
                  <clipitem frameBlend="FALSE" id="clipitem-29">
                    <name>Luca.026.png</name>
                    <masterclipid>masterclip-28</masterclipid>
                    <rate>
                      <timebase>24</timebase>
                      <ntsc>FALSE</ntsc>
                    </rate>
                    <alphatype>straight</alphatype>
                    <pixelaspectratio>square</pixelaspectratio>
                    <anamorphic>FALSE</anamorphic>
                    <file id="file-28">
                      <name>Luca.026.png</name>
                      <pathurl>file://localhost/Users/antoniochiappetta/OneDrive - Aalto University/University/Aalto/Hackatons/Junction/Junction2019-IoK-security_awareness_kids/Assets/Team Animations/Image Sequences/Luca/Luca.026.png</pathurl>
                      <rate>
                        <timebase>24</timebase>
                        <ntsc>FALSE</ntsc>
                      </rate>
                      <duration>144</duration>
                      <timecode>
                        <rate>
                          <timebase>24</timebase>
                          <ntsc>FALSE</ntsc>
                        </rate>
                      </timecode>
                      <media>
                        <video>
                          <duration>1</duration>
                          <samplecharacteristics>
                            <anamorphic>FALSE</anamorphic>
                            <pixelaspectratio>square</pixelaspectratio>
                            <fielddominance>none</fielddominance>
                            <width>686</width>
                            <height>510</height>
                          </samplecharacteristics>
                        </video>
                      </media>
                    </file>
                  </clipitem>
                </track>
              </video>
            </media>
          </clip>
          <clip explodedTracks="true" frameBlend="FALSE" id="masterclip-29">
            <uuid>4d2b609e-4fc4-4ecf-a292-23510f03e643</uuid>
            <masterclipid>masterclip-29</masterclipid>
            <ismasterclip>TRUE</ismasterclip>
            <duration>144</duration>
            <in>0</in>
            <out>144</out>
            <name>Luca.027.png</name>
            <rate>
              <timebase>24</timebase>
              <ntsc>FALSE</ntsc>
            </rate>
            <media>
              <video>
                <track>
                  <clipitem frameBlend="FALSE" id="clipitem-30">
                    <name>Luca.027.png</name>
                    <masterclipid>masterclip-29</masterclipid>
                    <rate>
                      <timebase>24</timebase>
                      <ntsc>FALSE</ntsc>
                    </rate>
                    <alphatype>straight</alphatype>
                    <pixelaspectratio>square</pixelaspectratio>
                    <anamorphic>FALSE</anamorphic>
                    <file id="file-29">
                      <name>Luca.027.png</name>
                      <pathurl>file://localhost/Users/antoniochiappetta/OneDrive - Aalto University/University/Aalto/Hackatons/Junction/Junction2019-IoK-security_awareness_kids/Assets/Team Animations/Image Sequences/Luca/Luca.027.png</pathurl>
                      <rate>
                        <timebase>24</timebase>
                        <ntsc>FALSE</ntsc>
                      </rate>
                      <duration>144</duration>
                      <timecode>
                        <rate>
                          <timebase>24</timebase>
                          <ntsc>FALSE</ntsc>
                        </rate>
                      </timecode>
                      <media>
                        <video>
                          <duration>1</duration>
                          <samplecharacteristics>
                            <anamorphic>FALSE</anamorphic>
                            <pixelaspectratio>square</pixelaspectratio>
                            <fielddominance>none</fielddominance>
                            <width>686</width>
                            <height>510</height>
                          </samplecharacteristics>
                        </video>
                      </media>
                    </file>
                  </clipitem>
                </track>
              </video>
            </media>
          </clip>
          <clip explodedTracks="true" frameBlend="FALSE" id="masterclip-30">
            <uuid>a7d0044a-5710-4363-a0d4-cf78e71a6dc0</uuid>
            <masterclipid>masterclip-30</masterclipid>
            <ismasterclip>TRUE</ismasterclip>
            <duration>144</duration>
            <in>0</in>
            <out>144</out>
            <name>Luca.028.png</name>
            <rate>
              <timebase>24</timebase>
              <ntsc>FALSE</ntsc>
            </rate>
            <media>
              <video>
                <track>
                  <clipitem frameBlend="FALSE" id="clipitem-31">
                    <name>Luca.028.png</name>
                    <masterclipid>masterclip-30</masterclipid>
                    <rate>
                      <timebase>24</timebase>
                      <ntsc>FALSE</ntsc>
                    </rate>
                    <alphatype>straight</alphatype>
                    <pixelaspectratio>square</pixelaspectratio>
                    <anamorphic>FALSE</anamorphic>
                    <file id="file-30">
                      <name>Luca.028.png</name>
                      <pathurl>file://localhost/Users/antoniochiappetta/OneDrive - Aalto University/University/Aalto/Hackatons/Junction/Junction2019-IoK-security_awareness_kids/Assets/Team Animations/Image Sequences/Luca/Luca.028.png</pathurl>
                      <rate>
                        <timebase>24</timebase>
                        <ntsc>FALSE</ntsc>
                      </rate>
                      <duration>144</duration>
                      <timecode>
                        <rate>
                          <timebase>24</timebase>
                          <ntsc>FALSE</ntsc>
                        </rate>
                      </timecode>
                      <media>
                        <video>
                          <duration>1</duration>
                          <samplecharacteristics>
                            <anamorphic>FALSE</anamorphic>
                            <pixelaspectratio>square</pixelaspectratio>
                            <fielddominance>none</fielddominance>
                            <width>686</width>
                            <height>510</height>
                          </samplecharacteristics>
                        </video>
                      </media>
                    </file>
                  </clipitem>
                </track>
              </video>
            </media>
          </clip>
          <clip explodedTracks="true" frameBlend="FALSE" id="masterclip-31">
            <uuid>a1c76d2e-490d-45e9-a9d6-6e83d0f57624</uuid>
            <masterclipid>masterclip-31</masterclipid>
            <ismasterclip>TRUE</ismasterclip>
            <duration>144</duration>
            <in>0</in>
            <out>144</out>
            <name>Luca.029.png</name>
            <rate>
              <timebase>24</timebase>
              <ntsc>FALSE</ntsc>
            </rate>
            <media>
              <video>
                <track>
                  <clipitem frameBlend="FALSE" id="clipitem-32">
                    <name>Luca.029.png</name>
                    <masterclipid>masterclip-31</masterclipid>
                    <rate>
                      <timebase>24</timebase>
                      <ntsc>FALSE</ntsc>
                    </rate>
                    <alphatype>straight</alphatype>
                    <pixelaspectratio>square</pixelaspectratio>
                    <anamorphic>FALSE</anamorphic>
                    <file id="file-31">
                      <name>Luca.029.png</name>
                      <pathurl>file://localhost/Users/antoniochiappetta/OneDrive - Aalto University/University/Aalto/Hackatons/Junction/Junction2019-IoK-security_awareness_kids/Assets/Team Animations/Image Sequences/Luca/Luca.029.png</pathurl>
                      <rate>
                        <timebase>24</timebase>
                        <ntsc>FALSE</ntsc>
                      </rate>
                      <duration>144</duration>
                      <timecode>
                        <rate>
                          <timebase>24</timebase>
                          <ntsc>FALSE</ntsc>
                        </rate>
                      </timecode>
                      <media>
                        <video>
                          <duration>1</duration>
                          <samplecharacteristics>
                            <anamorphic>FALSE</anamorphic>
                            <pixelaspectratio>square</pixelaspectratio>
                            <fielddominance>none</fielddominance>
                            <width>686</width>
                            <height>510</height>
                          </samplecharacteristics>
                        </video>
                      </media>
                    </file>
                  </clipitem>
                </track>
              </video>
            </media>
          </clip>
          <clip explodedTracks="true" frameBlend="FALSE" id="masterclip-32">
            <uuid>65c7aeba-b544-4678-a7cc-a848c8d79145</uuid>
            <masterclipid>masterclip-32</masterclipid>
            <ismasterclip>TRUE</ismasterclip>
            <duration>144</duration>
            <in>0</in>
            <out>144</out>
            <name>Luca.030.png</name>
            <rate>
              <timebase>24</timebase>
              <ntsc>FALSE</ntsc>
            </rate>
            <media>
              <video>
                <track>
                  <clipitem frameBlend="FALSE" id="clipitem-33">
                    <name>Luca.030.png</name>
                    <masterclipid>masterclip-32</masterclipid>
                    <rate>
                      <timebase>24</timebase>
                      <ntsc>FALSE</ntsc>
                    </rate>
                    <alphatype>straight</alphatype>
                    <pixelaspectratio>square</pixelaspectratio>
                    <anamorphic>FALSE</anamorphic>
                    <file id="file-32">
                      <name>Luca.030.png</name>
                      <pathurl>file://localhost/Users/antoniochiappetta/OneDrive - Aalto University/University/Aalto/Hackatons/Junction/Junction2019-IoK-security_awareness_kids/Assets/Team Animations/Image Sequences/Luca/Luca.030.png</pathurl>
                      <rate>
                        <timebase>24</timebase>
                        <ntsc>FALSE</ntsc>
                      </rate>
                      <duration>144</duration>
                      <timecode>
                        <rate>
                          <timebase>24</timebase>
                          <ntsc>FALSE</ntsc>
                        </rate>
                      </timecode>
                      <media>
                        <video>
                          <duration>1</duration>
                          <samplecharacteristics>
                            <anamorphic>FALSE</anamorphic>
                            <pixelaspectratio>square</pixelaspectratio>
                            <fielddominance>none</fielddominance>
                            <width>686</width>
                            <height>510</height>
                          </samplecharacteristics>
                        </video>
                      </media>
                    </file>
                  </clipitem>
                </track>
              </video>
            </media>
          </clip>
          <clip explodedTracks="true" frameBlend="FALSE" id="masterclip-33">
            <uuid>1334487f-0f02-4115-9b7d-d42904c34d50</uuid>
            <masterclipid>masterclip-33</masterclipid>
            <ismasterclip>TRUE</ismasterclip>
            <duration>144</duration>
            <in>0</in>
            <out>144</out>
            <name>Luca.031.png</name>
            <rate>
              <timebase>24</timebase>
              <ntsc>FALSE</ntsc>
            </rate>
            <media>
              <video>
                <track>
                  <clipitem frameBlend="FALSE" id="clipitem-34">
                    <name>Luca.031.png</name>
                    <masterclipid>masterclip-33</masterclipid>
                    <rate>
                      <timebase>24</timebase>
                      <ntsc>FALSE</ntsc>
                    </rate>
                    <alphatype>straight</alphatype>
                    <pixelaspectratio>square</pixelaspectratio>
                    <anamorphic>FALSE</anamorphic>
                    <file id="file-33">
                      <name>Luca.031.png</name>
                      <pathurl>file://localhost/Users/antoniochiappetta/OneDrive - Aalto University/University/Aalto/Hackatons/Junction/Junction2019-IoK-security_awareness_kids/Assets/Team Animations/Image Sequences/Luca/Luca.031.png</pathurl>
                      <rate>
                        <timebase>24</timebase>
                        <ntsc>FALSE</ntsc>
                      </rate>
                      <duration>144</duration>
                      <timecode>
                        <rate>
                          <timebase>24</timebase>
                          <ntsc>FALSE</ntsc>
                        </rate>
                      </timecode>
                      <media>
                        <video>
                          <duration>1</duration>
                          <samplecharacteristics>
                            <anamorphic>FALSE</anamorphic>
                            <pixelaspectratio>square</pixelaspectratio>
                            <fielddominance>none</fielddominance>
                            <width>686</width>
                            <height>510</height>
                          </samplecharacteristics>
                        </video>
                      </media>
                    </file>
                  </clipitem>
                </track>
              </video>
            </media>
          </clip>
          <clip explodedTracks="true" frameBlend="FALSE" id="masterclip-34">
            <uuid>9ba8784d-a88e-42e1-b6ac-eeeda96c7dcf</uuid>
            <masterclipid>masterclip-34</masterclipid>
            <ismasterclip>TRUE</ismasterclip>
            <duration>144</duration>
            <in>0</in>
            <out>144</out>
            <name>Luca.032.png</name>
            <rate>
              <timebase>24</timebase>
              <ntsc>FALSE</ntsc>
            </rate>
            <media>
              <video>
                <track>
                  <clipitem frameBlend="FALSE" id="clipitem-35">
                    <name>Luca.032.png</name>
                    <masterclipid>masterclip-34</masterclipid>
                    <rate>
                      <timebase>24</timebase>
                      <ntsc>FALSE</ntsc>
                    </rate>
                    <alphatype>straight</alphatype>
                    <pixelaspectratio>square</pixelaspectratio>
                    <anamorphic>FALSE</anamorphic>
                    <file id="file-34">
                      <name>Luca.032.png</name>
                      <pathurl>file://localhost/Users/antoniochiappetta/OneDrive - Aalto University/University/Aalto/Hackatons/Junction/Junction2019-IoK-security_awareness_kids/Assets/Team Animations/Image Sequences/Luca/Luca.032.png</pathurl>
                      <rate>
                        <timebase>24</timebase>
                        <ntsc>FALSE</ntsc>
                      </rate>
                      <duration>144</duration>
                      <timecode>
                        <rate>
                          <timebase>24</timebase>
                          <ntsc>FALSE</ntsc>
                        </rate>
                      </timecode>
                      <media>
                        <video>
                          <duration>1</duration>
                          <samplecharacteristics>
                            <anamorphic>FALSE</anamorphic>
                            <pixelaspectratio>square</pixelaspectratio>
                            <fielddominance>none</fielddominance>
                            <width>686</width>
                            <height>510</height>
                          </samplecharacteristics>
                        </video>
                      </media>
                    </file>
                  </clipitem>
                </track>
              </video>
            </media>
          </clip>
          <clip explodedTracks="true" frameBlend="FALSE" id="masterclip-35">
            <uuid>5e16c2e8-ca4b-4387-b67d-00030bced726</uuid>
            <masterclipid>masterclip-35</masterclipid>
            <ismasterclip>TRUE</ismasterclip>
            <duration>144</duration>
            <in>0</in>
            <out>144</out>
            <name>Luca.033.png</name>
            <rate>
              <timebase>24</timebase>
              <ntsc>FALSE</ntsc>
            </rate>
            <media>
              <video>
                <track>
                  <clipitem frameBlend="FALSE" id="clipitem-36">
                    <name>Luca.033.png</name>
                    <masterclipid>masterclip-35</masterclipid>
                    <rate>
                      <timebase>24</timebase>
                      <ntsc>FALSE</ntsc>
                    </rate>
                    <alphatype>straight</alphatype>
                    <pixelaspectratio>square</pixelaspectratio>
                    <anamorphic>FALSE</anamorphic>
                    <file id="file-35">
                      <name>Luca.033.png</name>
                      <pathurl>file://localhost/Users/antoniochiappetta/OneDrive - Aalto University/University/Aalto/Hackatons/Junction/Junction2019-IoK-security_awareness_kids/Assets/Team Animations/Image Sequences/Luca/Luca.033.png</pathurl>
                      <rate>
                        <timebase>24</timebase>
                        <ntsc>FALSE</ntsc>
                      </rate>
                      <duration>144</duration>
                      <timecode>
                        <rate>
                          <timebase>24</timebase>
                          <ntsc>FALSE</ntsc>
                        </rate>
                      </timecode>
                      <media>
                        <video>
                          <duration>1</duration>
                          <samplecharacteristics>
                            <anamorphic>FALSE</anamorphic>
                            <pixelaspectratio>square</pixelaspectratio>
                            <fielddominance>none</fielddominance>
                            <width>686</width>
                            <height>510</height>
                          </samplecharacteristics>
                        </video>
                      </media>
                    </file>
                  </clipitem>
                </track>
              </video>
            </media>
          </clip>
          <clip explodedTracks="true" frameBlend="FALSE" id="masterclip-36">
            <uuid>f3c8c824-19af-44a9-acad-b8b0d4ba2d7c</uuid>
            <masterclipid>masterclip-36</masterclipid>
            <ismasterclip>TRUE</ismasterclip>
            <duration>144</duration>
            <in>0</in>
            <out>144</out>
            <name>Luca.034.png</name>
            <rate>
              <timebase>24</timebase>
              <ntsc>FALSE</ntsc>
            </rate>
            <media>
              <video>
                <track>
                  <clipitem frameBlend="FALSE" id="clipitem-37">
                    <name>Luca.034.png</name>
                    <masterclipid>masterclip-36</masterclipid>
                    <rate>
                      <timebase>24</timebase>
                      <ntsc>FALSE</ntsc>
                    </rate>
                    <alphatype>straight</alphatype>
                    <pixelaspectratio>square</pixelaspectratio>
                    <anamorphic>FALSE</anamorphic>
                    <file id="file-36">
                      <name>Luca.034.png</name>
                      <pathurl>file://localhost/Users/antoniochiappetta/OneDrive - Aalto University/University/Aalto/Hackatons/Junction/Junction2019-IoK-security_awareness_kids/Assets/Team Animations/Image Sequences/Luca/Luca.034.png</pathurl>
                      <rate>
                        <timebase>24</timebase>
                        <ntsc>FALSE</ntsc>
                      </rate>
                      <duration>144</duration>
                      <timecode>
                        <rate>
                          <timebase>24</timebase>
                          <ntsc>FALSE</ntsc>
                        </rate>
                      </timecode>
                      <media>
                        <video>
                          <duration>1</duration>
                          <samplecharacteristics>
                            <anamorphic>FALSE</anamorphic>
                            <pixelaspectratio>square</pixelaspectratio>
                            <fielddominance>none</fielddominance>
                            <width>686</width>
                            <height>510</height>
                          </samplecharacteristics>
                        </video>
                      </media>
                    </file>
                  </clipitem>
                </track>
              </video>
            </media>
          </clip>
          <clip explodedTracks="true" frameBlend="FALSE" id="masterclip-37">
            <uuid>8b960775-8d02-4947-bece-173e8148c49b</uuid>
            <masterclipid>masterclip-37</masterclipid>
            <ismasterclip>TRUE</ismasterclip>
            <duration>144</duration>
            <in>0</in>
            <out>144</out>
            <name>Luca.035.png</name>
            <rate>
              <timebase>24</timebase>
              <ntsc>FALSE</ntsc>
            </rate>
            <media>
              <video>
                <track>
                  <clipitem frameBlend="FALSE" id="clipitem-38">
                    <name>Luca.035.png</name>
                    <masterclipid>masterclip-37</masterclipid>
                    <rate>
                      <timebase>24</timebase>
                      <ntsc>FALSE</ntsc>
                    </rate>
                    <alphatype>straight</alphatype>
                    <pixelaspectratio>square</pixelaspectratio>
                    <anamorphic>FALSE</anamorphic>
                    <file id="file-37">
                      <name>Luca.035.png</name>
                      <pathurl>file://localhost/Users/antoniochiappetta/OneDrive - Aalto University/University/Aalto/Hackatons/Junction/Junction2019-IoK-security_awareness_kids/Assets/Team Animations/Image Sequences/Luca/Luca.035.png</pathurl>
                      <rate>
                        <timebase>24</timebase>
                        <ntsc>FALSE</ntsc>
                      </rate>
                      <duration>144</duration>
                      <timecode>
                        <rate>
                          <timebase>24</timebase>
                          <ntsc>FALSE</ntsc>
                        </rate>
                      </timecode>
                      <media>
                        <video>
                          <duration>1</duration>
                          <samplecharacteristics>
                            <anamorphic>FALSE</anamorphic>
                            <pixelaspectratio>square</pixelaspectratio>
                            <fielddominance>none</fielddominance>
                            <width>686</width>
                            <height>510</height>
                          </samplecharacteristics>
                        </video>
                      </media>
                    </file>
                  </clipitem>
                </track>
              </video>
            </media>
          </clip>
          <clip explodedTracks="true" frameBlend="FALSE" id="masterclip-38">
            <uuid>82d91772-eace-49ef-a1d5-0e2d1a917300</uuid>
            <masterclipid>masterclip-38</masterclipid>
            <ismasterclip>TRUE</ismasterclip>
            <duration>144</duration>
            <in>0</in>
            <out>144</out>
            <name>Luca.036.png</name>
            <rate>
              <timebase>24</timebase>
              <ntsc>FALSE</ntsc>
            </rate>
            <media>
              <video>
                <track>
                  <clipitem frameBlend="FALSE" id="clipitem-39">
                    <name>Luca.036.png</name>
                    <masterclipid>masterclip-38</masterclipid>
                    <rate>
                      <timebase>24</timebase>
                      <ntsc>FALSE</ntsc>
                    </rate>
                    <alphatype>straight</alphatype>
                    <pixelaspectratio>square</pixelaspectratio>
                    <anamorphic>FALSE</anamorphic>
                    <file id="file-38">
                      <name>Luca.036.png</name>
                      <pathurl>file://localhost/Users/antoniochiappetta/OneDrive - Aalto University/University/Aalto/Hackatons/Junction/Junction2019-IoK-security_awareness_kids/Assets/Team Animations/Image Sequences/Luca/Luca.036.png</pathurl>
                      <rate>
                        <timebase>24</timebase>
                        <ntsc>FALSE</ntsc>
                      </rate>
                      <duration>144</duration>
                      <timecode>
                        <rate>
                          <timebase>24</timebase>
                          <ntsc>FALSE</ntsc>
                        </rate>
                      </timecode>
                      <media>
                        <video>
                          <duration>1</duration>
                          <samplecharacteristics>
                            <anamorphic>FALSE</anamorphic>
                            <pixelaspectratio>square</pixelaspectratio>
                            <fielddominance>none</fielddominance>
                            <width>686</width>
                            <height>510</height>
                          </samplecharacteristics>
                        </video>
                      </media>
                    </file>
                  </clipitem>
                </track>
              </video>
            </media>
          </clip>
          <clip explodedTracks="true" frameBlend="FALSE" id="masterclip-39">
            <uuid>48af650a-d29c-458b-95fc-2ea1b7c77570</uuid>
            <masterclipid>masterclip-39</masterclipid>
            <ismasterclip>TRUE</ismasterclip>
            <duration>144</duration>
            <in>0</in>
            <out>144</out>
            <name>Luca.037.png</name>
            <rate>
              <timebase>24</timebase>
              <ntsc>FALSE</ntsc>
            </rate>
            <media>
              <video>
                <track>
                  <clipitem frameBlend="FALSE" id="clipitem-40">
                    <name>Luca.037.png</name>
                    <masterclipid>masterclip-39</masterclipid>
                    <rate>
                      <timebase>24</timebase>
                      <ntsc>FALSE</ntsc>
                    </rate>
                    <alphatype>straight</alphatype>
                    <pixelaspectratio>square</pixelaspectratio>
                    <anamorphic>FALSE</anamorphic>
                    <file id="file-39">
                      <name>Luca.037.png</name>
                      <pathurl>file://localhost/Users/antoniochiappetta/OneDrive - Aalto University/University/Aalto/Hackatons/Junction/Junction2019-IoK-security_awareness_kids/Assets/Team Animations/Image Sequences/Luca/Luca.037.png</pathurl>
                      <rate>
                        <timebase>24</timebase>
                        <ntsc>FALSE</ntsc>
                      </rate>
                      <duration>144</duration>
                      <timecode>
                        <rate>
                          <timebase>24</timebase>
                          <ntsc>FALSE</ntsc>
                        </rate>
                      </timecode>
                      <media>
                        <video>
                          <duration>1</duration>
                          <samplecharacteristics>
                            <anamorphic>FALSE</anamorphic>
                            <pixelaspectratio>square</pixelaspectratio>
                            <fielddominance>none</fielddominance>
                            <width>686</width>
                            <height>510</height>
                          </samplecharacteristics>
                        </video>
                      </media>
                    </file>
                  </clipitem>
                </track>
              </video>
            </media>
          </clip>
          <clip explodedTracks="true" frameBlend="FALSE" id="masterclip-40">
            <uuid>5c31f702-4195-482c-bd5f-c9d2a860c354</uuid>
            <masterclipid>masterclip-40</masterclipid>
            <ismasterclip>TRUE</ismasterclip>
            <duration>144</duration>
            <in>0</in>
            <out>144</out>
            <name>Luca.038.png</name>
            <rate>
              <timebase>24</timebase>
              <ntsc>FALSE</ntsc>
            </rate>
            <media>
              <video>
                <track>
                  <clipitem frameBlend="FALSE" id="clipitem-41">
                    <name>Luca.038.png</name>
                    <masterclipid>masterclip-40</masterclipid>
                    <rate>
                      <timebase>24</timebase>
                      <ntsc>FALSE</ntsc>
                    </rate>
                    <alphatype>straight</alphatype>
                    <pixelaspectratio>square</pixelaspectratio>
                    <anamorphic>FALSE</anamorphic>
                    <file id="file-40">
                      <name>Luca.038.png</name>
                      <pathurl>file://localhost/Users/antoniochiappetta/OneDrive - Aalto University/University/Aalto/Hackatons/Junction/Junction2019-IoK-security_awareness_kids/Assets/Team Animations/Image Sequences/Luca/Luca.038.png</pathurl>
                      <rate>
                        <timebase>24</timebase>
                        <ntsc>FALSE</ntsc>
                      </rate>
                      <duration>144</duration>
                      <timecode>
                        <rate>
                          <timebase>24</timebase>
                          <ntsc>FALSE</ntsc>
                        </rate>
                      </timecode>
                      <media>
                        <video>
                          <duration>1</duration>
                          <samplecharacteristics>
                            <anamorphic>FALSE</anamorphic>
                            <pixelaspectratio>square</pixelaspectratio>
                            <fielddominance>none</fielddominance>
                            <width>686</width>
                            <height>510</height>
                          </samplecharacteristics>
                        </video>
                      </media>
                    </file>
                  </clipitem>
                </track>
              </video>
            </media>
          </clip>
          <clip explodedTracks="true" frameBlend="FALSE" id="masterclip-41">
            <uuid>f9877dd4-d64d-40f3-a56b-880a4f6c8a42</uuid>
            <masterclipid>masterclip-41</masterclipid>
            <ismasterclip>TRUE</ismasterclip>
            <duration>144</duration>
            <in>0</in>
            <out>144</out>
            <name>Luca.039.png</name>
            <rate>
              <timebase>24</timebase>
              <ntsc>FALSE</ntsc>
            </rate>
            <media>
              <video>
                <track>
                  <clipitem frameBlend="FALSE" id="clipitem-42">
                    <name>Luca.039.png</name>
                    <masterclipid>masterclip-41</masterclipid>
                    <rate>
                      <timebase>24</timebase>
                      <ntsc>FALSE</ntsc>
                    </rate>
                    <alphatype>straight</alphatype>
                    <pixelaspectratio>square</pixelaspectratio>
                    <anamorphic>FALSE</anamorphic>
                    <file id="file-41">
                      <name>Luca.039.png</name>
                      <pathurl>file://localhost/Users/antoniochiappetta/OneDrive - Aalto University/University/Aalto/Hackatons/Junction/Junction2019-IoK-security_awareness_kids/Assets/Team Animations/Image Sequences/Luca/Luca.039.png</pathurl>
                      <rate>
                        <timebase>24</timebase>
                        <ntsc>FALSE</ntsc>
                      </rate>
                      <duration>144</duration>
                      <timecode>
                        <rate>
                          <timebase>24</timebase>
                          <ntsc>FALSE</ntsc>
                        </rate>
                      </timecode>
                      <media>
                        <video>
                          <duration>1</duration>
                          <samplecharacteristics>
                            <anamorphic>FALSE</anamorphic>
                            <pixelaspectratio>square</pixelaspectratio>
                            <fielddominance>none</fielddominance>
                            <width>686</width>
                            <height>510</height>
                          </samplecharacteristics>
                        </video>
                      </media>
                    </file>
                  </clipitem>
                </track>
              </video>
            </media>
          </clip>
          <clip explodedTracks="true" frameBlend="FALSE" id="masterclip-42">
            <uuid>205aee45-51e7-4e4a-8ed1-ec523c43314d</uuid>
            <masterclipid>masterclip-42</masterclipid>
            <ismasterclip>TRUE</ismasterclip>
            <duration>144</duration>
            <in>0</in>
            <out>144</out>
            <name>Luca.040.png</name>
            <rate>
              <timebase>24</timebase>
              <ntsc>FALSE</ntsc>
            </rate>
            <media>
              <video>
                <track>
                  <clipitem frameBlend="FALSE" id="clipitem-43">
                    <name>Luca.040.png</name>
                    <masterclipid>masterclip-42</masterclipid>
                    <rate>
                      <timebase>24</timebase>
                      <ntsc>FALSE</ntsc>
                    </rate>
                    <alphatype>straight</alphatype>
                    <pixelaspectratio>square</pixelaspectratio>
                    <anamorphic>FALSE</anamorphic>
                    <file id="file-42">
                      <name>Luca.040.png</name>
                      <pathurl>file://localhost/Users/antoniochiappetta/OneDrive - Aalto University/University/Aalto/Hackatons/Junction/Junction2019-IoK-security_awareness_kids/Assets/Team Animations/Image Sequences/Luca/Luca.040.png</pathurl>
                      <rate>
                        <timebase>24</timebase>
                        <ntsc>FALSE</ntsc>
                      </rate>
                      <duration>144</duration>
                      <timecode>
                        <rate>
                          <timebase>24</timebase>
                          <ntsc>FALSE</ntsc>
                        </rate>
                      </timecode>
                      <media>
                        <video>
                          <duration>1</duration>
                          <samplecharacteristics>
                            <anamorphic>FALSE</anamorphic>
                            <pixelaspectratio>square</pixelaspectratio>
                            <fielddominance>none</fielddominance>
                            <width>686</width>
                            <height>510</height>
                          </samplecharacteristics>
                        </video>
                      </media>
                    </file>
                  </clipitem>
                </track>
              </video>
            </media>
          </clip>
          <clip explodedTracks="true" frameBlend="FALSE" id="masterclip-43">
            <uuid>7966531a-d227-4d2c-a2f2-fc26a34ba6e0</uuid>
            <masterclipid>masterclip-43</masterclipid>
            <ismasterclip>TRUE</ismasterclip>
            <duration>144</duration>
            <in>0</in>
            <out>144</out>
            <name>Luca.041.png</name>
            <rate>
              <timebase>24</timebase>
              <ntsc>FALSE</ntsc>
            </rate>
            <media>
              <video>
                <track>
                  <clipitem frameBlend="FALSE" id="clipitem-44">
                    <name>Luca.041.png</name>
                    <masterclipid>masterclip-43</masterclipid>
                    <rate>
                      <timebase>24</timebase>
                      <ntsc>FALSE</ntsc>
                    </rate>
                    <alphatype>straight</alphatype>
                    <pixelaspectratio>square</pixelaspectratio>
                    <anamorphic>FALSE</anamorphic>
                    <file id="file-43">
                      <name>Luca.041.png</name>
                      <pathurl>file://localhost/Users/antoniochiappetta/OneDrive - Aalto University/University/Aalto/Hackatons/Junction/Junction2019-IoK-security_awareness_kids/Assets/Team Animations/Image Sequences/Luca/Luca.041.png</pathurl>
                      <rate>
                        <timebase>24</timebase>
                        <ntsc>FALSE</ntsc>
                      </rate>
                      <duration>144</duration>
                      <timecode>
                        <rate>
                          <timebase>24</timebase>
                          <ntsc>FALSE</ntsc>
                        </rate>
                      </timecode>
                      <media>
                        <video>
                          <duration>1</duration>
                          <samplecharacteristics>
                            <anamorphic>FALSE</anamorphic>
                            <pixelaspectratio>square</pixelaspectratio>
                            <fielddominance>none</fielddominance>
                            <width>686</width>
                            <height>510</height>
                          </samplecharacteristics>
                        </video>
                      </media>
                    </file>
                  </clipitem>
                </track>
              </video>
            </media>
          </clip>
          <clip explodedTracks="true" frameBlend="FALSE" id="masterclip-44">
            <uuid>3560c155-9481-48f4-8ebe-84d26f68db47</uuid>
            <masterclipid>masterclip-44</masterclipid>
            <ismasterclip>TRUE</ismasterclip>
            <duration>144</duration>
            <in>0</in>
            <out>144</out>
            <name>Luca.042.png</name>
            <rate>
              <timebase>24</timebase>
              <ntsc>FALSE</ntsc>
            </rate>
            <media>
              <video>
                <track>
                  <clipitem frameBlend="FALSE" id="clipitem-45">
                    <name>Luca.042.png</name>
                    <masterclipid>masterclip-44</masterclipid>
                    <rate>
                      <timebase>24</timebase>
                      <ntsc>FALSE</ntsc>
                    </rate>
                    <alphatype>straight</alphatype>
                    <pixelaspectratio>square</pixelaspectratio>
                    <anamorphic>FALSE</anamorphic>
                    <file id="file-44">
                      <name>Luca.042.png</name>
                      <pathurl>file://localhost/Users/antoniochiappetta/OneDrive - Aalto University/University/Aalto/Hackatons/Junction/Junction2019-IoK-security_awareness_kids/Assets/Team Animations/Image Sequences/Luca/Luca.042.png</pathurl>
                      <rate>
                        <timebase>24</timebase>
                        <ntsc>FALSE</ntsc>
                      </rate>
                      <duration>144</duration>
                      <timecode>
                        <rate>
                          <timebase>24</timebase>
                          <ntsc>FALSE</ntsc>
                        </rate>
                      </timecode>
                      <media>
                        <video>
                          <duration>1</duration>
                          <samplecharacteristics>
                            <anamorphic>FALSE</anamorphic>
                            <pixelaspectratio>square</pixelaspectratio>
                            <fielddominance>none</fielddominance>
                            <width>686</width>
                            <height>510</height>
                          </samplecharacteristics>
                        </video>
                      </media>
                    </file>
                  </clipitem>
                </track>
              </video>
            </media>
          </clip>
          <clip explodedTracks="true" frameBlend="FALSE" id="masterclip-45">
            <uuid>36ec53bf-81be-4cae-bf30-5c5872cbaf95</uuid>
            <masterclipid>masterclip-45</masterclipid>
            <ismasterclip>TRUE</ismasterclip>
            <duration>144</duration>
            <in>0</in>
            <out>144</out>
            <name>Luca.043.png</name>
            <rate>
              <timebase>24</timebase>
              <ntsc>FALSE</ntsc>
            </rate>
            <media>
              <video>
                <track>
                  <clipitem frameBlend="FALSE" id="clipitem-46">
                    <name>Luca.043.png</name>
                    <masterclipid>masterclip-45</masterclipid>
                    <rate>
                      <timebase>24</timebase>
                      <ntsc>FALSE</ntsc>
                    </rate>
                    <alphatype>straight</alphatype>
                    <pixelaspectratio>square</pixelaspectratio>
                    <anamorphic>FALSE</anamorphic>
                    <file id="file-45">
                      <name>Luca.043.png</name>
                      <pathurl>file://localhost/Users/antoniochiappetta/OneDrive - Aalto University/University/Aalto/Hackatons/Junction/Junction2019-IoK-security_awareness_kids/Assets/Team Animations/Image Sequences/Luca/Luca.043.png</pathurl>
                      <rate>
                        <timebase>24</timebase>
                        <ntsc>FALSE</ntsc>
                      </rate>
                      <duration>144</duration>
                      <timecode>
                        <rate>
                          <timebase>24</timebase>
                          <ntsc>FALSE</ntsc>
                        </rate>
                      </timecode>
                      <media>
                        <video>
                          <duration>1</duration>
                          <samplecharacteristics>
                            <anamorphic>FALSE</anamorphic>
                            <pixelaspectratio>square</pixelaspectratio>
                            <fielddominance>none</fielddominance>
                            <width>686</width>
                            <height>510</height>
                          </samplecharacteristics>
                        </video>
                      </media>
                    </file>
                  </clipitem>
                </track>
              </video>
            </media>
          </clip>
          <clip explodedTracks="true" frameBlend="FALSE" id="masterclip-46">
            <uuid>dc06751d-0ed8-4976-9900-c3e63efa5ef9</uuid>
            <masterclipid>masterclip-46</masterclipid>
            <ismasterclip>TRUE</ismasterclip>
            <duration>144</duration>
            <in>0</in>
            <out>144</out>
            <name>Luca.044.png</name>
            <rate>
              <timebase>24</timebase>
              <ntsc>FALSE</ntsc>
            </rate>
            <media>
              <video>
                <track>
                  <clipitem frameBlend="FALSE" id="clipitem-47">
                    <name>Luca.044.png</name>
                    <masterclipid>masterclip-46</masterclipid>
                    <rate>
                      <timebase>24</timebase>
                      <ntsc>FALSE</ntsc>
                    </rate>
                    <alphatype>straight</alphatype>
                    <pixelaspectratio>square</pixelaspectratio>
                    <anamorphic>FALSE</anamorphic>
                    <file id="file-46">
                      <name>Luca.044.png</name>
                      <pathurl>file://localhost/Users/antoniochiappetta/OneDrive - Aalto University/University/Aalto/Hackatons/Junction/Junction2019-IoK-security_awareness_kids/Assets/Team Animations/Image Sequences/Luca/Luca.044.png</pathurl>
                      <rate>
                        <timebase>24</timebase>
                        <ntsc>FALSE</ntsc>
                      </rate>
                      <duration>144</duration>
                      <timecode>
                        <rate>
                          <timebase>24</timebase>
                          <ntsc>FALSE</ntsc>
                        </rate>
                      </timecode>
                      <media>
                        <video>
                          <duration>1</duration>
                          <samplecharacteristics>
                            <anamorphic>FALSE</anamorphic>
                            <pixelaspectratio>square</pixelaspectratio>
                            <fielddominance>none</fielddominance>
                            <width>686</width>
                            <height>510</height>
                          </samplecharacteristics>
                        </video>
                      </media>
                    </file>
                  </clipitem>
                </track>
              </video>
            </media>
          </clip>
          <clip explodedTracks="true" frameBlend="FALSE" id="masterclip-47">
            <uuid>9c576aa0-8d11-4769-8517-bd7867626f5b</uuid>
            <masterclipid>masterclip-47</masterclipid>
            <ismasterclip>TRUE</ismasterclip>
            <duration>144</duration>
            <in>0</in>
            <out>144</out>
            <name>Luca.045.png</name>
            <rate>
              <timebase>24</timebase>
              <ntsc>FALSE</ntsc>
            </rate>
            <media>
              <video>
                <track>
                  <clipitem frameBlend="FALSE" id="clipitem-48">
                    <name>Luca.045.png</name>
                    <masterclipid>masterclip-47</masterclipid>
                    <rate>
                      <timebase>24</timebase>
                      <ntsc>FALSE</ntsc>
                    </rate>
                    <alphatype>straight</alphatype>
                    <pixelaspectratio>square</pixelaspectratio>
                    <anamorphic>FALSE</anamorphic>
                    <file id="file-47">
                      <name>Luca.045.png</name>
                      <pathurl>file://localhost/Users/antoniochiappetta/OneDrive - Aalto University/University/Aalto/Hackatons/Junction/Junction2019-IoK-security_awareness_kids/Assets/Team Animations/Image Sequences/Luca/Luca.045.png</pathurl>
                      <rate>
                        <timebase>24</timebase>
                        <ntsc>FALSE</ntsc>
                      </rate>
                      <duration>144</duration>
                      <timecode>
                        <rate>
                          <timebase>24</timebase>
                          <ntsc>FALSE</ntsc>
                        </rate>
                      </timecode>
                      <media>
                        <video>
                          <duration>1</duration>
                          <samplecharacteristics>
                            <anamorphic>FALSE</anamorphic>
                            <pixelaspectratio>square</pixelaspectratio>
                            <fielddominance>none</fielddominance>
                            <width>686</width>
                            <height>510</height>
                          </samplecharacteristics>
                        </video>
                      </media>
                    </file>
                  </clipitem>
                </track>
              </video>
            </media>
          </clip>
          <clip explodedTracks="true" frameBlend="FALSE" id="masterclip-48">
            <uuid>ba4d4ef2-25c3-4332-a863-08af9a43d837</uuid>
            <masterclipid>masterclip-48</masterclipid>
            <ismasterclip>TRUE</ismasterclip>
            <duration>144</duration>
            <in>0</in>
            <out>144</out>
            <name>Luca.046.png</name>
            <rate>
              <timebase>24</timebase>
              <ntsc>FALSE</ntsc>
            </rate>
            <media>
              <video>
                <track>
                  <clipitem frameBlend="FALSE" id="clipitem-49">
                    <name>Luca.046.png</name>
                    <masterclipid>masterclip-48</masterclipid>
                    <rate>
                      <timebase>24</timebase>
                      <ntsc>FALSE</ntsc>
                    </rate>
                    <alphatype>straight</alphatype>
                    <pixelaspectratio>square</pixelaspectratio>
                    <anamorphic>FALSE</anamorphic>
                    <file id="file-48">
                      <name>Luca.046.png</name>
                      <pathurl>file://localhost/Users/antoniochiappetta/OneDrive - Aalto University/University/Aalto/Hackatons/Junction/Junction2019-IoK-security_awareness_kids/Assets/Team Animations/Image Sequences/Luca/Luca.046.png</pathurl>
                      <rate>
                        <timebase>24</timebase>
                        <ntsc>FALSE</ntsc>
                      </rate>
                      <duration>144</duration>
                      <timecode>
                        <rate>
                          <timebase>24</timebase>
                          <ntsc>FALSE</ntsc>
                        </rate>
                      </timecode>
                      <media>
                        <video>
                          <duration>1</duration>
                          <samplecharacteristics>
                            <anamorphic>FALSE</anamorphic>
                            <pixelaspectratio>square</pixelaspectratio>
                            <fielddominance>none</fielddominance>
                            <width>686</width>
                            <height>510</height>
                          </samplecharacteristics>
                        </video>
                      </media>
                    </file>
                  </clipitem>
                </track>
              </video>
            </media>
          </clip>
          <clip explodedTracks="true" frameBlend="FALSE" id="masterclip-49">
            <uuid>29611289-ac3a-402a-b88c-8ec21e897952</uuid>
            <masterclipid>masterclip-49</masterclipid>
            <ismasterclip>TRUE</ismasterclip>
            <duration>144</duration>
            <in>0</in>
            <out>144</out>
            <name>Luca.047.png</name>
            <rate>
              <timebase>24</timebase>
              <ntsc>FALSE</ntsc>
            </rate>
            <media>
              <video>
                <track>
                  <clipitem frameBlend="FALSE" id="clipitem-50">
                    <name>Luca.047.png</name>
                    <masterclipid>masterclip-49</masterclipid>
                    <rate>
                      <timebase>24</timebase>
                      <ntsc>FALSE</ntsc>
                    </rate>
                    <alphatype>straight</alphatype>
                    <pixelaspectratio>square</pixelaspectratio>
                    <anamorphic>FALSE</anamorphic>
                    <file id="file-49">
                      <name>Luca.047.png</name>
                      <pathurl>file://localhost/Users/antoniochiappetta/OneDrive - Aalto University/University/Aalto/Hackatons/Junction/Junction2019-IoK-security_awareness_kids/Assets/Team Animations/Image Sequences/Luca/Luca.047.png</pathurl>
                      <rate>
                        <timebase>24</timebase>
                        <ntsc>FALSE</ntsc>
                      </rate>
                      <duration>144</duration>
                      <timecode>
                        <rate>
                          <timebase>24</timebase>
                          <ntsc>FALSE</ntsc>
                        </rate>
                      </timecode>
                      <media>
                        <video>
                          <duration>1</duration>
                          <samplecharacteristics>
                            <anamorphic>FALSE</anamorphic>
                            <pixelaspectratio>square</pixelaspectratio>
                            <fielddominance>none</fielddominance>
                            <width>686</width>
                            <height>510</height>
                          </samplecharacteristics>
                        </video>
                      </media>
                    </file>
                  </clipitem>
                </track>
              </video>
            </media>
          </clip>
          <clip explodedTracks="true" frameBlend="FALSE" id="masterclip-50">
            <uuid>93878543-3a36-4f75-8513-5ef0273bd909</uuid>
            <masterclipid>masterclip-50</masterclipid>
            <ismasterclip>TRUE</ismasterclip>
            <duration>144</duration>
            <in>0</in>
            <out>144</out>
            <name>Luca.048.png</name>
            <rate>
              <timebase>24</timebase>
              <ntsc>FALSE</ntsc>
            </rate>
            <media>
              <video>
                <track>
                  <clipitem frameBlend="FALSE" id="clipitem-51">
                    <name>Luca.048.png</name>
                    <masterclipid>masterclip-50</masterclipid>
                    <rate>
                      <timebase>24</timebase>
                      <ntsc>FALSE</ntsc>
                    </rate>
                    <alphatype>straight</alphatype>
                    <pixelaspectratio>square</pixelaspectratio>
                    <anamorphic>FALSE</anamorphic>
                    <file id="file-50">
                      <name>Luca.048.png</name>
                      <pathurl>file://localhost/Users/antoniochiappetta/OneDrive - Aalto University/University/Aalto/Hackatons/Junction/Junction2019-IoK-security_awareness_kids/Assets/Team Animations/Image Sequences/Luca/Luca.048.png</pathurl>
                      <rate>
                        <timebase>24</timebase>
                        <ntsc>FALSE</ntsc>
                      </rate>
                      <duration>144</duration>
                      <timecode>
                        <rate>
                          <timebase>24</timebase>
                          <ntsc>FALSE</ntsc>
                        </rate>
                      </timecode>
                      <media>
                        <video>
                          <duration>1</duration>
                          <samplecharacteristics>
                            <anamorphic>FALSE</anamorphic>
                            <pixelaspectratio>square</pixelaspectratio>
                            <fielddominance>none</fielddominance>
                            <width>686</width>
                            <height>510</height>
                          </samplecharacteristics>
                        </video>
                      </media>
                    </file>
                  </clipitem>
                </track>
              </video>
            </media>
          </clip>
          <clip explodedTracks="true" frameBlend="FALSE" id="masterclip-51">
            <uuid>7282fcdd-07e3-4a15-8f72-6d595bfabd38</uuid>
            <masterclipid>masterclip-51</masterclipid>
            <ismasterclip>TRUE</ismasterclip>
            <duration>144</duration>
            <in>0</in>
            <out>144</out>
            <name>Luca.049.png</name>
            <rate>
              <timebase>24</timebase>
              <ntsc>FALSE</ntsc>
            </rate>
            <media>
              <video>
                <track>
                  <clipitem frameBlend="FALSE" id="clipitem-52">
                    <name>Luca.049.png</name>
                    <masterclipid>masterclip-51</masterclipid>
                    <rate>
                      <timebase>24</timebase>
                      <ntsc>FALSE</ntsc>
                    </rate>
                    <alphatype>straight</alphatype>
                    <pixelaspectratio>square</pixelaspectratio>
                    <anamorphic>FALSE</anamorphic>
                    <file id="file-51">
                      <name>Luca.049.png</name>
                      <pathurl>file://localhost/Users/antoniochiappetta/OneDrive - Aalto University/University/Aalto/Hackatons/Junction/Junction2019-IoK-security_awareness_kids/Assets/Team Animations/Image Sequences/Luca/Luca.049.png</pathurl>
                      <rate>
                        <timebase>24</timebase>
                        <ntsc>FALSE</ntsc>
                      </rate>
                      <duration>144</duration>
                      <timecode>
                        <rate>
                          <timebase>24</timebase>
                          <ntsc>FALSE</ntsc>
                        </rate>
                      </timecode>
                      <media>
                        <video>
                          <duration>1</duration>
                          <samplecharacteristics>
                            <anamorphic>FALSE</anamorphic>
                            <pixelaspectratio>square</pixelaspectratio>
                            <fielddominance>none</fielddominance>
                            <width>686</width>
                            <height>510</height>
                          </samplecharacteristics>
                        </video>
                      </media>
                    </file>
                  </clipitem>
                </track>
              </video>
            </media>
          </clip>
          <clip explodedTracks="true" frameBlend="FALSE" id="masterclip-52">
            <uuid>7926702a-d331-4067-b727-6d6e3bd5d39a</uuid>
            <masterclipid>masterclip-52</masterclipid>
            <ismasterclip>TRUE</ismasterclip>
            <duration>144</duration>
            <in>0</in>
            <out>144</out>
            <name>Luca.050.png</name>
            <rate>
              <timebase>24</timebase>
              <ntsc>FALSE</ntsc>
            </rate>
            <media>
              <video>
                <track>
                  <clipitem frameBlend="FALSE" id="clipitem-53">
                    <name>Luca.050.png</name>
                    <masterclipid>masterclip-52</masterclipid>
                    <rate>
                      <timebase>24</timebase>
                      <ntsc>FALSE</ntsc>
                    </rate>
                    <alphatype>straight</alphatype>
                    <pixelaspectratio>square</pixelaspectratio>
                    <anamorphic>FALSE</anamorphic>
                    <file id="file-52">
                      <name>Luca.050.png</name>
                      <pathurl>file://localhost/Users/antoniochiappetta/OneDrive - Aalto University/University/Aalto/Hackatons/Junction/Junction2019-IoK-security_awareness_kids/Assets/Team Animations/Image Sequences/Luca/Luca.050.png</pathurl>
                      <rate>
                        <timebase>24</timebase>
                        <ntsc>FALSE</ntsc>
                      </rate>
                      <duration>144</duration>
                      <timecode>
                        <rate>
                          <timebase>24</timebase>
                          <ntsc>FALSE</ntsc>
                        </rate>
                      </timecode>
                      <media>
                        <video>
                          <duration>1</duration>
                          <samplecharacteristics>
                            <anamorphic>FALSE</anamorphic>
                            <pixelaspectratio>square</pixelaspectratio>
                            <fielddominance>none</fielddominance>
                            <width>686</width>
                            <height>510</height>
                          </samplecharacteristics>
                        </video>
                      </media>
                    </file>
                  </clipitem>
                </track>
              </video>
            </media>
          </clip>
          <clip explodedTracks="true" frameBlend="FALSE" id="masterclip-53">
            <uuid>3f3f8bc1-76b8-4df2-8f32-e84bb5f54576</uuid>
            <masterclipid>masterclip-53</masterclipid>
            <ismasterclip>TRUE</ismasterclip>
            <duration>144</duration>
            <in>0</in>
            <out>144</out>
            <name>Luca.051.png</name>
            <rate>
              <timebase>24</timebase>
              <ntsc>FALSE</ntsc>
            </rate>
            <media>
              <video>
                <track>
                  <clipitem frameBlend="FALSE" id="clipitem-54">
                    <name>Luca.051.png</name>
                    <masterclipid>masterclip-53</masterclipid>
                    <rate>
                      <timebase>24</timebase>
                      <ntsc>FALSE</ntsc>
                    </rate>
                    <alphatype>straight</alphatype>
                    <pixelaspectratio>square</pixelaspectratio>
                    <anamorphic>FALSE</anamorphic>
                    <file id="file-53">
                      <name>Luca.051.png</name>
                      <pathurl>file://localhost/Users/antoniochiappetta/OneDrive - Aalto University/University/Aalto/Hackatons/Junction/Junction2019-IoK-security_awareness_kids/Assets/Team Animations/Image Sequences/Luca/Luca.051.png</pathurl>
                      <rate>
                        <timebase>24</timebase>
                        <ntsc>FALSE</ntsc>
                      </rate>
                      <duration>144</duration>
                      <timecode>
                        <rate>
                          <timebase>24</timebase>
                          <ntsc>FALSE</ntsc>
                        </rate>
                      </timecode>
                      <media>
                        <video>
                          <duration>1</duration>
                          <samplecharacteristics>
                            <anamorphic>FALSE</anamorphic>
                            <pixelaspectratio>square</pixelaspectratio>
                            <fielddominance>none</fielddominance>
                            <width>686</width>
                            <height>510</height>
                          </samplecharacteristics>
                        </video>
                      </media>
                    </file>
                  </clipitem>
                </track>
              </video>
            </media>
          </clip>
          <clip explodedTracks="true" frameBlend="FALSE" id="masterclip-54">
            <uuid>6e349231-7fcf-47ca-8dec-d8ef5715e098</uuid>
            <masterclipid>masterclip-54</masterclipid>
            <ismasterclip>TRUE</ismasterclip>
            <duration>144</duration>
            <in>0</in>
            <out>144</out>
            <name>Luca.052.png</name>
            <rate>
              <timebase>24</timebase>
              <ntsc>FALSE</ntsc>
            </rate>
            <media>
              <video>
                <track>
                  <clipitem frameBlend="FALSE" id="clipitem-55">
                    <name>Luca.052.png</name>
                    <masterclipid>masterclip-54</masterclipid>
                    <rate>
                      <timebase>24</timebase>
                      <ntsc>FALSE</ntsc>
                    </rate>
                    <alphatype>straight</alphatype>
                    <pixelaspectratio>square</pixelaspectratio>
                    <anamorphic>FALSE</anamorphic>
                    <file id="file-54">
                      <name>Luca.052.png</name>
                      <pathurl>file://localhost/Users/antoniochiappetta/OneDrive - Aalto University/University/Aalto/Hackatons/Junction/Junction2019-IoK-security_awareness_kids/Assets/Team Animations/Image Sequences/Luca/Luca.052.png</pathurl>
                      <rate>
                        <timebase>24</timebase>
                        <ntsc>FALSE</ntsc>
                      </rate>
                      <duration>144</duration>
                      <timecode>
                        <rate>
                          <timebase>24</timebase>
                          <ntsc>FALSE</ntsc>
                        </rate>
                      </timecode>
                      <media>
                        <video>
                          <duration>1</duration>
                          <samplecharacteristics>
                            <anamorphic>FALSE</anamorphic>
                            <pixelaspectratio>square</pixelaspectratio>
                            <fielddominance>none</fielddominance>
                            <width>686</width>
                            <height>510</height>
                          </samplecharacteristics>
                        </video>
                      </media>
                    </file>
                  </clipitem>
                </track>
              </video>
            </media>
          </clip>
          <clip explodedTracks="true" frameBlend="FALSE" id="masterclip-55">
            <uuid>bc0941bb-aefb-49bd-8ffb-776900fa2dd8</uuid>
            <masterclipid>masterclip-55</masterclipid>
            <ismasterclip>TRUE</ismasterclip>
            <duration>144</duration>
            <in>0</in>
            <out>144</out>
            <name>Luca.053.png</name>
            <rate>
              <timebase>24</timebase>
              <ntsc>FALSE</ntsc>
            </rate>
            <media>
              <video>
                <track>
                  <clipitem frameBlend="FALSE" id="clipitem-56">
                    <name>Luca.053.png</name>
                    <masterclipid>masterclip-55</masterclipid>
                    <rate>
                      <timebase>24</timebase>
                      <ntsc>FALSE</ntsc>
                    </rate>
                    <alphatype>straight</alphatype>
                    <pixelaspectratio>square</pixelaspectratio>
                    <anamorphic>FALSE</anamorphic>
                    <file id="file-55">
                      <name>Luca.053.png</name>
                      <pathurl>file://localhost/Users/antoniochiappetta/OneDrive - Aalto University/University/Aalto/Hackatons/Junction/Junction2019-IoK-security_awareness_kids/Assets/Team Animations/Image Sequences/Luca/Luca.053.png</pathurl>
                      <rate>
                        <timebase>24</timebase>
                        <ntsc>FALSE</ntsc>
                      </rate>
                      <duration>144</duration>
                      <timecode>
                        <rate>
                          <timebase>24</timebase>
                          <ntsc>FALSE</ntsc>
                        </rate>
                      </timecode>
                      <media>
                        <video>
                          <duration>1</duration>
                          <samplecharacteristics>
                            <anamorphic>FALSE</anamorphic>
                            <pixelaspectratio>square</pixelaspectratio>
                            <fielddominance>none</fielddominance>
                            <width>686</width>
                            <height>510</height>
                          </samplecharacteristics>
                        </video>
                      </media>
                    </file>
                  </clipitem>
                </track>
              </video>
            </media>
          </clip>
          <clip explodedTracks="true" frameBlend="FALSE" id="masterclip-56">
            <uuid>af3d8635-b3ab-4755-8723-64293b22e210</uuid>
            <masterclipid>masterclip-56</masterclipid>
            <ismasterclip>TRUE</ismasterclip>
            <duration>144</duration>
            <in>0</in>
            <out>144</out>
            <name>Luca.054.png</name>
            <rate>
              <timebase>24</timebase>
              <ntsc>FALSE</ntsc>
            </rate>
            <media>
              <video>
                <track>
                  <clipitem frameBlend="FALSE" id="clipitem-57">
                    <name>Luca.054.png</name>
                    <masterclipid>masterclip-56</masterclipid>
                    <rate>
                      <timebase>24</timebase>
                      <ntsc>FALSE</ntsc>
                    </rate>
                    <alphatype>straight</alphatype>
                    <pixelaspectratio>square</pixelaspectratio>
                    <anamorphic>FALSE</anamorphic>
                    <file id="file-56">
                      <name>Luca.054.png</name>
                      <pathurl>file://localhost/Users/antoniochiappetta/OneDrive - Aalto University/University/Aalto/Hackatons/Junction/Junction2019-IoK-security_awareness_kids/Assets/Team Animations/Image Sequences/Luca/Luca.054.png</pathurl>
                      <rate>
                        <timebase>24</timebase>
                        <ntsc>FALSE</ntsc>
                      </rate>
                      <duration>144</duration>
                      <timecode>
                        <rate>
                          <timebase>24</timebase>
                          <ntsc>FALSE</ntsc>
                        </rate>
                      </timecode>
                      <media>
                        <video>
                          <duration>1</duration>
                          <samplecharacteristics>
                            <anamorphic>FALSE</anamorphic>
                            <pixelaspectratio>square</pixelaspectratio>
                            <fielddominance>none</fielddominance>
                            <width>686</width>
                            <height>510</height>
                          </samplecharacteristics>
                        </video>
                      </media>
                    </file>
                  </clipitem>
                </track>
              </video>
            </media>
          </clip>
          <clip explodedTracks="true" frameBlend="FALSE" id="masterclip-57">
            <uuid>b2b9c00c-1539-4f1e-836d-81ec655cee7e</uuid>
            <masterclipid>masterclip-57</masterclipid>
            <ismasterclip>TRUE</ismasterclip>
            <duration>144</duration>
            <in>0</in>
            <out>144</out>
            <name>Luca.055.png</name>
            <rate>
              <timebase>24</timebase>
              <ntsc>FALSE</ntsc>
            </rate>
            <media>
              <video>
                <track>
                  <clipitem frameBlend="FALSE" id="clipitem-58">
                    <name>Luca.055.png</name>
                    <masterclipid>masterclip-57</masterclipid>
                    <rate>
                      <timebase>24</timebase>
                      <ntsc>FALSE</ntsc>
                    </rate>
                    <alphatype>straight</alphatype>
                    <pixelaspectratio>square</pixelaspectratio>
                    <anamorphic>FALSE</anamorphic>
                    <file id="file-57">
                      <name>Luca.055.png</name>
                      <pathurl>file://localhost/Users/antoniochiappetta/OneDrive - Aalto University/University/Aalto/Hackatons/Junction/Junction2019-IoK-security_awareness_kids/Assets/Team Animations/Image Sequences/Luca/Luca.055.png</pathurl>
                      <rate>
                        <timebase>24</timebase>
                        <ntsc>FALSE</ntsc>
                      </rate>
                      <duration>144</duration>
                      <timecode>
                        <rate>
                          <timebase>24</timebase>
                          <ntsc>FALSE</ntsc>
                        </rate>
                      </timecode>
                      <media>
                        <video>
                          <duration>1</duration>
                          <samplecharacteristics>
                            <anamorphic>FALSE</anamorphic>
                            <pixelaspectratio>square</pixelaspectratio>
                            <fielddominance>none</fielddominance>
                            <width>686</width>
                            <height>510</height>
                          </samplecharacteristics>
                        </video>
                      </media>
                    </file>
                  </clipitem>
                </track>
              </video>
            </media>
          </clip>
          <clip explodedTracks="true" frameBlend="FALSE" id="masterclip-58">
            <uuid>96c373ec-247a-4e4a-af75-865b67b72279</uuid>
            <masterclipid>masterclip-58</masterclipid>
            <ismasterclip>TRUE</ismasterclip>
            <duration>144</duration>
            <in>0</in>
            <out>144</out>
            <name>Luca.056.png</name>
            <rate>
              <timebase>24</timebase>
              <ntsc>FALSE</ntsc>
            </rate>
            <media>
              <video>
                <track>
                  <clipitem frameBlend="FALSE" id="clipitem-59">
                    <name>Luca.056.png</name>
                    <masterclipid>masterclip-58</masterclipid>
                    <rate>
                      <timebase>24</timebase>
                      <ntsc>FALSE</ntsc>
                    </rate>
                    <alphatype>straight</alphatype>
                    <pixelaspectratio>square</pixelaspectratio>
                    <anamorphic>FALSE</anamorphic>
                    <file id="file-58">
                      <name>Luca.056.png</name>
                      <pathurl>file://localhost/Users/antoniochiappetta/OneDrive - Aalto University/University/Aalto/Hackatons/Junction/Junction2019-IoK-security_awareness_kids/Assets/Team Animations/Image Sequences/Luca/Luca.056.png</pathurl>
                      <rate>
                        <timebase>24</timebase>
                        <ntsc>FALSE</ntsc>
                      </rate>
                      <duration>144</duration>
                      <timecode>
                        <rate>
                          <timebase>24</timebase>
                          <ntsc>FALSE</ntsc>
                        </rate>
                      </timecode>
                      <media>
                        <video>
                          <duration>1</duration>
                          <samplecharacteristics>
                            <anamorphic>FALSE</anamorphic>
                            <pixelaspectratio>square</pixelaspectratio>
                            <fielddominance>none</fielddominance>
                            <width>686</width>
                            <height>510</height>
                          </samplecharacteristics>
                        </video>
                      </media>
                    </file>
                  </clipitem>
                </track>
              </video>
            </media>
          </clip>
          <clip explodedTracks="true" frameBlend="FALSE" id="masterclip-59">
            <uuid>b7674264-b798-43b6-9c6d-0ee2cde4d524</uuid>
            <masterclipid>masterclip-59</masterclipid>
            <ismasterclip>TRUE</ismasterclip>
            <duration>144</duration>
            <in>0</in>
            <out>144</out>
            <name>Luca.057.png</name>
            <rate>
              <timebase>24</timebase>
              <ntsc>FALSE</ntsc>
            </rate>
            <media>
              <video>
                <track>
                  <clipitem frameBlend="FALSE" id="clipitem-60">
                    <name>Luca.057.png</name>
                    <masterclipid>masterclip-59</masterclipid>
                    <rate>
                      <timebase>24</timebase>
                      <ntsc>FALSE</ntsc>
                    </rate>
                    <alphatype>straight</alphatype>
                    <pixelaspectratio>square</pixelaspectratio>
                    <anamorphic>FALSE</anamorphic>
                    <file id="file-59">
                      <name>Luca.057.png</name>
                      <pathurl>file://localhost/Users/antoniochiappetta/OneDrive - Aalto University/University/Aalto/Hackatons/Junction/Junction2019-IoK-security_awareness_kids/Assets/Team Animations/Image Sequences/Luca/Luca.057.png</pathurl>
                      <rate>
                        <timebase>24</timebase>
                        <ntsc>FALSE</ntsc>
                      </rate>
                      <duration>144</duration>
                      <timecode>
                        <rate>
                          <timebase>24</timebase>
                          <ntsc>FALSE</ntsc>
                        </rate>
                      </timecode>
                      <media>
                        <video>
                          <duration>1</duration>
                          <samplecharacteristics>
                            <anamorphic>FALSE</anamorphic>
                            <pixelaspectratio>square</pixelaspectratio>
                            <fielddominance>none</fielddominance>
                            <width>686</width>
                            <height>510</height>
                          </samplecharacteristics>
                        </video>
                      </media>
                    </file>
                  </clipitem>
                </track>
              </video>
            </media>
          </clip>
          <clip explodedTracks="true" frameBlend="FALSE" id="masterclip-60">
            <uuid>52e63226-0757-43f0-9534-91318522119e</uuid>
            <masterclipid>masterclip-60</masterclipid>
            <ismasterclip>TRUE</ismasterclip>
            <duration>144</duration>
            <in>0</in>
            <out>144</out>
            <name>Luca.058.png</name>
            <rate>
              <timebase>24</timebase>
              <ntsc>FALSE</ntsc>
            </rate>
            <media>
              <video>
                <track>
                  <clipitem frameBlend="FALSE" id="clipitem-61">
                    <name>Luca.058.png</name>
                    <masterclipid>masterclip-60</masterclipid>
                    <rate>
                      <timebase>24</timebase>
                      <ntsc>FALSE</ntsc>
                    </rate>
                    <alphatype>straight</alphatype>
                    <pixelaspectratio>square</pixelaspectratio>
                    <anamorphic>FALSE</anamorphic>
                    <file id="file-60">
                      <name>Luca.058.png</name>
                      <pathurl>file://localhost/Users/antoniochiappetta/OneDrive - Aalto University/University/Aalto/Hackatons/Junction/Junction2019-IoK-security_awareness_kids/Assets/Team Animations/Image Sequences/Luca/Luca.058.png</pathurl>
                      <rate>
                        <timebase>24</timebase>
                        <ntsc>FALSE</ntsc>
                      </rate>
                      <duration>144</duration>
                      <timecode>
                        <rate>
                          <timebase>24</timebase>
                          <ntsc>FALSE</ntsc>
                        </rate>
                      </timecode>
                      <media>
                        <video>
                          <duration>1</duration>
                          <samplecharacteristics>
                            <anamorphic>FALSE</anamorphic>
                            <pixelaspectratio>square</pixelaspectratio>
                            <fielddominance>none</fielddominance>
                            <width>686</width>
                            <height>510</height>
                          </samplecharacteristics>
                        </video>
                      </media>
                    </file>
                  </clipitem>
                </track>
              </video>
            </media>
          </clip>
          <clip explodedTracks="true" frameBlend="FALSE" id="masterclip-61">
            <uuid>17287156-37e0-4ad4-89e5-2409306c677b</uuid>
            <masterclipid>masterclip-61</masterclipid>
            <ismasterclip>TRUE</ismasterclip>
            <duration>144</duration>
            <in>0</in>
            <out>144</out>
            <name>Luca.059.png</name>
            <rate>
              <timebase>24</timebase>
              <ntsc>FALSE</ntsc>
            </rate>
            <media>
              <video>
                <track>
                  <clipitem frameBlend="FALSE" id="clipitem-62">
                    <name>Luca.059.png</name>
                    <masterclipid>masterclip-61</masterclipid>
                    <rate>
                      <timebase>24</timebase>
                      <ntsc>FALSE</ntsc>
                    </rate>
                    <alphatype>straight</alphatype>
                    <pixelaspectratio>square</pixelaspectratio>
                    <anamorphic>FALSE</anamorphic>
                    <file id="file-61">
                      <name>Luca.059.png</name>
                      <pathurl>file://localhost/Users/antoniochiappetta/OneDrive - Aalto University/University/Aalto/Hackatons/Junction/Junction2019-IoK-security_awareness_kids/Assets/Team Animations/Image Sequences/Luca/Luca.059.png</pathurl>
                      <rate>
                        <timebase>24</timebase>
                        <ntsc>FALSE</ntsc>
                      </rate>
                      <duration>144</duration>
                      <timecode>
                        <rate>
                          <timebase>24</timebase>
                          <ntsc>FALSE</ntsc>
                        </rate>
                      </timecode>
                      <media>
                        <video>
                          <duration>1</duration>
                          <samplecharacteristics>
                            <anamorphic>FALSE</anamorphic>
                            <pixelaspectratio>square</pixelaspectratio>
                            <fielddominance>none</fielddominance>
                            <width>686</width>
                            <height>510</height>
                          </samplecharacteristics>
                        </video>
                      </media>
                    </file>
                  </clipitem>
                </track>
              </video>
            </media>
          </clip>
          <clip explodedTracks="true" frameBlend="FALSE" id="masterclip-62">
            <uuid>ca16c2ea-f3b8-4002-b945-c1cb0ca98ff7</uuid>
            <masterclipid>masterclip-62</masterclipid>
            <ismasterclip>TRUE</ismasterclip>
            <duration>144</duration>
            <in>0</in>
            <out>144</out>
            <name>Luca.060.png</name>
            <rate>
              <timebase>24</timebase>
              <ntsc>FALSE</ntsc>
            </rate>
            <media>
              <video>
                <track>
                  <clipitem frameBlend="FALSE" id="clipitem-63">
                    <name>Luca.060.png</name>
                    <masterclipid>masterclip-62</masterclipid>
                    <rate>
                      <timebase>24</timebase>
                      <ntsc>FALSE</ntsc>
                    </rate>
                    <alphatype>straight</alphatype>
                    <pixelaspectratio>square</pixelaspectratio>
                    <anamorphic>FALSE</anamorphic>
                    <file id="file-62">
                      <name>Luca.060.png</name>
                      <pathurl>file://localhost/Users/antoniochiappetta/OneDrive - Aalto University/University/Aalto/Hackatons/Junction/Junction2019-IoK-security_awareness_kids/Assets/Team Animations/Image Sequences/Luca/Luca.060.png</pathurl>
                      <rate>
                        <timebase>24</timebase>
                        <ntsc>FALSE</ntsc>
                      </rate>
                      <duration>144</duration>
                      <timecode>
                        <rate>
                          <timebase>24</timebase>
                          <ntsc>FALSE</ntsc>
                        </rate>
                      </timecode>
                      <media>
                        <video>
                          <duration>1</duration>
                          <samplecharacteristics>
                            <anamorphic>FALSE</anamorphic>
                            <pixelaspectratio>square</pixelaspectratio>
                            <fielddominance>none</fielddominance>
                            <width>686</width>
                            <height>510</height>
                          </samplecharacteristics>
                        </video>
                      </media>
                    </file>
                  </clipitem>
                </track>
              </video>
            </media>
          </clip>
          <clip explodedTracks="true" frameBlend="FALSE" id="masterclip-63">
            <uuid>efd9a45b-a543-4e3b-9838-1dbcd51494ea</uuid>
            <masterclipid>masterclip-63</masterclipid>
            <ismasterclip>TRUE</ismasterclip>
            <duration>144</duration>
            <in>0</in>
            <out>144</out>
            <name>Luca.061.png</name>
            <rate>
              <timebase>24</timebase>
              <ntsc>FALSE</ntsc>
            </rate>
            <media>
              <video>
                <track>
                  <clipitem frameBlend="FALSE" id="clipitem-64">
                    <name>Luca.061.png</name>
                    <masterclipid>masterclip-63</masterclipid>
                    <rate>
                      <timebase>24</timebase>
                      <ntsc>FALSE</ntsc>
                    </rate>
                    <alphatype>straight</alphatype>
                    <pixelaspectratio>square</pixelaspectratio>
                    <anamorphic>FALSE</anamorphic>
                    <file id="file-63">
                      <name>Luca.061.png</name>
                      <pathurl>file://localhost/Users/antoniochiappetta/OneDrive - Aalto University/University/Aalto/Hackatons/Junction/Junction2019-IoK-security_awareness_kids/Assets/Team Animations/Image Sequences/Luca/Luca.061.png</pathurl>
                      <rate>
                        <timebase>24</timebase>
                        <ntsc>FALSE</ntsc>
                      </rate>
                      <duration>144</duration>
                      <timecode>
                        <rate>
                          <timebase>24</timebase>
                          <ntsc>FALSE</ntsc>
                        </rate>
                      </timecode>
                      <media>
                        <video>
                          <duration>1</duration>
                          <samplecharacteristics>
                            <anamorphic>FALSE</anamorphic>
                            <pixelaspectratio>square</pixelaspectratio>
                            <fielddominance>none</fielddominance>
                            <width>686</width>
                            <height>510</height>
                          </samplecharacteristics>
                        </video>
                      </media>
                    </file>
                  </clipitem>
                </track>
              </video>
            </media>
          </clip>
          <clip explodedTracks="true" frameBlend="FALSE" id="masterclip-64">
            <uuid>326b3c1b-9165-4590-a7d0-363a6e7dd299</uuid>
            <masterclipid>masterclip-64</masterclipid>
            <ismasterclip>TRUE</ismasterclip>
            <duration>144</duration>
            <in>0</in>
            <out>144</out>
            <name>Luca.062.png</name>
            <rate>
              <timebase>24</timebase>
              <ntsc>FALSE</ntsc>
            </rate>
            <media>
              <video>
                <track>
                  <clipitem frameBlend="FALSE" id="clipitem-65">
                    <name>Luca.062.png</name>
                    <masterclipid>masterclip-64</masterclipid>
                    <rate>
                      <timebase>24</timebase>
                      <ntsc>FALSE</ntsc>
                    </rate>
                    <alphatype>straight</alphatype>
                    <pixelaspectratio>square</pixelaspectratio>
                    <anamorphic>FALSE</anamorphic>
                    <file id="file-64">
                      <name>Luca.062.png</name>
                      <pathurl>file://localhost/Users/antoniochiappetta/OneDrive - Aalto University/University/Aalto/Hackatons/Junction/Junction2019-IoK-security_awareness_kids/Assets/Team Animations/Image Sequences/Luca/Luca.062.png</pathurl>
                      <rate>
                        <timebase>24</timebase>
                        <ntsc>FALSE</ntsc>
                      </rate>
                      <duration>144</duration>
                      <timecode>
                        <rate>
                          <timebase>24</timebase>
                          <ntsc>FALSE</ntsc>
                        </rate>
                      </timecode>
                      <media>
                        <video>
                          <duration>1</duration>
                          <samplecharacteristics>
                            <anamorphic>FALSE</anamorphic>
                            <pixelaspectratio>square</pixelaspectratio>
                            <fielddominance>none</fielddominance>
                            <width>686</width>
                            <height>510</height>
                          </samplecharacteristics>
                        </video>
                      </media>
                    </file>
                  </clipitem>
                </track>
              </video>
            </media>
          </clip>
          <clip explodedTracks="true" frameBlend="FALSE" id="masterclip-65">
            <uuid>dd44bd56-23d3-44a9-acea-2b56c3fce8de</uuid>
            <masterclipid>masterclip-65</masterclipid>
            <ismasterclip>TRUE</ismasterclip>
            <duration>144</duration>
            <in>0</in>
            <out>144</out>
            <name>Luca.063.png</name>
            <rate>
              <timebase>24</timebase>
              <ntsc>FALSE</ntsc>
            </rate>
            <media>
              <video>
                <track>
                  <clipitem frameBlend="FALSE" id="clipitem-66">
                    <name>Luca.063.png</name>
                    <masterclipid>masterclip-65</masterclipid>
                    <rate>
                      <timebase>24</timebase>
                      <ntsc>FALSE</ntsc>
                    </rate>
                    <alphatype>straight</alphatype>
                    <pixelaspectratio>square</pixelaspectratio>
                    <anamorphic>FALSE</anamorphic>
                    <file id="file-65">
                      <name>Luca.063.png</name>
                      <pathurl>file://localhost/Users/antoniochiappetta/OneDrive - Aalto University/University/Aalto/Hackatons/Junction/Junction2019-IoK-security_awareness_kids/Assets/Team Animations/Image Sequences/Luca/Luca.063.png</pathurl>
                      <rate>
                        <timebase>24</timebase>
                        <ntsc>FALSE</ntsc>
                      </rate>
                      <duration>144</duration>
                      <timecode>
                        <rate>
                          <timebase>24</timebase>
                          <ntsc>FALSE</ntsc>
                        </rate>
                      </timecode>
                      <media>
                        <video>
                          <duration>1</duration>
                          <samplecharacteristics>
                            <anamorphic>FALSE</anamorphic>
                            <pixelaspectratio>square</pixelaspectratio>
                            <fielddominance>none</fielddominance>
                            <width>686</width>
                            <height>510</height>
                          </samplecharacteristics>
                        </video>
                      </media>
                    </file>
                  </clipitem>
                </track>
              </video>
            </media>
          </clip>
          <clip explodedTracks="true" frameBlend="FALSE" id="masterclip-66">
            <uuid>f103506d-343a-4687-bed7-c7c07956a8e1</uuid>
            <masterclipid>masterclip-66</masterclipid>
            <ismasterclip>TRUE</ismasterclip>
            <duration>144</duration>
            <in>0</in>
            <out>144</out>
            <name>Luca.064.png</name>
            <rate>
              <timebase>24</timebase>
              <ntsc>FALSE</ntsc>
            </rate>
            <media>
              <video>
                <track>
                  <clipitem frameBlend="FALSE" id="clipitem-67">
                    <name>Luca.064.png</name>
                    <masterclipid>masterclip-66</masterclipid>
                    <rate>
                      <timebase>24</timebase>
                      <ntsc>FALSE</ntsc>
                    </rate>
                    <alphatype>straight</alphatype>
                    <pixelaspectratio>square</pixelaspectratio>
                    <anamorphic>FALSE</anamorphic>
                    <file id="file-66">
                      <name>Luca.064.png</name>
                      <pathurl>file://localhost/Users/antoniochiappetta/OneDrive - Aalto University/University/Aalto/Hackatons/Junction/Junction2019-IoK-security_awareness_kids/Assets/Team Animations/Image Sequences/Luca/Luca.064.png</pathurl>
                      <rate>
                        <timebase>24</timebase>
                        <ntsc>FALSE</ntsc>
                      </rate>
                      <duration>144</duration>
                      <timecode>
                        <rate>
                          <timebase>24</timebase>
                          <ntsc>FALSE</ntsc>
                        </rate>
                      </timecode>
                      <media>
                        <video>
                          <duration>1</duration>
                          <samplecharacteristics>
                            <anamorphic>FALSE</anamorphic>
                            <pixelaspectratio>square</pixelaspectratio>
                            <fielddominance>none</fielddominance>
                            <width>686</width>
                            <height>510</height>
                          </samplecharacteristics>
                        </video>
                      </media>
                    </file>
                  </clipitem>
                </track>
              </video>
            </media>
          </clip>
          <clip explodedTracks="true" frameBlend="FALSE" id="masterclip-67">
            <uuid>79bdf095-468e-459f-92be-f3476c5f7fbf</uuid>
            <masterclipid>masterclip-67</masterclipid>
            <ismasterclip>TRUE</ismasterclip>
            <duration>144</duration>
            <in>0</in>
            <out>144</out>
            <name>Luca.065.png</name>
            <rate>
              <timebase>24</timebase>
              <ntsc>FALSE</ntsc>
            </rate>
            <media>
              <video>
                <track>
                  <clipitem frameBlend="FALSE" id="clipitem-68">
                    <name>Luca.065.png</name>
                    <masterclipid>masterclip-67</masterclipid>
                    <rate>
                      <timebase>24</timebase>
                      <ntsc>FALSE</ntsc>
                    </rate>
                    <alphatype>straight</alphatype>
                    <pixelaspectratio>square</pixelaspectratio>
                    <anamorphic>FALSE</anamorphic>
                    <file id="file-67">
                      <name>Luca.065.png</name>
                      <pathurl>file://localhost/Users/antoniochiappetta/OneDrive - Aalto University/University/Aalto/Hackatons/Junction/Junction2019-IoK-security_awareness_kids/Assets/Team Animations/Image Sequences/Luca/Luca.065.png</pathurl>
                      <rate>
                        <timebase>24</timebase>
                        <ntsc>FALSE</ntsc>
                      </rate>
                      <duration>144</duration>
                      <timecode>
                        <rate>
                          <timebase>24</timebase>
                          <ntsc>FALSE</ntsc>
                        </rate>
                      </timecode>
                      <media>
                        <video>
                          <duration>1</duration>
                          <samplecharacteristics>
                            <anamorphic>FALSE</anamorphic>
                            <pixelaspectratio>square</pixelaspectratio>
                            <fielddominance>none</fielddominance>
                            <width>686</width>
                            <height>510</height>
                          </samplecharacteristics>
                        </video>
                      </media>
                    </file>
                  </clipitem>
                </track>
              </video>
            </media>
          </clip>
          <clip explodedTracks="true" frameBlend="FALSE" id="masterclip-68">
            <uuid>21218740-d07f-4f2c-a6cc-084340911e20</uuid>
            <masterclipid>masterclip-68</masterclipid>
            <ismasterclip>TRUE</ismasterclip>
            <duration>144</duration>
            <in>0</in>
            <out>144</out>
            <name>Luca.066.png</name>
            <rate>
              <timebase>24</timebase>
              <ntsc>FALSE</ntsc>
            </rate>
            <media>
              <video>
                <track>
                  <clipitem frameBlend="FALSE" id="clipitem-69">
                    <name>Luca.066.png</name>
                    <masterclipid>masterclip-68</masterclipid>
                    <rate>
                      <timebase>24</timebase>
                      <ntsc>FALSE</ntsc>
                    </rate>
                    <alphatype>straight</alphatype>
                    <pixelaspectratio>square</pixelaspectratio>
                    <anamorphic>FALSE</anamorphic>
                    <file id="file-68">
                      <name>Luca.066.png</name>
                      <pathurl>file://localhost/Users/antoniochiappetta/OneDrive - Aalto University/University/Aalto/Hackatons/Junction/Junction2019-IoK-security_awareness_kids/Assets/Team Animations/Image Sequences/Luca/Luca.066.png</pathurl>
                      <rate>
                        <timebase>24</timebase>
                        <ntsc>FALSE</ntsc>
                      </rate>
                      <duration>144</duration>
                      <timecode>
                        <rate>
                          <timebase>24</timebase>
                          <ntsc>FALSE</ntsc>
                        </rate>
                      </timecode>
                      <media>
                        <video>
                          <duration>1</duration>
                          <samplecharacteristics>
                            <anamorphic>FALSE</anamorphic>
                            <pixelaspectratio>square</pixelaspectratio>
                            <fielddominance>none</fielddominance>
                            <width>686</width>
                            <height>510</height>
                          </samplecharacteristics>
                        </video>
                      </media>
                    </file>
                  </clipitem>
                </track>
              </video>
            </media>
          </clip>
          <clip explodedTracks="true" frameBlend="FALSE" id="masterclip-69">
            <uuid>ec9ce5cf-780e-437c-8895-1164d2332350</uuid>
            <masterclipid>masterclip-69</masterclipid>
            <ismasterclip>TRUE</ismasterclip>
            <duration>144</duration>
            <in>0</in>
            <out>144</out>
            <name>Luca.067.png</name>
            <rate>
              <timebase>24</timebase>
              <ntsc>FALSE</ntsc>
            </rate>
            <media>
              <video>
                <track>
                  <clipitem frameBlend="FALSE" id="clipitem-70">
                    <name>Luca.067.png</name>
                    <masterclipid>masterclip-69</masterclipid>
                    <rate>
                      <timebase>24</timebase>
                      <ntsc>FALSE</ntsc>
                    </rate>
                    <alphatype>straight</alphatype>
                    <pixelaspectratio>square</pixelaspectratio>
                    <anamorphic>FALSE</anamorphic>
                    <file id="file-69">
                      <name>Luca.067.png</name>
                      <pathurl>file://localhost/Users/antoniochiappetta/OneDrive - Aalto University/University/Aalto/Hackatons/Junction/Junction2019-IoK-security_awareness_kids/Assets/Team Animations/Image Sequences/Luca/Luca.067.png</pathurl>
                      <rate>
                        <timebase>24</timebase>
                        <ntsc>FALSE</ntsc>
                      </rate>
                      <duration>144</duration>
                      <timecode>
                        <rate>
                          <timebase>24</timebase>
                          <ntsc>FALSE</ntsc>
                        </rate>
                      </timecode>
                      <media>
                        <video>
                          <duration>1</duration>
                          <samplecharacteristics>
                            <anamorphic>FALSE</anamorphic>
                            <pixelaspectratio>square</pixelaspectratio>
                            <fielddominance>none</fielddominance>
                            <width>686</width>
                            <height>510</height>
                          </samplecharacteristics>
                        </video>
                      </media>
                    </file>
                  </clipitem>
                </track>
              </video>
            </media>
          </clip>
          <clip explodedTracks="true" frameBlend="FALSE" id="masterclip-70">
            <uuid>e02f882f-c953-44c8-b6c3-3513eed1023d</uuid>
            <masterclipid>masterclip-70</masterclipid>
            <ismasterclip>TRUE</ismasterclip>
            <duration>144</duration>
            <in>0</in>
            <out>144</out>
            <name>Luca.068.png</name>
            <rate>
              <timebase>24</timebase>
              <ntsc>FALSE</ntsc>
            </rate>
            <media>
              <video>
                <track>
                  <clipitem frameBlend="FALSE" id="clipitem-71">
                    <name>Luca.068.png</name>
                    <masterclipid>masterclip-70</masterclipid>
                    <rate>
                      <timebase>24</timebase>
                      <ntsc>FALSE</ntsc>
                    </rate>
                    <alphatype>straight</alphatype>
                    <pixelaspectratio>square</pixelaspectratio>
                    <anamorphic>FALSE</anamorphic>
                    <file id="file-70">
                      <name>Luca.068.png</name>
                      <pathurl>file://localhost/Users/antoniochiappetta/OneDrive - Aalto University/University/Aalto/Hackatons/Junction/Junction2019-IoK-security_awareness_kids/Assets/Team Animations/Image Sequences/Luca/Luca.068.png</pathurl>
                      <rate>
                        <timebase>24</timebase>
                        <ntsc>FALSE</ntsc>
                      </rate>
                      <duration>144</duration>
                      <timecode>
                        <rate>
                          <timebase>24</timebase>
                          <ntsc>FALSE</ntsc>
                        </rate>
                      </timecode>
                      <media>
                        <video>
                          <duration>1</duration>
                          <samplecharacteristics>
                            <anamorphic>FALSE</anamorphic>
                            <pixelaspectratio>square</pixelaspectratio>
                            <fielddominance>none</fielddominance>
                            <width>686</width>
                            <height>510</height>
                          </samplecharacteristics>
                        </video>
                      </media>
                    </file>
                  </clipitem>
                </track>
              </video>
            </media>
          </clip>
          <clip explodedTracks="true" frameBlend="FALSE" id="masterclip-71">
            <uuid>faeab861-940b-4e91-9711-632ac43c41d6</uuid>
            <masterclipid>masterclip-71</masterclipid>
            <ismasterclip>TRUE</ismasterclip>
            <duration>144</duration>
            <in>0</in>
            <out>144</out>
            <name>Luca.069.png</name>
            <rate>
              <timebase>24</timebase>
              <ntsc>FALSE</ntsc>
            </rate>
            <media>
              <video>
                <track>
                  <clipitem frameBlend="FALSE" id="clipitem-72">
                    <name>Luca.069.png</name>
                    <masterclipid>masterclip-71</masterclipid>
                    <rate>
                      <timebase>24</timebase>
                      <ntsc>FALSE</ntsc>
                    </rate>
                    <alphatype>straight</alphatype>
                    <pixelaspectratio>square</pixelaspectratio>
                    <anamorphic>FALSE</anamorphic>
                    <file id="file-71">
                      <name>Luca.069.png</name>
                      <pathurl>file://localhost/Users/antoniochiappetta/OneDrive - Aalto University/University/Aalto/Hackatons/Junction/Junction2019-IoK-security_awareness_kids/Assets/Team Animations/Image Sequences/Luca/Luca.069.png</pathurl>
                      <rate>
                        <timebase>24</timebase>
                        <ntsc>FALSE</ntsc>
                      </rate>
                      <duration>144</duration>
                      <timecode>
                        <rate>
                          <timebase>24</timebase>
                          <ntsc>FALSE</ntsc>
                        </rate>
                      </timecode>
                      <media>
                        <video>
                          <duration>1</duration>
                          <samplecharacteristics>
                            <anamorphic>FALSE</anamorphic>
                            <pixelaspectratio>square</pixelaspectratio>
                            <fielddominance>none</fielddominance>
                            <width>686</width>
                            <height>510</height>
                          </samplecharacteristics>
                        </video>
                      </media>
                    </file>
                  </clipitem>
                </track>
              </video>
            </media>
          </clip>
          <clip explodedTracks="true" frameBlend="FALSE" id="masterclip-72">
            <uuid>a1c9bee5-db14-4108-996a-62cb97c3b0e2</uuid>
            <masterclipid>masterclip-72</masterclipid>
            <ismasterclip>TRUE</ismasterclip>
            <duration>144</duration>
            <in>0</in>
            <out>144</out>
            <name>Luca.070.png</name>
            <rate>
              <timebase>24</timebase>
              <ntsc>FALSE</ntsc>
            </rate>
            <media>
              <video>
                <track>
                  <clipitem frameBlend="FALSE" id="clipitem-73">
                    <name>Luca.070.png</name>
                    <masterclipid>masterclip-72</masterclipid>
                    <rate>
                      <timebase>24</timebase>
                      <ntsc>FALSE</ntsc>
                    </rate>
                    <alphatype>straight</alphatype>
                    <pixelaspectratio>square</pixelaspectratio>
                    <anamorphic>FALSE</anamorphic>
                    <file id="file-72">
                      <name>Luca.070.png</name>
                      <pathurl>file://localhost/Users/antoniochiappetta/OneDrive - Aalto University/University/Aalto/Hackatons/Junction/Junction2019-IoK-security_awareness_kids/Assets/Team Animations/Image Sequences/Luca/Luca.070.png</pathurl>
                      <rate>
                        <timebase>24</timebase>
                        <ntsc>FALSE</ntsc>
                      </rate>
                      <duration>144</duration>
                      <timecode>
                        <rate>
                          <timebase>24</timebase>
                          <ntsc>FALSE</ntsc>
                        </rate>
                      </timecode>
                      <media>
                        <video>
                          <duration>1</duration>
                          <samplecharacteristics>
                            <anamorphic>FALSE</anamorphic>
                            <pixelaspectratio>square</pixelaspectratio>
                            <fielddominance>none</fielddominance>
                            <width>686</width>
                            <height>510</height>
                          </samplecharacteristics>
                        </video>
                      </media>
                    </file>
                  </clipitem>
                </track>
              </video>
            </media>
          </clip>
          <clip explodedTracks="true" frameBlend="FALSE" id="masterclip-73">
            <uuid>80ee6ff4-2715-40fd-8b4e-2210d119859c</uuid>
            <masterclipid>masterclip-73</masterclipid>
            <ismasterclip>TRUE</ismasterclip>
            <duration>144</duration>
            <in>0</in>
            <out>144</out>
            <name>Luca.071.png</name>
            <rate>
              <timebase>24</timebase>
              <ntsc>FALSE</ntsc>
            </rate>
            <media>
              <video>
                <track>
                  <clipitem frameBlend="FALSE" id="clipitem-74">
                    <name>Luca.071.png</name>
                    <masterclipid>masterclip-73</masterclipid>
                    <rate>
                      <timebase>24</timebase>
                      <ntsc>FALSE</ntsc>
                    </rate>
                    <alphatype>straight</alphatype>
                    <pixelaspectratio>square</pixelaspectratio>
                    <anamorphic>FALSE</anamorphic>
                    <file id="file-73">
                      <name>Luca.071.png</name>
                      <pathurl>file://localhost/Users/antoniochiappetta/OneDrive - Aalto University/University/Aalto/Hackatons/Junction/Junction2019-IoK-security_awareness_kids/Assets/Team Animations/Image Sequences/Luca/Luca.071.png</pathurl>
                      <rate>
                        <timebase>24</timebase>
                        <ntsc>FALSE</ntsc>
                      </rate>
                      <duration>144</duration>
                      <timecode>
                        <rate>
                          <timebase>24</timebase>
                          <ntsc>FALSE</ntsc>
                        </rate>
                      </timecode>
                      <media>
                        <video>
                          <duration>1</duration>
                          <samplecharacteristics>
                            <anamorphic>FALSE</anamorphic>
                            <pixelaspectratio>square</pixelaspectratio>
                            <fielddominance>none</fielddominance>
                            <width>686</width>
                            <height>510</height>
                          </samplecharacteristics>
                        </video>
                      </media>
                    </file>
                  </clipitem>
                </track>
              </video>
            </media>
          </clip>
          <clip explodedTracks="true" frameBlend="FALSE" id="masterclip-74">
            <uuid>7dee070f-9e0a-474e-9034-fcba2bf57126</uuid>
            <masterclipid>masterclip-74</masterclipid>
            <ismasterclip>TRUE</ismasterclip>
            <duration>144</duration>
            <in>0</in>
            <out>144</out>
            <name>Luca.072.png</name>
            <rate>
              <timebase>24</timebase>
              <ntsc>FALSE</ntsc>
            </rate>
            <media>
              <video>
                <track>
                  <clipitem frameBlend="FALSE" id="clipitem-75">
                    <name>Luca.072.png</name>
                    <masterclipid>masterclip-74</masterclipid>
                    <rate>
                      <timebase>24</timebase>
                      <ntsc>FALSE</ntsc>
                    </rate>
                    <alphatype>straight</alphatype>
                    <pixelaspectratio>square</pixelaspectratio>
                    <anamorphic>FALSE</anamorphic>
                    <file id="file-74">
                      <name>Luca.072.png</name>
                      <pathurl>file://localhost/Users/antoniochiappetta/OneDrive - Aalto University/University/Aalto/Hackatons/Junction/Junction2019-IoK-security_awareness_kids/Assets/Team Animations/Image Sequences/Luca/Luca.072.png</pathurl>
                      <rate>
                        <timebase>24</timebase>
                        <ntsc>FALSE</ntsc>
                      </rate>
                      <duration>144</duration>
                      <timecode>
                        <rate>
                          <timebase>24</timebase>
                          <ntsc>FALSE</ntsc>
                        </rate>
                      </timecode>
                      <media>
                        <video>
                          <duration>1</duration>
                          <samplecharacteristics>
                            <anamorphic>FALSE</anamorphic>
                            <pixelaspectratio>square</pixelaspectratio>
                            <fielddominance>none</fielddominance>
                            <width>686</width>
                            <height>510</height>
                          </samplecharacteristics>
                        </video>
                      </media>
                    </file>
                  </clipitem>
                </track>
              </video>
            </media>
          </clip>
          <clip explodedTracks="true" frameBlend="FALSE" id="masterclip-75">
            <uuid>e206b7df-e1cb-43fa-ab5a-b5ff4c699e8c</uuid>
            <masterclipid>masterclip-75</masterclipid>
            <ismasterclip>TRUE</ismasterclip>
            <duration>144</duration>
            <in>0</in>
            <out>144</out>
            <name>Luca.073.png</name>
            <rate>
              <timebase>24</timebase>
              <ntsc>FALSE</ntsc>
            </rate>
            <media>
              <video>
                <track>
                  <clipitem frameBlend="FALSE" id="clipitem-76">
                    <name>Luca.073.png</name>
                    <masterclipid>masterclip-75</masterclipid>
                    <rate>
                      <timebase>24</timebase>
                      <ntsc>FALSE</ntsc>
                    </rate>
                    <alphatype>straight</alphatype>
                    <pixelaspectratio>square</pixelaspectratio>
                    <anamorphic>FALSE</anamorphic>
                    <file id="file-75">
                      <name>Luca.073.png</name>
                      <pathurl>file://localhost/Users/antoniochiappetta/OneDrive - Aalto University/University/Aalto/Hackatons/Junction/Junction2019-IoK-security_awareness_kids/Assets/Team Animations/Image Sequences/Luca/Luca.073.png</pathurl>
                      <rate>
                        <timebase>24</timebase>
                        <ntsc>FALSE</ntsc>
                      </rate>
                      <duration>144</duration>
                      <timecode>
                        <rate>
                          <timebase>24</timebase>
                          <ntsc>FALSE</ntsc>
                        </rate>
                      </timecode>
                      <media>
                        <video>
                          <duration>1</duration>
                          <samplecharacteristics>
                            <anamorphic>FALSE</anamorphic>
                            <pixelaspectratio>square</pixelaspectratio>
                            <fielddominance>none</fielddominance>
                            <width>686</width>
                            <height>510</height>
                          </samplecharacteristics>
                        </video>
                      </media>
                    </file>
                  </clipitem>
                </track>
              </video>
            </media>
          </clip>
          <clip explodedTracks="true" frameBlend="FALSE" id="masterclip-76">
            <uuid>0c0ed7a9-ac0a-4469-b7fa-c01b075f8010</uuid>
            <masterclipid>masterclip-76</masterclipid>
            <ismasterclip>TRUE</ismasterclip>
            <duration>144</duration>
            <in>0</in>
            <out>144</out>
            <name>Luca.074.png</name>
            <rate>
              <timebase>24</timebase>
              <ntsc>FALSE</ntsc>
            </rate>
            <media>
              <video>
                <track>
                  <clipitem frameBlend="FALSE" id="clipitem-77">
                    <name>Luca.074.png</name>
                    <masterclipid>masterclip-76</masterclipid>
                    <rate>
                      <timebase>24</timebase>
                      <ntsc>FALSE</ntsc>
                    </rate>
                    <alphatype>straight</alphatype>
                    <pixelaspectratio>square</pixelaspectratio>
                    <anamorphic>FALSE</anamorphic>
                    <file id="file-76">
                      <name>Luca.074.png</name>
                      <pathurl>file://localhost/Users/antoniochiappetta/OneDrive - Aalto University/University/Aalto/Hackatons/Junction/Junction2019-IoK-security_awareness_kids/Assets/Team Animations/Image Sequences/Luca/Luca.074.png</pathurl>
                      <rate>
                        <timebase>24</timebase>
                        <ntsc>FALSE</ntsc>
                      </rate>
                      <duration>144</duration>
                      <timecode>
                        <rate>
                          <timebase>24</timebase>
                          <ntsc>FALSE</ntsc>
                        </rate>
                      </timecode>
                      <media>
                        <video>
                          <duration>1</duration>
                          <samplecharacteristics>
                            <anamorphic>FALSE</anamorphic>
                            <pixelaspectratio>square</pixelaspectratio>
                            <fielddominance>none</fielddominance>
                            <width>686</width>
                            <height>510</height>
                          </samplecharacteristics>
                        </video>
                      </media>
                    </file>
                  </clipitem>
                </track>
              </video>
            </media>
          </clip>
          <clip explodedTracks="true" frameBlend="FALSE" id="masterclip-77">
            <uuid>ba0d061a-16a5-474a-bceb-d9272e5584e2</uuid>
            <masterclipid>masterclip-77</masterclipid>
            <ismasterclip>TRUE</ismasterclip>
            <duration>144</duration>
            <in>0</in>
            <out>144</out>
            <name>Luca.075.png</name>
            <rate>
              <timebase>24</timebase>
              <ntsc>FALSE</ntsc>
            </rate>
            <media>
              <video>
                <track>
                  <clipitem frameBlend="FALSE" id="clipitem-78">
                    <name>Luca.075.png</name>
                    <masterclipid>masterclip-77</masterclipid>
                    <rate>
                      <timebase>24</timebase>
                      <ntsc>FALSE</ntsc>
                    </rate>
                    <alphatype>straight</alphatype>
                    <pixelaspectratio>square</pixelaspectratio>
                    <anamorphic>FALSE</anamorphic>
                    <file id="file-77">
                      <name>Luca.075.png</name>
                      <pathurl>file://localhost/Users/antoniochiappetta/OneDrive - Aalto University/University/Aalto/Hackatons/Junction/Junction2019-IoK-security_awareness_kids/Assets/Team Animations/Image Sequences/Luca/Luca.075.png</pathurl>
                      <rate>
                        <timebase>24</timebase>
                        <ntsc>FALSE</ntsc>
                      </rate>
                      <duration>144</duration>
                      <timecode>
                        <rate>
                          <timebase>24</timebase>
                          <ntsc>FALSE</ntsc>
                        </rate>
                      </timecode>
                      <media>
                        <video>
                          <duration>1</duration>
                          <samplecharacteristics>
                            <anamorphic>FALSE</anamorphic>
                            <pixelaspectratio>square</pixelaspectratio>
                            <fielddominance>none</fielddominance>
                            <width>686</width>
                            <height>510</height>
                          </samplecharacteristics>
                        </video>
                      </media>
                    </file>
                  </clipitem>
                </track>
              </video>
            </media>
          </clip>
          <clip explodedTracks="true" frameBlend="FALSE" id="masterclip-78">
            <uuid>9e779045-e656-4abd-9e99-33358f95a233</uuid>
            <masterclipid>masterclip-78</masterclipid>
            <ismasterclip>TRUE</ismasterclip>
            <duration>144</duration>
            <in>0</in>
            <out>144</out>
            <name>Luca.076.png</name>
            <rate>
              <timebase>24</timebase>
              <ntsc>FALSE</ntsc>
            </rate>
            <media>
              <video>
                <track>
                  <clipitem frameBlend="FALSE" id="clipitem-79">
                    <name>Luca.076.png</name>
                    <masterclipid>masterclip-78</masterclipid>
                    <rate>
                      <timebase>24</timebase>
                      <ntsc>FALSE</ntsc>
                    </rate>
                    <alphatype>straight</alphatype>
                    <pixelaspectratio>square</pixelaspectratio>
                    <anamorphic>FALSE</anamorphic>
                    <file id="file-78">
                      <name>Luca.076.png</name>
                      <pathurl>file://localhost/Users/antoniochiappetta/OneDrive - Aalto University/University/Aalto/Hackatons/Junction/Junction2019-IoK-security_awareness_kids/Assets/Team Animations/Image Sequences/Luca/Luca.076.png</pathurl>
                      <rate>
                        <timebase>24</timebase>
                        <ntsc>FALSE</ntsc>
                      </rate>
                      <duration>144</duration>
                      <timecode>
                        <rate>
                          <timebase>24</timebase>
                          <ntsc>FALSE</ntsc>
                        </rate>
                      </timecode>
                      <media>
                        <video>
                          <duration>1</duration>
                          <samplecharacteristics>
                            <anamorphic>FALSE</anamorphic>
                            <pixelaspectratio>square</pixelaspectratio>
                            <fielddominance>none</fielddominance>
                            <width>686</width>
                            <height>510</height>
                          </samplecharacteristics>
                        </video>
                      </media>
                    </file>
                  </clipitem>
                </track>
              </video>
            </media>
          </clip>
          <clip explodedTracks="true" frameBlend="FALSE" id="masterclip-79">
            <uuid>abd032b9-dfd1-4796-b742-1682132caf66</uuid>
            <masterclipid>masterclip-79</masterclipid>
            <ismasterclip>TRUE</ismasterclip>
            <duration>144</duration>
            <in>0</in>
            <out>144</out>
            <name>Luca.077.png</name>
            <rate>
              <timebase>24</timebase>
              <ntsc>FALSE</ntsc>
            </rate>
            <media>
              <video>
                <track>
                  <clipitem frameBlend="FALSE" id="clipitem-80">
                    <name>Luca.077.png</name>
                    <masterclipid>masterclip-79</masterclipid>
                    <rate>
                      <timebase>24</timebase>
                      <ntsc>FALSE</ntsc>
                    </rate>
                    <alphatype>straight</alphatype>
                    <pixelaspectratio>square</pixelaspectratio>
                    <anamorphic>FALSE</anamorphic>
                    <file id="file-79">
                      <name>Luca.077.png</name>
                      <pathurl>file://localhost/Users/antoniochiappetta/OneDrive - Aalto University/University/Aalto/Hackatons/Junction/Junction2019-IoK-security_awareness_kids/Assets/Team Animations/Image Sequences/Luca/Luca.077.png</pathurl>
                      <rate>
                        <timebase>24</timebase>
                        <ntsc>FALSE</ntsc>
                      </rate>
                      <duration>144</duration>
                      <timecode>
                        <rate>
                          <timebase>24</timebase>
                          <ntsc>FALSE</ntsc>
                        </rate>
                      </timecode>
                      <media>
                        <video>
                          <duration>1</duration>
                          <samplecharacteristics>
                            <anamorphic>FALSE</anamorphic>
                            <pixelaspectratio>square</pixelaspectratio>
                            <fielddominance>none</fielddominance>
                            <width>686</width>
                            <height>510</height>
                          </samplecharacteristics>
                        </video>
                      </media>
                    </file>
                  </clipitem>
                </track>
              </video>
            </media>
          </clip>
          <clip explodedTracks="true" frameBlend="FALSE" id="masterclip-80">
            <uuid>5e3d7e1b-2e11-498c-9fd7-359aa70305a7</uuid>
            <masterclipid>masterclip-80</masterclipid>
            <ismasterclip>TRUE</ismasterclip>
            <duration>144</duration>
            <in>0</in>
            <out>144</out>
            <name>Luca.078.png</name>
            <rate>
              <timebase>24</timebase>
              <ntsc>FALSE</ntsc>
            </rate>
            <media>
              <video>
                <track>
                  <clipitem frameBlend="FALSE" id="clipitem-81">
                    <name>Luca.078.png</name>
                    <masterclipid>masterclip-80</masterclipid>
                    <rate>
                      <timebase>24</timebase>
                      <ntsc>FALSE</ntsc>
                    </rate>
                    <alphatype>straight</alphatype>
                    <pixelaspectratio>square</pixelaspectratio>
                    <anamorphic>FALSE</anamorphic>
                    <file id="file-80">
                      <name>Luca.078.png</name>
                      <pathurl>file://localhost/Users/antoniochiappetta/OneDrive - Aalto University/University/Aalto/Hackatons/Junction/Junction2019-IoK-security_awareness_kids/Assets/Team Animations/Image Sequences/Luca/Luca.078.png</pathurl>
                      <rate>
                        <timebase>24</timebase>
                        <ntsc>FALSE</ntsc>
                      </rate>
                      <duration>144</duration>
                      <timecode>
                        <rate>
                          <timebase>24</timebase>
                          <ntsc>FALSE</ntsc>
                        </rate>
                      </timecode>
                      <media>
                        <video>
                          <duration>1</duration>
                          <samplecharacteristics>
                            <anamorphic>FALSE</anamorphic>
                            <pixelaspectratio>square</pixelaspectratio>
                            <fielddominance>none</fielddominance>
                            <width>686</width>
                            <height>510</height>
                          </samplecharacteristics>
                        </video>
                      </media>
                    </file>
                  </clipitem>
                </track>
              </video>
            </media>
          </clip>
          <clip explodedTracks="true" frameBlend="FALSE" id="masterclip-81">
            <uuid>108b7fe2-a0ab-41fe-9d9d-6ea588810c37</uuid>
            <masterclipid>masterclip-81</masterclipid>
            <ismasterclip>TRUE</ismasterclip>
            <duration>144</duration>
            <in>0</in>
            <out>144</out>
            <name>Luca.079.png</name>
            <rate>
              <timebase>24</timebase>
              <ntsc>FALSE</ntsc>
            </rate>
            <media>
              <video>
                <track>
                  <clipitem frameBlend="FALSE" id="clipitem-82">
                    <name>Luca.079.png</name>
                    <masterclipid>masterclip-81</masterclipid>
                    <rate>
                      <timebase>24</timebase>
                      <ntsc>FALSE</ntsc>
                    </rate>
                    <alphatype>straight</alphatype>
                    <pixelaspectratio>square</pixelaspectratio>
                    <anamorphic>FALSE</anamorphic>
                    <file id="file-81">
                      <name>Luca.079.png</name>
                      <pathurl>file://localhost/Users/antoniochiappetta/OneDrive - Aalto University/University/Aalto/Hackatons/Junction/Junction2019-IoK-security_awareness_kids/Assets/Team Animations/Image Sequences/Luca/Luca.079.png</pathurl>
                      <rate>
                        <timebase>24</timebase>
                        <ntsc>FALSE</ntsc>
                      </rate>
                      <duration>144</duration>
                      <timecode>
                        <rate>
                          <timebase>24</timebase>
                          <ntsc>FALSE</ntsc>
                        </rate>
                      </timecode>
                      <media>
                        <video>
                          <duration>1</duration>
                          <samplecharacteristics>
                            <anamorphic>FALSE</anamorphic>
                            <pixelaspectratio>square</pixelaspectratio>
                            <fielddominance>none</fielddominance>
                            <width>686</width>
                            <height>510</height>
                          </samplecharacteristics>
                        </video>
                      </media>
                    </file>
                  </clipitem>
                </track>
              </video>
            </media>
          </clip>
          <clip explodedTracks="true" frameBlend="FALSE" id="masterclip-82">
            <uuid>32d85831-f385-4b8c-a795-d2851438a772</uuid>
            <masterclipid>masterclip-82</masterclipid>
            <ismasterclip>TRUE</ismasterclip>
            <duration>144</duration>
            <in>0</in>
            <out>144</out>
            <name>Luca.080.png</name>
            <rate>
              <timebase>24</timebase>
              <ntsc>FALSE</ntsc>
            </rate>
            <media>
              <video>
                <track>
                  <clipitem frameBlend="FALSE" id="clipitem-83">
                    <name>Luca.080.png</name>
                    <masterclipid>masterclip-82</masterclipid>
                    <rate>
                      <timebase>24</timebase>
                      <ntsc>FALSE</ntsc>
                    </rate>
                    <alphatype>straight</alphatype>
                    <pixelaspectratio>square</pixelaspectratio>
                    <anamorphic>FALSE</anamorphic>
                    <file id="file-82">
                      <name>Luca.080.png</name>
                      <pathurl>file://localhost/Users/antoniochiappetta/OneDrive - Aalto University/University/Aalto/Hackatons/Junction/Junction2019-IoK-security_awareness_kids/Assets/Team Animations/Image Sequences/Luca/Luca.080.png</pathurl>
                      <rate>
                        <timebase>24</timebase>
                        <ntsc>FALSE</ntsc>
                      </rate>
                      <duration>144</duration>
                      <timecode>
                        <rate>
                          <timebase>24</timebase>
                          <ntsc>FALSE</ntsc>
                        </rate>
                      </timecode>
                      <media>
                        <video>
                          <duration>1</duration>
                          <samplecharacteristics>
                            <anamorphic>FALSE</anamorphic>
                            <pixelaspectratio>square</pixelaspectratio>
                            <fielddominance>none</fielddominance>
                            <width>686</width>
                            <height>510</height>
                          </samplecharacteristics>
                        </video>
                      </media>
                    </file>
                  </clipitem>
                </track>
              </video>
            </media>
          </clip>
          <clip explodedTracks="true" frameBlend="FALSE" id="masterclip-83">
            <uuid>410eea06-9b39-49f5-ba77-2e14329b12eb</uuid>
            <masterclipid>masterclip-83</masterclipid>
            <ismasterclip>TRUE</ismasterclip>
            <duration>144</duration>
            <in>0</in>
            <out>144</out>
            <name>Luca.081.png</name>
            <rate>
              <timebase>24</timebase>
              <ntsc>FALSE</ntsc>
            </rate>
            <media>
              <video>
                <track>
                  <clipitem frameBlend="FALSE" id="clipitem-84">
                    <name>Luca.081.png</name>
                    <masterclipid>masterclip-83</masterclipid>
                    <rate>
                      <timebase>24</timebase>
                      <ntsc>FALSE</ntsc>
                    </rate>
                    <alphatype>straight</alphatype>
                    <pixelaspectratio>square</pixelaspectratio>
                    <anamorphic>FALSE</anamorphic>
                    <file id="file-83">
                      <name>Luca.081.png</name>
                      <pathurl>file://localhost/Users/antoniochiappetta/OneDrive - Aalto University/University/Aalto/Hackatons/Junction/Junction2019-IoK-security_awareness_kids/Assets/Team Animations/Image Sequences/Luca/Luca.081.png</pathurl>
                      <rate>
                        <timebase>24</timebase>
                        <ntsc>FALSE</ntsc>
                      </rate>
                      <duration>144</duration>
                      <timecode>
                        <rate>
                          <timebase>24</timebase>
                          <ntsc>FALSE</ntsc>
                        </rate>
                      </timecode>
                      <media>
                        <video>
                          <duration>1</duration>
                          <samplecharacteristics>
                            <anamorphic>FALSE</anamorphic>
                            <pixelaspectratio>square</pixelaspectratio>
                            <fielddominance>none</fielddominance>
                            <width>686</width>
                            <height>510</height>
                          </samplecharacteristics>
                        </video>
                      </media>
                    </file>
                  </clipitem>
                </track>
              </video>
            </media>
          </clip>
          <clip explodedTracks="true" frameBlend="FALSE" id="masterclip-84">
            <uuid>1c3afb6a-c941-4a3f-8acb-e869efbdf7be</uuid>
            <masterclipid>masterclip-84</masterclipid>
            <ismasterclip>TRUE</ismasterclip>
            <duration>144</duration>
            <in>0</in>
            <out>144</out>
            <name>Luca.082.png</name>
            <rate>
              <timebase>24</timebase>
              <ntsc>FALSE</ntsc>
            </rate>
            <media>
              <video>
                <track>
                  <clipitem frameBlend="FALSE" id="clipitem-85">
                    <name>Luca.082.png</name>
                    <masterclipid>masterclip-84</masterclipid>
                    <rate>
                      <timebase>24</timebase>
                      <ntsc>FALSE</ntsc>
                    </rate>
                    <alphatype>straight</alphatype>
                    <pixelaspectratio>square</pixelaspectratio>
                    <anamorphic>FALSE</anamorphic>
                    <file id="file-84">
                      <name>Luca.082.png</name>
                      <pathurl>file://localhost/Users/antoniochiappetta/OneDrive - Aalto University/University/Aalto/Hackatons/Junction/Junction2019-IoK-security_awareness_kids/Assets/Team Animations/Image Sequences/Luca/Luca.082.png</pathurl>
                      <rate>
                        <timebase>24</timebase>
                        <ntsc>FALSE</ntsc>
                      </rate>
                      <duration>144</duration>
                      <timecode>
                        <rate>
                          <timebase>24</timebase>
                          <ntsc>FALSE</ntsc>
                        </rate>
                      </timecode>
                      <media>
                        <video>
                          <duration>1</duration>
                          <samplecharacteristics>
                            <anamorphic>FALSE</anamorphic>
                            <pixelaspectratio>square</pixelaspectratio>
                            <fielddominance>none</fielddominance>
                            <width>686</width>
                            <height>510</height>
                          </samplecharacteristics>
                        </video>
                      </media>
                    </file>
                  </clipitem>
                </track>
              </video>
            </media>
          </clip>
          <clip explodedTracks="true" frameBlend="FALSE" id="masterclip-85">
            <uuid>3b9b5ea6-477a-4a16-8b21-cce7d252001a</uuid>
            <masterclipid>masterclip-85</masterclipid>
            <ismasterclip>TRUE</ismasterclip>
            <duration>144</duration>
            <in>0</in>
            <out>144</out>
            <name>Luca.083.png</name>
            <rate>
              <timebase>24</timebase>
              <ntsc>FALSE</ntsc>
            </rate>
            <media>
              <video>
                <track>
                  <clipitem frameBlend="FALSE" id="clipitem-86">
                    <name>Luca.083.png</name>
                    <masterclipid>masterclip-85</masterclipid>
                    <rate>
                      <timebase>24</timebase>
                      <ntsc>FALSE</ntsc>
                    </rate>
                    <alphatype>straight</alphatype>
                    <pixelaspectratio>square</pixelaspectratio>
                    <anamorphic>FALSE</anamorphic>
                    <file id="file-85">
                      <name>Luca.083.png</name>
                      <pathurl>file://localhost/Users/antoniochiappetta/OneDrive - Aalto University/University/Aalto/Hackatons/Junction/Junction2019-IoK-security_awareness_kids/Assets/Team Animations/Image Sequences/Luca/Luca.083.png</pathurl>
                      <rate>
                        <timebase>24</timebase>
                        <ntsc>FALSE</ntsc>
                      </rate>
                      <duration>144</duration>
                      <timecode>
                        <rate>
                          <timebase>24</timebase>
                          <ntsc>FALSE</ntsc>
                        </rate>
                      </timecode>
                      <media>
                        <video>
                          <duration>1</duration>
                          <samplecharacteristics>
                            <anamorphic>FALSE</anamorphic>
                            <pixelaspectratio>square</pixelaspectratio>
                            <fielddominance>none</fielddominance>
                            <width>686</width>
                            <height>510</height>
                          </samplecharacteristics>
                        </video>
                      </media>
                    </file>
                  </clipitem>
                </track>
              </video>
            </media>
          </clip>
          <clip explodedTracks="true" frameBlend="FALSE" id="masterclip-86">
            <uuid>e41316f8-0e42-4fa7-8c32-322fdee28784</uuid>
            <masterclipid>masterclip-86</masterclipid>
            <ismasterclip>TRUE</ismasterclip>
            <duration>144</duration>
            <in>0</in>
            <out>144</out>
            <name>Luca.084.png</name>
            <rate>
              <timebase>24</timebase>
              <ntsc>FALSE</ntsc>
            </rate>
            <media>
              <video>
                <track>
                  <clipitem frameBlend="FALSE" id="clipitem-87">
                    <name>Luca.084.png</name>
                    <masterclipid>masterclip-86</masterclipid>
                    <rate>
                      <timebase>24</timebase>
                      <ntsc>FALSE</ntsc>
                    </rate>
                    <alphatype>straight</alphatype>
                    <pixelaspectratio>square</pixelaspectratio>
                    <anamorphic>FALSE</anamorphic>
                    <file id="file-86">
                      <name>Luca.084.png</name>
                      <pathurl>file://localhost/Users/antoniochiappetta/OneDrive - Aalto University/University/Aalto/Hackatons/Junction/Junction2019-IoK-security_awareness_kids/Assets/Team Animations/Image Sequences/Luca/Luca.084.png</pathurl>
                      <rate>
                        <timebase>24</timebase>
                        <ntsc>FALSE</ntsc>
                      </rate>
                      <duration>144</duration>
                      <timecode>
                        <rate>
                          <timebase>24</timebase>
                          <ntsc>FALSE</ntsc>
                        </rate>
                      </timecode>
                      <media>
                        <video>
                          <duration>1</duration>
                          <samplecharacteristics>
                            <anamorphic>FALSE</anamorphic>
                            <pixelaspectratio>square</pixelaspectratio>
                            <fielddominance>none</fielddominance>
                            <width>686</width>
                            <height>510</height>
                          </samplecharacteristics>
                        </video>
                      </media>
                    </file>
                  </clipitem>
                </track>
              </video>
            </media>
          </clip>
          <clip explodedTracks="true" frameBlend="FALSE" id="masterclip-87">
            <uuid>d28196f5-7ba5-421f-9c13-f9c22529f79c</uuid>
            <masterclipid>masterclip-87</masterclipid>
            <ismasterclip>TRUE</ismasterclip>
            <duration>144</duration>
            <in>0</in>
            <out>144</out>
            <name>Luca.085.png</name>
            <rate>
              <timebase>24</timebase>
              <ntsc>FALSE</ntsc>
            </rate>
            <media>
              <video>
                <track>
                  <clipitem frameBlend="FALSE" id="clipitem-88">
                    <name>Luca.085.png</name>
                    <masterclipid>masterclip-87</masterclipid>
                    <rate>
                      <timebase>24</timebase>
                      <ntsc>FALSE</ntsc>
                    </rate>
                    <alphatype>straight</alphatype>
                    <pixelaspectratio>square</pixelaspectratio>
                    <anamorphic>FALSE</anamorphic>
                    <file id="file-87">
                      <name>Luca.085.png</name>
                      <pathurl>file://localhost/Users/antoniochiappetta/OneDrive - Aalto University/University/Aalto/Hackatons/Junction/Junction2019-IoK-security_awareness_kids/Assets/Team Animations/Image Sequences/Luca/Luca.085.png</pathurl>
                      <rate>
                        <timebase>24</timebase>
                        <ntsc>FALSE</ntsc>
                      </rate>
                      <duration>144</duration>
                      <timecode>
                        <rate>
                          <timebase>24</timebase>
                          <ntsc>FALSE</ntsc>
                        </rate>
                      </timecode>
                      <media>
                        <video>
                          <duration>1</duration>
                          <samplecharacteristics>
                            <anamorphic>FALSE</anamorphic>
                            <pixelaspectratio>square</pixelaspectratio>
                            <fielddominance>none</fielddominance>
                            <width>686</width>
                            <height>510</height>
                          </samplecharacteristics>
                        </video>
                      </media>
                    </file>
                  </clipitem>
                </track>
              </video>
            </media>
          </clip>
          <clip explodedTracks="true" frameBlend="FALSE" id="masterclip-88">
            <uuid>665e18e7-5b47-4f54-8432-9109fcffaaf6</uuid>
            <masterclipid>masterclip-88</masterclipid>
            <ismasterclip>TRUE</ismasterclip>
            <duration>144</duration>
            <in>0</in>
            <out>144</out>
            <name>Luca.086.png</name>
            <rate>
              <timebase>24</timebase>
              <ntsc>FALSE</ntsc>
            </rate>
            <media>
              <video>
                <track>
                  <clipitem frameBlend="FALSE" id="clipitem-89">
                    <name>Luca.086.png</name>
                    <masterclipid>masterclip-88</masterclipid>
                    <rate>
                      <timebase>24</timebase>
                      <ntsc>FALSE</ntsc>
                    </rate>
                    <alphatype>straight</alphatype>
                    <pixelaspectratio>square</pixelaspectratio>
                    <anamorphic>FALSE</anamorphic>
                    <file id="file-88">
                      <name>Luca.086.png</name>
                      <pathurl>file://localhost/Users/antoniochiappetta/OneDrive - Aalto University/University/Aalto/Hackatons/Junction/Junction2019-IoK-security_awareness_kids/Assets/Team Animations/Image Sequences/Luca/Luca.086.png</pathurl>
                      <rate>
                        <timebase>24</timebase>
                        <ntsc>FALSE</ntsc>
                      </rate>
                      <duration>144</duration>
                      <timecode>
                        <rate>
                          <timebase>24</timebase>
                          <ntsc>FALSE</ntsc>
                        </rate>
                      </timecode>
                      <media>
                        <video>
                          <duration>1</duration>
                          <samplecharacteristics>
                            <anamorphic>FALSE</anamorphic>
                            <pixelaspectratio>square</pixelaspectratio>
                            <fielddominance>none</fielddominance>
                            <width>686</width>
                            <height>510</height>
                          </samplecharacteristics>
                        </video>
                      </media>
                    </file>
                  </clipitem>
                </track>
              </video>
            </media>
          </clip>
          <clip explodedTracks="true" frameBlend="FALSE" id="masterclip-89">
            <uuid>f343b90b-4bb3-4dd6-aca7-d31deed10c64</uuid>
            <masterclipid>masterclip-89</masterclipid>
            <ismasterclip>TRUE</ismasterclip>
            <duration>144</duration>
            <in>0</in>
            <out>144</out>
            <name>Luca.087.png</name>
            <rate>
              <timebase>24</timebase>
              <ntsc>FALSE</ntsc>
            </rate>
            <media>
              <video>
                <track>
                  <clipitem frameBlend="FALSE" id="clipitem-90">
                    <name>Luca.087.png</name>
                    <masterclipid>masterclip-89</masterclipid>
                    <rate>
                      <timebase>24</timebase>
                      <ntsc>FALSE</ntsc>
                    </rate>
                    <alphatype>straight</alphatype>
                    <pixelaspectratio>square</pixelaspectratio>
                    <anamorphic>FALSE</anamorphic>
                    <file id="file-89">
                      <name>Luca.087.png</name>
                      <pathurl>file://localhost/Users/antoniochiappetta/OneDrive - Aalto University/University/Aalto/Hackatons/Junction/Junction2019-IoK-security_awareness_kids/Assets/Team Animations/Image Sequences/Luca/Luca.087.png</pathurl>
                      <rate>
                        <timebase>24</timebase>
                        <ntsc>FALSE</ntsc>
                      </rate>
                      <duration>144</duration>
                      <timecode>
                        <rate>
                          <timebase>24</timebase>
                          <ntsc>FALSE</ntsc>
                        </rate>
                      </timecode>
                      <media>
                        <video>
                          <duration>1</duration>
                          <samplecharacteristics>
                            <anamorphic>FALSE</anamorphic>
                            <pixelaspectratio>square</pixelaspectratio>
                            <fielddominance>none</fielddominance>
                            <width>686</width>
                            <height>510</height>
                          </samplecharacteristics>
                        </video>
                      </media>
                    </file>
                  </clipitem>
                </track>
              </video>
            </media>
          </clip>
          <clip explodedTracks="true" frameBlend="FALSE" id="masterclip-90">
            <uuid>99aa472c-1fdb-4093-aa0d-40a04e6eff46</uuid>
            <masterclipid>masterclip-90</masterclipid>
            <ismasterclip>TRUE</ismasterclip>
            <duration>144</duration>
            <in>0</in>
            <out>144</out>
            <name>Luca.088.png</name>
            <rate>
              <timebase>24</timebase>
              <ntsc>FALSE</ntsc>
            </rate>
            <media>
              <video>
                <track>
                  <clipitem frameBlend="FALSE" id="clipitem-91">
                    <name>Luca.088.png</name>
                    <masterclipid>masterclip-90</masterclipid>
                    <rate>
                      <timebase>24</timebase>
                      <ntsc>FALSE</ntsc>
                    </rate>
                    <alphatype>straight</alphatype>
                    <pixelaspectratio>square</pixelaspectratio>
                    <anamorphic>FALSE</anamorphic>
                    <file id="file-90">
                      <name>Luca.088.png</name>
                      <pathurl>file://localhost/Users/antoniochiappetta/OneDrive - Aalto University/University/Aalto/Hackatons/Junction/Junction2019-IoK-security_awareness_kids/Assets/Team Animations/Image Sequences/Luca/Luca.088.png</pathurl>
                      <rate>
                        <timebase>24</timebase>
                        <ntsc>FALSE</ntsc>
                      </rate>
                      <duration>144</duration>
                      <timecode>
                        <rate>
                          <timebase>24</timebase>
                          <ntsc>FALSE</ntsc>
                        </rate>
                      </timecode>
                      <media>
                        <video>
                          <duration>1</duration>
                          <samplecharacteristics>
                            <anamorphic>FALSE</anamorphic>
                            <pixelaspectratio>square</pixelaspectratio>
                            <fielddominance>none</fielddominance>
                            <width>686</width>
                            <height>510</height>
                          </samplecharacteristics>
                        </video>
                      </media>
                    </file>
                  </clipitem>
                </track>
              </video>
            </media>
          </clip>
          <clip explodedTracks="true" frameBlend="FALSE" id="masterclip-91">
            <uuid>3ff87431-7b93-4ffe-976d-5bc2426df338</uuid>
            <masterclipid>masterclip-91</masterclipid>
            <ismasterclip>TRUE</ismasterclip>
            <duration>144</duration>
            <in>0</in>
            <out>144</out>
            <name>Luca.089.png</name>
            <rate>
              <timebase>24</timebase>
              <ntsc>FALSE</ntsc>
            </rate>
            <media>
              <video>
                <track>
                  <clipitem frameBlend="FALSE" id="clipitem-92">
                    <name>Luca.089.png</name>
                    <masterclipid>masterclip-91</masterclipid>
                    <rate>
                      <timebase>24</timebase>
                      <ntsc>FALSE</ntsc>
                    </rate>
                    <alphatype>straight</alphatype>
                    <pixelaspectratio>square</pixelaspectratio>
                    <anamorphic>FALSE</anamorphic>
                    <file id="file-91">
                      <name>Luca.089.png</name>
                      <pathurl>file://localhost/Users/antoniochiappetta/OneDrive - Aalto University/University/Aalto/Hackatons/Junction/Junction2019-IoK-security_awareness_kids/Assets/Team Animations/Image Sequences/Luca/Luca.089.png</pathurl>
                      <rate>
                        <timebase>24</timebase>
                        <ntsc>FALSE</ntsc>
                      </rate>
                      <duration>144</duration>
                      <timecode>
                        <rate>
                          <timebase>24</timebase>
                          <ntsc>FALSE</ntsc>
                        </rate>
                      </timecode>
                      <media>
                        <video>
                          <duration>1</duration>
                          <samplecharacteristics>
                            <anamorphic>FALSE</anamorphic>
                            <pixelaspectratio>square</pixelaspectratio>
                            <fielddominance>none</fielddominance>
                            <width>686</width>
                            <height>510</height>
                          </samplecharacteristics>
                        </video>
                      </media>
                    </file>
                  </clipitem>
                </track>
              </video>
            </media>
          </clip>
          <clip explodedTracks="true" frameBlend="FALSE" id="masterclip-92">
            <uuid>8ce511f0-fb1d-4f2e-968e-abc1e1871441</uuid>
            <masterclipid>masterclip-92</masterclipid>
            <ismasterclip>TRUE</ismasterclip>
            <duration>144</duration>
            <in>0</in>
            <out>144</out>
            <name>Luca.090.png</name>
            <rate>
              <timebase>24</timebase>
              <ntsc>FALSE</ntsc>
            </rate>
            <media>
              <video>
                <track>
                  <clipitem frameBlend="FALSE" id="clipitem-93">
                    <name>Luca.090.png</name>
                    <masterclipid>masterclip-92</masterclipid>
                    <rate>
                      <timebase>24</timebase>
                      <ntsc>FALSE</ntsc>
                    </rate>
                    <alphatype>straight</alphatype>
                    <pixelaspectratio>square</pixelaspectratio>
                    <anamorphic>FALSE</anamorphic>
                    <file id="file-92">
                      <name>Luca.090.png</name>
                      <pathurl>file://localhost/Users/antoniochiappetta/OneDrive - Aalto University/University/Aalto/Hackatons/Junction/Junction2019-IoK-security_awareness_kids/Assets/Team Animations/Image Sequences/Luca/Luca.090.png</pathurl>
                      <rate>
                        <timebase>24</timebase>
                        <ntsc>FALSE</ntsc>
                      </rate>
                      <duration>144</duration>
                      <timecode>
                        <rate>
                          <timebase>24</timebase>
                          <ntsc>FALSE</ntsc>
                        </rate>
                      </timecode>
                      <media>
                        <video>
                          <duration>1</duration>
                          <samplecharacteristics>
                            <anamorphic>FALSE</anamorphic>
                            <pixelaspectratio>square</pixelaspectratio>
                            <fielddominance>none</fielddominance>
                            <width>686</width>
                            <height>510</height>
                          </samplecharacteristics>
                        </video>
                      </media>
                    </file>
                  </clipitem>
                </track>
              </video>
            </media>
          </clip>
          <clip explodedTracks="true" frameBlend="FALSE" id="masterclip-93">
            <uuid>6724068c-db71-4c4b-b22e-e20cddf786e1</uuid>
            <masterclipid>masterclip-93</masterclipid>
            <ismasterclip>TRUE</ismasterclip>
            <duration>144</duration>
            <in>0</in>
            <out>144</out>
            <name>Luca.091.png</name>
            <rate>
              <timebase>24</timebase>
              <ntsc>FALSE</ntsc>
            </rate>
            <media>
              <video>
                <track>
                  <clipitem frameBlend="FALSE" id="clipitem-94">
                    <name>Luca.091.png</name>
                    <masterclipid>masterclip-93</masterclipid>
                    <rate>
                      <timebase>24</timebase>
                      <ntsc>FALSE</ntsc>
                    </rate>
                    <alphatype>straight</alphatype>
                    <pixelaspectratio>square</pixelaspectratio>
                    <anamorphic>FALSE</anamorphic>
                    <file id="file-93">
                      <name>Luca.091.png</name>
                      <pathurl>file://localhost/Users/antoniochiappetta/OneDrive - Aalto University/University/Aalto/Hackatons/Junction/Junction2019-IoK-security_awareness_kids/Assets/Team Animations/Image Sequences/Luca/Luca.091.png</pathurl>
                      <rate>
                        <timebase>24</timebase>
                        <ntsc>FALSE</ntsc>
                      </rate>
                      <duration>144</duration>
                      <timecode>
                        <rate>
                          <timebase>24</timebase>
                          <ntsc>FALSE</ntsc>
                        </rate>
                      </timecode>
                      <media>
                        <video>
                          <duration>1</duration>
                          <samplecharacteristics>
                            <anamorphic>FALSE</anamorphic>
                            <pixelaspectratio>square</pixelaspectratio>
                            <fielddominance>none</fielddominance>
                            <width>686</width>
                            <height>510</height>
                          </samplecharacteristics>
                        </video>
                      </media>
                    </file>
                  </clipitem>
                </track>
              </video>
            </media>
          </clip>
          <clip explodedTracks="true" frameBlend="FALSE" id="masterclip-94">
            <uuid>9896264f-e87c-4a52-907b-c3e0ba851381</uuid>
            <masterclipid>masterclip-94</masterclipid>
            <ismasterclip>TRUE</ismasterclip>
            <duration>144</duration>
            <in>0</in>
            <out>144</out>
            <name>Luca.092.png</name>
            <rate>
              <timebase>24</timebase>
              <ntsc>FALSE</ntsc>
            </rate>
            <media>
              <video>
                <track>
                  <clipitem frameBlend="FALSE" id="clipitem-95">
                    <name>Luca.092.png</name>
                    <masterclipid>masterclip-94</masterclipid>
                    <rate>
                      <timebase>24</timebase>
                      <ntsc>FALSE</ntsc>
                    </rate>
                    <alphatype>straight</alphatype>
                    <pixelaspectratio>square</pixelaspectratio>
                    <anamorphic>FALSE</anamorphic>
                    <file id="file-94">
                      <name>Luca.092.png</name>
                      <pathurl>file://localhost/Users/antoniochiappetta/OneDrive - Aalto University/University/Aalto/Hackatons/Junction/Junction2019-IoK-security_awareness_kids/Assets/Team Animations/Image Sequences/Luca/Luca.092.png</pathurl>
                      <rate>
                        <timebase>24</timebase>
                        <ntsc>FALSE</ntsc>
                      </rate>
                      <duration>144</duration>
                      <timecode>
                        <rate>
                          <timebase>24</timebase>
                          <ntsc>FALSE</ntsc>
                        </rate>
                      </timecode>
                      <media>
                        <video>
                          <duration>1</duration>
                          <samplecharacteristics>
                            <anamorphic>FALSE</anamorphic>
                            <pixelaspectratio>square</pixelaspectratio>
                            <fielddominance>none</fielddominance>
                            <width>686</width>
                            <height>510</height>
                          </samplecharacteristics>
                        </video>
                      </media>
                    </file>
                  </clipitem>
                </track>
              </video>
            </media>
          </clip>
          <clip explodedTracks="true" frameBlend="FALSE" id="masterclip-95">
            <uuid>170ceb24-cd8f-4ec5-9676-9d21b0bf6571</uuid>
            <masterclipid>masterclip-95</masterclipid>
            <ismasterclip>TRUE</ismasterclip>
            <duration>144</duration>
            <in>0</in>
            <out>144</out>
            <name>Luca.093.png</name>
            <rate>
              <timebase>24</timebase>
              <ntsc>FALSE</ntsc>
            </rate>
            <media>
              <video>
                <track>
                  <clipitem frameBlend="FALSE" id="clipitem-96">
                    <name>Luca.093.png</name>
                    <masterclipid>masterclip-95</masterclipid>
                    <rate>
                      <timebase>24</timebase>
                      <ntsc>FALSE</ntsc>
                    </rate>
                    <alphatype>straight</alphatype>
                    <pixelaspectratio>square</pixelaspectratio>
                    <anamorphic>FALSE</anamorphic>
                    <file id="file-95">
                      <name>Luca.093.png</name>
                      <pathurl>file://localhost/Users/antoniochiappetta/OneDrive - Aalto University/University/Aalto/Hackatons/Junction/Junction2019-IoK-security_awareness_kids/Assets/Team Animations/Image Sequences/Luca/Luca.093.png</pathurl>
                      <rate>
                        <timebase>24</timebase>
                        <ntsc>FALSE</ntsc>
                      </rate>
                      <duration>144</duration>
                      <timecode>
                        <rate>
                          <timebase>24</timebase>
                          <ntsc>FALSE</ntsc>
                        </rate>
                      </timecode>
                      <media>
                        <video>
                          <duration>1</duration>
                          <samplecharacteristics>
                            <anamorphic>FALSE</anamorphic>
                            <pixelaspectratio>square</pixelaspectratio>
                            <fielddominance>none</fielddominance>
                            <width>686</width>
                            <height>510</height>
                          </samplecharacteristics>
                        </video>
                      </media>
                    </file>
                  </clipitem>
                </track>
              </video>
            </media>
          </clip>
          <clip explodedTracks="true" frameBlend="FALSE" id="masterclip-96">
            <uuid>e4c1438b-7093-41b6-ae59-7f71dc3d7bb8</uuid>
            <masterclipid>masterclip-96</masterclipid>
            <ismasterclip>TRUE</ismasterclip>
            <duration>144</duration>
            <in>0</in>
            <out>144</out>
            <name>Luca.094.png</name>
            <rate>
              <timebase>24</timebase>
              <ntsc>FALSE</ntsc>
            </rate>
            <media>
              <video>
                <track>
                  <clipitem frameBlend="FALSE" id="clipitem-97">
                    <name>Luca.094.png</name>
                    <masterclipid>masterclip-96</masterclipid>
                    <rate>
                      <timebase>24</timebase>
                      <ntsc>FALSE</ntsc>
                    </rate>
                    <alphatype>straight</alphatype>
                    <pixelaspectratio>square</pixelaspectratio>
                    <anamorphic>FALSE</anamorphic>
                    <file id="file-96">
                      <name>Luca.094.png</name>
                      <pathurl>file://localhost/Users/antoniochiappetta/OneDrive - Aalto University/University/Aalto/Hackatons/Junction/Junction2019-IoK-security_awareness_kids/Assets/Team Animations/Image Sequences/Luca/Luca.094.png</pathurl>
                      <rate>
                        <timebase>24</timebase>
                        <ntsc>FALSE</ntsc>
                      </rate>
                      <duration>144</duration>
                      <timecode>
                        <rate>
                          <timebase>24</timebase>
                          <ntsc>FALSE</ntsc>
                        </rate>
                      </timecode>
                      <media>
                        <video>
                          <duration>1</duration>
                          <samplecharacteristics>
                            <anamorphic>FALSE</anamorphic>
                            <pixelaspectratio>square</pixelaspectratio>
                            <fielddominance>none</fielddominance>
                            <width>686</width>
                            <height>510</height>
                          </samplecharacteristics>
                        </video>
                      </media>
                    </file>
                  </clipitem>
                </track>
              </video>
            </media>
          </clip>
          <clip explodedTracks="true" frameBlend="FALSE" id="masterclip-97">
            <uuid>4a12262d-399a-4dca-a4d7-86956ae042e0</uuid>
            <masterclipid>masterclip-97</masterclipid>
            <ismasterclip>TRUE</ismasterclip>
            <duration>144</duration>
            <in>0</in>
            <out>144</out>
            <name>Luca.095.png</name>
            <rate>
              <timebase>24</timebase>
              <ntsc>FALSE</ntsc>
            </rate>
            <media>
              <video>
                <track>
                  <clipitem frameBlend="FALSE" id="clipitem-98">
                    <name>Luca.095.png</name>
                    <masterclipid>masterclip-97</masterclipid>
                    <rate>
                      <timebase>24</timebase>
                      <ntsc>FALSE</ntsc>
                    </rate>
                    <alphatype>straight</alphatype>
                    <pixelaspectratio>square</pixelaspectratio>
                    <anamorphic>FALSE</anamorphic>
                    <file id="file-97">
                      <name>Luca.095.png</name>
                      <pathurl>file://localhost/Users/antoniochiappetta/OneDrive - Aalto University/University/Aalto/Hackatons/Junction/Junction2019-IoK-security_awareness_kids/Assets/Team Animations/Image Sequences/Luca/Luca.095.png</pathurl>
                      <rate>
                        <timebase>24</timebase>
                        <ntsc>FALSE</ntsc>
                      </rate>
                      <duration>144</duration>
                      <timecode>
                        <rate>
                          <timebase>24</timebase>
                          <ntsc>FALSE</ntsc>
                        </rate>
                      </timecode>
                      <media>
                        <video>
                          <duration>1</duration>
                          <samplecharacteristics>
                            <anamorphic>FALSE</anamorphic>
                            <pixelaspectratio>square</pixelaspectratio>
                            <fielddominance>none</fielddominance>
                            <width>686</width>
                            <height>510</height>
                          </samplecharacteristics>
                        </video>
                      </media>
                    </file>
                  </clipitem>
                </track>
              </video>
            </media>
          </clip>
          <clip explodedTracks="true" frameBlend="FALSE" id="masterclip-98">
            <uuid>c722b7e1-2cd7-4b81-a92b-a2d67e32e6e8</uuid>
            <masterclipid>masterclip-98</masterclipid>
            <ismasterclip>TRUE</ismasterclip>
            <duration>144</duration>
            <in>0</in>
            <out>144</out>
            <name>Luca.096.png</name>
            <rate>
              <timebase>24</timebase>
              <ntsc>FALSE</ntsc>
            </rate>
            <media>
              <video>
                <track>
                  <clipitem frameBlend="FALSE" id="clipitem-99">
                    <name>Luca.096.png</name>
                    <masterclipid>masterclip-98</masterclipid>
                    <rate>
                      <timebase>24</timebase>
                      <ntsc>FALSE</ntsc>
                    </rate>
                    <alphatype>straight</alphatype>
                    <pixelaspectratio>square</pixelaspectratio>
                    <anamorphic>FALSE</anamorphic>
                    <file id="file-98">
                      <name>Luca.096.png</name>
                      <pathurl>file://localhost/Users/antoniochiappetta/OneDrive - Aalto University/University/Aalto/Hackatons/Junction/Junction2019-IoK-security_awareness_kids/Assets/Team Animations/Image Sequences/Luca/Luca.096.png</pathurl>
                      <rate>
                        <timebase>24</timebase>
                        <ntsc>FALSE</ntsc>
                      </rate>
                      <duration>144</duration>
                      <timecode>
                        <rate>
                          <timebase>24</timebase>
                          <ntsc>FALSE</ntsc>
                        </rate>
                      </timecode>
                      <media>
                        <video>
                          <duration>1</duration>
                          <samplecharacteristics>
                            <anamorphic>FALSE</anamorphic>
                            <pixelaspectratio>square</pixelaspectratio>
                            <fielddominance>none</fielddominance>
                            <width>686</width>
                            <height>510</height>
                          </samplecharacteristics>
                        </video>
                      </media>
                    </file>
                  </clipitem>
                </track>
              </video>
            </media>
          </clip>
          <clip explodedTracks="true" frameBlend="FALSE" id="masterclip-99">
            <uuid>03532b01-4f8b-4336-836b-7caf38e5a5f3</uuid>
            <masterclipid>masterclip-99</masterclipid>
            <ismasterclip>TRUE</ismasterclip>
            <duration>144</duration>
            <in>0</in>
            <out>144</out>
            <name>Luca.097.png</name>
            <rate>
              <timebase>24</timebase>
              <ntsc>FALSE</ntsc>
            </rate>
            <media>
              <video>
                <track>
                  <clipitem frameBlend="FALSE" id="clipitem-100">
                    <name>Luca.097.png</name>
                    <masterclipid>masterclip-99</masterclipid>
                    <rate>
                      <timebase>24</timebase>
                      <ntsc>FALSE</ntsc>
                    </rate>
                    <alphatype>straight</alphatype>
                    <pixelaspectratio>square</pixelaspectratio>
                    <anamorphic>FALSE</anamorphic>
                    <file id="file-99">
                      <name>Luca.097.png</name>
                      <pathurl>file://localhost/Users/antoniochiappetta/OneDrive - Aalto University/University/Aalto/Hackatons/Junction/Junction2019-IoK-security_awareness_kids/Assets/Team Animations/Image Sequences/Luca/Luca.097.png</pathurl>
                      <rate>
                        <timebase>24</timebase>
                        <ntsc>FALSE</ntsc>
                      </rate>
                      <duration>144</duration>
                      <timecode>
                        <rate>
                          <timebase>24</timebase>
                          <ntsc>FALSE</ntsc>
                        </rate>
                      </timecode>
                      <media>
                        <video>
                          <duration>1</duration>
                          <samplecharacteristics>
                            <anamorphic>FALSE</anamorphic>
                            <pixelaspectratio>square</pixelaspectratio>
                            <fielddominance>none</fielddominance>
                            <width>686</width>
                            <height>510</height>
                          </samplecharacteristics>
                        </video>
                      </media>
                    </file>
                  </clipitem>
                </track>
              </video>
            </media>
          </clip>
          <clip explodedTracks="true" frameBlend="FALSE" id="masterclip-100">
            <uuid>64a54728-8d53-46fb-95e3-eff6ef8a2445</uuid>
            <masterclipid>masterclip-100</masterclipid>
            <ismasterclip>TRUE</ismasterclip>
            <duration>144</duration>
            <in>0</in>
            <out>144</out>
            <name>Luca.098.png</name>
            <rate>
              <timebase>24</timebase>
              <ntsc>FALSE</ntsc>
            </rate>
            <media>
              <video>
                <track>
                  <clipitem frameBlend="FALSE" id="clipitem-101">
                    <name>Luca.098.png</name>
                    <masterclipid>masterclip-100</masterclipid>
                    <rate>
                      <timebase>24</timebase>
                      <ntsc>FALSE</ntsc>
                    </rate>
                    <alphatype>straight</alphatype>
                    <pixelaspectratio>square</pixelaspectratio>
                    <anamorphic>FALSE</anamorphic>
                    <file id="file-100">
                      <name>Luca.098.png</name>
                      <pathurl>file://localhost/Users/antoniochiappetta/OneDrive - Aalto University/University/Aalto/Hackatons/Junction/Junction2019-IoK-security_awareness_kids/Assets/Team Animations/Image Sequences/Luca/Luca.098.png</pathurl>
                      <rate>
                        <timebase>24</timebase>
                        <ntsc>FALSE</ntsc>
                      </rate>
                      <duration>144</duration>
                      <timecode>
                        <rate>
                          <timebase>24</timebase>
                          <ntsc>FALSE</ntsc>
                        </rate>
                      </timecode>
                      <media>
                        <video>
                          <duration>1</duration>
                          <samplecharacteristics>
                            <anamorphic>FALSE</anamorphic>
                            <pixelaspectratio>square</pixelaspectratio>
                            <fielddominance>none</fielddominance>
                            <width>686</width>
                            <height>510</height>
                          </samplecharacteristics>
                        </video>
                      </media>
                    </file>
                  </clipitem>
                </track>
              </video>
            </media>
          </clip>
          <clip explodedTracks="true" frameBlend="FALSE" id="masterclip-101">
            <uuid>8d9aba64-c79b-4ae7-8269-d89034d1922f</uuid>
            <masterclipid>masterclip-101</masterclipid>
            <ismasterclip>TRUE</ismasterclip>
            <duration>144</duration>
            <in>0</in>
            <out>144</out>
            <name>Luca.099.png</name>
            <rate>
              <timebase>24</timebase>
              <ntsc>FALSE</ntsc>
            </rate>
            <media>
              <video>
                <track>
                  <clipitem frameBlend="FALSE" id="clipitem-102">
                    <name>Luca.099.png</name>
                    <masterclipid>masterclip-101</masterclipid>
                    <rate>
                      <timebase>24</timebase>
                      <ntsc>FALSE</ntsc>
                    </rate>
                    <alphatype>straight</alphatype>
                    <pixelaspectratio>square</pixelaspectratio>
                    <anamorphic>FALSE</anamorphic>
                    <file id="file-101">
                      <name>Luca.099.png</name>
                      <pathurl>file://localhost/Users/antoniochiappetta/OneDrive - Aalto University/University/Aalto/Hackatons/Junction/Junction2019-IoK-security_awareness_kids/Assets/Team Animations/Image Sequences/Luca/Luca.099.png</pathurl>
                      <rate>
                        <timebase>24</timebase>
                        <ntsc>FALSE</ntsc>
                      </rate>
                      <duration>144</duration>
                      <timecode>
                        <rate>
                          <timebase>24</timebase>
                          <ntsc>FALSE</ntsc>
                        </rate>
                      </timecode>
                      <media>
                        <video>
                          <duration>1</duration>
                          <samplecharacteristics>
                            <anamorphic>FALSE</anamorphic>
                            <pixelaspectratio>square</pixelaspectratio>
                            <fielddominance>none</fielddominance>
                            <width>686</width>
                            <height>510</height>
                          </samplecharacteristics>
                        </video>
                      </media>
                    </file>
                  </clipitem>
                </track>
              </video>
            </media>
          </clip>
          <clip explodedTracks="true" frameBlend="FALSE" id="masterclip-102">
            <uuid>b7615c7a-88f2-4a55-b59c-85c271bf1906</uuid>
            <masterclipid>masterclip-102</masterclipid>
            <ismasterclip>TRUE</ismasterclip>
            <duration>144</duration>
            <in>0</in>
            <out>144</out>
            <name>Luca.100.png</name>
            <rate>
              <timebase>24</timebase>
              <ntsc>FALSE</ntsc>
            </rate>
            <media>
              <video>
                <track>
                  <clipitem frameBlend="FALSE" id="clipitem-103">
                    <name>Luca.100.png</name>
                    <masterclipid>masterclip-102</masterclipid>
                    <rate>
                      <timebase>24</timebase>
                      <ntsc>FALSE</ntsc>
                    </rate>
                    <alphatype>straight</alphatype>
                    <pixelaspectratio>square</pixelaspectratio>
                    <anamorphic>FALSE</anamorphic>
                    <file id="file-102">
                      <name>Luca.100.png</name>
                      <pathurl>file://localhost/Users/antoniochiappetta/OneDrive - Aalto University/University/Aalto/Hackatons/Junction/Junction2019-IoK-security_awareness_kids/Assets/Team Animations/Image Sequences/Luca/Luca.100.png</pathurl>
                      <rate>
                        <timebase>24</timebase>
                        <ntsc>FALSE</ntsc>
                      </rate>
                      <duration>144</duration>
                      <timecode>
                        <rate>
                          <timebase>24</timebase>
                          <ntsc>FALSE</ntsc>
                        </rate>
                      </timecode>
                      <media>
                        <video>
                          <duration>1</duration>
                          <samplecharacteristics>
                            <anamorphic>FALSE</anamorphic>
                            <pixelaspectratio>square</pixelaspectratio>
                            <fielddominance>none</fielddominance>
                            <width>686</width>
                            <height>510</height>
                          </samplecharacteristics>
                        </video>
                      </media>
                    </file>
                  </clipitem>
                </track>
              </video>
            </media>
          </clip>
          <clip explodedTracks="true" frameBlend="FALSE" id="masterclip-103">
            <uuid>a44bda66-f133-4e03-bfa7-09597c766ef6</uuid>
            <masterclipid>masterclip-103</masterclipid>
            <ismasterclip>TRUE</ismasterclip>
            <duration>144</duration>
            <in>0</in>
            <out>144</out>
            <name>Luca.101.png</name>
            <rate>
              <timebase>24</timebase>
              <ntsc>FALSE</ntsc>
            </rate>
            <media>
              <video>
                <track>
                  <clipitem frameBlend="FALSE" id="clipitem-104">
                    <name>Luca.101.png</name>
                    <masterclipid>masterclip-103</masterclipid>
                    <rate>
                      <timebase>24</timebase>
                      <ntsc>FALSE</ntsc>
                    </rate>
                    <alphatype>straight</alphatype>
                    <pixelaspectratio>square</pixelaspectratio>
                    <anamorphic>FALSE</anamorphic>
                    <file id="file-103">
                      <name>Luca.101.png</name>
                      <pathurl>file://localhost/Users/antoniochiappetta/OneDrive - Aalto University/University/Aalto/Hackatons/Junction/Junction2019-IoK-security_awareness_kids/Assets/Team Animations/Image Sequences/Luca/Luca.101.png</pathurl>
                      <rate>
                        <timebase>24</timebase>
                        <ntsc>FALSE</ntsc>
                      </rate>
                      <duration>144</duration>
                      <timecode>
                        <rate>
                          <timebase>24</timebase>
                          <ntsc>FALSE</ntsc>
                        </rate>
                      </timecode>
                      <media>
                        <video>
                          <duration>1</duration>
                          <samplecharacteristics>
                            <anamorphic>FALSE</anamorphic>
                            <pixelaspectratio>square</pixelaspectratio>
                            <fielddominance>none</fielddominance>
                            <width>686</width>
                            <height>510</height>
                          </samplecharacteristics>
                        </video>
                      </media>
                    </file>
                  </clipitem>
                </track>
              </video>
            </media>
          </clip>
          <clip explodedTracks="true" frameBlend="FALSE" id="masterclip-104">
            <uuid>e23ceb4c-30e0-4552-848e-6a5a90f66e5d</uuid>
            <masterclipid>masterclip-104</masterclipid>
            <ismasterclip>TRUE</ismasterclip>
            <duration>144</duration>
            <in>0</in>
            <out>144</out>
            <name>Luca.102.png</name>
            <rate>
              <timebase>24</timebase>
              <ntsc>FALSE</ntsc>
            </rate>
            <media>
              <video>
                <track>
                  <clipitem frameBlend="FALSE" id="clipitem-105">
                    <name>Luca.102.png</name>
                    <masterclipid>masterclip-104</masterclipid>
                    <rate>
                      <timebase>24</timebase>
                      <ntsc>FALSE</ntsc>
                    </rate>
                    <alphatype>straight</alphatype>
                    <pixelaspectratio>square</pixelaspectratio>
                    <anamorphic>FALSE</anamorphic>
                    <file id="file-104">
                      <name>Luca.102.png</name>
                      <pathurl>file://localhost/Users/antoniochiappetta/OneDrive - Aalto University/University/Aalto/Hackatons/Junction/Junction2019-IoK-security_awareness_kids/Assets/Team Animations/Image Sequences/Luca/Luca.102.png</pathurl>
                      <rate>
                        <timebase>24</timebase>
                        <ntsc>FALSE</ntsc>
                      </rate>
                      <duration>144</duration>
                      <timecode>
                        <rate>
                          <timebase>24</timebase>
                          <ntsc>FALSE</ntsc>
                        </rate>
                      </timecode>
                      <media>
                        <video>
                          <duration>1</duration>
                          <samplecharacteristics>
                            <anamorphic>FALSE</anamorphic>
                            <pixelaspectratio>square</pixelaspectratio>
                            <fielddominance>none</fielddominance>
                            <width>686</width>
                            <height>510</height>
                          </samplecharacteristics>
                        </video>
                      </media>
                    </file>
                  </clipitem>
                </track>
              </video>
            </media>
          </clip>
          <clip explodedTracks="true" frameBlend="FALSE" id="masterclip-105">
            <uuid>eed0c17a-359c-45d0-b33e-73b3d35d40b0</uuid>
            <masterclipid>masterclip-105</masterclipid>
            <ismasterclip>TRUE</ismasterclip>
            <duration>144</duration>
            <in>0</in>
            <out>144</out>
            <name>Luca.103.png</name>
            <rate>
              <timebase>24</timebase>
              <ntsc>FALSE</ntsc>
            </rate>
            <media>
              <video>
                <track>
                  <clipitem frameBlend="FALSE" id="clipitem-106">
                    <name>Luca.103.png</name>
                    <masterclipid>masterclip-105</masterclipid>
                    <rate>
                      <timebase>24</timebase>
                      <ntsc>FALSE</ntsc>
                    </rate>
                    <alphatype>straight</alphatype>
                    <pixelaspectratio>square</pixelaspectratio>
                    <anamorphic>FALSE</anamorphic>
                    <file id="file-105">
                      <name>Luca.103.png</name>
                      <pathurl>file://localhost/Users/antoniochiappetta/OneDrive - Aalto University/University/Aalto/Hackatons/Junction/Junction2019-IoK-security_awareness_kids/Assets/Team Animations/Image Sequences/Luca/Luca.103.png</pathurl>
                      <rate>
                        <timebase>24</timebase>
                        <ntsc>FALSE</ntsc>
                      </rate>
                      <duration>144</duration>
                      <timecode>
                        <rate>
                          <timebase>24</timebase>
                          <ntsc>FALSE</ntsc>
                        </rate>
                      </timecode>
                      <media>
                        <video>
                          <duration>1</duration>
                          <samplecharacteristics>
                            <anamorphic>FALSE</anamorphic>
                            <pixelaspectratio>square</pixelaspectratio>
                            <fielddominance>none</fielddominance>
                            <width>686</width>
                            <height>510</height>
                          </samplecharacteristics>
                        </video>
                      </media>
                    </file>
                  </clipitem>
                </track>
              </video>
            </media>
          </clip>
          <clip explodedTracks="true" frameBlend="FALSE" id="masterclip-106">
            <uuid>c7d572df-c24e-41ef-982f-1cfae605c4a2</uuid>
            <masterclipid>masterclip-106</masterclipid>
            <ismasterclip>TRUE</ismasterclip>
            <duration>144</duration>
            <in>0</in>
            <out>144</out>
            <name>Luca.104.png</name>
            <rate>
              <timebase>24</timebase>
              <ntsc>FALSE</ntsc>
            </rate>
            <media>
              <video>
                <track>
                  <clipitem frameBlend="FALSE" id="clipitem-107">
                    <name>Luca.104.png</name>
                    <masterclipid>masterclip-106</masterclipid>
                    <rate>
                      <timebase>24</timebase>
                      <ntsc>FALSE</ntsc>
                    </rate>
                    <alphatype>straight</alphatype>
                    <pixelaspectratio>square</pixelaspectratio>
                    <anamorphic>FALSE</anamorphic>
                    <file id="file-106">
                      <name>Luca.104.png</name>
                      <pathurl>file://localhost/Users/antoniochiappetta/OneDrive - Aalto University/University/Aalto/Hackatons/Junction/Junction2019-IoK-security_awareness_kids/Assets/Team Animations/Image Sequences/Luca/Luca.104.png</pathurl>
                      <rate>
                        <timebase>24</timebase>
                        <ntsc>FALSE</ntsc>
                      </rate>
                      <duration>144</duration>
                      <timecode>
                        <rate>
                          <timebase>24</timebase>
                          <ntsc>FALSE</ntsc>
                        </rate>
                      </timecode>
                      <media>
                        <video>
                          <duration>1</duration>
                          <samplecharacteristics>
                            <anamorphic>FALSE</anamorphic>
                            <pixelaspectratio>square</pixelaspectratio>
                            <fielddominance>none</fielddominance>
                            <width>686</width>
                            <height>510</height>
                          </samplecharacteristics>
                        </video>
                      </media>
                    </file>
                  </clipitem>
                </track>
              </video>
            </media>
          </clip>
          <clip explodedTracks="true" frameBlend="FALSE" id="masterclip-107">
            <uuid>2ae2ada5-e8c8-4f38-979c-ac8953c36985</uuid>
            <masterclipid>masterclip-107</masterclipid>
            <ismasterclip>TRUE</ismasterclip>
            <duration>144</duration>
            <in>0</in>
            <out>144</out>
            <name>Luca.105.png</name>
            <rate>
              <timebase>24</timebase>
              <ntsc>FALSE</ntsc>
            </rate>
            <media>
              <video>
                <track>
                  <clipitem frameBlend="FALSE" id="clipitem-108">
                    <name>Luca.105.png</name>
                    <masterclipid>masterclip-107</masterclipid>
                    <rate>
                      <timebase>24</timebase>
                      <ntsc>FALSE</ntsc>
                    </rate>
                    <alphatype>straight</alphatype>
                    <pixelaspectratio>square</pixelaspectratio>
                    <anamorphic>FALSE</anamorphic>
                    <file id="file-107">
                      <name>Luca.105.png</name>
                      <pathurl>file://localhost/Users/antoniochiappetta/OneDrive - Aalto University/University/Aalto/Hackatons/Junction/Junction2019-IoK-security_awareness_kids/Assets/Team Animations/Image Sequences/Luca/Luca.105.png</pathurl>
                      <rate>
                        <timebase>24</timebase>
                        <ntsc>FALSE</ntsc>
                      </rate>
                      <duration>144</duration>
                      <timecode>
                        <rate>
                          <timebase>24</timebase>
                          <ntsc>FALSE</ntsc>
                        </rate>
                      </timecode>
                      <media>
                        <video>
                          <duration>1</duration>
                          <samplecharacteristics>
                            <anamorphic>FALSE</anamorphic>
                            <pixelaspectratio>square</pixelaspectratio>
                            <fielddominance>none</fielddominance>
                            <width>686</width>
                            <height>510</height>
                          </samplecharacteristics>
                        </video>
                      </media>
                    </file>
                  </clipitem>
                </track>
              </video>
            </media>
          </clip>
          <clip explodedTracks="true" frameBlend="FALSE" id="masterclip-108">
            <uuid>107dad65-a451-4e65-a016-e05b2eb1ccc0</uuid>
            <masterclipid>masterclip-108</masterclipid>
            <ismasterclip>TRUE</ismasterclip>
            <duration>144</duration>
            <in>0</in>
            <out>144</out>
            <name>Luca.106.png</name>
            <rate>
              <timebase>24</timebase>
              <ntsc>FALSE</ntsc>
            </rate>
            <media>
              <video>
                <track>
                  <clipitem frameBlend="FALSE" id="clipitem-109">
                    <name>Luca.106.png</name>
                    <masterclipid>masterclip-108</masterclipid>
                    <rate>
                      <timebase>24</timebase>
                      <ntsc>FALSE</ntsc>
                    </rate>
                    <alphatype>straight</alphatype>
                    <pixelaspectratio>square</pixelaspectratio>
                    <anamorphic>FALSE</anamorphic>
                    <file id="file-108">
                      <name>Luca.106.png</name>
                      <pathurl>file://localhost/Users/antoniochiappetta/OneDrive - Aalto University/University/Aalto/Hackatons/Junction/Junction2019-IoK-security_awareness_kids/Assets/Team Animations/Image Sequences/Luca/Luca.106.png</pathurl>
                      <rate>
                        <timebase>24</timebase>
                        <ntsc>FALSE</ntsc>
                      </rate>
                      <duration>144</duration>
                      <timecode>
                        <rate>
                          <timebase>24</timebase>
                          <ntsc>FALSE</ntsc>
                        </rate>
                      </timecode>
                      <media>
                        <video>
                          <duration>1</duration>
                          <samplecharacteristics>
                            <anamorphic>FALSE</anamorphic>
                            <pixelaspectratio>square</pixelaspectratio>
                            <fielddominance>none</fielddominance>
                            <width>686</width>
                            <height>510</height>
                          </samplecharacteristics>
                        </video>
                      </media>
                    </file>
                  </clipitem>
                </track>
              </video>
            </media>
          </clip>
          <clip explodedTracks="true" frameBlend="FALSE" id="masterclip-109">
            <uuid>597d18ef-2743-46ad-a2de-c2dec506562e</uuid>
            <masterclipid>masterclip-109</masterclipid>
            <ismasterclip>TRUE</ismasterclip>
            <duration>144</duration>
            <in>0</in>
            <out>144</out>
            <name>Luca.107.png</name>
            <rate>
              <timebase>24</timebase>
              <ntsc>FALSE</ntsc>
            </rate>
            <media>
              <video>
                <track>
                  <clipitem frameBlend="FALSE" id="clipitem-110">
                    <name>Luca.107.png</name>
                    <masterclipid>masterclip-109</masterclipid>
                    <rate>
                      <timebase>24</timebase>
                      <ntsc>FALSE</ntsc>
                    </rate>
                    <alphatype>straight</alphatype>
                    <pixelaspectratio>square</pixelaspectratio>
                    <anamorphic>FALSE</anamorphic>
                    <file id="file-109">
                      <name>Luca.107.png</name>
                      <pathurl>file://localhost/Users/antoniochiappetta/OneDrive - Aalto University/University/Aalto/Hackatons/Junction/Junction2019-IoK-security_awareness_kids/Assets/Team Animations/Image Sequences/Luca/Luca.107.png</pathurl>
                      <rate>
                        <timebase>24</timebase>
                        <ntsc>FALSE</ntsc>
                      </rate>
                      <duration>144</duration>
                      <timecode>
                        <rate>
                          <timebase>24</timebase>
                          <ntsc>FALSE</ntsc>
                        </rate>
                      </timecode>
                      <media>
                        <video>
                          <duration>1</duration>
                          <samplecharacteristics>
                            <anamorphic>FALSE</anamorphic>
                            <pixelaspectratio>square</pixelaspectratio>
                            <fielddominance>none</fielddominance>
                            <width>686</width>
                            <height>510</height>
                          </samplecharacteristics>
                        </video>
                      </media>
                    </file>
                  </clipitem>
                </track>
              </video>
            </media>
          </clip>
          <clip explodedTracks="true" frameBlend="FALSE" id="masterclip-110">
            <uuid>4ed65faf-38a4-4d67-a73a-956f48d5d268</uuid>
            <masterclipid>masterclip-110</masterclipid>
            <ismasterclip>TRUE</ismasterclip>
            <duration>144</duration>
            <in>0</in>
            <out>144</out>
            <name>Luca.108.png</name>
            <rate>
              <timebase>24</timebase>
              <ntsc>FALSE</ntsc>
            </rate>
            <media>
              <video>
                <track>
                  <clipitem frameBlend="FALSE" id="clipitem-111">
                    <name>Luca.108.png</name>
                    <masterclipid>masterclip-110</masterclipid>
                    <rate>
                      <timebase>24</timebase>
                      <ntsc>FALSE</ntsc>
                    </rate>
                    <alphatype>straight</alphatype>
                    <pixelaspectratio>square</pixelaspectratio>
                    <anamorphic>FALSE</anamorphic>
                    <file id="file-110">
                      <name>Luca.108.png</name>
                      <pathurl>file://localhost/Users/antoniochiappetta/OneDrive - Aalto University/University/Aalto/Hackatons/Junction/Junction2019-IoK-security_awareness_kids/Assets/Team Animations/Image Sequences/Luca/Luca.108.png</pathurl>
                      <rate>
                        <timebase>24</timebase>
                        <ntsc>FALSE</ntsc>
                      </rate>
                      <duration>144</duration>
                      <timecode>
                        <rate>
                          <timebase>24</timebase>
                          <ntsc>FALSE</ntsc>
                        </rate>
                      </timecode>
                      <media>
                        <video>
                          <duration>1</duration>
                          <samplecharacteristics>
                            <anamorphic>FALSE</anamorphic>
                            <pixelaspectratio>square</pixelaspectratio>
                            <fielddominance>none</fielddominance>
                            <width>686</width>
                            <height>510</height>
                          </samplecharacteristics>
                        </video>
                      </media>
                    </file>
                  </clipitem>
                </track>
              </video>
            </media>
          </clip>
          <clip explodedTracks="true" frameBlend="FALSE" id="masterclip-111">
            <uuid>094dc494-6d61-4150-9c15-f8a852787ebb</uuid>
            <masterclipid>masterclip-111</masterclipid>
            <ismasterclip>TRUE</ismasterclip>
            <duration>144</duration>
            <in>0</in>
            <out>144</out>
            <name>Luca.109.png</name>
            <rate>
              <timebase>24</timebase>
              <ntsc>FALSE</ntsc>
            </rate>
            <media>
              <video>
                <track>
                  <clipitem frameBlend="FALSE" id="clipitem-112">
                    <name>Luca.109.png</name>
                    <masterclipid>masterclip-111</masterclipid>
                    <rate>
                      <timebase>24</timebase>
                      <ntsc>FALSE</ntsc>
                    </rate>
                    <alphatype>straight</alphatype>
                    <pixelaspectratio>square</pixelaspectratio>
                    <anamorphic>FALSE</anamorphic>
                    <file id="file-111">
                      <name>Luca.109.png</name>
                      <pathurl>file://localhost/Users/antoniochiappetta/OneDrive - Aalto University/University/Aalto/Hackatons/Junction/Junction2019-IoK-security_awareness_kids/Assets/Team Animations/Image Sequences/Luca/Luca.109.png</pathurl>
                      <rate>
                        <timebase>24</timebase>
                        <ntsc>FALSE</ntsc>
                      </rate>
                      <duration>144</duration>
                      <timecode>
                        <rate>
                          <timebase>24</timebase>
                          <ntsc>FALSE</ntsc>
                        </rate>
                      </timecode>
                      <media>
                        <video>
                          <duration>1</duration>
                          <samplecharacteristics>
                            <anamorphic>FALSE</anamorphic>
                            <pixelaspectratio>square</pixelaspectratio>
                            <fielddominance>none</fielddominance>
                            <width>686</width>
                            <height>510</height>
                          </samplecharacteristics>
                        </video>
                      </media>
                    </file>
                  </clipitem>
                </track>
              </video>
            </media>
          </clip>
          <clip explodedTracks="true" frameBlend="FALSE" id="masterclip-112">
            <uuid>c85f2ba8-7bec-46ee-9b75-1ad75c51f224</uuid>
            <masterclipid>masterclip-112</masterclipid>
            <ismasterclip>TRUE</ismasterclip>
            <duration>144</duration>
            <in>0</in>
            <out>144</out>
            <name>Luca.110.png</name>
            <rate>
              <timebase>24</timebase>
              <ntsc>FALSE</ntsc>
            </rate>
            <media>
              <video>
                <track>
                  <clipitem frameBlend="FALSE" id="clipitem-113">
                    <name>Luca.110.png</name>
                    <masterclipid>masterclip-112</masterclipid>
                    <rate>
                      <timebase>24</timebase>
                      <ntsc>FALSE</ntsc>
                    </rate>
                    <alphatype>straight</alphatype>
                    <pixelaspectratio>square</pixelaspectratio>
                    <anamorphic>FALSE</anamorphic>
                    <file id="file-112">
                      <name>Luca.110.png</name>
                      <pathurl>file://localhost/Users/antoniochiappetta/OneDrive - Aalto University/University/Aalto/Hackatons/Junction/Junction2019-IoK-security_awareness_kids/Assets/Team Animations/Image Sequences/Luca/Luca.110.png</pathurl>
                      <rate>
                        <timebase>24</timebase>
                        <ntsc>FALSE</ntsc>
                      </rate>
                      <duration>144</duration>
                      <timecode>
                        <rate>
                          <timebase>24</timebase>
                          <ntsc>FALSE</ntsc>
                        </rate>
                      </timecode>
                      <media>
                        <video>
                          <duration>1</duration>
                          <samplecharacteristics>
                            <anamorphic>FALSE</anamorphic>
                            <pixelaspectratio>square</pixelaspectratio>
                            <fielddominance>none</fielddominance>
                            <width>686</width>
                            <height>510</height>
                          </samplecharacteristics>
                        </video>
                      </media>
                    </file>
                  </clipitem>
                </track>
              </video>
            </media>
          </clip>
          <clip explodedTracks="true" frameBlend="FALSE" id="masterclip-113">
            <uuid>7fa1a0df-b5c4-46ab-804f-23bb85cc8557</uuid>
            <masterclipid>masterclip-113</masterclipid>
            <ismasterclip>TRUE</ismasterclip>
            <duration>144</duration>
            <in>0</in>
            <out>144</out>
            <name>Luca.111.png</name>
            <rate>
              <timebase>24</timebase>
              <ntsc>FALSE</ntsc>
            </rate>
            <media>
              <video>
                <track>
                  <clipitem frameBlend="FALSE" id="clipitem-114">
                    <name>Luca.111.png</name>
                    <masterclipid>masterclip-113</masterclipid>
                    <rate>
                      <timebase>24</timebase>
                      <ntsc>FALSE</ntsc>
                    </rate>
                    <alphatype>straight</alphatype>
                    <pixelaspectratio>square</pixelaspectratio>
                    <anamorphic>FALSE</anamorphic>
                    <file id="file-113">
                      <name>Luca.111.png</name>
                      <pathurl>file://localhost/Users/antoniochiappetta/OneDrive - Aalto University/University/Aalto/Hackatons/Junction/Junction2019-IoK-security_awareness_kids/Assets/Team Animations/Image Sequences/Luca/Luca.111.png</pathurl>
                      <rate>
                        <timebase>24</timebase>
                        <ntsc>FALSE</ntsc>
                      </rate>
                      <duration>144</duration>
                      <timecode>
                        <rate>
                          <timebase>24</timebase>
                          <ntsc>FALSE</ntsc>
                        </rate>
                      </timecode>
                      <media>
                        <video>
                          <duration>1</duration>
                          <samplecharacteristics>
                            <anamorphic>FALSE</anamorphic>
                            <pixelaspectratio>square</pixelaspectratio>
                            <fielddominance>none</fielddominance>
                            <width>686</width>
                            <height>510</height>
                          </samplecharacteristics>
                        </video>
                      </media>
                    </file>
                  </clipitem>
                </track>
              </video>
            </media>
          </clip>
          <clip explodedTracks="true" frameBlend="FALSE" id="masterclip-114">
            <uuid>224f3c03-1ca4-40fe-a56c-29ae9c82cae5</uuid>
            <masterclipid>masterclip-114</masterclipid>
            <ismasterclip>TRUE</ismasterclip>
            <duration>144</duration>
            <in>0</in>
            <out>144</out>
            <name>Luca.112.png</name>
            <rate>
              <timebase>24</timebase>
              <ntsc>FALSE</ntsc>
            </rate>
            <media>
              <video>
                <track>
                  <clipitem frameBlend="FALSE" id="clipitem-115">
                    <name>Luca.112.png</name>
                    <masterclipid>masterclip-114</masterclipid>
                    <rate>
                      <timebase>24</timebase>
                      <ntsc>FALSE</ntsc>
                    </rate>
                    <alphatype>straight</alphatype>
                    <pixelaspectratio>square</pixelaspectratio>
                    <anamorphic>FALSE</anamorphic>
                    <file id="file-114">
                      <name>Luca.112.png</name>
                      <pathurl>file://localhost/Users/antoniochiappetta/OneDrive - Aalto University/University/Aalto/Hackatons/Junction/Junction2019-IoK-security_awareness_kids/Assets/Team Animations/Image Sequences/Luca/Luca.112.png</pathurl>
                      <rate>
                        <timebase>24</timebase>
                        <ntsc>FALSE</ntsc>
                      </rate>
                      <duration>144</duration>
                      <timecode>
                        <rate>
                          <timebase>24</timebase>
                          <ntsc>FALSE</ntsc>
                        </rate>
                      </timecode>
                      <media>
                        <video>
                          <duration>1</duration>
                          <samplecharacteristics>
                            <anamorphic>FALSE</anamorphic>
                            <pixelaspectratio>square</pixelaspectratio>
                            <fielddominance>none</fielddominance>
                            <width>686</width>
                            <height>510</height>
                          </samplecharacteristics>
                        </video>
                      </media>
                    </file>
                  </clipitem>
                </track>
              </video>
            </media>
          </clip>
          <clip explodedTracks="true" frameBlend="FALSE" id="masterclip-115">
            <uuid>54501458-6be8-495c-b7b9-f9c28b4c6b65</uuid>
            <masterclipid>masterclip-115</masterclipid>
            <ismasterclip>TRUE</ismasterclip>
            <duration>144</duration>
            <in>0</in>
            <out>144</out>
            <name>Luca.113.png</name>
            <rate>
              <timebase>24</timebase>
              <ntsc>FALSE</ntsc>
            </rate>
            <media>
              <video>
                <track>
                  <clipitem frameBlend="FALSE" id="clipitem-116">
                    <name>Luca.113.png</name>
                    <masterclipid>masterclip-115</masterclipid>
                    <rate>
                      <timebase>24</timebase>
                      <ntsc>FALSE</ntsc>
                    </rate>
                    <alphatype>straight</alphatype>
                    <pixelaspectratio>square</pixelaspectratio>
                    <anamorphic>FALSE</anamorphic>
                    <file id="file-115">
                      <name>Luca.113.png</name>
                      <pathurl>file://localhost/Users/antoniochiappetta/OneDrive - Aalto University/University/Aalto/Hackatons/Junction/Junction2019-IoK-security_awareness_kids/Assets/Team Animations/Image Sequences/Luca/Luca.113.png</pathurl>
                      <rate>
                        <timebase>24</timebase>
                        <ntsc>FALSE</ntsc>
                      </rate>
                      <duration>144</duration>
                      <timecode>
                        <rate>
                          <timebase>24</timebase>
                          <ntsc>FALSE</ntsc>
                        </rate>
                      </timecode>
                      <media>
                        <video>
                          <duration>1</duration>
                          <samplecharacteristics>
                            <anamorphic>FALSE</anamorphic>
                            <pixelaspectratio>square</pixelaspectratio>
                            <fielddominance>none</fielddominance>
                            <width>686</width>
                            <height>510</height>
                          </samplecharacteristics>
                        </video>
                      </media>
                    </file>
                  </clipitem>
                </track>
              </video>
            </media>
          </clip>
          <clip explodedTracks="true" frameBlend="FALSE" id="masterclip-116">
            <uuid>de10fb06-89e1-4f3e-a504-2be90dc124b2</uuid>
            <masterclipid>masterclip-116</masterclipid>
            <ismasterclip>TRUE</ismasterclip>
            <duration>144</duration>
            <in>0</in>
            <out>144</out>
            <name>Luca.114.png</name>
            <rate>
              <timebase>24</timebase>
              <ntsc>FALSE</ntsc>
            </rate>
            <media>
              <video>
                <track>
                  <clipitem frameBlend="FALSE" id="clipitem-117">
                    <name>Luca.114.png</name>
                    <masterclipid>masterclip-116</masterclipid>
                    <rate>
                      <timebase>24</timebase>
                      <ntsc>FALSE</ntsc>
                    </rate>
                    <alphatype>straight</alphatype>
                    <pixelaspectratio>square</pixelaspectratio>
                    <anamorphic>FALSE</anamorphic>
                    <file id="file-116">
                      <name>Luca.114.png</name>
                      <pathurl>file://localhost/Users/antoniochiappetta/OneDrive - Aalto University/University/Aalto/Hackatons/Junction/Junction2019-IoK-security_awareness_kids/Assets/Team Animations/Image Sequences/Luca/Luca.114.png</pathurl>
                      <rate>
                        <timebase>24</timebase>
                        <ntsc>FALSE</ntsc>
                      </rate>
                      <duration>144</duration>
                      <timecode>
                        <rate>
                          <timebase>24</timebase>
                          <ntsc>FALSE</ntsc>
                        </rate>
                      </timecode>
                      <media>
                        <video>
                          <duration>1</duration>
                          <samplecharacteristics>
                            <anamorphic>FALSE</anamorphic>
                            <pixelaspectratio>square</pixelaspectratio>
                            <fielddominance>none</fielddominance>
                            <width>686</width>
                            <height>510</height>
                          </samplecharacteristics>
                        </video>
                      </media>
                    </file>
                  </clipitem>
                </track>
              </video>
            </media>
          </clip>
          <clip explodedTracks="true" frameBlend="FALSE" id="masterclip-117">
            <uuid>77fa54c7-7b01-44ba-bf7c-2c64edc08234</uuid>
            <masterclipid>masterclip-117</masterclipid>
            <ismasterclip>TRUE</ismasterclip>
            <duration>144</duration>
            <in>0</in>
            <out>144</out>
            <name>Luca.115.png</name>
            <rate>
              <timebase>24</timebase>
              <ntsc>FALSE</ntsc>
            </rate>
            <media>
              <video>
                <track>
                  <clipitem frameBlend="FALSE" id="clipitem-118">
                    <name>Luca.115.png</name>
                    <masterclipid>masterclip-117</masterclipid>
                    <rate>
                      <timebase>24</timebase>
                      <ntsc>FALSE</ntsc>
                    </rate>
                    <alphatype>straight</alphatype>
                    <pixelaspectratio>square</pixelaspectratio>
                    <anamorphic>FALSE</anamorphic>
                    <file id="file-117">
                      <name>Luca.115.png</name>
                      <pathurl>file://localhost/Users/antoniochiappetta/OneDrive - Aalto University/University/Aalto/Hackatons/Junction/Junction2019-IoK-security_awareness_kids/Assets/Team Animations/Image Sequences/Luca/Luca.115.png</pathurl>
                      <rate>
                        <timebase>24</timebase>
                        <ntsc>FALSE</ntsc>
                      </rate>
                      <duration>144</duration>
                      <timecode>
                        <rate>
                          <timebase>24</timebase>
                          <ntsc>FALSE</ntsc>
                        </rate>
                      </timecode>
                      <media>
                        <video>
                          <duration>1</duration>
                          <samplecharacteristics>
                            <anamorphic>FALSE</anamorphic>
                            <pixelaspectratio>square</pixelaspectratio>
                            <fielddominance>none</fielddominance>
                            <width>686</width>
                            <height>510</height>
                          </samplecharacteristics>
                        </video>
                      </media>
                    </file>
                  </clipitem>
                </track>
              </video>
            </media>
          </clip>
          <clip explodedTracks="true" frameBlend="FALSE" id="masterclip-118">
            <uuid>aea2b680-1d07-4d46-92a2-b9818448754e</uuid>
            <masterclipid>masterclip-118</masterclipid>
            <ismasterclip>TRUE</ismasterclip>
            <duration>144</duration>
            <in>0</in>
            <out>144</out>
            <name>Luca.116.png</name>
            <rate>
              <timebase>24</timebase>
              <ntsc>FALSE</ntsc>
            </rate>
            <media>
              <video>
                <track>
                  <clipitem frameBlend="FALSE" id="clipitem-119">
                    <name>Luca.116.png</name>
                    <masterclipid>masterclip-118</masterclipid>
                    <rate>
                      <timebase>24</timebase>
                      <ntsc>FALSE</ntsc>
                    </rate>
                    <alphatype>straight</alphatype>
                    <pixelaspectratio>square</pixelaspectratio>
                    <anamorphic>FALSE</anamorphic>
                    <file id="file-118">
                      <name>Luca.116.png</name>
                      <pathurl>file://localhost/Users/antoniochiappetta/OneDrive - Aalto University/University/Aalto/Hackatons/Junction/Junction2019-IoK-security_awareness_kids/Assets/Team Animations/Image Sequences/Luca/Luca.116.png</pathurl>
                      <rate>
                        <timebase>24</timebase>
                        <ntsc>FALSE</ntsc>
                      </rate>
                      <duration>144</duration>
                      <timecode>
                        <rate>
                          <timebase>24</timebase>
                          <ntsc>FALSE</ntsc>
                        </rate>
                      </timecode>
                      <media>
                        <video>
                          <duration>1</duration>
                          <samplecharacteristics>
                            <anamorphic>FALSE</anamorphic>
                            <pixelaspectratio>square</pixelaspectratio>
                            <fielddominance>none</fielddominance>
                            <width>686</width>
                            <height>510</height>
                          </samplecharacteristics>
                        </video>
                      </media>
                    </file>
                  </clipitem>
                </track>
              </video>
            </media>
          </clip>
          <clip explodedTracks="true" frameBlend="FALSE" id="masterclip-119">
            <uuid>458092b4-8e9a-4cd4-926c-a45bfbb49cde</uuid>
            <masterclipid>masterclip-119</masterclipid>
            <ismasterclip>TRUE</ismasterclip>
            <duration>144</duration>
            <in>0</in>
            <out>144</out>
            <name>Luca.117.png</name>
            <rate>
              <timebase>24</timebase>
              <ntsc>FALSE</ntsc>
            </rate>
            <media>
              <video>
                <track>
                  <clipitem frameBlend="FALSE" id="clipitem-120">
                    <name>Luca.117.png</name>
                    <masterclipid>masterclip-119</masterclipid>
                    <rate>
                      <timebase>24</timebase>
                      <ntsc>FALSE</ntsc>
                    </rate>
                    <alphatype>straight</alphatype>
                    <pixelaspectratio>square</pixelaspectratio>
                    <anamorphic>FALSE</anamorphic>
                    <file id="file-119">
                      <name>Luca.117.png</name>
                      <pathurl>file://localhost/Users/antoniochiappetta/OneDrive - Aalto University/University/Aalto/Hackatons/Junction/Junction2019-IoK-security_awareness_kids/Assets/Team Animations/Image Sequences/Luca/Luca.117.png</pathurl>
                      <rate>
                        <timebase>24</timebase>
                        <ntsc>FALSE</ntsc>
                      </rate>
                      <duration>144</duration>
                      <timecode>
                        <rate>
                          <timebase>24</timebase>
                          <ntsc>FALSE</ntsc>
                        </rate>
                      </timecode>
                      <media>
                        <video>
                          <duration>1</duration>
                          <samplecharacteristics>
                            <anamorphic>FALSE</anamorphic>
                            <pixelaspectratio>square</pixelaspectratio>
                            <fielddominance>none</fielddominance>
                            <width>686</width>
                            <height>510</height>
                          </samplecharacteristics>
                        </video>
                      </media>
                    </file>
                  </clipitem>
                </track>
              </video>
            </media>
          </clip>
          <clip explodedTracks="true" frameBlend="FALSE" id="masterclip-120">
            <uuid>29a4406c-85d5-411b-9823-f891b703b613</uuid>
            <masterclipid>masterclip-120</masterclipid>
            <ismasterclip>TRUE</ismasterclip>
            <duration>144</duration>
            <in>0</in>
            <out>144</out>
            <name>Luca.118.png</name>
            <rate>
              <timebase>24</timebase>
              <ntsc>FALSE</ntsc>
            </rate>
            <media>
              <video>
                <track>
                  <clipitem frameBlend="FALSE" id="clipitem-121">
                    <name>Luca.118.png</name>
                    <masterclipid>masterclip-120</masterclipid>
                    <rate>
                      <timebase>24</timebase>
                      <ntsc>FALSE</ntsc>
                    </rate>
                    <alphatype>straight</alphatype>
                    <pixelaspectratio>square</pixelaspectratio>
                    <anamorphic>FALSE</anamorphic>
                    <file id="file-120">
                      <name>Luca.118.png</name>
                      <pathurl>file://localhost/Users/antoniochiappetta/OneDrive - Aalto University/University/Aalto/Hackatons/Junction/Junction2019-IoK-security_awareness_kids/Assets/Team Animations/Image Sequences/Luca/Luca.118.png</pathurl>
                      <rate>
                        <timebase>24</timebase>
                        <ntsc>FALSE</ntsc>
                      </rate>
                      <duration>144</duration>
                      <timecode>
                        <rate>
                          <timebase>24</timebase>
                          <ntsc>FALSE</ntsc>
                        </rate>
                      </timecode>
                      <media>
                        <video>
                          <duration>1</duration>
                          <samplecharacteristics>
                            <anamorphic>FALSE</anamorphic>
                            <pixelaspectratio>square</pixelaspectratio>
                            <fielddominance>none</fielddominance>
                            <width>686</width>
                            <height>510</height>
                          </samplecharacteristics>
                        </video>
                      </media>
                    </file>
                  </clipitem>
                </track>
              </video>
            </media>
          </clip>
          <clip explodedTracks="true" frameBlend="FALSE" id="masterclip-121">
            <uuid>bc4d7b09-89b6-480b-ac4e-b9f2797c0db1</uuid>
            <masterclipid>masterclip-121</masterclipid>
            <ismasterclip>TRUE</ismasterclip>
            <duration>144</duration>
            <in>0</in>
            <out>144</out>
            <name>Luca.119.png</name>
            <rate>
              <timebase>24</timebase>
              <ntsc>FALSE</ntsc>
            </rate>
            <media>
              <video>
                <track>
                  <clipitem frameBlend="FALSE" id="clipitem-122">
                    <name>Luca.119.png</name>
                    <masterclipid>masterclip-121</masterclipid>
                    <rate>
                      <timebase>24</timebase>
                      <ntsc>FALSE</ntsc>
                    </rate>
                    <alphatype>straight</alphatype>
                    <pixelaspectratio>square</pixelaspectratio>
                    <anamorphic>FALSE</anamorphic>
                    <file id="file-121">
                      <name>Luca.119.png</name>
                      <pathurl>file://localhost/Users/antoniochiappetta/OneDrive - Aalto University/University/Aalto/Hackatons/Junction/Junction2019-IoK-security_awareness_kids/Assets/Team Animations/Image Sequences/Luca/Luca.119.png</pathurl>
                      <rate>
                        <timebase>24</timebase>
                        <ntsc>FALSE</ntsc>
                      </rate>
                      <duration>144</duration>
                      <timecode>
                        <rate>
                          <timebase>24</timebase>
                          <ntsc>FALSE</ntsc>
                        </rate>
                      </timecode>
                      <media>
                        <video>
                          <duration>1</duration>
                          <samplecharacteristics>
                            <anamorphic>FALSE</anamorphic>
                            <pixelaspectratio>square</pixelaspectratio>
                            <fielddominance>none</fielddominance>
                            <width>686</width>
                            <height>510</height>
                          </samplecharacteristics>
                        </video>
                      </media>
                    </file>
                  </clipitem>
                </track>
              </video>
            </media>
          </clip>
          <clip explodedTracks="true" frameBlend="FALSE" id="masterclip-122">
            <uuid>1dd9a7fc-3e90-4d61-bbdd-3659a08582aa</uuid>
            <masterclipid>masterclip-122</masterclipid>
            <ismasterclip>TRUE</ismasterclip>
            <duration>144</duration>
            <in>0</in>
            <out>144</out>
            <name>Luca.120.png</name>
            <rate>
              <timebase>24</timebase>
              <ntsc>FALSE</ntsc>
            </rate>
            <media>
              <video>
                <track>
                  <clipitem frameBlend="FALSE" id="clipitem-123">
                    <name>Luca.120.png</name>
                    <masterclipid>masterclip-122</masterclipid>
                    <rate>
                      <timebase>24</timebase>
                      <ntsc>FALSE</ntsc>
                    </rate>
                    <alphatype>straight</alphatype>
                    <pixelaspectratio>square</pixelaspectratio>
                    <anamorphic>FALSE</anamorphic>
                    <file id="file-122">
                      <name>Luca.120.png</name>
                      <pathurl>file://localhost/Users/antoniochiappetta/OneDrive - Aalto University/University/Aalto/Hackatons/Junction/Junction2019-IoK-security_awareness_kids/Assets/Team Animations/Image Sequences/Luca/Luca.120.png</pathurl>
                      <rate>
                        <timebase>24</timebase>
                        <ntsc>FALSE</ntsc>
                      </rate>
                      <duration>144</duration>
                      <timecode>
                        <rate>
                          <timebase>24</timebase>
                          <ntsc>FALSE</ntsc>
                        </rate>
                      </timecode>
                      <media>
                        <video>
                          <duration>1</duration>
                          <samplecharacteristics>
                            <anamorphic>FALSE</anamorphic>
                            <pixelaspectratio>square</pixelaspectratio>
                            <fielddominance>none</fielddominance>
                            <width>686</width>
                            <height>510</height>
                          </samplecharacteristics>
                        </video>
                      </media>
                    </file>
                  </clipitem>
                </track>
              </video>
            </media>
          </clip>
          <clip explodedTracks="true" frameBlend="FALSE" id="masterclip-123">
            <uuid>bf23a3dd-7a04-475b-aa78-5a74e019605d</uuid>
            <masterclipid>masterclip-123</masterclipid>
            <ismasterclip>TRUE</ismasterclip>
            <duration>144</duration>
            <in>0</in>
            <out>144</out>
            <name>Luca.121.png</name>
            <rate>
              <timebase>24</timebase>
              <ntsc>FALSE</ntsc>
            </rate>
            <media>
              <video>
                <track>
                  <clipitem frameBlend="FALSE" id="clipitem-124">
                    <name>Luca.121.png</name>
                    <masterclipid>masterclip-123</masterclipid>
                    <rate>
                      <timebase>24</timebase>
                      <ntsc>FALSE</ntsc>
                    </rate>
                    <alphatype>straight</alphatype>
                    <pixelaspectratio>square</pixelaspectratio>
                    <anamorphic>FALSE</anamorphic>
                    <file id="file-123">
                      <name>Luca.121.png</name>
                      <pathurl>file://localhost/Users/antoniochiappetta/OneDrive - Aalto University/University/Aalto/Hackatons/Junction/Junction2019-IoK-security_awareness_kids/Assets/Team Animations/Image Sequences/Luca/Luca.121.png</pathurl>
                      <rate>
                        <timebase>24</timebase>
                        <ntsc>FALSE</ntsc>
                      </rate>
                      <duration>144</duration>
                      <timecode>
                        <rate>
                          <timebase>24</timebase>
                          <ntsc>FALSE</ntsc>
                        </rate>
                      </timecode>
                      <media>
                        <video>
                          <duration>1</duration>
                          <samplecharacteristics>
                            <anamorphic>FALSE</anamorphic>
                            <pixelaspectratio>square</pixelaspectratio>
                            <fielddominance>none</fielddominance>
                            <width>686</width>
                            <height>510</height>
                          </samplecharacteristics>
                        </video>
                      </media>
                    </file>
                  </clipitem>
                </track>
              </video>
            </media>
          </clip>
          <clip explodedTracks="true" frameBlend="FALSE" id="masterclip-124">
            <uuid>7f39172e-c9b6-451b-a708-20ef12334212</uuid>
            <masterclipid>masterclip-124</masterclipid>
            <ismasterclip>TRUE</ismasterclip>
            <duration>144</duration>
            <in>0</in>
            <out>144</out>
            <name>Luca.122.png</name>
            <rate>
              <timebase>24</timebase>
              <ntsc>FALSE</ntsc>
            </rate>
            <media>
              <video>
                <track>
                  <clipitem frameBlend="FALSE" id="clipitem-125">
                    <name>Luca.122.png</name>
                    <masterclipid>masterclip-124</masterclipid>
                    <rate>
                      <timebase>24</timebase>
                      <ntsc>FALSE</ntsc>
                    </rate>
                    <alphatype>straight</alphatype>
                    <pixelaspectratio>square</pixelaspectratio>
                    <anamorphic>FALSE</anamorphic>
                    <file id="file-124">
                      <name>Luca.122.png</name>
                      <pathurl>file://localhost/Users/antoniochiappetta/OneDrive - Aalto University/University/Aalto/Hackatons/Junction/Junction2019-IoK-security_awareness_kids/Assets/Team Animations/Image Sequences/Luca/Luca.122.png</pathurl>
                      <rate>
                        <timebase>24</timebase>
                        <ntsc>FALSE</ntsc>
                      </rate>
                      <duration>144</duration>
                      <timecode>
                        <rate>
                          <timebase>24</timebase>
                          <ntsc>FALSE</ntsc>
                        </rate>
                      </timecode>
                      <media>
                        <video>
                          <duration>1</duration>
                          <samplecharacteristics>
                            <anamorphic>FALSE</anamorphic>
                            <pixelaspectratio>square</pixelaspectratio>
                            <fielddominance>none</fielddominance>
                            <width>686</width>
                            <height>510</height>
                          </samplecharacteristics>
                        </video>
                      </media>
                    </file>
                  </clipitem>
                </track>
              </video>
            </media>
          </clip>
          <clip explodedTracks="true" frameBlend="FALSE" id="masterclip-125">
            <uuid>4c486092-7f6e-44d8-86a2-ee2497092899</uuid>
            <masterclipid>masterclip-125</masterclipid>
            <ismasterclip>TRUE</ismasterclip>
            <duration>144</duration>
            <in>0</in>
            <out>144</out>
            <name>Luca.123.png</name>
            <rate>
              <timebase>24</timebase>
              <ntsc>FALSE</ntsc>
            </rate>
            <media>
              <video>
                <track>
                  <clipitem frameBlend="FALSE" id="clipitem-126">
                    <name>Luca.123.png</name>
                    <masterclipid>masterclip-125</masterclipid>
                    <rate>
                      <timebase>24</timebase>
                      <ntsc>FALSE</ntsc>
                    </rate>
                    <alphatype>straight</alphatype>
                    <pixelaspectratio>square</pixelaspectratio>
                    <anamorphic>FALSE</anamorphic>
                    <file id="file-125">
                      <name>Luca.123.png</name>
                      <pathurl>file://localhost/Users/antoniochiappetta/OneDrive - Aalto University/University/Aalto/Hackatons/Junction/Junction2019-IoK-security_awareness_kids/Assets/Team Animations/Image Sequences/Luca/Luca.123.png</pathurl>
                      <rate>
                        <timebase>24</timebase>
                        <ntsc>FALSE</ntsc>
                      </rate>
                      <duration>144</duration>
                      <timecode>
                        <rate>
                          <timebase>24</timebase>
                          <ntsc>FALSE</ntsc>
                        </rate>
                      </timecode>
                      <media>
                        <video>
                          <duration>1</duration>
                          <samplecharacteristics>
                            <anamorphic>FALSE</anamorphic>
                            <pixelaspectratio>square</pixelaspectratio>
                            <fielddominance>none</fielddominance>
                            <width>686</width>
                            <height>510</height>
                          </samplecharacteristics>
                        </video>
                      </media>
                    </file>
                  </clipitem>
                </track>
              </video>
            </media>
          </clip>
          <clip explodedTracks="true" frameBlend="FALSE" id="masterclip-126">
            <uuid>0b715585-c6fe-4596-a09b-29a527102922</uuid>
            <masterclipid>masterclip-126</masterclipid>
            <ismasterclip>TRUE</ismasterclip>
            <duration>144</duration>
            <in>0</in>
            <out>144</out>
            <name>Luca.124.png</name>
            <rate>
              <timebase>24</timebase>
              <ntsc>FALSE</ntsc>
            </rate>
            <media>
              <video>
                <track>
                  <clipitem frameBlend="FALSE" id="clipitem-127">
                    <name>Luca.124.png</name>
                    <masterclipid>masterclip-126</masterclipid>
                    <rate>
                      <timebase>24</timebase>
                      <ntsc>FALSE</ntsc>
                    </rate>
                    <alphatype>straight</alphatype>
                    <pixelaspectratio>square</pixelaspectratio>
                    <anamorphic>FALSE</anamorphic>
                    <file id="file-126">
                      <name>Luca.124.png</name>
                      <pathurl>file://localhost/Users/antoniochiappetta/OneDrive - Aalto University/University/Aalto/Hackatons/Junction/Junction2019-IoK-security_awareness_kids/Assets/Team Animations/Image Sequences/Luca/Luca.124.png</pathurl>
                      <rate>
                        <timebase>24</timebase>
                        <ntsc>FALSE</ntsc>
                      </rate>
                      <duration>144</duration>
                      <timecode>
                        <rate>
                          <timebase>24</timebase>
                          <ntsc>FALSE</ntsc>
                        </rate>
                      </timecode>
                      <media>
                        <video>
                          <duration>1</duration>
                          <samplecharacteristics>
                            <anamorphic>FALSE</anamorphic>
                            <pixelaspectratio>square</pixelaspectratio>
                            <fielddominance>none</fielddominance>
                            <width>686</width>
                            <height>510</height>
                          </samplecharacteristics>
                        </video>
                      </media>
                    </file>
                  </clipitem>
                </track>
              </video>
            </media>
          </clip>
          <clip explodedTracks="true" frameBlend="FALSE" id="masterclip-127">
            <uuid>8e022b10-ed82-47eb-a422-f137661a192f</uuid>
            <masterclipid>masterclip-127</masterclipid>
            <ismasterclip>TRUE</ismasterclip>
            <duration>144</duration>
            <in>0</in>
            <out>144</out>
            <name>Luca.125.png</name>
            <rate>
              <timebase>24</timebase>
              <ntsc>FALSE</ntsc>
            </rate>
            <media>
              <video>
                <track>
                  <clipitem frameBlend="FALSE" id="clipitem-128">
                    <name>Luca.125.png</name>
                    <masterclipid>masterclip-127</masterclipid>
                    <rate>
                      <timebase>24</timebase>
                      <ntsc>FALSE</ntsc>
                    </rate>
                    <alphatype>straight</alphatype>
                    <pixelaspectratio>square</pixelaspectratio>
                    <anamorphic>FALSE</anamorphic>
                    <file id="file-127">
                      <name>Luca.125.png</name>
                      <pathurl>file://localhost/Users/antoniochiappetta/OneDrive - Aalto University/University/Aalto/Hackatons/Junction/Junction2019-IoK-security_awareness_kids/Assets/Team Animations/Image Sequences/Luca/Luca.125.png</pathurl>
                      <rate>
                        <timebase>24</timebase>
                        <ntsc>FALSE</ntsc>
                      </rate>
                      <duration>144</duration>
                      <timecode>
                        <rate>
                          <timebase>24</timebase>
                          <ntsc>FALSE</ntsc>
                        </rate>
                      </timecode>
                      <media>
                        <video>
                          <duration>1</duration>
                          <samplecharacteristics>
                            <anamorphic>FALSE</anamorphic>
                            <pixelaspectratio>square</pixelaspectratio>
                            <fielddominance>none</fielddominance>
                            <width>686</width>
                            <height>510</height>
                          </samplecharacteristics>
                        </video>
                      </media>
                    </file>
                  </clipitem>
                </track>
              </video>
            </media>
          </clip>
          <clip explodedTracks="true" frameBlend="FALSE" id="masterclip-128">
            <uuid>54fc587f-cd3a-4289-84ce-5dfe598eeba9</uuid>
            <masterclipid>masterclip-128</masterclipid>
            <ismasterclip>TRUE</ismasterclip>
            <duration>144</duration>
            <in>0</in>
            <out>144</out>
            <name>Luca.126.png</name>
            <rate>
              <timebase>24</timebase>
              <ntsc>FALSE</ntsc>
            </rate>
            <media>
              <video>
                <track>
                  <clipitem frameBlend="FALSE" id="clipitem-129">
                    <name>Luca.126.png</name>
                    <masterclipid>masterclip-128</masterclipid>
                    <rate>
                      <timebase>24</timebase>
                      <ntsc>FALSE</ntsc>
                    </rate>
                    <alphatype>straight</alphatype>
                    <pixelaspectratio>square</pixelaspectratio>
                    <anamorphic>FALSE</anamorphic>
                    <file id="file-128">
                      <name>Luca.126.png</name>
                      <pathurl>file://localhost/Users/antoniochiappetta/OneDrive - Aalto University/University/Aalto/Hackatons/Junction/Junction2019-IoK-security_awareness_kids/Assets/Team Animations/Image Sequences/Luca/Luca.126.png</pathurl>
                      <rate>
                        <timebase>24</timebase>
                        <ntsc>FALSE</ntsc>
                      </rate>
                      <duration>144</duration>
                      <timecode>
                        <rate>
                          <timebase>24</timebase>
                          <ntsc>FALSE</ntsc>
                        </rate>
                      </timecode>
                      <media>
                        <video>
                          <duration>1</duration>
                          <samplecharacteristics>
                            <anamorphic>FALSE</anamorphic>
                            <pixelaspectratio>square</pixelaspectratio>
                            <fielddominance>none</fielddominance>
                            <width>686</width>
                            <height>510</height>
                          </samplecharacteristics>
                        </video>
                      </media>
                    </file>
                  </clipitem>
                </track>
              </video>
            </media>
          </clip>
          <clip explodedTracks="true" frameBlend="FALSE" id="masterclip-129">
            <uuid>c96a8c91-1c3a-4de3-ac6c-ba31ea50bcf8</uuid>
            <masterclipid>masterclip-129</masterclipid>
            <ismasterclip>TRUE</ismasterclip>
            <duration>144</duration>
            <in>0</in>
            <out>144</out>
            <name>Luca.127.png</name>
            <rate>
              <timebase>24</timebase>
              <ntsc>FALSE</ntsc>
            </rate>
            <media>
              <video>
                <track>
                  <clipitem frameBlend="FALSE" id="clipitem-130">
                    <name>Luca.127.png</name>
                    <masterclipid>masterclip-129</masterclipid>
                    <rate>
                      <timebase>24</timebase>
                      <ntsc>FALSE</ntsc>
                    </rate>
                    <alphatype>straight</alphatype>
                    <pixelaspectratio>square</pixelaspectratio>
                    <anamorphic>FALSE</anamorphic>
                    <file id="file-129">
                      <name>Luca.127.png</name>
                      <pathurl>file://localhost/Users/antoniochiappetta/OneDrive - Aalto University/University/Aalto/Hackatons/Junction/Junction2019-IoK-security_awareness_kids/Assets/Team Animations/Image Sequences/Luca/Luca.127.png</pathurl>
                      <rate>
                        <timebase>24</timebase>
                        <ntsc>FALSE</ntsc>
                      </rate>
                      <duration>144</duration>
                      <timecode>
                        <rate>
                          <timebase>24</timebase>
                          <ntsc>FALSE</ntsc>
                        </rate>
                      </timecode>
                      <media>
                        <video>
                          <duration>1</duration>
                          <samplecharacteristics>
                            <anamorphic>FALSE</anamorphic>
                            <pixelaspectratio>square</pixelaspectratio>
                            <fielddominance>none</fielddominance>
                            <width>686</width>
                            <height>510</height>
                          </samplecharacteristics>
                        </video>
                      </media>
                    </file>
                  </clipitem>
                </track>
              </video>
            </media>
          </clip>
          <clip explodedTracks="true" frameBlend="FALSE" id="masterclip-130">
            <uuid>8f455f2d-d978-4676-8066-9ac229641b67</uuid>
            <masterclipid>masterclip-130</masterclipid>
            <ismasterclip>TRUE</ismasterclip>
            <duration>144</duration>
            <in>0</in>
            <out>144</out>
            <name>Luca.128.png</name>
            <rate>
              <timebase>24</timebase>
              <ntsc>FALSE</ntsc>
            </rate>
            <media>
              <video>
                <track>
                  <clipitem frameBlend="FALSE" id="clipitem-131">
                    <name>Luca.128.png</name>
                    <masterclipid>masterclip-130</masterclipid>
                    <rate>
                      <timebase>24</timebase>
                      <ntsc>FALSE</ntsc>
                    </rate>
                    <alphatype>straight</alphatype>
                    <pixelaspectratio>square</pixelaspectratio>
                    <anamorphic>FALSE</anamorphic>
                    <file id="file-130">
                      <name>Luca.128.png</name>
                      <pathurl>file://localhost/Users/antoniochiappetta/OneDrive - Aalto University/University/Aalto/Hackatons/Junction/Junction2019-IoK-security_awareness_kids/Assets/Team Animations/Image Sequences/Luca/Luca.128.png</pathurl>
                      <rate>
                        <timebase>24</timebase>
                        <ntsc>FALSE</ntsc>
                      </rate>
                      <duration>144</duration>
                      <timecode>
                        <rate>
                          <timebase>24</timebase>
                          <ntsc>FALSE</ntsc>
                        </rate>
                      </timecode>
                      <media>
                        <video>
                          <duration>1</duration>
                          <samplecharacteristics>
                            <anamorphic>FALSE</anamorphic>
                            <pixelaspectratio>square</pixelaspectratio>
                            <fielddominance>none</fielddominance>
                            <width>686</width>
                            <height>510</height>
                          </samplecharacteristics>
                        </video>
                      </media>
                    </file>
                  </clipitem>
                </track>
              </video>
            </media>
          </clip>
          <clip explodedTracks="true" frameBlend="FALSE" id="masterclip-131">
            <uuid>62294599-5eeb-4bbf-9f69-b947dfaf211d</uuid>
            <masterclipid>masterclip-131</masterclipid>
            <ismasterclip>TRUE</ismasterclip>
            <duration>144</duration>
            <in>0</in>
            <out>144</out>
            <name>Luca.129.png</name>
            <rate>
              <timebase>24</timebase>
              <ntsc>FALSE</ntsc>
            </rate>
            <media>
              <video>
                <track>
                  <clipitem frameBlend="FALSE" id="clipitem-132">
                    <name>Luca.129.png</name>
                    <masterclipid>masterclip-131</masterclipid>
                    <rate>
                      <timebase>24</timebase>
                      <ntsc>FALSE</ntsc>
                    </rate>
                    <alphatype>straight</alphatype>
                    <pixelaspectratio>square</pixelaspectratio>
                    <anamorphic>FALSE</anamorphic>
                    <file id="file-131">
                      <name>Luca.129.png</name>
                      <pathurl>file://localhost/Users/antoniochiappetta/OneDrive - Aalto University/University/Aalto/Hackatons/Junction/Junction2019-IoK-security_awareness_kids/Assets/Team Animations/Image Sequences/Luca/Luca.129.png</pathurl>
                      <rate>
                        <timebase>24</timebase>
                        <ntsc>FALSE</ntsc>
                      </rate>
                      <duration>144</duration>
                      <timecode>
                        <rate>
                          <timebase>24</timebase>
                          <ntsc>FALSE</ntsc>
                        </rate>
                      </timecode>
                      <media>
                        <video>
                          <duration>1</duration>
                          <samplecharacteristics>
                            <anamorphic>FALSE</anamorphic>
                            <pixelaspectratio>square</pixelaspectratio>
                            <fielddominance>none</fielddominance>
                            <width>686</width>
                            <height>510</height>
                          </samplecharacteristics>
                        </video>
                      </media>
                    </file>
                  </clipitem>
                </track>
              </video>
            </media>
          </clip>
          <clip explodedTracks="true" frameBlend="FALSE" id="masterclip-132">
            <uuid>6246aab2-daab-4f3d-9704-dd067ffefc54</uuid>
            <masterclipid>masterclip-132</masterclipid>
            <ismasterclip>TRUE</ismasterclip>
            <duration>144</duration>
            <in>0</in>
            <out>144</out>
            <name>Luca.130.png</name>
            <rate>
              <timebase>24</timebase>
              <ntsc>FALSE</ntsc>
            </rate>
            <media>
              <video>
                <track>
                  <clipitem frameBlend="FALSE" id="clipitem-133">
                    <name>Luca.130.png</name>
                    <masterclipid>masterclip-132</masterclipid>
                    <rate>
                      <timebase>24</timebase>
                      <ntsc>FALSE</ntsc>
                    </rate>
                    <alphatype>straight</alphatype>
                    <pixelaspectratio>square</pixelaspectratio>
                    <anamorphic>FALSE</anamorphic>
                    <file id="file-132">
                      <name>Luca.130.png</name>
                      <pathurl>file://localhost/Users/antoniochiappetta/OneDrive - Aalto University/University/Aalto/Hackatons/Junction/Junction2019-IoK-security_awareness_kids/Assets/Team Animations/Image Sequences/Luca/Luca.130.png</pathurl>
                      <rate>
                        <timebase>24</timebase>
                        <ntsc>FALSE</ntsc>
                      </rate>
                      <duration>144</duration>
                      <timecode>
                        <rate>
                          <timebase>24</timebase>
                          <ntsc>FALSE</ntsc>
                        </rate>
                      </timecode>
                      <media>
                        <video>
                          <duration>1</duration>
                          <samplecharacteristics>
                            <anamorphic>FALSE</anamorphic>
                            <pixelaspectratio>square</pixelaspectratio>
                            <fielddominance>none</fielddominance>
                            <width>686</width>
                            <height>510</height>
                          </samplecharacteristics>
                        </video>
                      </media>
                    </file>
                  </clipitem>
                </track>
              </video>
            </media>
          </clip>
          <clip explodedTracks="true" frameBlend="FALSE" id="masterclip-133">
            <uuid>fabb8b2f-2512-46a4-b699-35e1d853b23a</uuid>
            <masterclipid>masterclip-133</masterclipid>
            <ismasterclip>TRUE</ismasterclip>
            <duration>144</duration>
            <in>0</in>
            <out>144</out>
            <name>Luca.131.png</name>
            <rate>
              <timebase>24</timebase>
              <ntsc>FALSE</ntsc>
            </rate>
            <media>
              <video>
                <track>
                  <clipitem frameBlend="FALSE" id="clipitem-134">
                    <name>Luca.131.png</name>
                    <masterclipid>masterclip-133</masterclipid>
                    <rate>
                      <timebase>24</timebase>
                      <ntsc>FALSE</ntsc>
                    </rate>
                    <alphatype>straight</alphatype>
                    <pixelaspectratio>square</pixelaspectratio>
                    <anamorphic>FALSE</anamorphic>
                    <file id="file-133">
                      <name>Luca.131.png</name>
                      <pathurl>file://localhost/Users/antoniochiappetta/OneDrive - Aalto University/University/Aalto/Hackatons/Junction/Junction2019-IoK-security_awareness_kids/Assets/Team Animations/Image Sequences/Luca/Luca.131.png</pathurl>
                      <rate>
                        <timebase>24</timebase>
                        <ntsc>FALSE</ntsc>
                      </rate>
                      <duration>144</duration>
                      <timecode>
                        <rate>
                          <timebase>24</timebase>
                          <ntsc>FALSE</ntsc>
                        </rate>
                      </timecode>
                      <media>
                        <video>
                          <duration>1</duration>
                          <samplecharacteristics>
                            <anamorphic>FALSE</anamorphic>
                            <pixelaspectratio>square</pixelaspectratio>
                            <fielddominance>none</fielddominance>
                            <width>686</width>
                            <height>510</height>
                          </samplecharacteristics>
                        </video>
                      </media>
                    </file>
                  </clipitem>
                </track>
              </video>
            </media>
          </clip>
          <clip explodedTracks="true" frameBlend="FALSE" id="masterclip-134">
            <uuid>588419b4-6865-4d04-aff4-479b3d1134c5</uuid>
            <masterclipid>masterclip-134</masterclipid>
            <ismasterclip>TRUE</ismasterclip>
            <duration>144</duration>
            <in>0</in>
            <out>144</out>
            <name>Luca.132.png</name>
            <rate>
              <timebase>24</timebase>
              <ntsc>FALSE</ntsc>
            </rate>
            <media>
              <video>
                <track>
                  <clipitem frameBlend="FALSE" id="clipitem-135">
                    <name>Luca.132.png</name>
                    <masterclipid>masterclip-134</masterclipid>
                    <rate>
                      <timebase>24</timebase>
                      <ntsc>FALSE</ntsc>
                    </rate>
                    <alphatype>straight</alphatype>
                    <pixelaspectratio>square</pixelaspectratio>
                    <anamorphic>FALSE</anamorphic>
                    <file id="file-134">
                      <name>Luca.132.png</name>
                      <pathurl>file://localhost/Users/antoniochiappetta/OneDrive - Aalto University/University/Aalto/Hackatons/Junction/Junction2019-IoK-security_awareness_kids/Assets/Team Animations/Image Sequences/Luca/Luca.132.png</pathurl>
                      <rate>
                        <timebase>24</timebase>
                        <ntsc>FALSE</ntsc>
                      </rate>
                      <duration>144</duration>
                      <timecode>
                        <rate>
                          <timebase>24</timebase>
                          <ntsc>FALSE</ntsc>
                        </rate>
                      </timecode>
                      <media>
                        <video>
                          <duration>1</duration>
                          <samplecharacteristics>
                            <anamorphic>FALSE</anamorphic>
                            <pixelaspectratio>square</pixelaspectratio>
                            <fielddominance>none</fielddominance>
                            <width>686</width>
                            <height>510</height>
                          </samplecharacteristics>
                        </video>
                      </media>
                    </file>
                  </clipitem>
                </track>
              </video>
            </media>
          </clip>
          <clip explodedTracks="true" frameBlend="FALSE" id="masterclip-135">
            <uuid>9afdf77e-1369-4d36-87bc-b936a94e372d</uuid>
            <masterclipid>masterclip-135</masterclipid>
            <ismasterclip>TRUE</ismasterclip>
            <duration>144</duration>
            <in>0</in>
            <out>144</out>
            <name>Luca.133.png</name>
            <rate>
              <timebase>24</timebase>
              <ntsc>FALSE</ntsc>
            </rate>
            <media>
              <video>
                <track>
                  <clipitem frameBlend="FALSE" id="clipitem-136">
                    <name>Luca.133.png</name>
                    <masterclipid>masterclip-135</masterclipid>
                    <rate>
                      <timebase>24</timebase>
                      <ntsc>FALSE</ntsc>
                    </rate>
                    <alphatype>straight</alphatype>
                    <pixelaspectratio>square</pixelaspectratio>
                    <anamorphic>FALSE</anamorphic>
                    <file id="file-135">
                      <name>Luca.133.png</name>
                      <pathurl>file://localhost/Users/antoniochiappetta/OneDrive - Aalto University/University/Aalto/Hackatons/Junction/Junction2019-IoK-security_awareness_kids/Assets/Team Animations/Image Sequences/Luca/Luca.133.png</pathurl>
                      <rate>
                        <timebase>24</timebase>
                        <ntsc>FALSE</ntsc>
                      </rate>
                      <duration>144</duration>
                      <timecode>
                        <rate>
                          <timebase>24</timebase>
                          <ntsc>FALSE</ntsc>
                        </rate>
                      </timecode>
                      <media>
                        <video>
                          <duration>1</duration>
                          <samplecharacteristics>
                            <anamorphic>FALSE</anamorphic>
                            <pixelaspectratio>square</pixelaspectratio>
                            <fielddominance>none</fielddominance>
                            <width>686</width>
                            <height>510</height>
                          </samplecharacteristics>
                        </video>
                      </media>
                    </file>
                  </clipitem>
                </track>
              </video>
            </media>
          </clip>
          <clip explodedTracks="true" frameBlend="FALSE" id="masterclip-136">
            <uuid>47a903aa-f3d7-40f3-93e0-7f14f063f19c</uuid>
            <masterclipid>masterclip-136</masterclipid>
            <ismasterclip>TRUE</ismasterclip>
            <duration>144</duration>
            <in>0</in>
            <out>144</out>
            <name>Luca.134.png</name>
            <rate>
              <timebase>24</timebase>
              <ntsc>FALSE</ntsc>
            </rate>
            <media>
              <video>
                <track>
                  <clipitem frameBlend="FALSE" id="clipitem-137">
                    <name>Luca.134.png</name>
                    <masterclipid>masterclip-136</masterclipid>
                    <rate>
                      <timebase>24</timebase>
                      <ntsc>FALSE</ntsc>
                    </rate>
                    <alphatype>straight</alphatype>
                    <pixelaspectratio>square</pixelaspectratio>
                    <anamorphic>FALSE</anamorphic>
                    <file id="file-136">
                      <name>Luca.134.png</name>
                      <pathurl>file://localhost/Users/antoniochiappetta/OneDrive - Aalto University/University/Aalto/Hackatons/Junction/Junction2019-IoK-security_awareness_kids/Assets/Team Animations/Image Sequences/Luca/Luca.134.png</pathurl>
                      <rate>
                        <timebase>24</timebase>
                        <ntsc>FALSE</ntsc>
                      </rate>
                      <duration>144</duration>
                      <timecode>
                        <rate>
                          <timebase>24</timebase>
                          <ntsc>FALSE</ntsc>
                        </rate>
                      </timecode>
                      <media>
                        <video>
                          <duration>1</duration>
                          <samplecharacteristics>
                            <anamorphic>FALSE</anamorphic>
                            <pixelaspectratio>square</pixelaspectratio>
                            <fielddominance>none</fielddominance>
                            <width>686</width>
                            <height>510</height>
                          </samplecharacteristics>
                        </video>
                      </media>
                    </file>
                  </clipitem>
                </track>
              </video>
            </media>
          </clip>
          <clip explodedTracks="true" frameBlend="FALSE" id="masterclip-137">
            <uuid>7cafbe00-b429-4377-8cf9-a12617d055ce</uuid>
            <masterclipid>masterclip-137</masterclipid>
            <ismasterclip>TRUE</ismasterclip>
            <duration>144</duration>
            <in>0</in>
            <out>144</out>
            <name>Luca.135.png</name>
            <rate>
              <timebase>24</timebase>
              <ntsc>FALSE</ntsc>
            </rate>
            <media>
              <video>
                <track>
                  <clipitem frameBlend="FALSE" id="clipitem-138">
                    <name>Luca.135.png</name>
                    <masterclipid>masterclip-137</masterclipid>
                    <rate>
                      <timebase>24</timebase>
                      <ntsc>FALSE</ntsc>
                    </rate>
                    <alphatype>straight</alphatype>
                    <pixelaspectratio>square</pixelaspectratio>
                    <anamorphic>FALSE</anamorphic>
                    <file id="file-137">
                      <name>Luca.135.png</name>
                      <pathurl>file://localhost/Users/antoniochiappetta/OneDrive - Aalto University/University/Aalto/Hackatons/Junction/Junction2019-IoK-security_awareness_kids/Assets/Team Animations/Image Sequences/Luca/Luca.135.png</pathurl>
                      <rate>
                        <timebase>24</timebase>
                        <ntsc>FALSE</ntsc>
                      </rate>
                      <duration>144</duration>
                      <timecode>
                        <rate>
                          <timebase>24</timebase>
                          <ntsc>FALSE</ntsc>
                        </rate>
                      </timecode>
                      <media>
                        <video>
                          <duration>1</duration>
                          <samplecharacteristics>
                            <anamorphic>FALSE</anamorphic>
                            <pixelaspectratio>square</pixelaspectratio>
                            <fielddominance>none</fielddominance>
                            <width>686</width>
                            <height>510</height>
                          </samplecharacteristics>
                        </video>
                      </media>
                    </file>
                  </clipitem>
                </track>
              </video>
            </media>
          </clip>
          <clip explodedTracks="true" frameBlend="FALSE" id="masterclip-138">
            <uuid>745a5496-7f7d-4907-a9a9-c25bba2aac73</uuid>
            <masterclipid>masterclip-138</masterclipid>
            <ismasterclip>TRUE</ismasterclip>
            <duration>144</duration>
            <in>0</in>
            <out>144</out>
            <name>Luca.136.png</name>
            <rate>
              <timebase>24</timebase>
              <ntsc>FALSE</ntsc>
            </rate>
            <media>
              <video>
                <track>
                  <clipitem frameBlend="FALSE" id="clipitem-139">
                    <name>Luca.136.png</name>
                    <masterclipid>masterclip-138</masterclipid>
                    <rate>
                      <timebase>24</timebase>
                      <ntsc>FALSE</ntsc>
                    </rate>
                    <alphatype>straight</alphatype>
                    <pixelaspectratio>square</pixelaspectratio>
                    <anamorphic>FALSE</anamorphic>
                    <file id="file-138">
                      <name>Luca.136.png</name>
                      <pathurl>file://localhost/Users/antoniochiappetta/OneDrive - Aalto University/University/Aalto/Hackatons/Junction/Junction2019-IoK-security_awareness_kids/Assets/Team Animations/Image Sequences/Luca/Luca.136.png</pathurl>
                      <rate>
                        <timebase>24</timebase>
                        <ntsc>FALSE</ntsc>
                      </rate>
                      <duration>144</duration>
                      <timecode>
                        <rate>
                          <timebase>24</timebase>
                          <ntsc>FALSE</ntsc>
                        </rate>
                      </timecode>
                      <media>
                        <video>
                          <duration>1</duration>
                          <samplecharacteristics>
                            <anamorphic>FALSE</anamorphic>
                            <pixelaspectratio>square</pixelaspectratio>
                            <fielddominance>none</fielddominance>
                            <width>686</width>
                            <height>510</height>
                          </samplecharacteristics>
                        </video>
                      </media>
                    </file>
                  </clipitem>
                </track>
              </video>
            </media>
          </clip>
          <clip explodedTracks="true" frameBlend="FALSE" id="masterclip-139">
            <uuid>dd2e0198-fbaa-4d65-9af1-d9d5996f12d5</uuid>
            <masterclipid>masterclip-139</masterclipid>
            <ismasterclip>TRUE</ismasterclip>
            <duration>144</duration>
            <in>0</in>
            <out>144</out>
            <name>Luca.137.png</name>
            <rate>
              <timebase>24</timebase>
              <ntsc>FALSE</ntsc>
            </rate>
            <media>
              <video>
                <track>
                  <clipitem frameBlend="FALSE" id="clipitem-140">
                    <name>Luca.137.png</name>
                    <masterclipid>masterclip-139</masterclipid>
                    <rate>
                      <timebase>24</timebase>
                      <ntsc>FALSE</ntsc>
                    </rate>
                    <alphatype>straight</alphatype>
                    <pixelaspectratio>square</pixelaspectratio>
                    <anamorphic>FALSE</anamorphic>
                    <file id="file-139">
                      <name>Luca.137.png</name>
                      <pathurl>file://localhost/Users/antoniochiappetta/OneDrive - Aalto University/University/Aalto/Hackatons/Junction/Junction2019-IoK-security_awareness_kids/Assets/Team Animations/Image Sequences/Luca/Luca.137.png</pathurl>
                      <rate>
                        <timebase>24</timebase>
                        <ntsc>FALSE</ntsc>
                      </rate>
                      <duration>144</duration>
                      <timecode>
                        <rate>
                          <timebase>24</timebase>
                          <ntsc>FALSE</ntsc>
                        </rate>
                      </timecode>
                      <media>
                        <video>
                          <duration>1</duration>
                          <samplecharacteristics>
                            <anamorphic>FALSE</anamorphic>
                            <pixelaspectratio>square</pixelaspectratio>
                            <fielddominance>none</fielddominance>
                            <width>686</width>
                            <height>510</height>
                          </samplecharacteristics>
                        </video>
                      </media>
                    </file>
                  </clipitem>
                </track>
              </video>
            </media>
          </clip>
          <clip explodedTracks="true" frameBlend="FALSE" id="masterclip-140">
            <uuid>bb9764f4-7168-4859-b3b2-bc8e31057205</uuid>
            <masterclipid>masterclip-140</masterclipid>
            <ismasterclip>TRUE</ismasterclip>
            <duration>144</duration>
            <in>0</in>
            <out>144</out>
            <name>Luca.138.png</name>
            <rate>
              <timebase>24</timebase>
              <ntsc>FALSE</ntsc>
            </rate>
            <media>
              <video>
                <track>
                  <clipitem frameBlend="FALSE" id="clipitem-141">
                    <name>Luca.138.png</name>
                    <masterclipid>masterclip-140</masterclipid>
                    <rate>
                      <timebase>24</timebase>
                      <ntsc>FALSE</ntsc>
                    </rate>
                    <alphatype>straight</alphatype>
                    <pixelaspectratio>square</pixelaspectratio>
                    <anamorphic>FALSE</anamorphic>
                    <file id="file-140">
                      <name>Luca.138.png</name>
                      <pathurl>file://localhost/Users/antoniochiappetta/OneDrive - Aalto University/University/Aalto/Hackatons/Junction/Junction2019-IoK-security_awareness_kids/Assets/Team Animations/Image Sequences/Luca/Luca.138.png</pathurl>
                      <rate>
                        <timebase>24</timebase>
                        <ntsc>FALSE</ntsc>
                      </rate>
                      <duration>144</duration>
                      <timecode>
                        <rate>
                          <timebase>24</timebase>
                          <ntsc>FALSE</ntsc>
                        </rate>
                      </timecode>
                      <media>
                        <video>
                          <duration>1</duration>
                          <samplecharacteristics>
                            <anamorphic>FALSE</anamorphic>
                            <pixelaspectratio>square</pixelaspectratio>
                            <fielddominance>none</fielddominance>
                            <width>686</width>
                            <height>510</height>
                          </samplecharacteristics>
                        </video>
                      </media>
                    </file>
                  </clipitem>
                </track>
              </video>
            </media>
          </clip>
          <clip explodedTracks="true" frameBlend="FALSE" id="masterclip-141">
            <uuid>c7abc298-cda2-4f15-9c67-f3e6e543e6ea</uuid>
            <masterclipid>masterclip-141</masterclipid>
            <ismasterclip>TRUE</ismasterclip>
            <duration>144</duration>
            <in>0</in>
            <out>144</out>
            <name>Luca.139.png</name>
            <rate>
              <timebase>24</timebase>
              <ntsc>FALSE</ntsc>
            </rate>
            <media>
              <video>
                <track>
                  <clipitem frameBlend="FALSE" id="clipitem-142">
                    <name>Luca.139.png</name>
                    <masterclipid>masterclip-141</masterclipid>
                    <rate>
                      <timebase>24</timebase>
                      <ntsc>FALSE</ntsc>
                    </rate>
                    <alphatype>straight</alphatype>
                    <pixelaspectratio>square</pixelaspectratio>
                    <anamorphic>FALSE</anamorphic>
                    <file id="file-141">
                      <name>Luca.139.png</name>
                      <pathurl>file://localhost/Users/antoniochiappetta/OneDrive - Aalto University/University/Aalto/Hackatons/Junction/Junction2019-IoK-security_awareness_kids/Assets/Team Animations/Image Sequences/Luca/Luca.139.png</pathurl>
                      <rate>
                        <timebase>24</timebase>
                        <ntsc>FALSE</ntsc>
                      </rate>
                      <duration>144</duration>
                      <timecode>
                        <rate>
                          <timebase>24</timebase>
                          <ntsc>FALSE</ntsc>
                        </rate>
                      </timecode>
                      <media>
                        <video>
                          <duration>1</duration>
                          <samplecharacteristics>
                            <anamorphic>FALSE</anamorphic>
                            <pixelaspectratio>square</pixelaspectratio>
                            <fielddominance>none</fielddominance>
                            <width>686</width>
                            <height>510</height>
                          </samplecharacteristics>
                        </video>
                      </media>
                    </file>
                  </clipitem>
                </track>
              </video>
            </media>
          </clip>
          <clip explodedTracks="true" frameBlend="FALSE" id="masterclip-142">
            <uuid>87714b0c-7a4c-4662-b893-0a94b805688c</uuid>
            <masterclipid>masterclip-142</masterclipid>
            <ismasterclip>TRUE</ismasterclip>
            <duration>144</duration>
            <in>0</in>
            <out>144</out>
            <name>Luca.140.png</name>
            <rate>
              <timebase>24</timebase>
              <ntsc>FALSE</ntsc>
            </rate>
            <media>
              <video>
                <track>
                  <clipitem frameBlend="FALSE" id="clipitem-143">
                    <name>Luca.140.png</name>
                    <masterclipid>masterclip-142</masterclipid>
                    <rate>
                      <timebase>24</timebase>
                      <ntsc>FALSE</ntsc>
                    </rate>
                    <alphatype>straight</alphatype>
                    <pixelaspectratio>square</pixelaspectratio>
                    <anamorphic>FALSE</anamorphic>
                    <file id="file-142">
                      <name>Luca.140.png</name>
                      <pathurl>file://localhost/Users/antoniochiappetta/OneDrive - Aalto University/University/Aalto/Hackatons/Junction/Junction2019-IoK-security_awareness_kids/Assets/Team Animations/Image Sequences/Luca/Luca.140.png</pathurl>
                      <rate>
                        <timebase>24</timebase>
                        <ntsc>FALSE</ntsc>
                      </rate>
                      <duration>144</duration>
                      <timecode>
                        <rate>
                          <timebase>24</timebase>
                          <ntsc>FALSE</ntsc>
                        </rate>
                      </timecode>
                      <media>
                        <video>
                          <duration>1</duration>
                          <samplecharacteristics>
                            <anamorphic>FALSE</anamorphic>
                            <pixelaspectratio>square</pixelaspectratio>
                            <fielddominance>none</fielddominance>
                            <width>686</width>
                            <height>510</height>
                          </samplecharacteristics>
                        </video>
                      </media>
                    </file>
                  </clipitem>
                </track>
              </video>
            </media>
          </clip>
          <clip explodedTracks="true" frameBlend="FALSE" id="masterclip-143">
            <uuid>74babe19-e281-4f86-a68a-723df904c190</uuid>
            <masterclipid>masterclip-143</masterclipid>
            <ismasterclip>TRUE</ismasterclip>
            <duration>144</duration>
            <in>0</in>
            <out>144</out>
            <name>Luca.141.png</name>
            <rate>
              <timebase>24</timebase>
              <ntsc>FALSE</ntsc>
            </rate>
            <media>
              <video>
                <track>
                  <clipitem frameBlend="FALSE" id="clipitem-144">
                    <name>Luca.141.png</name>
                    <masterclipid>masterclip-143</masterclipid>
                    <rate>
                      <timebase>24</timebase>
                      <ntsc>FALSE</ntsc>
                    </rate>
                    <alphatype>straight</alphatype>
                    <pixelaspectratio>square</pixelaspectratio>
                    <anamorphic>FALSE</anamorphic>
                    <file id="file-143">
                      <name>Luca.141.png</name>
                      <pathurl>file://localhost/Users/antoniochiappetta/OneDrive - Aalto University/University/Aalto/Hackatons/Junction/Junction2019-IoK-security_awareness_kids/Assets/Team Animations/Image Sequences/Luca/Luca.141.png</pathurl>
                      <rate>
                        <timebase>24</timebase>
                        <ntsc>FALSE</ntsc>
                      </rate>
                      <duration>144</duration>
                      <timecode>
                        <rate>
                          <timebase>24</timebase>
                          <ntsc>FALSE</ntsc>
                        </rate>
                      </timecode>
                      <media>
                        <video>
                          <duration>1</duration>
                          <samplecharacteristics>
                            <anamorphic>FALSE</anamorphic>
                            <pixelaspectratio>square</pixelaspectratio>
                            <fielddominance>none</fielddominance>
                            <width>686</width>
                            <height>510</height>
                          </samplecharacteristics>
                        </video>
                      </media>
                    </file>
                  </clipitem>
                </track>
              </video>
            </media>
          </clip>
          <clip explodedTracks="true" frameBlend="FALSE" id="masterclip-144">
            <uuid>13b1dc53-93b3-4d70-bb62-3f1d22d1e977</uuid>
            <masterclipid>masterclip-144</masterclipid>
            <ismasterclip>TRUE</ismasterclip>
            <duration>144</duration>
            <in>0</in>
            <out>144</out>
            <name>Luca.142.png</name>
            <rate>
              <timebase>24</timebase>
              <ntsc>FALSE</ntsc>
            </rate>
            <media>
              <video>
                <track>
                  <clipitem frameBlend="FALSE" id="clipitem-145">
                    <name>Luca.142.png</name>
                    <masterclipid>masterclip-144</masterclipid>
                    <rate>
                      <timebase>24</timebase>
                      <ntsc>FALSE</ntsc>
                    </rate>
                    <alphatype>straight</alphatype>
                    <pixelaspectratio>square</pixelaspectratio>
                    <anamorphic>FALSE</anamorphic>
                    <file id="file-144">
                      <name>Luca.142.png</name>
                      <pathurl>file://localhost/Users/antoniochiappetta/OneDrive - Aalto University/University/Aalto/Hackatons/Junction/Junction2019-IoK-security_awareness_kids/Assets/Team Animations/Image Sequences/Luca/Luca.142.png</pathurl>
                      <rate>
                        <timebase>24</timebase>
                        <ntsc>FALSE</ntsc>
                      </rate>
                      <duration>144</duration>
                      <timecode>
                        <rate>
                          <timebase>24</timebase>
                          <ntsc>FALSE</ntsc>
                        </rate>
                      </timecode>
                      <media>
                        <video>
                          <duration>1</duration>
                          <samplecharacteristics>
                            <anamorphic>FALSE</anamorphic>
                            <pixelaspectratio>square</pixelaspectratio>
                            <fielddominance>none</fielddominance>
                            <width>686</width>
                            <height>510</height>
                          </samplecharacteristics>
                        </video>
                      </media>
                    </file>
                  </clipitem>
                </track>
              </video>
            </media>
          </clip>
          <clip explodedTracks="true" frameBlend="FALSE" id="masterclip-145">
            <uuid>bcb80ff1-26fc-4406-aea9-ef80a6d02e06</uuid>
            <masterclipid>masterclip-145</masterclipid>
            <ismasterclip>TRUE</ismasterclip>
            <duration>144</duration>
            <in>0</in>
            <out>144</out>
            <name>Luca.143.png</name>
            <rate>
              <timebase>24</timebase>
              <ntsc>FALSE</ntsc>
            </rate>
            <media>
              <video>
                <track>
                  <clipitem frameBlend="FALSE" id="clipitem-146">
                    <name>Luca.143.png</name>
                    <masterclipid>masterclip-145</masterclipid>
                    <rate>
                      <timebase>24</timebase>
                      <ntsc>FALSE</ntsc>
                    </rate>
                    <alphatype>straight</alphatype>
                    <pixelaspectratio>square</pixelaspectratio>
                    <anamorphic>FALSE</anamorphic>
                    <file id="file-145">
                      <name>Luca.143.png</name>
                      <pathurl>file://localhost/Users/antoniochiappetta/OneDrive - Aalto University/University/Aalto/Hackatons/Junction/Junction2019-IoK-security_awareness_kids/Assets/Team Animations/Image Sequences/Luca/Luca.143.png</pathurl>
                      <rate>
                        <timebase>24</timebase>
                        <ntsc>FALSE</ntsc>
                      </rate>
                      <duration>144</duration>
                      <timecode>
                        <rate>
                          <timebase>24</timebase>
                          <ntsc>FALSE</ntsc>
                        </rate>
                      </timecode>
                      <media>
                        <video>
                          <duration>1</duration>
                          <samplecharacteristics>
                            <anamorphic>FALSE</anamorphic>
                            <pixelaspectratio>square</pixelaspectratio>
                            <fielddominance>none</fielddominance>
                            <width>686</width>
                            <height>510</height>
                          </samplecharacteristics>
                        </video>
                      </media>
                    </file>
                  </clipitem>
                </track>
              </video>
            </media>
          </clip>
        </children>
      </bin>
    </children>
  </project>

</xmeml>
