<?xml version="1.0" encoding="UTF-8" standalone="yes" ?>
<!DOCTYPE xmeml>
<xmeml version="4">

  <project>
    <name>Mike</name>
    <children>
      <sequence MZ.Sequence.EditingModeGUID="35d109db-457b-43c1-9452-9cb7be9f121c" explodedTracks="true" id="sequence-1">
        <uuid>6f267f61-339d-4dc5-b980-048c6526c0dc</uuid>
        <duration>139</duration>
        <rate>
          <timebase>24</timebase>
          <ntsc>FALSE</ntsc>
        </rate>
        <name>Mike</name>
        <media>
          <video>
            <track>
              <clipitem frameBlend="FALSE" id="clipitem-142">
                <name>Mike.000.png</name>
                <masterclipid>masterclip-2</masterclipid>
                <rate>
                  <timebase>24</timebase>
                  <ntsc>FALSE</ntsc>
                </rate>
                <duration>1</duration>
                <enabled>TRUE</enabled>
                <alphatype>straight</alphatype>
                <rate>
                  <timebase>24</timebase>
                  <ntsc>FALSE</ntsc>
                </rate>
                <enabled>TRUE</enabled>
                <start>0</start>
                <end>1</end>
                <file id="file-2"/>
              </clipitem>
              <clipitem frameBlend="FALSE" id="clipitem-143">
                <name>Mike.001.png</name>
                <masterclipid>masterclip-3</masterclipid>
                <rate>
                  <timebase>24</timebase>
                  <ntsc>FALSE</ntsc>
                </rate>
                <duration>1</duration>
                <enabled>TRUE</enabled>
                <alphatype>straight</alphatype>
                <rate>
                  <timebase>24</timebase>
                  <ntsc>FALSE</ntsc>
                </rate>
                <enabled>TRUE</enabled>
                <start>1</start>
                <end>2</end>
                <file id="file-3"/>
              </clipitem>
              <clipitem frameBlend="FALSE" id="clipitem-144">
                <name>Mike.002.png</name>
                <masterclipid>masterclip-4</masterclipid>
                <rate>
                  <timebase>24</timebase>
                  <ntsc>FALSE</ntsc>
                </rate>
                <duration>1</duration>
                <enabled>TRUE</enabled>
                <alphatype>straight</alphatype>
                <rate>
                  <timebase>24</timebase>
                  <ntsc>FALSE</ntsc>
                </rate>
                <enabled>TRUE</enabled>
                <start>2</start>
                <end>3</end>
                <file id="file-4"/>
              </clipitem>
              <clipitem frameBlend="FALSE" id="clipitem-145">
                <name>Mike.003.png</name>
                <masterclipid>masterclip-5</masterclipid>
                <rate>
                  <timebase>24</timebase>
                  <ntsc>FALSE</ntsc>
                </rate>
                <duration>1</duration>
                <enabled>TRUE</enabled>
                <alphatype>straight</alphatype>
                <rate>
                  <timebase>24</timebase>
                  <ntsc>FALSE</ntsc>
                </rate>
                <enabled>TRUE</enabled>
                <start>3</start>
                <end>4</end>
                <file id="file-5"/>
              </clipitem>
              <clipitem frameBlend="FALSE" id="clipitem-146">
                <name>Mike.004.png</name>
                <masterclipid>masterclip-6</masterclipid>
                <rate>
                  <timebase>24</timebase>
                  <ntsc>FALSE</ntsc>
                </rate>
                <duration>1</duration>
                <enabled>TRUE</enabled>
                <alphatype>straight</alphatype>
                <rate>
                  <timebase>24</timebase>
                  <ntsc>FALSE</ntsc>
                </rate>
                <enabled>TRUE</enabled>
                <start>4</start>
                <end>5</end>
                <file id="file-6"/>
              </clipitem>
              <clipitem frameBlend="FALSE" id="clipitem-147">
                <name>Mike.005.png</name>
                <masterclipid>masterclip-7</masterclipid>
                <rate>
                  <timebase>24</timebase>
                  <ntsc>FALSE</ntsc>
                </rate>
                <duration>1</duration>
                <enabled>TRUE</enabled>
                <alphatype>straight</alphatype>
                <rate>
                  <timebase>24</timebase>
                  <ntsc>FALSE</ntsc>
                </rate>
                <enabled>TRUE</enabled>
                <start>5</start>
                <end>6</end>
                <file id="file-7"/>
              </clipitem>
              <clipitem frameBlend="FALSE" id="clipitem-148">
                <name>Mike.006.png</name>
                <masterclipid>masterclip-8</masterclipid>
                <rate>
                  <timebase>24</timebase>
                  <ntsc>FALSE</ntsc>
                </rate>
                <duration>1</duration>
                <enabled>TRUE</enabled>
                <alphatype>straight</alphatype>
                <rate>
                  <timebase>24</timebase>
                  <ntsc>FALSE</ntsc>
                </rate>
                <enabled>TRUE</enabled>
                <start>6</start>
                <end>7</end>
                <file id="file-8"/>
              </clipitem>
              <clipitem frameBlend="FALSE" id="clipitem-149">
                <name>Mike.007.png</name>
                <masterclipid>masterclip-9</masterclipid>
                <rate>
                  <timebase>24</timebase>
                  <ntsc>FALSE</ntsc>
                </rate>
                <duration>1</duration>
                <enabled>TRUE</enabled>
                <alphatype>straight</alphatype>
                <rate>
                  <timebase>24</timebase>
                  <ntsc>FALSE</ntsc>
                </rate>
                <enabled>TRUE</enabled>
                <start>7</start>
                <end>8</end>
                <file id="file-9"/>
              </clipitem>
              <clipitem frameBlend="FALSE" id="clipitem-150">
                <name>Mike.008.png</name>
                <masterclipid>masterclip-10</masterclipid>
                <rate>
                  <timebase>24</timebase>
                  <ntsc>FALSE</ntsc>
                </rate>
                <duration>1</duration>
                <enabled>TRUE</enabled>
                <alphatype>straight</alphatype>
                <rate>
                  <timebase>24</timebase>
                  <ntsc>FALSE</ntsc>
                </rate>
                <enabled>TRUE</enabled>
                <start>8</start>
                <end>9</end>
                <file id="file-10"/>
              </clipitem>
              <clipitem frameBlend="FALSE" id="clipitem-151">
                <name>Mike.009.png</name>
                <masterclipid>masterclip-11</masterclipid>
                <rate>
                  <timebase>24</timebase>
                  <ntsc>FALSE</ntsc>
                </rate>
                <duration>1</duration>
                <enabled>TRUE</enabled>
                <alphatype>straight</alphatype>
                <rate>
                  <timebase>24</timebase>
                  <ntsc>FALSE</ntsc>
                </rate>
                <enabled>TRUE</enabled>
                <start>9</start>
                <end>10</end>
                <file id="file-11"/>
              </clipitem>
              <clipitem frameBlend="FALSE" id="clipitem-152">
                <name>Mike.010.png</name>
                <masterclipid>masterclip-12</masterclipid>
                <rate>
                  <timebase>24</timebase>
                  <ntsc>FALSE</ntsc>
                </rate>
                <duration>1</duration>
                <enabled>TRUE</enabled>
                <alphatype>straight</alphatype>
                <rate>
                  <timebase>24</timebase>
                  <ntsc>FALSE</ntsc>
                </rate>
                <enabled>TRUE</enabled>
                <start>10</start>
                <end>11</end>
                <file id="file-12"/>
              </clipitem>
              <clipitem frameBlend="FALSE" id="clipitem-153">
                <name>Mike.011.png</name>
                <masterclipid>masterclip-13</masterclipid>
                <rate>
                  <timebase>24</timebase>
                  <ntsc>FALSE</ntsc>
                </rate>
                <duration>1</duration>
                <enabled>TRUE</enabled>
                <alphatype>straight</alphatype>
                <rate>
                  <timebase>24</timebase>
                  <ntsc>FALSE</ntsc>
                </rate>
                <enabled>TRUE</enabled>
                <start>11</start>
                <end>12</end>
                <file id="file-13"/>
              </clipitem>
              <clipitem frameBlend="FALSE" id="clipitem-154">
                <name>Mike.012.png</name>
                <masterclipid>masterclip-14</masterclipid>
                <rate>
                  <timebase>24</timebase>
                  <ntsc>FALSE</ntsc>
                </rate>
                <duration>1</duration>
                <enabled>TRUE</enabled>
                <alphatype>straight</alphatype>
                <rate>
                  <timebase>24</timebase>
                  <ntsc>FALSE</ntsc>
                </rate>
                <enabled>TRUE</enabled>
                <start>12</start>
                <end>13</end>
                <file id="file-14"/>
              </clipitem>
              <clipitem frameBlend="FALSE" id="clipitem-155">
                <name>Mike.013.png</name>
                <masterclipid>masterclip-15</masterclipid>
                <rate>
                  <timebase>24</timebase>
                  <ntsc>FALSE</ntsc>
                </rate>
                <duration>1</duration>
                <enabled>TRUE</enabled>
                <alphatype>straight</alphatype>
                <rate>
                  <timebase>24</timebase>
                  <ntsc>FALSE</ntsc>
                </rate>
                <enabled>TRUE</enabled>
                <start>13</start>
                <end>14</end>
                <file id="file-15"/>
              </clipitem>
              <clipitem frameBlend="FALSE" id="clipitem-156">
                <name>Mike.014.png</name>
                <masterclipid>masterclip-16</masterclipid>
                <rate>
                  <timebase>24</timebase>
                  <ntsc>FALSE</ntsc>
                </rate>
                <duration>1</duration>
                <enabled>TRUE</enabled>
                <alphatype>straight</alphatype>
                <rate>
                  <timebase>24</timebase>
                  <ntsc>FALSE</ntsc>
                </rate>
                <enabled>TRUE</enabled>
                <start>14</start>
                <end>15</end>
                <file id="file-16"/>
              </clipitem>
              <clipitem frameBlend="FALSE" id="clipitem-157">
                <name>Mike.015.png</name>
                <masterclipid>masterclip-17</masterclipid>
                <rate>
                  <timebase>24</timebase>
                  <ntsc>FALSE</ntsc>
                </rate>
                <duration>1</duration>
                <enabled>TRUE</enabled>
                <alphatype>straight</alphatype>
                <rate>
                  <timebase>24</timebase>
                  <ntsc>FALSE</ntsc>
                </rate>
                <enabled>TRUE</enabled>
                <start>15</start>
                <end>16</end>
                <file id="file-17"/>
              </clipitem>
              <clipitem frameBlend="FALSE" id="clipitem-158">
                <name>Mike.016.png</name>
                <masterclipid>masterclip-18</masterclipid>
                <rate>
                  <timebase>24</timebase>
                  <ntsc>FALSE</ntsc>
                </rate>
                <duration>1</duration>
                <enabled>TRUE</enabled>
                <alphatype>straight</alphatype>
                <rate>
                  <timebase>24</timebase>
                  <ntsc>FALSE</ntsc>
                </rate>
                <enabled>TRUE</enabled>
                <start>16</start>
                <end>17</end>
                <file id="file-18"/>
              </clipitem>
              <clipitem frameBlend="FALSE" id="clipitem-159">
                <name>Mike.017.png</name>
                <masterclipid>masterclip-19</masterclipid>
                <rate>
                  <timebase>24</timebase>
                  <ntsc>FALSE</ntsc>
                </rate>
                <duration>1</duration>
                <enabled>TRUE</enabled>
                <alphatype>straight</alphatype>
                <rate>
                  <timebase>24</timebase>
                  <ntsc>FALSE</ntsc>
                </rate>
                <enabled>TRUE</enabled>
                <start>17</start>
                <end>18</end>
                <file id="file-19"/>
              </clipitem>
              <clipitem frameBlend="FALSE" id="clipitem-160">
                <name>Mike.018.png</name>
                <masterclipid>masterclip-20</masterclipid>
                <rate>
                  <timebase>24</timebase>
                  <ntsc>FALSE</ntsc>
                </rate>
                <duration>1</duration>
                <enabled>TRUE</enabled>
                <alphatype>straight</alphatype>
                <rate>
                  <timebase>24</timebase>
                  <ntsc>FALSE</ntsc>
                </rate>
                <enabled>TRUE</enabled>
                <start>18</start>
                <end>19</end>
                <file id="file-20"/>
              </clipitem>
              <clipitem frameBlend="FALSE" id="clipitem-161">
                <name>Mike.019.png</name>
                <masterclipid>masterclip-21</masterclipid>
                <rate>
                  <timebase>24</timebase>
                  <ntsc>FALSE</ntsc>
                </rate>
                <duration>1</duration>
                <enabled>TRUE</enabled>
                <alphatype>straight</alphatype>
                <rate>
                  <timebase>24</timebase>
                  <ntsc>FALSE</ntsc>
                </rate>
                <enabled>TRUE</enabled>
                <start>19</start>
                <end>20</end>
                <file id="file-21"/>
              </clipitem>
              <clipitem frameBlend="FALSE" id="clipitem-162">
                <name>Mike.020.png</name>
                <masterclipid>masterclip-22</masterclipid>
                <rate>
                  <timebase>24</timebase>
                  <ntsc>FALSE</ntsc>
                </rate>
                <duration>1</duration>
                <enabled>TRUE</enabled>
                <alphatype>straight</alphatype>
                <rate>
                  <timebase>24</timebase>
                  <ntsc>FALSE</ntsc>
                </rate>
                <enabled>TRUE</enabled>
                <start>20</start>
                <end>21</end>
                <file id="file-22"/>
              </clipitem>
              <clipitem frameBlend="FALSE" id="clipitem-163">
                <name>Mike.021.png</name>
                <masterclipid>masterclip-23</masterclipid>
                <rate>
                  <timebase>24</timebase>
                  <ntsc>FALSE</ntsc>
                </rate>
                <duration>1</duration>
                <enabled>TRUE</enabled>
                <alphatype>straight</alphatype>
                <rate>
                  <timebase>24</timebase>
                  <ntsc>FALSE</ntsc>
                </rate>
                <enabled>TRUE</enabled>
                <start>21</start>
                <end>22</end>
                <file id="file-23"/>
              </clipitem>
              <clipitem frameBlend="FALSE" id="clipitem-164">
                <name>Mike.022.png</name>
                <masterclipid>masterclip-24</masterclipid>
                <rate>
                  <timebase>24</timebase>
                  <ntsc>FALSE</ntsc>
                </rate>
                <duration>1</duration>
                <enabled>TRUE</enabled>
                <alphatype>straight</alphatype>
                <rate>
                  <timebase>24</timebase>
                  <ntsc>FALSE</ntsc>
                </rate>
                <enabled>TRUE</enabled>
                <start>22</start>
                <end>23</end>
                <file id="file-24"/>
              </clipitem>
              <clipitem frameBlend="FALSE" id="clipitem-165">
                <name>Mike.023.png</name>
                <masterclipid>masterclip-25</masterclipid>
                <rate>
                  <timebase>24</timebase>
                  <ntsc>FALSE</ntsc>
                </rate>
                <duration>1</duration>
                <enabled>TRUE</enabled>
                <alphatype>straight</alphatype>
                <rate>
                  <timebase>24</timebase>
                  <ntsc>FALSE</ntsc>
                </rate>
                <enabled>TRUE</enabled>
                <start>23</start>
                <end>24</end>
                <file id="file-25"/>
              </clipitem>
              <clipitem frameBlend="FALSE" id="clipitem-166">
                <name>Mike.024.png</name>
                <masterclipid>masterclip-26</masterclipid>
                <rate>
                  <timebase>24</timebase>
                  <ntsc>FALSE</ntsc>
                </rate>
                <duration>1</duration>
                <enabled>TRUE</enabled>
                <alphatype>straight</alphatype>
                <rate>
                  <timebase>24</timebase>
                  <ntsc>FALSE</ntsc>
                </rate>
                <enabled>TRUE</enabled>
                <start>24</start>
                <end>25</end>
                <file id="file-26"/>
              </clipitem>
              <clipitem frameBlend="FALSE" id="clipitem-167">
                <name>Mike.025.png</name>
                <masterclipid>masterclip-27</masterclipid>
                <rate>
                  <timebase>24</timebase>
                  <ntsc>FALSE</ntsc>
                </rate>
                <duration>1</duration>
                <enabled>TRUE</enabled>
                <alphatype>straight</alphatype>
                <rate>
                  <timebase>24</timebase>
                  <ntsc>FALSE</ntsc>
                </rate>
                <enabled>TRUE</enabled>
                <start>25</start>
                <end>26</end>
                <file id="file-27"/>
              </clipitem>
              <clipitem frameBlend="FALSE" id="clipitem-168">
                <name>Mike.026.png</name>
                <masterclipid>masterclip-28</masterclipid>
                <rate>
                  <timebase>24</timebase>
                  <ntsc>FALSE</ntsc>
                </rate>
                <duration>1</duration>
                <enabled>TRUE</enabled>
                <alphatype>straight</alphatype>
                <rate>
                  <timebase>24</timebase>
                  <ntsc>FALSE</ntsc>
                </rate>
                <enabled>TRUE</enabled>
                <start>26</start>
                <end>27</end>
                <file id="file-28"/>
              </clipitem>
              <clipitem frameBlend="FALSE" id="clipitem-169">
                <name>Mike.027.png</name>
                <masterclipid>masterclip-29</masterclipid>
                <rate>
                  <timebase>24</timebase>
                  <ntsc>FALSE</ntsc>
                </rate>
                <duration>1</duration>
                <enabled>TRUE</enabled>
                <alphatype>straight</alphatype>
                <rate>
                  <timebase>24</timebase>
                  <ntsc>FALSE</ntsc>
                </rate>
                <enabled>TRUE</enabled>
                <start>27</start>
                <end>28</end>
                <file id="file-29"/>
              </clipitem>
              <clipitem frameBlend="FALSE" id="clipitem-170">
                <name>Mike.028.png</name>
                <masterclipid>masterclip-30</masterclipid>
                <rate>
                  <timebase>24</timebase>
                  <ntsc>FALSE</ntsc>
                </rate>
                <duration>1</duration>
                <enabled>TRUE</enabled>
                <alphatype>straight</alphatype>
                <rate>
                  <timebase>24</timebase>
                  <ntsc>FALSE</ntsc>
                </rate>
                <enabled>TRUE</enabled>
                <start>28</start>
                <end>29</end>
                <file id="file-30"/>
              </clipitem>
              <clipitem frameBlend="FALSE" id="clipitem-171">
                <name>Mike.029.png</name>
                <masterclipid>masterclip-31</masterclipid>
                <rate>
                  <timebase>24</timebase>
                  <ntsc>FALSE</ntsc>
                </rate>
                <duration>1</duration>
                <enabled>TRUE</enabled>
                <alphatype>straight</alphatype>
                <rate>
                  <timebase>24</timebase>
                  <ntsc>FALSE</ntsc>
                </rate>
                <enabled>TRUE</enabled>
                <start>29</start>
                <end>30</end>
                <file id="file-31"/>
              </clipitem>
              <clipitem frameBlend="FALSE" id="clipitem-172">
                <name>Mike.030.png</name>
                <masterclipid>masterclip-32</masterclipid>
                <rate>
                  <timebase>24</timebase>
                  <ntsc>FALSE</ntsc>
                </rate>
                <duration>1</duration>
                <enabled>TRUE</enabled>
                <alphatype>straight</alphatype>
                <rate>
                  <timebase>24</timebase>
                  <ntsc>FALSE</ntsc>
                </rate>
                <enabled>TRUE</enabled>
                <start>30</start>
                <end>31</end>
                <file id="file-32"/>
              </clipitem>
              <clipitem frameBlend="FALSE" id="clipitem-173">
                <name>Mike.031.png</name>
                <masterclipid>masterclip-33</masterclipid>
                <rate>
                  <timebase>24</timebase>
                  <ntsc>FALSE</ntsc>
                </rate>
                <duration>1</duration>
                <enabled>TRUE</enabled>
                <alphatype>straight</alphatype>
                <rate>
                  <timebase>24</timebase>
                  <ntsc>FALSE</ntsc>
                </rate>
                <enabled>TRUE</enabled>
                <start>31</start>
                <end>32</end>
                <file id="file-33"/>
              </clipitem>
              <clipitem frameBlend="FALSE" id="clipitem-174">
                <name>Mike.032.png</name>
                <masterclipid>masterclip-34</masterclipid>
                <rate>
                  <timebase>24</timebase>
                  <ntsc>FALSE</ntsc>
                </rate>
                <duration>1</duration>
                <enabled>TRUE</enabled>
                <alphatype>straight</alphatype>
                <rate>
                  <timebase>24</timebase>
                  <ntsc>FALSE</ntsc>
                </rate>
                <enabled>TRUE</enabled>
                <start>32</start>
                <end>33</end>
                <file id="file-34"/>
              </clipitem>
              <clipitem frameBlend="FALSE" id="clipitem-175">
                <name>Mike.033.png</name>
                <masterclipid>masterclip-35</masterclipid>
                <rate>
                  <timebase>24</timebase>
                  <ntsc>FALSE</ntsc>
                </rate>
                <duration>1</duration>
                <enabled>TRUE</enabled>
                <alphatype>straight</alphatype>
                <rate>
                  <timebase>24</timebase>
                  <ntsc>FALSE</ntsc>
                </rate>
                <enabled>TRUE</enabled>
                <start>33</start>
                <end>34</end>
                <file id="file-35"/>
              </clipitem>
              <clipitem frameBlend="FALSE" id="clipitem-176">
                <name>Mike.034.png</name>
                <masterclipid>masterclip-36</masterclipid>
                <rate>
                  <timebase>24</timebase>
                  <ntsc>FALSE</ntsc>
                </rate>
                <duration>1</duration>
                <enabled>TRUE</enabled>
                <alphatype>straight</alphatype>
                <rate>
                  <timebase>24</timebase>
                  <ntsc>FALSE</ntsc>
                </rate>
                <enabled>TRUE</enabled>
                <start>34</start>
                <end>35</end>
                <file id="file-36"/>
              </clipitem>
              <clipitem frameBlend="FALSE" id="clipitem-177">
                <name>Mike.035.png</name>
                <masterclipid>masterclip-37</masterclipid>
                <rate>
                  <timebase>24</timebase>
                  <ntsc>FALSE</ntsc>
                </rate>
                <duration>1</duration>
                <enabled>TRUE</enabled>
                <alphatype>straight</alphatype>
                <rate>
                  <timebase>24</timebase>
                  <ntsc>FALSE</ntsc>
                </rate>
                <enabled>TRUE</enabled>
                <start>35</start>
                <end>36</end>
                <file id="file-37"/>
              </clipitem>
              <clipitem frameBlend="FALSE" id="clipitem-178">
                <name>Mike.036.png</name>
                <masterclipid>masterclip-38</masterclipid>
                <rate>
                  <timebase>24</timebase>
                  <ntsc>FALSE</ntsc>
                </rate>
                <duration>1</duration>
                <enabled>TRUE</enabled>
                <alphatype>straight</alphatype>
                <rate>
                  <timebase>24</timebase>
                  <ntsc>FALSE</ntsc>
                </rate>
                <enabled>TRUE</enabled>
                <start>36</start>
                <end>37</end>
                <file id="file-38"/>
              </clipitem>
              <clipitem frameBlend="FALSE" id="clipitem-179">
                <name>Mike.037.png</name>
                <masterclipid>masterclip-39</masterclipid>
                <rate>
                  <timebase>24</timebase>
                  <ntsc>FALSE</ntsc>
                </rate>
                <duration>1</duration>
                <enabled>TRUE</enabled>
                <alphatype>straight</alphatype>
                <rate>
                  <timebase>24</timebase>
                  <ntsc>FALSE</ntsc>
                </rate>
                <enabled>TRUE</enabled>
                <start>37</start>
                <end>38</end>
                <file id="file-39"/>
              </clipitem>
              <clipitem frameBlend="FALSE" id="clipitem-180">
                <name>Mike.038.png</name>
                <masterclipid>masterclip-40</masterclipid>
                <rate>
                  <timebase>24</timebase>
                  <ntsc>FALSE</ntsc>
                </rate>
                <duration>1</duration>
                <enabled>TRUE</enabled>
                <alphatype>straight</alphatype>
                <rate>
                  <timebase>24</timebase>
                  <ntsc>FALSE</ntsc>
                </rate>
                <enabled>TRUE</enabled>
                <start>38</start>
                <end>39</end>
                <file id="file-40"/>
              </clipitem>
              <clipitem frameBlend="FALSE" id="clipitem-181">
                <name>Mike.039.png</name>
                <masterclipid>masterclip-41</masterclipid>
                <rate>
                  <timebase>24</timebase>
                  <ntsc>FALSE</ntsc>
                </rate>
                <duration>1</duration>
                <enabled>TRUE</enabled>
                <alphatype>straight</alphatype>
                <rate>
                  <timebase>24</timebase>
                  <ntsc>FALSE</ntsc>
                </rate>
                <enabled>TRUE</enabled>
                <start>39</start>
                <end>40</end>
                <file id="file-41"/>
              </clipitem>
              <clipitem frameBlend="FALSE" id="clipitem-182">
                <name>Mike.040.png</name>
                <masterclipid>masterclip-42</masterclipid>
                <rate>
                  <timebase>24</timebase>
                  <ntsc>FALSE</ntsc>
                </rate>
                <duration>1</duration>
                <enabled>TRUE</enabled>
                <alphatype>straight</alphatype>
                <rate>
                  <timebase>24</timebase>
                  <ntsc>FALSE</ntsc>
                </rate>
                <enabled>TRUE</enabled>
                <start>40</start>
                <end>41</end>
                <file id="file-42"/>
              </clipitem>
              <clipitem frameBlend="FALSE" id="clipitem-183">
                <name>Mike.041.png</name>
                <masterclipid>masterclip-43</masterclipid>
                <rate>
                  <timebase>24</timebase>
                  <ntsc>FALSE</ntsc>
                </rate>
                <duration>1</duration>
                <enabled>TRUE</enabled>
                <alphatype>straight</alphatype>
                <rate>
                  <timebase>24</timebase>
                  <ntsc>FALSE</ntsc>
                </rate>
                <enabled>TRUE</enabled>
                <start>41</start>
                <end>42</end>
                <file id="file-43"/>
              </clipitem>
              <clipitem frameBlend="FALSE" id="clipitem-184">
                <name>Mike.042.png</name>
                <masterclipid>masterclip-44</masterclipid>
                <rate>
                  <timebase>24</timebase>
                  <ntsc>FALSE</ntsc>
                </rate>
                <duration>1</duration>
                <enabled>TRUE</enabled>
                <alphatype>straight</alphatype>
                <rate>
                  <timebase>24</timebase>
                  <ntsc>FALSE</ntsc>
                </rate>
                <enabled>TRUE</enabled>
                <start>42</start>
                <end>43</end>
                <file id="file-44"/>
              </clipitem>
              <clipitem frameBlend="FALSE" id="clipitem-185">
                <name>Mike.043.png</name>
                <masterclipid>masterclip-45</masterclipid>
                <rate>
                  <timebase>24</timebase>
                  <ntsc>FALSE</ntsc>
                </rate>
                <duration>1</duration>
                <enabled>TRUE</enabled>
                <alphatype>straight</alphatype>
                <rate>
                  <timebase>24</timebase>
                  <ntsc>FALSE</ntsc>
                </rate>
                <enabled>TRUE</enabled>
                <start>43</start>
                <end>44</end>
                <file id="file-45"/>
              </clipitem>
              <clipitem frameBlend="FALSE" id="clipitem-186">
                <name>Mike.044.png</name>
                <masterclipid>masterclip-46</masterclipid>
                <rate>
                  <timebase>24</timebase>
                  <ntsc>FALSE</ntsc>
                </rate>
                <duration>1</duration>
                <enabled>TRUE</enabled>
                <alphatype>straight</alphatype>
                <rate>
                  <timebase>24</timebase>
                  <ntsc>FALSE</ntsc>
                </rate>
                <enabled>TRUE</enabled>
                <start>44</start>
                <end>45</end>
                <file id="file-46"/>
              </clipitem>
              <clipitem frameBlend="FALSE" id="clipitem-187">
                <name>Mike.045.png</name>
                <masterclipid>masterclip-47</masterclipid>
                <rate>
                  <timebase>24</timebase>
                  <ntsc>FALSE</ntsc>
                </rate>
                <duration>1</duration>
                <enabled>TRUE</enabled>
                <alphatype>straight</alphatype>
                <rate>
                  <timebase>24</timebase>
                  <ntsc>FALSE</ntsc>
                </rate>
                <enabled>TRUE</enabled>
                <start>45</start>
                <end>46</end>
                <file id="file-47"/>
              </clipitem>
              <clipitem frameBlend="FALSE" id="clipitem-188">
                <name>Mike.046.png</name>
                <masterclipid>masterclip-48</masterclipid>
                <rate>
                  <timebase>24</timebase>
                  <ntsc>FALSE</ntsc>
                </rate>
                <duration>1</duration>
                <enabled>TRUE</enabled>
                <alphatype>straight</alphatype>
                <rate>
                  <timebase>24</timebase>
                  <ntsc>FALSE</ntsc>
                </rate>
                <enabled>TRUE</enabled>
                <start>46</start>
                <end>47</end>
                <file id="file-48"/>
              </clipitem>
              <clipitem frameBlend="FALSE" id="clipitem-189">
                <name>Mike.047.png</name>
                <masterclipid>masterclip-49</masterclipid>
                <rate>
                  <timebase>24</timebase>
                  <ntsc>FALSE</ntsc>
                </rate>
                <duration>1</duration>
                <enabled>TRUE</enabled>
                <alphatype>straight</alphatype>
                <rate>
                  <timebase>24</timebase>
                  <ntsc>FALSE</ntsc>
                </rate>
                <enabled>TRUE</enabled>
                <start>47</start>
                <end>48</end>
                <file id="file-49"/>
              </clipitem>
              <clipitem frameBlend="FALSE" id="clipitem-190">
                <name>Mike.048.png</name>
                <masterclipid>masterclip-50</masterclipid>
                <rate>
                  <timebase>24</timebase>
                  <ntsc>FALSE</ntsc>
                </rate>
                <duration>1</duration>
                <enabled>TRUE</enabled>
                <alphatype>straight</alphatype>
                <rate>
                  <timebase>24</timebase>
                  <ntsc>FALSE</ntsc>
                </rate>
                <enabled>TRUE</enabled>
                <start>48</start>
                <end>49</end>
                <file id="file-50"/>
              </clipitem>
              <clipitem frameBlend="FALSE" id="clipitem-191">
                <name>Mike.049.png</name>
                <masterclipid>masterclip-51</masterclipid>
                <rate>
                  <timebase>24</timebase>
                  <ntsc>FALSE</ntsc>
                </rate>
                <duration>1</duration>
                <enabled>TRUE</enabled>
                <alphatype>straight</alphatype>
                <rate>
                  <timebase>24</timebase>
                  <ntsc>FALSE</ntsc>
                </rate>
                <enabled>TRUE</enabled>
                <start>49</start>
                <end>50</end>
                <file id="file-51"/>
              </clipitem>
              <clipitem frameBlend="FALSE" id="clipitem-192">
                <name>Mike.050.png</name>
                <masterclipid>masterclip-52</masterclipid>
                <rate>
                  <timebase>24</timebase>
                  <ntsc>FALSE</ntsc>
                </rate>
                <duration>1</duration>
                <enabled>TRUE</enabled>
                <alphatype>straight</alphatype>
                <rate>
                  <timebase>24</timebase>
                  <ntsc>FALSE</ntsc>
                </rate>
                <enabled>TRUE</enabled>
                <start>50</start>
                <end>51</end>
                <file id="file-52"/>
              </clipitem>
              <clipitem frameBlend="FALSE" id="clipitem-193">
                <name>Mike.051.png</name>
                <masterclipid>masterclip-53</masterclipid>
                <rate>
                  <timebase>24</timebase>
                  <ntsc>FALSE</ntsc>
                </rate>
                <duration>1</duration>
                <enabled>TRUE</enabled>
                <alphatype>straight</alphatype>
                <rate>
                  <timebase>24</timebase>
                  <ntsc>FALSE</ntsc>
                </rate>
                <enabled>TRUE</enabled>
                <start>51</start>
                <end>52</end>
                <file id="file-53"/>
              </clipitem>
              <clipitem frameBlend="FALSE" id="clipitem-194">
                <name>Mike.052.png</name>
                <masterclipid>masterclip-54</masterclipid>
                <rate>
                  <timebase>24</timebase>
                  <ntsc>FALSE</ntsc>
                </rate>
                <duration>1</duration>
                <enabled>TRUE</enabled>
                <alphatype>straight</alphatype>
                <rate>
                  <timebase>24</timebase>
                  <ntsc>FALSE</ntsc>
                </rate>
                <enabled>TRUE</enabled>
                <start>52</start>
                <end>53</end>
                <file id="file-54"/>
              </clipitem>
              <clipitem frameBlend="FALSE" id="clipitem-195">
                <name>Mike.053.png</name>
                <masterclipid>masterclip-55</masterclipid>
                <rate>
                  <timebase>24</timebase>
                  <ntsc>FALSE</ntsc>
                </rate>
                <duration>1</duration>
                <enabled>TRUE</enabled>
                <alphatype>straight</alphatype>
                <rate>
                  <timebase>24</timebase>
                  <ntsc>FALSE</ntsc>
                </rate>
                <enabled>TRUE</enabled>
                <start>53</start>
                <end>54</end>
                <file id="file-55"/>
              </clipitem>
              <clipitem frameBlend="FALSE" id="clipitem-196">
                <name>Mike.054.png</name>
                <masterclipid>masterclip-56</masterclipid>
                <rate>
                  <timebase>24</timebase>
                  <ntsc>FALSE</ntsc>
                </rate>
                <duration>1</duration>
                <enabled>TRUE</enabled>
                <alphatype>straight</alphatype>
                <rate>
                  <timebase>24</timebase>
                  <ntsc>FALSE</ntsc>
                </rate>
                <enabled>TRUE</enabled>
                <start>54</start>
                <end>55</end>
                <file id="file-56"/>
              </clipitem>
              <clipitem frameBlend="FALSE" id="clipitem-197">
                <name>Mike.055.png</name>
                <masterclipid>masterclip-57</masterclipid>
                <rate>
                  <timebase>24</timebase>
                  <ntsc>FALSE</ntsc>
                </rate>
                <duration>1</duration>
                <enabled>TRUE</enabled>
                <alphatype>straight</alphatype>
                <rate>
                  <timebase>24</timebase>
                  <ntsc>FALSE</ntsc>
                </rate>
                <enabled>TRUE</enabled>
                <start>55</start>
                <end>56</end>
                <file id="file-57"/>
              </clipitem>
              <clipitem frameBlend="FALSE" id="clipitem-198">
                <name>Mike.056.png</name>
                <masterclipid>masterclip-58</masterclipid>
                <rate>
                  <timebase>24</timebase>
                  <ntsc>FALSE</ntsc>
                </rate>
                <duration>1</duration>
                <enabled>TRUE</enabled>
                <alphatype>straight</alphatype>
                <rate>
                  <timebase>24</timebase>
                  <ntsc>FALSE</ntsc>
                </rate>
                <enabled>TRUE</enabled>
                <start>56</start>
                <end>57</end>
                <file id="file-58"/>
              </clipitem>
              <clipitem frameBlend="FALSE" id="clipitem-199">
                <name>Mike.057.png</name>
                <masterclipid>masterclip-59</masterclipid>
                <rate>
                  <timebase>24</timebase>
                  <ntsc>FALSE</ntsc>
                </rate>
                <duration>1</duration>
                <enabled>TRUE</enabled>
                <alphatype>straight</alphatype>
                <rate>
                  <timebase>24</timebase>
                  <ntsc>FALSE</ntsc>
                </rate>
                <enabled>TRUE</enabled>
                <start>57</start>
                <end>58</end>
                <file id="file-59"/>
              </clipitem>
              <clipitem frameBlend="FALSE" id="clipitem-200">
                <name>Mike.058.png</name>
                <masterclipid>masterclip-60</masterclipid>
                <rate>
                  <timebase>24</timebase>
                  <ntsc>FALSE</ntsc>
                </rate>
                <duration>1</duration>
                <enabled>TRUE</enabled>
                <alphatype>straight</alphatype>
                <rate>
                  <timebase>24</timebase>
                  <ntsc>FALSE</ntsc>
                </rate>
                <enabled>TRUE</enabled>
                <start>58</start>
                <end>59</end>
                <file id="file-60"/>
              </clipitem>
              <clipitem frameBlend="FALSE" id="clipitem-201">
                <name>Mike.059.png</name>
                <masterclipid>masterclip-61</masterclipid>
                <rate>
                  <timebase>24</timebase>
                  <ntsc>FALSE</ntsc>
                </rate>
                <duration>1</duration>
                <enabled>TRUE</enabled>
                <alphatype>straight</alphatype>
                <rate>
                  <timebase>24</timebase>
                  <ntsc>FALSE</ntsc>
                </rate>
                <enabled>TRUE</enabled>
                <start>59</start>
                <end>60</end>
                <file id="file-61"/>
              </clipitem>
              <clipitem frameBlend="FALSE" id="clipitem-202">
                <name>Mike.060.png</name>
                <masterclipid>masterclip-62</masterclipid>
                <rate>
                  <timebase>24</timebase>
                  <ntsc>FALSE</ntsc>
                </rate>
                <duration>1</duration>
                <enabled>TRUE</enabled>
                <alphatype>straight</alphatype>
                <rate>
                  <timebase>24</timebase>
                  <ntsc>FALSE</ntsc>
                </rate>
                <enabled>TRUE</enabled>
                <start>60</start>
                <end>61</end>
                <file id="file-62"/>
              </clipitem>
              <clipitem frameBlend="FALSE" id="clipitem-203">
                <name>Mike.061.png</name>
                <masterclipid>masterclip-63</masterclipid>
                <rate>
                  <timebase>24</timebase>
                  <ntsc>FALSE</ntsc>
                </rate>
                <duration>1</duration>
                <enabled>TRUE</enabled>
                <alphatype>straight</alphatype>
                <rate>
                  <timebase>24</timebase>
                  <ntsc>FALSE</ntsc>
                </rate>
                <enabled>TRUE</enabled>
                <start>61</start>
                <end>62</end>
                <file id="file-63"/>
              </clipitem>
              <clipitem frameBlend="FALSE" id="clipitem-204">
                <name>Mike.062.png</name>
                <masterclipid>masterclip-64</masterclipid>
                <rate>
                  <timebase>24</timebase>
                  <ntsc>FALSE</ntsc>
                </rate>
                <duration>1</duration>
                <enabled>TRUE</enabled>
                <alphatype>straight</alphatype>
                <rate>
                  <timebase>24</timebase>
                  <ntsc>FALSE</ntsc>
                </rate>
                <enabled>TRUE</enabled>
                <start>62</start>
                <end>63</end>
                <file id="file-64"/>
              </clipitem>
              <clipitem frameBlend="FALSE" id="clipitem-205">
                <name>Mike.063.png</name>
                <masterclipid>masterclip-65</masterclipid>
                <rate>
                  <timebase>24</timebase>
                  <ntsc>FALSE</ntsc>
                </rate>
                <duration>1</duration>
                <enabled>TRUE</enabled>
                <alphatype>straight</alphatype>
                <rate>
                  <timebase>24</timebase>
                  <ntsc>FALSE</ntsc>
                </rate>
                <enabled>TRUE</enabled>
                <start>63</start>
                <end>64</end>
                <file id="file-65"/>
              </clipitem>
              <clipitem frameBlend="FALSE" id="clipitem-206">
                <name>Mike.064.png</name>
                <masterclipid>masterclip-66</masterclipid>
                <rate>
                  <timebase>24</timebase>
                  <ntsc>FALSE</ntsc>
                </rate>
                <duration>1</duration>
                <enabled>TRUE</enabled>
                <alphatype>straight</alphatype>
                <rate>
                  <timebase>24</timebase>
                  <ntsc>FALSE</ntsc>
                </rate>
                <enabled>TRUE</enabled>
                <start>64</start>
                <end>65</end>
                <file id="file-66"/>
              </clipitem>
              <clipitem frameBlend="FALSE" id="clipitem-207">
                <name>Mike.065.png</name>
                <masterclipid>masterclip-67</masterclipid>
                <rate>
                  <timebase>24</timebase>
                  <ntsc>FALSE</ntsc>
                </rate>
                <duration>1</duration>
                <enabled>TRUE</enabled>
                <alphatype>straight</alphatype>
                <rate>
                  <timebase>24</timebase>
                  <ntsc>FALSE</ntsc>
                </rate>
                <enabled>TRUE</enabled>
                <start>65</start>
                <end>66</end>
                <file id="file-67"/>
              </clipitem>
              <clipitem frameBlend="FALSE" id="clipitem-208">
                <name>Mike.066.png</name>
                <masterclipid>masterclip-68</masterclipid>
                <rate>
                  <timebase>24</timebase>
                  <ntsc>FALSE</ntsc>
                </rate>
                <duration>1</duration>
                <enabled>TRUE</enabled>
                <alphatype>straight</alphatype>
                <rate>
                  <timebase>24</timebase>
                  <ntsc>FALSE</ntsc>
                </rate>
                <enabled>TRUE</enabled>
                <start>66</start>
                <end>67</end>
                <file id="file-68"/>
              </clipitem>
              <clipitem frameBlend="FALSE" id="clipitem-209">
                <name>Mike.067.png</name>
                <masterclipid>masterclip-69</masterclipid>
                <rate>
                  <timebase>24</timebase>
                  <ntsc>FALSE</ntsc>
                </rate>
                <duration>1</duration>
                <enabled>TRUE</enabled>
                <alphatype>straight</alphatype>
                <rate>
                  <timebase>24</timebase>
                  <ntsc>FALSE</ntsc>
                </rate>
                <enabled>TRUE</enabled>
                <start>67</start>
                <end>68</end>
                <file id="file-69"/>
              </clipitem>
              <clipitem frameBlend="FALSE" id="clipitem-210">
                <name>Mike.068.png</name>
                <masterclipid>masterclip-70</masterclipid>
                <rate>
                  <timebase>24</timebase>
                  <ntsc>FALSE</ntsc>
                </rate>
                <duration>1</duration>
                <enabled>TRUE</enabled>
                <alphatype>straight</alphatype>
                <rate>
                  <timebase>24</timebase>
                  <ntsc>FALSE</ntsc>
                </rate>
                <enabled>TRUE</enabled>
                <start>68</start>
                <end>69</end>
                <file id="file-70"/>
              </clipitem>
              <clipitem frameBlend="FALSE" id="clipitem-211">
                <name>Mike.069.png</name>
                <masterclipid>masterclip-71</masterclipid>
                <rate>
                  <timebase>24</timebase>
                  <ntsc>FALSE</ntsc>
                </rate>
                <duration>1</duration>
                <enabled>TRUE</enabled>
                <alphatype>straight</alphatype>
                <rate>
                  <timebase>24</timebase>
                  <ntsc>FALSE</ntsc>
                </rate>
                <enabled>TRUE</enabled>
                <start>69</start>
                <end>70</end>
                <file id="file-71"/>
              </clipitem>
              <clipitem frameBlend="FALSE" id="clipitem-212">
                <name>Mike.070.png</name>
                <masterclipid>masterclip-72</masterclipid>
                <rate>
                  <timebase>24</timebase>
                  <ntsc>FALSE</ntsc>
                </rate>
                <duration>1</duration>
                <enabled>TRUE</enabled>
                <alphatype>straight</alphatype>
                <rate>
                  <timebase>24</timebase>
                  <ntsc>FALSE</ntsc>
                </rate>
                <enabled>TRUE</enabled>
                <start>70</start>
                <end>71</end>
                <file id="file-72"/>
              </clipitem>
              <clipitem frameBlend="FALSE" id="clipitem-213">
                <name>Mike.071.png</name>
                <masterclipid>masterclip-73</masterclipid>
                <rate>
                  <timebase>24</timebase>
                  <ntsc>FALSE</ntsc>
                </rate>
                <duration>1</duration>
                <enabled>TRUE</enabled>
                <alphatype>straight</alphatype>
                <rate>
                  <timebase>24</timebase>
                  <ntsc>FALSE</ntsc>
                </rate>
                <enabled>TRUE</enabled>
                <start>71</start>
                <end>72</end>
                <file id="file-73"/>
              </clipitem>
              <clipitem frameBlend="FALSE" id="clipitem-214">
                <name>Mike.072.png</name>
                <masterclipid>masterclip-74</masterclipid>
                <rate>
                  <timebase>24</timebase>
                  <ntsc>FALSE</ntsc>
                </rate>
                <duration>1</duration>
                <enabled>TRUE</enabled>
                <alphatype>straight</alphatype>
                <rate>
                  <timebase>24</timebase>
                  <ntsc>FALSE</ntsc>
                </rate>
                <enabled>TRUE</enabled>
                <start>72</start>
                <end>73</end>
                <file id="file-74"/>
              </clipitem>
              <clipitem frameBlend="FALSE" id="clipitem-215">
                <name>Mike.073.png</name>
                <masterclipid>masterclip-75</masterclipid>
                <rate>
                  <timebase>24</timebase>
                  <ntsc>FALSE</ntsc>
                </rate>
                <duration>1</duration>
                <enabled>TRUE</enabled>
                <alphatype>straight</alphatype>
                <rate>
                  <timebase>24</timebase>
                  <ntsc>FALSE</ntsc>
                </rate>
                <enabled>TRUE</enabled>
                <start>73</start>
                <end>74</end>
                <file id="file-75"/>
              </clipitem>
              <clipitem frameBlend="FALSE" id="clipitem-216">
                <name>Mike.074.png</name>
                <masterclipid>masterclip-76</masterclipid>
                <rate>
                  <timebase>24</timebase>
                  <ntsc>FALSE</ntsc>
                </rate>
                <duration>1</duration>
                <enabled>TRUE</enabled>
                <alphatype>straight</alphatype>
                <rate>
                  <timebase>24</timebase>
                  <ntsc>FALSE</ntsc>
                </rate>
                <enabled>TRUE</enabled>
                <start>74</start>
                <end>75</end>
                <file id="file-76"/>
              </clipitem>
              <clipitem frameBlend="FALSE" id="clipitem-217">
                <name>Mike.075.png</name>
                <masterclipid>masterclip-77</masterclipid>
                <rate>
                  <timebase>24</timebase>
                  <ntsc>FALSE</ntsc>
                </rate>
                <duration>1</duration>
                <enabled>TRUE</enabled>
                <alphatype>straight</alphatype>
                <rate>
                  <timebase>24</timebase>
                  <ntsc>FALSE</ntsc>
                </rate>
                <enabled>TRUE</enabled>
                <start>75</start>
                <end>76</end>
                <file id="file-77"/>
              </clipitem>
              <clipitem frameBlend="FALSE" id="clipitem-218">
                <name>Mike.076.png</name>
                <masterclipid>masterclip-78</masterclipid>
                <rate>
                  <timebase>24</timebase>
                  <ntsc>FALSE</ntsc>
                </rate>
                <duration>1</duration>
                <enabled>TRUE</enabled>
                <alphatype>straight</alphatype>
                <rate>
                  <timebase>24</timebase>
                  <ntsc>FALSE</ntsc>
                </rate>
                <enabled>TRUE</enabled>
                <start>76</start>
                <end>77</end>
                <file id="file-78"/>
              </clipitem>
              <clipitem frameBlend="FALSE" id="clipitem-219">
                <name>Mike.077.png</name>
                <masterclipid>masterclip-79</masterclipid>
                <rate>
                  <timebase>24</timebase>
                  <ntsc>FALSE</ntsc>
                </rate>
                <duration>1</duration>
                <enabled>TRUE</enabled>
                <alphatype>straight</alphatype>
                <rate>
                  <timebase>24</timebase>
                  <ntsc>FALSE</ntsc>
                </rate>
                <enabled>TRUE</enabled>
                <start>77</start>
                <end>78</end>
                <file id="file-79"/>
              </clipitem>
              <clipitem frameBlend="FALSE" id="clipitem-220">
                <name>Mike.078.png</name>
                <masterclipid>masterclip-80</masterclipid>
                <rate>
                  <timebase>24</timebase>
                  <ntsc>FALSE</ntsc>
                </rate>
                <duration>1</duration>
                <enabled>TRUE</enabled>
                <alphatype>straight</alphatype>
                <rate>
                  <timebase>24</timebase>
                  <ntsc>FALSE</ntsc>
                </rate>
                <enabled>TRUE</enabled>
                <start>78</start>
                <end>79</end>
                <file id="file-80"/>
              </clipitem>
              <clipitem frameBlend="FALSE" id="clipitem-221">
                <name>Mike.079.png</name>
                <masterclipid>masterclip-81</masterclipid>
                <rate>
                  <timebase>24</timebase>
                  <ntsc>FALSE</ntsc>
                </rate>
                <duration>1</duration>
                <enabled>TRUE</enabled>
                <alphatype>straight</alphatype>
                <rate>
                  <timebase>24</timebase>
                  <ntsc>FALSE</ntsc>
                </rate>
                <enabled>TRUE</enabled>
                <start>79</start>
                <end>80</end>
                <file id="file-81"/>
              </clipitem>
              <clipitem frameBlend="FALSE" id="clipitem-222">
                <name>Mike.080.png</name>
                <masterclipid>masterclip-82</masterclipid>
                <rate>
                  <timebase>24</timebase>
                  <ntsc>FALSE</ntsc>
                </rate>
                <duration>1</duration>
                <enabled>TRUE</enabled>
                <alphatype>straight</alphatype>
                <rate>
                  <timebase>24</timebase>
                  <ntsc>FALSE</ntsc>
                </rate>
                <enabled>TRUE</enabled>
                <start>80</start>
                <end>81</end>
                <file id="file-82"/>
              </clipitem>
              <clipitem frameBlend="FALSE" id="clipitem-223">
                <name>Mike.081.png</name>
                <masterclipid>masterclip-83</masterclipid>
                <rate>
                  <timebase>24</timebase>
                  <ntsc>FALSE</ntsc>
                </rate>
                <duration>1</duration>
                <enabled>TRUE</enabled>
                <alphatype>straight</alphatype>
                <rate>
                  <timebase>24</timebase>
                  <ntsc>FALSE</ntsc>
                </rate>
                <enabled>TRUE</enabled>
                <start>81</start>
                <end>82</end>
                <file id="file-83"/>
              </clipitem>
              <clipitem frameBlend="FALSE" id="clipitem-224">
                <name>Mike.082.png</name>
                <masterclipid>masterclip-84</masterclipid>
                <rate>
                  <timebase>24</timebase>
                  <ntsc>FALSE</ntsc>
                </rate>
                <duration>1</duration>
                <enabled>TRUE</enabled>
                <alphatype>straight</alphatype>
                <rate>
                  <timebase>24</timebase>
                  <ntsc>FALSE</ntsc>
                </rate>
                <enabled>TRUE</enabled>
                <start>82</start>
                <end>83</end>
                <file id="file-84"/>
              </clipitem>
              <clipitem frameBlend="FALSE" id="clipitem-225">
                <name>Mike.083.png</name>
                <masterclipid>masterclip-85</masterclipid>
                <rate>
                  <timebase>24</timebase>
                  <ntsc>FALSE</ntsc>
                </rate>
                <duration>1</duration>
                <enabled>TRUE</enabled>
                <alphatype>straight</alphatype>
                <rate>
                  <timebase>24</timebase>
                  <ntsc>FALSE</ntsc>
                </rate>
                <enabled>TRUE</enabled>
                <start>83</start>
                <end>84</end>
                <file id="file-85"/>
              </clipitem>
              <clipitem frameBlend="FALSE" id="clipitem-226">
                <name>Mike.084.png</name>
                <masterclipid>masterclip-86</masterclipid>
                <rate>
                  <timebase>24</timebase>
                  <ntsc>FALSE</ntsc>
                </rate>
                <duration>1</duration>
                <enabled>TRUE</enabled>
                <alphatype>straight</alphatype>
                <rate>
                  <timebase>24</timebase>
                  <ntsc>FALSE</ntsc>
                </rate>
                <enabled>TRUE</enabled>
                <start>84</start>
                <end>85</end>
                <file id="file-86"/>
              </clipitem>
              <clipitem frameBlend="FALSE" id="clipitem-227">
                <name>Mike.085.png</name>
                <masterclipid>masterclip-87</masterclipid>
                <rate>
                  <timebase>24</timebase>
                  <ntsc>FALSE</ntsc>
                </rate>
                <duration>1</duration>
                <enabled>TRUE</enabled>
                <alphatype>straight</alphatype>
                <rate>
                  <timebase>24</timebase>
                  <ntsc>FALSE</ntsc>
                </rate>
                <enabled>TRUE</enabled>
                <start>85</start>
                <end>86</end>
                <file id="file-87"/>
              </clipitem>
              <clipitem frameBlend="FALSE" id="clipitem-228">
                <name>Mike.086.png</name>
                <masterclipid>masterclip-88</masterclipid>
                <rate>
                  <timebase>24</timebase>
                  <ntsc>FALSE</ntsc>
                </rate>
                <duration>1</duration>
                <enabled>TRUE</enabled>
                <alphatype>straight</alphatype>
                <rate>
                  <timebase>24</timebase>
                  <ntsc>FALSE</ntsc>
                </rate>
                <enabled>TRUE</enabled>
                <start>86</start>
                <end>87</end>
                <file id="file-88"/>
              </clipitem>
              <clipitem frameBlend="FALSE" id="clipitem-229">
                <name>Mike.087.png</name>
                <masterclipid>masterclip-89</masterclipid>
                <rate>
                  <timebase>24</timebase>
                  <ntsc>FALSE</ntsc>
                </rate>
                <duration>1</duration>
                <enabled>TRUE</enabled>
                <alphatype>straight</alphatype>
                <rate>
                  <timebase>24</timebase>
                  <ntsc>FALSE</ntsc>
                </rate>
                <enabled>TRUE</enabled>
                <start>87</start>
                <end>88</end>
                <file id="file-89"/>
              </clipitem>
              <clipitem frameBlend="FALSE" id="clipitem-230">
                <name>Mike.088.png</name>
                <masterclipid>masterclip-90</masterclipid>
                <rate>
                  <timebase>24</timebase>
                  <ntsc>FALSE</ntsc>
                </rate>
                <duration>1</duration>
                <enabled>TRUE</enabled>
                <alphatype>straight</alphatype>
                <rate>
                  <timebase>24</timebase>
                  <ntsc>FALSE</ntsc>
                </rate>
                <enabled>TRUE</enabled>
                <start>88</start>
                <end>89</end>
                <file id="file-90"/>
              </clipitem>
              <clipitem frameBlend="FALSE" id="clipitem-231">
                <name>Mike.089.png</name>
                <masterclipid>masterclip-91</masterclipid>
                <rate>
                  <timebase>24</timebase>
                  <ntsc>FALSE</ntsc>
                </rate>
                <duration>1</duration>
                <enabled>TRUE</enabled>
                <alphatype>straight</alphatype>
                <rate>
                  <timebase>24</timebase>
                  <ntsc>FALSE</ntsc>
                </rate>
                <enabled>TRUE</enabled>
                <start>89</start>
                <end>90</end>
                <file id="file-91"/>
              </clipitem>
              <clipitem frameBlend="FALSE" id="clipitem-232">
                <name>Mike.090.png</name>
                <masterclipid>masterclip-92</masterclipid>
                <rate>
                  <timebase>24</timebase>
                  <ntsc>FALSE</ntsc>
                </rate>
                <duration>1</duration>
                <enabled>TRUE</enabled>
                <alphatype>straight</alphatype>
                <rate>
                  <timebase>24</timebase>
                  <ntsc>FALSE</ntsc>
                </rate>
                <enabled>TRUE</enabled>
                <start>90</start>
                <end>91</end>
                <file id="file-92"/>
              </clipitem>
              <clipitem frameBlend="FALSE" id="clipitem-233">
                <name>Mike.091.png</name>
                <masterclipid>masterclip-93</masterclipid>
                <rate>
                  <timebase>24</timebase>
                  <ntsc>FALSE</ntsc>
                </rate>
                <duration>1</duration>
                <enabled>TRUE</enabled>
                <alphatype>straight</alphatype>
                <rate>
                  <timebase>24</timebase>
                  <ntsc>FALSE</ntsc>
                </rate>
                <enabled>TRUE</enabled>
                <start>91</start>
                <end>92</end>
                <file id="file-93"/>
              </clipitem>
              <clipitem frameBlend="FALSE" id="clipitem-234">
                <name>Mike.092.png</name>
                <masterclipid>masterclip-94</masterclipid>
                <rate>
                  <timebase>24</timebase>
                  <ntsc>FALSE</ntsc>
                </rate>
                <duration>1</duration>
                <enabled>TRUE</enabled>
                <alphatype>straight</alphatype>
                <rate>
                  <timebase>24</timebase>
                  <ntsc>FALSE</ntsc>
                </rate>
                <enabled>TRUE</enabled>
                <start>92</start>
                <end>93</end>
                <file id="file-94"/>
              </clipitem>
              <clipitem frameBlend="FALSE" id="clipitem-235">
                <name>Mike.093.png</name>
                <masterclipid>masterclip-95</masterclipid>
                <rate>
                  <timebase>24</timebase>
                  <ntsc>FALSE</ntsc>
                </rate>
                <duration>1</duration>
                <enabled>TRUE</enabled>
                <alphatype>straight</alphatype>
                <rate>
                  <timebase>24</timebase>
                  <ntsc>FALSE</ntsc>
                </rate>
                <enabled>TRUE</enabled>
                <start>93</start>
                <end>94</end>
                <file id="file-95"/>
              </clipitem>
              <clipitem frameBlend="FALSE" id="clipitem-236">
                <name>Mike.094.png</name>
                <masterclipid>masterclip-96</masterclipid>
                <rate>
                  <timebase>24</timebase>
                  <ntsc>FALSE</ntsc>
                </rate>
                <duration>1</duration>
                <enabled>TRUE</enabled>
                <alphatype>straight</alphatype>
                <rate>
                  <timebase>24</timebase>
                  <ntsc>FALSE</ntsc>
                </rate>
                <enabled>TRUE</enabled>
                <start>94</start>
                <end>95</end>
                <file id="file-96"/>
              </clipitem>
              <clipitem frameBlend="FALSE" id="clipitem-237">
                <name>Mike.095.png</name>
                <masterclipid>masterclip-97</masterclipid>
                <rate>
                  <timebase>24</timebase>
                  <ntsc>FALSE</ntsc>
                </rate>
                <duration>1</duration>
                <enabled>TRUE</enabled>
                <alphatype>straight</alphatype>
                <rate>
                  <timebase>24</timebase>
                  <ntsc>FALSE</ntsc>
                </rate>
                <enabled>TRUE</enabled>
                <start>95</start>
                <end>96</end>
                <file id="file-97"/>
              </clipitem>
              <clipitem frameBlend="FALSE" id="clipitem-238">
                <name>Mike.096.png</name>
                <masterclipid>masterclip-98</masterclipid>
                <rate>
                  <timebase>24</timebase>
                  <ntsc>FALSE</ntsc>
                </rate>
                <duration>1</duration>
                <enabled>TRUE</enabled>
                <alphatype>straight</alphatype>
                <rate>
                  <timebase>24</timebase>
                  <ntsc>FALSE</ntsc>
                </rate>
                <enabled>TRUE</enabled>
                <start>96</start>
                <end>97</end>
                <file id="file-98"/>
              </clipitem>
              <clipitem frameBlend="FALSE" id="clipitem-239">
                <name>Mike.097.png</name>
                <masterclipid>masterclip-99</masterclipid>
                <rate>
                  <timebase>24</timebase>
                  <ntsc>FALSE</ntsc>
                </rate>
                <duration>1</duration>
                <enabled>TRUE</enabled>
                <alphatype>straight</alphatype>
                <rate>
                  <timebase>24</timebase>
                  <ntsc>FALSE</ntsc>
                </rate>
                <enabled>TRUE</enabled>
                <start>97</start>
                <end>98</end>
                <file id="file-99"/>
              </clipitem>
              <clipitem frameBlend="FALSE" id="clipitem-240">
                <name>Mike.098.png</name>
                <masterclipid>masterclip-100</masterclipid>
                <rate>
                  <timebase>24</timebase>
                  <ntsc>FALSE</ntsc>
                </rate>
                <duration>1</duration>
                <enabled>TRUE</enabled>
                <alphatype>straight</alphatype>
                <rate>
                  <timebase>24</timebase>
                  <ntsc>FALSE</ntsc>
                </rate>
                <enabled>TRUE</enabled>
                <start>98</start>
                <end>99</end>
                <file id="file-100"/>
              </clipitem>
              <clipitem frameBlend="FALSE" id="clipitem-241">
                <name>Mike.099.png</name>
                <masterclipid>masterclip-101</masterclipid>
                <rate>
                  <timebase>24</timebase>
                  <ntsc>FALSE</ntsc>
                </rate>
                <duration>1</duration>
                <enabled>TRUE</enabled>
                <alphatype>straight</alphatype>
                <rate>
                  <timebase>24</timebase>
                  <ntsc>FALSE</ntsc>
                </rate>
                <enabled>TRUE</enabled>
                <start>99</start>
                <end>100</end>
                <file id="file-101"/>
              </clipitem>
              <clipitem frameBlend="FALSE" id="clipitem-242">
                <name>Mike.100.png</name>
                <masterclipid>masterclip-102</masterclipid>
                <rate>
                  <timebase>24</timebase>
                  <ntsc>FALSE</ntsc>
                </rate>
                <duration>1</duration>
                <enabled>TRUE</enabled>
                <alphatype>straight</alphatype>
                <rate>
                  <timebase>24</timebase>
                  <ntsc>FALSE</ntsc>
                </rate>
                <enabled>TRUE</enabled>
                <start>100</start>
                <end>101</end>
                <file id="file-102"/>
              </clipitem>
              <clipitem frameBlend="FALSE" id="clipitem-243">
                <name>Mike.101.png</name>
                <masterclipid>masterclip-103</masterclipid>
                <rate>
                  <timebase>24</timebase>
                  <ntsc>FALSE</ntsc>
                </rate>
                <duration>1</duration>
                <enabled>TRUE</enabled>
                <alphatype>straight</alphatype>
                <rate>
                  <timebase>24</timebase>
                  <ntsc>FALSE</ntsc>
                </rate>
                <enabled>TRUE</enabled>
                <start>101</start>
                <end>102</end>
                <file id="file-103"/>
              </clipitem>
              <clipitem frameBlend="FALSE" id="clipitem-244">
                <name>Mike.102.png</name>
                <masterclipid>masterclip-104</masterclipid>
                <rate>
                  <timebase>24</timebase>
                  <ntsc>FALSE</ntsc>
                </rate>
                <duration>1</duration>
                <enabled>TRUE</enabled>
                <alphatype>straight</alphatype>
                <rate>
                  <timebase>24</timebase>
                  <ntsc>FALSE</ntsc>
                </rate>
                <enabled>TRUE</enabled>
                <start>102</start>
                <end>103</end>
                <file id="file-104"/>
              </clipitem>
              <clipitem frameBlend="FALSE" id="clipitem-245">
                <name>Mike.103.png</name>
                <masterclipid>masterclip-105</masterclipid>
                <rate>
                  <timebase>24</timebase>
                  <ntsc>FALSE</ntsc>
                </rate>
                <duration>1</duration>
                <enabled>TRUE</enabled>
                <alphatype>straight</alphatype>
                <rate>
                  <timebase>24</timebase>
                  <ntsc>FALSE</ntsc>
                </rate>
                <enabled>TRUE</enabled>
                <start>103</start>
                <end>104</end>
                <file id="file-105"/>
              </clipitem>
              <clipitem frameBlend="FALSE" id="clipitem-246">
                <name>Mike.104.png</name>
                <masterclipid>masterclip-106</masterclipid>
                <rate>
                  <timebase>24</timebase>
                  <ntsc>FALSE</ntsc>
                </rate>
                <duration>1</duration>
                <enabled>TRUE</enabled>
                <alphatype>straight</alphatype>
                <rate>
                  <timebase>24</timebase>
                  <ntsc>FALSE</ntsc>
                </rate>
                <enabled>TRUE</enabled>
                <start>104</start>
                <end>105</end>
                <file id="file-106"/>
              </clipitem>
              <clipitem frameBlend="FALSE" id="clipitem-247">
                <name>Mike.105.png</name>
                <masterclipid>masterclip-107</masterclipid>
                <rate>
                  <timebase>24</timebase>
                  <ntsc>FALSE</ntsc>
                </rate>
                <duration>1</duration>
                <enabled>TRUE</enabled>
                <alphatype>straight</alphatype>
                <rate>
                  <timebase>24</timebase>
                  <ntsc>FALSE</ntsc>
                </rate>
                <enabled>TRUE</enabled>
                <start>105</start>
                <end>106</end>
                <file id="file-107"/>
              </clipitem>
              <clipitem frameBlend="FALSE" id="clipitem-248">
                <name>Mike.106.png</name>
                <masterclipid>masterclip-108</masterclipid>
                <rate>
                  <timebase>24</timebase>
                  <ntsc>FALSE</ntsc>
                </rate>
                <duration>1</duration>
                <enabled>TRUE</enabled>
                <alphatype>straight</alphatype>
                <rate>
                  <timebase>24</timebase>
                  <ntsc>FALSE</ntsc>
                </rate>
                <enabled>TRUE</enabled>
                <start>106</start>
                <end>107</end>
                <file id="file-108"/>
              </clipitem>
              <clipitem frameBlend="FALSE" id="clipitem-249">
                <name>Mike.107.png</name>
                <masterclipid>masterclip-109</masterclipid>
                <rate>
                  <timebase>24</timebase>
                  <ntsc>FALSE</ntsc>
                </rate>
                <duration>1</duration>
                <enabled>TRUE</enabled>
                <alphatype>straight</alphatype>
                <rate>
                  <timebase>24</timebase>
                  <ntsc>FALSE</ntsc>
                </rate>
                <enabled>TRUE</enabled>
                <start>107</start>
                <end>108</end>
                <file id="file-109"/>
              </clipitem>
              <clipitem frameBlend="FALSE" id="clipitem-250">
                <name>Mike.108.png</name>
                <masterclipid>masterclip-110</masterclipid>
                <rate>
                  <timebase>24</timebase>
                  <ntsc>FALSE</ntsc>
                </rate>
                <duration>1</duration>
                <enabled>TRUE</enabled>
                <alphatype>straight</alphatype>
                <rate>
                  <timebase>24</timebase>
                  <ntsc>FALSE</ntsc>
                </rate>
                <enabled>TRUE</enabled>
                <start>108</start>
                <end>109</end>
                <file id="file-110"/>
              </clipitem>
              <clipitem frameBlend="FALSE" id="clipitem-251">
                <name>Mike.109.png</name>
                <masterclipid>masterclip-111</masterclipid>
                <rate>
                  <timebase>24</timebase>
                  <ntsc>FALSE</ntsc>
                </rate>
                <duration>1</duration>
                <enabled>TRUE</enabled>
                <alphatype>straight</alphatype>
                <rate>
                  <timebase>24</timebase>
                  <ntsc>FALSE</ntsc>
                </rate>
                <enabled>TRUE</enabled>
                <start>109</start>
                <end>110</end>
                <file id="file-111"/>
              </clipitem>
              <clipitem frameBlend="FALSE" id="clipitem-252">
                <name>Mike.110.png</name>
                <masterclipid>masterclip-112</masterclipid>
                <rate>
                  <timebase>24</timebase>
                  <ntsc>FALSE</ntsc>
                </rate>
                <duration>1</duration>
                <enabled>TRUE</enabled>
                <alphatype>straight</alphatype>
                <rate>
                  <timebase>24</timebase>
                  <ntsc>FALSE</ntsc>
                </rate>
                <enabled>TRUE</enabled>
                <start>110</start>
                <end>111</end>
                <file id="file-112"/>
              </clipitem>
              <clipitem frameBlend="FALSE" id="clipitem-253">
                <name>Mike.111.png</name>
                <masterclipid>masterclip-113</masterclipid>
                <rate>
                  <timebase>24</timebase>
                  <ntsc>FALSE</ntsc>
                </rate>
                <duration>1</duration>
                <enabled>TRUE</enabled>
                <alphatype>straight</alphatype>
                <rate>
                  <timebase>24</timebase>
                  <ntsc>FALSE</ntsc>
                </rate>
                <enabled>TRUE</enabled>
                <start>111</start>
                <end>112</end>
                <file id="file-113"/>
              </clipitem>
              <clipitem frameBlend="FALSE" id="clipitem-254">
                <name>Mike.112.png</name>
                <masterclipid>masterclip-114</masterclipid>
                <rate>
                  <timebase>24</timebase>
                  <ntsc>FALSE</ntsc>
                </rate>
                <duration>1</duration>
                <enabled>TRUE</enabled>
                <alphatype>straight</alphatype>
                <rate>
                  <timebase>24</timebase>
                  <ntsc>FALSE</ntsc>
                </rate>
                <enabled>TRUE</enabled>
                <start>112</start>
                <end>113</end>
                <file id="file-114"/>
              </clipitem>
              <clipitem frameBlend="FALSE" id="clipitem-255">
                <name>Mike.113.png</name>
                <masterclipid>masterclip-115</masterclipid>
                <rate>
                  <timebase>24</timebase>
                  <ntsc>FALSE</ntsc>
                </rate>
                <duration>1</duration>
                <enabled>TRUE</enabled>
                <alphatype>straight</alphatype>
                <rate>
                  <timebase>24</timebase>
                  <ntsc>FALSE</ntsc>
                </rate>
                <enabled>TRUE</enabled>
                <start>113</start>
                <end>114</end>
                <file id="file-115"/>
              </clipitem>
              <clipitem frameBlend="FALSE" id="clipitem-256">
                <name>Mike.114.png</name>
                <masterclipid>masterclip-116</masterclipid>
                <rate>
                  <timebase>24</timebase>
                  <ntsc>FALSE</ntsc>
                </rate>
                <duration>1</duration>
                <enabled>TRUE</enabled>
                <alphatype>straight</alphatype>
                <rate>
                  <timebase>24</timebase>
                  <ntsc>FALSE</ntsc>
                </rate>
                <enabled>TRUE</enabled>
                <start>114</start>
                <end>115</end>
                <file id="file-116"/>
              </clipitem>
              <clipitem frameBlend="FALSE" id="clipitem-257">
                <name>Mike.115.png</name>
                <masterclipid>masterclip-117</masterclipid>
                <rate>
                  <timebase>24</timebase>
                  <ntsc>FALSE</ntsc>
                </rate>
                <duration>1</duration>
                <enabled>TRUE</enabled>
                <alphatype>straight</alphatype>
                <rate>
                  <timebase>24</timebase>
                  <ntsc>FALSE</ntsc>
                </rate>
                <enabled>TRUE</enabled>
                <start>115</start>
                <end>116</end>
                <file id="file-117"/>
              </clipitem>
              <clipitem frameBlend="FALSE" id="clipitem-258">
                <name>Mike.116.png</name>
                <masterclipid>masterclip-118</masterclipid>
                <rate>
                  <timebase>24</timebase>
                  <ntsc>FALSE</ntsc>
                </rate>
                <duration>1</duration>
                <enabled>TRUE</enabled>
                <alphatype>straight</alphatype>
                <rate>
                  <timebase>24</timebase>
                  <ntsc>FALSE</ntsc>
                </rate>
                <enabled>TRUE</enabled>
                <start>116</start>
                <end>117</end>
                <file id="file-118"/>
              </clipitem>
              <clipitem frameBlend="FALSE" id="clipitem-259">
                <name>Mike.117.png</name>
                <masterclipid>masterclip-119</masterclipid>
                <rate>
                  <timebase>24</timebase>
                  <ntsc>FALSE</ntsc>
                </rate>
                <duration>1</duration>
                <enabled>TRUE</enabled>
                <alphatype>straight</alphatype>
                <rate>
                  <timebase>24</timebase>
                  <ntsc>FALSE</ntsc>
                </rate>
                <enabled>TRUE</enabled>
                <start>117</start>
                <end>118</end>
                <file id="file-119"/>
              </clipitem>
              <clipitem frameBlend="FALSE" id="clipitem-260">
                <name>Mike.118.png</name>
                <masterclipid>masterclip-120</masterclipid>
                <rate>
                  <timebase>24</timebase>
                  <ntsc>FALSE</ntsc>
                </rate>
                <duration>1</duration>
                <enabled>TRUE</enabled>
                <alphatype>straight</alphatype>
                <rate>
                  <timebase>24</timebase>
                  <ntsc>FALSE</ntsc>
                </rate>
                <enabled>TRUE</enabled>
                <start>118</start>
                <end>119</end>
                <file id="file-120"/>
              </clipitem>
              <clipitem frameBlend="FALSE" id="clipitem-261">
                <name>Mike.119.png</name>
                <masterclipid>masterclip-121</masterclipid>
                <rate>
                  <timebase>24</timebase>
                  <ntsc>FALSE</ntsc>
                </rate>
                <duration>1</duration>
                <enabled>TRUE</enabled>
                <alphatype>straight</alphatype>
                <rate>
                  <timebase>24</timebase>
                  <ntsc>FALSE</ntsc>
                </rate>
                <enabled>TRUE</enabled>
                <start>119</start>
                <end>120</end>
                <file id="file-121"/>
              </clipitem>
              <clipitem frameBlend="FALSE" id="clipitem-262">
                <name>Mike.120.png</name>
                <masterclipid>masterclip-122</masterclipid>
                <rate>
                  <timebase>24</timebase>
                  <ntsc>FALSE</ntsc>
                </rate>
                <duration>1</duration>
                <enabled>TRUE</enabled>
                <alphatype>straight</alphatype>
                <rate>
                  <timebase>24</timebase>
                  <ntsc>FALSE</ntsc>
                </rate>
                <enabled>TRUE</enabled>
                <start>120</start>
                <end>121</end>
                <file id="file-122"/>
              </clipitem>
              <clipitem frameBlend="FALSE" id="clipitem-263">
                <name>Mike.121.png</name>
                <masterclipid>masterclip-123</masterclipid>
                <rate>
                  <timebase>24</timebase>
                  <ntsc>FALSE</ntsc>
                </rate>
                <duration>1</duration>
                <enabled>TRUE</enabled>
                <alphatype>straight</alphatype>
                <rate>
                  <timebase>24</timebase>
                  <ntsc>FALSE</ntsc>
                </rate>
                <enabled>TRUE</enabled>
                <start>121</start>
                <end>122</end>
                <file id="file-123"/>
              </clipitem>
              <clipitem frameBlend="FALSE" id="clipitem-264">
                <name>Mike.122.png</name>
                <masterclipid>masterclip-124</masterclipid>
                <rate>
                  <timebase>24</timebase>
                  <ntsc>FALSE</ntsc>
                </rate>
                <duration>1</duration>
                <enabled>TRUE</enabled>
                <alphatype>straight</alphatype>
                <rate>
                  <timebase>24</timebase>
                  <ntsc>FALSE</ntsc>
                </rate>
                <enabled>TRUE</enabled>
                <start>122</start>
                <end>123</end>
                <file id="file-124"/>
              </clipitem>
              <clipitem frameBlend="FALSE" id="clipitem-265">
                <name>Mike.123.png</name>
                <masterclipid>masterclip-125</masterclipid>
                <rate>
                  <timebase>24</timebase>
                  <ntsc>FALSE</ntsc>
                </rate>
                <duration>1</duration>
                <enabled>TRUE</enabled>
                <alphatype>straight</alphatype>
                <rate>
                  <timebase>24</timebase>
                  <ntsc>FALSE</ntsc>
                </rate>
                <enabled>TRUE</enabled>
                <start>123</start>
                <end>124</end>
                <file id="file-125"/>
              </clipitem>
              <clipitem frameBlend="FALSE" id="clipitem-266">
                <name>Mike.124.png</name>
                <masterclipid>masterclip-126</masterclipid>
                <rate>
                  <timebase>24</timebase>
                  <ntsc>FALSE</ntsc>
                </rate>
                <duration>1</duration>
                <enabled>TRUE</enabled>
                <alphatype>straight</alphatype>
                <rate>
                  <timebase>24</timebase>
                  <ntsc>FALSE</ntsc>
                </rate>
                <enabled>TRUE</enabled>
                <start>124</start>
                <end>125</end>
                <file id="file-126"/>
              </clipitem>
              <clipitem frameBlend="FALSE" id="clipitem-267">
                <name>Mike.125.png</name>
                <masterclipid>masterclip-127</masterclipid>
                <rate>
                  <timebase>24</timebase>
                  <ntsc>FALSE</ntsc>
                </rate>
                <duration>1</duration>
                <enabled>TRUE</enabled>
                <alphatype>straight</alphatype>
                <rate>
                  <timebase>24</timebase>
                  <ntsc>FALSE</ntsc>
                </rate>
                <enabled>TRUE</enabled>
                <start>125</start>
                <end>126</end>
                <file id="file-127"/>
              </clipitem>
              <clipitem frameBlend="FALSE" id="clipitem-268">
                <name>Mike.126.png</name>
                <masterclipid>masterclip-128</masterclipid>
                <rate>
                  <timebase>24</timebase>
                  <ntsc>FALSE</ntsc>
                </rate>
                <duration>1</duration>
                <enabled>TRUE</enabled>
                <alphatype>straight</alphatype>
                <rate>
                  <timebase>24</timebase>
                  <ntsc>FALSE</ntsc>
                </rate>
                <enabled>TRUE</enabled>
                <start>126</start>
                <end>127</end>
                <file id="file-128"/>
              </clipitem>
              <clipitem frameBlend="FALSE" id="clipitem-269">
                <name>Mike.127.png</name>
                <masterclipid>masterclip-129</masterclipid>
                <rate>
                  <timebase>24</timebase>
                  <ntsc>FALSE</ntsc>
                </rate>
                <duration>1</duration>
                <enabled>TRUE</enabled>
                <alphatype>straight</alphatype>
                <rate>
                  <timebase>24</timebase>
                  <ntsc>FALSE</ntsc>
                </rate>
                <enabled>TRUE</enabled>
                <start>127</start>
                <end>128</end>
                <file id="file-129"/>
              </clipitem>
              <clipitem frameBlend="FALSE" id="clipitem-270">
                <name>Mike.128.png</name>
                <masterclipid>masterclip-130</masterclipid>
                <rate>
                  <timebase>24</timebase>
                  <ntsc>FALSE</ntsc>
                </rate>
                <duration>1</duration>
                <enabled>TRUE</enabled>
                <alphatype>straight</alphatype>
                <rate>
                  <timebase>24</timebase>
                  <ntsc>FALSE</ntsc>
                </rate>
                <enabled>TRUE</enabled>
                <start>128</start>
                <end>129</end>
                <file id="file-130"/>
              </clipitem>
              <clipitem frameBlend="FALSE" id="clipitem-271">
                <name>Mike.129.png</name>
                <masterclipid>masterclip-131</masterclipid>
                <rate>
                  <timebase>24</timebase>
                  <ntsc>FALSE</ntsc>
                </rate>
                <duration>1</duration>
                <enabled>TRUE</enabled>
                <alphatype>straight</alphatype>
                <rate>
                  <timebase>24</timebase>
                  <ntsc>FALSE</ntsc>
                </rate>
                <enabled>TRUE</enabled>
                <start>129</start>
                <end>130</end>
                <file id="file-131"/>
              </clipitem>
              <clipitem frameBlend="FALSE" id="clipitem-272">
                <name>Mike.130.png</name>
                <masterclipid>masterclip-132</masterclipid>
                <rate>
                  <timebase>24</timebase>
                  <ntsc>FALSE</ntsc>
                </rate>
                <duration>1</duration>
                <enabled>TRUE</enabled>
                <alphatype>straight</alphatype>
                <rate>
                  <timebase>24</timebase>
                  <ntsc>FALSE</ntsc>
                </rate>
                <enabled>TRUE</enabled>
                <start>130</start>
                <end>131</end>
                <file id="file-132"/>
              </clipitem>
              <clipitem frameBlend="FALSE" id="clipitem-273">
                <name>Mike.131.png</name>
                <masterclipid>masterclip-133</masterclipid>
                <rate>
                  <timebase>24</timebase>
                  <ntsc>FALSE</ntsc>
                </rate>
                <duration>1</duration>
                <enabled>TRUE</enabled>
                <alphatype>straight</alphatype>
                <rate>
                  <timebase>24</timebase>
                  <ntsc>FALSE</ntsc>
                </rate>
                <enabled>TRUE</enabled>
                <start>131</start>
                <end>132</end>
                <file id="file-133"/>
              </clipitem>
              <clipitem frameBlend="FALSE" id="clipitem-274">
                <name>Mike.132.png</name>
                <masterclipid>masterclip-134</masterclipid>
                <rate>
                  <timebase>24</timebase>
                  <ntsc>FALSE</ntsc>
                </rate>
                <duration>1</duration>
                <enabled>TRUE</enabled>
                <alphatype>straight</alphatype>
                <rate>
                  <timebase>24</timebase>
                  <ntsc>FALSE</ntsc>
                </rate>
                <enabled>TRUE</enabled>
                <start>132</start>
                <end>133</end>
                <file id="file-134"/>
              </clipitem>
              <clipitem frameBlend="FALSE" id="clipitem-275">
                <name>Mike.133.png</name>
                <masterclipid>masterclip-135</masterclipid>
                <rate>
                  <timebase>24</timebase>
                  <ntsc>FALSE</ntsc>
                </rate>
                <duration>1</duration>
                <enabled>TRUE</enabled>
                <alphatype>straight</alphatype>
                <rate>
                  <timebase>24</timebase>
                  <ntsc>FALSE</ntsc>
                </rate>
                <enabled>TRUE</enabled>
                <start>133</start>
                <end>134</end>
                <file id="file-135"/>
              </clipitem>
              <clipitem frameBlend="FALSE" id="clipitem-276">
                <name>Mike.134.png</name>
                <masterclipid>masterclip-136</masterclipid>
                <rate>
                  <timebase>24</timebase>
                  <ntsc>FALSE</ntsc>
                </rate>
                <duration>1</duration>
                <enabled>TRUE</enabled>
                <alphatype>straight</alphatype>
                <rate>
                  <timebase>24</timebase>
                  <ntsc>FALSE</ntsc>
                </rate>
                <enabled>TRUE</enabled>
                <start>134</start>
                <end>135</end>
                <file id="file-136"/>
              </clipitem>
              <clipitem frameBlend="FALSE" id="clipitem-277">
                <name>Mike.135.png</name>
                <masterclipid>masterclip-137</masterclipid>
                <rate>
                  <timebase>24</timebase>
                  <ntsc>FALSE</ntsc>
                </rate>
                <duration>1</duration>
                <enabled>TRUE</enabled>
                <alphatype>straight</alphatype>
                <rate>
                  <timebase>24</timebase>
                  <ntsc>FALSE</ntsc>
                </rate>
                <enabled>TRUE</enabled>
                <start>135</start>
                <end>136</end>
                <file id="file-137"/>
              </clipitem>
              <clipitem frameBlend="FALSE" id="clipitem-278">
                <name>Mike.136.png</name>
                <masterclipid>masterclip-138</masterclipid>
                <rate>
                  <timebase>24</timebase>
                  <ntsc>FALSE</ntsc>
                </rate>
                <duration>1</duration>
                <enabled>TRUE</enabled>
                <alphatype>straight</alphatype>
                <rate>
                  <timebase>24</timebase>
                  <ntsc>FALSE</ntsc>
                </rate>
                <enabled>TRUE</enabled>
                <start>136</start>
                <end>137</end>
                <file id="file-138"/>
              </clipitem>
              <clipitem frameBlend="FALSE" id="clipitem-279">
                <name>Mike.137.png</name>
                <masterclipid>masterclip-139</masterclipid>
                <rate>
                  <timebase>24</timebase>
                  <ntsc>FALSE</ntsc>
                </rate>
                <duration>1</duration>
                <enabled>TRUE</enabled>
                <alphatype>straight</alphatype>
                <rate>
                  <timebase>24</timebase>
                  <ntsc>FALSE</ntsc>
                </rate>
                <enabled>TRUE</enabled>
                <start>137</start>
                <end>138</end>
                <file id="file-139"/>
              </clipitem>
              <clipitem frameBlend="FALSE" id="clipitem-280">
                <name>Mike.138.png</name>
                <masterclipid>masterclip-140</masterclipid>
                <rate>
                  <timebase>24</timebase>
                  <ntsc>FALSE</ntsc>
                </rate>
                <duration>1</duration>
                <enabled>TRUE</enabled>
                <alphatype>straight</alphatype>
                <rate>
                  <timebase>24</timebase>
                  <ntsc>FALSE</ntsc>
                </rate>
                <enabled>TRUE</enabled>
                <start>138</start>
                <end>139</end>
                <file id="file-140"/>
              </clipitem>
            </track>
            <format>
              <samplecharacteristics>
                <anamorphic>FALSE</anamorphic>
                <pixelaspectratio>square</pixelaspectratio>
                <fielddominance>none</fielddominance>
                <width>686</width>
                <height>511</height>
                <rate>
                  <timebase>24</timebase>
                  <ntsc>FALSE</ntsc>
                </rate>
              </samplecharacteristics>
            </format>
          </video>
          <audio>
            <numOutputChannels>2</numOutputChannels>
            <track frameBlend="FALSE" premiereChannelType="Stereo">
              <clipitem frameBlend="FALSE" id="clipitem-1" premiereChannelType="stereo">
                <name>Mike.wav</name>
                <masterclipid>masterclip-1</masterclipid>
                <rate>
                  <timebase>24</timebase>
                  <ntsc>FALSE</ntsc>
                </rate>
                <start>0</start>
                <end>139</end>
                <in>0</in>
                <out>139</out>
                <sourcetrack>
                  <mediatype>audio</mediatype>
                  <trackindex>1</trackindex>
                </sourcetrack>
                <link>
                  <linkclipref>clipitem-1</linkclipref>
                  <mediatype>audio</mediatype>
                  <trackindex>1</trackindex>
                  <clipindex>1</clipindex>
                  <groupindex>1</groupindex>
                </link>
                <link>
                  <linkclipref>clipitem-2</linkclipref>
                  <mediatype>audio</mediatype>
                  <trackindex>2</trackindex>
                  <clipindex>1</clipindex>
                  <groupindex>1</groupindex>
                </link>
                <file id="file-1"/>
              </clipitem>
              <enabled>TRUE</enabled>
              <outputchannelindex>1</outputchannelindex>
            </track>
            <track frameBlend="FALSE" premiereChannelType="Stereo">
              <clipitem frameBlend="FALSE" id="clipitem-2" premiereChannelType="stereo">
                <name>Mike.wav</name>
                <masterclipid>masterclip-1</masterclipid>
                <rate>
                  <timebase>24</timebase>
                  <ntsc>FALSE</ntsc>
                </rate>
                <start>0</start>
                <end>139</end>
                <in>0</in>
                <out>139</out>
                <sourcetrack>
                  <mediatype>audio</mediatype>
                  <trackindex>2</trackindex>
                </sourcetrack>
                <link>
                  <linkclipref>clipitem-1</linkclipref>
                  <mediatype>audio</mediatype>
                  <trackindex>1</trackindex>
                  <clipindex>1</clipindex>
                  <groupindex>1</groupindex>
                </link>
                <link>
                  <linkclipref>clipitem-2</linkclipref>
                  <mediatype>audio</mediatype>
                  <trackindex>2</trackindex>
                  <clipindex>1</clipindex>
                  <groupindex>1</groupindex>
                </link>
                <file id="file-1"/>
              </clipitem>
              <enabled>TRUE</enabled>
              <outputchannelindex>2</outputchannelindex>
            </track>
            <outputs>
              <group>
                <index>0</index>
                <numchannels>1</numchannels>
                <downmix>0</downmix>
                <group>
                  <index>0</index>
                </group>
              </group>
              <group>
                <index>1</index>
                <numchannels>1</numchannels>
                <downmix>0</downmix>
                <group>
                  <index>1</index>
                </group>
              </group>
            </outputs>
            <format>
              <samplecharacteristics>
                <samplerate>48000</samplerate>
                <depth>32</depth>
              </samplecharacteristics>
            </format>
          </audio>
        </media>
        <timecode>
          <rate>
            <timebase>24</timebase>
            <ntsc>FALSE</ntsc>
          </rate>
        </timecode>
      </sequence>
      <bin>
        <name>Mike Bin</name>
        <children>
          <clip explodedTracks="true" frameBlend="FALSE" id="masterclip-1">
            <uuid>73405681-41ab-4fcd-beff-1e5ba0bca9a7</uuid>
            <masterclipid>masterclip-1</masterclipid>
            <ismasterclip>TRUE</ismasterclip>
            <duration>139</duration>
            <in>0</in>
            <out>139</out>
            <name>Mike.wav</name>
            <rate>
              <timebase>24</timebase>
              <ntsc>FALSE</ntsc>
            </rate>
            <media>
              <audio>
                <track>
                  <clipitem frameBlend="FALSE" id="clipitem-1">
                    <name>Mike.wav</name>
                    <masterclipid>masterclip-1</masterclipid>
                    <rate>
                      <timebase>24</timebase>
                      <ntsc>FALSE</ntsc>
                    </rate>
                    <file id="file-1">
                      <name>Mike.wav</name>
                      <pathurl>file://localhost/Users/antoniochiappetta/OneDrive - Aalto University/University/Aalto/Hackatons/Junction/Junction2019-IoK-security_awareness_kids/Assets/Team Animations/Image Sequences/Mike/Mike.wav</pathurl>
                      <rate>
                        <timebase>24</timebase>
                        <ntsc>FALSE</ntsc>
                      </rate>
                      <duration>139</duration>
                      <timecode>
                        <rate>
                          <timebase>24</timebase>
                          <ntsc>FALSE</ntsc>
                        </rate>
                      </timecode>
                      <media>
                        <audio>
                          <samplecharacteristics>
                            <samplerate>48000</samplerate>
                            <depth>32</depth>
                          </samplecharacteristics>
                          <channelcount>2</channelcount>
                        </audio>
                      </media>
                    </file>
                    <sourcetrack>
                      <mediatype>audio</mediatype>
                      <trackindex>1</trackindex>
                    </sourcetrack>
                    <link>
                      <linkclipref>clipitem-1</linkclipref>
                      <mediatype>audio</mediatype>
                      <trackindex>1</trackindex>
                      <clipindex>1</clipindex>
                      <groupindex>1</groupindex>
                    </link>
                    <link>
                      <linkclipref>clipitem-2</linkclipref>
                      <mediatype>audio</mediatype>
                      <trackindex>2</trackindex>
                      <clipindex>1</clipindex>
                      <groupindex>1</groupindex>
                    </link>
                  </clipitem>
                </track>
                <track>
                  <clipitem frameBlend="FALSE" id="clipitem-2">
                    <name>Mike.wav</name>
                    <masterclipid>masterclip-1</masterclipid>
                    <rate>
                      <timebase>24</timebase>
                      <ntsc>FALSE</ntsc>
                    </rate>
                    <sourcetrack>
                      <mediatype>audio</mediatype>
                      <trackindex>2</trackindex>
                    </sourcetrack>
                    <link>
                      <linkclipref>clipitem-1</linkclipref>
                      <mediatype>audio</mediatype>
                      <trackindex>1</trackindex>
                      <clipindex>1</clipindex>
                      <groupindex>1</groupindex>
                    </link>
                    <link>
                      <linkclipref>clipitem-2</linkclipref>
                      <mediatype>audio</mediatype>
                      <trackindex>2</trackindex>
                      <clipindex>1</clipindex>
                      <groupindex>1</groupindex>
                    </link>
                  </clipitem>
                </track>
              </audio>
            </media>
          </clip>
          <clip explodedTracks="true" frameBlend="FALSE" id="masterclip-2">
            <uuid>41b9b743-525b-4dc4-8cef-0ac34b5e2b54</uuid>
            <masterclipid>masterclip-2</masterclipid>
            <ismasterclip>TRUE</ismasterclip>
            <duration>139</duration>
            <in>0</in>
            <out>139</out>
            <name>Mike.000.png</name>
            <rate>
              <timebase>24</timebase>
              <ntsc>FALSE</ntsc>
            </rate>
            <media>
              <video>
                <track>
                  <clipitem frameBlend="FALSE" id="clipitem-3">
                    <name>Mike.000.png</name>
                    <masterclipid>masterclip-2</masterclipid>
                    <rate>
                      <timebase>24</timebase>
                      <ntsc>FALSE</ntsc>
                    </rate>
                    <alphatype>straight</alphatype>
                    <pixelaspectratio>square</pixelaspectratio>
                    <anamorphic>FALSE</anamorphic>
                    <file id="file-2">
                      <name>Mike.000.png</name>
                      <pathurl>file://localhost/Users/antoniochiappetta/OneDrive - Aalto University/University/Aalto/Hackatons/Junction/Junction2019-IoK-security_awareness_kids/Assets/Team Animations/Image Sequences/Mike/Mike.000.png</pathurl>
                      <rate>
                        <timebase>24</timebase>
                        <ntsc>FALSE</ntsc>
                      </rate>
                      <duration>139</duration>
                      <timecode>
                        <rate>
                          <timebase>24</timebase>
                          <ntsc>FALSE</ntsc>
                        </rate>
                      </timecode>
                      <media>
                        <video>
                          <duration>1</duration>
                          <samplecharacteristics>
                            <anamorphic>FALSE</anamorphic>
                            <pixelaspectratio>square</pixelaspectratio>
                            <fielddominance>none</fielddominance>
                            <width>686</width>
                            <height>511</height>
                          </samplecharacteristics>
                        </video>
                      </media>
                    </file>
                  </clipitem>
                </track>
              </video>
            </media>
          </clip>
          <clip explodedTracks="true" frameBlend="FALSE" id="masterclip-3">
            <uuid>0a2e5208-e898-4736-ae44-65155dd5c992</uuid>
            <masterclipid>masterclip-3</masterclipid>
            <ismasterclip>TRUE</ismasterclip>
            <duration>139</duration>
            <in>0</in>
            <out>139</out>
            <name>Mike.001.png</name>
            <rate>
              <timebase>24</timebase>
              <ntsc>FALSE</ntsc>
            </rate>
            <media>
              <video>
                <track>
                  <clipitem frameBlend="FALSE" id="clipitem-4">
                    <name>Mike.001.png</name>
                    <masterclipid>masterclip-3</masterclipid>
                    <rate>
                      <timebase>24</timebase>
                      <ntsc>FALSE</ntsc>
                    </rate>
                    <alphatype>straight</alphatype>
                    <pixelaspectratio>square</pixelaspectratio>
                    <anamorphic>FALSE</anamorphic>
                    <file id="file-3">
                      <name>Mike.001.png</name>
                      <pathurl>file://localhost/Users/antoniochiappetta/OneDrive - Aalto University/University/Aalto/Hackatons/Junction/Junction2019-IoK-security_awareness_kids/Assets/Team Animations/Image Sequences/Mike/Mike.001.png</pathurl>
                      <rate>
                        <timebase>24</timebase>
                        <ntsc>FALSE</ntsc>
                      </rate>
                      <duration>139</duration>
                      <timecode>
                        <rate>
                          <timebase>24</timebase>
                          <ntsc>FALSE</ntsc>
                        </rate>
                      </timecode>
                      <media>
                        <video>
                          <duration>1</duration>
                          <samplecharacteristics>
                            <anamorphic>FALSE</anamorphic>
                            <pixelaspectratio>square</pixelaspectratio>
                            <fielddominance>none</fielddominance>
                            <width>686</width>
                            <height>511</height>
                          </samplecharacteristics>
                        </video>
                      </media>
                    </file>
                  </clipitem>
                </track>
              </video>
            </media>
          </clip>
          <clip explodedTracks="true" frameBlend="FALSE" id="masterclip-4">
            <uuid>599f83b2-aac9-446e-9dc0-96dde41b8899</uuid>
            <masterclipid>masterclip-4</masterclipid>
            <ismasterclip>TRUE</ismasterclip>
            <duration>139</duration>
            <in>0</in>
            <out>139</out>
            <name>Mike.002.png</name>
            <rate>
              <timebase>24</timebase>
              <ntsc>FALSE</ntsc>
            </rate>
            <media>
              <video>
                <track>
                  <clipitem frameBlend="FALSE" id="clipitem-5">
                    <name>Mike.002.png</name>
                    <masterclipid>masterclip-4</masterclipid>
                    <rate>
                      <timebase>24</timebase>
                      <ntsc>FALSE</ntsc>
                    </rate>
                    <alphatype>straight</alphatype>
                    <pixelaspectratio>square</pixelaspectratio>
                    <anamorphic>FALSE</anamorphic>
                    <file id="file-4">
                      <name>Mike.002.png</name>
                      <pathurl>file://localhost/Users/antoniochiappetta/OneDrive - Aalto University/University/Aalto/Hackatons/Junction/Junction2019-IoK-security_awareness_kids/Assets/Team Animations/Image Sequences/Mike/Mike.002.png</pathurl>
                      <rate>
                        <timebase>24</timebase>
                        <ntsc>FALSE</ntsc>
                      </rate>
                      <duration>139</duration>
                      <timecode>
                        <rate>
                          <timebase>24</timebase>
                          <ntsc>FALSE</ntsc>
                        </rate>
                      </timecode>
                      <media>
                        <video>
                          <duration>1</duration>
                          <samplecharacteristics>
                            <anamorphic>FALSE</anamorphic>
                            <pixelaspectratio>square</pixelaspectratio>
                            <fielddominance>none</fielddominance>
                            <width>686</width>
                            <height>511</height>
                          </samplecharacteristics>
                        </video>
                      </media>
                    </file>
                  </clipitem>
                </track>
              </video>
            </media>
          </clip>
          <clip explodedTracks="true" frameBlend="FALSE" id="masterclip-5">
            <uuid>bb7f4153-4d71-4cd1-91ad-4b5e7d40a162</uuid>
            <masterclipid>masterclip-5</masterclipid>
            <ismasterclip>TRUE</ismasterclip>
            <duration>139</duration>
            <in>0</in>
            <out>139</out>
            <name>Mike.003.png</name>
            <rate>
              <timebase>24</timebase>
              <ntsc>FALSE</ntsc>
            </rate>
            <media>
              <video>
                <track>
                  <clipitem frameBlend="FALSE" id="clipitem-6">
                    <name>Mike.003.png</name>
                    <masterclipid>masterclip-5</masterclipid>
                    <rate>
                      <timebase>24</timebase>
                      <ntsc>FALSE</ntsc>
                    </rate>
                    <alphatype>straight</alphatype>
                    <pixelaspectratio>square</pixelaspectratio>
                    <anamorphic>FALSE</anamorphic>
                    <file id="file-5">
                      <name>Mike.003.png</name>
                      <pathurl>file://localhost/Users/antoniochiappetta/OneDrive - Aalto University/University/Aalto/Hackatons/Junction/Junction2019-IoK-security_awareness_kids/Assets/Team Animations/Image Sequences/Mike/Mike.003.png</pathurl>
                      <rate>
                        <timebase>24</timebase>
                        <ntsc>FALSE</ntsc>
                      </rate>
                      <duration>139</duration>
                      <timecode>
                        <rate>
                          <timebase>24</timebase>
                          <ntsc>FALSE</ntsc>
                        </rate>
                      </timecode>
                      <media>
                        <video>
                          <duration>1</duration>
                          <samplecharacteristics>
                            <anamorphic>FALSE</anamorphic>
                            <pixelaspectratio>square</pixelaspectratio>
                            <fielddominance>none</fielddominance>
                            <width>686</width>
                            <height>511</height>
                          </samplecharacteristics>
                        </video>
                      </media>
                    </file>
                  </clipitem>
                </track>
              </video>
            </media>
          </clip>
          <clip explodedTracks="true" frameBlend="FALSE" id="masterclip-6">
            <uuid>2e688875-aa99-425f-ba70-7276e86f93b8</uuid>
            <masterclipid>masterclip-6</masterclipid>
            <ismasterclip>TRUE</ismasterclip>
            <duration>139</duration>
            <in>0</in>
            <out>139</out>
            <name>Mike.004.png</name>
            <rate>
              <timebase>24</timebase>
              <ntsc>FALSE</ntsc>
            </rate>
            <media>
              <video>
                <track>
                  <clipitem frameBlend="FALSE" id="clipitem-7">
                    <name>Mike.004.png</name>
                    <masterclipid>masterclip-6</masterclipid>
                    <rate>
                      <timebase>24</timebase>
                      <ntsc>FALSE</ntsc>
                    </rate>
                    <alphatype>straight</alphatype>
                    <pixelaspectratio>square</pixelaspectratio>
                    <anamorphic>FALSE</anamorphic>
                    <file id="file-6">
                      <name>Mike.004.png</name>
                      <pathurl>file://localhost/Users/antoniochiappetta/OneDrive - Aalto University/University/Aalto/Hackatons/Junction/Junction2019-IoK-security_awareness_kids/Assets/Team Animations/Image Sequences/Mike/Mike.004.png</pathurl>
                      <rate>
                        <timebase>24</timebase>
                        <ntsc>FALSE</ntsc>
                      </rate>
                      <duration>139</duration>
                      <timecode>
                        <rate>
                          <timebase>24</timebase>
                          <ntsc>FALSE</ntsc>
                        </rate>
                      </timecode>
                      <media>
                        <video>
                          <duration>1</duration>
                          <samplecharacteristics>
                            <anamorphic>FALSE</anamorphic>
                            <pixelaspectratio>square</pixelaspectratio>
                            <fielddominance>none</fielddominance>
                            <width>686</width>
                            <height>511</height>
                          </samplecharacteristics>
                        </video>
                      </media>
                    </file>
                  </clipitem>
                </track>
              </video>
            </media>
          </clip>
          <clip explodedTracks="true" frameBlend="FALSE" id="masterclip-7">
            <uuid>4eb6da14-c1c0-4c63-9320-d3b4c2b9ac92</uuid>
            <masterclipid>masterclip-7</masterclipid>
            <ismasterclip>TRUE</ismasterclip>
            <duration>139</duration>
            <in>0</in>
            <out>139</out>
            <name>Mike.005.png</name>
            <rate>
              <timebase>24</timebase>
              <ntsc>FALSE</ntsc>
            </rate>
            <media>
              <video>
                <track>
                  <clipitem frameBlend="FALSE" id="clipitem-8">
                    <name>Mike.005.png</name>
                    <masterclipid>masterclip-7</masterclipid>
                    <rate>
                      <timebase>24</timebase>
                      <ntsc>FALSE</ntsc>
                    </rate>
                    <alphatype>straight</alphatype>
                    <pixelaspectratio>square</pixelaspectratio>
                    <anamorphic>FALSE</anamorphic>
                    <file id="file-7">
                      <name>Mike.005.png</name>
                      <pathurl>file://localhost/Users/antoniochiappetta/OneDrive - Aalto University/University/Aalto/Hackatons/Junction/Junction2019-IoK-security_awareness_kids/Assets/Team Animations/Image Sequences/Mike/Mike.005.png</pathurl>
                      <rate>
                        <timebase>24</timebase>
                        <ntsc>FALSE</ntsc>
                      </rate>
                      <duration>139</duration>
                      <timecode>
                        <rate>
                          <timebase>24</timebase>
                          <ntsc>FALSE</ntsc>
                        </rate>
                      </timecode>
                      <media>
                        <video>
                          <duration>1</duration>
                          <samplecharacteristics>
                            <anamorphic>FALSE</anamorphic>
                            <pixelaspectratio>square</pixelaspectratio>
                            <fielddominance>none</fielddominance>
                            <width>686</width>
                            <height>511</height>
                          </samplecharacteristics>
                        </video>
                      </media>
                    </file>
                  </clipitem>
                </track>
              </video>
            </media>
          </clip>
          <clip explodedTracks="true" frameBlend="FALSE" id="masterclip-8">
            <uuid>9ca9e851-5749-4764-b725-7e42db1a562f</uuid>
            <masterclipid>masterclip-8</masterclipid>
            <ismasterclip>TRUE</ismasterclip>
            <duration>139</duration>
            <in>0</in>
            <out>139</out>
            <name>Mike.006.png</name>
            <rate>
              <timebase>24</timebase>
              <ntsc>FALSE</ntsc>
            </rate>
            <media>
              <video>
                <track>
                  <clipitem frameBlend="FALSE" id="clipitem-9">
                    <name>Mike.006.png</name>
                    <masterclipid>masterclip-8</masterclipid>
                    <rate>
                      <timebase>24</timebase>
                      <ntsc>FALSE</ntsc>
                    </rate>
                    <alphatype>straight</alphatype>
                    <pixelaspectratio>square</pixelaspectratio>
                    <anamorphic>FALSE</anamorphic>
                    <file id="file-8">
                      <name>Mike.006.png</name>
                      <pathurl>file://localhost/Users/antoniochiappetta/OneDrive - Aalto University/University/Aalto/Hackatons/Junction/Junction2019-IoK-security_awareness_kids/Assets/Team Animations/Image Sequences/Mike/Mike.006.png</pathurl>
                      <rate>
                        <timebase>24</timebase>
                        <ntsc>FALSE</ntsc>
                      </rate>
                      <duration>139</duration>
                      <timecode>
                        <rate>
                          <timebase>24</timebase>
                          <ntsc>FALSE</ntsc>
                        </rate>
                      </timecode>
                      <media>
                        <video>
                          <duration>1</duration>
                          <samplecharacteristics>
                            <anamorphic>FALSE</anamorphic>
                            <pixelaspectratio>square</pixelaspectratio>
                            <fielddominance>none</fielddominance>
                            <width>686</width>
                            <height>511</height>
                          </samplecharacteristics>
                        </video>
                      </media>
                    </file>
                  </clipitem>
                </track>
              </video>
            </media>
          </clip>
          <clip explodedTracks="true" frameBlend="FALSE" id="masterclip-9">
            <uuid>2970bca6-9924-4b27-94a8-9f1ea0e4debd</uuid>
            <masterclipid>masterclip-9</masterclipid>
            <ismasterclip>TRUE</ismasterclip>
            <duration>139</duration>
            <in>0</in>
            <out>139</out>
            <name>Mike.007.png</name>
            <rate>
              <timebase>24</timebase>
              <ntsc>FALSE</ntsc>
            </rate>
            <media>
              <video>
                <track>
                  <clipitem frameBlend="FALSE" id="clipitem-10">
                    <name>Mike.007.png</name>
                    <masterclipid>masterclip-9</masterclipid>
                    <rate>
                      <timebase>24</timebase>
                      <ntsc>FALSE</ntsc>
                    </rate>
                    <alphatype>straight</alphatype>
                    <pixelaspectratio>square</pixelaspectratio>
                    <anamorphic>FALSE</anamorphic>
                    <file id="file-9">
                      <name>Mike.007.png</name>
                      <pathurl>file://localhost/Users/antoniochiappetta/OneDrive - Aalto University/University/Aalto/Hackatons/Junction/Junction2019-IoK-security_awareness_kids/Assets/Team Animations/Image Sequences/Mike/Mike.007.png</pathurl>
                      <rate>
                        <timebase>24</timebase>
                        <ntsc>FALSE</ntsc>
                      </rate>
                      <duration>139</duration>
                      <timecode>
                        <rate>
                          <timebase>24</timebase>
                          <ntsc>FALSE</ntsc>
                        </rate>
                      </timecode>
                      <media>
                        <video>
                          <duration>1</duration>
                          <samplecharacteristics>
                            <anamorphic>FALSE</anamorphic>
                            <pixelaspectratio>square</pixelaspectratio>
                            <fielddominance>none</fielddominance>
                            <width>686</width>
                            <height>511</height>
                          </samplecharacteristics>
                        </video>
                      </media>
                    </file>
                  </clipitem>
                </track>
              </video>
            </media>
          </clip>
          <clip explodedTracks="true" frameBlend="FALSE" id="masterclip-10">
            <uuid>e498ad31-851d-4505-904b-b6d4024c8645</uuid>
            <masterclipid>masterclip-10</masterclipid>
            <ismasterclip>TRUE</ismasterclip>
            <duration>139</duration>
            <in>0</in>
            <out>139</out>
            <name>Mike.008.png</name>
            <rate>
              <timebase>24</timebase>
              <ntsc>FALSE</ntsc>
            </rate>
            <media>
              <video>
                <track>
                  <clipitem frameBlend="FALSE" id="clipitem-11">
                    <name>Mike.008.png</name>
                    <masterclipid>masterclip-10</masterclipid>
                    <rate>
                      <timebase>24</timebase>
                      <ntsc>FALSE</ntsc>
                    </rate>
                    <alphatype>straight</alphatype>
                    <pixelaspectratio>square</pixelaspectratio>
                    <anamorphic>FALSE</anamorphic>
                    <file id="file-10">
                      <name>Mike.008.png</name>
                      <pathurl>file://localhost/Users/antoniochiappetta/OneDrive - Aalto University/University/Aalto/Hackatons/Junction/Junction2019-IoK-security_awareness_kids/Assets/Team Animations/Image Sequences/Mike/Mike.008.png</pathurl>
                      <rate>
                        <timebase>24</timebase>
                        <ntsc>FALSE</ntsc>
                      </rate>
                      <duration>139</duration>
                      <timecode>
                        <rate>
                          <timebase>24</timebase>
                          <ntsc>FALSE</ntsc>
                        </rate>
                      </timecode>
                      <media>
                        <video>
                          <duration>1</duration>
                          <samplecharacteristics>
                            <anamorphic>FALSE</anamorphic>
                            <pixelaspectratio>square</pixelaspectratio>
                            <fielddominance>none</fielddominance>
                            <width>686</width>
                            <height>511</height>
                          </samplecharacteristics>
                        </video>
                      </media>
                    </file>
                  </clipitem>
                </track>
              </video>
            </media>
          </clip>
          <clip explodedTracks="true" frameBlend="FALSE" id="masterclip-11">
            <uuid>b5214cd6-29a5-40c4-8014-a2ee0c8a7385</uuid>
            <masterclipid>masterclip-11</masterclipid>
            <ismasterclip>TRUE</ismasterclip>
            <duration>139</duration>
            <in>0</in>
            <out>139</out>
            <name>Mike.009.png</name>
            <rate>
              <timebase>24</timebase>
              <ntsc>FALSE</ntsc>
            </rate>
            <media>
              <video>
                <track>
                  <clipitem frameBlend="FALSE" id="clipitem-12">
                    <name>Mike.009.png</name>
                    <masterclipid>masterclip-11</masterclipid>
                    <rate>
                      <timebase>24</timebase>
                      <ntsc>FALSE</ntsc>
                    </rate>
                    <alphatype>straight</alphatype>
                    <pixelaspectratio>square</pixelaspectratio>
                    <anamorphic>FALSE</anamorphic>
                    <file id="file-11">
                      <name>Mike.009.png</name>
                      <pathurl>file://localhost/Users/antoniochiappetta/OneDrive - Aalto University/University/Aalto/Hackatons/Junction/Junction2019-IoK-security_awareness_kids/Assets/Team Animations/Image Sequences/Mike/Mike.009.png</pathurl>
                      <rate>
                        <timebase>24</timebase>
                        <ntsc>FALSE</ntsc>
                      </rate>
                      <duration>139</duration>
                      <timecode>
                        <rate>
                          <timebase>24</timebase>
                          <ntsc>FALSE</ntsc>
                        </rate>
                      </timecode>
                      <media>
                        <video>
                          <duration>1</duration>
                          <samplecharacteristics>
                            <anamorphic>FALSE</anamorphic>
                            <pixelaspectratio>square</pixelaspectratio>
                            <fielddominance>none</fielddominance>
                            <width>686</width>
                            <height>511</height>
                          </samplecharacteristics>
                        </video>
                      </media>
                    </file>
                  </clipitem>
                </track>
              </video>
            </media>
          </clip>
          <clip explodedTracks="true" frameBlend="FALSE" id="masterclip-12">
            <uuid>a3ba0f8e-4c39-4e2b-be60-a7deaa9f4c64</uuid>
            <masterclipid>masterclip-12</masterclipid>
            <ismasterclip>TRUE</ismasterclip>
            <duration>139</duration>
            <in>0</in>
            <out>139</out>
            <name>Mike.010.png</name>
            <rate>
              <timebase>24</timebase>
              <ntsc>FALSE</ntsc>
            </rate>
            <media>
              <video>
                <track>
                  <clipitem frameBlend="FALSE" id="clipitem-13">
                    <name>Mike.010.png</name>
                    <masterclipid>masterclip-12</masterclipid>
                    <rate>
                      <timebase>24</timebase>
                      <ntsc>FALSE</ntsc>
                    </rate>
                    <alphatype>straight</alphatype>
                    <pixelaspectratio>square</pixelaspectratio>
                    <anamorphic>FALSE</anamorphic>
                    <file id="file-12">
                      <name>Mike.010.png</name>
                      <pathurl>file://localhost/Users/antoniochiappetta/OneDrive - Aalto University/University/Aalto/Hackatons/Junction/Junction2019-IoK-security_awareness_kids/Assets/Team Animations/Image Sequences/Mike/Mike.010.png</pathurl>
                      <rate>
                        <timebase>24</timebase>
                        <ntsc>FALSE</ntsc>
                      </rate>
                      <duration>139</duration>
                      <timecode>
                        <rate>
                          <timebase>24</timebase>
                          <ntsc>FALSE</ntsc>
                        </rate>
                      </timecode>
                      <media>
                        <video>
                          <duration>1</duration>
                          <samplecharacteristics>
                            <anamorphic>FALSE</anamorphic>
                            <pixelaspectratio>square</pixelaspectratio>
                            <fielddominance>none</fielddominance>
                            <width>686</width>
                            <height>511</height>
                          </samplecharacteristics>
                        </video>
                      </media>
                    </file>
                  </clipitem>
                </track>
              </video>
            </media>
          </clip>
          <clip explodedTracks="true" frameBlend="FALSE" id="masterclip-13">
            <uuid>a6d0b42a-7bef-4a8a-a08c-c40e2c1758d0</uuid>
            <masterclipid>masterclip-13</masterclipid>
            <ismasterclip>TRUE</ismasterclip>
            <duration>139</duration>
            <in>0</in>
            <out>139</out>
            <name>Mike.011.png</name>
            <rate>
              <timebase>24</timebase>
              <ntsc>FALSE</ntsc>
            </rate>
            <media>
              <video>
                <track>
                  <clipitem frameBlend="FALSE" id="clipitem-14">
                    <name>Mike.011.png</name>
                    <masterclipid>masterclip-13</masterclipid>
                    <rate>
                      <timebase>24</timebase>
                      <ntsc>FALSE</ntsc>
                    </rate>
                    <alphatype>straight</alphatype>
                    <pixelaspectratio>square</pixelaspectratio>
                    <anamorphic>FALSE</anamorphic>
                    <file id="file-13">
                      <name>Mike.011.png</name>
                      <pathurl>file://localhost/Users/antoniochiappetta/OneDrive - Aalto University/University/Aalto/Hackatons/Junction/Junction2019-IoK-security_awareness_kids/Assets/Team Animations/Image Sequences/Mike/Mike.011.png</pathurl>
                      <rate>
                        <timebase>24</timebase>
                        <ntsc>FALSE</ntsc>
                      </rate>
                      <duration>139</duration>
                      <timecode>
                        <rate>
                          <timebase>24</timebase>
                          <ntsc>FALSE</ntsc>
                        </rate>
                      </timecode>
                      <media>
                        <video>
                          <duration>1</duration>
                          <samplecharacteristics>
                            <anamorphic>FALSE</anamorphic>
                            <pixelaspectratio>square</pixelaspectratio>
                            <fielddominance>none</fielddominance>
                            <width>686</width>
                            <height>511</height>
                          </samplecharacteristics>
                        </video>
                      </media>
                    </file>
                  </clipitem>
                </track>
              </video>
            </media>
          </clip>
          <clip explodedTracks="true" frameBlend="FALSE" id="masterclip-14">
            <uuid>81180a36-2982-40aa-bda9-c2b9505681d3</uuid>
            <masterclipid>masterclip-14</masterclipid>
            <ismasterclip>TRUE</ismasterclip>
            <duration>139</duration>
            <in>0</in>
            <out>139</out>
            <name>Mike.012.png</name>
            <rate>
              <timebase>24</timebase>
              <ntsc>FALSE</ntsc>
            </rate>
            <media>
              <video>
                <track>
                  <clipitem frameBlend="FALSE" id="clipitem-15">
                    <name>Mike.012.png</name>
                    <masterclipid>masterclip-14</masterclipid>
                    <rate>
                      <timebase>24</timebase>
                      <ntsc>FALSE</ntsc>
                    </rate>
                    <alphatype>straight</alphatype>
                    <pixelaspectratio>square</pixelaspectratio>
                    <anamorphic>FALSE</anamorphic>
                    <file id="file-14">
                      <name>Mike.012.png</name>
                      <pathurl>file://localhost/Users/antoniochiappetta/OneDrive - Aalto University/University/Aalto/Hackatons/Junction/Junction2019-IoK-security_awareness_kids/Assets/Team Animations/Image Sequences/Mike/Mike.012.png</pathurl>
                      <rate>
                        <timebase>24</timebase>
                        <ntsc>FALSE</ntsc>
                      </rate>
                      <duration>139</duration>
                      <timecode>
                        <rate>
                          <timebase>24</timebase>
                          <ntsc>FALSE</ntsc>
                        </rate>
                      </timecode>
                      <media>
                        <video>
                          <duration>1</duration>
                          <samplecharacteristics>
                            <anamorphic>FALSE</anamorphic>
                            <pixelaspectratio>square</pixelaspectratio>
                            <fielddominance>none</fielddominance>
                            <width>686</width>
                            <height>511</height>
                          </samplecharacteristics>
                        </video>
                      </media>
                    </file>
                  </clipitem>
                </track>
              </video>
            </media>
          </clip>
          <clip explodedTracks="true" frameBlend="FALSE" id="masterclip-15">
            <uuid>e1a51561-2d19-483e-b7b3-8b39e1c049e7</uuid>
            <masterclipid>masterclip-15</masterclipid>
            <ismasterclip>TRUE</ismasterclip>
            <duration>139</duration>
            <in>0</in>
            <out>139</out>
            <name>Mike.013.png</name>
            <rate>
              <timebase>24</timebase>
              <ntsc>FALSE</ntsc>
            </rate>
            <media>
              <video>
                <track>
                  <clipitem frameBlend="FALSE" id="clipitem-16">
                    <name>Mike.013.png</name>
                    <masterclipid>masterclip-15</masterclipid>
                    <rate>
                      <timebase>24</timebase>
                      <ntsc>FALSE</ntsc>
                    </rate>
                    <alphatype>straight</alphatype>
                    <pixelaspectratio>square</pixelaspectratio>
                    <anamorphic>FALSE</anamorphic>
                    <file id="file-15">
                      <name>Mike.013.png</name>
                      <pathurl>file://localhost/Users/antoniochiappetta/OneDrive - Aalto University/University/Aalto/Hackatons/Junction/Junction2019-IoK-security_awareness_kids/Assets/Team Animations/Image Sequences/Mike/Mike.013.png</pathurl>
                      <rate>
                        <timebase>24</timebase>
                        <ntsc>FALSE</ntsc>
                      </rate>
                      <duration>139</duration>
                      <timecode>
                        <rate>
                          <timebase>24</timebase>
                          <ntsc>FALSE</ntsc>
                        </rate>
                      </timecode>
                      <media>
                        <video>
                          <duration>1</duration>
                          <samplecharacteristics>
                            <anamorphic>FALSE</anamorphic>
                            <pixelaspectratio>square</pixelaspectratio>
                            <fielddominance>none</fielddominance>
                            <width>686</width>
                            <height>511</height>
                          </samplecharacteristics>
                        </video>
                      </media>
                    </file>
                  </clipitem>
                </track>
              </video>
            </media>
          </clip>
          <clip explodedTracks="true" frameBlend="FALSE" id="masterclip-16">
            <uuid>1db8bbda-cdd8-4874-81b0-d05cdc2317b8</uuid>
            <masterclipid>masterclip-16</masterclipid>
            <ismasterclip>TRUE</ismasterclip>
            <duration>139</duration>
            <in>0</in>
            <out>139</out>
            <name>Mike.014.png</name>
            <rate>
              <timebase>24</timebase>
              <ntsc>FALSE</ntsc>
            </rate>
            <media>
              <video>
                <track>
                  <clipitem frameBlend="FALSE" id="clipitem-17">
                    <name>Mike.014.png</name>
                    <masterclipid>masterclip-16</masterclipid>
                    <rate>
                      <timebase>24</timebase>
                      <ntsc>FALSE</ntsc>
                    </rate>
                    <alphatype>straight</alphatype>
                    <pixelaspectratio>square</pixelaspectratio>
                    <anamorphic>FALSE</anamorphic>
                    <file id="file-16">
                      <name>Mike.014.png</name>
                      <pathurl>file://localhost/Users/antoniochiappetta/OneDrive - Aalto University/University/Aalto/Hackatons/Junction/Junction2019-IoK-security_awareness_kids/Assets/Team Animations/Image Sequences/Mike/Mike.014.png</pathurl>
                      <rate>
                        <timebase>24</timebase>
                        <ntsc>FALSE</ntsc>
                      </rate>
                      <duration>139</duration>
                      <timecode>
                        <rate>
                          <timebase>24</timebase>
                          <ntsc>FALSE</ntsc>
                        </rate>
                      </timecode>
                      <media>
                        <video>
                          <duration>1</duration>
                          <samplecharacteristics>
                            <anamorphic>FALSE</anamorphic>
                            <pixelaspectratio>square</pixelaspectratio>
                            <fielddominance>none</fielddominance>
                            <width>686</width>
                            <height>511</height>
                          </samplecharacteristics>
                        </video>
                      </media>
                    </file>
                  </clipitem>
                </track>
              </video>
            </media>
          </clip>
          <clip explodedTracks="true" frameBlend="FALSE" id="masterclip-17">
            <uuid>6a99d33c-3054-43bb-9bcb-609f58b85f6a</uuid>
            <masterclipid>masterclip-17</masterclipid>
            <ismasterclip>TRUE</ismasterclip>
            <duration>139</duration>
            <in>0</in>
            <out>139</out>
            <name>Mike.015.png</name>
            <rate>
              <timebase>24</timebase>
              <ntsc>FALSE</ntsc>
            </rate>
            <media>
              <video>
                <track>
                  <clipitem frameBlend="FALSE" id="clipitem-18">
                    <name>Mike.015.png</name>
                    <masterclipid>masterclip-17</masterclipid>
                    <rate>
                      <timebase>24</timebase>
                      <ntsc>FALSE</ntsc>
                    </rate>
                    <alphatype>straight</alphatype>
                    <pixelaspectratio>square</pixelaspectratio>
                    <anamorphic>FALSE</anamorphic>
                    <file id="file-17">
                      <name>Mike.015.png</name>
                      <pathurl>file://localhost/Users/antoniochiappetta/OneDrive - Aalto University/University/Aalto/Hackatons/Junction/Junction2019-IoK-security_awareness_kids/Assets/Team Animations/Image Sequences/Mike/Mike.015.png</pathurl>
                      <rate>
                        <timebase>24</timebase>
                        <ntsc>FALSE</ntsc>
                      </rate>
                      <duration>139</duration>
                      <timecode>
                        <rate>
                          <timebase>24</timebase>
                          <ntsc>FALSE</ntsc>
                        </rate>
                      </timecode>
                      <media>
                        <video>
                          <duration>1</duration>
                          <samplecharacteristics>
                            <anamorphic>FALSE</anamorphic>
                            <pixelaspectratio>square</pixelaspectratio>
                            <fielddominance>none</fielddominance>
                            <width>686</width>
                            <height>511</height>
                          </samplecharacteristics>
                        </video>
                      </media>
                    </file>
                  </clipitem>
                </track>
              </video>
            </media>
          </clip>
          <clip explodedTracks="true" frameBlend="FALSE" id="masterclip-18">
            <uuid>62baefdb-c6a8-4633-bee1-cd674f08468b</uuid>
            <masterclipid>masterclip-18</masterclipid>
            <ismasterclip>TRUE</ismasterclip>
            <duration>139</duration>
            <in>0</in>
            <out>139</out>
            <name>Mike.016.png</name>
            <rate>
              <timebase>24</timebase>
              <ntsc>FALSE</ntsc>
            </rate>
            <media>
              <video>
                <track>
                  <clipitem frameBlend="FALSE" id="clipitem-19">
                    <name>Mike.016.png</name>
                    <masterclipid>masterclip-18</masterclipid>
                    <rate>
                      <timebase>24</timebase>
                      <ntsc>FALSE</ntsc>
                    </rate>
                    <alphatype>straight</alphatype>
                    <pixelaspectratio>square</pixelaspectratio>
                    <anamorphic>FALSE</anamorphic>
                    <file id="file-18">
                      <name>Mike.016.png</name>
                      <pathurl>file://localhost/Users/antoniochiappetta/OneDrive - Aalto University/University/Aalto/Hackatons/Junction/Junction2019-IoK-security_awareness_kids/Assets/Team Animations/Image Sequences/Mike/Mike.016.png</pathurl>
                      <rate>
                        <timebase>24</timebase>
                        <ntsc>FALSE</ntsc>
                      </rate>
                      <duration>139</duration>
                      <timecode>
                        <rate>
                          <timebase>24</timebase>
                          <ntsc>FALSE</ntsc>
                        </rate>
                      </timecode>
                      <media>
                        <video>
                          <duration>1</duration>
                          <samplecharacteristics>
                            <anamorphic>FALSE</anamorphic>
                            <pixelaspectratio>square</pixelaspectratio>
                            <fielddominance>none</fielddominance>
                            <width>686</width>
                            <height>511</height>
                          </samplecharacteristics>
                        </video>
                      </media>
                    </file>
                  </clipitem>
                </track>
              </video>
            </media>
          </clip>
          <clip explodedTracks="true" frameBlend="FALSE" id="masterclip-19">
            <uuid>10e8ade5-78bb-491a-a5eb-829bf291fe2f</uuid>
            <masterclipid>masterclip-19</masterclipid>
            <ismasterclip>TRUE</ismasterclip>
            <duration>139</duration>
            <in>0</in>
            <out>139</out>
            <name>Mike.017.png</name>
            <rate>
              <timebase>24</timebase>
              <ntsc>FALSE</ntsc>
            </rate>
            <media>
              <video>
                <track>
                  <clipitem frameBlend="FALSE" id="clipitem-20">
                    <name>Mike.017.png</name>
                    <masterclipid>masterclip-19</masterclipid>
                    <rate>
                      <timebase>24</timebase>
                      <ntsc>FALSE</ntsc>
                    </rate>
                    <alphatype>straight</alphatype>
                    <pixelaspectratio>square</pixelaspectratio>
                    <anamorphic>FALSE</anamorphic>
                    <file id="file-19">
                      <name>Mike.017.png</name>
                      <pathurl>file://localhost/Users/antoniochiappetta/OneDrive - Aalto University/University/Aalto/Hackatons/Junction/Junction2019-IoK-security_awareness_kids/Assets/Team Animations/Image Sequences/Mike/Mike.017.png</pathurl>
                      <rate>
                        <timebase>24</timebase>
                        <ntsc>FALSE</ntsc>
                      </rate>
                      <duration>139</duration>
                      <timecode>
                        <rate>
                          <timebase>24</timebase>
                          <ntsc>FALSE</ntsc>
                        </rate>
                      </timecode>
                      <media>
                        <video>
                          <duration>1</duration>
                          <samplecharacteristics>
                            <anamorphic>FALSE</anamorphic>
                            <pixelaspectratio>square</pixelaspectratio>
                            <fielddominance>none</fielddominance>
                            <width>686</width>
                            <height>511</height>
                          </samplecharacteristics>
                        </video>
                      </media>
                    </file>
                  </clipitem>
                </track>
              </video>
            </media>
          </clip>
          <clip explodedTracks="true" frameBlend="FALSE" id="masterclip-20">
            <uuid>72a4455b-c91d-45b6-8cf1-b4875852b9b1</uuid>
            <masterclipid>masterclip-20</masterclipid>
            <ismasterclip>TRUE</ismasterclip>
            <duration>139</duration>
            <in>0</in>
            <out>139</out>
            <name>Mike.018.png</name>
            <rate>
              <timebase>24</timebase>
              <ntsc>FALSE</ntsc>
            </rate>
            <media>
              <video>
                <track>
                  <clipitem frameBlend="FALSE" id="clipitem-21">
                    <name>Mike.018.png</name>
                    <masterclipid>masterclip-20</masterclipid>
                    <rate>
                      <timebase>24</timebase>
                      <ntsc>FALSE</ntsc>
                    </rate>
                    <alphatype>straight</alphatype>
                    <pixelaspectratio>square</pixelaspectratio>
                    <anamorphic>FALSE</anamorphic>
                    <file id="file-20">
                      <name>Mike.018.png</name>
                      <pathurl>file://localhost/Users/antoniochiappetta/OneDrive - Aalto University/University/Aalto/Hackatons/Junction/Junction2019-IoK-security_awareness_kids/Assets/Team Animations/Image Sequences/Mike/Mike.018.png</pathurl>
                      <rate>
                        <timebase>24</timebase>
                        <ntsc>FALSE</ntsc>
                      </rate>
                      <duration>139</duration>
                      <timecode>
                        <rate>
                          <timebase>24</timebase>
                          <ntsc>FALSE</ntsc>
                        </rate>
                      </timecode>
                      <media>
                        <video>
                          <duration>1</duration>
                          <samplecharacteristics>
                            <anamorphic>FALSE</anamorphic>
                            <pixelaspectratio>square</pixelaspectratio>
                            <fielddominance>none</fielddominance>
                            <width>686</width>
                            <height>511</height>
                          </samplecharacteristics>
                        </video>
                      </media>
                    </file>
                  </clipitem>
                </track>
              </video>
            </media>
          </clip>
          <clip explodedTracks="true" frameBlend="FALSE" id="masterclip-21">
            <uuid>86777f04-1b47-424f-b9ce-ea1ded8aaa0a</uuid>
            <masterclipid>masterclip-21</masterclipid>
            <ismasterclip>TRUE</ismasterclip>
            <duration>139</duration>
            <in>0</in>
            <out>139</out>
            <name>Mike.019.png</name>
            <rate>
              <timebase>24</timebase>
              <ntsc>FALSE</ntsc>
            </rate>
            <media>
              <video>
                <track>
                  <clipitem frameBlend="FALSE" id="clipitem-22">
                    <name>Mike.019.png</name>
                    <masterclipid>masterclip-21</masterclipid>
                    <rate>
                      <timebase>24</timebase>
                      <ntsc>FALSE</ntsc>
                    </rate>
                    <alphatype>straight</alphatype>
                    <pixelaspectratio>square</pixelaspectratio>
                    <anamorphic>FALSE</anamorphic>
                    <file id="file-21">
                      <name>Mike.019.png</name>
                      <pathurl>file://localhost/Users/antoniochiappetta/OneDrive - Aalto University/University/Aalto/Hackatons/Junction/Junction2019-IoK-security_awareness_kids/Assets/Team Animations/Image Sequences/Mike/Mike.019.png</pathurl>
                      <rate>
                        <timebase>24</timebase>
                        <ntsc>FALSE</ntsc>
                      </rate>
                      <duration>139</duration>
                      <timecode>
                        <rate>
                          <timebase>24</timebase>
                          <ntsc>FALSE</ntsc>
                        </rate>
                      </timecode>
                      <media>
                        <video>
                          <duration>1</duration>
                          <samplecharacteristics>
                            <anamorphic>FALSE</anamorphic>
                            <pixelaspectratio>square</pixelaspectratio>
                            <fielddominance>none</fielddominance>
                            <width>686</width>
                            <height>511</height>
                          </samplecharacteristics>
                        </video>
                      </media>
                    </file>
                  </clipitem>
                </track>
              </video>
            </media>
          </clip>
          <clip explodedTracks="true" frameBlend="FALSE" id="masterclip-22">
            <uuid>eb6f8b42-f67e-4d06-a7b4-14a065b653fd</uuid>
            <masterclipid>masterclip-22</masterclipid>
            <ismasterclip>TRUE</ismasterclip>
            <duration>139</duration>
            <in>0</in>
            <out>139</out>
            <name>Mike.020.png</name>
            <rate>
              <timebase>24</timebase>
              <ntsc>FALSE</ntsc>
            </rate>
            <media>
              <video>
                <track>
                  <clipitem frameBlend="FALSE" id="clipitem-23">
                    <name>Mike.020.png</name>
                    <masterclipid>masterclip-22</masterclipid>
                    <rate>
                      <timebase>24</timebase>
                      <ntsc>FALSE</ntsc>
                    </rate>
                    <alphatype>straight</alphatype>
                    <pixelaspectratio>square</pixelaspectratio>
                    <anamorphic>FALSE</anamorphic>
                    <file id="file-22">
                      <name>Mike.020.png</name>
                      <pathurl>file://localhost/Users/antoniochiappetta/OneDrive - Aalto University/University/Aalto/Hackatons/Junction/Junction2019-IoK-security_awareness_kids/Assets/Team Animations/Image Sequences/Mike/Mike.020.png</pathurl>
                      <rate>
                        <timebase>24</timebase>
                        <ntsc>FALSE</ntsc>
                      </rate>
                      <duration>139</duration>
                      <timecode>
                        <rate>
                          <timebase>24</timebase>
                          <ntsc>FALSE</ntsc>
                        </rate>
                      </timecode>
                      <media>
                        <video>
                          <duration>1</duration>
                          <samplecharacteristics>
                            <anamorphic>FALSE</anamorphic>
                            <pixelaspectratio>square</pixelaspectratio>
                            <fielddominance>none</fielddominance>
                            <width>686</width>
                            <height>511</height>
                          </samplecharacteristics>
                        </video>
                      </media>
                    </file>
                  </clipitem>
                </track>
              </video>
            </media>
          </clip>
          <clip explodedTracks="true" frameBlend="FALSE" id="masterclip-23">
            <uuid>61f67d8f-617a-4e2e-b74d-c374a868c813</uuid>
            <masterclipid>masterclip-23</masterclipid>
            <ismasterclip>TRUE</ismasterclip>
            <duration>139</duration>
            <in>0</in>
            <out>139</out>
            <name>Mike.021.png</name>
            <rate>
              <timebase>24</timebase>
              <ntsc>FALSE</ntsc>
            </rate>
            <media>
              <video>
                <track>
                  <clipitem frameBlend="FALSE" id="clipitem-24">
                    <name>Mike.021.png</name>
                    <masterclipid>masterclip-23</masterclipid>
                    <rate>
                      <timebase>24</timebase>
                      <ntsc>FALSE</ntsc>
                    </rate>
                    <alphatype>straight</alphatype>
                    <pixelaspectratio>square</pixelaspectratio>
                    <anamorphic>FALSE</anamorphic>
                    <file id="file-23">
                      <name>Mike.021.png</name>
                      <pathurl>file://localhost/Users/antoniochiappetta/OneDrive - Aalto University/University/Aalto/Hackatons/Junction/Junction2019-IoK-security_awareness_kids/Assets/Team Animations/Image Sequences/Mike/Mike.021.png</pathurl>
                      <rate>
                        <timebase>24</timebase>
                        <ntsc>FALSE</ntsc>
                      </rate>
                      <duration>139</duration>
                      <timecode>
                        <rate>
                          <timebase>24</timebase>
                          <ntsc>FALSE</ntsc>
                        </rate>
                      </timecode>
                      <media>
                        <video>
                          <duration>1</duration>
                          <samplecharacteristics>
                            <anamorphic>FALSE</anamorphic>
                            <pixelaspectratio>square</pixelaspectratio>
                            <fielddominance>none</fielddominance>
                            <width>686</width>
                            <height>511</height>
                          </samplecharacteristics>
                        </video>
                      </media>
                    </file>
                  </clipitem>
                </track>
              </video>
            </media>
          </clip>
          <clip explodedTracks="true" frameBlend="FALSE" id="masterclip-24">
            <uuid>d1ee2af1-dd33-4e2c-910b-4aa54f556a4c</uuid>
            <masterclipid>masterclip-24</masterclipid>
            <ismasterclip>TRUE</ismasterclip>
            <duration>139</duration>
            <in>0</in>
            <out>139</out>
            <name>Mike.022.png</name>
            <rate>
              <timebase>24</timebase>
              <ntsc>FALSE</ntsc>
            </rate>
            <media>
              <video>
                <track>
                  <clipitem frameBlend="FALSE" id="clipitem-25">
                    <name>Mike.022.png</name>
                    <masterclipid>masterclip-24</masterclipid>
                    <rate>
                      <timebase>24</timebase>
                      <ntsc>FALSE</ntsc>
                    </rate>
                    <alphatype>straight</alphatype>
                    <pixelaspectratio>square</pixelaspectratio>
                    <anamorphic>FALSE</anamorphic>
                    <file id="file-24">
                      <name>Mike.022.png</name>
                      <pathurl>file://localhost/Users/antoniochiappetta/OneDrive - Aalto University/University/Aalto/Hackatons/Junction/Junction2019-IoK-security_awareness_kids/Assets/Team Animations/Image Sequences/Mike/Mike.022.png</pathurl>
                      <rate>
                        <timebase>24</timebase>
                        <ntsc>FALSE</ntsc>
                      </rate>
                      <duration>139</duration>
                      <timecode>
                        <rate>
                          <timebase>24</timebase>
                          <ntsc>FALSE</ntsc>
                        </rate>
                      </timecode>
                      <media>
                        <video>
                          <duration>1</duration>
                          <samplecharacteristics>
                            <anamorphic>FALSE</anamorphic>
                            <pixelaspectratio>square</pixelaspectratio>
                            <fielddominance>none</fielddominance>
                            <width>686</width>
                            <height>511</height>
                          </samplecharacteristics>
                        </video>
                      </media>
                    </file>
                  </clipitem>
                </track>
              </video>
            </media>
          </clip>
          <clip explodedTracks="true" frameBlend="FALSE" id="masterclip-25">
            <uuid>8586866e-a87f-4a70-8d17-c6f4ceae1bab</uuid>
            <masterclipid>masterclip-25</masterclipid>
            <ismasterclip>TRUE</ismasterclip>
            <duration>139</duration>
            <in>0</in>
            <out>139</out>
            <name>Mike.023.png</name>
            <rate>
              <timebase>24</timebase>
              <ntsc>FALSE</ntsc>
            </rate>
            <media>
              <video>
                <track>
                  <clipitem frameBlend="FALSE" id="clipitem-26">
                    <name>Mike.023.png</name>
                    <masterclipid>masterclip-25</masterclipid>
                    <rate>
                      <timebase>24</timebase>
                      <ntsc>FALSE</ntsc>
                    </rate>
                    <alphatype>straight</alphatype>
                    <pixelaspectratio>square</pixelaspectratio>
                    <anamorphic>FALSE</anamorphic>
                    <file id="file-25">
                      <name>Mike.023.png</name>
                      <pathurl>file://localhost/Users/antoniochiappetta/OneDrive - Aalto University/University/Aalto/Hackatons/Junction/Junction2019-IoK-security_awareness_kids/Assets/Team Animations/Image Sequences/Mike/Mike.023.png</pathurl>
                      <rate>
                        <timebase>24</timebase>
                        <ntsc>FALSE</ntsc>
                      </rate>
                      <duration>139</duration>
                      <timecode>
                        <rate>
                          <timebase>24</timebase>
                          <ntsc>FALSE</ntsc>
                        </rate>
                      </timecode>
                      <media>
                        <video>
                          <duration>1</duration>
                          <samplecharacteristics>
                            <anamorphic>FALSE</anamorphic>
                            <pixelaspectratio>square</pixelaspectratio>
                            <fielddominance>none</fielddominance>
                            <width>686</width>
                            <height>511</height>
                          </samplecharacteristics>
                        </video>
                      </media>
                    </file>
                  </clipitem>
                </track>
              </video>
            </media>
          </clip>
          <clip explodedTracks="true" frameBlend="FALSE" id="masterclip-26">
            <uuid>422aee66-bc6b-4e64-b11b-f6f3d96049fc</uuid>
            <masterclipid>masterclip-26</masterclipid>
            <ismasterclip>TRUE</ismasterclip>
            <duration>139</duration>
            <in>0</in>
            <out>139</out>
            <name>Mike.024.png</name>
            <rate>
              <timebase>24</timebase>
              <ntsc>FALSE</ntsc>
            </rate>
            <media>
              <video>
                <track>
                  <clipitem frameBlend="FALSE" id="clipitem-27">
                    <name>Mike.024.png</name>
                    <masterclipid>masterclip-26</masterclipid>
                    <rate>
                      <timebase>24</timebase>
                      <ntsc>FALSE</ntsc>
                    </rate>
                    <alphatype>straight</alphatype>
                    <pixelaspectratio>square</pixelaspectratio>
                    <anamorphic>FALSE</anamorphic>
                    <file id="file-26">
                      <name>Mike.024.png</name>
                      <pathurl>file://localhost/Users/antoniochiappetta/OneDrive - Aalto University/University/Aalto/Hackatons/Junction/Junction2019-IoK-security_awareness_kids/Assets/Team Animations/Image Sequences/Mike/Mike.024.png</pathurl>
                      <rate>
                        <timebase>24</timebase>
                        <ntsc>FALSE</ntsc>
                      </rate>
                      <duration>139</duration>
                      <timecode>
                        <rate>
                          <timebase>24</timebase>
                          <ntsc>FALSE</ntsc>
                        </rate>
                      </timecode>
                      <media>
                        <video>
                          <duration>1</duration>
                          <samplecharacteristics>
                            <anamorphic>FALSE</anamorphic>
                            <pixelaspectratio>square</pixelaspectratio>
                            <fielddominance>none</fielddominance>
                            <width>686</width>
                            <height>511</height>
                          </samplecharacteristics>
                        </video>
                      </media>
                    </file>
                  </clipitem>
                </track>
              </video>
            </media>
          </clip>
          <clip explodedTracks="true" frameBlend="FALSE" id="masterclip-27">
            <uuid>ba2324b7-ab43-4627-9316-8b91c45f0817</uuid>
            <masterclipid>masterclip-27</masterclipid>
            <ismasterclip>TRUE</ismasterclip>
            <duration>139</duration>
            <in>0</in>
            <out>139</out>
            <name>Mike.025.png</name>
            <rate>
              <timebase>24</timebase>
              <ntsc>FALSE</ntsc>
            </rate>
            <media>
              <video>
                <track>
                  <clipitem frameBlend="FALSE" id="clipitem-28">
                    <name>Mike.025.png</name>
                    <masterclipid>masterclip-27</masterclipid>
                    <rate>
                      <timebase>24</timebase>
                      <ntsc>FALSE</ntsc>
                    </rate>
                    <alphatype>straight</alphatype>
                    <pixelaspectratio>square</pixelaspectratio>
                    <anamorphic>FALSE</anamorphic>
                    <file id="file-27">
                      <name>Mike.025.png</name>
                      <pathurl>file://localhost/Users/antoniochiappetta/OneDrive - Aalto University/University/Aalto/Hackatons/Junction/Junction2019-IoK-security_awareness_kids/Assets/Team Animations/Image Sequences/Mike/Mike.025.png</pathurl>
                      <rate>
                        <timebase>24</timebase>
                        <ntsc>FALSE</ntsc>
                      </rate>
                      <duration>139</duration>
                      <timecode>
                        <rate>
                          <timebase>24</timebase>
                          <ntsc>FALSE</ntsc>
                        </rate>
                      </timecode>
                      <media>
                        <video>
                          <duration>1</duration>
                          <samplecharacteristics>
                            <anamorphic>FALSE</anamorphic>
                            <pixelaspectratio>square</pixelaspectratio>
                            <fielddominance>none</fielddominance>
                            <width>686</width>
                            <height>511</height>
                          </samplecharacteristics>
                        </video>
                      </media>
                    </file>
                  </clipitem>
                </track>
              </video>
            </media>
          </clip>
          <clip explodedTracks="true" frameBlend="FALSE" id="masterclip-28">
            <uuid>9bb95389-62e5-4d06-85bb-8b05345f744b</uuid>
            <masterclipid>masterclip-28</masterclipid>
            <ismasterclip>TRUE</ismasterclip>
            <duration>139</duration>
            <in>0</in>
            <out>139</out>
            <name>Mike.026.png</name>
            <rate>
              <timebase>24</timebase>
              <ntsc>FALSE</ntsc>
            </rate>
            <media>
              <video>
                <track>
                  <clipitem frameBlend="FALSE" id="clipitem-29">
                    <name>Mike.026.png</name>
                    <masterclipid>masterclip-28</masterclipid>
                    <rate>
                      <timebase>24</timebase>
                      <ntsc>FALSE</ntsc>
                    </rate>
                    <alphatype>straight</alphatype>
                    <pixelaspectratio>square</pixelaspectratio>
                    <anamorphic>FALSE</anamorphic>
                    <file id="file-28">
                      <name>Mike.026.png</name>
                      <pathurl>file://localhost/Users/antoniochiappetta/OneDrive - Aalto University/University/Aalto/Hackatons/Junction/Junction2019-IoK-security_awareness_kids/Assets/Team Animations/Image Sequences/Mike/Mike.026.png</pathurl>
                      <rate>
                        <timebase>24</timebase>
                        <ntsc>FALSE</ntsc>
                      </rate>
                      <duration>139</duration>
                      <timecode>
                        <rate>
                          <timebase>24</timebase>
                          <ntsc>FALSE</ntsc>
                        </rate>
                      </timecode>
                      <media>
                        <video>
                          <duration>1</duration>
                          <samplecharacteristics>
                            <anamorphic>FALSE</anamorphic>
                            <pixelaspectratio>square</pixelaspectratio>
                            <fielddominance>none</fielddominance>
                            <width>686</width>
                            <height>511</height>
                          </samplecharacteristics>
                        </video>
                      </media>
                    </file>
                  </clipitem>
                </track>
              </video>
            </media>
          </clip>
          <clip explodedTracks="true" frameBlend="FALSE" id="masterclip-29">
            <uuid>1922fece-e106-473c-8e8e-6f76822bc283</uuid>
            <masterclipid>masterclip-29</masterclipid>
            <ismasterclip>TRUE</ismasterclip>
            <duration>139</duration>
            <in>0</in>
            <out>139</out>
            <name>Mike.027.png</name>
            <rate>
              <timebase>24</timebase>
              <ntsc>FALSE</ntsc>
            </rate>
            <media>
              <video>
                <track>
                  <clipitem frameBlend="FALSE" id="clipitem-30">
                    <name>Mike.027.png</name>
                    <masterclipid>masterclip-29</masterclipid>
                    <rate>
                      <timebase>24</timebase>
                      <ntsc>FALSE</ntsc>
                    </rate>
                    <alphatype>straight</alphatype>
                    <pixelaspectratio>square</pixelaspectratio>
                    <anamorphic>FALSE</anamorphic>
                    <file id="file-29">
                      <name>Mike.027.png</name>
                      <pathurl>file://localhost/Users/antoniochiappetta/OneDrive - Aalto University/University/Aalto/Hackatons/Junction/Junction2019-IoK-security_awareness_kids/Assets/Team Animations/Image Sequences/Mike/Mike.027.png</pathurl>
                      <rate>
                        <timebase>24</timebase>
                        <ntsc>FALSE</ntsc>
                      </rate>
                      <duration>139</duration>
                      <timecode>
                        <rate>
                          <timebase>24</timebase>
                          <ntsc>FALSE</ntsc>
                        </rate>
                      </timecode>
                      <media>
                        <video>
                          <duration>1</duration>
                          <samplecharacteristics>
                            <anamorphic>FALSE</anamorphic>
                            <pixelaspectratio>square</pixelaspectratio>
                            <fielddominance>none</fielddominance>
                            <width>686</width>
                            <height>511</height>
                          </samplecharacteristics>
                        </video>
                      </media>
                    </file>
                  </clipitem>
                </track>
              </video>
            </media>
          </clip>
          <clip explodedTracks="true" frameBlend="FALSE" id="masterclip-30">
            <uuid>3f82bce0-7fc5-490f-b23c-d1dfca983e5d</uuid>
            <masterclipid>masterclip-30</masterclipid>
            <ismasterclip>TRUE</ismasterclip>
            <duration>139</duration>
            <in>0</in>
            <out>139</out>
            <name>Mike.028.png</name>
            <rate>
              <timebase>24</timebase>
              <ntsc>FALSE</ntsc>
            </rate>
            <media>
              <video>
                <track>
                  <clipitem frameBlend="FALSE" id="clipitem-31">
                    <name>Mike.028.png</name>
                    <masterclipid>masterclip-30</masterclipid>
                    <rate>
                      <timebase>24</timebase>
                      <ntsc>FALSE</ntsc>
                    </rate>
                    <alphatype>straight</alphatype>
                    <pixelaspectratio>square</pixelaspectratio>
                    <anamorphic>FALSE</anamorphic>
                    <file id="file-30">
                      <name>Mike.028.png</name>
                      <pathurl>file://localhost/Users/antoniochiappetta/OneDrive - Aalto University/University/Aalto/Hackatons/Junction/Junction2019-IoK-security_awareness_kids/Assets/Team Animations/Image Sequences/Mike/Mike.028.png</pathurl>
                      <rate>
                        <timebase>24</timebase>
                        <ntsc>FALSE</ntsc>
                      </rate>
                      <duration>139</duration>
                      <timecode>
                        <rate>
                          <timebase>24</timebase>
                          <ntsc>FALSE</ntsc>
                        </rate>
                      </timecode>
                      <media>
                        <video>
                          <duration>1</duration>
                          <samplecharacteristics>
                            <anamorphic>FALSE</anamorphic>
                            <pixelaspectratio>square</pixelaspectratio>
                            <fielddominance>none</fielddominance>
                            <width>686</width>
                            <height>511</height>
                          </samplecharacteristics>
                        </video>
                      </media>
                    </file>
                  </clipitem>
                </track>
              </video>
            </media>
          </clip>
          <clip explodedTracks="true" frameBlend="FALSE" id="masterclip-31">
            <uuid>6c1663e9-2573-4b17-8e60-a0c006aa18e9</uuid>
            <masterclipid>masterclip-31</masterclipid>
            <ismasterclip>TRUE</ismasterclip>
            <duration>139</duration>
            <in>0</in>
            <out>139</out>
            <name>Mike.029.png</name>
            <rate>
              <timebase>24</timebase>
              <ntsc>FALSE</ntsc>
            </rate>
            <media>
              <video>
                <track>
                  <clipitem frameBlend="FALSE" id="clipitem-32">
                    <name>Mike.029.png</name>
                    <masterclipid>masterclip-31</masterclipid>
                    <rate>
                      <timebase>24</timebase>
                      <ntsc>FALSE</ntsc>
                    </rate>
                    <alphatype>straight</alphatype>
                    <pixelaspectratio>square</pixelaspectratio>
                    <anamorphic>FALSE</anamorphic>
                    <file id="file-31">
                      <name>Mike.029.png</name>
                      <pathurl>file://localhost/Users/antoniochiappetta/OneDrive - Aalto University/University/Aalto/Hackatons/Junction/Junction2019-IoK-security_awareness_kids/Assets/Team Animations/Image Sequences/Mike/Mike.029.png</pathurl>
                      <rate>
                        <timebase>24</timebase>
                        <ntsc>FALSE</ntsc>
                      </rate>
                      <duration>139</duration>
                      <timecode>
                        <rate>
                          <timebase>24</timebase>
                          <ntsc>FALSE</ntsc>
                        </rate>
                      </timecode>
                      <media>
                        <video>
                          <duration>1</duration>
                          <samplecharacteristics>
                            <anamorphic>FALSE</anamorphic>
                            <pixelaspectratio>square</pixelaspectratio>
                            <fielddominance>none</fielddominance>
                            <width>686</width>
                            <height>511</height>
                          </samplecharacteristics>
                        </video>
                      </media>
                    </file>
                  </clipitem>
                </track>
              </video>
            </media>
          </clip>
          <clip explodedTracks="true" frameBlend="FALSE" id="masterclip-32">
            <uuid>238e1931-99ab-4c3f-aa40-0771d8ae6ae0</uuid>
            <masterclipid>masterclip-32</masterclipid>
            <ismasterclip>TRUE</ismasterclip>
            <duration>139</duration>
            <in>0</in>
            <out>139</out>
            <name>Mike.030.png</name>
            <rate>
              <timebase>24</timebase>
              <ntsc>FALSE</ntsc>
            </rate>
            <media>
              <video>
                <track>
                  <clipitem frameBlend="FALSE" id="clipitem-33">
                    <name>Mike.030.png</name>
                    <masterclipid>masterclip-32</masterclipid>
                    <rate>
                      <timebase>24</timebase>
                      <ntsc>FALSE</ntsc>
                    </rate>
                    <alphatype>straight</alphatype>
                    <pixelaspectratio>square</pixelaspectratio>
                    <anamorphic>FALSE</anamorphic>
                    <file id="file-32">
                      <name>Mike.030.png</name>
                      <pathurl>file://localhost/Users/antoniochiappetta/OneDrive - Aalto University/University/Aalto/Hackatons/Junction/Junction2019-IoK-security_awareness_kids/Assets/Team Animations/Image Sequences/Mike/Mike.030.png</pathurl>
                      <rate>
                        <timebase>24</timebase>
                        <ntsc>FALSE</ntsc>
                      </rate>
                      <duration>139</duration>
                      <timecode>
                        <rate>
                          <timebase>24</timebase>
                          <ntsc>FALSE</ntsc>
                        </rate>
                      </timecode>
                      <media>
                        <video>
                          <duration>1</duration>
                          <samplecharacteristics>
                            <anamorphic>FALSE</anamorphic>
                            <pixelaspectratio>square</pixelaspectratio>
                            <fielddominance>none</fielddominance>
                            <width>686</width>
                            <height>511</height>
                          </samplecharacteristics>
                        </video>
                      </media>
                    </file>
                  </clipitem>
                </track>
              </video>
            </media>
          </clip>
          <clip explodedTracks="true" frameBlend="FALSE" id="masterclip-33">
            <uuid>3bccce3a-af36-41c8-b641-25f58117a5b7</uuid>
            <masterclipid>masterclip-33</masterclipid>
            <ismasterclip>TRUE</ismasterclip>
            <duration>139</duration>
            <in>0</in>
            <out>139</out>
            <name>Mike.031.png</name>
            <rate>
              <timebase>24</timebase>
              <ntsc>FALSE</ntsc>
            </rate>
            <media>
              <video>
                <track>
                  <clipitem frameBlend="FALSE" id="clipitem-34">
                    <name>Mike.031.png</name>
                    <masterclipid>masterclip-33</masterclipid>
                    <rate>
                      <timebase>24</timebase>
                      <ntsc>FALSE</ntsc>
                    </rate>
                    <alphatype>straight</alphatype>
                    <pixelaspectratio>square</pixelaspectratio>
                    <anamorphic>FALSE</anamorphic>
                    <file id="file-33">
                      <name>Mike.031.png</name>
                      <pathurl>file://localhost/Users/antoniochiappetta/OneDrive - Aalto University/University/Aalto/Hackatons/Junction/Junction2019-IoK-security_awareness_kids/Assets/Team Animations/Image Sequences/Mike/Mike.031.png</pathurl>
                      <rate>
                        <timebase>24</timebase>
                        <ntsc>FALSE</ntsc>
                      </rate>
                      <duration>139</duration>
                      <timecode>
                        <rate>
                          <timebase>24</timebase>
                          <ntsc>FALSE</ntsc>
                        </rate>
                      </timecode>
                      <media>
                        <video>
                          <duration>1</duration>
                          <samplecharacteristics>
                            <anamorphic>FALSE</anamorphic>
                            <pixelaspectratio>square</pixelaspectratio>
                            <fielddominance>none</fielddominance>
                            <width>686</width>
                            <height>511</height>
                          </samplecharacteristics>
                        </video>
                      </media>
                    </file>
                  </clipitem>
                </track>
              </video>
            </media>
          </clip>
          <clip explodedTracks="true" frameBlend="FALSE" id="masterclip-34">
            <uuid>75c3d021-8164-4130-aae0-c8d2ef414e65</uuid>
            <masterclipid>masterclip-34</masterclipid>
            <ismasterclip>TRUE</ismasterclip>
            <duration>139</duration>
            <in>0</in>
            <out>139</out>
            <name>Mike.032.png</name>
            <rate>
              <timebase>24</timebase>
              <ntsc>FALSE</ntsc>
            </rate>
            <media>
              <video>
                <track>
                  <clipitem frameBlend="FALSE" id="clipitem-35">
                    <name>Mike.032.png</name>
                    <masterclipid>masterclip-34</masterclipid>
                    <rate>
                      <timebase>24</timebase>
                      <ntsc>FALSE</ntsc>
                    </rate>
                    <alphatype>straight</alphatype>
                    <pixelaspectratio>square</pixelaspectratio>
                    <anamorphic>FALSE</anamorphic>
                    <file id="file-34">
                      <name>Mike.032.png</name>
                      <pathurl>file://localhost/Users/antoniochiappetta/OneDrive - Aalto University/University/Aalto/Hackatons/Junction/Junction2019-IoK-security_awareness_kids/Assets/Team Animations/Image Sequences/Mike/Mike.032.png</pathurl>
                      <rate>
                        <timebase>24</timebase>
                        <ntsc>FALSE</ntsc>
                      </rate>
                      <duration>139</duration>
                      <timecode>
                        <rate>
                          <timebase>24</timebase>
                          <ntsc>FALSE</ntsc>
                        </rate>
                      </timecode>
                      <media>
                        <video>
                          <duration>1</duration>
                          <samplecharacteristics>
                            <anamorphic>FALSE</anamorphic>
                            <pixelaspectratio>square</pixelaspectratio>
                            <fielddominance>none</fielddominance>
                            <width>686</width>
                            <height>511</height>
                          </samplecharacteristics>
                        </video>
                      </media>
                    </file>
                  </clipitem>
                </track>
              </video>
            </media>
          </clip>
          <clip explodedTracks="true" frameBlend="FALSE" id="masterclip-35">
            <uuid>3e11b3c4-27e8-49d9-b7c4-392fe37fcc9f</uuid>
            <masterclipid>masterclip-35</masterclipid>
            <ismasterclip>TRUE</ismasterclip>
            <duration>139</duration>
            <in>0</in>
            <out>139</out>
            <name>Mike.033.png</name>
            <rate>
              <timebase>24</timebase>
              <ntsc>FALSE</ntsc>
            </rate>
            <media>
              <video>
                <track>
                  <clipitem frameBlend="FALSE" id="clipitem-36">
                    <name>Mike.033.png</name>
                    <masterclipid>masterclip-35</masterclipid>
                    <rate>
                      <timebase>24</timebase>
                      <ntsc>FALSE</ntsc>
                    </rate>
                    <alphatype>straight</alphatype>
                    <pixelaspectratio>square</pixelaspectratio>
                    <anamorphic>FALSE</anamorphic>
                    <file id="file-35">
                      <name>Mike.033.png</name>
                      <pathurl>file://localhost/Users/antoniochiappetta/OneDrive - Aalto University/University/Aalto/Hackatons/Junction/Junction2019-IoK-security_awareness_kids/Assets/Team Animations/Image Sequences/Mike/Mike.033.png</pathurl>
                      <rate>
                        <timebase>24</timebase>
                        <ntsc>FALSE</ntsc>
                      </rate>
                      <duration>139</duration>
                      <timecode>
                        <rate>
                          <timebase>24</timebase>
                          <ntsc>FALSE</ntsc>
                        </rate>
                      </timecode>
                      <media>
                        <video>
                          <duration>1</duration>
                          <samplecharacteristics>
                            <anamorphic>FALSE</anamorphic>
                            <pixelaspectratio>square</pixelaspectratio>
                            <fielddominance>none</fielddominance>
                            <width>686</width>
                            <height>511</height>
                          </samplecharacteristics>
                        </video>
                      </media>
                    </file>
                  </clipitem>
                </track>
              </video>
            </media>
          </clip>
          <clip explodedTracks="true" frameBlend="FALSE" id="masterclip-36">
            <uuid>aa692002-3fa9-489c-ab7a-4fe5a0c4751c</uuid>
            <masterclipid>masterclip-36</masterclipid>
            <ismasterclip>TRUE</ismasterclip>
            <duration>139</duration>
            <in>0</in>
            <out>139</out>
            <name>Mike.034.png</name>
            <rate>
              <timebase>24</timebase>
              <ntsc>FALSE</ntsc>
            </rate>
            <media>
              <video>
                <track>
                  <clipitem frameBlend="FALSE" id="clipitem-37">
                    <name>Mike.034.png</name>
                    <masterclipid>masterclip-36</masterclipid>
                    <rate>
                      <timebase>24</timebase>
                      <ntsc>FALSE</ntsc>
                    </rate>
                    <alphatype>straight</alphatype>
                    <pixelaspectratio>square</pixelaspectratio>
                    <anamorphic>FALSE</anamorphic>
                    <file id="file-36">
                      <name>Mike.034.png</name>
                      <pathurl>file://localhost/Users/antoniochiappetta/OneDrive - Aalto University/University/Aalto/Hackatons/Junction/Junction2019-IoK-security_awareness_kids/Assets/Team Animations/Image Sequences/Mike/Mike.034.png</pathurl>
                      <rate>
                        <timebase>24</timebase>
                        <ntsc>FALSE</ntsc>
                      </rate>
                      <duration>139</duration>
                      <timecode>
                        <rate>
                          <timebase>24</timebase>
                          <ntsc>FALSE</ntsc>
                        </rate>
                      </timecode>
                      <media>
                        <video>
                          <duration>1</duration>
                          <samplecharacteristics>
                            <anamorphic>FALSE</anamorphic>
                            <pixelaspectratio>square</pixelaspectratio>
                            <fielddominance>none</fielddominance>
                            <width>686</width>
                            <height>511</height>
                          </samplecharacteristics>
                        </video>
                      </media>
                    </file>
                  </clipitem>
                </track>
              </video>
            </media>
          </clip>
          <clip explodedTracks="true" frameBlend="FALSE" id="masterclip-37">
            <uuid>915bd987-6433-4e84-9920-87b722a5ac4c</uuid>
            <masterclipid>masterclip-37</masterclipid>
            <ismasterclip>TRUE</ismasterclip>
            <duration>139</duration>
            <in>0</in>
            <out>139</out>
            <name>Mike.035.png</name>
            <rate>
              <timebase>24</timebase>
              <ntsc>FALSE</ntsc>
            </rate>
            <media>
              <video>
                <track>
                  <clipitem frameBlend="FALSE" id="clipitem-38">
                    <name>Mike.035.png</name>
                    <masterclipid>masterclip-37</masterclipid>
                    <rate>
                      <timebase>24</timebase>
                      <ntsc>FALSE</ntsc>
                    </rate>
                    <alphatype>straight</alphatype>
                    <pixelaspectratio>square</pixelaspectratio>
                    <anamorphic>FALSE</anamorphic>
                    <file id="file-37">
                      <name>Mike.035.png</name>
                      <pathurl>file://localhost/Users/antoniochiappetta/OneDrive - Aalto University/University/Aalto/Hackatons/Junction/Junction2019-IoK-security_awareness_kids/Assets/Team Animations/Image Sequences/Mike/Mike.035.png</pathurl>
                      <rate>
                        <timebase>24</timebase>
                        <ntsc>FALSE</ntsc>
                      </rate>
                      <duration>139</duration>
                      <timecode>
                        <rate>
                          <timebase>24</timebase>
                          <ntsc>FALSE</ntsc>
                        </rate>
                      </timecode>
                      <media>
                        <video>
                          <duration>1</duration>
                          <samplecharacteristics>
                            <anamorphic>FALSE</anamorphic>
                            <pixelaspectratio>square</pixelaspectratio>
                            <fielddominance>none</fielddominance>
                            <width>686</width>
                            <height>511</height>
                          </samplecharacteristics>
                        </video>
                      </media>
                    </file>
                  </clipitem>
                </track>
              </video>
            </media>
          </clip>
          <clip explodedTracks="true" frameBlend="FALSE" id="masterclip-38">
            <uuid>7b1b5aa1-fb15-4ab5-8bd8-c1dca31eb5cc</uuid>
            <masterclipid>masterclip-38</masterclipid>
            <ismasterclip>TRUE</ismasterclip>
            <duration>139</duration>
            <in>0</in>
            <out>139</out>
            <name>Mike.036.png</name>
            <rate>
              <timebase>24</timebase>
              <ntsc>FALSE</ntsc>
            </rate>
            <media>
              <video>
                <track>
                  <clipitem frameBlend="FALSE" id="clipitem-39">
                    <name>Mike.036.png</name>
                    <masterclipid>masterclip-38</masterclipid>
                    <rate>
                      <timebase>24</timebase>
                      <ntsc>FALSE</ntsc>
                    </rate>
                    <alphatype>straight</alphatype>
                    <pixelaspectratio>square</pixelaspectratio>
                    <anamorphic>FALSE</anamorphic>
                    <file id="file-38">
                      <name>Mike.036.png</name>
                      <pathurl>file://localhost/Users/antoniochiappetta/OneDrive - Aalto University/University/Aalto/Hackatons/Junction/Junction2019-IoK-security_awareness_kids/Assets/Team Animations/Image Sequences/Mike/Mike.036.png</pathurl>
                      <rate>
                        <timebase>24</timebase>
                        <ntsc>FALSE</ntsc>
                      </rate>
                      <duration>139</duration>
                      <timecode>
                        <rate>
                          <timebase>24</timebase>
                          <ntsc>FALSE</ntsc>
                        </rate>
                      </timecode>
                      <media>
                        <video>
                          <duration>1</duration>
                          <samplecharacteristics>
                            <anamorphic>FALSE</anamorphic>
                            <pixelaspectratio>square</pixelaspectratio>
                            <fielddominance>none</fielddominance>
                            <width>686</width>
                            <height>511</height>
                          </samplecharacteristics>
                        </video>
                      </media>
                    </file>
                  </clipitem>
                </track>
              </video>
            </media>
          </clip>
          <clip explodedTracks="true" frameBlend="FALSE" id="masterclip-39">
            <uuid>e7df5864-1a74-4898-9016-1f12e9684473</uuid>
            <masterclipid>masterclip-39</masterclipid>
            <ismasterclip>TRUE</ismasterclip>
            <duration>139</duration>
            <in>0</in>
            <out>139</out>
            <name>Mike.037.png</name>
            <rate>
              <timebase>24</timebase>
              <ntsc>FALSE</ntsc>
            </rate>
            <media>
              <video>
                <track>
                  <clipitem frameBlend="FALSE" id="clipitem-40">
                    <name>Mike.037.png</name>
                    <masterclipid>masterclip-39</masterclipid>
                    <rate>
                      <timebase>24</timebase>
                      <ntsc>FALSE</ntsc>
                    </rate>
                    <alphatype>straight</alphatype>
                    <pixelaspectratio>square</pixelaspectratio>
                    <anamorphic>FALSE</anamorphic>
                    <file id="file-39">
                      <name>Mike.037.png</name>
                      <pathurl>file://localhost/Users/antoniochiappetta/OneDrive - Aalto University/University/Aalto/Hackatons/Junction/Junction2019-IoK-security_awareness_kids/Assets/Team Animations/Image Sequences/Mike/Mike.037.png</pathurl>
                      <rate>
                        <timebase>24</timebase>
                        <ntsc>FALSE</ntsc>
                      </rate>
                      <duration>139</duration>
                      <timecode>
                        <rate>
                          <timebase>24</timebase>
                          <ntsc>FALSE</ntsc>
                        </rate>
                      </timecode>
                      <media>
                        <video>
                          <duration>1</duration>
                          <samplecharacteristics>
                            <anamorphic>FALSE</anamorphic>
                            <pixelaspectratio>square</pixelaspectratio>
                            <fielddominance>none</fielddominance>
                            <width>686</width>
                            <height>511</height>
                          </samplecharacteristics>
                        </video>
                      </media>
                    </file>
                  </clipitem>
                </track>
              </video>
            </media>
          </clip>
          <clip explodedTracks="true" frameBlend="FALSE" id="masterclip-40">
            <uuid>9bfc2b7b-4c36-4030-901c-aa3e47eb9057</uuid>
            <masterclipid>masterclip-40</masterclipid>
            <ismasterclip>TRUE</ismasterclip>
            <duration>139</duration>
            <in>0</in>
            <out>139</out>
            <name>Mike.038.png</name>
            <rate>
              <timebase>24</timebase>
              <ntsc>FALSE</ntsc>
            </rate>
            <media>
              <video>
                <track>
                  <clipitem frameBlend="FALSE" id="clipitem-41">
                    <name>Mike.038.png</name>
                    <masterclipid>masterclip-40</masterclipid>
                    <rate>
                      <timebase>24</timebase>
                      <ntsc>FALSE</ntsc>
                    </rate>
                    <alphatype>straight</alphatype>
                    <pixelaspectratio>square</pixelaspectratio>
                    <anamorphic>FALSE</anamorphic>
                    <file id="file-40">
                      <name>Mike.038.png</name>
                      <pathurl>file://localhost/Users/antoniochiappetta/OneDrive - Aalto University/University/Aalto/Hackatons/Junction/Junction2019-IoK-security_awareness_kids/Assets/Team Animations/Image Sequences/Mike/Mike.038.png</pathurl>
                      <rate>
                        <timebase>24</timebase>
                        <ntsc>FALSE</ntsc>
                      </rate>
                      <duration>139</duration>
                      <timecode>
                        <rate>
                          <timebase>24</timebase>
                          <ntsc>FALSE</ntsc>
                        </rate>
                      </timecode>
                      <media>
                        <video>
                          <duration>1</duration>
                          <samplecharacteristics>
                            <anamorphic>FALSE</anamorphic>
                            <pixelaspectratio>square</pixelaspectratio>
                            <fielddominance>none</fielddominance>
                            <width>686</width>
                            <height>511</height>
                          </samplecharacteristics>
                        </video>
                      </media>
                    </file>
                  </clipitem>
                </track>
              </video>
            </media>
          </clip>
          <clip explodedTracks="true" frameBlend="FALSE" id="masterclip-41">
            <uuid>3b5aae8b-6d42-4b28-8e4c-8b4996e96dff</uuid>
            <masterclipid>masterclip-41</masterclipid>
            <ismasterclip>TRUE</ismasterclip>
            <duration>139</duration>
            <in>0</in>
            <out>139</out>
            <name>Mike.039.png</name>
            <rate>
              <timebase>24</timebase>
              <ntsc>FALSE</ntsc>
            </rate>
            <media>
              <video>
                <track>
                  <clipitem frameBlend="FALSE" id="clipitem-42">
                    <name>Mike.039.png</name>
                    <masterclipid>masterclip-41</masterclipid>
                    <rate>
                      <timebase>24</timebase>
                      <ntsc>FALSE</ntsc>
                    </rate>
                    <alphatype>straight</alphatype>
                    <pixelaspectratio>square</pixelaspectratio>
                    <anamorphic>FALSE</anamorphic>
                    <file id="file-41">
                      <name>Mike.039.png</name>
                      <pathurl>file://localhost/Users/antoniochiappetta/OneDrive - Aalto University/University/Aalto/Hackatons/Junction/Junction2019-IoK-security_awareness_kids/Assets/Team Animations/Image Sequences/Mike/Mike.039.png</pathurl>
                      <rate>
                        <timebase>24</timebase>
                        <ntsc>FALSE</ntsc>
                      </rate>
                      <duration>139</duration>
                      <timecode>
                        <rate>
                          <timebase>24</timebase>
                          <ntsc>FALSE</ntsc>
                        </rate>
                      </timecode>
                      <media>
                        <video>
                          <duration>1</duration>
                          <samplecharacteristics>
                            <anamorphic>FALSE</anamorphic>
                            <pixelaspectratio>square</pixelaspectratio>
                            <fielddominance>none</fielddominance>
                            <width>686</width>
                            <height>511</height>
                          </samplecharacteristics>
                        </video>
                      </media>
                    </file>
                  </clipitem>
                </track>
              </video>
            </media>
          </clip>
          <clip explodedTracks="true" frameBlend="FALSE" id="masterclip-42">
            <uuid>e4b9677f-c20e-4960-b05e-78edab076976</uuid>
            <masterclipid>masterclip-42</masterclipid>
            <ismasterclip>TRUE</ismasterclip>
            <duration>139</duration>
            <in>0</in>
            <out>139</out>
            <name>Mike.040.png</name>
            <rate>
              <timebase>24</timebase>
              <ntsc>FALSE</ntsc>
            </rate>
            <media>
              <video>
                <track>
                  <clipitem frameBlend="FALSE" id="clipitem-43">
                    <name>Mike.040.png</name>
                    <masterclipid>masterclip-42</masterclipid>
                    <rate>
                      <timebase>24</timebase>
                      <ntsc>FALSE</ntsc>
                    </rate>
                    <alphatype>straight</alphatype>
                    <pixelaspectratio>square</pixelaspectratio>
                    <anamorphic>FALSE</anamorphic>
                    <file id="file-42">
                      <name>Mike.040.png</name>
                      <pathurl>file://localhost/Users/antoniochiappetta/OneDrive - Aalto University/University/Aalto/Hackatons/Junction/Junction2019-IoK-security_awareness_kids/Assets/Team Animations/Image Sequences/Mike/Mike.040.png</pathurl>
                      <rate>
                        <timebase>24</timebase>
                        <ntsc>FALSE</ntsc>
                      </rate>
                      <duration>139</duration>
                      <timecode>
                        <rate>
                          <timebase>24</timebase>
                          <ntsc>FALSE</ntsc>
                        </rate>
                      </timecode>
                      <media>
                        <video>
                          <duration>1</duration>
                          <samplecharacteristics>
                            <anamorphic>FALSE</anamorphic>
                            <pixelaspectratio>square</pixelaspectratio>
                            <fielddominance>none</fielddominance>
                            <width>686</width>
                            <height>511</height>
                          </samplecharacteristics>
                        </video>
                      </media>
                    </file>
                  </clipitem>
                </track>
              </video>
            </media>
          </clip>
          <clip explodedTracks="true" frameBlend="FALSE" id="masterclip-43">
            <uuid>c9c1a1cd-b14d-4177-a24b-40f668526339</uuid>
            <masterclipid>masterclip-43</masterclipid>
            <ismasterclip>TRUE</ismasterclip>
            <duration>139</duration>
            <in>0</in>
            <out>139</out>
            <name>Mike.041.png</name>
            <rate>
              <timebase>24</timebase>
              <ntsc>FALSE</ntsc>
            </rate>
            <media>
              <video>
                <track>
                  <clipitem frameBlend="FALSE" id="clipitem-44">
                    <name>Mike.041.png</name>
                    <masterclipid>masterclip-43</masterclipid>
                    <rate>
                      <timebase>24</timebase>
                      <ntsc>FALSE</ntsc>
                    </rate>
                    <alphatype>straight</alphatype>
                    <pixelaspectratio>square</pixelaspectratio>
                    <anamorphic>FALSE</anamorphic>
                    <file id="file-43">
                      <name>Mike.041.png</name>
                      <pathurl>file://localhost/Users/antoniochiappetta/OneDrive - Aalto University/University/Aalto/Hackatons/Junction/Junction2019-IoK-security_awareness_kids/Assets/Team Animations/Image Sequences/Mike/Mike.041.png</pathurl>
                      <rate>
                        <timebase>24</timebase>
                        <ntsc>FALSE</ntsc>
                      </rate>
                      <duration>139</duration>
                      <timecode>
                        <rate>
                          <timebase>24</timebase>
                          <ntsc>FALSE</ntsc>
                        </rate>
                      </timecode>
                      <media>
                        <video>
                          <duration>1</duration>
                          <samplecharacteristics>
                            <anamorphic>FALSE</anamorphic>
                            <pixelaspectratio>square</pixelaspectratio>
                            <fielddominance>none</fielddominance>
                            <width>686</width>
                            <height>511</height>
                          </samplecharacteristics>
                        </video>
                      </media>
                    </file>
                  </clipitem>
                </track>
              </video>
            </media>
          </clip>
          <clip explodedTracks="true" frameBlend="FALSE" id="masterclip-44">
            <uuid>94cf5515-beb3-4b1e-9b19-bedb77746e8a</uuid>
            <masterclipid>masterclip-44</masterclipid>
            <ismasterclip>TRUE</ismasterclip>
            <duration>139</duration>
            <in>0</in>
            <out>139</out>
            <name>Mike.042.png</name>
            <rate>
              <timebase>24</timebase>
              <ntsc>FALSE</ntsc>
            </rate>
            <media>
              <video>
                <track>
                  <clipitem frameBlend="FALSE" id="clipitem-45">
                    <name>Mike.042.png</name>
                    <masterclipid>masterclip-44</masterclipid>
                    <rate>
                      <timebase>24</timebase>
                      <ntsc>FALSE</ntsc>
                    </rate>
                    <alphatype>straight</alphatype>
                    <pixelaspectratio>square</pixelaspectratio>
                    <anamorphic>FALSE</anamorphic>
                    <file id="file-44">
                      <name>Mike.042.png</name>
                      <pathurl>file://localhost/Users/antoniochiappetta/OneDrive - Aalto University/University/Aalto/Hackatons/Junction/Junction2019-IoK-security_awareness_kids/Assets/Team Animations/Image Sequences/Mike/Mike.042.png</pathurl>
                      <rate>
                        <timebase>24</timebase>
                        <ntsc>FALSE</ntsc>
                      </rate>
                      <duration>139</duration>
                      <timecode>
                        <rate>
                          <timebase>24</timebase>
                          <ntsc>FALSE</ntsc>
                        </rate>
                      </timecode>
                      <media>
                        <video>
                          <duration>1</duration>
                          <samplecharacteristics>
                            <anamorphic>FALSE</anamorphic>
                            <pixelaspectratio>square</pixelaspectratio>
                            <fielddominance>none</fielddominance>
                            <width>686</width>
                            <height>511</height>
                          </samplecharacteristics>
                        </video>
                      </media>
                    </file>
                  </clipitem>
                </track>
              </video>
            </media>
          </clip>
          <clip explodedTracks="true" frameBlend="FALSE" id="masterclip-45">
            <uuid>14352e2e-2f27-4018-9b39-0f55121c5ac0</uuid>
            <masterclipid>masterclip-45</masterclipid>
            <ismasterclip>TRUE</ismasterclip>
            <duration>139</duration>
            <in>0</in>
            <out>139</out>
            <name>Mike.043.png</name>
            <rate>
              <timebase>24</timebase>
              <ntsc>FALSE</ntsc>
            </rate>
            <media>
              <video>
                <track>
                  <clipitem frameBlend="FALSE" id="clipitem-46">
                    <name>Mike.043.png</name>
                    <masterclipid>masterclip-45</masterclipid>
                    <rate>
                      <timebase>24</timebase>
                      <ntsc>FALSE</ntsc>
                    </rate>
                    <alphatype>straight</alphatype>
                    <pixelaspectratio>square</pixelaspectratio>
                    <anamorphic>FALSE</anamorphic>
                    <file id="file-45">
                      <name>Mike.043.png</name>
                      <pathurl>file://localhost/Users/antoniochiappetta/OneDrive - Aalto University/University/Aalto/Hackatons/Junction/Junction2019-IoK-security_awareness_kids/Assets/Team Animations/Image Sequences/Mike/Mike.043.png</pathurl>
                      <rate>
                        <timebase>24</timebase>
                        <ntsc>FALSE</ntsc>
                      </rate>
                      <duration>139</duration>
                      <timecode>
                        <rate>
                          <timebase>24</timebase>
                          <ntsc>FALSE</ntsc>
                        </rate>
                      </timecode>
                      <media>
                        <video>
                          <duration>1</duration>
                          <samplecharacteristics>
                            <anamorphic>FALSE</anamorphic>
                            <pixelaspectratio>square</pixelaspectratio>
                            <fielddominance>none</fielddominance>
                            <width>686</width>
                            <height>511</height>
                          </samplecharacteristics>
                        </video>
                      </media>
                    </file>
                  </clipitem>
                </track>
              </video>
            </media>
          </clip>
          <clip explodedTracks="true" frameBlend="FALSE" id="masterclip-46">
            <uuid>44792a83-6194-4966-8734-ec6f1ca2a0a6</uuid>
            <masterclipid>masterclip-46</masterclipid>
            <ismasterclip>TRUE</ismasterclip>
            <duration>139</duration>
            <in>0</in>
            <out>139</out>
            <name>Mike.044.png</name>
            <rate>
              <timebase>24</timebase>
              <ntsc>FALSE</ntsc>
            </rate>
            <media>
              <video>
                <track>
                  <clipitem frameBlend="FALSE" id="clipitem-47">
                    <name>Mike.044.png</name>
                    <masterclipid>masterclip-46</masterclipid>
                    <rate>
                      <timebase>24</timebase>
                      <ntsc>FALSE</ntsc>
                    </rate>
                    <alphatype>straight</alphatype>
                    <pixelaspectratio>square</pixelaspectratio>
                    <anamorphic>FALSE</anamorphic>
                    <file id="file-46">
                      <name>Mike.044.png</name>
                      <pathurl>file://localhost/Users/antoniochiappetta/OneDrive - Aalto University/University/Aalto/Hackatons/Junction/Junction2019-IoK-security_awareness_kids/Assets/Team Animations/Image Sequences/Mike/Mike.044.png</pathurl>
                      <rate>
                        <timebase>24</timebase>
                        <ntsc>FALSE</ntsc>
                      </rate>
                      <duration>139</duration>
                      <timecode>
                        <rate>
                          <timebase>24</timebase>
                          <ntsc>FALSE</ntsc>
                        </rate>
                      </timecode>
                      <media>
                        <video>
                          <duration>1</duration>
                          <samplecharacteristics>
                            <anamorphic>FALSE</anamorphic>
                            <pixelaspectratio>square</pixelaspectratio>
                            <fielddominance>none</fielddominance>
                            <width>686</width>
                            <height>511</height>
                          </samplecharacteristics>
                        </video>
                      </media>
                    </file>
                  </clipitem>
                </track>
              </video>
            </media>
          </clip>
          <clip explodedTracks="true" frameBlend="FALSE" id="masterclip-47">
            <uuid>ccfd1df7-d9bc-4a45-b234-b11cc09d9650</uuid>
            <masterclipid>masterclip-47</masterclipid>
            <ismasterclip>TRUE</ismasterclip>
            <duration>139</duration>
            <in>0</in>
            <out>139</out>
            <name>Mike.045.png</name>
            <rate>
              <timebase>24</timebase>
              <ntsc>FALSE</ntsc>
            </rate>
            <media>
              <video>
                <track>
                  <clipitem frameBlend="FALSE" id="clipitem-48">
                    <name>Mike.045.png</name>
                    <masterclipid>masterclip-47</masterclipid>
                    <rate>
                      <timebase>24</timebase>
                      <ntsc>FALSE</ntsc>
                    </rate>
                    <alphatype>straight</alphatype>
                    <pixelaspectratio>square</pixelaspectratio>
                    <anamorphic>FALSE</anamorphic>
                    <file id="file-47">
                      <name>Mike.045.png</name>
                      <pathurl>file://localhost/Users/antoniochiappetta/OneDrive - Aalto University/University/Aalto/Hackatons/Junction/Junction2019-IoK-security_awareness_kids/Assets/Team Animations/Image Sequences/Mike/Mike.045.png</pathurl>
                      <rate>
                        <timebase>24</timebase>
                        <ntsc>FALSE</ntsc>
                      </rate>
                      <duration>139</duration>
                      <timecode>
                        <rate>
                          <timebase>24</timebase>
                          <ntsc>FALSE</ntsc>
                        </rate>
                      </timecode>
                      <media>
                        <video>
                          <duration>1</duration>
                          <samplecharacteristics>
                            <anamorphic>FALSE</anamorphic>
                            <pixelaspectratio>square</pixelaspectratio>
                            <fielddominance>none</fielddominance>
                            <width>686</width>
                            <height>511</height>
                          </samplecharacteristics>
                        </video>
                      </media>
                    </file>
                  </clipitem>
                </track>
              </video>
            </media>
          </clip>
          <clip explodedTracks="true" frameBlend="FALSE" id="masterclip-48">
            <uuid>43805ec7-9f9d-432d-aae5-09020eab6aa2</uuid>
            <masterclipid>masterclip-48</masterclipid>
            <ismasterclip>TRUE</ismasterclip>
            <duration>139</duration>
            <in>0</in>
            <out>139</out>
            <name>Mike.046.png</name>
            <rate>
              <timebase>24</timebase>
              <ntsc>FALSE</ntsc>
            </rate>
            <media>
              <video>
                <track>
                  <clipitem frameBlend="FALSE" id="clipitem-49">
                    <name>Mike.046.png</name>
                    <masterclipid>masterclip-48</masterclipid>
                    <rate>
                      <timebase>24</timebase>
                      <ntsc>FALSE</ntsc>
                    </rate>
                    <alphatype>straight</alphatype>
                    <pixelaspectratio>square</pixelaspectratio>
                    <anamorphic>FALSE</anamorphic>
                    <file id="file-48">
                      <name>Mike.046.png</name>
                      <pathurl>file://localhost/Users/antoniochiappetta/OneDrive - Aalto University/University/Aalto/Hackatons/Junction/Junction2019-IoK-security_awareness_kids/Assets/Team Animations/Image Sequences/Mike/Mike.046.png</pathurl>
                      <rate>
                        <timebase>24</timebase>
                        <ntsc>FALSE</ntsc>
                      </rate>
                      <duration>139</duration>
                      <timecode>
                        <rate>
                          <timebase>24</timebase>
                          <ntsc>FALSE</ntsc>
                        </rate>
                      </timecode>
                      <media>
                        <video>
                          <duration>1</duration>
                          <samplecharacteristics>
                            <anamorphic>FALSE</anamorphic>
                            <pixelaspectratio>square</pixelaspectratio>
                            <fielddominance>none</fielddominance>
                            <width>686</width>
                            <height>511</height>
                          </samplecharacteristics>
                        </video>
                      </media>
                    </file>
                  </clipitem>
                </track>
              </video>
            </media>
          </clip>
          <clip explodedTracks="true" frameBlend="FALSE" id="masterclip-49">
            <uuid>ea7c505d-65ed-468c-9d48-b17798b3e0a9</uuid>
            <masterclipid>masterclip-49</masterclipid>
            <ismasterclip>TRUE</ismasterclip>
            <duration>139</duration>
            <in>0</in>
            <out>139</out>
            <name>Mike.047.png</name>
            <rate>
              <timebase>24</timebase>
              <ntsc>FALSE</ntsc>
            </rate>
            <media>
              <video>
                <track>
                  <clipitem frameBlend="FALSE" id="clipitem-50">
                    <name>Mike.047.png</name>
                    <masterclipid>masterclip-49</masterclipid>
                    <rate>
                      <timebase>24</timebase>
                      <ntsc>FALSE</ntsc>
                    </rate>
                    <alphatype>straight</alphatype>
                    <pixelaspectratio>square</pixelaspectratio>
                    <anamorphic>FALSE</anamorphic>
                    <file id="file-49">
                      <name>Mike.047.png</name>
                      <pathurl>file://localhost/Users/antoniochiappetta/OneDrive - Aalto University/University/Aalto/Hackatons/Junction/Junction2019-IoK-security_awareness_kids/Assets/Team Animations/Image Sequences/Mike/Mike.047.png</pathurl>
                      <rate>
                        <timebase>24</timebase>
                        <ntsc>FALSE</ntsc>
                      </rate>
                      <duration>139</duration>
                      <timecode>
                        <rate>
                          <timebase>24</timebase>
                          <ntsc>FALSE</ntsc>
                        </rate>
                      </timecode>
                      <media>
                        <video>
                          <duration>1</duration>
                          <samplecharacteristics>
                            <anamorphic>FALSE</anamorphic>
                            <pixelaspectratio>square</pixelaspectratio>
                            <fielddominance>none</fielddominance>
                            <width>686</width>
                            <height>511</height>
                          </samplecharacteristics>
                        </video>
                      </media>
                    </file>
                  </clipitem>
                </track>
              </video>
            </media>
          </clip>
          <clip explodedTracks="true" frameBlend="FALSE" id="masterclip-50">
            <uuid>3cae60b0-f0e3-48e1-a882-4287d31ca286</uuid>
            <masterclipid>masterclip-50</masterclipid>
            <ismasterclip>TRUE</ismasterclip>
            <duration>139</duration>
            <in>0</in>
            <out>139</out>
            <name>Mike.048.png</name>
            <rate>
              <timebase>24</timebase>
              <ntsc>FALSE</ntsc>
            </rate>
            <media>
              <video>
                <track>
                  <clipitem frameBlend="FALSE" id="clipitem-51">
                    <name>Mike.048.png</name>
                    <masterclipid>masterclip-50</masterclipid>
                    <rate>
                      <timebase>24</timebase>
                      <ntsc>FALSE</ntsc>
                    </rate>
                    <alphatype>straight</alphatype>
                    <pixelaspectratio>square</pixelaspectratio>
                    <anamorphic>FALSE</anamorphic>
                    <file id="file-50">
                      <name>Mike.048.png</name>
                      <pathurl>file://localhost/Users/antoniochiappetta/OneDrive - Aalto University/University/Aalto/Hackatons/Junction/Junction2019-IoK-security_awareness_kids/Assets/Team Animations/Image Sequences/Mike/Mike.048.png</pathurl>
                      <rate>
                        <timebase>24</timebase>
                        <ntsc>FALSE</ntsc>
                      </rate>
                      <duration>139</duration>
                      <timecode>
                        <rate>
                          <timebase>24</timebase>
                          <ntsc>FALSE</ntsc>
                        </rate>
                      </timecode>
                      <media>
                        <video>
                          <duration>1</duration>
                          <samplecharacteristics>
                            <anamorphic>FALSE</anamorphic>
                            <pixelaspectratio>square</pixelaspectratio>
                            <fielddominance>none</fielddominance>
                            <width>686</width>
                            <height>511</height>
                          </samplecharacteristics>
                        </video>
                      </media>
                    </file>
                  </clipitem>
                </track>
              </video>
            </media>
          </clip>
          <clip explodedTracks="true" frameBlend="FALSE" id="masterclip-51">
            <uuid>bfe71e94-9b81-4c68-bccb-591ce82b05dd</uuid>
            <masterclipid>masterclip-51</masterclipid>
            <ismasterclip>TRUE</ismasterclip>
            <duration>139</duration>
            <in>0</in>
            <out>139</out>
            <name>Mike.049.png</name>
            <rate>
              <timebase>24</timebase>
              <ntsc>FALSE</ntsc>
            </rate>
            <media>
              <video>
                <track>
                  <clipitem frameBlend="FALSE" id="clipitem-52">
                    <name>Mike.049.png</name>
                    <masterclipid>masterclip-51</masterclipid>
                    <rate>
                      <timebase>24</timebase>
                      <ntsc>FALSE</ntsc>
                    </rate>
                    <alphatype>straight</alphatype>
                    <pixelaspectratio>square</pixelaspectratio>
                    <anamorphic>FALSE</anamorphic>
                    <file id="file-51">
                      <name>Mike.049.png</name>
                      <pathurl>file://localhost/Users/antoniochiappetta/OneDrive - Aalto University/University/Aalto/Hackatons/Junction/Junction2019-IoK-security_awareness_kids/Assets/Team Animations/Image Sequences/Mike/Mike.049.png</pathurl>
                      <rate>
                        <timebase>24</timebase>
                        <ntsc>FALSE</ntsc>
                      </rate>
                      <duration>139</duration>
                      <timecode>
                        <rate>
                          <timebase>24</timebase>
                          <ntsc>FALSE</ntsc>
                        </rate>
                      </timecode>
                      <media>
                        <video>
                          <duration>1</duration>
                          <samplecharacteristics>
                            <anamorphic>FALSE</anamorphic>
                            <pixelaspectratio>square</pixelaspectratio>
                            <fielddominance>none</fielddominance>
                            <width>686</width>
                            <height>511</height>
                          </samplecharacteristics>
                        </video>
                      </media>
                    </file>
                  </clipitem>
                </track>
              </video>
            </media>
          </clip>
          <clip explodedTracks="true" frameBlend="FALSE" id="masterclip-52">
            <uuid>00f948ca-4544-4a38-af25-45883f9c5d9c</uuid>
            <masterclipid>masterclip-52</masterclipid>
            <ismasterclip>TRUE</ismasterclip>
            <duration>139</duration>
            <in>0</in>
            <out>139</out>
            <name>Mike.050.png</name>
            <rate>
              <timebase>24</timebase>
              <ntsc>FALSE</ntsc>
            </rate>
            <media>
              <video>
                <track>
                  <clipitem frameBlend="FALSE" id="clipitem-53">
                    <name>Mike.050.png</name>
                    <masterclipid>masterclip-52</masterclipid>
                    <rate>
                      <timebase>24</timebase>
                      <ntsc>FALSE</ntsc>
                    </rate>
                    <alphatype>straight</alphatype>
                    <pixelaspectratio>square</pixelaspectratio>
                    <anamorphic>FALSE</anamorphic>
                    <file id="file-52">
                      <name>Mike.050.png</name>
                      <pathurl>file://localhost/Users/antoniochiappetta/OneDrive - Aalto University/University/Aalto/Hackatons/Junction/Junction2019-IoK-security_awareness_kids/Assets/Team Animations/Image Sequences/Mike/Mike.050.png</pathurl>
                      <rate>
                        <timebase>24</timebase>
                        <ntsc>FALSE</ntsc>
                      </rate>
                      <duration>139</duration>
                      <timecode>
                        <rate>
                          <timebase>24</timebase>
                          <ntsc>FALSE</ntsc>
                        </rate>
                      </timecode>
                      <media>
                        <video>
                          <duration>1</duration>
                          <samplecharacteristics>
                            <anamorphic>FALSE</anamorphic>
                            <pixelaspectratio>square</pixelaspectratio>
                            <fielddominance>none</fielddominance>
                            <width>686</width>
                            <height>511</height>
                          </samplecharacteristics>
                        </video>
                      </media>
                    </file>
                  </clipitem>
                </track>
              </video>
            </media>
          </clip>
          <clip explodedTracks="true" frameBlend="FALSE" id="masterclip-53">
            <uuid>858257b0-8a77-4a35-8f55-10de823544b0</uuid>
            <masterclipid>masterclip-53</masterclipid>
            <ismasterclip>TRUE</ismasterclip>
            <duration>139</duration>
            <in>0</in>
            <out>139</out>
            <name>Mike.051.png</name>
            <rate>
              <timebase>24</timebase>
              <ntsc>FALSE</ntsc>
            </rate>
            <media>
              <video>
                <track>
                  <clipitem frameBlend="FALSE" id="clipitem-54">
                    <name>Mike.051.png</name>
                    <masterclipid>masterclip-53</masterclipid>
                    <rate>
                      <timebase>24</timebase>
                      <ntsc>FALSE</ntsc>
                    </rate>
                    <alphatype>straight</alphatype>
                    <pixelaspectratio>square</pixelaspectratio>
                    <anamorphic>FALSE</anamorphic>
                    <file id="file-53">
                      <name>Mike.051.png</name>
                      <pathurl>file://localhost/Users/antoniochiappetta/OneDrive - Aalto University/University/Aalto/Hackatons/Junction/Junction2019-IoK-security_awareness_kids/Assets/Team Animations/Image Sequences/Mike/Mike.051.png</pathurl>
                      <rate>
                        <timebase>24</timebase>
                        <ntsc>FALSE</ntsc>
                      </rate>
                      <duration>139</duration>
                      <timecode>
                        <rate>
                          <timebase>24</timebase>
                          <ntsc>FALSE</ntsc>
                        </rate>
                      </timecode>
                      <media>
                        <video>
                          <duration>1</duration>
                          <samplecharacteristics>
                            <anamorphic>FALSE</anamorphic>
                            <pixelaspectratio>square</pixelaspectratio>
                            <fielddominance>none</fielddominance>
                            <width>686</width>
                            <height>511</height>
                          </samplecharacteristics>
                        </video>
                      </media>
                    </file>
                  </clipitem>
                </track>
              </video>
            </media>
          </clip>
          <clip explodedTracks="true" frameBlend="FALSE" id="masterclip-54">
            <uuid>49a2c282-161a-4416-b382-59804d380034</uuid>
            <masterclipid>masterclip-54</masterclipid>
            <ismasterclip>TRUE</ismasterclip>
            <duration>139</duration>
            <in>0</in>
            <out>139</out>
            <name>Mike.052.png</name>
            <rate>
              <timebase>24</timebase>
              <ntsc>FALSE</ntsc>
            </rate>
            <media>
              <video>
                <track>
                  <clipitem frameBlend="FALSE" id="clipitem-55">
                    <name>Mike.052.png</name>
                    <masterclipid>masterclip-54</masterclipid>
                    <rate>
                      <timebase>24</timebase>
                      <ntsc>FALSE</ntsc>
                    </rate>
                    <alphatype>straight</alphatype>
                    <pixelaspectratio>square</pixelaspectratio>
                    <anamorphic>FALSE</anamorphic>
                    <file id="file-54">
                      <name>Mike.052.png</name>
                      <pathurl>file://localhost/Users/antoniochiappetta/OneDrive - Aalto University/University/Aalto/Hackatons/Junction/Junction2019-IoK-security_awareness_kids/Assets/Team Animations/Image Sequences/Mike/Mike.052.png</pathurl>
                      <rate>
                        <timebase>24</timebase>
                        <ntsc>FALSE</ntsc>
                      </rate>
                      <duration>139</duration>
                      <timecode>
                        <rate>
                          <timebase>24</timebase>
                          <ntsc>FALSE</ntsc>
                        </rate>
                      </timecode>
                      <media>
                        <video>
                          <duration>1</duration>
                          <samplecharacteristics>
                            <anamorphic>FALSE</anamorphic>
                            <pixelaspectratio>square</pixelaspectratio>
                            <fielddominance>none</fielddominance>
                            <width>686</width>
                            <height>511</height>
                          </samplecharacteristics>
                        </video>
                      </media>
                    </file>
                  </clipitem>
                </track>
              </video>
            </media>
          </clip>
          <clip explodedTracks="true" frameBlend="FALSE" id="masterclip-55">
            <uuid>58827329-ae65-4606-919b-7bb896015eae</uuid>
            <masterclipid>masterclip-55</masterclipid>
            <ismasterclip>TRUE</ismasterclip>
            <duration>139</duration>
            <in>0</in>
            <out>139</out>
            <name>Mike.053.png</name>
            <rate>
              <timebase>24</timebase>
              <ntsc>FALSE</ntsc>
            </rate>
            <media>
              <video>
                <track>
                  <clipitem frameBlend="FALSE" id="clipitem-56">
                    <name>Mike.053.png</name>
                    <masterclipid>masterclip-55</masterclipid>
                    <rate>
                      <timebase>24</timebase>
                      <ntsc>FALSE</ntsc>
                    </rate>
                    <alphatype>straight</alphatype>
                    <pixelaspectratio>square</pixelaspectratio>
                    <anamorphic>FALSE</anamorphic>
                    <file id="file-55">
                      <name>Mike.053.png</name>
                      <pathurl>file://localhost/Users/antoniochiappetta/OneDrive - Aalto University/University/Aalto/Hackatons/Junction/Junction2019-IoK-security_awareness_kids/Assets/Team Animations/Image Sequences/Mike/Mike.053.png</pathurl>
                      <rate>
                        <timebase>24</timebase>
                        <ntsc>FALSE</ntsc>
                      </rate>
                      <duration>139</duration>
                      <timecode>
                        <rate>
                          <timebase>24</timebase>
                          <ntsc>FALSE</ntsc>
                        </rate>
                      </timecode>
                      <media>
                        <video>
                          <duration>1</duration>
                          <samplecharacteristics>
                            <anamorphic>FALSE</anamorphic>
                            <pixelaspectratio>square</pixelaspectratio>
                            <fielddominance>none</fielddominance>
                            <width>686</width>
                            <height>511</height>
                          </samplecharacteristics>
                        </video>
                      </media>
                    </file>
                  </clipitem>
                </track>
              </video>
            </media>
          </clip>
          <clip explodedTracks="true" frameBlend="FALSE" id="masterclip-56">
            <uuid>839c9d3e-9bc6-4b3e-9c6a-bb79122fac05</uuid>
            <masterclipid>masterclip-56</masterclipid>
            <ismasterclip>TRUE</ismasterclip>
            <duration>139</duration>
            <in>0</in>
            <out>139</out>
            <name>Mike.054.png</name>
            <rate>
              <timebase>24</timebase>
              <ntsc>FALSE</ntsc>
            </rate>
            <media>
              <video>
                <track>
                  <clipitem frameBlend="FALSE" id="clipitem-57">
                    <name>Mike.054.png</name>
                    <masterclipid>masterclip-56</masterclipid>
                    <rate>
                      <timebase>24</timebase>
                      <ntsc>FALSE</ntsc>
                    </rate>
                    <alphatype>straight</alphatype>
                    <pixelaspectratio>square</pixelaspectratio>
                    <anamorphic>FALSE</anamorphic>
                    <file id="file-56">
                      <name>Mike.054.png</name>
                      <pathurl>file://localhost/Users/antoniochiappetta/OneDrive - Aalto University/University/Aalto/Hackatons/Junction/Junction2019-IoK-security_awareness_kids/Assets/Team Animations/Image Sequences/Mike/Mike.054.png</pathurl>
                      <rate>
                        <timebase>24</timebase>
                        <ntsc>FALSE</ntsc>
                      </rate>
                      <duration>139</duration>
                      <timecode>
                        <rate>
                          <timebase>24</timebase>
                          <ntsc>FALSE</ntsc>
                        </rate>
                      </timecode>
                      <media>
                        <video>
                          <duration>1</duration>
                          <samplecharacteristics>
                            <anamorphic>FALSE</anamorphic>
                            <pixelaspectratio>square</pixelaspectratio>
                            <fielddominance>none</fielddominance>
                            <width>686</width>
                            <height>511</height>
                          </samplecharacteristics>
                        </video>
                      </media>
                    </file>
                  </clipitem>
                </track>
              </video>
            </media>
          </clip>
          <clip explodedTracks="true" frameBlend="FALSE" id="masterclip-57">
            <uuid>6f5dea13-0f9f-48d1-89b9-85e3058a7af4</uuid>
            <masterclipid>masterclip-57</masterclipid>
            <ismasterclip>TRUE</ismasterclip>
            <duration>139</duration>
            <in>0</in>
            <out>139</out>
            <name>Mike.055.png</name>
            <rate>
              <timebase>24</timebase>
              <ntsc>FALSE</ntsc>
            </rate>
            <media>
              <video>
                <track>
                  <clipitem frameBlend="FALSE" id="clipitem-58">
                    <name>Mike.055.png</name>
                    <masterclipid>masterclip-57</masterclipid>
                    <rate>
                      <timebase>24</timebase>
                      <ntsc>FALSE</ntsc>
                    </rate>
                    <alphatype>straight</alphatype>
                    <pixelaspectratio>square</pixelaspectratio>
                    <anamorphic>FALSE</anamorphic>
                    <file id="file-57">
                      <name>Mike.055.png</name>
                      <pathurl>file://localhost/Users/antoniochiappetta/OneDrive - Aalto University/University/Aalto/Hackatons/Junction/Junction2019-IoK-security_awareness_kids/Assets/Team Animations/Image Sequences/Mike/Mike.055.png</pathurl>
                      <rate>
                        <timebase>24</timebase>
                        <ntsc>FALSE</ntsc>
                      </rate>
                      <duration>139</duration>
                      <timecode>
                        <rate>
                          <timebase>24</timebase>
                          <ntsc>FALSE</ntsc>
                        </rate>
                      </timecode>
                      <media>
                        <video>
                          <duration>1</duration>
                          <samplecharacteristics>
                            <anamorphic>FALSE</anamorphic>
                            <pixelaspectratio>square</pixelaspectratio>
                            <fielddominance>none</fielddominance>
                            <width>686</width>
                            <height>511</height>
                          </samplecharacteristics>
                        </video>
                      </media>
                    </file>
                  </clipitem>
                </track>
              </video>
            </media>
          </clip>
          <clip explodedTracks="true" frameBlend="FALSE" id="masterclip-58">
            <uuid>dd051c35-e7f5-40ea-90aa-b78c9dcb61e7</uuid>
            <masterclipid>masterclip-58</masterclipid>
            <ismasterclip>TRUE</ismasterclip>
            <duration>139</duration>
            <in>0</in>
            <out>139</out>
            <name>Mike.056.png</name>
            <rate>
              <timebase>24</timebase>
              <ntsc>FALSE</ntsc>
            </rate>
            <media>
              <video>
                <track>
                  <clipitem frameBlend="FALSE" id="clipitem-59">
                    <name>Mike.056.png</name>
                    <masterclipid>masterclip-58</masterclipid>
                    <rate>
                      <timebase>24</timebase>
                      <ntsc>FALSE</ntsc>
                    </rate>
                    <alphatype>straight</alphatype>
                    <pixelaspectratio>square</pixelaspectratio>
                    <anamorphic>FALSE</anamorphic>
                    <file id="file-58">
                      <name>Mike.056.png</name>
                      <pathurl>file://localhost/Users/antoniochiappetta/OneDrive - Aalto University/University/Aalto/Hackatons/Junction/Junction2019-IoK-security_awareness_kids/Assets/Team Animations/Image Sequences/Mike/Mike.056.png</pathurl>
                      <rate>
                        <timebase>24</timebase>
                        <ntsc>FALSE</ntsc>
                      </rate>
                      <duration>139</duration>
                      <timecode>
                        <rate>
                          <timebase>24</timebase>
                          <ntsc>FALSE</ntsc>
                        </rate>
                      </timecode>
                      <media>
                        <video>
                          <duration>1</duration>
                          <samplecharacteristics>
                            <anamorphic>FALSE</anamorphic>
                            <pixelaspectratio>square</pixelaspectratio>
                            <fielddominance>none</fielddominance>
                            <width>686</width>
                            <height>511</height>
                          </samplecharacteristics>
                        </video>
                      </media>
                    </file>
                  </clipitem>
                </track>
              </video>
            </media>
          </clip>
          <clip explodedTracks="true" frameBlend="FALSE" id="masterclip-59">
            <uuid>d8b4ced4-44dc-4dea-8cef-7d108b452770</uuid>
            <masterclipid>masterclip-59</masterclipid>
            <ismasterclip>TRUE</ismasterclip>
            <duration>139</duration>
            <in>0</in>
            <out>139</out>
            <name>Mike.057.png</name>
            <rate>
              <timebase>24</timebase>
              <ntsc>FALSE</ntsc>
            </rate>
            <media>
              <video>
                <track>
                  <clipitem frameBlend="FALSE" id="clipitem-60">
                    <name>Mike.057.png</name>
                    <masterclipid>masterclip-59</masterclipid>
                    <rate>
                      <timebase>24</timebase>
                      <ntsc>FALSE</ntsc>
                    </rate>
                    <alphatype>straight</alphatype>
                    <pixelaspectratio>square</pixelaspectratio>
                    <anamorphic>FALSE</anamorphic>
                    <file id="file-59">
                      <name>Mike.057.png</name>
                      <pathurl>file://localhost/Users/antoniochiappetta/OneDrive - Aalto University/University/Aalto/Hackatons/Junction/Junction2019-IoK-security_awareness_kids/Assets/Team Animations/Image Sequences/Mike/Mike.057.png</pathurl>
                      <rate>
                        <timebase>24</timebase>
                        <ntsc>FALSE</ntsc>
                      </rate>
                      <duration>139</duration>
                      <timecode>
                        <rate>
                          <timebase>24</timebase>
                          <ntsc>FALSE</ntsc>
                        </rate>
                      </timecode>
                      <media>
                        <video>
                          <duration>1</duration>
                          <samplecharacteristics>
                            <anamorphic>FALSE</anamorphic>
                            <pixelaspectratio>square</pixelaspectratio>
                            <fielddominance>none</fielddominance>
                            <width>686</width>
                            <height>511</height>
                          </samplecharacteristics>
                        </video>
                      </media>
                    </file>
                  </clipitem>
                </track>
              </video>
            </media>
          </clip>
          <clip explodedTracks="true" frameBlend="FALSE" id="masterclip-60">
            <uuid>8ff5f551-6731-4600-810a-17e4f6257daa</uuid>
            <masterclipid>masterclip-60</masterclipid>
            <ismasterclip>TRUE</ismasterclip>
            <duration>139</duration>
            <in>0</in>
            <out>139</out>
            <name>Mike.058.png</name>
            <rate>
              <timebase>24</timebase>
              <ntsc>FALSE</ntsc>
            </rate>
            <media>
              <video>
                <track>
                  <clipitem frameBlend="FALSE" id="clipitem-61">
                    <name>Mike.058.png</name>
                    <masterclipid>masterclip-60</masterclipid>
                    <rate>
                      <timebase>24</timebase>
                      <ntsc>FALSE</ntsc>
                    </rate>
                    <alphatype>straight</alphatype>
                    <pixelaspectratio>square</pixelaspectratio>
                    <anamorphic>FALSE</anamorphic>
                    <file id="file-60">
                      <name>Mike.058.png</name>
                      <pathurl>file://localhost/Users/antoniochiappetta/OneDrive - Aalto University/University/Aalto/Hackatons/Junction/Junction2019-IoK-security_awareness_kids/Assets/Team Animations/Image Sequences/Mike/Mike.058.png</pathurl>
                      <rate>
                        <timebase>24</timebase>
                        <ntsc>FALSE</ntsc>
                      </rate>
                      <duration>139</duration>
                      <timecode>
                        <rate>
                          <timebase>24</timebase>
                          <ntsc>FALSE</ntsc>
                        </rate>
                      </timecode>
                      <media>
                        <video>
                          <duration>1</duration>
                          <samplecharacteristics>
                            <anamorphic>FALSE</anamorphic>
                            <pixelaspectratio>square</pixelaspectratio>
                            <fielddominance>none</fielddominance>
                            <width>686</width>
                            <height>511</height>
                          </samplecharacteristics>
                        </video>
                      </media>
                    </file>
                  </clipitem>
                </track>
              </video>
            </media>
          </clip>
          <clip explodedTracks="true" frameBlend="FALSE" id="masterclip-61">
            <uuid>f8327369-95d6-4499-887b-4326307ea099</uuid>
            <masterclipid>masterclip-61</masterclipid>
            <ismasterclip>TRUE</ismasterclip>
            <duration>139</duration>
            <in>0</in>
            <out>139</out>
            <name>Mike.059.png</name>
            <rate>
              <timebase>24</timebase>
              <ntsc>FALSE</ntsc>
            </rate>
            <media>
              <video>
                <track>
                  <clipitem frameBlend="FALSE" id="clipitem-62">
                    <name>Mike.059.png</name>
                    <masterclipid>masterclip-61</masterclipid>
                    <rate>
                      <timebase>24</timebase>
                      <ntsc>FALSE</ntsc>
                    </rate>
                    <alphatype>straight</alphatype>
                    <pixelaspectratio>square</pixelaspectratio>
                    <anamorphic>FALSE</anamorphic>
                    <file id="file-61">
                      <name>Mike.059.png</name>
                      <pathurl>file://localhost/Users/antoniochiappetta/OneDrive - Aalto University/University/Aalto/Hackatons/Junction/Junction2019-IoK-security_awareness_kids/Assets/Team Animations/Image Sequences/Mike/Mike.059.png</pathurl>
                      <rate>
                        <timebase>24</timebase>
                        <ntsc>FALSE</ntsc>
                      </rate>
                      <duration>139</duration>
                      <timecode>
                        <rate>
                          <timebase>24</timebase>
                          <ntsc>FALSE</ntsc>
                        </rate>
                      </timecode>
                      <media>
                        <video>
                          <duration>1</duration>
                          <samplecharacteristics>
                            <anamorphic>FALSE</anamorphic>
                            <pixelaspectratio>square</pixelaspectratio>
                            <fielddominance>none</fielddominance>
                            <width>686</width>
                            <height>511</height>
                          </samplecharacteristics>
                        </video>
                      </media>
                    </file>
                  </clipitem>
                </track>
              </video>
            </media>
          </clip>
          <clip explodedTracks="true" frameBlend="FALSE" id="masterclip-62">
            <uuid>1c338897-8cb9-4dce-bca2-a977c4bed599</uuid>
            <masterclipid>masterclip-62</masterclipid>
            <ismasterclip>TRUE</ismasterclip>
            <duration>139</duration>
            <in>0</in>
            <out>139</out>
            <name>Mike.060.png</name>
            <rate>
              <timebase>24</timebase>
              <ntsc>FALSE</ntsc>
            </rate>
            <media>
              <video>
                <track>
                  <clipitem frameBlend="FALSE" id="clipitem-63">
                    <name>Mike.060.png</name>
                    <masterclipid>masterclip-62</masterclipid>
                    <rate>
                      <timebase>24</timebase>
                      <ntsc>FALSE</ntsc>
                    </rate>
                    <alphatype>straight</alphatype>
                    <pixelaspectratio>square</pixelaspectratio>
                    <anamorphic>FALSE</anamorphic>
                    <file id="file-62">
                      <name>Mike.060.png</name>
                      <pathurl>file://localhost/Users/antoniochiappetta/OneDrive - Aalto University/University/Aalto/Hackatons/Junction/Junction2019-IoK-security_awareness_kids/Assets/Team Animations/Image Sequences/Mike/Mike.060.png</pathurl>
                      <rate>
                        <timebase>24</timebase>
                        <ntsc>FALSE</ntsc>
                      </rate>
                      <duration>139</duration>
                      <timecode>
                        <rate>
                          <timebase>24</timebase>
                          <ntsc>FALSE</ntsc>
                        </rate>
                      </timecode>
                      <media>
                        <video>
                          <duration>1</duration>
                          <samplecharacteristics>
                            <anamorphic>FALSE</anamorphic>
                            <pixelaspectratio>square</pixelaspectratio>
                            <fielddominance>none</fielddominance>
                            <width>686</width>
                            <height>511</height>
                          </samplecharacteristics>
                        </video>
                      </media>
                    </file>
                  </clipitem>
                </track>
              </video>
            </media>
          </clip>
          <clip explodedTracks="true" frameBlend="FALSE" id="masterclip-63">
            <uuid>ccb190f9-452e-4a2b-88a2-77a89a89eba4</uuid>
            <masterclipid>masterclip-63</masterclipid>
            <ismasterclip>TRUE</ismasterclip>
            <duration>139</duration>
            <in>0</in>
            <out>139</out>
            <name>Mike.061.png</name>
            <rate>
              <timebase>24</timebase>
              <ntsc>FALSE</ntsc>
            </rate>
            <media>
              <video>
                <track>
                  <clipitem frameBlend="FALSE" id="clipitem-64">
                    <name>Mike.061.png</name>
                    <masterclipid>masterclip-63</masterclipid>
                    <rate>
                      <timebase>24</timebase>
                      <ntsc>FALSE</ntsc>
                    </rate>
                    <alphatype>straight</alphatype>
                    <pixelaspectratio>square</pixelaspectratio>
                    <anamorphic>FALSE</anamorphic>
                    <file id="file-63">
                      <name>Mike.061.png</name>
                      <pathurl>file://localhost/Users/antoniochiappetta/OneDrive - Aalto University/University/Aalto/Hackatons/Junction/Junction2019-IoK-security_awareness_kids/Assets/Team Animations/Image Sequences/Mike/Mike.061.png</pathurl>
                      <rate>
                        <timebase>24</timebase>
                        <ntsc>FALSE</ntsc>
                      </rate>
                      <duration>139</duration>
                      <timecode>
                        <rate>
                          <timebase>24</timebase>
                          <ntsc>FALSE</ntsc>
                        </rate>
                      </timecode>
                      <media>
                        <video>
                          <duration>1</duration>
                          <samplecharacteristics>
                            <anamorphic>FALSE</anamorphic>
                            <pixelaspectratio>square</pixelaspectratio>
                            <fielddominance>none</fielddominance>
                            <width>686</width>
                            <height>511</height>
                          </samplecharacteristics>
                        </video>
                      </media>
                    </file>
                  </clipitem>
                </track>
              </video>
            </media>
          </clip>
          <clip explodedTracks="true" frameBlend="FALSE" id="masterclip-64">
            <uuid>053fc819-6ec0-4b78-a757-3c077fae2c08</uuid>
            <masterclipid>masterclip-64</masterclipid>
            <ismasterclip>TRUE</ismasterclip>
            <duration>139</duration>
            <in>0</in>
            <out>139</out>
            <name>Mike.062.png</name>
            <rate>
              <timebase>24</timebase>
              <ntsc>FALSE</ntsc>
            </rate>
            <media>
              <video>
                <track>
                  <clipitem frameBlend="FALSE" id="clipitem-65">
                    <name>Mike.062.png</name>
                    <masterclipid>masterclip-64</masterclipid>
                    <rate>
                      <timebase>24</timebase>
                      <ntsc>FALSE</ntsc>
                    </rate>
                    <alphatype>straight</alphatype>
                    <pixelaspectratio>square</pixelaspectratio>
                    <anamorphic>FALSE</anamorphic>
                    <file id="file-64">
                      <name>Mike.062.png</name>
                      <pathurl>file://localhost/Users/antoniochiappetta/OneDrive - Aalto University/University/Aalto/Hackatons/Junction/Junction2019-IoK-security_awareness_kids/Assets/Team Animations/Image Sequences/Mike/Mike.062.png</pathurl>
                      <rate>
                        <timebase>24</timebase>
                        <ntsc>FALSE</ntsc>
                      </rate>
                      <duration>139</duration>
                      <timecode>
                        <rate>
                          <timebase>24</timebase>
                          <ntsc>FALSE</ntsc>
                        </rate>
                      </timecode>
                      <media>
                        <video>
                          <duration>1</duration>
                          <samplecharacteristics>
                            <anamorphic>FALSE</anamorphic>
                            <pixelaspectratio>square</pixelaspectratio>
                            <fielddominance>none</fielddominance>
                            <width>686</width>
                            <height>511</height>
                          </samplecharacteristics>
                        </video>
                      </media>
                    </file>
                  </clipitem>
                </track>
              </video>
            </media>
          </clip>
          <clip explodedTracks="true" frameBlend="FALSE" id="masterclip-65">
            <uuid>a99bcc71-e6e9-4e51-81b1-66c8dfa866fa</uuid>
            <masterclipid>masterclip-65</masterclipid>
            <ismasterclip>TRUE</ismasterclip>
            <duration>139</duration>
            <in>0</in>
            <out>139</out>
            <name>Mike.063.png</name>
            <rate>
              <timebase>24</timebase>
              <ntsc>FALSE</ntsc>
            </rate>
            <media>
              <video>
                <track>
                  <clipitem frameBlend="FALSE" id="clipitem-66">
                    <name>Mike.063.png</name>
                    <masterclipid>masterclip-65</masterclipid>
                    <rate>
                      <timebase>24</timebase>
                      <ntsc>FALSE</ntsc>
                    </rate>
                    <alphatype>straight</alphatype>
                    <pixelaspectratio>square</pixelaspectratio>
                    <anamorphic>FALSE</anamorphic>
                    <file id="file-65">
                      <name>Mike.063.png</name>
                      <pathurl>file://localhost/Users/antoniochiappetta/OneDrive - Aalto University/University/Aalto/Hackatons/Junction/Junction2019-IoK-security_awareness_kids/Assets/Team Animations/Image Sequences/Mike/Mike.063.png</pathurl>
                      <rate>
                        <timebase>24</timebase>
                        <ntsc>FALSE</ntsc>
                      </rate>
                      <duration>139</duration>
                      <timecode>
                        <rate>
                          <timebase>24</timebase>
                          <ntsc>FALSE</ntsc>
                        </rate>
                      </timecode>
                      <media>
                        <video>
                          <duration>1</duration>
                          <samplecharacteristics>
                            <anamorphic>FALSE</anamorphic>
                            <pixelaspectratio>square</pixelaspectratio>
                            <fielddominance>none</fielddominance>
                            <width>686</width>
                            <height>511</height>
                          </samplecharacteristics>
                        </video>
                      </media>
                    </file>
                  </clipitem>
                </track>
              </video>
            </media>
          </clip>
          <clip explodedTracks="true" frameBlend="FALSE" id="masterclip-66">
            <uuid>ac21054e-79f6-4ba2-817f-fb1bb0dad209</uuid>
            <masterclipid>masterclip-66</masterclipid>
            <ismasterclip>TRUE</ismasterclip>
            <duration>139</duration>
            <in>0</in>
            <out>139</out>
            <name>Mike.064.png</name>
            <rate>
              <timebase>24</timebase>
              <ntsc>FALSE</ntsc>
            </rate>
            <media>
              <video>
                <track>
                  <clipitem frameBlend="FALSE" id="clipitem-67">
                    <name>Mike.064.png</name>
                    <masterclipid>masterclip-66</masterclipid>
                    <rate>
                      <timebase>24</timebase>
                      <ntsc>FALSE</ntsc>
                    </rate>
                    <alphatype>straight</alphatype>
                    <pixelaspectratio>square</pixelaspectratio>
                    <anamorphic>FALSE</anamorphic>
                    <file id="file-66">
                      <name>Mike.064.png</name>
                      <pathurl>file://localhost/Users/antoniochiappetta/OneDrive - Aalto University/University/Aalto/Hackatons/Junction/Junction2019-IoK-security_awareness_kids/Assets/Team Animations/Image Sequences/Mike/Mike.064.png</pathurl>
                      <rate>
                        <timebase>24</timebase>
                        <ntsc>FALSE</ntsc>
                      </rate>
                      <duration>139</duration>
                      <timecode>
                        <rate>
                          <timebase>24</timebase>
                          <ntsc>FALSE</ntsc>
                        </rate>
                      </timecode>
                      <media>
                        <video>
                          <duration>1</duration>
                          <samplecharacteristics>
                            <anamorphic>FALSE</anamorphic>
                            <pixelaspectratio>square</pixelaspectratio>
                            <fielddominance>none</fielddominance>
                            <width>686</width>
                            <height>511</height>
                          </samplecharacteristics>
                        </video>
                      </media>
                    </file>
                  </clipitem>
                </track>
              </video>
            </media>
          </clip>
          <clip explodedTracks="true" frameBlend="FALSE" id="masterclip-67">
            <uuid>a0d5b9d1-4aca-4938-892f-13cbade53b1b</uuid>
            <masterclipid>masterclip-67</masterclipid>
            <ismasterclip>TRUE</ismasterclip>
            <duration>139</duration>
            <in>0</in>
            <out>139</out>
            <name>Mike.065.png</name>
            <rate>
              <timebase>24</timebase>
              <ntsc>FALSE</ntsc>
            </rate>
            <media>
              <video>
                <track>
                  <clipitem frameBlend="FALSE" id="clipitem-68">
                    <name>Mike.065.png</name>
                    <masterclipid>masterclip-67</masterclipid>
                    <rate>
                      <timebase>24</timebase>
                      <ntsc>FALSE</ntsc>
                    </rate>
                    <alphatype>straight</alphatype>
                    <pixelaspectratio>square</pixelaspectratio>
                    <anamorphic>FALSE</anamorphic>
                    <file id="file-67">
                      <name>Mike.065.png</name>
                      <pathurl>file://localhost/Users/antoniochiappetta/OneDrive - Aalto University/University/Aalto/Hackatons/Junction/Junction2019-IoK-security_awareness_kids/Assets/Team Animations/Image Sequences/Mike/Mike.065.png</pathurl>
                      <rate>
                        <timebase>24</timebase>
                        <ntsc>FALSE</ntsc>
                      </rate>
                      <duration>139</duration>
                      <timecode>
                        <rate>
                          <timebase>24</timebase>
                          <ntsc>FALSE</ntsc>
                        </rate>
                      </timecode>
                      <media>
                        <video>
                          <duration>1</duration>
                          <samplecharacteristics>
                            <anamorphic>FALSE</anamorphic>
                            <pixelaspectratio>square</pixelaspectratio>
                            <fielddominance>none</fielddominance>
                            <width>686</width>
                            <height>511</height>
                          </samplecharacteristics>
                        </video>
                      </media>
                    </file>
                  </clipitem>
                </track>
              </video>
            </media>
          </clip>
          <clip explodedTracks="true" frameBlend="FALSE" id="masterclip-68">
            <uuid>82dda73f-f4fb-4870-b68d-e51737255368</uuid>
            <masterclipid>masterclip-68</masterclipid>
            <ismasterclip>TRUE</ismasterclip>
            <duration>139</duration>
            <in>0</in>
            <out>139</out>
            <name>Mike.066.png</name>
            <rate>
              <timebase>24</timebase>
              <ntsc>FALSE</ntsc>
            </rate>
            <media>
              <video>
                <track>
                  <clipitem frameBlend="FALSE" id="clipitem-69">
                    <name>Mike.066.png</name>
                    <masterclipid>masterclip-68</masterclipid>
                    <rate>
                      <timebase>24</timebase>
                      <ntsc>FALSE</ntsc>
                    </rate>
                    <alphatype>straight</alphatype>
                    <pixelaspectratio>square</pixelaspectratio>
                    <anamorphic>FALSE</anamorphic>
                    <file id="file-68">
                      <name>Mike.066.png</name>
                      <pathurl>file://localhost/Users/antoniochiappetta/OneDrive - Aalto University/University/Aalto/Hackatons/Junction/Junction2019-IoK-security_awareness_kids/Assets/Team Animations/Image Sequences/Mike/Mike.066.png</pathurl>
                      <rate>
                        <timebase>24</timebase>
                        <ntsc>FALSE</ntsc>
                      </rate>
                      <duration>139</duration>
                      <timecode>
                        <rate>
                          <timebase>24</timebase>
                          <ntsc>FALSE</ntsc>
                        </rate>
                      </timecode>
                      <media>
                        <video>
                          <duration>1</duration>
                          <samplecharacteristics>
                            <anamorphic>FALSE</anamorphic>
                            <pixelaspectratio>square</pixelaspectratio>
                            <fielddominance>none</fielddominance>
                            <width>686</width>
                            <height>511</height>
                          </samplecharacteristics>
                        </video>
                      </media>
                    </file>
                  </clipitem>
                </track>
              </video>
            </media>
          </clip>
          <clip explodedTracks="true" frameBlend="FALSE" id="masterclip-69">
            <uuid>aca056f4-a31d-47db-a891-5751a78dca64</uuid>
            <masterclipid>masterclip-69</masterclipid>
            <ismasterclip>TRUE</ismasterclip>
            <duration>139</duration>
            <in>0</in>
            <out>139</out>
            <name>Mike.067.png</name>
            <rate>
              <timebase>24</timebase>
              <ntsc>FALSE</ntsc>
            </rate>
            <media>
              <video>
                <track>
                  <clipitem frameBlend="FALSE" id="clipitem-70">
                    <name>Mike.067.png</name>
                    <masterclipid>masterclip-69</masterclipid>
                    <rate>
                      <timebase>24</timebase>
                      <ntsc>FALSE</ntsc>
                    </rate>
                    <alphatype>straight</alphatype>
                    <pixelaspectratio>square</pixelaspectratio>
                    <anamorphic>FALSE</anamorphic>
                    <file id="file-69">
                      <name>Mike.067.png</name>
                      <pathurl>file://localhost/Users/antoniochiappetta/OneDrive - Aalto University/University/Aalto/Hackatons/Junction/Junction2019-IoK-security_awareness_kids/Assets/Team Animations/Image Sequences/Mike/Mike.067.png</pathurl>
                      <rate>
                        <timebase>24</timebase>
                        <ntsc>FALSE</ntsc>
                      </rate>
                      <duration>139</duration>
                      <timecode>
                        <rate>
                          <timebase>24</timebase>
                          <ntsc>FALSE</ntsc>
                        </rate>
                      </timecode>
                      <media>
                        <video>
                          <duration>1</duration>
                          <samplecharacteristics>
                            <anamorphic>FALSE</anamorphic>
                            <pixelaspectratio>square</pixelaspectratio>
                            <fielddominance>none</fielddominance>
                            <width>686</width>
                            <height>511</height>
                          </samplecharacteristics>
                        </video>
                      </media>
                    </file>
                  </clipitem>
                </track>
              </video>
            </media>
          </clip>
          <clip explodedTracks="true" frameBlend="FALSE" id="masterclip-70">
            <uuid>68d41b8c-4070-411d-b50f-e1cbe3f88fb2</uuid>
            <masterclipid>masterclip-70</masterclipid>
            <ismasterclip>TRUE</ismasterclip>
            <duration>139</duration>
            <in>0</in>
            <out>139</out>
            <name>Mike.068.png</name>
            <rate>
              <timebase>24</timebase>
              <ntsc>FALSE</ntsc>
            </rate>
            <media>
              <video>
                <track>
                  <clipitem frameBlend="FALSE" id="clipitem-71">
                    <name>Mike.068.png</name>
                    <masterclipid>masterclip-70</masterclipid>
                    <rate>
                      <timebase>24</timebase>
                      <ntsc>FALSE</ntsc>
                    </rate>
                    <alphatype>straight</alphatype>
                    <pixelaspectratio>square</pixelaspectratio>
                    <anamorphic>FALSE</anamorphic>
                    <file id="file-70">
                      <name>Mike.068.png</name>
                      <pathurl>file://localhost/Users/antoniochiappetta/OneDrive - Aalto University/University/Aalto/Hackatons/Junction/Junction2019-IoK-security_awareness_kids/Assets/Team Animations/Image Sequences/Mike/Mike.068.png</pathurl>
                      <rate>
                        <timebase>24</timebase>
                        <ntsc>FALSE</ntsc>
                      </rate>
                      <duration>139</duration>
                      <timecode>
                        <rate>
                          <timebase>24</timebase>
                          <ntsc>FALSE</ntsc>
                        </rate>
                      </timecode>
                      <media>
                        <video>
                          <duration>1</duration>
                          <samplecharacteristics>
                            <anamorphic>FALSE</anamorphic>
                            <pixelaspectratio>square</pixelaspectratio>
                            <fielddominance>none</fielddominance>
                            <width>686</width>
                            <height>511</height>
                          </samplecharacteristics>
                        </video>
                      </media>
                    </file>
                  </clipitem>
                </track>
              </video>
            </media>
          </clip>
          <clip explodedTracks="true" frameBlend="FALSE" id="masterclip-71">
            <uuid>e9e8bfb5-881c-4608-af4c-8ae43a1f6baf</uuid>
            <masterclipid>masterclip-71</masterclipid>
            <ismasterclip>TRUE</ismasterclip>
            <duration>139</duration>
            <in>0</in>
            <out>139</out>
            <name>Mike.069.png</name>
            <rate>
              <timebase>24</timebase>
              <ntsc>FALSE</ntsc>
            </rate>
            <media>
              <video>
                <track>
                  <clipitem frameBlend="FALSE" id="clipitem-72">
                    <name>Mike.069.png</name>
                    <masterclipid>masterclip-71</masterclipid>
                    <rate>
                      <timebase>24</timebase>
                      <ntsc>FALSE</ntsc>
                    </rate>
                    <alphatype>straight</alphatype>
                    <pixelaspectratio>square</pixelaspectratio>
                    <anamorphic>FALSE</anamorphic>
                    <file id="file-71">
                      <name>Mike.069.png</name>
                      <pathurl>file://localhost/Users/antoniochiappetta/OneDrive - Aalto University/University/Aalto/Hackatons/Junction/Junction2019-IoK-security_awareness_kids/Assets/Team Animations/Image Sequences/Mike/Mike.069.png</pathurl>
                      <rate>
                        <timebase>24</timebase>
                        <ntsc>FALSE</ntsc>
                      </rate>
                      <duration>139</duration>
                      <timecode>
                        <rate>
                          <timebase>24</timebase>
                          <ntsc>FALSE</ntsc>
                        </rate>
                      </timecode>
                      <media>
                        <video>
                          <duration>1</duration>
                          <samplecharacteristics>
                            <anamorphic>FALSE</anamorphic>
                            <pixelaspectratio>square</pixelaspectratio>
                            <fielddominance>none</fielddominance>
                            <width>686</width>
                            <height>511</height>
                          </samplecharacteristics>
                        </video>
                      </media>
                    </file>
                  </clipitem>
                </track>
              </video>
            </media>
          </clip>
          <clip explodedTracks="true" frameBlend="FALSE" id="masterclip-72">
            <uuid>4ee4212c-332d-4fa7-a3f2-5621b9fccdcb</uuid>
            <masterclipid>masterclip-72</masterclipid>
            <ismasterclip>TRUE</ismasterclip>
            <duration>139</duration>
            <in>0</in>
            <out>139</out>
            <name>Mike.070.png</name>
            <rate>
              <timebase>24</timebase>
              <ntsc>FALSE</ntsc>
            </rate>
            <media>
              <video>
                <track>
                  <clipitem frameBlend="FALSE" id="clipitem-73">
                    <name>Mike.070.png</name>
                    <masterclipid>masterclip-72</masterclipid>
                    <rate>
                      <timebase>24</timebase>
                      <ntsc>FALSE</ntsc>
                    </rate>
                    <alphatype>straight</alphatype>
                    <pixelaspectratio>square</pixelaspectratio>
                    <anamorphic>FALSE</anamorphic>
                    <file id="file-72">
                      <name>Mike.070.png</name>
                      <pathurl>file://localhost/Users/antoniochiappetta/OneDrive - Aalto University/University/Aalto/Hackatons/Junction/Junction2019-IoK-security_awareness_kids/Assets/Team Animations/Image Sequences/Mike/Mike.070.png</pathurl>
                      <rate>
                        <timebase>24</timebase>
                        <ntsc>FALSE</ntsc>
                      </rate>
                      <duration>139</duration>
                      <timecode>
                        <rate>
                          <timebase>24</timebase>
                          <ntsc>FALSE</ntsc>
                        </rate>
                      </timecode>
                      <media>
                        <video>
                          <duration>1</duration>
                          <samplecharacteristics>
                            <anamorphic>FALSE</anamorphic>
                            <pixelaspectratio>square</pixelaspectratio>
                            <fielddominance>none</fielddominance>
                            <width>686</width>
                            <height>511</height>
                          </samplecharacteristics>
                        </video>
                      </media>
                    </file>
                  </clipitem>
                </track>
              </video>
            </media>
          </clip>
          <clip explodedTracks="true" frameBlend="FALSE" id="masterclip-73">
            <uuid>bf1a80ca-ccde-45f1-870f-087adb4dca60</uuid>
            <masterclipid>masterclip-73</masterclipid>
            <ismasterclip>TRUE</ismasterclip>
            <duration>139</duration>
            <in>0</in>
            <out>139</out>
            <name>Mike.071.png</name>
            <rate>
              <timebase>24</timebase>
              <ntsc>FALSE</ntsc>
            </rate>
            <media>
              <video>
                <track>
                  <clipitem frameBlend="FALSE" id="clipitem-74">
                    <name>Mike.071.png</name>
                    <masterclipid>masterclip-73</masterclipid>
                    <rate>
                      <timebase>24</timebase>
                      <ntsc>FALSE</ntsc>
                    </rate>
                    <alphatype>straight</alphatype>
                    <pixelaspectratio>square</pixelaspectratio>
                    <anamorphic>FALSE</anamorphic>
                    <file id="file-73">
                      <name>Mike.071.png</name>
                      <pathurl>file://localhost/Users/antoniochiappetta/OneDrive - Aalto University/University/Aalto/Hackatons/Junction/Junction2019-IoK-security_awareness_kids/Assets/Team Animations/Image Sequences/Mike/Mike.071.png</pathurl>
                      <rate>
                        <timebase>24</timebase>
                        <ntsc>FALSE</ntsc>
                      </rate>
                      <duration>139</duration>
                      <timecode>
                        <rate>
                          <timebase>24</timebase>
                          <ntsc>FALSE</ntsc>
                        </rate>
                      </timecode>
                      <media>
                        <video>
                          <duration>1</duration>
                          <samplecharacteristics>
                            <anamorphic>FALSE</anamorphic>
                            <pixelaspectratio>square</pixelaspectratio>
                            <fielddominance>none</fielddominance>
                            <width>686</width>
                            <height>511</height>
                          </samplecharacteristics>
                        </video>
                      </media>
                    </file>
                  </clipitem>
                </track>
              </video>
            </media>
          </clip>
          <clip explodedTracks="true" frameBlend="FALSE" id="masterclip-74">
            <uuid>9881effd-96df-4a1b-b42b-389d3daf1cdb</uuid>
            <masterclipid>masterclip-74</masterclipid>
            <ismasterclip>TRUE</ismasterclip>
            <duration>139</duration>
            <in>0</in>
            <out>139</out>
            <name>Mike.072.png</name>
            <rate>
              <timebase>24</timebase>
              <ntsc>FALSE</ntsc>
            </rate>
            <media>
              <video>
                <track>
                  <clipitem frameBlend="FALSE" id="clipitem-75">
                    <name>Mike.072.png</name>
                    <masterclipid>masterclip-74</masterclipid>
                    <rate>
                      <timebase>24</timebase>
                      <ntsc>FALSE</ntsc>
                    </rate>
                    <alphatype>straight</alphatype>
                    <pixelaspectratio>square</pixelaspectratio>
                    <anamorphic>FALSE</anamorphic>
                    <file id="file-74">
                      <name>Mike.072.png</name>
                      <pathurl>file://localhost/Users/antoniochiappetta/OneDrive - Aalto University/University/Aalto/Hackatons/Junction/Junction2019-IoK-security_awareness_kids/Assets/Team Animations/Image Sequences/Mike/Mike.072.png</pathurl>
                      <rate>
                        <timebase>24</timebase>
                        <ntsc>FALSE</ntsc>
                      </rate>
                      <duration>139</duration>
                      <timecode>
                        <rate>
                          <timebase>24</timebase>
                          <ntsc>FALSE</ntsc>
                        </rate>
                      </timecode>
                      <media>
                        <video>
                          <duration>1</duration>
                          <samplecharacteristics>
                            <anamorphic>FALSE</anamorphic>
                            <pixelaspectratio>square</pixelaspectratio>
                            <fielddominance>none</fielddominance>
                            <width>686</width>
                            <height>511</height>
                          </samplecharacteristics>
                        </video>
                      </media>
                    </file>
                  </clipitem>
                </track>
              </video>
            </media>
          </clip>
          <clip explodedTracks="true" frameBlend="FALSE" id="masterclip-75">
            <uuid>b68a2b28-0690-47ff-81b4-b1bd4da3467e</uuid>
            <masterclipid>masterclip-75</masterclipid>
            <ismasterclip>TRUE</ismasterclip>
            <duration>139</duration>
            <in>0</in>
            <out>139</out>
            <name>Mike.073.png</name>
            <rate>
              <timebase>24</timebase>
              <ntsc>FALSE</ntsc>
            </rate>
            <media>
              <video>
                <track>
                  <clipitem frameBlend="FALSE" id="clipitem-76">
                    <name>Mike.073.png</name>
                    <masterclipid>masterclip-75</masterclipid>
                    <rate>
                      <timebase>24</timebase>
                      <ntsc>FALSE</ntsc>
                    </rate>
                    <alphatype>straight</alphatype>
                    <pixelaspectratio>square</pixelaspectratio>
                    <anamorphic>FALSE</anamorphic>
                    <file id="file-75">
                      <name>Mike.073.png</name>
                      <pathurl>file://localhost/Users/antoniochiappetta/OneDrive - Aalto University/University/Aalto/Hackatons/Junction/Junction2019-IoK-security_awareness_kids/Assets/Team Animations/Image Sequences/Mike/Mike.073.png</pathurl>
                      <rate>
                        <timebase>24</timebase>
                        <ntsc>FALSE</ntsc>
                      </rate>
                      <duration>139</duration>
                      <timecode>
                        <rate>
                          <timebase>24</timebase>
                          <ntsc>FALSE</ntsc>
                        </rate>
                      </timecode>
                      <media>
                        <video>
                          <duration>1</duration>
                          <samplecharacteristics>
                            <anamorphic>FALSE</anamorphic>
                            <pixelaspectratio>square</pixelaspectratio>
                            <fielddominance>none</fielddominance>
                            <width>686</width>
                            <height>511</height>
                          </samplecharacteristics>
                        </video>
                      </media>
                    </file>
                  </clipitem>
                </track>
              </video>
            </media>
          </clip>
          <clip explodedTracks="true" frameBlend="FALSE" id="masterclip-76">
            <uuid>844e46d1-7942-4434-9ebb-badeecb8f15d</uuid>
            <masterclipid>masterclip-76</masterclipid>
            <ismasterclip>TRUE</ismasterclip>
            <duration>139</duration>
            <in>0</in>
            <out>139</out>
            <name>Mike.074.png</name>
            <rate>
              <timebase>24</timebase>
              <ntsc>FALSE</ntsc>
            </rate>
            <media>
              <video>
                <track>
                  <clipitem frameBlend="FALSE" id="clipitem-77">
                    <name>Mike.074.png</name>
                    <masterclipid>masterclip-76</masterclipid>
                    <rate>
                      <timebase>24</timebase>
                      <ntsc>FALSE</ntsc>
                    </rate>
                    <alphatype>straight</alphatype>
                    <pixelaspectratio>square</pixelaspectratio>
                    <anamorphic>FALSE</anamorphic>
                    <file id="file-76">
                      <name>Mike.074.png</name>
                      <pathurl>file://localhost/Users/antoniochiappetta/OneDrive - Aalto University/University/Aalto/Hackatons/Junction/Junction2019-IoK-security_awareness_kids/Assets/Team Animations/Image Sequences/Mike/Mike.074.png</pathurl>
                      <rate>
                        <timebase>24</timebase>
                        <ntsc>FALSE</ntsc>
                      </rate>
                      <duration>139</duration>
                      <timecode>
                        <rate>
                          <timebase>24</timebase>
                          <ntsc>FALSE</ntsc>
                        </rate>
                      </timecode>
                      <media>
                        <video>
                          <duration>1</duration>
                          <samplecharacteristics>
                            <anamorphic>FALSE</anamorphic>
                            <pixelaspectratio>square</pixelaspectratio>
                            <fielddominance>none</fielddominance>
                            <width>686</width>
                            <height>511</height>
                          </samplecharacteristics>
                        </video>
                      </media>
                    </file>
                  </clipitem>
                </track>
              </video>
            </media>
          </clip>
          <clip explodedTracks="true" frameBlend="FALSE" id="masterclip-77">
            <uuid>48de8d2a-7d50-4079-9c71-4870591c7f5e</uuid>
            <masterclipid>masterclip-77</masterclipid>
            <ismasterclip>TRUE</ismasterclip>
            <duration>139</duration>
            <in>0</in>
            <out>139</out>
            <name>Mike.075.png</name>
            <rate>
              <timebase>24</timebase>
              <ntsc>FALSE</ntsc>
            </rate>
            <media>
              <video>
                <track>
                  <clipitem frameBlend="FALSE" id="clipitem-78">
                    <name>Mike.075.png</name>
                    <masterclipid>masterclip-77</masterclipid>
                    <rate>
                      <timebase>24</timebase>
                      <ntsc>FALSE</ntsc>
                    </rate>
                    <alphatype>straight</alphatype>
                    <pixelaspectratio>square</pixelaspectratio>
                    <anamorphic>FALSE</anamorphic>
                    <file id="file-77">
                      <name>Mike.075.png</name>
                      <pathurl>file://localhost/Users/antoniochiappetta/OneDrive - Aalto University/University/Aalto/Hackatons/Junction/Junction2019-IoK-security_awareness_kids/Assets/Team Animations/Image Sequences/Mike/Mike.075.png</pathurl>
                      <rate>
                        <timebase>24</timebase>
                        <ntsc>FALSE</ntsc>
                      </rate>
                      <duration>139</duration>
                      <timecode>
                        <rate>
                          <timebase>24</timebase>
                          <ntsc>FALSE</ntsc>
                        </rate>
                      </timecode>
                      <media>
                        <video>
                          <duration>1</duration>
                          <samplecharacteristics>
                            <anamorphic>FALSE</anamorphic>
                            <pixelaspectratio>square</pixelaspectratio>
                            <fielddominance>none</fielddominance>
                            <width>686</width>
                            <height>511</height>
                          </samplecharacteristics>
                        </video>
                      </media>
                    </file>
                  </clipitem>
                </track>
              </video>
            </media>
          </clip>
          <clip explodedTracks="true" frameBlend="FALSE" id="masterclip-78">
            <uuid>c73325fe-e24c-42be-8afc-ce7e96260960</uuid>
            <masterclipid>masterclip-78</masterclipid>
            <ismasterclip>TRUE</ismasterclip>
            <duration>139</duration>
            <in>0</in>
            <out>139</out>
            <name>Mike.076.png</name>
            <rate>
              <timebase>24</timebase>
              <ntsc>FALSE</ntsc>
            </rate>
            <media>
              <video>
                <track>
                  <clipitem frameBlend="FALSE" id="clipitem-79">
                    <name>Mike.076.png</name>
                    <masterclipid>masterclip-78</masterclipid>
                    <rate>
                      <timebase>24</timebase>
                      <ntsc>FALSE</ntsc>
                    </rate>
                    <alphatype>straight</alphatype>
                    <pixelaspectratio>square</pixelaspectratio>
                    <anamorphic>FALSE</anamorphic>
                    <file id="file-78">
                      <name>Mike.076.png</name>
                      <pathurl>file://localhost/Users/antoniochiappetta/OneDrive - Aalto University/University/Aalto/Hackatons/Junction/Junction2019-IoK-security_awareness_kids/Assets/Team Animations/Image Sequences/Mike/Mike.076.png</pathurl>
                      <rate>
                        <timebase>24</timebase>
                        <ntsc>FALSE</ntsc>
                      </rate>
                      <duration>139</duration>
                      <timecode>
                        <rate>
                          <timebase>24</timebase>
                          <ntsc>FALSE</ntsc>
                        </rate>
                      </timecode>
                      <media>
                        <video>
                          <duration>1</duration>
                          <samplecharacteristics>
                            <anamorphic>FALSE</anamorphic>
                            <pixelaspectratio>square</pixelaspectratio>
                            <fielddominance>none</fielddominance>
                            <width>686</width>
                            <height>511</height>
                          </samplecharacteristics>
                        </video>
                      </media>
                    </file>
                  </clipitem>
                </track>
              </video>
            </media>
          </clip>
          <clip explodedTracks="true" frameBlend="FALSE" id="masterclip-79">
            <uuid>ab4e3899-5d19-43b7-8669-c0f003b32ae6</uuid>
            <masterclipid>masterclip-79</masterclipid>
            <ismasterclip>TRUE</ismasterclip>
            <duration>139</duration>
            <in>0</in>
            <out>139</out>
            <name>Mike.077.png</name>
            <rate>
              <timebase>24</timebase>
              <ntsc>FALSE</ntsc>
            </rate>
            <media>
              <video>
                <track>
                  <clipitem frameBlend="FALSE" id="clipitem-80">
                    <name>Mike.077.png</name>
                    <masterclipid>masterclip-79</masterclipid>
                    <rate>
                      <timebase>24</timebase>
                      <ntsc>FALSE</ntsc>
                    </rate>
                    <alphatype>straight</alphatype>
                    <pixelaspectratio>square</pixelaspectratio>
                    <anamorphic>FALSE</anamorphic>
                    <file id="file-79">
                      <name>Mike.077.png</name>
                      <pathurl>file://localhost/Users/antoniochiappetta/OneDrive - Aalto University/University/Aalto/Hackatons/Junction/Junction2019-IoK-security_awareness_kids/Assets/Team Animations/Image Sequences/Mike/Mike.077.png</pathurl>
                      <rate>
                        <timebase>24</timebase>
                        <ntsc>FALSE</ntsc>
                      </rate>
                      <duration>139</duration>
                      <timecode>
                        <rate>
                          <timebase>24</timebase>
                          <ntsc>FALSE</ntsc>
                        </rate>
                      </timecode>
                      <media>
                        <video>
                          <duration>1</duration>
                          <samplecharacteristics>
                            <anamorphic>FALSE</anamorphic>
                            <pixelaspectratio>square</pixelaspectratio>
                            <fielddominance>none</fielddominance>
                            <width>686</width>
                            <height>511</height>
                          </samplecharacteristics>
                        </video>
                      </media>
                    </file>
                  </clipitem>
                </track>
              </video>
            </media>
          </clip>
          <clip explodedTracks="true" frameBlend="FALSE" id="masterclip-80">
            <uuid>9f718b6d-370d-4fbd-a177-32ea032f2007</uuid>
            <masterclipid>masterclip-80</masterclipid>
            <ismasterclip>TRUE</ismasterclip>
            <duration>139</duration>
            <in>0</in>
            <out>139</out>
            <name>Mike.078.png</name>
            <rate>
              <timebase>24</timebase>
              <ntsc>FALSE</ntsc>
            </rate>
            <media>
              <video>
                <track>
                  <clipitem frameBlend="FALSE" id="clipitem-81">
                    <name>Mike.078.png</name>
                    <masterclipid>masterclip-80</masterclipid>
                    <rate>
                      <timebase>24</timebase>
                      <ntsc>FALSE</ntsc>
                    </rate>
                    <alphatype>straight</alphatype>
                    <pixelaspectratio>square</pixelaspectratio>
                    <anamorphic>FALSE</anamorphic>
                    <file id="file-80">
                      <name>Mike.078.png</name>
                      <pathurl>file://localhost/Users/antoniochiappetta/OneDrive - Aalto University/University/Aalto/Hackatons/Junction/Junction2019-IoK-security_awareness_kids/Assets/Team Animations/Image Sequences/Mike/Mike.078.png</pathurl>
                      <rate>
                        <timebase>24</timebase>
                        <ntsc>FALSE</ntsc>
                      </rate>
                      <duration>139</duration>
                      <timecode>
                        <rate>
                          <timebase>24</timebase>
                          <ntsc>FALSE</ntsc>
                        </rate>
                      </timecode>
                      <media>
                        <video>
                          <duration>1</duration>
                          <samplecharacteristics>
                            <anamorphic>FALSE</anamorphic>
                            <pixelaspectratio>square</pixelaspectratio>
                            <fielddominance>none</fielddominance>
                            <width>686</width>
                            <height>511</height>
                          </samplecharacteristics>
                        </video>
                      </media>
                    </file>
                  </clipitem>
                </track>
              </video>
            </media>
          </clip>
          <clip explodedTracks="true" frameBlend="FALSE" id="masterclip-81">
            <uuid>a5cd17c7-bea3-40e7-a76f-81c0305d5537</uuid>
            <masterclipid>masterclip-81</masterclipid>
            <ismasterclip>TRUE</ismasterclip>
            <duration>139</duration>
            <in>0</in>
            <out>139</out>
            <name>Mike.079.png</name>
            <rate>
              <timebase>24</timebase>
              <ntsc>FALSE</ntsc>
            </rate>
            <media>
              <video>
                <track>
                  <clipitem frameBlend="FALSE" id="clipitem-82">
                    <name>Mike.079.png</name>
                    <masterclipid>masterclip-81</masterclipid>
                    <rate>
                      <timebase>24</timebase>
                      <ntsc>FALSE</ntsc>
                    </rate>
                    <alphatype>straight</alphatype>
                    <pixelaspectratio>square</pixelaspectratio>
                    <anamorphic>FALSE</anamorphic>
                    <file id="file-81">
                      <name>Mike.079.png</name>
                      <pathurl>file://localhost/Users/antoniochiappetta/OneDrive - Aalto University/University/Aalto/Hackatons/Junction/Junction2019-IoK-security_awareness_kids/Assets/Team Animations/Image Sequences/Mike/Mike.079.png</pathurl>
                      <rate>
                        <timebase>24</timebase>
                        <ntsc>FALSE</ntsc>
                      </rate>
                      <duration>139</duration>
                      <timecode>
                        <rate>
                          <timebase>24</timebase>
                          <ntsc>FALSE</ntsc>
                        </rate>
                      </timecode>
                      <media>
                        <video>
                          <duration>1</duration>
                          <samplecharacteristics>
                            <anamorphic>FALSE</anamorphic>
                            <pixelaspectratio>square</pixelaspectratio>
                            <fielddominance>none</fielddominance>
                            <width>686</width>
                            <height>511</height>
                          </samplecharacteristics>
                        </video>
                      </media>
                    </file>
                  </clipitem>
                </track>
              </video>
            </media>
          </clip>
          <clip explodedTracks="true" frameBlend="FALSE" id="masterclip-82">
            <uuid>681b231b-b045-4c46-a9f9-ee3ad87d5894</uuid>
            <masterclipid>masterclip-82</masterclipid>
            <ismasterclip>TRUE</ismasterclip>
            <duration>139</duration>
            <in>0</in>
            <out>139</out>
            <name>Mike.080.png</name>
            <rate>
              <timebase>24</timebase>
              <ntsc>FALSE</ntsc>
            </rate>
            <media>
              <video>
                <track>
                  <clipitem frameBlend="FALSE" id="clipitem-83">
                    <name>Mike.080.png</name>
                    <masterclipid>masterclip-82</masterclipid>
                    <rate>
                      <timebase>24</timebase>
                      <ntsc>FALSE</ntsc>
                    </rate>
                    <alphatype>straight</alphatype>
                    <pixelaspectratio>square</pixelaspectratio>
                    <anamorphic>FALSE</anamorphic>
                    <file id="file-82">
                      <name>Mike.080.png</name>
                      <pathurl>file://localhost/Users/antoniochiappetta/OneDrive - Aalto University/University/Aalto/Hackatons/Junction/Junction2019-IoK-security_awareness_kids/Assets/Team Animations/Image Sequences/Mike/Mike.080.png</pathurl>
                      <rate>
                        <timebase>24</timebase>
                        <ntsc>FALSE</ntsc>
                      </rate>
                      <duration>139</duration>
                      <timecode>
                        <rate>
                          <timebase>24</timebase>
                          <ntsc>FALSE</ntsc>
                        </rate>
                      </timecode>
                      <media>
                        <video>
                          <duration>1</duration>
                          <samplecharacteristics>
                            <anamorphic>FALSE</anamorphic>
                            <pixelaspectratio>square</pixelaspectratio>
                            <fielddominance>none</fielddominance>
                            <width>686</width>
                            <height>511</height>
                          </samplecharacteristics>
                        </video>
                      </media>
                    </file>
                  </clipitem>
                </track>
              </video>
            </media>
          </clip>
          <clip explodedTracks="true" frameBlend="FALSE" id="masterclip-83">
            <uuid>643c9684-189d-4b48-b856-0dc8bfbe7a47</uuid>
            <masterclipid>masterclip-83</masterclipid>
            <ismasterclip>TRUE</ismasterclip>
            <duration>139</duration>
            <in>0</in>
            <out>139</out>
            <name>Mike.081.png</name>
            <rate>
              <timebase>24</timebase>
              <ntsc>FALSE</ntsc>
            </rate>
            <media>
              <video>
                <track>
                  <clipitem frameBlend="FALSE" id="clipitem-84">
                    <name>Mike.081.png</name>
                    <masterclipid>masterclip-83</masterclipid>
                    <rate>
                      <timebase>24</timebase>
                      <ntsc>FALSE</ntsc>
                    </rate>
                    <alphatype>straight</alphatype>
                    <pixelaspectratio>square</pixelaspectratio>
                    <anamorphic>FALSE</anamorphic>
                    <file id="file-83">
                      <name>Mike.081.png</name>
                      <pathurl>file://localhost/Users/antoniochiappetta/OneDrive - Aalto University/University/Aalto/Hackatons/Junction/Junction2019-IoK-security_awareness_kids/Assets/Team Animations/Image Sequences/Mike/Mike.081.png</pathurl>
                      <rate>
                        <timebase>24</timebase>
                        <ntsc>FALSE</ntsc>
                      </rate>
                      <duration>139</duration>
                      <timecode>
                        <rate>
                          <timebase>24</timebase>
                          <ntsc>FALSE</ntsc>
                        </rate>
                      </timecode>
                      <media>
                        <video>
                          <duration>1</duration>
                          <samplecharacteristics>
                            <anamorphic>FALSE</anamorphic>
                            <pixelaspectratio>square</pixelaspectratio>
                            <fielddominance>none</fielddominance>
                            <width>686</width>
                            <height>511</height>
                          </samplecharacteristics>
                        </video>
                      </media>
                    </file>
                  </clipitem>
                </track>
              </video>
            </media>
          </clip>
          <clip explodedTracks="true" frameBlend="FALSE" id="masterclip-84">
            <uuid>47472a49-a85a-43f6-b853-d12c40db4491</uuid>
            <masterclipid>masterclip-84</masterclipid>
            <ismasterclip>TRUE</ismasterclip>
            <duration>139</duration>
            <in>0</in>
            <out>139</out>
            <name>Mike.082.png</name>
            <rate>
              <timebase>24</timebase>
              <ntsc>FALSE</ntsc>
            </rate>
            <media>
              <video>
                <track>
                  <clipitem frameBlend="FALSE" id="clipitem-85">
                    <name>Mike.082.png</name>
                    <masterclipid>masterclip-84</masterclipid>
                    <rate>
                      <timebase>24</timebase>
                      <ntsc>FALSE</ntsc>
                    </rate>
                    <alphatype>straight</alphatype>
                    <pixelaspectratio>square</pixelaspectratio>
                    <anamorphic>FALSE</anamorphic>
                    <file id="file-84">
                      <name>Mike.082.png</name>
                      <pathurl>file://localhost/Users/antoniochiappetta/OneDrive - Aalto University/University/Aalto/Hackatons/Junction/Junction2019-IoK-security_awareness_kids/Assets/Team Animations/Image Sequences/Mike/Mike.082.png</pathurl>
                      <rate>
                        <timebase>24</timebase>
                        <ntsc>FALSE</ntsc>
                      </rate>
                      <duration>139</duration>
                      <timecode>
                        <rate>
                          <timebase>24</timebase>
                          <ntsc>FALSE</ntsc>
                        </rate>
                      </timecode>
                      <media>
                        <video>
                          <duration>1</duration>
                          <samplecharacteristics>
                            <anamorphic>FALSE</anamorphic>
                            <pixelaspectratio>square</pixelaspectratio>
                            <fielddominance>none</fielddominance>
                            <width>686</width>
                            <height>511</height>
                          </samplecharacteristics>
                        </video>
                      </media>
                    </file>
                  </clipitem>
                </track>
              </video>
            </media>
          </clip>
          <clip explodedTracks="true" frameBlend="FALSE" id="masterclip-85">
            <uuid>ec2b4a51-5abd-4a38-a717-83f8478bb4eb</uuid>
            <masterclipid>masterclip-85</masterclipid>
            <ismasterclip>TRUE</ismasterclip>
            <duration>139</duration>
            <in>0</in>
            <out>139</out>
            <name>Mike.083.png</name>
            <rate>
              <timebase>24</timebase>
              <ntsc>FALSE</ntsc>
            </rate>
            <media>
              <video>
                <track>
                  <clipitem frameBlend="FALSE" id="clipitem-86">
                    <name>Mike.083.png</name>
                    <masterclipid>masterclip-85</masterclipid>
                    <rate>
                      <timebase>24</timebase>
                      <ntsc>FALSE</ntsc>
                    </rate>
                    <alphatype>straight</alphatype>
                    <pixelaspectratio>square</pixelaspectratio>
                    <anamorphic>FALSE</anamorphic>
                    <file id="file-85">
                      <name>Mike.083.png</name>
                      <pathurl>file://localhost/Users/antoniochiappetta/OneDrive - Aalto University/University/Aalto/Hackatons/Junction/Junction2019-IoK-security_awareness_kids/Assets/Team Animations/Image Sequences/Mike/Mike.083.png</pathurl>
                      <rate>
                        <timebase>24</timebase>
                        <ntsc>FALSE</ntsc>
                      </rate>
                      <duration>139</duration>
                      <timecode>
                        <rate>
                          <timebase>24</timebase>
                          <ntsc>FALSE</ntsc>
                        </rate>
                      </timecode>
                      <media>
                        <video>
                          <duration>1</duration>
                          <samplecharacteristics>
                            <anamorphic>FALSE</anamorphic>
                            <pixelaspectratio>square</pixelaspectratio>
                            <fielddominance>none</fielddominance>
                            <width>686</width>
                            <height>511</height>
                          </samplecharacteristics>
                        </video>
                      </media>
                    </file>
                  </clipitem>
                </track>
              </video>
            </media>
          </clip>
          <clip explodedTracks="true" frameBlend="FALSE" id="masterclip-86">
            <uuid>bd82371f-39ca-4903-80dc-0d93eb7869f9</uuid>
            <masterclipid>masterclip-86</masterclipid>
            <ismasterclip>TRUE</ismasterclip>
            <duration>139</duration>
            <in>0</in>
            <out>139</out>
            <name>Mike.084.png</name>
            <rate>
              <timebase>24</timebase>
              <ntsc>FALSE</ntsc>
            </rate>
            <media>
              <video>
                <track>
                  <clipitem frameBlend="FALSE" id="clipitem-87">
                    <name>Mike.084.png</name>
                    <masterclipid>masterclip-86</masterclipid>
                    <rate>
                      <timebase>24</timebase>
                      <ntsc>FALSE</ntsc>
                    </rate>
                    <alphatype>straight</alphatype>
                    <pixelaspectratio>square</pixelaspectratio>
                    <anamorphic>FALSE</anamorphic>
                    <file id="file-86">
                      <name>Mike.084.png</name>
                      <pathurl>file://localhost/Users/antoniochiappetta/OneDrive - Aalto University/University/Aalto/Hackatons/Junction/Junction2019-IoK-security_awareness_kids/Assets/Team Animations/Image Sequences/Mike/Mike.084.png</pathurl>
                      <rate>
                        <timebase>24</timebase>
                        <ntsc>FALSE</ntsc>
                      </rate>
                      <duration>139</duration>
                      <timecode>
                        <rate>
                          <timebase>24</timebase>
                          <ntsc>FALSE</ntsc>
                        </rate>
                      </timecode>
                      <media>
                        <video>
                          <duration>1</duration>
                          <samplecharacteristics>
                            <anamorphic>FALSE</anamorphic>
                            <pixelaspectratio>square</pixelaspectratio>
                            <fielddominance>none</fielddominance>
                            <width>686</width>
                            <height>511</height>
                          </samplecharacteristics>
                        </video>
                      </media>
                    </file>
                  </clipitem>
                </track>
              </video>
            </media>
          </clip>
          <clip explodedTracks="true" frameBlend="FALSE" id="masterclip-87">
            <uuid>77c912a8-8ec2-4aa2-a87c-f4c6fceb5ce4</uuid>
            <masterclipid>masterclip-87</masterclipid>
            <ismasterclip>TRUE</ismasterclip>
            <duration>139</duration>
            <in>0</in>
            <out>139</out>
            <name>Mike.085.png</name>
            <rate>
              <timebase>24</timebase>
              <ntsc>FALSE</ntsc>
            </rate>
            <media>
              <video>
                <track>
                  <clipitem frameBlend="FALSE" id="clipitem-88">
                    <name>Mike.085.png</name>
                    <masterclipid>masterclip-87</masterclipid>
                    <rate>
                      <timebase>24</timebase>
                      <ntsc>FALSE</ntsc>
                    </rate>
                    <alphatype>straight</alphatype>
                    <pixelaspectratio>square</pixelaspectratio>
                    <anamorphic>FALSE</anamorphic>
                    <file id="file-87">
                      <name>Mike.085.png</name>
                      <pathurl>file://localhost/Users/antoniochiappetta/OneDrive - Aalto University/University/Aalto/Hackatons/Junction/Junction2019-IoK-security_awareness_kids/Assets/Team Animations/Image Sequences/Mike/Mike.085.png</pathurl>
                      <rate>
                        <timebase>24</timebase>
                        <ntsc>FALSE</ntsc>
                      </rate>
                      <duration>139</duration>
                      <timecode>
                        <rate>
                          <timebase>24</timebase>
                          <ntsc>FALSE</ntsc>
                        </rate>
                      </timecode>
                      <media>
                        <video>
                          <duration>1</duration>
                          <samplecharacteristics>
                            <anamorphic>FALSE</anamorphic>
                            <pixelaspectratio>square</pixelaspectratio>
                            <fielddominance>none</fielddominance>
                            <width>686</width>
                            <height>511</height>
                          </samplecharacteristics>
                        </video>
                      </media>
                    </file>
                  </clipitem>
                </track>
              </video>
            </media>
          </clip>
          <clip explodedTracks="true" frameBlend="FALSE" id="masterclip-88">
            <uuid>6a9e2cdc-14d5-45fc-898e-2fa1dbfb30b9</uuid>
            <masterclipid>masterclip-88</masterclipid>
            <ismasterclip>TRUE</ismasterclip>
            <duration>139</duration>
            <in>0</in>
            <out>139</out>
            <name>Mike.086.png</name>
            <rate>
              <timebase>24</timebase>
              <ntsc>FALSE</ntsc>
            </rate>
            <media>
              <video>
                <track>
                  <clipitem frameBlend="FALSE" id="clipitem-89">
                    <name>Mike.086.png</name>
                    <masterclipid>masterclip-88</masterclipid>
                    <rate>
                      <timebase>24</timebase>
                      <ntsc>FALSE</ntsc>
                    </rate>
                    <alphatype>straight</alphatype>
                    <pixelaspectratio>square</pixelaspectratio>
                    <anamorphic>FALSE</anamorphic>
                    <file id="file-88">
                      <name>Mike.086.png</name>
                      <pathurl>file://localhost/Users/antoniochiappetta/OneDrive - Aalto University/University/Aalto/Hackatons/Junction/Junction2019-IoK-security_awareness_kids/Assets/Team Animations/Image Sequences/Mike/Mike.086.png</pathurl>
                      <rate>
                        <timebase>24</timebase>
                        <ntsc>FALSE</ntsc>
                      </rate>
                      <duration>139</duration>
                      <timecode>
                        <rate>
                          <timebase>24</timebase>
                          <ntsc>FALSE</ntsc>
                        </rate>
                      </timecode>
                      <media>
                        <video>
                          <duration>1</duration>
                          <samplecharacteristics>
                            <anamorphic>FALSE</anamorphic>
                            <pixelaspectratio>square</pixelaspectratio>
                            <fielddominance>none</fielddominance>
                            <width>686</width>
                            <height>511</height>
                          </samplecharacteristics>
                        </video>
                      </media>
                    </file>
                  </clipitem>
                </track>
              </video>
            </media>
          </clip>
          <clip explodedTracks="true" frameBlend="FALSE" id="masterclip-89">
            <uuid>9c1b8c8a-f1bb-4fe0-841e-74bd3322c822</uuid>
            <masterclipid>masterclip-89</masterclipid>
            <ismasterclip>TRUE</ismasterclip>
            <duration>139</duration>
            <in>0</in>
            <out>139</out>
            <name>Mike.087.png</name>
            <rate>
              <timebase>24</timebase>
              <ntsc>FALSE</ntsc>
            </rate>
            <media>
              <video>
                <track>
                  <clipitem frameBlend="FALSE" id="clipitem-90">
                    <name>Mike.087.png</name>
                    <masterclipid>masterclip-89</masterclipid>
                    <rate>
                      <timebase>24</timebase>
                      <ntsc>FALSE</ntsc>
                    </rate>
                    <alphatype>straight</alphatype>
                    <pixelaspectratio>square</pixelaspectratio>
                    <anamorphic>FALSE</anamorphic>
                    <file id="file-89">
                      <name>Mike.087.png</name>
                      <pathurl>file://localhost/Users/antoniochiappetta/OneDrive - Aalto University/University/Aalto/Hackatons/Junction/Junction2019-IoK-security_awareness_kids/Assets/Team Animations/Image Sequences/Mike/Mike.087.png</pathurl>
                      <rate>
                        <timebase>24</timebase>
                        <ntsc>FALSE</ntsc>
                      </rate>
                      <duration>139</duration>
                      <timecode>
                        <rate>
                          <timebase>24</timebase>
                          <ntsc>FALSE</ntsc>
                        </rate>
                      </timecode>
                      <media>
                        <video>
                          <duration>1</duration>
                          <samplecharacteristics>
                            <anamorphic>FALSE</anamorphic>
                            <pixelaspectratio>square</pixelaspectratio>
                            <fielddominance>none</fielddominance>
                            <width>686</width>
                            <height>511</height>
                          </samplecharacteristics>
                        </video>
                      </media>
                    </file>
                  </clipitem>
                </track>
              </video>
            </media>
          </clip>
          <clip explodedTracks="true" frameBlend="FALSE" id="masterclip-90">
            <uuid>45b9d11e-7626-4111-8f1f-9ce4d43f6f8b</uuid>
            <masterclipid>masterclip-90</masterclipid>
            <ismasterclip>TRUE</ismasterclip>
            <duration>139</duration>
            <in>0</in>
            <out>139</out>
            <name>Mike.088.png</name>
            <rate>
              <timebase>24</timebase>
              <ntsc>FALSE</ntsc>
            </rate>
            <media>
              <video>
                <track>
                  <clipitem frameBlend="FALSE" id="clipitem-91">
                    <name>Mike.088.png</name>
                    <masterclipid>masterclip-90</masterclipid>
                    <rate>
                      <timebase>24</timebase>
                      <ntsc>FALSE</ntsc>
                    </rate>
                    <alphatype>straight</alphatype>
                    <pixelaspectratio>square</pixelaspectratio>
                    <anamorphic>FALSE</anamorphic>
                    <file id="file-90">
                      <name>Mike.088.png</name>
                      <pathurl>file://localhost/Users/antoniochiappetta/OneDrive - Aalto University/University/Aalto/Hackatons/Junction/Junction2019-IoK-security_awareness_kids/Assets/Team Animations/Image Sequences/Mike/Mike.088.png</pathurl>
                      <rate>
                        <timebase>24</timebase>
                        <ntsc>FALSE</ntsc>
                      </rate>
                      <duration>139</duration>
                      <timecode>
                        <rate>
                          <timebase>24</timebase>
                          <ntsc>FALSE</ntsc>
                        </rate>
                      </timecode>
                      <media>
                        <video>
                          <duration>1</duration>
                          <samplecharacteristics>
                            <anamorphic>FALSE</anamorphic>
                            <pixelaspectratio>square</pixelaspectratio>
                            <fielddominance>none</fielddominance>
                            <width>686</width>
                            <height>511</height>
                          </samplecharacteristics>
                        </video>
                      </media>
                    </file>
                  </clipitem>
                </track>
              </video>
            </media>
          </clip>
          <clip explodedTracks="true" frameBlend="FALSE" id="masterclip-91">
            <uuid>fd229fd7-8b14-434c-a980-8c511c4bae24</uuid>
            <masterclipid>masterclip-91</masterclipid>
            <ismasterclip>TRUE</ismasterclip>
            <duration>139</duration>
            <in>0</in>
            <out>139</out>
            <name>Mike.089.png</name>
            <rate>
              <timebase>24</timebase>
              <ntsc>FALSE</ntsc>
            </rate>
            <media>
              <video>
                <track>
                  <clipitem frameBlend="FALSE" id="clipitem-92">
                    <name>Mike.089.png</name>
                    <masterclipid>masterclip-91</masterclipid>
                    <rate>
                      <timebase>24</timebase>
                      <ntsc>FALSE</ntsc>
                    </rate>
                    <alphatype>straight</alphatype>
                    <pixelaspectratio>square</pixelaspectratio>
                    <anamorphic>FALSE</anamorphic>
                    <file id="file-91">
                      <name>Mike.089.png</name>
                      <pathurl>file://localhost/Users/antoniochiappetta/OneDrive - Aalto University/University/Aalto/Hackatons/Junction/Junction2019-IoK-security_awareness_kids/Assets/Team Animations/Image Sequences/Mike/Mike.089.png</pathurl>
                      <rate>
                        <timebase>24</timebase>
                        <ntsc>FALSE</ntsc>
                      </rate>
                      <duration>139</duration>
                      <timecode>
                        <rate>
                          <timebase>24</timebase>
                          <ntsc>FALSE</ntsc>
                        </rate>
                      </timecode>
                      <media>
                        <video>
                          <duration>1</duration>
                          <samplecharacteristics>
                            <anamorphic>FALSE</anamorphic>
                            <pixelaspectratio>square</pixelaspectratio>
                            <fielddominance>none</fielddominance>
                            <width>686</width>
                            <height>511</height>
                          </samplecharacteristics>
                        </video>
                      </media>
                    </file>
                  </clipitem>
                </track>
              </video>
            </media>
          </clip>
          <clip explodedTracks="true" frameBlend="FALSE" id="masterclip-92">
            <uuid>6989a5a0-ced2-4b9b-9e25-53eb4a8cfee8</uuid>
            <masterclipid>masterclip-92</masterclipid>
            <ismasterclip>TRUE</ismasterclip>
            <duration>139</duration>
            <in>0</in>
            <out>139</out>
            <name>Mike.090.png</name>
            <rate>
              <timebase>24</timebase>
              <ntsc>FALSE</ntsc>
            </rate>
            <media>
              <video>
                <track>
                  <clipitem frameBlend="FALSE" id="clipitem-93">
                    <name>Mike.090.png</name>
                    <masterclipid>masterclip-92</masterclipid>
                    <rate>
                      <timebase>24</timebase>
                      <ntsc>FALSE</ntsc>
                    </rate>
                    <alphatype>straight</alphatype>
                    <pixelaspectratio>square</pixelaspectratio>
                    <anamorphic>FALSE</anamorphic>
                    <file id="file-92">
                      <name>Mike.090.png</name>
                      <pathurl>file://localhost/Users/antoniochiappetta/OneDrive - Aalto University/University/Aalto/Hackatons/Junction/Junction2019-IoK-security_awareness_kids/Assets/Team Animations/Image Sequences/Mike/Mike.090.png</pathurl>
                      <rate>
                        <timebase>24</timebase>
                        <ntsc>FALSE</ntsc>
                      </rate>
                      <duration>139</duration>
                      <timecode>
                        <rate>
                          <timebase>24</timebase>
                          <ntsc>FALSE</ntsc>
                        </rate>
                      </timecode>
                      <media>
                        <video>
                          <duration>1</duration>
                          <samplecharacteristics>
                            <anamorphic>FALSE</anamorphic>
                            <pixelaspectratio>square</pixelaspectratio>
                            <fielddominance>none</fielddominance>
                            <width>686</width>
                            <height>511</height>
                          </samplecharacteristics>
                        </video>
                      </media>
                    </file>
                  </clipitem>
                </track>
              </video>
            </media>
          </clip>
          <clip explodedTracks="true" frameBlend="FALSE" id="masterclip-93">
            <uuid>e1fcb2d3-7ac8-49d9-8d6e-1b6db575ea2f</uuid>
            <masterclipid>masterclip-93</masterclipid>
            <ismasterclip>TRUE</ismasterclip>
            <duration>139</duration>
            <in>0</in>
            <out>139</out>
            <name>Mike.091.png</name>
            <rate>
              <timebase>24</timebase>
              <ntsc>FALSE</ntsc>
            </rate>
            <media>
              <video>
                <track>
                  <clipitem frameBlend="FALSE" id="clipitem-94">
                    <name>Mike.091.png</name>
                    <masterclipid>masterclip-93</masterclipid>
                    <rate>
                      <timebase>24</timebase>
                      <ntsc>FALSE</ntsc>
                    </rate>
                    <alphatype>straight</alphatype>
                    <pixelaspectratio>square</pixelaspectratio>
                    <anamorphic>FALSE</anamorphic>
                    <file id="file-93">
                      <name>Mike.091.png</name>
                      <pathurl>file://localhost/Users/antoniochiappetta/OneDrive - Aalto University/University/Aalto/Hackatons/Junction/Junction2019-IoK-security_awareness_kids/Assets/Team Animations/Image Sequences/Mike/Mike.091.png</pathurl>
                      <rate>
                        <timebase>24</timebase>
                        <ntsc>FALSE</ntsc>
                      </rate>
                      <duration>139</duration>
                      <timecode>
                        <rate>
                          <timebase>24</timebase>
                          <ntsc>FALSE</ntsc>
                        </rate>
                      </timecode>
                      <media>
                        <video>
                          <duration>1</duration>
                          <samplecharacteristics>
                            <anamorphic>FALSE</anamorphic>
                            <pixelaspectratio>square</pixelaspectratio>
                            <fielddominance>none</fielddominance>
                            <width>686</width>
                            <height>511</height>
                          </samplecharacteristics>
                        </video>
                      </media>
                    </file>
                  </clipitem>
                </track>
              </video>
            </media>
          </clip>
          <clip explodedTracks="true" frameBlend="FALSE" id="masterclip-94">
            <uuid>041de3b5-e405-419c-94cd-2daf2262fbe7</uuid>
            <masterclipid>masterclip-94</masterclipid>
            <ismasterclip>TRUE</ismasterclip>
            <duration>139</duration>
            <in>0</in>
            <out>139</out>
            <name>Mike.092.png</name>
            <rate>
              <timebase>24</timebase>
              <ntsc>FALSE</ntsc>
            </rate>
            <media>
              <video>
                <track>
                  <clipitem frameBlend="FALSE" id="clipitem-95">
                    <name>Mike.092.png</name>
                    <masterclipid>masterclip-94</masterclipid>
                    <rate>
                      <timebase>24</timebase>
                      <ntsc>FALSE</ntsc>
                    </rate>
                    <alphatype>straight</alphatype>
                    <pixelaspectratio>square</pixelaspectratio>
                    <anamorphic>FALSE</anamorphic>
                    <file id="file-94">
                      <name>Mike.092.png</name>
                      <pathurl>file://localhost/Users/antoniochiappetta/OneDrive - Aalto University/University/Aalto/Hackatons/Junction/Junction2019-IoK-security_awareness_kids/Assets/Team Animations/Image Sequences/Mike/Mike.092.png</pathurl>
                      <rate>
                        <timebase>24</timebase>
                        <ntsc>FALSE</ntsc>
                      </rate>
                      <duration>139</duration>
                      <timecode>
                        <rate>
                          <timebase>24</timebase>
                          <ntsc>FALSE</ntsc>
                        </rate>
                      </timecode>
                      <media>
                        <video>
                          <duration>1</duration>
                          <samplecharacteristics>
                            <anamorphic>FALSE</anamorphic>
                            <pixelaspectratio>square</pixelaspectratio>
                            <fielddominance>none</fielddominance>
                            <width>686</width>
                            <height>511</height>
                          </samplecharacteristics>
                        </video>
                      </media>
                    </file>
                  </clipitem>
                </track>
              </video>
            </media>
          </clip>
          <clip explodedTracks="true" frameBlend="FALSE" id="masterclip-95">
            <uuid>a8918c18-dc95-4aec-bf1e-1d59404020cd</uuid>
            <masterclipid>masterclip-95</masterclipid>
            <ismasterclip>TRUE</ismasterclip>
            <duration>139</duration>
            <in>0</in>
            <out>139</out>
            <name>Mike.093.png</name>
            <rate>
              <timebase>24</timebase>
              <ntsc>FALSE</ntsc>
            </rate>
            <media>
              <video>
                <track>
                  <clipitem frameBlend="FALSE" id="clipitem-96">
                    <name>Mike.093.png</name>
                    <masterclipid>masterclip-95</masterclipid>
                    <rate>
                      <timebase>24</timebase>
                      <ntsc>FALSE</ntsc>
                    </rate>
                    <alphatype>straight</alphatype>
                    <pixelaspectratio>square</pixelaspectratio>
                    <anamorphic>FALSE</anamorphic>
                    <file id="file-95">
                      <name>Mike.093.png</name>
                      <pathurl>file://localhost/Users/antoniochiappetta/OneDrive - Aalto University/University/Aalto/Hackatons/Junction/Junction2019-IoK-security_awareness_kids/Assets/Team Animations/Image Sequences/Mike/Mike.093.png</pathurl>
                      <rate>
                        <timebase>24</timebase>
                        <ntsc>FALSE</ntsc>
                      </rate>
                      <duration>139</duration>
                      <timecode>
                        <rate>
                          <timebase>24</timebase>
                          <ntsc>FALSE</ntsc>
                        </rate>
                      </timecode>
                      <media>
                        <video>
                          <duration>1</duration>
                          <samplecharacteristics>
                            <anamorphic>FALSE</anamorphic>
                            <pixelaspectratio>square</pixelaspectratio>
                            <fielddominance>none</fielddominance>
                            <width>686</width>
                            <height>511</height>
                          </samplecharacteristics>
                        </video>
                      </media>
                    </file>
                  </clipitem>
                </track>
              </video>
            </media>
          </clip>
          <clip explodedTracks="true" frameBlend="FALSE" id="masterclip-96">
            <uuid>06eacae5-f7a4-41bf-9f6d-d41a9b8b77b8</uuid>
            <masterclipid>masterclip-96</masterclipid>
            <ismasterclip>TRUE</ismasterclip>
            <duration>139</duration>
            <in>0</in>
            <out>139</out>
            <name>Mike.094.png</name>
            <rate>
              <timebase>24</timebase>
              <ntsc>FALSE</ntsc>
            </rate>
            <media>
              <video>
                <track>
                  <clipitem frameBlend="FALSE" id="clipitem-97">
                    <name>Mike.094.png</name>
                    <masterclipid>masterclip-96</masterclipid>
                    <rate>
                      <timebase>24</timebase>
                      <ntsc>FALSE</ntsc>
                    </rate>
                    <alphatype>straight</alphatype>
                    <pixelaspectratio>square</pixelaspectratio>
                    <anamorphic>FALSE</anamorphic>
                    <file id="file-96">
                      <name>Mike.094.png</name>
                      <pathurl>file://localhost/Users/antoniochiappetta/OneDrive - Aalto University/University/Aalto/Hackatons/Junction/Junction2019-IoK-security_awareness_kids/Assets/Team Animations/Image Sequences/Mike/Mike.094.png</pathurl>
                      <rate>
                        <timebase>24</timebase>
                        <ntsc>FALSE</ntsc>
                      </rate>
                      <duration>139</duration>
                      <timecode>
                        <rate>
                          <timebase>24</timebase>
                          <ntsc>FALSE</ntsc>
                        </rate>
                      </timecode>
                      <media>
                        <video>
                          <duration>1</duration>
                          <samplecharacteristics>
                            <anamorphic>FALSE</anamorphic>
                            <pixelaspectratio>square</pixelaspectratio>
                            <fielddominance>none</fielddominance>
                            <width>686</width>
                            <height>511</height>
                          </samplecharacteristics>
                        </video>
                      </media>
                    </file>
                  </clipitem>
                </track>
              </video>
            </media>
          </clip>
          <clip explodedTracks="true" frameBlend="FALSE" id="masterclip-97">
            <uuid>ff9eda9c-3c52-4378-a3f2-dc2e9659a5dc</uuid>
            <masterclipid>masterclip-97</masterclipid>
            <ismasterclip>TRUE</ismasterclip>
            <duration>139</duration>
            <in>0</in>
            <out>139</out>
            <name>Mike.095.png</name>
            <rate>
              <timebase>24</timebase>
              <ntsc>FALSE</ntsc>
            </rate>
            <media>
              <video>
                <track>
                  <clipitem frameBlend="FALSE" id="clipitem-98">
                    <name>Mike.095.png</name>
                    <masterclipid>masterclip-97</masterclipid>
                    <rate>
                      <timebase>24</timebase>
                      <ntsc>FALSE</ntsc>
                    </rate>
                    <alphatype>straight</alphatype>
                    <pixelaspectratio>square</pixelaspectratio>
                    <anamorphic>FALSE</anamorphic>
                    <file id="file-97">
                      <name>Mike.095.png</name>
                      <pathurl>file://localhost/Users/antoniochiappetta/OneDrive - Aalto University/University/Aalto/Hackatons/Junction/Junction2019-IoK-security_awareness_kids/Assets/Team Animations/Image Sequences/Mike/Mike.095.png</pathurl>
                      <rate>
                        <timebase>24</timebase>
                        <ntsc>FALSE</ntsc>
                      </rate>
                      <duration>139</duration>
                      <timecode>
                        <rate>
                          <timebase>24</timebase>
                          <ntsc>FALSE</ntsc>
                        </rate>
                      </timecode>
                      <media>
                        <video>
                          <duration>1</duration>
                          <samplecharacteristics>
                            <anamorphic>FALSE</anamorphic>
                            <pixelaspectratio>square</pixelaspectratio>
                            <fielddominance>none</fielddominance>
                            <width>686</width>
                            <height>511</height>
                          </samplecharacteristics>
                        </video>
                      </media>
                    </file>
                  </clipitem>
                </track>
              </video>
            </media>
          </clip>
          <clip explodedTracks="true" frameBlend="FALSE" id="masterclip-98">
            <uuid>55c25a20-ba97-4a4c-b336-5f84f08ea8aa</uuid>
            <masterclipid>masterclip-98</masterclipid>
            <ismasterclip>TRUE</ismasterclip>
            <duration>139</duration>
            <in>0</in>
            <out>139</out>
            <name>Mike.096.png</name>
            <rate>
              <timebase>24</timebase>
              <ntsc>FALSE</ntsc>
            </rate>
            <media>
              <video>
                <track>
                  <clipitem frameBlend="FALSE" id="clipitem-99">
                    <name>Mike.096.png</name>
                    <masterclipid>masterclip-98</masterclipid>
                    <rate>
                      <timebase>24</timebase>
                      <ntsc>FALSE</ntsc>
                    </rate>
                    <alphatype>straight</alphatype>
                    <pixelaspectratio>square</pixelaspectratio>
                    <anamorphic>FALSE</anamorphic>
                    <file id="file-98">
                      <name>Mike.096.png</name>
                      <pathurl>file://localhost/Users/antoniochiappetta/OneDrive - Aalto University/University/Aalto/Hackatons/Junction/Junction2019-IoK-security_awareness_kids/Assets/Team Animations/Image Sequences/Mike/Mike.096.png</pathurl>
                      <rate>
                        <timebase>24</timebase>
                        <ntsc>FALSE</ntsc>
                      </rate>
                      <duration>139</duration>
                      <timecode>
                        <rate>
                          <timebase>24</timebase>
                          <ntsc>FALSE</ntsc>
                        </rate>
                      </timecode>
                      <media>
                        <video>
                          <duration>1</duration>
                          <samplecharacteristics>
                            <anamorphic>FALSE</anamorphic>
                            <pixelaspectratio>square</pixelaspectratio>
                            <fielddominance>none</fielddominance>
                            <width>686</width>
                            <height>511</height>
                          </samplecharacteristics>
                        </video>
                      </media>
                    </file>
                  </clipitem>
                </track>
              </video>
            </media>
          </clip>
          <clip explodedTracks="true" frameBlend="FALSE" id="masterclip-99">
            <uuid>a5fc04d2-5faf-4d77-9e0a-262424a7bf46</uuid>
            <masterclipid>masterclip-99</masterclipid>
            <ismasterclip>TRUE</ismasterclip>
            <duration>139</duration>
            <in>0</in>
            <out>139</out>
            <name>Mike.097.png</name>
            <rate>
              <timebase>24</timebase>
              <ntsc>FALSE</ntsc>
            </rate>
            <media>
              <video>
                <track>
                  <clipitem frameBlend="FALSE" id="clipitem-100">
                    <name>Mike.097.png</name>
                    <masterclipid>masterclip-99</masterclipid>
                    <rate>
                      <timebase>24</timebase>
                      <ntsc>FALSE</ntsc>
                    </rate>
                    <alphatype>straight</alphatype>
                    <pixelaspectratio>square</pixelaspectratio>
                    <anamorphic>FALSE</anamorphic>
                    <file id="file-99">
                      <name>Mike.097.png</name>
                      <pathurl>file://localhost/Users/antoniochiappetta/OneDrive - Aalto University/University/Aalto/Hackatons/Junction/Junction2019-IoK-security_awareness_kids/Assets/Team Animations/Image Sequences/Mike/Mike.097.png</pathurl>
                      <rate>
                        <timebase>24</timebase>
                        <ntsc>FALSE</ntsc>
                      </rate>
                      <duration>139</duration>
                      <timecode>
                        <rate>
                          <timebase>24</timebase>
                          <ntsc>FALSE</ntsc>
                        </rate>
                      </timecode>
                      <media>
                        <video>
                          <duration>1</duration>
                          <samplecharacteristics>
                            <anamorphic>FALSE</anamorphic>
                            <pixelaspectratio>square</pixelaspectratio>
                            <fielddominance>none</fielddominance>
                            <width>686</width>
                            <height>511</height>
                          </samplecharacteristics>
                        </video>
                      </media>
                    </file>
                  </clipitem>
                </track>
              </video>
            </media>
          </clip>
          <clip explodedTracks="true" frameBlend="FALSE" id="masterclip-100">
            <uuid>7fa254c9-675c-41b4-837d-fa14dde0e19b</uuid>
            <masterclipid>masterclip-100</masterclipid>
            <ismasterclip>TRUE</ismasterclip>
            <duration>139</duration>
            <in>0</in>
            <out>139</out>
            <name>Mike.098.png</name>
            <rate>
              <timebase>24</timebase>
              <ntsc>FALSE</ntsc>
            </rate>
            <media>
              <video>
                <track>
                  <clipitem frameBlend="FALSE" id="clipitem-101">
                    <name>Mike.098.png</name>
                    <masterclipid>masterclip-100</masterclipid>
                    <rate>
                      <timebase>24</timebase>
                      <ntsc>FALSE</ntsc>
                    </rate>
                    <alphatype>straight</alphatype>
                    <pixelaspectratio>square</pixelaspectratio>
                    <anamorphic>FALSE</anamorphic>
                    <file id="file-100">
                      <name>Mike.098.png</name>
                      <pathurl>file://localhost/Users/antoniochiappetta/OneDrive - Aalto University/University/Aalto/Hackatons/Junction/Junction2019-IoK-security_awareness_kids/Assets/Team Animations/Image Sequences/Mike/Mike.098.png</pathurl>
                      <rate>
                        <timebase>24</timebase>
                        <ntsc>FALSE</ntsc>
                      </rate>
                      <duration>139</duration>
                      <timecode>
                        <rate>
                          <timebase>24</timebase>
                          <ntsc>FALSE</ntsc>
                        </rate>
                      </timecode>
                      <media>
                        <video>
                          <duration>1</duration>
                          <samplecharacteristics>
                            <anamorphic>FALSE</anamorphic>
                            <pixelaspectratio>square</pixelaspectratio>
                            <fielddominance>none</fielddominance>
                            <width>686</width>
                            <height>511</height>
                          </samplecharacteristics>
                        </video>
                      </media>
                    </file>
                  </clipitem>
                </track>
              </video>
            </media>
          </clip>
          <clip explodedTracks="true" frameBlend="FALSE" id="masterclip-101">
            <uuid>ae7bd47a-da9f-4907-bcd3-0bf2f4acafab</uuid>
            <masterclipid>masterclip-101</masterclipid>
            <ismasterclip>TRUE</ismasterclip>
            <duration>139</duration>
            <in>0</in>
            <out>139</out>
            <name>Mike.099.png</name>
            <rate>
              <timebase>24</timebase>
              <ntsc>FALSE</ntsc>
            </rate>
            <media>
              <video>
                <track>
                  <clipitem frameBlend="FALSE" id="clipitem-102">
                    <name>Mike.099.png</name>
                    <masterclipid>masterclip-101</masterclipid>
                    <rate>
                      <timebase>24</timebase>
                      <ntsc>FALSE</ntsc>
                    </rate>
                    <alphatype>straight</alphatype>
                    <pixelaspectratio>square</pixelaspectratio>
                    <anamorphic>FALSE</anamorphic>
                    <file id="file-101">
                      <name>Mike.099.png</name>
                      <pathurl>file://localhost/Users/antoniochiappetta/OneDrive - Aalto University/University/Aalto/Hackatons/Junction/Junction2019-IoK-security_awareness_kids/Assets/Team Animations/Image Sequences/Mike/Mike.099.png</pathurl>
                      <rate>
                        <timebase>24</timebase>
                        <ntsc>FALSE</ntsc>
                      </rate>
                      <duration>139</duration>
                      <timecode>
                        <rate>
                          <timebase>24</timebase>
                          <ntsc>FALSE</ntsc>
                        </rate>
                      </timecode>
                      <media>
                        <video>
                          <duration>1</duration>
                          <samplecharacteristics>
                            <anamorphic>FALSE</anamorphic>
                            <pixelaspectratio>square</pixelaspectratio>
                            <fielddominance>none</fielddominance>
                            <width>686</width>
                            <height>511</height>
                          </samplecharacteristics>
                        </video>
                      </media>
                    </file>
                  </clipitem>
                </track>
              </video>
            </media>
          </clip>
          <clip explodedTracks="true" frameBlend="FALSE" id="masterclip-102">
            <uuid>50020d1f-30fb-49b8-9f62-22ac7be64ca2</uuid>
            <masterclipid>masterclip-102</masterclipid>
            <ismasterclip>TRUE</ismasterclip>
            <duration>139</duration>
            <in>0</in>
            <out>139</out>
            <name>Mike.100.png</name>
            <rate>
              <timebase>24</timebase>
              <ntsc>FALSE</ntsc>
            </rate>
            <media>
              <video>
                <track>
                  <clipitem frameBlend="FALSE" id="clipitem-103">
                    <name>Mike.100.png</name>
                    <masterclipid>masterclip-102</masterclipid>
                    <rate>
                      <timebase>24</timebase>
                      <ntsc>FALSE</ntsc>
                    </rate>
                    <alphatype>straight</alphatype>
                    <pixelaspectratio>square</pixelaspectratio>
                    <anamorphic>FALSE</anamorphic>
                    <file id="file-102">
                      <name>Mike.100.png</name>
                      <pathurl>file://localhost/Users/antoniochiappetta/OneDrive - Aalto University/University/Aalto/Hackatons/Junction/Junction2019-IoK-security_awareness_kids/Assets/Team Animations/Image Sequences/Mike/Mike.100.png</pathurl>
                      <rate>
                        <timebase>24</timebase>
                        <ntsc>FALSE</ntsc>
                      </rate>
                      <duration>139</duration>
                      <timecode>
                        <rate>
                          <timebase>24</timebase>
                          <ntsc>FALSE</ntsc>
                        </rate>
                      </timecode>
                      <media>
                        <video>
                          <duration>1</duration>
                          <samplecharacteristics>
                            <anamorphic>FALSE</anamorphic>
                            <pixelaspectratio>square</pixelaspectratio>
                            <fielddominance>none</fielddominance>
                            <width>686</width>
                            <height>511</height>
                          </samplecharacteristics>
                        </video>
                      </media>
                    </file>
                  </clipitem>
                </track>
              </video>
            </media>
          </clip>
          <clip explodedTracks="true" frameBlend="FALSE" id="masterclip-103">
            <uuid>22c1601b-9d37-4bbc-bdb4-68c5c0bf0f46</uuid>
            <masterclipid>masterclip-103</masterclipid>
            <ismasterclip>TRUE</ismasterclip>
            <duration>139</duration>
            <in>0</in>
            <out>139</out>
            <name>Mike.101.png</name>
            <rate>
              <timebase>24</timebase>
              <ntsc>FALSE</ntsc>
            </rate>
            <media>
              <video>
                <track>
                  <clipitem frameBlend="FALSE" id="clipitem-104">
                    <name>Mike.101.png</name>
                    <masterclipid>masterclip-103</masterclipid>
                    <rate>
                      <timebase>24</timebase>
                      <ntsc>FALSE</ntsc>
                    </rate>
                    <alphatype>straight</alphatype>
                    <pixelaspectratio>square</pixelaspectratio>
                    <anamorphic>FALSE</anamorphic>
                    <file id="file-103">
                      <name>Mike.101.png</name>
                      <pathurl>file://localhost/Users/antoniochiappetta/OneDrive - Aalto University/University/Aalto/Hackatons/Junction/Junction2019-IoK-security_awareness_kids/Assets/Team Animations/Image Sequences/Mike/Mike.101.png</pathurl>
                      <rate>
                        <timebase>24</timebase>
                        <ntsc>FALSE</ntsc>
                      </rate>
                      <duration>139</duration>
                      <timecode>
                        <rate>
                          <timebase>24</timebase>
                          <ntsc>FALSE</ntsc>
                        </rate>
                      </timecode>
                      <media>
                        <video>
                          <duration>1</duration>
                          <samplecharacteristics>
                            <anamorphic>FALSE</anamorphic>
                            <pixelaspectratio>square</pixelaspectratio>
                            <fielddominance>none</fielddominance>
                            <width>686</width>
                            <height>511</height>
                          </samplecharacteristics>
                        </video>
                      </media>
                    </file>
                  </clipitem>
                </track>
              </video>
            </media>
          </clip>
          <clip explodedTracks="true" frameBlend="FALSE" id="masterclip-104">
            <uuid>9ad1d3bb-790f-4c1c-8e70-66d5021db06e</uuid>
            <masterclipid>masterclip-104</masterclipid>
            <ismasterclip>TRUE</ismasterclip>
            <duration>139</duration>
            <in>0</in>
            <out>139</out>
            <name>Mike.102.png</name>
            <rate>
              <timebase>24</timebase>
              <ntsc>FALSE</ntsc>
            </rate>
            <media>
              <video>
                <track>
                  <clipitem frameBlend="FALSE" id="clipitem-105">
                    <name>Mike.102.png</name>
                    <masterclipid>masterclip-104</masterclipid>
                    <rate>
                      <timebase>24</timebase>
                      <ntsc>FALSE</ntsc>
                    </rate>
                    <alphatype>straight</alphatype>
                    <pixelaspectratio>square</pixelaspectratio>
                    <anamorphic>FALSE</anamorphic>
                    <file id="file-104">
                      <name>Mike.102.png</name>
                      <pathurl>file://localhost/Users/antoniochiappetta/OneDrive - Aalto University/University/Aalto/Hackatons/Junction/Junction2019-IoK-security_awareness_kids/Assets/Team Animations/Image Sequences/Mike/Mike.102.png</pathurl>
                      <rate>
                        <timebase>24</timebase>
                        <ntsc>FALSE</ntsc>
                      </rate>
                      <duration>139</duration>
                      <timecode>
                        <rate>
                          <timebase>24</timebase>
                          <ntsc>FALSE</ntsc>
                        </rate>
                      </timecode>
                      <media>
                        <video>
                          <duration>1</duration>
                          <samplecharacteristics>
                            <anamorphic>FALSE</anamorphic>
                            <pixelaspectratio>square</pixelaspectratio>
                            <fielddominance>none</fielddominance>
                            <width>686</width>
                            <height>511</height>
                          </samplecharacteristics>
                        </video>
                      </media>
                    </file>
                  </clipitem>
                </track>
              </video>
            </media>
          </clip>
          <clip explodedTracks="true" frameBlend="FALSE" id="masterclip-105">
            <uuid>74beb7b8-9021-4af6-b245-cfbcc7f7dd7c</uuid>
            <masterclipid>masterclip-105</masterclipid>
            <ismasterclip>TRUE</ismasterclip>
            <duration>139</duration>
            <in>0</in>
            <out>139</out>
            <name>Mike.103.png</name>
            <rate>
              <timebase>24</timebase>
              <ntsc>FALSE</ntsc>
            </rate>
            <media>
              <video>
                <track>
                  <clipitem frameBlend="FALSE" id="clipitem-106">
                    <name>Mike.103.png</name>
                    <masterclipid>masterclip-105</masterclipid>
                    <rate>
                      <timebase>24</timebase>
                      <ntsc>FALSE</ntsc>
                    </rate>
                    <alphatype>straight</alphatype>
                    <pixelaspectratio>square</pixelaspectratio>
                    <anamorphic>FALSE</anamorphic>
                    <file id="file-105">
                      <name>Mike.103.png</name>
                      <pathurl>file://localhost/Users/antoniochiappetta/OneDrive - Aalto University/University/Aalto/Hackatons/Junction/Junction2019-IoK-security_awareness_kids/Assets/Team Animations/Image Sequences/Mike/Mike.103.png</pathurl>
                      <rate>
                        <timebase>24</timebase>
                        <ntsc>FALSE</ntsc>
                      </rate>
                      <duration>139</duration>
                      <timecode>
                        <rate>
                          <timebase>24</timebase>
                          <ntsc>FALSE</ntsc>
                        </rate>
                      </timecode>
                      <media>
                        <video>
                          <duration>1</duration>
                          <samplecharacteristics>
                            <anamorphic>FALSE</anamorphic>
                            <pixelaspectratio>square</pixelaspectratio>
                            <fielddominance>none</fielddominance>
                            <width>686</width>
                            <height>511</height>
                          </samplecharacteristics>
                        </video>
                      </media>
                    </file>
                  </clipitem>
                </track>
              </video>
            </media>
          </clip>
          <clip explodedTracks="true" frameBlend="FALSE" id="masterclip-106">
            <uuid>dd175ae2-7e53-48f8-996c-2314cd19dd4d</uuid>
            <masterclipid>masterclip-106</masterclipid>
            <ismasterclip>TRUE</ismasterclip>
            <duration>139</duration>
            <in>0</in>
            <out>139</out>
            <name>Mike.104.png</name>
            <rate>
              <timebase>24</timebase>
              <ntsc>FALSE</ntsc>
            </rate>
            <media>
              <video>
                <track>
                  <clipitem frameBlend="FALSE" id="clipitem-107">
                    <name>Mike.104.png</name>
                    <masterclipid>masterclip-106</masterclipid>
                    <rate>
                      <timebase>24</timebase>
                      <ntsc>FALSE</ntsc>
                    </rate>
                    <alphatype>straight</alphatype>
                    <pixelaspectratio>square</pixelaspectratio>
                    <anamorphic>FALSE</anamorphic>
                    <file id="file-106">
                      <name>Mike.104.png</name>
                      <pathurl>file://localhost/Users/antoniochiappetta/OneDrive - Aalto University/University/Aalto/Hackatons/Junction/Junction2019-IoK-security_awareness_kids/Assets/Team Animations/Image Sequences/Mike/Mike.104.png</pathurl>
                      <rate>
                        <timebase>24</timebase>
                        <ntsc>FALSE</ntsc>
                      </rate>
                      <duration>139</duration>
                      <timecode>
                        <rate>
                          <timebase>24</timebase>
                          <ntsc>FALSE</ntsc>
                        </rate>
                      </timecode>
                      <media>
                        <video>
                          <duration>1</duration>
                          <samplecharacteristics>
                            <anamorphic>FALSE</anamorphic>
                            <pixelaspectratio>square</pixelaspectratio>
                            <fielddominance>none</fielddominance>
                            <width>686</width>
                            <height>511</height>
                          </samplecharacteristics>
                        </video>
                      </media>
                    </file>
                  </clipitem>
                </track>
              </video>
            </media>
          </clip>
          <clip explodedTracks="true" frameBlend="FALSE" id="masterclip-107">
            <uuid>3d55e8de-702e-4c96-bbc7-f9f15f6a7dea</uuid>
            <masterclipid>masterclip-107</masterclipid>
            <ismasterclip>TRUE</ismasterclip>
            <duration>139</duration>
            <in>0</in>
            <out>139</out>
            <name>Mike.105.png</name>
            <rate>
              <timebase>24</timebase>
              <ntsc>FALSE</ntsc>
            </rate>
            <media>
              <video>
                <track>
                  <clipitem frameBlend="FALSE" id="clipitem-108">
                    <name>Mike.105.png</name>
                    <masterclipid>masterclip-107</masterclipid>
                    <rate>
                      <timebase>24</timebase>
                      <ntsc>FALSE</ntsc>
                    </rate>
                    <alphatype>straight</alphatype>
                    <pixelaspectratio>square</pixelaspectratio>
                    <anamorphic>FALSE</anamorphic>
                    <file id="file-107">
                      <name>Mike.105.png</name>
                      <pathurl>file://localhost/Users/antoniochiappetta/OneDrive - Aalto University/University/Aalto/Hackatons/Junction/Junction2019-IoK-security_awareness_kids/Assets/Team Animations/Image Sequences/Mike/Mike.105.png</pathurl>
                      <rate>
                        <timebase>24</timebase>
                        <ntsc>FALSE</ntsc>
                      </rate>
                      <duration>139</duration>
                      <timecode>
                        <rate>
                          <timebase>24</timebase>
                          <ntsc>FALSE</ntsc>
                        </rate>
                      </timecode>
                      <media>
                        <video>
                          <duration>1</duration>
                          <samplecharacteristics>
                            <anamorphic>FALSE</anamorphic>
                            <pixelaspectratio>square</pixelaspectratio>
                            <fielddominance>none</fielddominance>
                            <width>686</width>
                            <height>511</height>
                          </samplecharacteristics>
                        </video>
                      </media>
                    </file>
                  </clipitem>
                </track>
              </video>
            </media>
          </clip>
          <clip explodedTracks="true" frameBlend="FALSE" id="masterclip-108">
            <uuid>d62244ca-dd53-4ff9-8fd0-7dbfcf18a5b0</uuid>
            <masterclipid>masterclip-108</masterclipid>
            <ismasterclip>TRUE</ismasterclip>
            <duration>139</duration>
            <in>0</in>
            <out>139</out>
            <name>Mike.106.png</name>
            <rate>
              <timebase>24</timebase>
              <ntsc>FALSE</ntsc>
            </rate>
            <media>
              <video>
                <track>
                  <clipitem frameBlend="FALSE" id="clipitem-109">
                    <name>Mike.106.png</name>
                    <masterclipid>masterclip-108</masterclipid>
                    <rate>
                      <timebase>24</timebase>
                      <ntsc>FALSE</ntsc>
                    </rate>
                    <alphatype>straight</alphatype>
                    <pixelaspectratio>square</pixelaspectratio>
                    <anamorphic>FALSE</anamorphic>
                    <file id="file-108">
                      <name>Mike.106.png</name>
                      <pathurl>file://localhost/Users/antoniochiappetta/OneDrive - Aalto University/University/Aalto/Hackatons/Junction/Junction2019-IoK-security_awareness_kids/Assets/Team Animations/Image Sequences/Mike/Mike.106.png</pathurl>
                      <rate>
                        <timebase>24</timebase>
                        <ntsc>FALSE</ntsc>
                      </rate>
                      <duration>139</duration>
                      <timecode>
                        <rate>
                          <timebase>24</timebase>
                          <ntsc>FALSE</ntsc>
                        </rate>
                      </timecode>
                      <media>
                        <video>
                          <duration>1</duration>
                          <samplecharacteristics>
                            <anamorphic>FALSE</anamorphic>
                            <pixelaspectratio>square</pixelaspectratio>
                            <fielddominance>none</fielddominance>
                            <width>686</width>
                            <height>511</height>
                          </samplecharacteristics>
                        </video>
                      </media>
                    </file>
                  </clipitem>
                </track>
              </video>
            </media>
          </clip>
          <clip explodedTracks="true" frameBlend="FALSE" id="masterclip-109">
            <uuid>f23d8fa1-321c-4c6c-876f-75882774cb72</uuid>
            <masterclipid>masterclip-109</masterclipid>
            <ismasterclip>TRUE</ismasterclip>
            <duration>139</duration>
            <in>0</in>
            <out>139</out>
            <name>Mike.107.png</name>
            <rate>
              <timebase>24</timebase>
              <ntsc>FALSE</ntsc>
            </rate>
            <media>
              <video>
                <track>
                  <clipitem frameBlend="FALSE" id="clipitem-110">
                    <name>Mike.107.png</name>
                    <masterclipid>masterclip-109</masterclipid>
                    <rate>
                      <timebase>24</timebase>
                      <ntsc>FALSE</ntsc>
                    </rate>
                    <alphatype>straight</alphatype>
                    <pixelaspectratio>square</pixelaspectratio>
                    <anamorphic>FALSE</anamorphic>
                    <file id="file-109">
                      <name>Mike.107.png</name>
                      <pathurl>file://localhost/Users/antoniochiappetta/OneDrive - Aalto University/University/Aalto/Hackatons/Junction/Junction2019-IoK-security_awareness_kids/Assets/Team Animations/Image Sequences/Mike/Mike.107.png</pathurl>
                      <rate>
                        <timebase>24</timebase>
                        <ntsc>FALSE</ntsc>
                      </rate>
                      <duration>139</duration>
                      <timecode>
                        <rate>
                          <timebase>24</timebase>
                          <ntsc>FALSE</ntsc>
                        </rate>
                      </timecode>
                      <media>
                        <video>
                          <duration>1</duration>
                          <samplecharacteristics>
                            <anamorphic>FALSE</anamorphic>
                            <pixelaspectratio>square</pixelaspectratio>
                            <fielddominance>none</fielddominance>
                            <width>686</width>
                            <height>511</height>
                          </samplecharacteristics>
                        </video>
                      </media>
                    </file>
                  </clipitem>
                </track>
              </video>
            </media>
          </clip>
          <clip explodedTracks="true" frameBlend="FALSE" id="masterclip-110">
            <uuid>7479c4d0-497e-4a84-a80d-d9e029666bd4</uuid>
            <masterclipid>masterclip-110</masterclipid>
            <ismasterclip>TRUE</ismasterclip>
            <duration>139</duration>
            <in>0</in>
            <out>139</out>
            <name>Mike.108.png</name>
            <rate>
              <timebase>24</timebase>
              <ntsc>FALSE</ntsc>
            </rate>
            <media>
              <video>
                <track>
                  <clipitem frameBlend="FALSE" id="clipitem-111">
                    <name>Mike.108.png</name>
                    <masterclipid>masterclip-110</masterclipid>
                    <rate>
                      <timebase>24</timebase>
                      <ntsc>FALSE</ntsc>
                    </rate>
                    <alphatype>straight</alphatype>
                    <pixelaspectratio>square</pixelaspectratio>
                    <anamorphic>FALSE</anamorphic>
                    <file id="file-110">
                      <name>Mike.108.png</name>
                      <pathurl>file://localhost/Users/antoniochiappetta/OneDrive - Aalto University/University/Aalto/Hackatons/Junction/Junction2019-IoK-security_awareness_kids/Assets/Team Animations/Image Sequences/Mike/Mike.108.png</pathurl>
                      <rate>
                        <timebase>24</timebase>
                        <ntsc>FALSE</ntsc>
                      </rate>
                      <duration>139</duration>
                      <timecode>
                        <rate>
                          <timebase>24</timebase>
                          <ntsc>FALSE</ntsc>
                        </rate>
                      </timecode>
                      <media>
                        <video>
                          <duration>1</duration>
                          <samplecharacteristics>
                            <anamorphic>FALSE</anamorphic>
                            <pixelaspectratio>square</pixelaspectratio>
                            <fielddominance>none</fielddominance>
                            <width>686</width>
                            <height>511</height>
                          </samplecharacteristics>
                        </video>
                      </media>
                    </file>
                  </clipitem>
                </track>
              </video>
            </media>
          </clip>
          <clip explodedTracks="true" frameBlend="FALSE" id="masterclip-111">
            <uuid>80b17e4a-d55f-4d30-ab89-173a07a0526e</uuid>
            <masterclipid>masterclip-111</masterclipid>
            <ismasterclip>TRUE</ismasterclip>
            <duration>139</duration>
            <in>0</in>
            <out>139</out>
            <name>Mike.109.png</name>
            <rate>
              <timebase>24</timebase>
              <ntsc>FALSE</ntsc>
            </rate>
            <media>
              <video>
                <track>
                  <clipitem frameBlend="FALSE" id="clipitem-112">
                    <name>Mike.109.png</name>
                    <masterclipid>masterclip-111</masterclipid>
                    <rate>
                      <timebase>24</timebase>
                      <ntsc>FALSE</ntsc>
                    </rate>
                    <alphatype>straight</alphatype>
                    <pixelaspectratio>square</pixelaspectratio>
                    <anamorphic>FALSE</anamorphic>
                    <file id="file-111">
                      <name>Mike.109.png</name>
                      <pathurl>file://localhost/Users/antoniochiappetta/OneDrive - Aalto University/University/Aalto/Hackatons/Junction/Junction2019-IoK-security_awareness_kids/Assets/Team Animations/Image Sequences/Mike/Mike.109.png</pathurl>
                      <rate>
                        <timebase>24</timebase>
                        <ntsc>FALSE</ntsc>
                      </rate>
                      <duration>139</duration>
                      <timecode>
                        <rate>
                          <timebase>24</timebase>
                          <ntsc>FALSE</ntsc>
                        </rate>
                      </timecode>
                      <media>
                        <video>
                          <duration>1</duration>
                          <samplecharacteristics>
                            <anamorphic>FALSE</anamorphic>
                            <pixelaspectratio>square</pixelaspectratio>
                            <fielddominance>none</fielddominance>
                            <width>686</width>
                            <height>511</height>
                          </samplecharacteristics>
                        </video>
                      </media>
                    </file>
                  </clipitem>
                </track>
              </video>
            </media>
          </clip>
          <clip explodedTracks="true" frameBlend="FALSE" id="masterclip-112">
            <uuid>4d601c92-9a12-43d2-acae-e6db88f4a382</uuid>
            <masterclipid>masterclip-112</masterclipid>
            <ismasterclip>TRUE</ismasterclip>
            <duration>139</duration>
            <in>0</in>
            <out>139</out>
            <name>Mike.110.png</name>
            <rate>
              <timebase>24</timebase>
              <ntsc>FALSE</ntsc>
            </rate>
            <media>
              <video>
                <track>
                  <clipitem frameBlend="FALSE" id="clipitem-113">
                    <name>Mike.110.png</name>
                    <masterclipid>masterclip-112</masterclipid>
                    <rate>
                      <timebase>24</timebase>
                      <ntsc>FALSE</ntsc>
                    </rate>
                    <alphatype>straight</alphatype>
                    <pixelaspectratio>square</pixelaspectratio>
                    <anamorphic>FALSE</anamorphic>
                    <file id="file-112">
                      <name>Mike.110.png</name>
                      <pathurl>file://localhost/Users/antoniochiappetta/OneDrive - Aalto University/University/Aalto/Hackatons/Junction/Junction2019-IoK-security_awareness_kids/Assets/Team Animations/Image Sequences/Mike/Mike.110.png</pathurl>
                      <rate>
                        <timebase>24</timebase>
                        <ntsc>FALSE</ntsc>
                      </rate>
                      <duration>139</duration>
                      <timecode>
                        <rate>
                          <timebase>24</timebase>
                          <ntsc>FALSE</ntsc>
                        </rate>
                      </timecode>
                      <media>
                        <video>
                          <duration>1</duration>
                          <samplecharacteristics>
                            <anamorphic>FALSE</anamorphic>
                            <pixelaspectratio>square</pixelaspectratio>
                            <fielddominance>none</fielddominance>
                            <width>686</width>
                            <height>511</height>
                          </samplecharacteristics>
                        </video>
                      </media>
                    </file>
                  </clipitem>
                </track>
              </video>
            </media>
          </clip>
          <clip explodedTracks="true" frameBlend="FALSE" id="masterclip-113">
            <uuid>077e6fb7-bdaf-4dda-a2a9-db42c9262887</uuid>
            <masterclipid>masterclip-113</masterclipid>
            <ismasterclip>TRUE</ismasterclip>
            <duration>139</duration>
            <in>0</in>
            <out>139</out>
            <name>Mike.111.png</name>
            <rate>
              <timebase>24</timebase>
              <ntsc>FALSE</ntsc>
            </rate>
            <media>
              <video>
                <track>
                  <clipitem frameBlend="FALSE" id="clipitem-114">
                    <name>Mike.111.png</name>
                    <masterclipid>masterclip-113</masterclipid>
                    <rate>
                      <timebase>24</timebase>
                      <ntsc>FALSE</ntsc>
                    </rate>
                    <alphatype>straight</alphatype>
                    <pixelaspectratio>square</pixelaspectratio>
                    <anamorphic>FALSE</anamorphic>
                    <file id="file-113">
                      <name>Mike.111.png</name>
                      <pathurl>file://localhost/Users/antoniochiappetta/OneDrive - Aalto University/University/Aalto/Hackatons/Junction/Junction2019-IoK-security_awareness_kids/Assets/Team Animations/Image Sequences/Mike/Mike.111.png</pathurl>
                      <rate>
                        <timebase>24</timebase>
                        <ntsc>FALSE</ntsc>
                      </rate>
                      <duration>139</duration>
                      <timecode>
                        <rate>
                          <timebase>24</timebase>
                          <ntsc>FALSE</ntsc>
                        </rate>
                      </timecode>
                      <media>
                        <video>
                          <duration>1</duration>
                          <samplecharacteristics>
                            <anamorphic>FALSE</anamorphic>
                            <pixelaspectratio>square</pixelaspectratio>
                            <fielddominance>none</fielddominance>
                            <width>686</width>
                            <height>511</height>
                          </samplecharacteristics>
                        </video>
                      </media>
                    </file>
                  </clipitem>
                </track>
              </video>
            </media>
          </clip>
          <clip explodedTracks="true" frameBlend="FALSE" id="masterclip-114">
            <uuid>59a78df1-5729-46b2-83ef-8821d8ef5fc2</uuid>
            <masterclipid>masterclip-114</masterclipid>
            <ismasterclip>TRUE</ismasterclip>
            <duration>139</duration>
            <in>0</in>
            <out>139</out>
            <name>Mike.112.png</name>
            <rate>
              <timebase>24</timebase>
              <ntsc>FALSE</ntsc>
            </rate>
            <media>
              <video>
                <track>
                  <clipitem frameBlend="FALSE" id="clipitem-115">
                    <name>Mike.112.png</name>
                    <masterclipid>masterclip-114</masterclipid>
                    <rate>
                      <timebase>24</timebase>
                      <ntsc>FALSE</ntsc>
                    </rate>
                    <alphatype>straight</alphatype>
                    <pixelaspectratio>square</pixelaspectratio>
                    <anamorphic>FALSE</anamorphic>
                    <file id="file-114">
                      <name>Mike.112.png</name>
                      <pathurl>file://localhost/Users/antoniochiappetta/OneDrive - Aalto University/University/Aalto/Hackatons/Junction/Junction2019-IoK-security_awareness_kids/Assets/Team Animations/Image Sequences/Mike/Mike.112.png</pathurl>
                      <rate>
                        <timebase>24</timebase>
                        <ntsc>FALSE</ntsc>
                      </rate>
                      <duration>139</duration>
                      <timecode>
                        <rate>
                          <timebase>24</timebase>
                          <ntsc>FALSE</ntsc>
                        </rate>
                      </timecode>
                      <media>
                        <video>
                          <duration>1</duration>
                          <samplecharacteristics>
                            <anamorphic>FALSE</anamorphic>
                            <pixelaspectratio>square</pixelaspectratio>
                            <fielddominance>none</fielddominance>
                            <width>686</width>
                            <height>511</height>
                          </samplecharacteristics>
                        </video>
                      </media>
                    </file>
                  </clipitem>
                </track>
              </video>
            </media>
          </clip>
          <clip explodedTracks="true" frameBlend="FALSE" id="masterclip-115">
            <uuid>ff080826-062c-4d62-abdd-4470528f5b5e</uuid>
            <masterclipid>masterclip-115</masterclipid>
            <ismasterclip>TRUE</ismasterclip>
            <duration>139</duration>
            <in>0</in>
            <out>139</out>
            <name>Mike.113.png</name>
            <rate>
              <timebase>24</timebase>
              <ntsc>FALSE</ntsc>
            </rate>
            <media>
              <video>
                <track>
                  <clipitem frameBlend="FALSE" id="clipitem-116">
                    <name>Mike.113.png</name>
                    <masterclipid>masterclip-115</masterclipid>
                    <rate>
                      <timebase>24</timebase>
                      <ntsc>FALSE</ntsc>
                    </rate>
                    <alphatype>straight</alphatype>
                    <pixelaspectratio>square</pixelaspectratio>
                    <anamorphic>FALSE</anamorphic>
                    <file id="file-115">
                      <name>Mike.113.png</name>
                      <pathurl>file://localhost/Users/antoniochiappetta/OneDrive - Aalto University/University/Aalto/Hackatons/Junction/Junction2019-IoK-security_awareness_kids/Assets/Team Animations/Image Sequences/Mike/Mike.113.png</pathurl>
                      <rate>
                        <timebase>24</timebase>
                        <ntsc>FALSE</ntsc>
                      </rate>
                      <duration>139</duration>
                      <timecode>
                        <rate>
                          <timebase>24</timebase>
                          <ntsc>FALSE</ntsc>
                        </rate>
                      </timecode>
                      <media>
                        <video>
                          <duration>1</duration>
                          <samplecharacteristics>
                            <anamorphic>FALSE</anamorphic>
                            <pixelaspectratio>square</pixelaspectratio>
                            <fielddominance>none</fielddominance>
                            <width>686</width>
                            <height>511</height>
                          </samplecharacteristics>
                        </video>
                      </media>
                    </file>
                  </clipitem>
                </track>
              </video>
            </media>
          </clip>
          <clip explodedTracks="true" frameBlend="FALSE" id="masterclip-116">
            <uuid>433e1a33-2fa8-4d8c-b55a-d35395cf83ff</uuid>
            <masterclipid>masterclip-116</masterclipid>
            <ismasterclip>TRUE</ismasterclip>
            <duration>139</duration>
            <in>0</in>
            <out>139</out>
            <name>Mike.114.png</name>
            <rate>
              <timebase>24</timebase>
              <ntsc>FALSE</ntsc>
            </rate>
            <media>
              <video>
                <track>
                  <clipitem frameBlend="FALSE" id="clipitem-117">
                    <name>Mike.114.png</name>
                    <masterclipid>masterclip-116</masterclipid>
                    <rate>
                      <timebase>24</timebase>
                      <ntsc>FALSE</ntsc>
                    </rate>
                    <alphatype>straight</alphatype>
                    <pixelaspectratio>square</pixelaspectratio>
                    <anamorphic>FALSE</anamorphic>
                    <file id="file-116">
                      <name>Mike.114.png</name>
                      <pathurl>file://localhost/Users/antoniochiappetta/OneDrive - Aalto University/University/Aalto/Hackatons/Junction/Junction2019-IoK-security_awareness_kids/Assets/Team Animations/Image Sequences/Mike/Mike.114.png</pathurl>
                      <rate>
                        <timebase>24</timebase>
                        <ntsc>FALSE</ntsc>
                      </rate>
                      <duration>139</duration>
                      <timecode>
                        <rate>
                          <timebase>24</timebase>
                          <ntsc>FALSE</ntsc>
                        </rate>
                      </timecode>
                      <media>
                        <video>
                          <duration>1</duration>
                          <samplecharacteristics>
                            <anamorphic>FALSE</anamorphic>
                            <pixelaspectratio>square</pixelaspectratio>
                            <fielddominance>none</fielddominance>
                            <width>686</width>
                            <height>511</height>
                          </samplecharacteristics>
                        </video>
                      </media>
                    </file>
                  </clipitem>
                </track>
              </video>
            </media>
          </clip>
          <clip explodedTracks="true" frameBlend="FALSE" id="masterclip-117">
            <uuid>91598715-2909-443d-8d90-90005624010b</uuid>
            <masterclipid>masterclip-117</masterclipid>
            <ismasterclip>TRUE</ismasterclip>
            <duration>139</duration>
            <in>0</in>
            <out>139</out>
            <name>Mike.115.png</name>
            <rate>
              <timebase>24</timebase>
              <ntsc>FALSE</ntsc>
            </rate>
            <media>
              <video>
                <track>
                  <clipitem frameBlend="FALSE" id="clipitem-118">
                    <name>Mike.115.png</name>
                    <masterclipid>masterclip-117</masterclipid>
                    <rate>
                      <timebase>24</timebase>
                      <ntsc>FALSE</ntsc>
                    </rate>
                    <alphatype>straight</alphatype>
                    <pixelaspectratio>square</pixelaspectratio>
                    <anamorphic>FALSE</anamorphic>
                    <file id="file-117">
                      <name>Mike.115.png</name>
                      <pathurl>file://localhost/Users/antoniochiappetta/OneDrive - Aalto University/University/Aalto/Hackatons/Junction/Junction2019-IoK-security_awareness_kids/Assets/Team Animations/Image Sequences/Mike/Mike.115.png</pathurl>
                      <rate>
                        <timebase>24</timebase>
                        <ntsc>FALSE</ntsc>
                      </rate>
                      <duration>139</duration>
                      <timecode>
                        <rate>
                          <timebase>24</timebase>
                          <ntsc>FALSE</ntsc>
                        </rate>
                      </timecode>
                      <media>
                        <video>
                          <duration>1</duration>
                          <samplecharacteristics>
                            <anamorphic>FALSE</anamorphic>
                            <pixelaspectratio>square</pixelaspectratio>
                            <fielddominance>none</fielddominance>
                            <width>686</width>
                            <height>511</height>
                          </samplecharacteristics>
                        </video>
                      </media>
                    </file>
                  </clipitem>
                </track>
              </video>
            </media>
          </clip>
          <clip explodedTracks="true" frameBlend="FALSE" id="masterclip-118">
            <uuid>a1c7c477-ba5d-4b79-bfc5-a3b1f479270c</uuid>
            <masterclipid>masterclip-118</masterclipid>
            <ismasterclip>TRUE</ismasterclip>
            <duration>139</duration>
            <in>0</in>
            <out>139</out>
            <name>Mike.116.png</name>
            <rate>
              <timebase>24</timebase>
              <ntsc>FALSE</ntsc>
            </rate>
            <media>
              <video>
                <track>
                  <clipitem frameBlend="FALSE" id="clipitem-119">
                    <name>Mike.116.png</name>
                    <masterclipid>masterclip-118</masterclipid>
                    <rate>
                      <timebase>24</timebase>
                      <ntsc>FALSE</ntsc>
                    </rate>
                    <alphatype>straight</alphatype>
                    <pixelaspectratio>square</pixelaspectratio>
                    <anamorphic>FALSE</anamorphic>
                    <file id="file-118">
                      <name>Mike.116.png</name>
                      <pathurl>file://localhost/Users/antoniochiappetta/OneDrive - Aalto University/University/Aalto/Hackatons/Junction/Junction2019-IoK-security_awareness_kids/Assets/Team Animations/Image Sequences/Mike/Mike.116.png</pathurl>
                      <rate>
                        <timebase>24</timebase>
                        <ntsc>FALSE</ntsc>
                      </rate>
                      <duration>139</duration>
                      <timecode>
                        <rate>
                          <timebase>24</timebase>
                          <ntsc>FALSE</ntsc>
                        </rate>
                      </timecode>
                      <media>
                        <video>
                          <duration>1</duration>
                          <samplecharacteristics>
                            <anamorphic>FALSE</anamorphic>
                            <pixelaspectratio>square</pixelaspectratio>
                            <fielddominance>none</fielddominance>
                            <width>686</width>
                            <height>511</height>
                          </samplecharacteristics>
                        </video>
                      </media>
                    </file>
                  </clipitem>
                </track>
              </video>
            </media>
          </clip>
          <clip explodedTracks="true" frameBlend="FALSE" id="masterclip-119">
            <uuid>89d62cef-71a3-4d5c-b92c-45abbeab9261</uuid>
            <masterclipid>masterclip-119</masterclipid>
            <ismasterclip>TRUE</ismasterclip>
            <duration>139</duration>
            <in>0</in>
            <out>139</out>
            <name>Mike.117.png</name>
            <rate>
              <timebase>24</timebase>
              <ntsc>FALSE</ntsc>
            </rate>
            <media>
              <video>
                <track>
                  <clipitem frameBlend="FALSE" id="clipitem-120">
                    <name>Mike.117.png</name>
                    <masterclipid>masterclip-119</masterclipid>
                    <rate>
                      <timebase>24</timebase>
                      <ntsc>FALSE</ntsc>
                    </rate>
                    <alphatype>straight</alphatype>
                    <pixelaspectratio>square</pixelaspectratio>
                    <anamorphic>FALSE</anamorphic>
                    <file id="file-119">
                      <name>Mike.117.png</name>
                      <pathurl>file://localhost/Users/antoniochiappetta/OneDrive - Aalto University/University/Aalto/Hackatons/Junction/Junction2019-IoK-security_awareness_kids/Assets/Team Animations/Image Sequences/Mike/Mike.117.png</pathurl>
                      <rate>
                        <timebase>24</timebase>
                        <ntsc>FALSE</ntsc>
                      </rate>
                      <duration>139</duration>
                      <timecode>
                        <rate>
                          <timebase>24</timebase>
                          <ntsc>FALSE</ntsc>
                        </rate>
                      </timecode>
                      <media>
                        <video>
                          <duration>1</duration>
                          <samplecharacteristics>
                            <anamorphic>FALSE</anamorphic>
                            <pixelaspectratio>square</pixelaspectratio>
                            <fielddominance>none</fielddominance>
                            <width>686</width>
                            <height>511</height>
                          </samplecharacteristics>
                        </video>
                      </media>
                    </file>
                  </clipitem>
                </track>
              </video>
            </media>
          </clip>
          <clip explodedTracks="true" frameBlend="FALSE" id="masterclip-120">
            <uuid>98d0bd59-6b5e-4e0d-a63f-8ca2d8725ba2</uuid>
            <masterclipid>masterclip-120</masterclipid>
            <ismasterclip>TRUE</ismasterclip>
            <duration>139</duration>
            <in>0</in>
            <out>139</out>
            <name>Mike.118.png</name>
            <rate>
              <timebase>24</timebase>
              <ntsc>FALSE</ntsc>
            </rate>
            <media>
              <video>
                <track>
                  <clipitem frameBlend="FALSE" id="clipitem-121">
                    <name>Mike.118.png</name>
                    <masterclipid>masterclip-120</masterclipid>
                    <rate>
                      <timebase>24</timebase>
                      <ntsc>FALSE</ntsc>
                    </rate>
                    <alphatype>straight</alphatype>
                    <pixelaspectratio>square</pixelaspectratio>
                    <anamorphic>FALSE</anamorphic>
                    <file id="file-120">
                      <name>Mike.118.png</name>
                      <pathurl>file://localhost/Users/antoniochiappetta/OneDrive - Aalto University/University/Aalto/Hackatons/Junction/Junction2019-IoK-security_awareness_kids/Assets/Team Animations/Image Sequences/Mike/Mike.118.png</pathurl>
                      <rate>
                        <timebase>24</timebase>
                        <ntsc>FALSE</ntsc>
                      </rate>
                      <duration>139</duration>
                      <timecode>
                        <rate>
                          <timebase>24</timebase>
                          <ntsc>FALSE</ntsc>
                        </rate>
                      </timecode>
                      <media>
                        <video>
                          <duration>1</duration>
                          <samplecharacteristics>
                            <anamorphic>FALSE</anamorphic>
                            <pixelaspectratio>square</pixelaspectratio>
                            <fielddominance>none</fielddominance>
                            <width>686</width>
                            <height>511</height>
                          </samplecharacteristics>
                        </video>
                      </media>
                    </file>
                  </clipitem>
                </track>
              </video>
            </media>
          </clip>
          <clip explodedTracks="true" frameBlend="FALSE" id="masterclip-121">
            <uuid>063c1958-99e5-44dd-a607-7ecc7b2c6fab</uuid>
            <masterclipid>masterclip-121</masterclipid>
            <ismasterclip>TRUE</ismasterclip>
            <duration>139</duration>
            <in>0</in>
            <out>139</out>
            <name>Mike.119.png</name>
            <rate>
              <timebase>24</timebase>
              <ntsc>FALSE</ntsc>
            </rate>
            <media>
              <video>
                <track>
                  <clipitem frameBlend="FALSE" id="clipitem-122">
                    <name>Mike.119.png</name>
                    <masterclipid>masterclip-121</masterclipid>
                    <rate>
                      <timebase>24</timebase>
                      <ntsc>FALSE</ntsc>
                    </rate>
                    <alphatype>straight</alphatype>
                    <pixelaspectratio>square</pixelaspectratio>
                    <anamorphic>FALSE</anamorphic>
                    <file id="file-121">
                      <name>Mike.119.png</name>
                      <pathurl>file://localhost/Users/antoniochiappetta/OneDrive - Aalto University/University/Aalto/Hackatons/Junction/Junction2019-IoK-security_awareness_kids/Assets/Team Animations/Image Sequences/Mike/Mike.119.png</pathurl>
                      <rate>
                        <timebase>24</timebase>
                        <ntsc>FALSE</ntsc>
                      </rate>
                      <duration>139</duration>
                      <timecode>
                        <rate>
                          <timebase>24</timebase>
                          <ntsc>FALSE</ntsc>
                        </rate>
                      </timecode>
                      <media>
                        <video>
                          <duration>1</duration>
                          <samplecharacteristics>
                            <anamorphic>FALSE</anamorphic>
                            <pixelaspectratio>square</pixelaspectratio>
                            <fielddominance>none</fielddominance>
                            <width>686</width>
                            <height>511</height>
                          </samplecharacteristics>
                        </video>
                      </media>
                    </file>
                  </clipitem>
                </track>
              </video>
            </media>
          </clip>
          <clip explodedTracks="true" frameBlend="FALSE" id="masterclip-122">
            <uuid>e3be5a4a-aa28-4a1e-a59b-770c32fc9af9</uuid>
            <masterclipid>masterclip-122</masterclipid>
            <ismasterclip>TRUE</ismasterclip>
            <duration>139</duration>
            <in>0</in>
            <out>139</out>
            <name>Mike.120.png</name>
            <rate>
              <timebase>24</timebase>
              <ntsc>FALSE</ntsc>
            </rate>
            <media>
              <video>
                <track>
                  <clipitem frameBlend="FALSE" id="clipitem-123">
                    <name>Mike.120.png</name>
                    <masterclipid>masterclip-122</masterclipid>
                    <rate>
                      <timebase>24</timebase>
                      <ntsc>FALSE</ntsc>
                    </rate>
                    <alphatype>straight</alphatype>
                    <pixelaspectratio>square</pixelaspectratio>
                    <anamorphic>FALSE</anamorphic>
                    <file id="file-122">
                      <name>Mike.120.png</name>
                      <pathurl>file://localhost/Users/antoniochiappetta/OneDrive - Aalto University/University/Aalto/Hackatons/Junction/Junction2019-IoK-security_awareness_kids/Assets/Team Animations/Image Sequences/Mike/Mike.120.png</pathurl>
                      <rate>
                        <timebase>24</timebase>
                        <ntsc>FALSE</ntsc>
                      </rate>
                      <duration>139</duration>
                      <timecode>
                        <rate>
                          <timebase>24</timebase>
                          <ntsc>FALSE</ntsc>
                        </rate>
                      </timecode>
                      <media>
                        <video>
                          <duration>1</duration>
                          <samplecharacteristics>
                            <anamorphic>FALSE</anamorphic>
                            <pixelaspectratio>square</pixelaspectratio>
                            <fielddominance>none</fielddominance>
                            <width>686</width>
                            <height>511</height>
                          </samplecharacteristics>
                        </video>
                      </media>
                    </file>
                  </clipitem>
                </track>
              </video>
            </media>
          </clip>
          <clip explodedTracks="true" frameBlend="FALSE" id="masterclip-123">
            <uuid>97d90960-3024-42d5-9d73-08b40e8ca140</uuid>
            <masterclipid>masterclip-123</masterclipid>
            <ismasterclip>TRUE</ismasterclip>
            <duration>139</duration>
            <in>0</in>
            <out>139</out>
            <name>Mike.121.png</name>
            <rate>
              <timebase>24</timebase>
              <ntsc>FALSE</ntsc>
            </rate>
            <media>
              <video>
                <track>
                  <clipitem frameBlend="FALSE" id="clipitem-124">
                    <name>Mike.121.png</name>
                    <masterclipid>masterclip-123</masterclipid>
                    <rate>
                      <timebase>24</timebase>
                      <ntsc>FALSE</ntsc>
                    </rate>
                    <alphatype>straight</alphatype>
                    <pixelaspectratio>square</pixelaspectratio>
                    <anamorphic>FALSE</anamorphic>
                    <file id="file-123">
                      <name>Mike.121.png</name>
                      <pathurl>file://localhost/Users/antoniochiappetta/OneDrive - Aalto University/University/Aalto/Hackatons/Junction/Junction2019-IoK-security_awareness_kids/Assets/Team Animations/Image Sequences/Mike/Mike.121.png</pathurl>
                      <rate>
                        <timebase>24</timebase>
                        <ntsc>FALSE</ntsc>
                      </rate>
                      <duration>139</duration>
                      <timecode>
                        <rate>
                          <timebase>24</timebase>
                          <ntsc>FALSE</ntsc>
                        </rate>
                      </timecode>
                      <media>
                        <video>
                          <duration>1</duration>
                          <samplecharacteristics>
                            <anamorphic>FALSE</anamorphic>
                            <pixelaspectratio>square</pixelaspectratio>
                            <fielddominance>none</fielddominance>
                            <width>686</width>
                            <height>511</height>
                          </samplecharacteristics>
                        </video>
                      </media>
                    </file>
                  </clipitem>
                </track>
              </video>
            </media>
          </clip>
          <clip explodedTracks="true" frameBlend="FALSE" id="masterclip-124">
            <uuid>a670e76e-d902-401f-9b00-d74a2d56e215</uuid>
            <masterclipid>masterclip-124</masterclipid>
            <ismasterclip>TRUE</ismasterclip>
            <duration>139</duration>
            <in>0</in>
            <out>139</out>
            <name>Mike.122.png</name>
            <rate>
              <timebase>24</timebase>
              <ntsc>FALSE</ntsc>
            </rate>
            <media>
              <video>
                <track>
                  <clipitem frameBlend="FALSE" id="clipitem-125">
                    <name>Mike.122.png</name>
                    <masterclipid>masterclip-124</masterclipid>
                    <rate>
                      <timebase>24</timebase>
                      <ntsc>FALSE</ntsc>
                    </rate>
                    <alphatype>straight</alphatype>
                    <pixelaspectratio>square</pixelaspectratio>
                    <anamorphic>FALSE</anamorphic>
                    <file id="file-124">
                      <name>Mike.122.png</name>
                      <pathurl>file://localhost/Users/antoniochiappetta/OneDrive - Aalto University/University/Aalto/Hackatons/Junction/Junction2019-IoK-security_awareness_kids/Assets/Team Animations/Image Sequences/Mike/Mike.122.png</pathurl>
                      <rate>
                        <timebase>24</timebase>
                        <ntsc>FALSE</ntsc>
                      </rate>
                      <duration>139</duration>
                      <timecode>
                        <rate>
                          <timebase>24</timebase>
                          <ntsc>FALSE</ntsc>
                        </rate>
                      </timecode>
                      <media>
                        <video>
                          <duration>1</duration>
                          <samplecharacteristics>
                            <anamorphic>FALSE</anamorphic>
                            <pixelaspectratio>square</pixelaspectratio>
                            <fielddominance>none</fielddominance>
                            <width>686</width>
                            <height>511</height>
                          </samplecharacteristics>
                        </video>
                      </media>
                    </file>
                  </clipitem>
                </track>
              </video>
            </media>
          </clip>
          <clip explodedTracks="true" frameBlend="FALSE" id="masterclip-125">
            <uuid>0c667820-f2c0-4a80-b1b7-36550c65d53c</uuid>
            <masterclipid>masterclip-125</masterclipid>
            <ismasterclip>TRUE</ismasterclip>
            <duration>139</duration>
            <in>0</in>
            <out>139</out>
            <name>Mike.123.png</name>
            <rate>
              <timebase>24</timebase>
              <ntsc>FALSE</ntsc>
            </rate>
            <media>
              <video>
                <track>
                  <clipitem frameBlend="FALSE" id="clipitem-126">
                    <name>Mike.123.png</name>
                    <masterclipid>masterclip-125</masterclipid>
                    <rate>
                      <timebase>24</timebase>
                      <ntsc>FALSE</ntsc>
                    </rate>
                    <alphatype>straight</alphatype>
                    <pixelaspectratio>square</pixelaspectratio>
                    <anamorphic>FALSE</anamorphic>
                    <file id="file-125">
                      <name>Mike.123.png</name>
                      <pathurl>file://localhost/Users/antoniochiappetta/OneDrive - Aalto University/University/Aalto/Hackatons/Junction/Junction2019-IoK-security_awareness_kids/Assets/Team Animations/Image Sequences/Mike/Mike.123.png</pathurl>
                      <rate>
                        <timebase>24</timebase>
                        <ntsc>FALSE</ntsc>
                      </rate>
                      <duration>139</duration>
                      <timecode>
                        <rate>
                          <timebase>24</timebase>
                          <ntsc>FALSE</ntsc>
                        </rate>
                      </timecode>
                      <media>
                        <video>
                          <duration>1</duration>
                          <samplecharacteristics>
                            <anamorphic>FALSE</anamorphic>
                            <pixelaspectratio>square</pixelaspectratio>
                            <fielddominance>none</fielddominance>
                            <width>686</width>
                            <height>511</height>
                          </samplecharacteristics>
                        </video>
                      </media>
                    </file>
                  </clipitem>
                </track>
              </video>
            </media>
          </clip>
          <clip explodedTracks="true" frameBlend="FALSE" id="masterclip-126">
            <uuid>c4a53218-6ce8-465a-b76d-1bc5a03236d3</uuid>
            <masterclipid>masterclip-126</masterclipid>
            <ismasterclip>TRUE</ismasterclip>
            <duration>139</duration>
            <in>0</in>
            <out>139</out>
            <name>Mike.124.png</name>
            <rate>
              <timebase>24</timebase>
              <ntsc>FALSE</ntsc>
            </rate>
            <media>
              <video>
                <track>
                  <clipitem frameBlend="FALSE" id="clipitem-127">
                    <name>Mike.124.png</name>
                    <masterclipid>masterclip-126</masterclipid>
                    <rate>
                      <timebase>24</timebase>
                      <ntsc>FALSE</ntsc>
                    </rate>
                    <alphatype>straight</alphatype>
                    <pixelaspectratio>square</pixelaspectratio>
                    <anamorphic>FALSE</anamorphic>
                    <file id="file-126">
                      <name>Mike.124.png</name>
                      <pathurl>file://localhost/Users/antoniochiappetta/OneDrive - Aalto University/University/Aalto/Hackatons/Junction/Junction2019-IoK-security_awareness_kids/Assets/Team Animations/Image Sequences/Mike/Mike.124.png</pathurl>
                      <rate>
                        <timebase>24</timebase>
                        <ntsc>FALSE</ntsc>
                      </rate>
                      <duration>139</duration>
                      <timecode>
                        <rate>
                          <timebase>24</timebase>
                          <ntsc>FALSE</ntsc>
                        </rate>
                      </timecode>
                      <media>
                        <video>
                          <duration>1</duration>
                          <samplecharacteristics>
                            <anamorphic>FALSE</anamorphic>
                            <pixelaspectratio>square</pixelaspectratio>
                            <fielddominance>none</fielddominance>
                            <width>686</width>
                            <height>511</height>
                          </samplecharacteristics>
                        </video>
                      </media>
                    </file>
                  </clipitem>
                </track>
              </video>
            </media>
          </clip>
          <clip explodedTracks="true" frameBlend="FALSE" id="masterclip-127">
            <uuid>f4887aeb-8cb2-4ee8-9667-1321d24cb1c7</uuid>
            <masterclipid>masterclip-127</masterclipid>
            <ismasterclip>TRUE</ismasterclip>
            <duration>139</duration>
            <in>0</in>
            <out>139</out>
            <name>Mike.125.png</name>
            <rate>
              <timebase>24</timebase>
              <ntsc>FALSE</ntsc>
            </rate>
            <media>
              <video>
                <track>
                  <clipitem frameBlend="FALSE" id="clipitem-128">
                    <name>Mike.125.png</name>
                    <masterclipid>masterclip-127</masterclipid>
                    <rate>
                      <timebase>24</timebase>
                      <ntsc>FALSE</ntsc>
                    </rate>
                    <alphatype>straight</alphatype>
                    <pixelaspectratio>square</pixelaspectratio>
                    <anamorphic>FALSE</anamorphic>
                    <file id="file-127">
                      <name>Mike.125.png</name>
                      <pathurl>file://localhost/Users/antoniochiappetta/OneDrive - Aalto University/University/Aalto/Hackatons/Junction/Junction2019-IoK-security_awareness_kids/Assets/Team Animations/Image Sequences/Mike/Mike.125.png</pathurl>
                      <rate>
                        <timebase>24</timebase>
                        <ntsc>FALSE</ntsc>
                      </rate>
                      <duration>139</duration>
                      <timecode>
                        <rate>
                          <timebase>24</timebase>
                          <ntsc>FALSE</ntsc>
                        </rate>
                      </timecode>
                      <media>
                        <video>
                          <duration>1</duration>
                          <samplecharacteristics>
                            <anamorphic>FALSE</anamorphic>
                            <pixelaspectratio>square</pixelaspectratio>
                            <fielddominance>none</fielddominance>
                            <width>686</width>
                            <height>511</height>
                          </samplecharacteristics>
                        </video>
                      </media>
                    </file>
                  </clipitem>
                </track>
              </video>
            </media>
          </clip>
          <clip explodedTracks="true" frameBlend="FALSE" id="masterclip-128">
            <uuid>3b36b502-2467-42da-b165-f18b91e8b4e7</uuid>
            <masterclipid>masterclip-128</masterclipid>
            <ismasterclip>TRUE</ismasterclip>
            <duration>139</duration>
            <in>0</in>
            <out>139</out>
            <name>Mike.126.png</name>
            <rate>
              <timebase>24</timebase>
              <ntsc>FALSE</ntsc>
            </rate>
            <media>
              <video>
                <track>
                  <clipitem frameBlend="FALSE" id="clipitem-129">
                    <name>Mike.126.png</name>
                    <masterclipid>masterclip-128</masterclipid>
                    <rate>
                      <timebase>24</timebase>
                      <ntsc>FALSE</ntsc>
                    </rate>
                    <alphatype>straight</alphatype>
                    <pixelaspectratio>square</pixelaspectratio>
                    <anamorphic>FALSE</anamorphic>
                    <file id="file-128">
                      <name>Mike.126.png</name>
                      <pathurl>file://localhost/Users/antoniochiappetta/OneDrive - Aalto University/University/Aalto/Hackatons/Junction/Junction2019-IoK-security_awareness_kids/Assets/Team Animations/Image Sequences/Mike/Mike.126.png</pathurl>
                      <rate>
                        <timebase>24</timebase>
                        <ntsc>FALSE</ntsc>
                      </rate>
                      <duration>139</duration>
                      <timecode>
                        <rate>
                          <timebase>24</timebase>
                          <ntsc>FALSE</ntsc>
                        </rate>
                      </timecode>
                      <media>
                        <video>
                          <duration>1</duration>
                          <samplecharacteristics>
                            <anamorphic>FALSE</anamorphic>
                            <pixelaspectratio>square</pixelaspectratio>
                            <fielddominance>none</fielddominance>
                            <width>686</width>
                            <height>511</height>
                          </samplecharacteristics>
                        </video>
                      </media>
                    </file>
                  </clipitem>
                </track>
              </video>
            </media>
          </clip>
          <clip explodedTracks="true" frameBlend="FALSE" id="masterclip-129">
            <uuid>7161973f-7aee-424a-80de-a313ce058398</uuid>
            <masterclipid>masterclip-129</masterclipid>
            <ismasterclip>TRUE</ismasterclip>
            <duration>139</duration>
            <in>0</in>
            <out>139</out>
            <name>Mike.127.png</name>
            <rate>
              <timebase>24</timebase>
              <ntsc>FALSE</ntsc>
            </rate>
            <media>
              <video>
                <track>
                  <clipitem frameBlend="FALSE" id="clipitem-130">
                    <name>Mike.127.png</name>
                    <masterclipid>masterclip-129</masterclipid>
                    <rate>
                      <timebase>24</timebase>
                      <ntsc>FALSE</ntsc>
                    </rate>
                    <alphatype>straight</alphatype>
                    <pixelaspectratio>square</pixelaspectratio>
                    <anamorphic>FALSE</anamorphic>
                    <file id="file-129">
                      <name>Mike.127.png</name>
                      <pathurl>file://localhost/Users/antoniochiappetta/OneDrive - Aalto University/University/Aalto/Hackatons/Junction/Junction2019-IoK-security_awareness_kids/Assets/Team Animations/Image Sequences/Mike/Mike.127.png</pathurl>
                      <rate>
                        <timebase>24</timebase>
                        <ntsc>FALSE</ntsc>
                      </rate>
                      <duration>139</duration>
                      <timecode>
                        <rate>
                          <timebase>24</timebase>
                          <ntsc>FALSE</ntsc>
                        </rate>
                      </timecode>
                      <media>
                        <video>
                          <duration>1</duration>
                          <samplecharacteristics>
                            <anamorphic>FALSE</anamorphic>
                            <pixelaspectratio>square</pixelaspectratio>
                            <fielddominance>none</fielddominance>
                            <width>686</width>
                            <height>511</height>
                          </samplecharacteristics>
                        </video>
                      </media>
                    </file>
                  </clipitem>
                </track>
              </video>
            </media>
          </clip>
          <clip explodedTracks="true" frameBlend="FALSE" id="masterclip-130">
            <uuid>c576faff-b645-4aa8-9932-8e56005cfffb</uuid>
            <masterclipid>masterclip-130</masterclipid>
            <ismasterclip>TRUE</ismasterclip>
            <duration>139</duration>
            <in>0</in>
            <out>139</out>
            <name>Mike.128.png</name>
            <rate>
              <timebase>24</timebase>
              <ntsc>FALSE</ntsc>
            </rate>
            <media>
              <video>
                <track>
                  <clipitem frameBlend="FALSE" id="clipitem-131">
                    <name>Mike.128.png</name>
                    <masterclipid>masterclip-130</masterclipid>
                    <rate>
                      <timebase>24</timebase>
                      <ntsc>FALSE</ntsc>
                    </rate>
                    <alphatype>straight</alphatype>
                    <pixelaspectratio>square</pixelaspectratio>
                    <anamorphic>FALSE</anamorphic>
                    <file id="file-130">
                      <name>Mike.128.png</name>
                      <pathurl>file://localhost/Users/antoniochiappetta/OneDrive - Aalto University/University/Aalto/Hackatons/Junction/Junction2019-IoK-security_awareness_kids/Assets/Team Animations/Image Sequences/Mike/Mike.128.png</pathurl>
                      <rate>
                        <timebase>24</timebase>
                        <ntsc>FALSE</ntsc>
                      </rate>
                      <duration>139</duration>
                      <timecode>
                        <rate>
                          <timebase>24</timebase>
                          <ntsc>FALSE</ntsc>
                        </rate>
                      </timecode>
                      <media>
                        <video>
                          <duration>1</duration>
                          <samplecharacteristics>
                            <anamorphic>FALSE</anamorphic>
                            <pixelaspectratio>square</pixelaspectratio>
                            <fielddominance>none</fielddominance>
                            <width>686</width>
                            <height>511</height>
                          </samplecharacteristics>
                        </video>
                      </media>
                    </file>
                  </clipitem>
                </track>
              </video>
            </media>
          </clip>
          <clip explodedTracks="true" frameBlend="FALSE" id="masterclip-131">
            <uuid>4b7b2705-812f-4070-9168-fd086fc991a9</uuid>
            <masterclipid>masterclip-131</masterclipid>
            <ismasterclip>TRUE</ismasterclip>
            <duration>139</duration>
            <in>0</in>
            <out>139</out>
            <name>Mike.129.png</name>
            <rate>
              <timebase>24</timebase>
              <ntsc>FALSE</ntsc>
            </rate>
            <media>
              <video>
                <track>
                  <clipitem frameBlend="FALSE" id="clipitem-132">
                    <name>Mike.129.png</name>
                    <masterclipid>masterclip-131</masterclipid>
                    <rate>
                      <timebase>24</timebase>
                      <ntsc>FALSE</ntsc>
                    </rate>
                    <alphatype>straight</alphatype>
                    <pixelaspectratio>square</pixelaspectratio>
                    <anamorphic>FALSE</anamorphic>
                    <file id="file-131">
                      <name>Mike.129.png</name>
                      <pathurl>file://localhost/Users/antoniochiappetta/OneDrive - Aalto University/University/Aalto/Hackatons/Junction/Junction2019-IoK-security_awareness_kids/Assets/Team Animations/Image Sequences/Mike/Mike.129.png</pathurl>
                      <rate>
                        <timebase>24</timebase>
                        <ntsc>FALSE</ntsc>
                      </rate>
                      <duration>139</duration>
                      <timecode>
                        <rate>
                          <timebase>24</timebase>
                          <ntsc>FALSE</ntsc>
                        </rate>
                      </timecode>
                      <media>
                        <video>
                          <duration>1</duration>
                          <samplecharacteristics>
                            <anamorphic>FALSE</anamorphic>
                            <pixelaspectratio>square</pixelaspectratio>
                            <fielddominance>none</fielddominance>
                            <width>686</width>
                            <height>511</height>
                          </samplecharacteristics>
                        </video>
                      </media>
                    </file>
                  </clipitem>
                </track>
              </video>
            </media>
          </clip>
          <clip explodedTracks="true" frameBlend="FALSE" id="masterclip-132">
            <uuid>997ebc8a-06a7-4b72-a7e5-68d9d647bd5c</uuid>
            <masterclipid>masterclip-132</masterclipid>
            <ismasterclip>TRUE</ismasterclip>
            <duration>139</duration>
            <in>0</in>
            <out>139</out>
            <name>Mike.130.png</name>
            <rate>
              <timebase>24</timebase>
              <ntsc>FALSE</ntsc>
            </rate>
            <media>
              <video>
                <track>
                  <clipitem frameBlend="FALSE" id="clipitem-133">
                    <name>Mike.130.png</name>
                    <masterclipid>masterclip-132</masterclipid>
                    <rate>
                      <timebase>24</timebase>
                      <ntsc>FALSE</ntsc>
                    </rate>
                    <alphatype>straight</alphatype>
                    <pixelaspectratio>square</pixelaspectratio>
                    <anamorphic>FALSE</anamorphic>
                    <file id="file-132">
                      <name>Mike.130.png</name>
                      <pathurl>file://localhost/Users/antoniochiappetta/OneDrive - Aalto University/University/Aalto/Hackatons/Junction/Junction2019-IoK-security_awareness_kids/Assets/Team Animations/Image Sequences/Mike/Mike.130.png</pathurl>
                      <rate>
                        <timebase>24</timebase>
                        <ntsc>FALSE</ntsc>
                      </rate>
                      <duration>139</duration>
                      <timecode>
                        <rate>
                          <timebase>24</timebase>
                          <ntsc>FALSE</ntsc>
                        </rate>
                      </timecode>
                      <media>
                        <video>
                          <duration>1</duration>
                          <samplecharacteristics>
                            <anamorphic>FALSE</anamorphic>
                            <pixelaspectratio>square</pixelaspectratio>
                            <fielddominance>none</fielddominance>
                            <width>686</width>
                            <height>511</height>
                          </samplecharacteristics>
                        </video>
                      </media>
                    </file>
                  </clipitem>
                </track>
              </video>
            </media>
          </clip>
          <clip explodedTracks="true" frameBlend="FALSE" id="masterclip-133">
            <uuid>231bde3d-5873-4d45-bbdb-3ac33cfb28cf</uuid>
            <masterclipid>masterclip-133</masterclipid>
            <ismasterclip>TRUE</ismasterclip>
            <duration>139</duration>
            <in>0</in>
            <out>139</out>
            <name>Mike.131.png</name>
            <rate>
              <timebase>24</timebase>
              <ntsc>FALSE</ntsc>
            </rate>
            <media>
              <video>
                <track>
                  <clipitem frameBlend="FALSE" id="clipitem-134">
                    <name>Mike.131.png</name>
                    <masterclipid>masterclip-133</masterclipid>
                    <rate>
                      <timebase>24</timebase>
                      <ntsc>FALSE</ntsc>
                    </rate>
                    <alphatype>straight</alphatype>
                    <pixelaspectratio>square</pixelaspectratio>
                    <anamorphic>FALSE</anamorphic>
                    <file id="file-133">
                      <name>Mike.131.png</name>
                      <pathurl>file://localhost/Users/antoniochiappetta/OneDrive - Aalto University/University/Aalto/Hackatons/Junction/Junction2019-IoK-security_awareness_kids/Assets/Team Animations/Image Sequences/Mike/Mike.131.png</pathurl>
                      <rate>
                        <timebase>24</timebase>
                        <ntsc>FALSE</ntsc>
                      </rate>
                      <duration>139</duration>
                      <timecode>
                        <rate>
                          <timebase>24</timebase>
                          <ntsc>FALSE</ntsc>
                        </rate>
                      </timecode>
                      <media>
                        <video>
                          <duration>1</duration>
                          <samplecharacteristics>
                            <anamorphic>FALSE</anamorphic>
                            <pixelaspectratio>square</pixelaspectratio>
                            <fielddominance>none</fielddominance>
                            <width>686</width>
                            <height>511</height>
                          </samplecharacteristics>
                        </video>
                      </media>
                    </file>
                  </clipitem>
                </track>
              </video>
            </media>
          </clip>
          <clip explodedTracks="true" frameBlend="FALSE" id="masterclip-134">
            <uuid>ef692de7-07b8-4c94-8298-c644690436a0</uuid>
            <masterclipid>masterclip-134</masterclipid>
            <ismasterclip>TRUE</ismasterclip>
            <duration>139</duration>
            <in>0</in>
            <out>139</out>
            <name>Mike.132.png</name>
            <rate>
              <timebase>24</timebase>
              <ntsc>FALSE</ntsc>
            </rate>
            <media>
              <video>
                <track>
                  <clipitem frameBlend="FALSE" id="clipitem-135">
                    <name>Mike.132.png</name>
                    <masterclipid>masterclip-134</masterclipid>
                    <rate>
                      <timebase>24</timebase>
                      <ntsc>FALSE</ntsc>
                    </rate>
                    <alphatype>straight</alphatype>
                    <pixelaspectratio>square</pixelaspectratio>
                    <anamorphic>FALSE</anamorphic>
                    <file id="file-134">
                      <name>Mike.132.png</name>
                      <pathurl>file://localhost/Users/antoniochiappetta/OneDrive - Aalto University/University/Aalto/Hackatons/Junction/Junction2019-IoK-security_awareness_kids/Assets/Team Animations/Image Sequences/Mike/Mike.132.png</pathurl>
                      <rate>
                        <timebase>24</timebase>
                        <ntsc>FALSE</ntsc>
                      </rate>
                      <duration>139</duration>
                      <timecode>
                        <rate>
                          <timebase>24</timebase>
                          <ntsc>FALSE</ntsc>
                        </rate>
                      </timecode>
                      <media>
                        <video>
                          <duration>1</duration>
                          <samplecharacteristics>
                            <anamorphic>FALSE</anamorphic>
                            <pixelaspectratio>square</pixelaspectratio>
                            <fielddominance>none</fielddominance>
                            <width>686</width>
                            <height>511</height>
                          </samplecharacteristics>
                        </video>
                      </media>
                    </file>
                  </clipitem>
                </track>
              </video>
            </media>
          </clip>
          <clip explodedTracks="true" frameBlend="FALSE" id="masterclip-135">
            <uuid>00fdc1aa-7d2d-4302-930e-1354ac85bd18</uuid>
            <masterclipid>masterclip-135</masterclipid>
            <ismasterclip>TRUE</ismasterclip>
            <duration>139</duration>
            <in>0</in>
            <out>139</out>
            <name>Mike.133.png</name>
            <rate>
              <timebase>24</timebase>
              <ntsc>FALSE</ntsc>
            </rate>
            <media>
              <video>
                <track>
                  <clipitem frameBlend="FALSE" id="clipitem-136">
                    <name>Mike.133.png</name>
                    <masterclipid>masterclip-135</masterclipid>
                    <rate>
                      <timebase>24</timebase>
                      <ntsc>FALSE</ntsc>
                    </rate>
                    <alphatype>straight</alphatype>
                    <pixelaspectratio>square</pixelaspectratio>
                    <anamorphic>FALSE</anamorphic>
                    <file id="file-135">
                      <name>Mike.133.png</name>
                      <pathurl>file://localhost/Users/antoniochiappetta/OneDrive - Aalto University/University/Aalto/Hackatons/Junction/Junction2019-IoK-security_awareness_kids/Assets/Team Animations/Image Sequences/Mike/Mike.133.png</pathurl>
                      <rate>
                        <timebase>24</timebase>
                        <ntsc>FALSE</ntsc>
                      </rate>
                      <duration>139</duration>
                      <timecode>
                        <rate>
                          <timebase>24</timebase>
                          <ntsc>FALSE</ntsc>
                        </rate>
                      </timecode>
                      <media>
                        <video>
                          <duration>1</duration>
                          <samplecharacteristics>
                            <anamorphic>FALSE</anamorphic>
                            <pixelaspectratio>square</pixelaspectratio>
                            <fielddominance>none</fielddominance>
                            <width>686</width>
                            <height>511</height>
                          </samplecharacteristics>
                        </video>
                      </media>
                    </file>
                  </clipitem>
                </track>
              </video>
            </media>
          </clip>
          <clip explodedTracks="true" frameBlend="FALSE" id="masterclip-136">
            <uuid>0982ce78-c0bf-4ae2-8693-5ca2d0b228c1</uuid>
            <masterclipid>masterclip-136</masterclipid>
            <ismasterclip>TRUE</ismasterclip>
            <duration>139</duration>
            <in>0</in>
            <out>139</out>
            <name>Mike.134.png</name>
            <rate>
              <timebase>24</timebase>
              <ntsc>FALSE</ntsc>
            </rate>
            <media>
              <video>
                <track>
                  <clipitem frameBlend="FALSE" id="clipitem-137">
                    <name>Mike.134.png</name>
                    <masterclipid>masterclip-136</masterclipid>
                    <rate>
                      <timebase>24</timebase>
                      <ntsc>FALSE</ntsc>
                    </rate>
                    <alphatype>straight</alphatype>
                    <pixelaspectratio>square</pixelaspectratio>
                    <anamorphic>FALSE</anamorphic>
                    <file id="file-136">
                      <name>Mike.134.png</name>
                      <pathurl>file://localhost/Users/antoniochiappetta/OneDrive - Aalto University/University/Aalto/Hackatons/Junction/Junction2019-IoK-security_awareness_kids/Assets/Team Animations/Image Sequences/Mike/Mike.134.png</pathurl>
                      <rate>
                        <timebase>24</timebase>
                        <ntsc>FALSE</ntsc>
                      </rate>
                      <duration>139</duration>
                      <timecode>
                        <rate>
                          <timebase>24</timebase>
                          <ntsc>FALSE</ntsc>
                        </rate>
                      </timecode>
                      <media>
                        <video>
                          <duration>1</duration>
                          <samplecharacteristics>
                            <anamorphic>FALSE</anamorphic>
                            <pixelaspectratio>square</pixelaspectratio>
                            <fielddominance>none</fielddominance>
                            <width>686</width>
                            <height>511</height>
                          </samplecharacteristics>
                        </video>
                      </media>
                    </file>
                  </clipitem>
                </track>
              </video>
            </media>
          </clip>
          <clip explodedTracks="true" frameBlend="FALSE" id="masterclip-137">
            <uuid>ecc44f36-5fa0-45f3-95f8-4be02d67a6ab</uuid>
            <masterclipid>masterclip-137</masterclipid>
            <ismasterclip>TRUE</ismasterclip>
            <duration>139</duration>
            <in>0</in>
            <out>139</out>
            <name>Mike.135.png</name>
            <rate>
              <timebase>24</timebase>
              <ntsc>FALSE</ntsc>
            </rate>
            <media>
              <video>
                <track>
                  <clipitem frameBlend="FALSE" id="clipitem-138">
                    <name>Mike.135.png</name>
                    <masterclipid>masterclip-137</masterclipid>
                    <rate>
                      <timebase>24</timebase>
                      <ntsc>FALSE</ntsc>
                    </rate>
                    <alphatype>straight</alphatype>
                    <pixelaspectratio>square</pixelaspectratio>
                    <anamorphic>FALSE</anamorphic>
                    <file id="file-137">
                      <name>Mike.135.png</name>
                      <pathurl>file://localhost/Users/antoniochiappetta/OneDrive - Aalto University/University/Aalto/Hackatons/Junction/Junction2019-IoK-security_awareness_kids/Assets/Team Animations/Image Sequences/Mike/Mike.135.png</pathurl>
                      <rate>
                        <timebase>24</timebase>
                        <ntsc>FALSE</ntsc>
                      </rate>
                      <duration>139</duration>
                      <timecode>
                        <rate>
                          <timebase>24</timebase>
                          <ntsc>FALSE</ntsc>
                        </rate>
                      </timecode>
                      <media>
                        <video>
                          <duration>1</duration>
                          <samplecharacteristics>
                            <anamorphic>FALSE</anamorphic>
                            <pixelaspectratio>square</pixelaspectratio>
                            <fielddominance>none</fielddominance>
                            <width>686</width>
                            <height>511</height>
                          </samplecharacteristics>
                        </video>
                      </media>
                    </file>
                  </clipitem>
                </track>
              </video>
            </media>
          </clip>
          <clip explodedTracks="true" frameBlend="FALSE" id="masterclip-138">
            <uuid>66035e87-a97b-47e8-883c-f3dcb7458079</uuid>
            <masterclipid>masterclip-138</masterclipid>
            <ismasterclip>TRUE</ismasterclip>
            <duration>139</duration>
            <in>0</in>
            <out>139</out>
            <name>Mike.136.png</name>
            <rate>
              <timebase>24</timebase>
              <ntsc>FALSE</ntsc>
            </rate>
            <media>
              <video>
                <track>
                  <clipitem frameBlend="FALSE" id="clipitem-139">
                    <name>Mike.136.png</name>
                    <masterclipid>masterclip-138</masterclipid>
                    <rate>
                      <timebase>24</timebase>
                      <ntsc>FALSE</ntsc>
                    </rate>
                    <alphatype>straight</alphatype>
                    <pixelaspectratio>square</pixelaspectratio>
                    <anamorphic>FALSE</anamorphic>
                    <file id="file-138">
                      <name>Mike.136.png</name>
                      <pathurl>file://localhost/Users/antoniochiappetta/OneDrive - Aalto University/University/Aalto/Hackatons/Junction/Junction2019-IoK-security_awareness_kids/Assets/Team Animations/Image Sequences/Mike/Mike.136.png</pathurl>
                      <rate>
                        <timebase>24</timebase>
                        <ntsc>FALSE</ntsc>
                      </rate>
                      <duration>139</duration>
                      <timecode>
                        <rate>
                          <timebase>24</timebase>
                          <ntsc>FALSE</ntsc>
                        </rate>
                      </timecode>
                      <media>
                        <video>
                          <duration>1</duration>
                          <samplecharacteristics>
                            <anamorphic>FALSE</anamorphic>
                            <pixelaspectratio>square</pixelaspectratio>
                            <fielddominance>none</fielddominance>
                            <width>686</width>
                            <height>511</height>
                          </samplecharacteristics>
                        </video>
                      </media>
                    </file>
                  </clipitem>
                </track>
              </video>
            </media>
          </clip>
          <clip explodedTracks="true" frameBlend="FALSE" id="masterclip-139">
            <uuid>c26c996c-1d14-43f4-9c71-5347c5345911</uuid>
            <masterclipid>masterclip-139</masterclipid>
            <ismasterclip>TRUE</ismasterclip>
            <duration>139</duration>
            <in>0</in>
            <out>139</out>
            <name>Mike.137.png</name>
            <rate>
              <timebase>24</timebase>
              <ntsc>FALSE</ntsc>
            </rate>
            <media>
              <video>
                <track>
                  <clipitem frameBlend="FALSE" id="clipitem-140">
                    <name>Mike.137.png</name>
                    <masterclipid>masterclip-139</masterclipid>
                    <rate>
                      <timebase>24</timebase>
                      <ntsc>FALSE</ntsc>
                    </rate>
                    <alphatype>straight</alphatype>
                    <pixelaspectratio>square</pixelaspectratio>
                    <anamorphic>FALSE</anamorphic>
                    <file id="file-139">
                      <name>Mike.137.png</name>
                      <pathurl>file://localhost/Users/antoniochiappetta/OneDrive - Aalto University/University/Aalto/Hackatons/Junction/Junction2019-IoK-security_awareness_kids/Assets/Team Animations/Image Sequences/Mike/Mike.137.png</pathurl>
                      <rate>
                        <timebase>24</timebase>
                        <ntsc>FALSE</ntsc>
                      </rate>
                      <duration>139</duration>
                      <timecode>
                        <rate>
                          <timebase>24</timebase>
                          <ntsc>FALSE</ntsc>
                        </rate>
                      </timecode>
                      <media>
                        <video>
                          <duration>1</duration>
                          <samplecharacteristics>
                            <anamorphic>FALSE</anamorphic>
                            <pixelaspectratio>square</pixelaspectratio>
                            <fielddominance>none</fielddominance>
                            <width>686</width>
                            <height>511</height>
                          </samplecharacteristics>
                        </video>
                      </media>
                    </file>
                  </clipitem>
                </track>
              </video>
            </media>
          </clip>
          <clip explodedTracks="true" frameBlend="FALSE" id="masterclip-140">
            <uuid>88ff8807-90a3-4227-9337-41f238a81e04</uuid>
            <masterclipid>masterclip-140</masterclipid>
            <ismasterclip>TRUE</ismasterclip>
            <duration>139</duration>
            <in>0</in>
            <out>139</out>
            <name>Mike.138.png</name>
            <rate>
              <timebase>24</timebase>
              <ntsc>FALSE</ntsc>
            </rate>
            <media>
              <video>
                <track>
                  <clipitem frameBlend="FALSE" id="clipitem-141">
                    <name>Mike.138.png</name>
                    <masterclipid>masterclip-140</masterclipid>
                    <rate>
                      <timebase>24</timebase>
                      <ntsc>FALSE</ntsc>
                    </rate>
                    <alphatype>straight</alphatype>
                    <pixelaspectratio>square</pixelaspectratio>
                    <anamorphic>FALSE</anamorphic>
                    <file id="file-140">
                      <name>Mike.138.png</name>
                      <pathurl>file://localhost/Users/antoniochiappetta/OneDrive - Aalto University/University/Aalto/Hackatons/Junction/Junction2019-IoK-security_awareness_kids/Assets/Team Animations/Image Sequences/Mike/Mike.138.png</pathurl>
                      <rate>
                        <timebase>24</timebase>
                        <ntsc>FALSE</ntsc>
                      </rate>
                      <duration>139</duration>
                      <timecode>
                        <rate>
                          <timebase>24</timebase>
                          <ntsc>FALSE</ntsc>
                        </rate>
                      </timecode>
                      <media>
                        <video>
                          <duration>1</duration>
                          <samplecharacteristics>
                            <anamorphic>FALSE</anamorphic>
                            <pixelaspectratio>square</pixelaspectratio>
                            <fielddominance>none</fielddominance>
                            <width>686</width>
                            <height>511</height>
                          </samplecharacteristics>
                        </video>
                      </media>
                    </file>
                  </clipitem>
                </track>
              </video>
            </media>
          </clip>
        </children>
      </bin>
    </children>
  </project>

</xmeml>
