<?xml version="1.0" encoding="UTF-8" standalone="yes" ?>
<!DOCTYPE xmeml>
<xmeml version="4">

  <project>
    <name>Failure</name>
    <children>
      <sequence MZ.Sequence.EditingModeGUID="35d109db-457b-43c1-9452-9cb7be9f121c" explodedTracks="true" id="sequence-1">
        <uuid>b2a28821-5194-4807-87d8-4302bfc37b14</uuid>
        <duration>137</duration>
        <rate>
          <timebase>24</timebase>
          <ntsc>FALSE</ntsc>
        </rate>
        <name>Failure</name>
        <media>
          <video>
            <track>
              <clipitem frameBlend="FALSE" id="clipitem-140">
                <name>Failure.000.png</name>
                <masterclipid>masterclip-2</masterclipid>
                <rate>
                  <timebase>24</timebase>
                  <ntsc>FALSE</ntsc>
                </rate>
                <duration>1</duration>
                <enabled>TRUE</enabled>
                <alphatype>straight</alphatype>
                <rate>
                  <timebase>24</timebase>
                  <ntsc>FALSE</ntsc>
                </rate>
                <enabled>TRUE</enabled>
                <start>0</start>
                <end>1</end>
                <file id="file-2"/>
              </clipitem>
              <clipitem frameBlend="FALSE" id="clipitem-141">
                <name>Failure.001.png</name>
                <masterclipid>masterclip-3</masterclipid>
                <rate>
                  <timebase>24</timebase>
                  <ntsc>FALSE</ntsc>
                </rate>
                <duration>1</duration>
                <enabled>TRUE</enabled>
                <alphatype>straight</alphatype>
                <rate>
                  <timebase>24</timebase>
                  <ntsc>FALSE</ntsc>
                </rate>
                <enabled>TRUE</enabled>
                <start>1</start>
                <end>2</end>
                <file id="file-3"/>
              </clipitem>
              <clipitem frameBlend="FALSE" id="clipitem-142">
                <name>Failure.002.png</name>
                <masterclipid>masterclip-4</masterclipid>
                <rate>
                  <timebase>24</timebase>
                  <ntsc>FALSE</ntsc>
                </rate>
                <duration>1</duration>
                <enabled>TRUE</enabled>
                <alphatype>straight</alphatype>
                <rate>
                  <timebase>24</timebase>
                  <ntsc>FALSE</ntsc>
                </rate>
                <enabled>TRUE</enabled>
                <start>2</start>
                <end>3</end>
                <file id="file-4"/>
              </clipitem>
              <clipitem frameBlend="FALSE" id="clipitem-143">
                <name>Failure.003.png</name>
                <masterclipid>masterclip-5</masterclipid>
                <rate>
                  <timebase>24</timebase>
                  <ntsc>FALSE</ntsc>
                </rate>
                <duration>1</duration>
                <enabled>TRUE</enabled>
                <alphatype>straight</alphatype>
                <rate>
                  <timebase>24</timebase>
                  <ntsc>FALSE</ntsc>
                </rate>
                <enabled>TRUE</enabled>
                <start>3</start>
                <end>4</end>
                <file id="file-5"/>
              </clipitem>
              <clipitem frameBlend="FALSE" id="clipitem-144">
                <name>Failure.004.png</name>
                <masterclipid>masterclip-6</masterclipid>
                <rate>
                  <timebase>24</timebase>
                  <ntsc>FALSE</ntsc>
                </rate>
                <duration>1</duration>
                <enabled>TRUE</enabled>
                <alphatype>straight</alphatype>
                <rate>
                  <timebase>24</timebase>
                  <ntsc>FALSE</ntsc>
                </rate>
                <enabled>TRUE</enabled>
                <start>4</start>
                <end>5</end>
                <file id="file-6"/>
              </clipitem>
              <clipitem frameBlend="FALSE" id="clipitem-145">
                <name>Failure.005.png</name>
                <masterclipid>masterclip-7</masterclipid>
                <rate>
                  <timebase>24</timebase>
                  <ntsc>FALSE</ntsc>
                </rate>
                <duration>1</duration>
                <enabled>TRUE</enabled>
                <alphatype>straight</alphatype>
                <rate>
                  <timebase>24</timebase>
                  <ntsc>FALSE</ntsc>
                </rate>
                <enabled>TRUE</enabled>
                <start>5</start>
                <end>6</end>
                <file id="file-7"/>
              </clipitem>
              <clipitem frameBlend="FALSE" id="clipitem-146">
                <name>Failure.006.png</name>
                <masterclipid>masterclip-8</masterclipid>
                <rate>
                  <timebase>24</timebase>
                  <ntsc>FALSE</ntsc>
                </rate>
                <duration>1</duration>
                <enabled>TRUE</enabled>
                <alphatype>straight</alphatype>
                <rate>
                  <timebase>24</timebase>
                  <ntsc>FALSE</ntsc>
                </rate>
                <enabled>TRUE</enabled>
                <start>6</start>
                <end>7</end>
                <file id="file-8"/>
              </clipitem>
              <clipitem frameBlend="FALSE" id="clipitem-147">
                <name>Failure.007.png</name>
                <masterclipid>masterclip-9</masterclipid>
                <rate>
                  <timebase>24</timebase>
                  <ntsc>FALSE</ntsc>
                </rate>
                <duration>1</duration>
                <enabled>TRUE</enabled>
                <alphatype>straight</alphatype>
                <rate>
                  <timebase>24</timebase>
                  <ntsc>FALSE</ntsc>
                </rate>
                <enabled>TRUE</enabled>
                <start>7</start>
                <end>8</end>
                <file id="file-9"/>
              </clipitem>
              <clipitem frameBlend="FALSE" id="clipitem-148">
                <name>Failure.008.png</name>
                <masterclipid>masterclip-10</masterclipid>
                <rate>
                  <timebase>24</timebase>
                  <ntsc>FALSE</ntsc>
                </rate>
                <duration>1</duration>
                <enabled>TRUE</enabled>
                <alphatype>straight</alphatype>
                <rate>
                  <timebase>24</timebase>
                  <ntsc>FALSE</ntsc>
                </rate>
                <enabled>TRUE</enabled>
                <start>8</start>
                <end>9</end>
                <file id="file-10"/>
              </clipitem>
              <clipitem frameBlend="FALSE" id="clipitem-149">
                <name>Failure.009.png</name>
                <masterclipid>masterclip-11</masterclipid>
                <rate>
                  <timebase>24</timebase>
                  <ntsc>FALSE</ntsc>
                </rate>
                <duration>1</duration>
                <enabled>TRUE</enabled>
                <alphatype>straight</alphatype>
                <rate>
                  <timebase>24</timebase>
                  <ntsc>FALSE</ntsc>
                </rate>
                <enabled>TRUE</enabled>
                <start>9</start>
                <end>10</end>
                <file id="file-11"/>
              </clipitem>
              <clipitem frameBlend="FALSE" id="clipitem-150">
                <name>Failure.010.png</name>
                <masterclipid>masterclip-12</masterclipid>
                <rate>
                  <timebase>24</timebase>
                  <ntsc>FALSE</ntsc>
                </rate>
                <duration>1</duration>
                <enabled>TRUE</enabled>
                <alphatype>straight</alphatype>
                <rate>
                  <timebase>24</timebase>
                  <ntsc>FALSE</ntsc>
                </rate>
                <enabled>TRUE</enabled>
                <start>10</start>
                <end>11</end>
                <file id="file-12"/>
              </clipitem>
              <clipitem frameBlend="FALSE" id="clipitem-151">
                <name>Failure.011.png</name>
                <masterclipid>masterclip-13</masterclipid>
                <rate>
                  <timebase>24</timebase>
                  <ntsc>FALSE</ntsc>
                </rate>
                <duration>1</duration>
                <enabled>TRUE</enabled>
                <alphatype>straight</alphatype>
                <rate>
                  <timebase>24</timebase>
                  <ntsc>FALSE</ntsc>
                </rate>
                <enabled>TRUE</enabled>
                <start>11</start>
                <end>12</end>
                <file id="file-13"/>
              </clipitem>
              <clipitem frameBlend="FALSE" id="clipitem-152">
                <name>Failure.012.png</name>
                <masterclipid>masterclip-14</masterclipid>
                <rate>
                  <timebase>24</timebase>
                  <ntsc>FALSE</ntsc>
                </rate>
                <duration>1</duration>
                <enabled>TRUE</enabled>
                <alphatype>straight</alphatype>
                <rate>
                  <timebase>24</timebase>
                  <ntsc>FALSE</ntsc>
                </rate>
                <enabled>TRUE</enabled>
                <start>12</start>
                <end>13</end>
                <file id="file-14"/>
              </clipitem>
              <clipitem frameBlend="FALSE" id="clipitem-153">
                <name>Failure.013.png</name>
                <masterclipid>masterclip-15</masterclipid>
                <rate>
                  <timebase>24</timebase>
                  <ntsc>FALSE</ntsc>
                </rate>
                <duration>1</duration>
                <enabled>TRUE</enabled>
                <alphatype>straight</alphatype>
                <rate>
                  <timebase>24</timebase>
                  <ntsc>FALSE</ntsc>
                </rate>
                <enabled>TRUE</enabled>
                <start>13</start>
                <end>14</end>
                <file id="file-15"/>
              </clipitem>
              <clipitem frameBlend="FALSE" id="clipitem-154">
                <name>Failure.014.png</name>
                <masterclipid>masterclip-16</masterclipid>
                <rate>
                  <timebase>24</timebase>
                  <ntsc>FALSE</ntsc>
                </rate>
                <duration>1</duration>
                <enabled>TRUE</enabled>
                <alphatype>straight</alphatype>
                <rate>
                  <timebase>24</timebase>
                  <ntsc>FALSE</ntsc>
                </rate>
                <enabled>TRUE</enabled>
                <start>14</start>
                <end>15</end>
                <file id="file-16"/>
              </clipitem>
              <clipitem frameBlend="FALSE" id="clipitem-155">
                <name>Failure.015.png</name>
                <masterclipid>masterclip-17</masterclipid>
                <rate>
                  <timebase>24</timebase>
                  <ntsc>FALSE</ntsc>
                </rate>
                <duration>1</duration>
                <enabled>TRUE</enabled>
                <alphatype>straight</alphatype>
                <rate>
                  <timebase>24</timebase>
                  <ntsc>FALSE</ntsc>
                </rate>
                <enabled>TRUE</enabled>
                <start>15</start>
                <end>16</end>
                <file id="file-17"/>
              </clipitem>
              <clipitem frameBlend="FALSE" id="clipitem-156">
                <name>Failure.016.png</name>
                <masterclipid>masterclip-18</masterclipid>
                <rate>
                  <timebase>24</timebase>
                  <ntsc>FALSE</ntsc>
                </rate>
                <duration>1</duration>
                <enabled>TRUE</enabled>
                <alphatype>straight</alphatype>
                <rate>
                  <timebase>24</timebase>
                  <ntsc>FALSE</ntsc>
                </rate>
                <enabled>TRUE</enabled>
                <start>16</start>
                <end>17</end>
                <file id="file-18"/>
              </clipitem>
              <clipitem frameBlend="FALSE" id="clipitem-157">
                <name>Failure.017.png</name>
                <masterclipid>masterclip-19</masterclipid>
                <rate>
                  <timebase>24</timebase>
                  <ntsc>FALSE</ntsc>
                </rate>
                <duration>1</duration>
                <enabled>TRUE</enabled>
                <alphatype>straight</alphatype>
                <rate>
                  <timebase>24</timebase>
                  <ntsc>FALSE</ntsc>
                </rate>
                <enabled>TRUE</enabled>
                <start>17</start>
                <end>18</end>
                <file id="file-19"/>
              </clipitem>
              <clipitem frameBlend="FALSE" id="clipitem-158">
                <name>Failure.018.png</name>
                <masterclipid>masterclip-20</masterclipid>
                <rate>
                  <timebase>24</timebase>
                  <ntsc>FALSE</ntsc>
                </rate>
                <duration>1</duration>
                <enabled>TRUE</enabled>
                <alphatype>straight</alphatype>
                <rate>
                  <timebase>24</timebase>
                  <ntsc>FALSE</ntsc>
                </rate>
                <enabled>TRUE</enabled>
                <start>18</start>
                <end>19</end>
                <file id="file-20"/>
              </clipitem>
              <clipitem frameBlend="FALSE" id="clipitem-159">
                <name>Failure.019.png</name>
                <masterclipid>masterclip-21</masterclipid>
                <rate>
                  <timebase>24</timebase>
                  <ntsc>FALSE</ntsc>
                </rate>
                <duration>1</duration>
                <enabled>TRUE</enabled>
                <alphatype>straight</alphatype>
                <rate>
                  <timebase>24</timebase>
                  <ntsc>FALSE</ntsc>
                </rate>
                <enabled>TRUE</enabled>
                <start>19</start>
                <end>20</end>
                <file id="file-21"/>
              </clipitem>
              <clipitem frameBlend="FALSE" id="clipitem-160">
                <name>Failure.020.png</name>
                <masterclipid>masterclip-22</masterclipid>
                <rate>
                  <timebase>24</timebase>
                  <ntsc>FALSE</ntsc>
                </rate>
                <duration>1</duration>
                <enabled>TRUE</enabled>
                <alphatype>straight</alphatype>
                <rate>
                  <timebase>24</timebase>
                  <ntsc>FALSE</ntsc>
                </rate>
                <enabled>TRUE</enabled>
                <start>20</start>
                <end>21</end>
                <file id="file-22"/>
              </clipitem>
              <clipitem frameBlend="FALSE" id="clipitem-161">
                <name>Failure.021.png</name>
                <masterclipid>masterclip-23</masterclipid>
                <rate>
                  <timebase>24</timebase>
                  <ntsc>FALSE</ntsc>
                </rate>
                <duration>1</duration>
                <enabled>TRUE</enabled>
                <alphatype>straight</alphatype>
                <rate>
                  <timebase>24</timebase>
                  <ntsc>FALSE</ntsc>
                </rate>
                <enabled>TRUE</enabled>
                <start>21</start>
                <end>22</end>
                <file id="file-23"/>
              </clipitem>
              <clipitem frameBlend="FALSE" id="clipitem-162">
                <name>Failure.022.png</name>
                <masterclipid>masterclip-24</masterclipid>
                <rate>
                  <timebase>24</timebase>
                  <ntsc>FALSE</ntsc>
                </rate>
                <duration>1</duration>
                <enabled>TRUE</enabled>
                <alphatype>straight</alphatype>
                <rate>
                  <timebase>24</timebase>
                  <ntsc>FALSE</ntsc>
                </rate>
                <enabled>TRUE</enabled>
                <start>22</start>
                <end>23</end>
                <file id="file-24"/>
              </clipitem>
              <clipitem frameBlend="FALSE" id="clipitem-163">
                <name>Failure.023.png</name>
                <masterclipid>masterclip-25</masterclipid>
                <rate>
                  <timebase>24</timebase>
                  <ntsc>FALSE</ntsc>
                </rate>
                <duration>1</duration>
                <enabled>TRUE</enabled>
                <alphatype>straight</alphatype>
                <rate>
                  <timebase>24</timebase>
                  <ntsc>FALSE</ntsc>
                </rate>
                <enabled>TRUE</enabled>
                <start>23</start>
                <end>24</end>
                <file id="file-25"/>
              </clipitem>
              <clipitem frameBlend="FALSE" id="clipitem-164">
                <name>Failure.024.png</name>
                <masterclipid>masterclip-26</masterclipid>
                <rate>
                  <timebase>24</timebase>
                  <ntsc>FALSE</ntsc>
                </rate>
                <duration>1</duration>
                <enabled>TRUE</enabled>
                <alphatype>straight</alphatype>
                <rate>
                  <timebase>24</timebase>
                  <ntsc>FALSE</ntsc>
                </rate>
                <enabled>TRUE</enabled>
                <start>24</start>
                <end>25</end>
                <file id="file-26"/>
              </clipitem>
              <clipitem frameBlend="FALSE" id="clipitem-165">
                <name>Failure.025.png</name>
                <masterclipid>masterclip-27</masterclipid>
                <rate>
                  <timebase>24</timebase>
                  <ntsc>FALSE</ntsc>
                </rate>
                <duration>1</duration>
                <enabled>TRUE</enabled>
                <alphatype>straight</alphatype>
                <rate>
                  <timebase>24</timebase>
                  <ntsc>FALSE</ntsc>
                </rate>
                <enabled>TRUE</enabled>
                <start>25</start>
                <end>26</end>
                <file id="file-27"/>
              </clipitem>
              <clipitem frameBlend="FALSE" id="clipitem-166">
                <name>Failure.026.png</name>
                <masterclipid>masterclip-28</masterclipid>
                <rate>
                  <timebase>24</timebase>
                  <ntsc>FALSE</ntsc>
                </rate>
                <duration>1</duration>
                <enabled>TRUE</enabled>
                <alphatype>straight</alphatype>
                <rate>
                  <timebase>24</timebase>
                  <ntsc>FALSE</ntsc>
                </rate>
                <enabled>TRUE</enabled>
                <start>26</start>
                <end>27</end>
                <file id="file-28"/>
              </clipitem>
              <clipitem frameBlend="FALSE" id="clipitem-167">
                <name>Failure.027.png</name>
                <masterclipid>masterclip-29</masterclipid>
                <rate>
                  <timebase>24</timebase>
                  <ntsc>FALSE</ntsc>
                </rate>
                <duration>1</duration>
                <enabled>TRUE</enabled>
                <alphatype>straight</alphatype>
                <rate>
                  <timebase>24</timebase>
                  <ntsc>FALSE</ntsc>
                </rate>
                <enabled>TRUE</enabled>
                <start>27</start>
                <end>28</end>
                <file id="file-29"/>
              </clipitem>
              <clipitem frameBlend="FALSE" id="clipitem-168">
                <name>Failure.028.png</name>
                <masterclipid>masterclip-30</masterclipid>
                <rate>
                  <timebase>24</timebase>
                  <ntsc>FALSE</ntsc>
                </rate>
                <duration>1</duration>
                <enabled>TRUE</enabled>
                <alphatype>straight</alphatype>
                <rate>
                  <timebase>24</timebase>
                  <ntsc>FALSE</ntsc>
                </rate>
                <enabled>TRUE</enabled>
                <start>28</start>
                <end>29</end>
                <file id="file-30"/>
              </clipitem>
              <clipitem frameBlend="FALSE" id="clipitem-169">
                <name>Failure.029.png</name>
                <masterclipid>masterclip-31</masterclipid>
                <rate>
                  <timebase>24</timebase>
                  <ntsc>FALSE</ntsc>
                </rate>
                <duration>1</duration>
                <enabled>TRUE</enabled>
                <alphatype>straight</alphatype>
                <rate>
                  <timebase>24</timebase>
                  <ntsc>FALSE</ntsc>
                </rate>
                <enabled>TRUE</enabled>
                <start>29</start>
                <end>30</end>
                <file id="file-31"/>
              </clipitem>
              <clipitem frameBlend="FALSE" id="clipitem-170">
                <name>Failure.030.png</name>
                <masterclipid>masterclip-32</masterclipid>
                <rate>
                  <timebase>24</timebase>
                  <ntsc>FALSE</ntsc>
                </rate>
                <duration>1</duration>
                <enabled>TRUE</enabled>
                <alphatype>straight</alphatype>
                <rate>
                  <timebase>24</timebase>
                  <ntsc>FALSE</ntsc>
                </rate>
                <enabled>TRUE</enabled>
                <start>30</start>
                <end>31</end>
                <file id="file-32"/>
              </clipitem>
              <clipitem frameBlend="FALSE" id="clipitem-171">
                <name>Failure.031.png</name>
                <masterclipid>masterclip-33</masterclipid>
                <rate>
                  <timebase>24</timebase>
                  <ntsc>FALSE</ntsc>
                </rate>
                <duration>1</duration>
                <enabled>TRUE</enabled>
                <alphatype>straight</alphatype>
                <rate>
                  <timebase>24</timebase>
                  <ntsc>FALSE</ntsc>
                </rate>
                <enabled>TRUE</enabled>
                <start>31</start>
                <end>32</end>
                <file id="file-33"/>
              </clipitem>
              <clipitem frameBlend="FALSE" id="clipitem-172">
                <name>Failure.032.png</name>
                <masterclipid>masterclip-34</masterclipid>
                <rate>
                  <timebase>24</timebase>
                  <ntsc>FALSE</ntsc>
                </rate>
                <duration>1</duration>
                <enabled>TRUE</enabled>
                <alphatype>straight</alphatype>
                <rate>
                  <timebase>24</timebase>
                  <ntsc>FALSE</ntsc>
                </rate>
                <enabled>TRUE</enabled>
                <start>32</start>
                <end>33</end>
                <file id="file-34"/>
              </clipitem>
              <clipitem frameBlend="FALSE" id="clipitem-173">
                <name>Failure.033.png</name>
                <masterclipid>masterclip-35</masterclipid>
                <rate>
                  <timebase>24</timebase>
                  <ntsc>FALSE</ntsc>
                </rate>
                <duration>1</duration>
                <enabled>TRUE</enabled>
                <alphatype>straight</alphatype>
                <rate>
                  <timebase>24</timebase>
                  <ntsc>FALSE</ntsc>
                </rate>
                <enabled>TRUE</enabled>
                <start>33</start>
                <end>34</end>
                <file id="file-35"/>
              </clipitem>
              <clipitem frameBlend="FALSE" id="clipitem-174">
                <name>Failure.034.png</name>
                <masterclipid>masterclip-36</masterclipid>
                <rate>
                  <timebase>24</timebase>
                  <ntsc>FALSE</ntsc>
                </rate>
                <duration>1</duration>
                <enabled>TRUE</enabled>
                <alphatype>straight</alphatype>
                <rate>
                  <timebase>24</timebase>
                  <ntsc>FALSE</ntsc>
                </rate>
                <enabled>TRUE</enabled>
                <start>34</start>
                <end>35</end>
                <file id="file-36"/>
              </clipitem>
              <clipitem frameBlend="FALSE" id="clipitem-175">
                <name>Failure.035.png</name>
                <masterclipid>masterclip-37</masterclipid>
                <rate>
                  <timebase>24</timebase>
                  <ntsc>FALSE</ntsc>
                </rate>
                <duration>1</duration>
                <enabled>TRUE</enabled>
                <alphatype>straight</alphatype>
                <rate>
                  <timebase>24</timebase>
                  <ntsc>FALSE</ntsc>
                </rate>
                <enabled>TRUE</enabled>
                <start>35</start>
                <end>36</end>
                <file id="file-37"/>
              </clipitem>
              <clipitem frameBlend="FALSE" id="clipitem-176">
                <name>Failure.036.png</name>
                <masterclipid>masterclip-38</masterclipid>
                <rate>
                  <timebase>24</timebase>
                  <ntsc>FALSE</ntsc>
                </rate>
                <duration>1</duration>
                <enabled>TRUE</enabled>
                <alphatype>straight</alphatype>
                <rate>
                  <timebase>24</timebase>
                  <ntsc>FALSE</ntsc>
                </rate>
                <enabled>TRUE</enabled>
                <start>36</start>
                <end>37</end>
                <file id="file-38"/>
              </clipitem>
              <clipitem frameBlend="FALSE" id="clipitem-177">
                <name>Failure.037.png</name>
                <masterclipid>masterclip-39</masterclipid>
                <rate>
                  <timebase>24</timebase>
                  <ntsc>FALSE</ntsc>
                </rate>
                <duration>1</duration>
                <enabled>TRUE</enabled>
                <alphatype>straight</alphatype>
                <rate>
                  <timebase>24</timebase>
                  <ntsc>FALSE</ntsc>
                </rate>
                <enabled>TRUE</enabled>
                <start>37</start>
                <end>38</end>
                <file id="file-39"/>
              </clipitem>
              <clipitem frameBlend="FALSE" id="clipitem-178">
                <name>Failure.038.png</name>
                <masterclipid>masterclip-40</masterclipid>
                <rate>
                  <timebase>24</timebase>
                  <ntsc>FALSE</ntsc>
                </rate>
                <duration>1</duration>
                <enabled>TRUE</enabled>
                <alphatype>straight</alphatype>
                <rate>
                  <timebase>24</timebase>
                  <ntsc>FALSE</ntsc>
                </rate>
                <enabled>TRUE</enabled>
                <start>38</start>
                <end>39</end>
                <file id="file-40"/>
              </clipitem>
              <clipitem frameBlend="FALSE" id="clipitem-179">
                <name>Failure.039.png</name>
                <masterclipid>masterclip-41</masterclipid>
                <rate>
                  <timebase>24</timebase>
                  <ntsc>FALSE</ntsc>
                </rate>
                <duration>1</duration>
                <enabled>TRUE</enabled>
                <alphatype>straight</alphatype>
                <rate>
                  <timebase>24</timebase>
                  <ntsc>FALSE</ntsc>
                </rate>
                <enabled>TRUE</enabled>
                <start>39</start>
                <end>40</end>
                <file id="file-41"/>
              </clipitem>
              <clipitem frameBlend="FALSE" id="clipitem-180">
                <name>Failure.040.png</name>
                <masterclipid>masterclip-42</masterclipid>
                <rate>
                  <timebase>24</timebase>
                  <ntsc>FALSE</ntsc>
                </rate>
                <duration>1</duration>
                <enabled>TRUE</enabled>
                <alphatype>straight</alphatype>
                <rate>
                  <timebase>24</timebase>
                  <ntsc>FALSE</ntsc>
                </rate>
                <enabled>TRUE</enabled>
                <start>40</start>
                <end>41</end>
                <file id="file-42"/>
              </clipitem>
              <clipitem frameBlend="FALSE" id="clipitem-181">
                <name>Failure.041.png</name>
                <masterclipid>masterclip-43</masterclipid>
                <rate>
                  <timebase>24</timebase>
                  <ntsc>FALSE</ntsc>
                </rate>
                <duration>1</duration>
                <enabled>TRUE</enabled>
                <alphatype>straight</alphatype>
                <rate>
                  <timebase>24</timebase>
                  <ntsc>FALSE</ntsc>
                </rate>
                <enabled>TRUE</enabled>
                <start>41</start>
                <end>42</end>
                <file id="file-43"/>
              </clipitem>
              <clipitem frameBlend="FALSE" id="clipitem-182">
                <name>Failure.042.png</name>
                <masterclipid>masterclip-44</masterclipid>
                <rate>
                  <timebase>24</timebase>
                  <ntsc>FALSE</ntsc>
                </rate>
                <duration>1</duration>
                <enabled>TRUE</enabled>
                <alphatype>straight</alphatype>
                <rate>
                  <timebase>24</timebase>
                  <ntsc>FALSE</ntsc>
                </rate>
                <enabled>TRUE</enabled>
                <start>42</start>
                <end>43</end>
                <file id="file-44"/>
              </clipitem>
              <clipitem frameBlend="FALSE" id="clipitem-183">
                <name>Failure.043.png</name>
                <masterclipid>masterclip-45</masterclipid>
                <rate>
                  <timebase>24</timebase>
                  <ntsc>FALSE</ntsc>
                </rate>
                <duration>1</duration>
                <enabled>TRUE</enabled>
                <alphatype>straight</alphatype>
                <rate>
                  <timebase>24</timebase>
                  <ntsc>FALSE</ntsc>
                </rate>
                <enabled>TRUE</enabled>
                <start>43</start>
                <end>44</end>
                <file id="file-45"/>
              </clipitem>
              <clipitem frameBlend="FALSE" id="clipitem-184">
                <name>Failure.044.png</name>
                <masterclipid>masterclip-46</masterclipid>
                <rate>
                  <timebase>24</timebase>
                  <ntsc>FALSE</ntsc>
                </rate>
                <duration>1</duration>
                <enabled>TRUE</enabled>
                <alphatype>straight</alphatype>
                <rate>
                  <timebase>24</timebase>
                  <ntsc>FALSE</ntsc>
                </rate>
                <enabled>TRUE</enabled>
                <start>44</start>
                <end>45</end>
                <file id="file-46"/>
              </clipitem>
              <clipitem frameBlend="FALSE" id="clipitem-185">
                <name>Failure.045.png</name>
                <masterclipid>masterclip-47</masterclipid>
                <rate>
                  <timebase>24</timebase>
                  <ntsc>FALSE</ntsc>
                </rate>
                <duration>1</duration>
                <enabled>TRUE</enabled>
                <alphatype>straight</alphatype>
                <rate>
                  <timebase>24</timebase>
                  <ntsc>FALSE</ntsc>
                </rate>
                <enabled>TRUE</enabled>
                <start>45</start>
                <end>46</end>
                <file id="file-47"/>
              </clipitem>
              <clipitem frameBlend="FALSE" id="clipitem-186">
                <name>Failure.046.png</name>
                <masterclipid>masterclip-48</masterclipid>
                <rate>
                  <timebase>24</timebase>
                  <ntsc>FALSE</ntsc>
                </rate>
                <duration>1</duration>
                <enabled>TRUE</enabled>
                <alphatype>straight</alphatype>
                <rate>
                  <timebase>24</timebase>
                  <ntsc>FALSE</ntsc>
                </rate>
                <enabled>TRUE</enabled>
                <start>46</start>
                <end>47</end>
                <file id="file-48"/>
              </clipitem>
              <clipitem frameBlend="FALSE" id="clipitem-187">
                <name>Failure.047.png</name>
                <masterclipid>masterclip-49</masterclipid>
                <rate>
                  <timebase>24</timebase>
                  <ntsc>FALSE</ntsc>
                </rate>
                <duration>1</duration>
                <enabled>TRUE</enabled>
                <alphatype>straight</alphatype>
                <rate>
                  <timebase>24</timebase>
                  <ntsc>FALSE</ntsc>
                </rate>
                <enabled>TRUE</enabled>
                <start>47</start>
                <end>48</end>
                <file id="file-49"/>
              </clipitem>
              <clipitem frameBlend="FALSE" id="clipitem-188">
                <name>Failure.048.png</name>
                <masterclipid>masterclip-50</masterclipid>
                <rate>
                  <timebase>24</timebase>
                  <ntsc>FALSE</ntsc>
                </rate>
                <duration>1</duration>
                <enabled>TRUE</enabled>
                <alphatype>straight</alphatype>
                <rate>
                  <timebase>24</timebase>
                  <ntsc>FALSE</ntsc>
                </rate>
                <enabled>TRUE</enabled>
                <start>48</start>
                <end>49</end>
                <file id="file-50"/>
              </clipitem>
              <clipitem frameBlend="FALSE" id="clipitem-189">
                <name>Failure.049.png</name>
                <masterclipid>masterclip-51</masterclipid>
                <rate>
                  <timebase>24</timebase>
                  <ntsc>FALSE</ntsc>
                </rate>
                <duration>1</duration>
                <enabled>TRUE</enabled>
                <alphatype>straight</alphatype>
                <rate>
                  <timebase>24</timebase>
                  <ntsc>FALSE</ntsc>
                </rate>
                <enabled>TRUE</enabled>
                <start>49</start>
                <end>50</end>
                <file id="file-51"/>
              </clipitem>
              <clipitem frameBlend="FALSE" id="clipitem-190">
                <name>Failure.050.png</name>
                <masterclipid>masterclip-52</masterclipid>
                <rate>
                  <timebase>24</timebase>
                  <ntsc>FALSE</ntsc>
                </rate>
                <duration>1</duration>
                <enabled>TRUE</enabled>
                <alphatype>straight</alphatype>
                <rate>
                  <timebase>24</timebase>
                  <ntsc>FALSE</ntsc>
                </rate>
                <enabled>TRUE</enabled>
                <start>50</start>
                <end>51</end>
                <file id="file-52"/>
              </clipitem>
              <clipitem frameBlend="FALSE" id="clipitem-191">
                <name>Failure.051.png</name>
                <masterclipid>masterclip-53</masterclipid>
                <rate>
                  <timebase>24</timebase>
                  <ntsc>FALSE</ntsc>
                </rate>
                <duration>1</duration>
                <enabled>TRUE</enabled>
                <alphatype>straight</alphatype>
                <rate>
                  <timebase>24</timebase>
                  <ntsc>FALSE</ntsc>
                </rate>
                <enabled>TRUE</enabled>
                <start>51</start>
                <end>52</end>
                <file id="file-53"/>
              </clipitem>
              <clipitem frameBlend="FALSE" id="clipitem-192">
                <name>Failure.052.png</name>
                <masterclipid>masterclip-54</masterclipid>
                <rate>
                  <timebase>24</timebase>
                  <ntsc>FALSE</ntsc>
                </rate>
                <duration>1</duration>
                <enabled>TRUE</enabled>
                <alphatype>straight</alphatype>
                <rate>
                  <timebase>24</timebase>
                  <ntsc>FALSE</ntsc>
                </rate>
                <enabled>TRUE</enabled>
                <start>52</start>
                <end>53</end>
                <file id="file-54"/>
              </clipitem>
              <clipitem frameBlend="FALSE" id="clipitem-193">
                <name>Failure.053.png</name>
                <masterclipid>masterclip-55</masterclipid>
                <rate>
                  <timebase>24</timebase>
                  <ntsc>FALSE</ntsc>
                </rate>
                <duration>1</duration>
                <enabled>TRUE</enabled>
                <alphatype>straight</alphatype>
                <rate>
                  <timebase>24</timebase>
                  <ntsc>FALSE</ntsc>
                </rate>
                <enabled>TRUE</enabled>
                <start>53</start>
                <end>54</end>
                <file id="file-55"/>
              </clipitem>
              <clipitem frameBlend="FALSE" id="clipitem-194">
                <name>Failure.054.png</name>
                <masterclipid>masterclip-56</masterclipid>
                <rate>
                  <timebase>24</timebase>
                  <ntsc>FALSE</ntsc>
                </rate>
                <duration>1</duration>
                <enabled>TRUE</enabled>
                <alphatype>straight</alphatype>
                <rate>
                  <timebase>24</timebase>
                  <ntsc>FALSE</ntsc>
                </rate>
                <enabled>TRUE</enabled>
                <start>54</start>
                <end>55</end>
                <file id="file-56"/>
              </clipitem>
              <clipitem frameBlend="FALSE" id="clipitem-195">
                <name>Failure.055.png</name>
                <masterclipid>masterclip-57</masterclipid>
                <rate>
                  <timebase>24</timebase>
                  <ntsc>FALSE</ntsc>
                </rate>
                <duration>1</duration>
                <enabled>TRUE</enabled>
                <alphatype>straight</alphatype>
                <rate>
                  <timebase>24</timebase>
                  <ntsc>FALSE</ntsc>
                </rate>
                <enabled>TRUE</enabled>
                <start>55</start>
                <end>56</end>
                <file id="file-57"/>
              </clipitem>
              <clipitem frameBlend="FALSE" id="clipitem-196">
                <name>Failure.056.png</name>
                <masterclipid>masterclip-58</masterclipid>
                <rate>
                  <timebase>24</timebase>
                  <ntsc>FALSE</ntsc>
                </rate>
                <duration>1</duration>
                <enabled>TRUE</enabled>
                <alphatype>straight</alphatype>
                <rate>
                  <timebase>24</timebase>
                  <ntsc>FALSE</ntsc>
                </rate>
                <enabled>TRUE</enabled>
                <start>56</start>
                <end>57</end>
                <file id="file-58"/>
              </clipitem>
              <clipitem frameBlend="FALSE" id="clipitem-197">
                <name>Failure.057.png</name>
                <masterclipid>masterclip-59</masterclipid>
                <rate>
                  <timebase>24</timebase>
                  <ntsc>FALSE</ntsc>
                </rate>
                <duration>1</duration>
                <enabled>TRUE</enabled>
                <alphatype>straight</alphatype>
                <rate>
                  <timebase>24</timebase>
                  <ntsc>FALSE</ntsc>
                </rate>
                <enabled>TRUE</enabled>
                <start>57</start>
                <end>58</end>
                <file id="file-59"/>
              </clipitem>
              <clipitem frameBlend="FALSE" id="clipitem-198">
                <name>Failure.058.png</name>
                <masterclipid>masterclip-60</masterclipid>
                <rate>
                  <timebase>24</timebase>
                  <ntsc>FALSE</ntsc>
                </rate>
                <duration>1</duration>
                <enabled>TRUE</enabled>
                <alphatype>straight</alphatype>
                <rate>
                  <timebase>24</timebase>
                  <ntsc>FALSE</ntsc>
                </rate>
                <enabled>TRUE</enabled>
                <start>58</start>
                <end>59</end>
                <file id="file-60"/>
              </clipitem>
              <clipitem frameBlend="FALSE" id="clipitem-199">
                <name>Failure.059.png</name>
                <masterclipid>masterclip-61</masterclipid>
                <rate>
                  <timebase>24</timebase>
                  <ntsc>FALSE</ntsc>
                </rate>
                <duration>1</duration>
                <enabled>TRUE</enabled>
                <alphatype>straight</alphatype>
                <rate>
                  <timebase>24</timebase>
                  <ntsc>FALSE</ntsc>
                </rate>
                <enabled>TRUE</enabled>
                <start>59</start>
                <end>60</end>
                <file id="file-61"/>
              </clipitem>
              <clipitem frameBlend="FALSE" id="clipitem-200">
                <name>Failure.060.png</name>
                <masterclipid>masterclip-62</masterclipid>
                <rate>
                  <timebase>24</timebase>
                  <ntsc>FALSE</ntsc>
                </rate>
                <duration>1</duration>
                <enabled>TRUE</enabled>
                <alphatype>straight</alphatype>
                <rate>
                  <timebase>24</timebase>
                  <ntsc>FALSE</ntsc>
                </rate>
                <enabled>TRUE</enabled>
                <start>60</start>
                <end>61</end>
                <file id="file-62"/>
              </clipitem>
              <clipitem frameBlend="FALSE" id="clipitem-201">
                <name>Failure.061.png</name>
                <masterclipid>masterclip-63</masterclipid>
                <rate>
                  <timebase>24</timebase>
                  <ntsc>FALSE</ntsc>
                </rate>
                <duration>1</duration>
                <enabled>TRUE</enabled>
                <alphatype>straight</alphatype>
                <rate>
                  <timebase>24</timebase>
                  <ntsc>FALSE</ntsc>
                </rate>
                <enabled>TRUE</enabled>
                <start>61</start>
                <end>62</end>
                <file id="file-63"/>
              </clipitem>
              <clipitem frameBlend="FALSE" id="clipitem-202">
                <name>Failure.062.png</name>
                <masterclipid>masterclip-64</masterclipid>
                <rate>
                  <timebase>24</timebase>
                  <ntsc>FALSE</ntsc>
                </rate>
                <duration>1</duration>
                <enabled>TRUE</enabled>
                <alphatype>straight</alphatype>
                <rate>
                  <timebase>24</timebase>
                  <ntsc>FALSE</ntsc>
                </rate>
                <enabled>TRUE</enabled>
                <start>62</start>
                <end>63</end>
                <file id="file-64"/>
              </clipitem>
              <clipitem frameBlend="FALSE" id="clipitem-203">
                <name>Failure.063.png</name>
                <masterclipid>masterclip-65</masterclipid>
                <rate>
                  <timebase>24</timebase>
                  <ntsc>FALSE</ntsc>
                </rate>
                <duration>1</duration>
                <enabled>TRUE</enabled>
                <alphatype>straight</alphatype>
                <rate>
                  <timebase>24</timebase>
                  <ntsc>FALSE</ntsc>
                </rate>
                <enabled>TRUE</enabled>
                <start>63</start>
                <end>64</end>
                <file id="file-65"/>
              </clipitem>
              <clipitem frameBlend="FALSE" id="clipitem-204">
                <name>Failure.064.png</name>
                <masterclipid>masterclip-66</masterclipid>
                <rate>
                  <timebase>24</timebase>
                  <ntsc>FALSE</ntsc>
                </rate>
                <duration>1</duration>
                <enabled>TRUE</enabled>
                <alphatype>straight</alphatype>
                <rate>
                  <timebase>24</timebase>
                  <ntsc>FALSE</ntsc>
                </rate>
                <enabled>TRUE</enabled>
                <start>64</start>
                <end>65</end>
                <file id="file-66"/>
              </clipitem>
              <clipitem frameBlend="FALSE" id="clipitem-205">
                <name>Failure.065.png</name>
                <masterclipid>masterclip-67</masterclipid>
                <rate>
                  <timebase>24</timebase>
                  <ntsc>FALSE</ntsc>
                </rate>
                <duration>1</duration>
                <enabled>TRUE</enabled>
                <alphatype>straight</alphatype>
                <rate>
                  <timebase>24</timebase>
                  <ntsc>FALSE</ntsc>
                </rate>
                <enabled>TRUE</enabled>
                <start>65</start>
                <end>66</end>
                <file id="file-67"/>
              </clipitem>
              <clipitem frameBlend="FALSE" id="clipitem-206">
                <name>Failure.066.png</name>
                <masterclipid>masterclip-68</masterclipid>
                <rate>
                  <timebase>24</timebase>
                  <ntsc>FALSE</ntsc>
                </rate>
                <duration>1</duration>
                <enabled>TRUE</enabled>
                <alphatype>straight</alphatype>
                <rate>
                  <timebase>24</timebase>
                  <ntsc>FALSE</ntsc>
                </rate>
                <enabled>TRUE</enabled>
                <start>66</start>
                <end>67</end>
                <file id="file-68"/>
              </clipitem>
              <clipitem frameBlend="FALSE" id="clipitem-207">
                <name>Failure.067.png</name>
                <masterclipid>masterclip-69</masterclipid>
                <rate>
                  <timebase>24</timebase>
                  <ntsc>FALSE</ntsc>
                </rate>
                <duration>1</duration>
                <enabled>TRUE</enabled>
                <alphatype>straight</alphatype>
                <rate>
                  <timebase>24</timebase>
                  <ntsc>FALSE</ntsc>
                </rate>
                <enabled>TRUE</enabled>
                <start>67</start>
                <end>68</end>
                <file id="file-69"/>
              </clipitem>
              <clipitem frameBlend="FALSE" id="clipitem-208">
                <name>Failure.068.png</name>
                <masterclipid>masterclip-70</masterclipid>
                <rate>
                  <timebase>24</timebase>
                  <ntsc>FALSE</ntsc>
                </rate>
                <duration>1</duration>
                <enabled>TRUE</enabled>
                <alphatype>straight</alphatype>
                <rate>
                  <timebase>24</timebase>
                  <ntsc>FALSE</ntsc>
                </rate>
                <enabled>TRUE</enabled>
                <start>68</start>
                <end>69</end>
                <file id="file-70"/>
              </clipitem>
              <clipitem frameBlend="FALSE" id="clipitem-209">
                <name>Failure.069.png</name>
                <masterclipid>masterclip-71</masterclipid>
                <rate>
                  <timebase>24</timebase>
                  <ntsc>FALSE</ntsc>
                </rate>
                <duration>1</duration>
                <enabled>TRUE</enabled>
                <alphatype>straight</alphatype>
                <rate>
                  <timebase>24</timebase>
                  <ntsc>FALSE</ntsc>
                </rate>
                <enabled>TRUE</enabled>
                <start>69</start>
                <end>70</end>
                <file id="file-71"/>
              </clipitem>
              <clipitem frameBlend="FALSE" id="clipitem-210">
                <name>Failure.070.png</name>
                <masterclipid>masterclip-72</masterclipid>
                <rate>
                  <timebase>24</timebase>
                  <ntsc>FALSE</ntsc>
                </rate>
                <duration>1</duration>
                <enabled>TRUE</enabled>
                <alphatype>straight</alphatype>
                <rate>
                  <timebase>24</timebase>
                  <ntsc>FALSE</ntsc>
                </rate>
                <enabled>TRUE</enabled>
                <start>70</start>
                <end>71</end>
                <file id="file-72"/>
              </clipitem>
              <clipitem frameBlend="FALSE" id="clipitem-211">
                <name>Failure.071.png</name>
                <masterclipid>masterclip-73</masterclipid>
                <rate>
                  <timebase>24</timebase>
                  <ntsc>FALSE</ntsc>
                </rate>
                <duration>1</duration>
                <enabled>TRUE</enabled>
                <alphatype>straight</alphatype>
                <rate>
                  <timebase>24</timebase>
                  <ntsc>FALSE</ntsc>
                </rate>
                <enabled>TRUE</enabled>
                <start>71</start>
                <end>72</end>
                <file id="file-73"/>
              </clipitem>
              <clipitem frameBlend="FALSE" id="clipitem-212">
                <name>Failure.072.png</name>
                <masterclipid>masterclip-74</masterclipid>
                <rate>
                  <timebase>24</timebase>
                  <ntsc>FALSE</ntsc>
                </rate>
                <duration>1</duration>
                <enabled>TRUE</enabled>
                <alphatype>straight</alphatype>
                <rate>
                  <timebase>24</timebase>
                  <ntsc>FALSE</ntsc>
                </rate>
                <enabled>TRUE</enabled>
                <start>72</start>
                <end>73</end>
                <file id="file-74"/>
              </clipitem>
              <clipitem frameBlend="FALSE" id="clipitem-213">
                <name>Failure.073.png</name>
                <masterclipid>masterclip-75</masterclipid>
                <rate>
                  <timebase>24</timebase>
                  <ntsc>FALSE</ntsc>
                </rate>
                <duration>1</duration>
                <enabled>TRUE</enabled>
                <alphatype>straight</alphatype>
                <rate>
                  <timebase>24</timebase>
                  <ntsc>FALSE</ntsc>
                </rate>
                <enabled>TRUE</enabled>
                <start>73</start>
                <end>74</end>
                <file id="file-75"/>
              </clipitem>
              <clipitem frameBlend="FALSE" id="clipitem-214">
                <name>Failure.074.png</name>
                <masterclipid>masterclip-76</masterclipid>
                <rate>
                  <timebase>24</timebase>
                  <ntsc>FALSE</ntsc>
                </rate>
                <duration>1</duration>
                <enabled>TRUE</enabled>
                <alphatype>straight</alphatype>
                <rate>
                  <timebase>24</timebase>
                  <ntsc>FALSE</ntsc>
                </rate>
                <enabled>TRUE</enabled>
                <start>74</start>
                <end>75</end>
                <file id="file-76"/>
              </clipitem>
              <clipitem frameBlend="FALSE" id="clipitem-215">
                <name>Failure.075.png</name>
                <masterclipid>masterclip-77</masterclipid>
                <rate>
                  <timebase>24</timebase>
                  <ntsc>FALSE</ntsc>
                </rate>
                <duration>1</duration>
                <enabled>TRUE</enabled>
                <alphatype>straight</alphatype>
                <rate>
                  <timebase>24</timebase>
                  <ntsc>FALSE</ntsc>
                </rate>
                <enabled>TRUE</enabled>
                <start>75</start>
                <end>76</end>
                <file id="file-77"/>
              </clipitem>
              <clipitem frameBlend="FALSE" id="clipitem-216">
                <name>Failure.076.png</name>
                <masterclipid>masterclip-78</masterclipid>
                <rate>
                  <timebase>24</timebase>
                  <ntsc>FALSE</ntsc>
                </rate>
                <duration>1</duration>
                <enabled>TRUE</enabled>
                <alphatype>straight</alphatype>
                <rate>
                  <timebase>24</timebase>
                  <ntsc>FALSE</ntsc>
                </rate>
                <enabled>TRUE</enabled>
                <start>76</start>
                <end>77</end>
                <file id="file-78"/>
              </clipitem>
              <clipitem frameBlend="FALSE" id="clipitem-217">
                <name>Failure.077.png</name>
                <masterclipid>masterclip-79</masterclipid>
                <rate>
                  <timebase>24</timebase>
                  <ntsc>FALSE</ntsc>
                </rate>
                <duration>1</duration>
                <enabled>TRUE</enabled>
                <alphatype>straight</alphatype>
                <rate>
                  <timebase>24</timebase>
                  <ntsc>FALSE</ntsc>
                </rate>
                <enabled>TRUE</enabled>
                <start>77</start>
                <end>78</end>
                <file id="file-79"/>
              </clipitem>
              <clipitem frameBlend="FALSE" id="clipitem-218">
                <name>Failure.078.png</name>
                <masterclipid>masterclip-80</masterclipid>
                <rate>
                  <timebase>24</timebase>
                  <ntsc>FALSE</ntsc>
                </rate>
                <duration>1</duration>
                <enabled>TRUE</enabled>
                <alphatype>straight</alphatype>
                <rate>
                  <timebase>24</timebase>
                  <ntsc>FALSE</ntsc>
                </rate>
                <enabled>TRUE</enabled>
                <start>78</start>
                <end>79</end>
                <file id="file-80"/>
              </clipitem>
              <clipitem frameBlend="FALSE" id="clipitem-219">
                <name>Failure.079.png</name>
                <masterclipid>masterclip-81</masterclipid>
                <rate>
                  <timebase>24</timebase>
                  <ntsc>FALSE</ntsc>
                </rate>
                <duration>1</duration>
                <enabled>TRUE</enabled>
                <alphatype>straight</alphatype>
                <rate>
                  <timebase>24</timebase>
                  <ntsc>FALSE</ntsc>
                </rate>
                <enabled>TRUE</enabled>
                <start>79</start>
                <end>80</end>
                <file id="file-81"/>
              </clipitem>
              <clipitem frameBlend="FALSE" id="clipitem-220">
                <name>Failure.080.png</name>
                <masterclipid>masterclip-82</masterclipid>
                <rate>
                  <timebase>24</timebase>
                  <ntsc>FALSE</ntsc>
                </rate>
                <duration>1</duration>
                <enabled>TRUE</enabled>
                <alphatype>straight</alphatype>
                <rate>
                  <timebase>24</timebase>
                  <ntsc>FALSE</ntsc>
                </rate>
                <enabled>TRUE</enabled>
                <start>80</start>
                <end>81</end>
                <file id="file-82"/>
              </clipitem>
              <clipitem frameBlend="FALSE" id="clipitem-221">
                <name>Failure.081.png</name>
                <masterclipid>masterclip-83</masterclipid>
                <rate>
                  <timebase>24</timebase>
                  <ntsc>FALSE</ntsc>
                </rate>
                <duration>1</duration>
                <enabled>TRUE</enabled>
                <alphatype>straight</alphatype>
                <rate>
                  <timebase>24</timebase>
                  <ntsc>FALSE</ntsc>
                </rate>
                <enabled>TRUE</enabled>
                <start>81</start>
                <end>82</end>
                <file id="file-83"/>
              </clipitem>
              <clipitem frameBlend="FALSE" id="clipitem-222">
                <name>Failure.082.png</name>
                <masterclipid>masterclip-84</masterclipid>
                <rate>
                  <timebase>24</timebase>
                  <ntsc>FALSE</ntsc>
                </rate>
                <duration>1</duration>
                <enabled>TRUE</enabled>
                <alphatype>straight</alphatype>
                <rate>
                  <timebase>24</timebase>
                  <ntsc>FALSE</ntsc>
                </rate>
                <enabled>TRUE</enabled>
                <start>82</start>
                <end>83</end>
                <file id="file-84"/>
              </clipitem>
              <clipitem frameBlend="FALSE" id="clipitem-223">
                <name>Failure.083.png</name>
                <masterclipid>masterclip-85</masterclipid>
                <rate>
                  <timebase>24</timebase>
                  <ntsc>FALSE</ntsc>
                </rate>
                <duration>1</duration>
                <enabled>TRUE</enabled>
                <alphatype>straight</alphatype>
                <rate>
                  <timebase>24</timebase>
                  <ntsc>FALSE</ntsc>
                </rate>
                <enabled>TRUE</enabled>
                <start>83</start>
                <end>84</end>
                <file id="file-85"/>
              </clipitem>
              <clipitem frameBlend="FALSE" id="clipitem-224">
                <name>Failure.084.png</name>
                <masterclipid>masterclip-86</masterclipid>
                <rate>
                  <timebase>24</timebase>
                  <ntsc>FALSE</ntsc>
                </rate>
                <duration>1</duration>
                <enabled>TRUE</enabled>
                <alphatype>straight</alphatype>
                <rate>
                  <timebase>24</timebase>
                  <ntsc>FALSE</ntsc>
                </rate>
                <enabled>TRUE</enabled>
                <start>84</start>
                <end>85</end>
                <file id="file-86"/>
              </clipitem>
              <clipitem frameBlend="FALSE" id="clipitem-225">
                <name>Failure.085.png</name>
                <masterclipid>masterclip-87</masterclipid>
                <rate>
                  <timebase>24</timebase>
                  <ntsc>FALSE</ntsc>
                </rate>
                <duration>1</duration>
                <enabled>TRUE</enabled>
                <alphatype>straight</alphatype>
                <rate>
                  <timebase>24</timebase>
                  <ntsc>FALSE</ntsc>
                </rate>
                <enabled>TRUE</enabled>
                <start>85</start>
                <end>86</end>
                <file id="file-87"/>
              </clipitem>
              <clipitem frameBlend="FALSE" id="clipitem-226">
                <name>Failure.086.png</name>
                <masterclipid>masterclip-88</masterclipid>
                <rate>
                  <timebase>24</timebase>
                  <ntsc>FALSE</ntsc>
                </rate>
                <duration>1</duration>
                <enabled>TRUE</enabled>
                <alphatype>straight</alphatype>
                <rate>
                  <timebase>24</timebase>
                  <ntsc>FALSE</ntsc>
                </rate>
                <enabled>TRUE</enabled>
                <start>86</start>
                <end>87</end>
                <file id="file-88"/>
              </clipitem>
              <clipitem frameBlend="FALSE" id="clipitem-227">
                <name>Failure.087.png</name>
                <masterclipid>masterclip-89</masterclipid>
                <rate>
                  <timebase>24</timebase>
                  <ntsc>FALSE</ntsc>
                </rate>
                <duration>1</duration>
                <enabled>TRUE</enabled>
                <alphatype>straight</alphatype>
                <rate>
                  <timebase>24</timebase>
                  <ntsc>FALSE</ntsc>
                </rate>
                <enabled>TRUE</enabled>
                <start>87</start>
                <end>88</end>
                <file id="file-89"/>
              </clipitem>
              <clipitem frameBlend="FALSE" id="clipitem-228">
                <name>Failure.088.png</name>
                <masterclipid>masterclip-90</masterclipid>
                <rate>
                  <timebase>24</timebase>
                  <ntsc>FALSE</ntsc>
                </rate>
                <duration>1</duration>
                <enabled>TRUE</enabled>
                <alphatype>straight</alphatype>
                <rate>
                  <timebase>24</timebase>
                  <ntsc>FALSE</ntsc>
                </rate>
                <enabled>TRUE</enabled>
                <start>88</start>
                <end>89</end>
                <file id="file-90"/>
              </clipitem>
              <clipitem frameBlend="FALSE" id="clipitem-229">
                <name>Failure.089.png</name>
                <masterclipid>masterclip-91</masterclipid>
                <rate>
                  <timebase>24</timebase>
                  <ntsc>FALSE</ntsc>
                </rate>
                <duration>1</duration>
                <enabled>TRUE</enabled>
                <alphatype>straight</alphatype>
                <rate>
                  <timebase>24</timebase>
                  <ntsc>FALSE</ntsc>
                </rate>
                <enabled>TRUE</enabled>
                <start>89</start>
                <end>90</end>
                <file id="file-91"/>
              </clipitem>
              <clipitem frameBlend="FALSE" id="clipitem-230">
                <name>Failure.090.png</name>
                <masterclipid>masterclip-92</masterclipid>
                <rate>
                  <timebase>24</timebase>
                  <ntsc>FALSE</ntsc>
                </rate>
                <duration>1</duration>
                <enabled>TRUE</enabled>
                <alphatype>straight</alphatype>
                <rate>
                  <timebase>24</timebase>
                  <ntsc>FALSE</ntsc>
                </rate>
                <enabled>TRUE</enabled>
                <start>90</start>
                <end>91</end>
                <file id="file-92"/>
              </clipitem>
              <clipitem frameBlend="FALSE" id="clipitem-231">
                <name>Failure.091.png</name>
                <masterclipid>masterclip-93</masterclipid>
                <rate>
                  <timebase>24</timebase>
                  <ntsc>FALSE</ntsc>
                </rate>
                <duration>1</duration>
                <enabled>TRUE</enabled>
                <alphatype>straight</alphatype>
                <rate>
                  <timebase>24</timebase>
                  <ntsc>FALSE</ntsc>
                </rate>
                <enabled>TRUE</enabled>
                <start>91</start>
                <end>92</end>
                <file id="file-93"/>
              </clipitem>
              <clipitem frameBlend="FALSE" id="clipitem-232">
                <name>Failure.092.png</name>
                <masterclipid>masterclip-94</masterclipid>
                <rate>
                  <timebase>24</timebase>
                  <ntsc>FALSE</ntsc>
                </rate>
                <duration>1</duration>
                <enabled>TRUE</enabled>
                <alphatype>straight</alphatype>
                <rate>
                  <timebase>24</timebase>
                  <ntsc>FALSE</ntsc>
                </rate>
                <enabled>TRUE</enabled>
                <start>92</start>
                <end>93</end>
                <file id="file-94"/>
              </clipitem>
              <clipitem frameBlend="FALSE" id="clipitem-233">
                <name>Failure.093.png</name>
                <masterclipid>masterclip-95</masterclipid>
                <rate>
                  <timebase>24</timebase>
                  <ntsc>FALSE</ntsc>
                </rate>
                <duration>1</duration>
                <enabled>TRUE</enabled>
                <alphatype>straight</alphatype>
                <rate>
                  <timebase>24</timebase>
                  <ntsc>FALSE</ntsc>
                </rate>
                <enabled>TRUE</enabled>
                <start>93</start>
                <end>94</end>
                <file id="file-95"/>
              </clipitem>
              <clipitem frameBlend="FALSE" id="clipitem-234">
                <name>Failure.094.png</name>
                <masterclipid>masterclip-96</masterclipid>
                <rate>
                  <timebase>24</timebase>
                  <ntsc>FALSE</ntsc>
                </rate>
                <duration>1</duration>
                <enabled>TRUE</enabled>
                <alphatype>straight</alphatype>
                <rate>
                  <timebase>24</timebase>
                  <ntsc>FALSE</ntsc>
                </rate>
                <enabled>TRUE</enabled>
                <start>94</start>
                <end>95</end>
                <file id="file-96"/>
              </clipitem>
              <clipitem frameBlend="FALSE" id="clipitem-235">
                <name>Failure.095.png</name>
                <masterclipid>masterclip-97</masterclipid>
                <rate>
                  <timebase>24</timebase>
                  <ntsc>FALSE</ntsc>
                </rate>
                <duration>1</duration>
                <enabled>TRUE</enabled>
                <alphatype>straight</alphatype>
                <rate>
                  <timebase>24</timebase>
                  <ntsc>FALSE</ntsc>
                </rate>
                <enabled>TRUE</enabled>
                <start>95</start>
                <end>96</end>
                <file id="file-97"/>
              </clipitem>
              <clipitem frameBlend="FALSE" id="clipitem-236">
                <name>Failure.096.png</name>
                <masterclipid>masterclip-98</masterclipid>
                <rate>
                  <timebase>24</timebase>
                  <ntsc>FALSE</ntsc>
                </rate>
                <duration>1</duration>
                <enabled>TRUE</enabled>
                <alphatype>straight</alphatype>
                <rate>
                  <timebase>24</timebase>
                  <ntsc>FALSE</ntsc>
                </rate>
                <enabled>TRUE</enabled>
                <start>96</start>
                <end>97</end>
                <file id="file-98"/>
              </clipitem>
              <clipitem frameBlend="FALSE" id="clipitem-237">
                <name>Failure.097.png</name>
                <masterclipid>masterclip-99</masterclipid>
                <rate>
                  <timebase>24</timebase>
                  <ntsc>FALSE</ntsc>
                </rate>
                <duration>1</duration>
                <enabled>TRUE</enabled>
                <alphatype>straight</alphatype>
                <rate>
                  <timebase>24</timebase>
                  <ntsc>FALSE</ntsc>
                </rate>
                <enabled>TRUE</enabled>
                <start>97</start>
                <end>98</end>
                <file id="file-99"/>
              </clipitem>
              <clipitem frameBlend="FALSE" id="clipitem-238">
                <name>Failure.098.png</name>
                <masterclipid>masterclip-100</masterclipid>
                <rate>
                  <timebase>24</timebase>
                  <ntsc>FALSE</ntsc>
                </rate>
                <duration>1</duration>
                <enabled>TRUE</enabled>
                <alphatype>straight</alphatype>
                <rate>
                  <timebase>24</timebase>
                  <ntsc>FALSE</ntsc>
                </rate>
                <enabled>TRUE</enabled>
                <start>98</start>
                <end>99</end>
                <file id="file-100"/>
              </clipitem>
              <clipitem frameBlend="FALSE" id="clipitem-239">
                <name>Failure.099.png</name>
                <masterclipid>masterclip-101</masterclipid>
                <rate>
                  <timebase>24</timebase>
                  <ntsc>FALSE</ntsc>
                </rate>
                <duration>1</duration>
                <enabled>TRUE</enabled>
                <alphatype>straight</alphatype>
                <rate>
                  <timebase>24</timebase>
                  <ntsc>FALSE</ntsc>
                </rate>
                <enabled>TRUE</enabled>
                <start>99</start>
                <end>100</end>
                <file id="file-101"/>
              </clipitem>
              <clipitem frameBlend="FALSE" id="clipitem-240">
                <name>Failure.100.png</name>
                <masterclipid>masterclip-102</masterclipid>
                <rate>
                  <timebase>24</timebase>
                  <ntsc>FALSE</ntsc>
                </rate>
                <duration>1</duration>
                <enabled>TRUE</enabled>
                <alphatype>straight</alphatype>
                <rate>
                  <timebase>24</timebase>
                  <ntsc>FALSE</ntsc>
                </rate>
                <enabled>TRUE</enabled>
                <start>100</start>
                <end>101</end>
                <file id="file-102"/>
              </clipitem>
              <clipitem frameBlend="FALSE" id="clipitem-241">
                <name>Failure.101.png</name>
                <masterclipid>masterclip-103</masterclipid>
                <rate>
                  <timebase>24</timebase>
                  <ntsc>FALSE</ntsc>
                </rate>
                <duration>1</duration>
                <enabled>TRUE</enabled>
                <alphatype>straight</alphatype>
                <rate>
                  <timebase>24</timebase>
                  <ntsc>FALSE</ntsc>
                </rate>
                <enabled>TRUE</enabled>
                <start>101</start>
                <end>102</end>
                <file id="file-103"/>
              </clipitem>
              <clipitem frameBlend="FALSE" id="clipitem-242">
                <name>Failure.102.png</name>
                <masterclipid>masterclip-104</masterclipid>
                <rate>
                  <timebase>24</timebase>
                  <ntsc>FALSE</ntsc>
                </rate>
                <duration>1</duration>
                <enabled>TRUE</enabled>
                <alphatype>straight</alphatype>
                <rate>
                  <timebase>24</timebase>
                  <ntsc>FALSE</ntsc>
                </rate>
                <enabled>TRUE</enabled>
                <start>102</start>
                <end>103</end>
                <file id="file-104"/>
              </clipitem>
              <clipitem frameBlend="FALSE" id="clipitem-243">
                <name>Failure.103.png</name>
                <masterclipid>masterclip-105</masterclipid>
                <rate>
                  <timebase>24</timebase>
                  <ntsc>FALSE</ntsc>
                </rate>
                <duration>1</duration>
                <enabled>TRUE</enabled>
                <alphatype>straight</alphatype>
                <rate>
                  <timebase>24</timebase>
                  <ntsc>FALSE</ntsc>
                </rate>
                <enabled>TRUE</enabled>
                <start>103</start>
                <end>104</end>
                <file id="file-105"/>
              </clipitem>
              <clipitem frameBlend="FALSE" id="clipitem-244">
                <name>Failure.104.png</name>
                <masterclipid>masterclip-106</masterclipid>
                <rate>
                  <timebase>24</timebase>
                  <ntsc>FALSE</ntsc>
                </rate>
                <duration>1</duration>
                <enabled>TRUE</enabled>
                <alphatype>straight</alphatype>
                <rate>
                  <timebase>24</timebase>
                  <ntsc>FALSE</ntsc>
                </rate>
                <enabled>TRUE</enabled>
                <start>104</start>
                <end>105</end>
                <file id="file-106"/>
              </clipitem>
              <clipitem frameBlend="FALSE" id="clipitem-245">
                <name>Failure.105.png</name>
                <masterclipid>masterclip-107</masterclipid>
                <rate>
                  <timebase>24</timebase>
                  <ntsc>FALSE</ntsc>
                </rate>
                <duration>1</duration>
                <enabled>TRUE</enabled>
                <alphatype>straight</alphatype>
                <rate>
                  <timebase>24</timebase>
                  <ntsc>FALSE</ntsc>
                </rate>
                <enabled>TRUE</enabled>
                <start>105</start>
                <end>106</end>
                <file id="file-107"/>
              </clipitem>
              <clipitem frameBlend="FALSE" id="clipitem-246">
                <name>Failure.106.png</name>
                <masterclipid>masterclip-108</masterclipid>
                <rate>
                  <timebase>24</timebase>
                  <ntsc>FALSE</ntsc>
                </rate>
                <duration>1</duration>
                <enabled>TRUE</enabled>
                <alphatype>straight</alphatype>
                <rate>
                  <timebase>24</timebase>
                  <ntsc>FALSE</ntsc>
                </rate>
                <enabled>TRUE</enabled>
                <start>106</start>
                <end>107</end>
                <file id="file-108"/>
              </clipitem>
              <clipitem frameBlend="FALSE" id="clipitem-247">
                <name>Failure.107.png</name>
                <masterclipid>masterclip-109</masterclipid>
                <rate>
                  <timebase>24</timebase>
                  <ntsc>FALSE</ntsc>
                </rate>
                <duration>1</duration>
                <enabled>TRUE</enabled>
                <alphatype>straight</alphatype>
                <rate>
                  <timebase>24</timebase>
                  <ntsc>FALSE</ntsc>
                </rate>
                <enabled>TRUE</enabled>
                <start>107</start>
                <end>108</end>
                <file id="file-109"/>
              </clipitem>
              <clipitem frameBlend="FALSE" id="clipitem-248">
                <name>Failure.108.png</name>
                <masterclipid>masterclip-110</masterclipid>
                <rate>
                  <timebase>24</timebase>
                  <ntsc>FALSE</ntsc>
                </rate>
                <duration>1</duration>
                <enabled>TRUE</enabled>
                <alphatype>straight</alphatype>
                <rate>
                  <timebase>24</timebase>
                  <ntsc>FALSE</ntsc>
                </rate>
                <enabled>TRUE</enabled>
                <start>108</start>
                <end>109</end>
                <file id="file-110"/>
              </clipitem>
              <clipitem frameBlend="FALSE" id="clipitem-249">
                <name>Failure.109.png</name>
                <masterclipid>masterclip-111</masterclipid>
                <rate>
                  <timebase>24</timebase>
                  <ntsc>FALSE</ntsc>
                </rate>
                <duration>1</duration>
                <enabled>TRUE</enabled>
                <alphatype>straight</alphatype>
                <rate>
                  <timebase>24</timebase>
                  <ntsc>FALSE</ntsc>
                </rate>
                <enabled>TRUE</enabled>
                <start>109</start>
                <end>110</end>
                <file id="file-111"/>
              </clipitem>
              <clipitem frameBlend="FALSE" id="clipitem-250">
                <name>Failure.110.png</name>
                <masterclipid>masterclip-112</masterclipid>
                <rate>
                  <timebase>24</timebase>
                  <ntsc>FALSE</ntsc>
                </rate>
                <duration>1</duration>
                <enabled>TRUE</enabled>
                <alphatype>straight</alphatype>
                <rate>
                  <timebase>24</timebase>
                  <ntsc>FALSE</ntsc>
                </rate>
                <enabled>TRUE</enabled>
                <start>110</start>
                <end>111</end>
                <file id="file-112"/>
              </clipitem>
              <clipitem frameBlend="FALSE" id="clipitem-251">
                <name>Failure.111.png</name>
                <masterclipid>masterclip-113</masterclipid>
                <rate>
                  <timebase>24</timebase>
                  <ntsc>FALSE</ntsc>
                </rate>
                <duration>1</duration>
                <enabled>TRUE</enabled>
                <alphatype>straight</alphatype>
                <rate>
                  <timebase>24</timebase>
                  <ntsc>FALSE</ntsc>
                </rate>
                <enabled>TRUE</enabled>
                <start>111</start>
                <end>112</end>
                <file id="file-113"/>
              </clipitem>
              <clipitem frameBlend="FALSE" id="clipitem-252">
                <name>Failure.112.png</name>
                <masterclipid>masterclip-114</masterclipid>
                <rate>
                  <timebase>24</timebase>
                  <ntsc>FALSE</ntsc>
                </rate>
                <duration>1</duration>
                <enabled>TRUE</enabled>
                <alphatype>straight</alphatype>
                <rate>
                  <timebase>24</timebase>
                  <ntsc>FALSE</ntsc>
                </rate>
                <enabled>TRUE</enabled>
                <start>112</start>
                <end>113</end>
                <file id="file-114"/>
              </clipitem>
              <clipitem frameBlend="FALSE" id="clipitem-253">
                <name>Failure.113.png</name>
                <masterclipid>masterclip-115</masterclipid>
                <rate>
                  <timebase>24</timebase>
                  <ntsc>FALSE</ntsc>
                </rate>
                <duration>1</duration>
                <enabled>TRUE</enabled>
                <alphatype>straight</alphatype>
                <rate>
                  <timebase>24</timebase>
                  <ntsc>FALSE</ntsc>
                </rate>
                <enabled>TRUE</enabled>
                <start>113</start>
                <end>114</end>
                <file id="file-115"/>
              </clipitem>
              <clipitem frameBlend="FALSE" id="clipitem-254">
                <name>Failure.114.png</name>
                <masterclipid>masterclip-116</masterclipid>
                <rate>
                  <timebase>24</timebase>
                  <ntsc>FALSE</ntsc>
                </rate>
                <duration>1</duration>
                <enabled>TRUE</enabled>
                <alphatype>straight</alphatype>
                <rate>
                  <timebase>24</timebase>
                  <ntsc>FALSE</ntsc>
                </rate>
                <enabled>TRUE</enabled>
                <start>114</start>
                <end>115</end>
                <file id="file-116"/>
              </clipitem>
              <clipitem frameBlend="FALSE" id="clipitem-255">
                <name>Failure.115.png</name>
                <masterclipid>masterclip-117</masterclipid>
                <rate>
                  <timebase>24</timebase>
                  <ntsc>FALSE</ntsc>
                </rate>
                <duration>1</duration>
                <enabled>TRUE</enabled>
                <alphatype>straight</alphatype>
                <rate>
                  <timebase>24</timebase>
                  <ntsc>FALSE</ntsc>
                </rate>
                <enabled>TRUE</enabled>
                <start>115</start>
                <end>116</end>
                <file id="file-117"/>
              </clipitem>
              <clipitem frameBlend="FALSE" id="clipitem-256">
                <name>Failure.116.png</name>
                <masterclipid>masterclip-118</masterclipid>
                <rate>
                  <timebase>24</timebase>
                  <ntsc>FALSE</ntsc>
                </rate>
                <duration>1</duration>
                <enabled>TRUE</enabled>
                <alphatype>straight</alphatype>
                <rate>
                  <timebase>24</timebase>
                  <ntsc>FALSE</ntsc>
                </rate>
                <enabled>TRUE</enabled>
                <start>116</start>
                <end>117</end>
                <file id="file-118"/>
              </clipitem>
              <clipitem frameBlend="FALSE" id="clipitem-257">
                <name>Failure.117.png</name>
                <masterclipid>masterclip-119</masterclipid>
                <rate>
                  <timebase>24</timebase>
                  <ntsc>FALSE</ntsc>
                </rate>
                <duration>1</duration>
                <enabled>TRUE</enabled>
                <alphatype>straight</alphatype>
                <rate>
                  <timebase>24</timebase>
                  <ntsc>FALSE</ntsc>
                </rate>
                <enabled>TRUE</enabled>
                <start>117</start>
                <end>118</end>
                <file id="file-119"/>
              </clipitem>
              <clipitem frameBlend="FALSE" id="clipitem-258">
                <name>Failure.118.png</name>
                <masterclipid>masterclip-120</masterclipid>
                <rate>
                  <timebase>24</timebase>
                  <ntsc>FALSE</ntsc>
                </rate>
                <duration>1</duration>
                <enabled>TRUE</enabled>
                <alphatype>straight</alphatype>
                <rate>
                  <timebase>24</timebase>
                  <ntsc>FALSE</ntsc>
                </rate>
                <enabled>TRUE</enabled>
                <start>118</start>
                <end>119</end>
                <file id="file-120"/>
              </clipitem>
              <clipitem frameBlend="FALSE" id="clipitem-259">
                <name>Failure.119.png</name>
                <masterclipid>masterclip-121</masterclipid>
                <rate>
                  <timebase>24</timebase>
                  <ntsc>FALSE</ntsc>
                </rate>
                <duration>1</duration>
                <enabled>TRUE</enabled>
                <alphatype>straight</alphatype>
                <rate>
                  <timebase>24</timebase>
                  <ntsc>FALSE</ntsc>
                </rate>
                <enabled>TRUE</enabled>
                <start>119</start>
                <end>120</end>
                <file id="file-121"/>
              </clipitem>
              <clipitem frameBlend="FALSE" id="clipitem-260">
                <name>Failure.120.png</name>
                <masterclipid>masterclip-122</masterclipid>
                <rate>
                  <timebase>24</timebase>
                  <ntsc>FALSE</ntsc>
                </rate>
                <duration>1</duration>
                <enabled>TRUE</enabled>
                <alphatype>straight</alphatype>
                <rate>
                  <timebase>24</timebase>
                  <ntsc>FALSE</ntsc>
                </rate>
                <enabled>TRUE</enabled>
                <start>120</start>
                <end>121</end>
                <file id="file-122"/>
              </clipitem>
              <clipitem frameBlend="FALSE" id="clipitem-261">
                <name>Failure.121.png</name>
                <masterclipid>masterclip-123</masterclipid>
                <rate>
                  <timebase>24</timebase>
                  <ntsc>FALSE</ntsc>
                </rate>
                <duration>1</duration>
                <enabled>TRUE</enabled>
                <alphatype>straight</alphatype>
                <rate>
                  <timebase>24</timebase>
                  <ntsc>FALSE</ntsc>
                </rate>
                <enabled>TRUE</enabled>
                <start>121</start>
                <end>122</end>
                <file id="file-123"/>
              </clipitem>
              <clipitem frameBlend="FALSE" id="clipitem-262">
                <name>Failure.122.png</name>
                <masterclipid>masterclip-124</masterclipid>
                <rate>
                  <timebase>24</timebase>
                  <ntsc>FALSE</ntsc>
                </rate>
                <duration>1</duration>
                <enabled>TRUE</enabled>
                <alphatype>straight</alphatype>
                <rate>
                  <timebase>24</timebase>
                  <ntsc>FALSE</ntsc>
                </rate>
                <enabled>TRUE</enabled>
                <start>122</start>
                <end>123</end>
                <file id="file-124"/>
              </clipitem>
              <clipitem frameBlend="FALSE" id="clipitem-263">
                <name>Failure.123.png</name>
                <masterclipid>masterclip-125</masterclipid>
                <rate>
                  <timebase>24</timebase>
                  <ntsc>FALSE</ntsc>
                </rate>
                <duration>1</duration>
                <enabled>TRUE</enabled>
                <alphatype>straight</alphatype>
                <rate>
                  <timebase>24</timebase>
                  <ntsc>FALSE</ntsc>
                </rate>
                <enabled>TRUE</enabled>
                <start>123</start>
                <end>124</end>
                <file id="file-125"/>
              </clipitem>
              <clipitem frameBlend="FALSE" id="clipitem-264">
                <name>Failure.124.png</name>
                <masterclipid>masterclip-126</masterclipid>
                <rate>
                  <timebase>24</timebase>
                  <ntsc>FALSE</ntsc>
                </rate>
                <duration>1</duration>
                <enabled>TRUE</enabled>
                <alphatype>straight</alphatype>
                <rate>
                  <timebase>24</timebase>
                  <ntsc>FALSE</ntsc>
                </rate>
                <enabled>TRUE</enabled>
                <start>124</start>
                <end>125</end>
                <file id="file-126"/>
              </clipitem>
              <clipitem frameBlend="FALSE" id="clipitem-265">
                <name>Failure.125.png</name>
                <masterclipid>masterclip-127</masterclipid>
                <rate>
                  <timebase>24</timebase>
                  <ntsc>FALSE</ntsc>
                </rate>
                <duration>1</duration>
                <enabled>TRUE</enabled>
                <alphatype>straight</alphatype>
                <rate>
                  <timebase>24</timebase>
                  <ntsc>FALSE</ntsc>
                </rate>
                <enabled>TRUE</enabled>
                <start>125</start>
                <end>126</end>
                <file id="file-127"/>
              </clipitem>
              <clipitem frameBlend="FALSE" id="clipitem-266">
                <name>Failure.126.png</name>
                <masterclipid>masterclip-128</masterclipid>
                <rate>
                  <timebase>24</timebase>
                  <ntsc>FALSE</ntsc>
                </rate>
                <duration>1</duration>
                <enabled>TRUE</enabled>
                <alphatype>straight</alphatype>
                <rate>
                  <timebase>24</timebase>
                  <ntsc>FALSE</ntsc>
                </rate>
                <enabled>TRUE</enabled>
                <start>126</start>
                <end>127</end>
                <file id="file-128"/>
              </clipitem>
              <clipitem frameBlend="FALSE" id="clipitem-267">
                <name>Failure.127.png</name>
                <masterclipid>masterclip-129</masterclipid>
                <rate>
                  <timebase>24</timebase>
                  <ntsc>FALSE</ntsc>
                </rate>
                <duration>1</duration>
                <enabled>TRUE</enabled>
                <alphatype>straight</alphatype>
                <rate>
                  <timebase>24</timebase>
                  <ntsc>FALSE</ntsc>
                </rate>
                <enabled>TRUE</enabled>
                <start>127</start>
                <end>128</end>
                <file id="file-129"/>
              </clipitem>
              <clipitem frameBlend="FALSE" id="clipitem-268">
                <name>Failure.128.png</name>
                <masterclipid>masterclip-130</masterclipid>
                <rate>
                  <timebase>24</timebase>
                  <ntsc>FALSE</ntsc>
                </rate>
                <duration>1</duration>
                <enabled>TRUE</enabled>
                <alphatype>straight</alphatype>
                <rate>
                  <timebase>24</timebase>
                  <ntsc>FALSE</ntsc>
                </rate>
                <enabled>TRUE</enabled>
                <start>128</start>
                <end>129</end>
                <file id="file-130"/>
              </clipitem>
              <clipitem frameBlend="FALSE" id="clipitem-269">
                <name>Failure.129.png</name>
                <masterclipid>masterclip-131</masterclipid>
                <rate>
                  <timebase>24</timebase>
                  <ntsc>FALSE</ntsc>
                </rate>
                <duration>1</duration>
                <enabled>TRUE</enabled>
                <alphatype>straight</alphatype>
                <rate>
                  <timebase>24</timebase>
                  <ntsc>FALSE</ntsc>
                </rate>
                <enabled>TRUE</enabled>
                <start>129</start>
                <end>130</end>
                <file id="file-131"/>
              </clipitem>
              <clipitem frameBlend="FALSE" id="clipitem-270">
                <name>Failure.130.png</name>
                <masterclipid>masterclip-132</masterclipid>
                <rate>
                  <timebase>24</timebase>
                  <ntsc>FALSE</ntsc>
                </rate>
                <duration>1</duration>
                <enabled>TRUE</enabled>
                <alphatype>straight</alphatype>
                <rate>
                  <timebase>24</timebase>
                  <ntsc>FALSE</ntsc>
                </rate>
                <enabled>TRUE</enabled>
                <start>130</start>
                <end>131</end>
                <file id="file-132"/>
              </clipitem>
              <clipitem frameBlend="FALSE" id="clipitem-271">
                <name>Failure.131.png</name>
                <masterclipid>masterclip-133</masterclipid>
                <rate>
                  <timebase>24</timebase>
                  <ntsc>FALSE</ntsc>
                </rate>
                <duration>1</duration>
                <enabled>TRUE</enabled>
                <alphatype>straight</alphatype>
                <rate>
                  <timebase>24</timebase>
                  <ntsc>FALSE</ntsc>
                </rate>
                <enabled>TRUE</enabled>
                <start>131</start>
                <end>132</end>
                <file id="file-133"/>
              </clipitem>
              <clipitem frameBlend="FALSE" id="clipitem-272">
                <name>Failure.132.png</name>
                <masterclipid>masterclip-134</masterclipid>
                <rate>
                  <timebase>24</timebase>
                  <ntsc>FALSE</ntsc>
                </rate>
                <duration>1</duration>
                <enabled>TRUE</enabled>
                <alphatype>straight</alphatype>
                <rate>
                  <timebase>24</timebase>
                  <ntsc>FALSE</ntsc>
                </rate>
                <enabled>TRUE</enabled>
                <start>132</start>
                <end>133</end>
                <file id="file-134"/>
              </clipitem>
              <clipitem frameBlend="FALSE" id="clipitem-273">
                <name>Failure.133.png</name>
                <masterclipid>masterclip-135</masterclipid>
                <rate>
                  <timebase>24</timebase>
                  <ntsc>FALSE</ntsc>
                </rate>
                <duration>1</duration>
                <enabled>TRUE</enabled>
                <alphatype>straight</alphatype>
                <rate>
                  <timebase>24</timebase>
                  <ntsc>FALSE</ntsc>
                </rate>
                <enabled>TRUE</enabled>
                <start>133</start>
                <end>134</end>
                <file id="file-135"/>
              </clipitem>
              <clipitem frameBlend="FALSE" id="clipitem-274">
                <name>Failure.134.png</name>
                <masterclipid>masterclip-136</masterclipid>
                <rate>
                  <timebase>24</timebase>
                  <ntsc>FALSE</ntsc>
                </rate>
                <duration>1</duration>
                <enabled>TRUE</enabled>
                <alphatype>straight</alphatype>
                <rate>
                  <timebase>24</timebase>
                  <ntsc>FALSE</ntsc>
                </rate>
                <enabled>TRUE</enabled>
                <start>134</start>
                <end>135</end>
                <file id="file-136"/>
              </clipitem>
              <clipitem frameBlend="FALSE" id="clipitem-275">
                <name>Failure.135.png</name>
                <masterclipid>masterclip-137</masterclipid>
                <rate>
                  <timebase>24</timebase>
                  <ntsc>FALSE</ntsc>
                </rate>
                <duration>1</duration>
                <enabled>TRUE</enabled>
                <alphatype>straight</alphatype>
                <rate>
                  <timebase>24</timebase>
                  <ntsc>FALSE</ntsc>
                </rate>
                <enabled>TRUE</enabled>
                <start>135</start>
                <end>136</end>
                <file id="file-137"/>
              </clipitem>
              <clipitem frameBlend="FALSE" id="clipitem-276">
                <name>Failure.136.png</name>
                <masterclipid>masterclip-138</masterclipid>
                <rate>
                  <timebase>24</timebase>
                  <ntsc>FALSE</ntsc>
                </rate>
                <duration>1</duration>
                <enabled>TRUE</enabled>
                <alphatype>straight</alphatype>
                <rate>
                  <timebase>24</timebase>
                  <ntsc>FALSE</ntsc>
                </rate>
                <enabled>TRUE</enabled>
                <start>136</start>
                <end>137</end>
                <file id="file-138"/>
              </clipitem>
            </track>
            <format>
              <samplecharacteristics>
                <anamorphic>FALSE</anamorphic>
                <pixelaspectratio>square</pixelaspectratio>
                <fielddominance>none</fielddominance>
                <width>1920</width>
                <height>1080</height>
                <rate>
                  <timebase>24</timebase>
                  <ntsc>FALSE</ntsc>
                </rate>
              </samplecharacteristics>
            </format>
          </video>
          <audio>
            <numOutputChannels>2</numOutputChannels>
            <track frameBlend="FALSE" premiereChannelType="Stereo">
              <clipitem frameBlend="FALSE" id="clipitem-1" premiereChannelType="stereo">
                <name>Failure.wav</name>
                <masterclipid>masterclip-1</masterclipid>
                <rate>
                  <timebase>24</timebase>
                  <ntsc>FALSE</ntsc>
                </rate>
                <start>0</start>
                <end>137</end>
                <in>0</in>
                <out>137</out>
                <sourcetrack>
                  <mediatype>audio</mediatype>
                  <trackindex>1</trackindex>
                </sourcetrack>
                <link>
                  <linkclipref>clipitem-1</linkclipref>
                  <mediatype>audio</mediatype>
                  <trackindex>1</trackindex>
                  <clipindex>1</clipindex>
                  <groupindex>1</groupindex>
                </link>
                <link>
                  <linkclipref>clipitem-2</linkclipref>
                  <mediatype>audio</mediatype>
                  <trackindex>2</trackindex>
                  <clipindex>1</clipindex>
                  <groupindex>1</groupindex>
                </link>
                <file id="file-1"/>
              </clipitem>
              <enabled>TRUE</enabled>
              <outputchannelindex>1</outputchannelindex>
            </track>
            <track frameBlend="FALSE" premiereChannelType="Stereo">
              <clipitem frameBlend="FALSE" id="clipitem-2" premiereChannelType="stereo">
                <name>Failure.wav</name>
                <masterclipid>masterclip-1</masterclipid>
                <rate>
                  <timebase>24</timebase>
                  <ntsc>FALSE</ntsc>
                </rate>
                <start>0</start>
                <end>137</end>
                <in>0</in>
                <out>137</out>
                <sourcetrack>
                  <mediatype>audio</mediatype>
                  <trackindex>2</trackindex>
                </sourcetrack>
                <link>
                  <linkclipref>clipitem-1</linkclipref>
                  <mediatype>audio</mediatype>
                  <trackindex>1</trackindex>
                  <clipindex>1</clipindex>
                  <groupindex>1</groupindex>
                </link>
                <link>
                  <linkclipref>clipitem-2</linkclipref>
                  <mediatype>audio</mediatype>
                  <trackindex>2</trackindex>
                  <clipindex>1</clipindex>
                  <groupindex>1</groupindex>
                </link>
                <file id="file-1"/>
              </clipitem>
              <enabled>TRUE</enabled>
              <outputchannelindex>2</outputchannelindex>
            </track>
            <outputs>
              <group>
                <index>0</index>
                <numchannels>1</numchannels>
                <downmix>0</downmix>
                <group>
                  <index>0</index>
                </group>
              </group>
              <group>
                <index>1</index>
                <numchannels>1</numchannels>
                <downmix>0</downmix>
                <group>
                  <index>1</index>
                </group>
              </group>
            </outputs>
            <format>
              <samplecharacteristics>
                <samplerate>48000</samplerate>
                <depth>32</depth>
              </samplecharacteristics>
            </format>
          </audio>
        </media>
        <timecode>
          <rate>
            <timebase>24</timebase>
            <ntsc>FALSE</ntsc>
          </rate>
        </timecode>
      </sequence>
      <bin>
        <name>Failure Bin</name>
        <children>
          <clip explodedTracks="true" frameBlend="FALSE" id="masterclip-1">
            <uuid>270b8f50-f3b1-4117-8544-5e6368bef765</uuid>
            <masterclipid>masterclip-1</masterclipid>
            <ismasterclip>TRUE</ismasterclip>
            <duration>137</duration>
            <in>0</in>
            <out>137</out>
            <name>Failure.wav</name>
            <rate>
              <timebase>24</timebase>
              <ntsc>FALSE</ntsc>
            </rate>
            <media>
              <audio>
                <track>
                  <clipitem frameBlend="FALSE" id="clipitem-1">
                    <name>Failure.wav</name>
                    <masterclipid>masterclip-1</masterclipid>
                    <rate>
                      <timebase>24</timebase>
                      <ntsc>FALSE</ntsc>
                    </rate>
                    <file id="file-1">
                      <name>Failure.wav</name>
                      <pathurl>file://localhost/Users/antoniochiappetta/OneDrive - Aalto University/University/Aalto/Hackatons/Junction/Character Animations/Animations/Failure/Failure.wav</pathurl>
                      <rate>
                        <timebase>24</timebase>
                        <ntsc>FALSE</ntsc>
                      </rate>
                      <duration>137</duration>
                      <timecode>
                        <rate>
                          <timebase>24</timebase>
                          <ntsc>FALSE</ntsc>
                        </rate>
                      </timecode>
                      <media>
                        <audio>
                          <samplecharacteristics>
                            <samplerate>48000</samplerate>
                            <depth>32</depth>
                          </samplecharacteristics>
                          <channelcount>2</channelcount>
                        </audio>
                      </media>
                    </file>
                    <sourcetrack>
                      <mediatype>audio</mediatype>
                      <trackindex>1</trackindex>
                    </sourcetrack>
                    <link>
                      <linkclipref>clipitem-1</linkclipref>
                      <mediatype>audio</mediatype>
                      <trackindex>1</trackindex>
                      <clipindex>1</clipindex>
                      <groupindex>1</groupindex>
                    </link>
                    <link>
                      <linkclipref>clipitem-2</linkclipref>
                      <mediatype>audio</mediatype>
                      <trackindex>2</trackindex>
                      <clipindex>1</clipindex>
                      <groupindex>1</groupindex>
                    </link>
                  </clipitem>
                </track>
                <track>
                  <clipitem frameBlend="FALSE" id="clipitem-2">
                    <name>Failure.wav</name>
                    <masterclipid>masterclip-1</masterclipid>
                    <rate>
                      <timebase>24</timebase>
                      <ntsc>FALSE</ntsc>
                    </rate>
                    <sourcetrack>
                      <mediatype>audio</mediatype>
                      <trackindex>2</trackindex>
                    </sourcetrack>
                    <link>
                      <linkclipref>clipitem-1</linkclipref>
                      <mediatype>audio</mediatype>
                      <trackindex>1</trackindex>
                      <clipindex>1</clipindex>
                      <groupindex>1</groupindex>
                    </link>
                    <link>
                      <linkclipref>clipitem-2</linkclipref>
                      <mediatype>audio</mediatype>
                      <trackindex>2</trackindex>
                      <clipindex>1</clipindex>
                      <groupindex>1</groupindex>
                    </link>
                  </clipitem>
                </track>
              </audio>
            </media>
          </clip>
          <clip explodedTracks="true" frameBlend="FALSE" id="masterclip-2">
            <uuid>e2c0440e-a2dd-4b4e-ac16-83a48f08f139</uuid>
            <masterclipid>masterclip-2</masterclipid>
            <ismasterclip>TRUE</ismasterclip>
            <duration>137</duration>
            <in>0</in>
            <out>137</out>
            <name>Failure.000.png</name>
            <rate>
              <timebase>24</timebase>
              <ntsc>FALSE</ntsc>
            </rate>
            <media>
              <video>
                <track>
                  <clipitem frameBlend="FALSE" id="clipitem-3">
                    <name>Failure.000.png</name>
                    <masterclipid>masterclip-2</masterclipid>
                    <rate>
                      <timebase>24</timebase>
                      <ntsc>FALSE</ntsc>
                    </rate>
                    <alphatype>straight</alphatype>
                    <pixelaspectratio>square</pixelaspectratio>
                    <anamorphic>FALSE</anamorphic>
                    <file id="file-2">
                      <name>Failure.000.png</name>
                      <pathurl>file://localhost/Users/antoniochiappetta/OneDrive - Aalto University/University/Aalto/Hackatons/Junction/Character Animations/Animations/Failure/Failure.000.png</pathurl>
                      <rate>
                        <timebase>24</timebase>
                        <ntsc>FALSE</ntsc>
                      </rate>
                      <duration>137</duration>
                      <timecode>
                        <rate>
                          <timebase>24</timebase>
                          <ntsc>FALSE</ntsc>
                        </rate>
                      </timecode>
                      <media>
                        <video>
                          <duration>1</duration>
                          <samplecharacteristics>
                            <anamorphic>FALSE</anamorphic>
                            <pixelaspectratio>square</pixelaspectratio>
                            <fielddominance>none</fielddominance>
                            <width>1920</width>
                            <height>1080</height>
                          </samplecharacteristics>
                        </video>
                      </media>
                    </file>
                  </clipitem>
                </track>
              </video>
            </media>
          </clip>
          <clip explodedTracks="true" frameBlend="FALSE" id="masterclip-3">
            <uuid>842576f2-c283-4794-b320-a925e3e7426a</uuid>
            <masterclipid>masterclip-3</masterclipid>
            <ismasterclip>TRUE</ismasterclip>
            <duration>137</duration>
            <in>0</in>
            <out>137</out>
            <name>Failure.001.png</name>
            <rate>
              <timebase>24</timebase>
              <ntsc>FALSE</ntsc>
            </rate>
            <media>
              <video>
                <track>
                  <clipitem frameBlend="FALSE" id="clipitem-4">
                    <name>Failure.001.png</name>
                    <masterclipid>masterclip-3</masterclipid>
                    <rate>
                      <timebase>24</timebase>
                      <ntsc>FALSE</ntsc>
                    </rate>
                    <alphatype>straight</alphatype>
                    <pixelaspectratio>square</pixelaspectratio>
                    <anamorphic>FALSE</anamorphic>
                    <file id="file-3">
                      <name>Failure.001.png</name>
                      <pathurl>file://localhost/Users/antoniochiappetta/OneDrive - Aalto University/University/Aalto/Hackatons/Junction/Character Animations/Animations/Failure/Failure.001.png</pathurl>
                      <rate>
                        <timebase>24</timebase>
                        <ntsc>FALSE</ntsc>
                      </rate>
                      <duration>137</duration>
                      <timecode>
                        <rate>
                          <timebase>24</timebase>
                          <ntsc>FALSE</ntsc>
                        </rate>
                      </timecode>
                      <media>
                        <video>
                          <duration>1</duration>
                          <samplecharacteristics>
                            <anamorphic>FALSE</anamorphic>
                            <pixelaspectratio>square</pixelaspectratio>
                            <fielddominance>none</fielddominance>
                            <width>1920</width>
                            <height>1080</height>
                          </samplecharacteristics>
                        </video>
                      </media>
                    </file>
                  </clipitem>
                </track>
              </video>
            </media>
          </clip>
          <clip explodedTracks="true" frameBlend="FALSE" id="masterclip-4">
            <uuid>b8ab4b4f-26b0-4c25-b664-4e5366a61ce2</uuid>
            <masterclipid>masterclip-4</masterclipid>
            <ismasterclip>TRUE</ismasterclip>
            <duration>137</duration>
            <in>0</in>
            <out>137</out>
            <name>Failure.002.png</name>
            <rate>
              <timebase>24</timebase>
              <ntsc>FALSE</ntsc>
            </rate>
            <media>
              <video>
                <track>
                  <clipitem frameBlend="FALSE" id="clipitem-5">
                    <name>Failure.002.png</name>
                    <masterclipid>masterclip-4</masterclipid>
                    <rate>
                      <timebase>24</timebase>
                      <ntsc>FALSE</ntsc>
                    </rate>
                    <alphatype>straight</alphatype>
                    <pixelaspectratio>square</pixelaspectratio>
                    <anamorphic>FALSE</anamorphic>
                    <file id="file-4">
                      <name>Failure.002.png</name>
                      <pathurl>file://localhost/Users/antoniochiappetta/OneDrive - Aalto University/University/Aalto/Hackatons/Junction/Character Animations/Animations/Failure/Failure.002.png</pathurl>
                      <rate>
                        <timebase>24</timebase>
                        <ntsc>FALSE</ntsc>
                      </rate>
                      <duration>137</duration>
                      <timecode>
                        <rate>
                          <timebase>24</timebase>
                          <ntsc>FALSE</ntsc>
                        </rate>
                      </timecode>
                      <media>
                        <video>
                          <duration>1</duration>
                          <samplecharacteristics>
                            <anamorphic>FALSE</anamorphic>
                            <pixelaspectratio>square</pixelaspectratio>
                            <fielddominance>none</fielddominance>
                            <width>1920</width>
                            <height>1080</height>
                          </samplecharacteristics>
                        </video>
                      </media>
                    </file>
                  </clipitem>
                </track>
              </video>
            </media>
          </clip>
          <clip explodedTracks="true" frameBlend="FALSE" id="masterclip-5">
            <uuid>e04fc841-4883-4eda-9d19-2a2d6cc812fa</uuid>
            <masterclipid>masterclip-5</masterclipid>
            <ismasterclip>TRUE</ismasterclip>
            <duration>137</duration>
            <in>0</in>
            <out>137</out>
            <name>Failure.003.png</name>
            <rate>
              <timebase>24</timebase>
              <ntsc>FALSE</ntsc>
            </rate>
            <media>
              <video>
                <track>
                  <clipitem frameBlend="FALSE" id="clipitem-6">
                    <name>Failure.003.png</name>
                    <masterclipid>masterclip-5</masterclipid>
                    <rate>
                      <timebase>24</timebase>
                      <ntsc>FALSE</ntsc>
                    </rate>
                    <alphatype>straight</alphatype>
                    <pixelaspectratio>square</pixelaspectratio>
                    <anamorphic>FALSE</anamorphic>
                    <file id="file-5">
                      <name>Failure.003.png</name>
                      <pathurl>file://localhost/Users/antoniochiappetta/OneDrive - Aalto University/University/Aalto/Hackatons/Junction/Character Animations/Animations/Failure/Failure.003.png</pathurl>
                      <rate>
                        <timebase>24</timebase>
                        <ntsc>FALSE</ntsc>
                      </rate>
                      <duration>137</duration>
                      <timecode>
                        <rate>
                          <timebase>24</timebase>
                          <ntsc>FALSE</ntsc>
                        </rate>
                      </timecode>
                      <media>
                        <video>
                          <duration>1</duration>
                          <samplecharacteristics>
                            <anamorphic>FALSE</anamorphic>
                            <pixelaspectratio>square</pixelaspectratio>
                            <fielddominance>none</fielddominance>
                            <width>1920</width>
                            <height>1080</height>
                          </samplecharacteristics>
                        </video>
                      </media>
                    </file>
                  </clipitem>
                </track>
              </video>
            </media>
          </clip>
          <clip explodedTracks="true" frameBlend="FALSE" id="masterclip-6">
            <uuid>d84e1506-402e-4a9a-b096-80f0a073566d</uuid>
            <masterclipid>masterclip-6</masterclipid>
            <ismasterclip>TRUE</ismasterclip>
            <duration>137</duration>
            <in>0</in>
            <out>137</out>
            <name>Failure.004.png</name>
            <rate>
              <timebase>24</timebase>
              <ntsc>FALSE</ntsc>
            </rate>
            <media>
              <video>
                <track>
                  <clipitem frameBlend="FALSE" id="clipitem-7">
                    <name>Failure.004.png</name>
                    <masterclipid>masterclip-6</masterclipid>
                    <rate>
                      <timebase>24</timebase>
                      <ntsc>FALSE</ntsc>
                    </rate>
                    <alphatype>straight</alphatype>
                    <pixelaspectratio>square</pixelaspectratio>
                    <anamorphic>FALSE</anamorphic>
                    <file id="file-6">
                      <name>Failure.004.png</name>
                      <pathurl>file://localhost/Users/antoniochiappetta/OneDrive - Aalto University/University/Aalto/Hackatons/Junction/Character Animations/Animations/Failure/Failure.004.png</pathurl>
                      <rate>
                        <timebase>24</timebase>
                        <ntsc>FALSE</ntsc>
                      </rate>
                      <duration>137</duration>
                      <timecode>
                        <rate>
                          <timebase>24</timebase>
                          <ntsc>FALSE</ntsc>
                        </rate>
                      </timecode>
                      <media>
                        <video>
                          <duration>1</duration>
                          <samplecharacteristics>
                            <anamorphic>FALSE</anamorphic>
                            <pixelaspectratio>square</pixelaspectratio>
                            <fielddominance>none</fielddominance>
                            <width>1920</width>
                            <height>1080</height>
                          </samplecharacteristics>
                        </video>
                      </media>
                    </file>
                  </clipitem>
                </track>
              </video>
            </media>
          </clip>
          <clip explodedTracks="true" frameBlend="FALSE" id="masterclip-7">
            <uuid>da5ed1ac-f0b6-440b-81e9-8c13f31ffb9b</uuid>
            <masterclipid>masterclip-7</masterclipid>
            <ismasterclip>TRUE</ismasterclip>
            <duration>137</duration>
            <in>0</in>
            <out>137</out>
            <name>Failure.005.png</name>
            <rate>
              <timebase>24</timebase>
              <ntsc>FALSE</ntsc>
            </rate>
            <media>
              <video>
                <track>
                  <clipitem frameBlend="FALSE" id="clipitem-8">
                    <name>Failure.005.png</name>
                    <masterclipid>masterclip-7</masterclipid>
                    <rate>
                      <timebase>24</timebase>
                      <ntsc>FALSE</ntsc>
                    </rate>
                    <alphatype>straight</alphatype>
                    <pixelaspectratio>square</pixelaspectratio>
                    <anamorphic>FALSE</anamorphic>
                    <file id="file-7">
                      <name>Failure.005.png</name>
                      <pathurl>file://localhost/Users/antoniochiappetta/OneDrive - Aalto University/University/Aalto/Hackatons/Junction/Character Animations/Animations/Failure/Failure.005.png</pathurl>
                      <rate>
                        <timebase>24</timebase>
                        <ntsc>FALSE</ntsc>
                      </rate>
                      <duration>137</duration>
                      <timecode>
                        <rate>
                          <timebase>24</timebase>
                          <ntsc>FALSE</ntsc>
                        </rate>
                      </timecode>
                      <media>
                        <video>
                          <duration>1</duration>
                          <samplecharacteristics>
                            <anamorphic>FALSE</anamorphic>
                            <pixelaspectratio>square</pixelaspectratio>
                            <fielddominance>none</fielddominance>
                            <width>1920</width>
                            <height>1080</height>
                          </samplecharacteristics>
                        </video>
                      </media>
                    </file>
                  </clipitem>
                </track>
              </video>
            </media>
          </clip>
          <clip explodedTracks="true" frameBlend="FALSE" id="masterclip-8">
            <uuid>41dec825-1df3-4529-957a-358b33f19774</uuid>
            <masterclipid>masterclip-8</masterclipid>
            <ismasterclip>TRUE</ismasterclip>
            <duration>137</duration>
            <in>0</in>
            <out>137</out>
            <name>Failure.006.png</name>
            <rate>
              <timebase>24</timebase>
              <ntsc>FALSE</ntsc>
            </rate>
            <media>
              <video>
                <track>
                  <clipitem frameBlend="FALSE" id="clipitem-9">
                    <name>Failure.006.png</name>
                    <masterclipid>masterclip-8</masterclipid>
                    <rate>
                      <timebase>24</timebase>
                      <ntsc>FALSE</ntsc>
                    </rate>
                    <alphatype>straight</alphatype>
                    <pixelaspectratio>square</pixelaspectratio>
                    <anamorphic>FALSE</anamorphic>
                    <file id="file-8">
                      <name>Failure.006.png</name>
                      <pathurl>file://localhost/Users/antoniochiappetta/OneDrive - Aalto University/University/Aalto/Hackatons/Junction/Character Animations/Animations/Failure/Failure.006.png</pathurl>
                      <rate>
                        <timebase>24</timebase>
                        <ntsc>FALSE</ntsc>
                      </rate>
                      <duration>137</duration>
                      <timecode>
                        <rate>
                          <timebase>24</timebase>
                          <ntsc>FALSE</ntsc>
                        </rate>
                      </timecode>
                      <media>
                        <video>
                          <duration>1</duration>
                          <samplecharacteristics>
                            <anamorphic>FALSE</anamorphic>
                            <pixelaspectratio>square</pixelaspectratio>
                            <fielddominance>none</fielddominance>
                            <width>1920</width>
                            <height>1080</height>
                          </samplecharacteristics>
                        </video>
                      </media>
                    </file>
                  </clipitem>
                </track>
              </video>
            </media>
          </clip>
          <clip explodedTracks="true" frameBlend="FALSE" id="masterclip-9">
            <uuid>24e0940a-bb44-460e-8c9d-acb8a110621e</uuid>
            <masterclipid>masterclip-9</masterclipid>
            <ismasterclip>TRUE</ismasterclip>
            <duration>137</duration>
            <in>0</in>
            <out>137</out>
            <name>Failure.007.png</name>
            <rate>
              <timebase>24</timebase>
              <ntsc>FALSE</ntsc>
            </rate>
            <media>
              <video>
                <track>
                  <clipitem frameBlend="FALSE" id="clipitem-10">
                    <name>Failure.007.png</name>
                    <masterclipid>masterclip-9</masterclipid>
                    <rate>
                      <timebase>24</timebase>
                      <ntsc>FALSE</ntsc>
                    </rate>
                    <alphatype>straight</alphatype>
                    <pixelaspectratio>square</pixelaspectratio>
                    <anamorphic>FALSE</anamorphic>
                    <file id="file-9">
                      <name>Failure.007.png</name>
                      <pathurl>file://localhost/Users/antoniochiappetta/OneDrive - Aalto University/University/Aalto/Hackatons/Junction/Character Animations/Animations/Failure/Failure.007.png</pathurl>
                      <rate>
                        <timebase>24</timebase>
                        <ntsc>FALSE</ntsc>
                      </rate>
                      <duration>137</duration>
                      <timecode>
                        <rate>
                          <timebase>24</timebase>
                          <ntsc>FALSE</ntsc>
                        </rate>
                      </timecode>
                      <media>
                        <video>
                          <duration>1</duration>
                          <samplecharacteristics>
                            <anamorphic>FALSE</anamorphic>
                            <pixelaspectratio>square</pixelaspectratio>
                            <fielddominance>none</fielddominance>
                            <width>1920</width>
                            <height>1080</height>
                          </samplecharacteristics>
                        </video>
                      </media>
                    </file>
                  </clipitem>
                </track>
              </video>
            </media>
          </clip>
          <clip explodedTracks="true" frameBlend="FALSE" id="masterclip-10">
            <uuid>15f22240-2709-4f75-ad82-6e07146f1343</uuid>
            <masterclipid>masterclip-10</masterclipid>
            <ismasterclip>TRUE</ismasterclip>
            <duration>137</duration>
            <in>0</in>
            <out>137</out>
            <name>Failure.008.png</name>
            <rate>
              <timebase>24</timebase>
              <ntsc>FALSE</ntsc>
            </rate>
            <media>
              <video>
                <track>
                  <clipitem frameBlend="FALSE" id="clipitem-11">
                    <name>Failure.008.png</name>
                    <masterclipid>masterclip-10</masterclipid>
                    <rate>
                      <timebase>24</timebase>
                      <ntsc>FALSE</ntsc>
                    </rate>
                    <alphatype>straight</alphatype>
                    <pixelaspectratio>square</pixelaspectratio>
                    <anamorphic>FALSE</anamorphic>
                    <file id="file-10">
                      <name>Failure.008.png</name>
                      <pathurl>file://localhost/Users/antoniochiappetta/OneDrive - Aalto University/University/Aalto/Hackatons/Junction/Character Animations/Animations/Failure/Failure.008.png</pathurl>
                      <rate>
                        <timebase>24</timebase>
                        <ntsc>FALSE</ntsc>
                      </rate>
                      <duration>137</duration>
                      <timecode>
                        <rate>
                          <timebase>24</timebase>
                          <ntsc>FALSE</ntsc>
                        </rate>
                      </timecode>
                      <media>
                        <video>
                          <duration>1</duration>
                          <samplecharacteristics>
                            <anamorphic>FALSE</anamorphic>
                            <pixelaspectratio>square</pixelaspectratio>
                            <fielddominance>none</fielddominance>
                            <width>1920</width>
                            <height>1080</height>
                          </samplecharacteristics>
                        </video>
                      </media>
                    </file>
                  </clipitem>
                </track>
              </video>
            </media>
          </clip>
          <clip explodedTracks="true" frameBlend="FALSE" id="masterclip-11">
            <uuid>15eb0ef4-9634-40cc-91c4-67b3d0b184d0</uuid>
            <masterclipid>masterclip-11</masterclipid>
            <ismasterclip>TRUE</ismasterclip>
            <duration>137</duration>
            <in>0</in>
            <out>137</out>
            <name>Failure.009.png</name>
            <rate>
              <timebase>24</timebase>
              <ntsc>FALSE</ntsc>
            </rate>
            <media>
              <video>
                <track>
                  <clipitem frameBlend="FALSE" id="clipitem-12">
                    <name>Failure.009.png</name>
                    <masterclipid>masterclip-11</masterclipid>
                    <rate>
                      <timebase>24</timebase>
                      <ntsc>FALSE</ntsc>
                    </rate>
                    <alphatype>straight</alphatype>
                    <pixelaspectratio>square</pixelaspectratio>
                    <anamorphic>FALSE</anamorphic>
                    <file id="file-11">
                      <name>Failure.009.png</name>
                      <pathurl>file://localhost/Users/antoniochiappetta/OneDrive - Aalto University/University/Aalto/Hackatons/Junction/Character Animations/Animations/Failure/Failure.009.png</pathurl>
                      <rate>
                        <timebase>24</timebase>
                        <ntsc>FALSE</ntsc>
                      </rate>
                      <duration>137</duration>
                      <timecode>
                        <rate>
                          <timebase>24</timebase>
                          <ntsc>FALSE</ntsc>
                        </rate>
                      </timecode>
                      <media>
                        <video>
                          <duration>1</duration>
                          <samplecharacteristics>
                            <anamorphic>FALSE</anamorphic>
                            <pixelaspectratio>square</pixelaspectratio>
                            <fielddominance>none</fielddominance>
                            <width>1920</width>
                            <height>1080</height>
                          </samplecharacteristics>
                        </video>
                      </media>
                    </file>
                  </clipitem>
                </track>
              </video>
            </media>
          </clip>
          <clip explodedTracks="true" frameBlend="FALSE" id="masterclip-12">
            <uuid>f5e83cb7-d61d-44ab-a202-1133e099175a</uuid>
            <masterclipid>masterclip-12</masterclipid>
            <ismasterclip>TRUE</ismasterclip>
            <duration>137</duration>
            <in>0</in>
            <out>137</out>
            <name>Failure.010.png</name>
            <rate>
              <timebase>24</timebase>
              <ntsc>FALSE</ntsc>
            </rate>
            <media>
              <video>
                <track>
                  <clipitem frameBlend="FALSE" id="clipitem-13">
                    <name>Failure.010.png</name>
                    <masterclipid>masterclip-12</masterclipid>
                    <rate>
                      <timebase>24</timebase>
                      <ntsc>FALSE</ntsc>
                    </rate>
                    <alphatype>straight</alphatype>
                    <pixelaspectratio>square</pixelaspectratio>
                    <anamorphic>FALSE</anamorphic>
                    <file id="file-12">
                      <name>Failure.010.png</name>
                      <pathurl>file://localhost/Users/antoniochiappetta/OneDrive - Aalto University/University/Aalto/Hackatons/Junction/Character Animations/Animations/Failure/Failure.010.png</pathurl>
                      <rate>
                        <timebase>24</timebase>
                        <ntsc>FALSE</ntsc>
                      </rate>
                      <duration>137</duration>
                      <timecode>
                        <rate>
                          <timebase>24</timebase>
                          <ntsc>FALSE</ntsc>
                        </rate>
                      </timecode>
                      <media>
                        <video>
                          <duration>1</duration>
                          <samplecharacteristics>
                            <anamorphic>FALSE</anamorphic>
                            <pixelaspectratio>square</pixelaspectratio>
                            <fielddominance>none</fielddominance>
                            <width>1920</width>
                            <height>1080</height>
                          </samplecharacteristics>
                        </video>
                      </media>
                    </file>
                  </clipitem>
                </track>
              </video>
            </media>
          </clip>
          <clip explodedTracks="true" frameBlend="FALSE" id="masterclip-13">
            <uuid>66d6e792-ff91-4a4a-a548-de3d2eea36fe</uuid>
            <masterclipid>masterclip-13</masterclipid>
            <ismasterclip>TRUE</ismasterclip>
            <duration>137</duration>
            <in>0</in>
            <out>137</out>
            <name>Failure.011.png</name>
            <rate>
              <timebase>24</timebase>
              <ntsc>FALSE</ntsc>
            </rate>
            <media>
              <video>
                <track>
                  <clipitem frameBlend="FALSE" id="clipitem-14">
                    <name>Failure.011.png</name>
                    <masterclipid>masterclip-13</masterclipid>
                    <rate>
                      <timebase>24</timebase>
                      <ntsc>FALSE</ntsc>
                    </rate>
                    <alphatype>straight</alphatype>
                    <pixelaspectratio>square</pixelaspectratio>
                    <anamorphic>FALSE</anamorphic>
                    <file id="file-13">
                      <name>Failure.011.png</name>
                      <pathurl>file://localhost/Users/antoniochiappetta/OneDrive - Aalto University/University/Aalto/Hackatons/Junction/Character Animations/Animations/Failure/Failure.011.png</pathurl>
                      <rate>
                        <timebase>24</timebase>
                        <ntsc>FALSE</ntsc>
                      </rate>
                      <duration>137</duration>
                      <timecode>
                        <rate>
                          <timebase>24</timebase>
                          <ntsc>FALSE</ntsc>
                        </rate>
                      </timecode>
                      <media>
                        <video>
                          <duration>1</duration>
                          <samplecharacteristics>
                            <anamorphic>FALSE</anamorphic>
                            <pixelaspectratio>square</pixelaspectratio>
                            <fielddominance>none</fielddominance>
                            <width>1920</width>
                            <height>1080</height>
                          </samplecharacteristics>
                        </video>
                      </media>
                    </file>
                  </clipitem>
                </track>
              </video>
            </media>
          </clip>
          <clip explodedTracks="true" frameBlend="FALSE" id="masterclip-14">
            <uuid>afe7fecc-201d-4e79-88a0-3facad8af6ed</uuid>
            <masterclipid>masterclip-14</masterclipid>
            <ismasterclip>TRUE</ismasterclip>
            <duration>137</duration>
            <in>0</in>
            <out>137</out>
            <name>Failure.012.png</name>
            <rate>
              <timebase>24</timebase>
              <ntsc>FALSE</ntsc>
            </rate>
            <media>
              <video>
                <track>
                  <clipitem frameBlend="FALSE" id="clipitem-15">
                    <name>Failure.012.png</name>
                    <masterclipid>masterclip-14</masterclipid>
                    <rate>
                      <timebase>24</timebase>
                      <ntsc>FALSE</ntsc>
                    </rate>
                    <alphatype>straight</alphatype>
                    <pixelaspectratio>square</pixelaspectratio>
                    <anamorphic>FALSE</anamorphic>
                    <file id="file-14">
                      <name>Failure.012.png</name>
                      <pathurl>file://localhost/Users/antoniochiappetta/OneDrive - Aalto University/University/Aalto/Hackatons/Junction/Character Animations/Animations/Failure/Failure.012.png</pathurl>
                      <rate>
                        <timebase>24</timebase>
                        <ntsc>FALSE</ntsc>
                      </rate>
                      <duration>137</duration>
                      <timecode>
                        <rate>
                          <timebase>24</timebase>
                          <ntsc>FALSE</ntsc>
                        </rate>
                      </timecode>
                      <media>
                        <video>
                          <duration>1</duration>
                          <samplecharacteristics>
                            <anamorphic>FALSE</anamorphic>
                            <pixelaspectratio>square</pixelaspectratio>
                            <fielddominance>none</fielddominance>
                            <width>1920</width>
                            <height>1080</height>
                          </samplecharacteristics>
                        </video>
                      </media>
                    </file>
                  </clipitem>
                </track>
              </video>
            </media>
          </clip>
          <clip explodedTracks="true" frameBlend="FALSE" id="masterclip-15">
            <uuid>4fb8d3d9-9140-4ffd-a1db-722cba302bdc</uuid>
            <masterclipid>masterclip-15</masterclipid>
            <ismasterclip>TRUE</ismasterclip>
            <duration>137</duration>
            <in>0</in>
            <out>137</out>
            <name>Failure.013.png</name>
            <rate>
              <timebase>24</timebase>
              <ntsc>FALSE</ntsc>
            </rate>
            <media>
              <video>
                <track>
                  <clipitem frameBlend="FALSE" id="clipitem-16">
                    <name>Failure.013.png</name>
                    <masterclipid>masterclip-15</masterclipid>
                    <rate>
                      <timebase>24</timebase>
                      <ntsc>FALSE</ntsc>
                    </rate>
                    <alphatype>straight</alphatype>
                    <pixelaspectratio>square</pixelaspectratio>
                    <anamorphic>FALSE</anamorphic>
                    <file id="file-15">
                      <name>Failure.013.png</name>
                      <pathurl>file://localhost/Users/antoniochiappetta/OneDrive - Aalto University/University/Aalto/Hackatons/Junction/Character Animations/Animations/Failure/Failure.013.png</pathurl>
                      <rate>
                        <timebase>24</timebase>
                        <ntsc>FALSE</ntsc>
                      </rate>
                      <duration>137</duration>
                      <timecode>
                        <rate>
                          <timebase>24</timebase>
                          <ntsc>FALSE</ntsc>
                        </rate>
                      </timecode>
                      <media>
                        <video>
                          <duration>1</duration>
                          <samplecharacteristics>
                            <anamorphic>FALSE</anamorphic>
                            <pixelaspectratio>square</pixelaspectratio>
                            <fielddominance>none</fielddominance>
                            <width>1920</width>
                            <height>1080</height>
                          </samplecharacteristics>
                        </video>
                      </media>
                    </file>
                  </clipitem>
                </track>
              </video>
            </media>
          </clip>
          <clip explodedTracks="true" frameBlend="FALSE" id="masterclip-16">
            <uuid>68a9f194-b9e0-471d-850d-6e55fb993432</uuid>
            <masterclipid>masterclip-16</masterclipid>
            <ismasterclip>TRUE</ismasterclip>
            <duration>137</duration>
            <in>0</in>
            <out>137</out>
            <name>Failure.014.png</name>
            <rate>
              <timebase>24</timebase>
              <ntsc>FALSE</ntsc>
            </rate>
            <media>
              <video>
                <track>
                  <clipitem frameBlend="FALSE" id="clipitem-17">
                    <name>Failure.014.png</name>
                    <masterclipid>masterclip-16</masterclipid>
                    <rate>
                      <timebase>24</timebase>
                      <ntsc>FALSE</ntsc>
                    </rate>
                    <alphatype>straight</alphatype>
                    <pixelaspectratio>square</pixelaspectratio>
                    <anamorphic>FALSE</anamorphic>
                    <file id="file-16">
                      <name>Failure.014.png</name>
                      <pathurl>file://localhost/Users/antoniochiappetta/OneDrive - Aalto University/University/Aalto/Hackatons/Junction/Character Animations/Animations/Failure/Failure.014.png</pathurl>
                      <rate>
                        <timebase>24</timebase>
                        <ntsc>FALSE</ntsc>
                      </rate>
                      <duration>137</duration>
                      <timecode>
                        <rate>
                          <timebase>24</timebase>
                          <ntsc>FALSE</ntsc>
                        </rate>
                      </timecode>
                      <media>
                        <video>
                          <duration>1</duration>
                          <samplecharacteristics>
                            <anamorphic>FALSE</anamorphic>
                            <pixelaspectratio>square</pixelaspectratio>
                            <fielddominance>none</fielddominance>
                            <width>1920</width>
                            <height>1080</height>
                          </samplecharacteristics>
                        </video>
                      </media>
                    </file>
                  </clipitem>
                </track>
              </video>
            </media>
          </clip>
          <clip explodedTracks="true" frameBlend="FALSE" id="masterclip-17">
            <uuid>b4c88b5b-b1b3-4d23-ab65-9082a27b0a5a</uuid>
            <masterclipid>masterclip-17</masterclipid>
            <ismasterclip>TRUE</ismasterclip>
            <duration>137</duration>
            <in>0</in>
            <out>137</out>
            <name>Failure.015.png</name>
            <rate>
              <timebase>24</timebase>
              <ntsc>FALSE</ntsc>
            </rate>
            <media>
              <video>
                <track>
                  <clipitem frameBlend="FALSE" id="clipitem-18">
                    <name>Failure.015.png</name>
                    <masterclipid>masterclip-17</masterclipid>
                    <rate>
                      <timebase>24</timebase>
                      <ntsc>FALSE</ntsc>
                    </rate>
                    <alphatype>straight</alphatype>
                    <pixelaspectratio>square</pixelaspectratio>
                    <anamorphic>FALSE</anamorphic>
                    <file id="file-17">
                      <name>Failure.015.png</name>
                      <pathurl>file://localhost/Users/antoniochiappetta/OneDrive - Aalto University/University/Aalto/Hackatons/Junction/Character Animations/Animations/Failure/Failure.015.png</pathurl>
                      <rate>
                        <timebase>24</timebase>
                        <ntsc>FALSE</ntsc>
                      </rate>
                      <duration>137</duration>
                      <timecode>
                        <rate>
                          <timebase>24</timebase>
                          <ntsc>FALSE</ntsc>
                        </rate>
                      </timecode>
                      <media>
                        <video>
                          <duration>1</duration>
                          <samplecharacteristics>
                            <anamorphic>FALSE</anamorphic>
                            <pixelaspectratio>square</pixelaspectratio>
                            <fielddominance>none</fielddominance>
                            <width>1920</width>
                            <height>1080</height>
                          </samplecharacteristics>
                        </video>
                      </media>
                    </file>
                  </clipitem>
                </track>
              </video>
            </media>
          </clip>
          <clip explodedTracks="true" frameBlend="FALSE" id="masterclip-18">
            <uuid>1058f8fb-9782-48bb-8c9c-a95a7a4c96fb</uuid>
            <masterclipid>masterclip-18</masterclipid>
            <ismasterclip>TRUE</ismasterclip>
            <duration>137</duration>
            <in>0</in>
            <out>137</out>
            <name>Failure.016.png</name>
            <rate>
              <timebase>24</timebase>
              <ntsc>FALSE</ntsc>
            </rate>
            <media>
              <video>
                <track>
                  <clipitem frameBlend="FALSE" id="clipitem-19">
                    <name>Failure.016.png</name>
                    <masterclipid>masterclip-18</masterclipid>
                    <rate>
                      <timebase>24</timebase>
                      <ntsc>FALSE</ntsc>
                    </rate>
                    <alphatype>straight</alphatype>
                    <pixelaspectratio>square</pixelaspectratio>
                    <anamorphic>FALSE</anamorphic>
                    <file id="file-18">
                      <name>Failure.016.png</name>
                      <pathurl>file://localhost/Users/antoniochiappetta/OneDrive - Aalto University/University/Aalto/Hackatons/Junction/Character Animations/Animations/Failure/Failure.016.png</pathurl>
                      <rate>
                        <timebase>24</timebase>
                        <ntsc>FALSE</ntsc>
                      </rate>
                      <duration>137</duration>
                      <timecode>
                        <rate>
                          <timebase>24</timebase>
                          <ntsc>FALSE</ntsc>
                        </rate>
                      </timecode>
                      <media>
                        <video>
                          <duration>1</duration>
                          <samplecharacteristics>
                            <anamorphic>FALSE</anamorphic>
                            <pixelaspectratio>square</pixelaspectratio>
                            <fielddominance>none</fielddominance>
                            <width>1920</width>
                            <height>1080</height>
                          </samplecharacteristics>
                        </video>
                      </media>
                    </file>
                  </clipitem>
                </track>
              </video>
            </media>
          </clip>
          <clip explodedTracks="true" frameBlend="FALSE" id="masterclip-19">
            <uuid>dd026feb-4329-4a29-ad32-7fe8de89016e</uuid>
            <masterclipid>masterclip-19</masterclipid>
            <ismasterclip>TRUE</ismasterclip>
            <duration>137</duration>
            <in>0</in>
            <out>137</out>
            <name>Failure.017.png</name>
            <rate>
              <timebase>24</timebase>
              <ntsc>FALSE</ntsc>
            </rate>
            <media>
              <video>
                <track>
                  <clipitem frameBlend="FALSE" id="clipitem-20">
                    <name>Failure.017.png</name>
                    <masterclipid>masterclip-19</masterclipid>
                    <rate>
                      <timebase>24</timebase>
                      <ntsc>FALSE</ntsc>
                    </rate>
                    <alphatype>straight</alphatype>
                    <pixelaspectratio>square</pixelaspectratio>
                    <anamorphic>FALSE</anamorphic>
                    <file id="file-19">
                      <name>Failure.017.png</name>
                      <pathurl>file://localhost/Users/antoniochiappetta/OneDrive - Aalto University/University/Aalto/Hackatons/Junction/Character Animations/Animations/Failure/Failure.017.png</pathurl>
                      <rate>
                        <timebase>24</timebase>
                        <ntsc>FALSE</ntsc>
                      </rate>
                      <duration>137</duration>
                      <timecode>
                        <rate>
                          <timebase>24</timebase>
                          <ntsc>FALSE</ntsc>
                        </rate>
                      </timecode>
                      <media>
                        <video>
                          <duration>1</duration>
                          <samplecharacteristics>
                            <anamorphic>FALSE</anamorphic>
                            <pixelaspectratio>square</pixelaspectratio>
                            <fielddominance>none</fielddominance>
                            <width>1920</width>
                            <height>1080</height>
                          </samplecharacteristics>
                        </video>
                      </media>
                    </file>
                  </clipitem>
                </track>
              </video>
            </media>
          </clip>
          <clip explodedTracks="true" frameBlend="FALSE" id="masterclip-20">
            <uuid>68936d7f-1cf7-4027-ba8d-62af46772f24</uuid>
            <masterclipid>masterclip-20</masterclipid>
            <ismasterclip>TRUE</ismasterclip>
            <duration>137</duration>
            <in>0</in>
            <out>137</out>
            <name>Failure.018.png</name>
            <rate>
              <timebase>24</timebase>
              <ntsc>FALSE</ntsc>
            </rate>
            <media>
              <video>
                <track>
                  <clipitem frameBlend="FALSE" id="clipitem-21">
                    <name>Failure.018.png</name>
                    <masterclipid>masterclip-20</masterclipid>
                    <rate>
                      <timebase>24</timebase>
                      <ntsc>FALSE</ntsc>
                    </rate>
                    <alphatype>straight</alphatype>
                    <pixelaspectratio>square</pixelaspectratio>
                    <anamorphic>FALSE</anamorphic>
                    <file id="file-20">
                      <name>Failure.018.png</name>
                      <pathurl>file://localhost/Users/antoniochiappetta/OneDrive - Aalto University/University/Aalto/Hackatons/Junction/Character Animations/Animations/Failure/Failure.018.png</pathurl>
                      <rate>
                        <timebase>24</timebase>
                        <ntsc>FALSE</ntsc>
                      </rate>
                      <duration>137</duration>
                      <timecode>
                        <rate>
                          <timebase>24</timebase>
                          <ntsc>FALSE</ntsc>
                        </rate>
                      </timecode>
                      <media>
                        <video>
                          <duration>1</duration>
                          <samplecharacteristics>
                            <anamorphic>FALSE</anamorphic>
                            <pixelaspectratio>square</pixelaspectratio>
                            <fielddominance>none</fielddominance>
                            <width>1920</width>
                            <height>1080</height>
                          </samplecharacteristics>
                        </video>
                      </media>
                    </file>
                  </clipitem>
                </track>
              </video>
            </media>
          </clip>
          <clip explodedTracks="true" frameBlend="FALSE" id="masterclip-21">
            <uuid>80a8a65d-fbe7-42ac-96d8-ab9e60c2d6e8</uuid>
            <masterclipid>masterclip-21</masterclipid>
            <ismasterclip>TRUE</ismasterclip>
            <duration>137</duration>
            <in>0</in>
            <out>137</out>
            <name>Failure.019.png</name>
            <rate>
              <timebase>24</timebase>
              <ntsc>FALSE</ntsc>
            </rate>
            <media>
              <video>
                <track>
                  <clipitem frameBlend="FALSE" id="clipitem-22">
                    <name>Failure.019.png</name>
                    <masterclipid>masterclip-21</masterclipid>
                    <rate>
                      <timebase>24</timebase>
                      <ntsc>FALSE</ntsc>
                    </rate>
                    <alphatype>straight</alphatype>
                    <pixelaspectratio>square</pixelaspectratio>
                    <anamorphic>FALSE</anamorphic>
                    <file id="file-21">
                      <name>Failure.019.png</name>
                      <pathurl>file://localhost/Users/antoniochiappetta/OneDrive - Aalto University/University/Aalto/Hackatons/Junction/Character Animations/Animations/Failure/Failure.019.png</pathurl>
                      <rate>
                        <timebase>24</timebase>
                        <ntsc>FALSE</ntsc>
                      </rate>
                      <duration>137</duration>
                      <timecode>
                        <rate>
                          <timebase>24</timebase>
                          <ntsc>FALSE</ntsc>
                        </rate>
                      </timecode>
                      <media>
                        <video>
                          <duration>1</duration>
                          <samplecharacteristics>
                            <anamorphic>FALSE</anamorphic>
                            <pixelaspectratio>square</pixelaspectratio>
                            <fielddominance>none</fielddominance>
                            <width>1920</width>
                            <height>1080</height>
                          </samplecharacteristics>
                        </video>
                      </media>
                    </file>
                  </clipitem>
                </track>
              </video>
            </media>
          </clip>
          <clip explodedTracks="true" frameBlend="FALSE" id="masterclip-22">
            <uuid>a6e885cc-1700-4133-9f45-01832b868a5d</uuid>
            <masterclipid>masterclip-22</masterclipid>
            <ismasterclip>TRUE</ismasterclip>
            <duration>137</duration>
            <in>0</in>
            <out>137</out>
            <name>Failure.020.png</name>
            <rate>
              <timebase>24</timebase>
              <ntsc>FALSE</ntsc>
            </rate>
            <media>
              <video>
                <track>
                  <clipitem frameBlend="FALSE" id="clipitem-23">
                    <name>Failure.020.png</name>
                    <masterclipid>masterclip-22</masterclipid>
                    <rate>
                      <timebase>24</timebase>
                      <ntsc>FALSE</ntsc>
                    </rate>
                    <alphatype>straight</alphatype>
                    <pixelaspectratio>square</pixelaspectratio>
                    <anamorphic>FALSE</anamorphic>
                    <file id="file-22">
                      <name>Failure.020.png</name>
                      <pathurl>file://localhost/Users/antoniochiappetta/OneDrive - Aalto University/University/Aalto/Hackatons/Junction/Character Animations/Animations/Failure/Failure.020.png</pathurl>
                      <rate>
                        <timebase>24</timebase>
                        <ntsc>FALSE</ntsc>
                      </rate>
                      <duration>137</duration>
                      <timecode>
                        <rate>
                          <timebase>24</timebase>
                          <ntsc>FALSE</ntsc>
                        </rate>
                      </timecode>
                      <media>
                        <video>
                          <duration>1</duration>
                          <samplecharacteristics>
                            <anamorphic>FALSE</anamorphic>
                            <pixelaspectratio>square</pixelaspectratio>
                            <fielddominance>none</fielddominance>
                            <width>1920</width>
                            <height>1080</height>
                          </samplecharacteristics>
                        </video>
                      </media>
                    </file>
                  </clipitem>
                </track>
              </video>
            </media>
          </clip>
          <clip explodedTracks="true" frameBlend="FALSE" id="masterclip-23">
            <uuid>043bfaff-9066-4f14-b851-64abde9b8f2e</uuid>
            <masterclipid>masterclip-23</masterclipid>
            <ismasterclip>TRUE</ismasterclip>
            <duration>137</duration>
            <in>0</in>
            <out>137</out>
            <name>Failure.021.png</name>
            <rate>
              <timebase>24</timebase>
              <ntsc>FALSE</ntsc>
            </rate>
            <media>
              <video>
                <track>
                  <clipitem frameBlend="FALSE" id="clipitem-24">
                    <name>Failure.021.png</name>
                    <masterclipid>masterclip-23</masterclipid>
                    <rate>
                      <timebase>24</timebase>
                      <ntsc>FALSE</ntsc>
                    </rate>
                    <alphatype>straight</alphatype>
                    <pixelaspectratio>square</pixelaspectratio>
                    <anamorphic>FALSE</anamorphic>
                    <file id="file-23">
                      <name>Failure.021.png</name>
                      <pathurl>file://localhost/Users/antoniochiappetta/OneDrive - Aalto University/University/Aalto/Hackatons/Junction/Character Animations/Animations/Failure/Failure.021.png</pathurl>
                      <rate>
                        <timebase>24</timebase>
                        <ntsc>FALSE</ntsc>
                      </rate>
                      <duration>137</duration>
                      <timecode>
                        <rate>
                          <timebase>24</timebase>
                          <ntsc>FALSE</ntsc>
                        </rate>
                      </timecode>
                      <media>
                        <video>
                          <duration>1</duration>
                          <samplecharacteristics>
                            <anamorphic>FALSE</anamorphic>
                            <pixelaspectratio>square</pixelaspectratio>
                            <fielddominance>none</fielddominance>
                            <width>1920</width>
                            <height>1080</height>
                          </samplecharacteristics>
                        </video>
                      </media>
                    </file>
                  </clipitem>
                </track>
              </video>
            </media>
          </clip>
          <clip explodedTracks="true" frameBlend="FALSE" id="masterclip-24">
            <uuid>2484c1d8-2ebf-4278-80c8-3fe1a77d0348</uuid>
            <masterclipid>masterclip-24</masterclipid>
            <ismasterclip>TRUE</ismasterclip>
            <duration>137</duration>
            <in>0</in>
            <out>137</out>
            <name>Failure.022.png</name>
            <rate>
              <timebase>24</timebase>
              <ntsc>FALSE</ntsc>
            </rate>
            <media>
              <video>
                <track>
                  <clipitem frameBlend="FALSE" id="clipitem-25">
                    <name>Failure.022.png</name>
                    <masterclipid>masterclip-24</masterclipid>
                    <rate>
                      <timebase>24</timebase>
                      <ntsc>FALSE</ntsc>
                    </rate>
                    <alphatype>straight</alphatype>
                    <pixelaspectratio>square</pixelaspectratio>
                    <anamorphic>FALSE</anamorphic>
                    <file id="file-24">
                      <name>Failure.022.png</name>
                      <pathurl>file://localhost/Users/antoniochiappetta/OneDrive - Aalto University/University/Aalto/Hackatons/Junction/Character Animations/Animations/Failure/Failure.022.png</pathurl>
                      <rate>
                        <timebase>24</timebase>
                        <ntsc>FALSE</ntsc>
                      </rate>
                      <duration>137</duration>
                      <timecode>
                        <rate>
                          <timebase>24</timebase>
                          <ntsc>FALSE</ntsc>
                        </rate>
                      </timecode>
                      <media>
                        <video>
                          <duration>1</duration>
                          <samplecharacteristics>
                            <anamorphic>FALSE</anamorphic>
                            <pixelaspectratio>square</pixelaspectratio>
                            <fielddominance>none</fielddominance>
                            <width>1920</width>
                            <height>1080</height>
                          </samplecharacteristics>
                        </video>
                      </media>
                    </file>
                  </clipitem>
                </track>
              </video>
            </media>
          </clip>
          <clip explodedTracks="true" frameBlend="FALSE" id="masterclip-25">
            <uuid>1a08e68a-8396-458c-8dae-989a2cecfc30</uuid>
            <masterclipid>masterclip-25</masterclipid>
            <ismasterclip>TRUE</ismasterclip>
            <duration>137</duration>
            <in>0</in>
            <out>137</out>
            <name>Failure.023.png</name>
            <rate>
              <timebase>24</timebase>
              <ntsc>FALSE</ntsc>
            </rate>
            <media>
              <video>
                <track>
                  <clipitem frameBlend="FALSE" id="clipitem-26">
                    <name>Failure.023.png</name>
                    <masterclipid>masterclip-25</masterclipid>
                    <rate>
                      <timebase>24</timebase>
                      <ntsc>FALSE</ntsc>
                    </rate>
                    <alphatype>straight</alphatype>
                    <pixelaspectratio>square</pixelaspectratio>
                    <anamorphic>FALSE</anamorphic>
                    <file id="file-25">
                      <name>Failure.023.png</name>
                      <pathurl>file://localhost/Users/antoniochiappetta/OneDrive - Aalto University/University/Aalto/Hackatons/Junction/Character Animations/Animations/Failure/Failure.023.png</pathurl>
                      <rate>
                        <timebase>24</timebase>
                        <ntsc>FALSE</ntsc>
                      </rate>
                      <duration>137</duration>
                      <timecode>
                        <rate>
                          <timebase>24</timebase>
                          <ntsc>FALSE</ntsc>
                        </rate>
                      </timecode>
                      <media>
                        <video>
                          <duration>1</duration>
                          <samplecharacteristics>
                            <anamorphic>FALSE</anamorphic>
                            <pixelaspectratio>square</pixelaspectratio>
                            <fielddominance>none</fielddominance>
                            <width>1920</width>
                            <height>1080</height>
                          </samplecharacteristics>
                        </video>
                      </media>
                    </file>
                  </clipitem>
                </track>
              </video>
            </media>
          </clip>
          <clip explodedTracks="true" frameBlend="FALSE" id="masterclip-26">
            <uuid>c512fcd3-79a2-4fae-a6e8-b99186e7b2d1</uuid>
            <masterclipid>masterclip-26</masterclipid>
            <ismasterclip>TRUE</ismasterclip>
            <duration>137</duration>
            <in>0</in>
            <out>137</out>
            <name>Failure.024.png</name>
            <rate>
              <timebase>24</timebase>
              <ntsc>FALSE</ntsc>
            </rate>
            <media>
              <video>
                <track>
                  <clipitem frameBlend="FALSE" id="clipitem-27">
                    <name>Failure.024.png</name>
                    <masterclipid>masterclip-26</masterclipid>
                    <rate>
                      <timebase>24</timebase>
                      <ntsc>FALSE</ntsc>
                    </rate>
                    <alphatype>straight</alphatype>
                    <pixelaspectratio>square</pixelaspectratio>
                    <anamorphic>FALSE</anamorphic>
                    <file id="file-26">
                      <name>Failure.024.png</name>
                      <pathurl>file://localhost/Users/antoniochiappetta/OneDrive - Aalto University/University/Aalto/Hackatons/Junction/Character Animations/Animations/Failure/Failure.024.png</pathurl>
                      <rate>
                        <timebase>24</timebase>
                        <ntsc>FALSE</ntsc>
                      </rate>
                      <duration>137</duration>
                      <timecode>
                        <rate>
                          <timebase>24</timebase>
                          <ntsc>FALSE</ntsc>
                        </rate>
                      </timecode>
                      <media>
                        <video>
                          <duration>1</duration>
                          <samplecharacteristics>
                            <anamorphic>FALSE</anamorphic>
                            <pixelaspectratio>square</pixelaspectratio>
                            <fielddominance>none</fielddominance>
                            <width>1920</width>
                            <height>1080</height>
                          </samplecharacteristics>
                        </video>
                      </media>
                    </file>
                  </clipitem>
                </track>
              </video>
            </media>
          </clip>
          <clip explodedTracks="true" frameBlend="FALSE" id="masterclip-27">
            <uuid>c7a3ea15-876c-4c7e-98a8-d671bf5eeca9</uuid>
            <masterclipid>masterclip-27</masterclipid>
            <ismasterclip>TRUE</ismasterclip>
            <duration>137</duration>
            <in>0</in>
            <out>137</out>
            <name>Failure.025.png</name>
            <rate>
              <timebase>24</timebase>
              <ntsc>FALSE</ntsc>
            </rate>
            <media>
              <video>
                <track>
                  <clipitem frameBlend="FALSE" id="clipitem-28">
                    <name>Failure.025.png</name>
                    <masterclipid>masterclip-27</masterclipid>
                    <rate>
                      <timebase>24</timebase>
                      <ntsc>FALSE</ntsc>
                    </rate>
                    <alphatype>straight</alphatype>
                    <pixelaspectratio>square</pixelaspectratio>
                    <anamorphic>FALSE</anamorphic>
                    <file id="file-27">
                      <name>Failure.025.png</name>
                      <pathurl>file://localhost/Users/antoniochiappetta/OneDrive - Aalto University/University/Aalto/Hackatons/Junction/Character Animations/Animations/Failure/Failure.025.png</pathurl>
                      <rate>
                        <timebase>24</timebase>
                        <ntsc>FALSE</ntsc>
                      </rate>
                      <duration>137</duration>
                      <timecode>
                        <rate>
                          <timebase>24</timebase>
                          <ntsc>FALSE</ntsc>
                        </rate>
                      </timecode>
                      <media>
                        <video>
                          <duration>1</duration>
                          <samplecharacteristics>
                            <anamorphic>FALSE</anamorphic>
                            <pixelaspectratio>square</pixelaspectratio>
                            <fielddominance>none</fielddominance>
                            <width>1920</width>
                            <height>1080</height>
                          </samplecharacteristics>
                        </video>
                      </media>
                    </file>
                  </clipitem>
                </track>
              </video>
            </media>
          </clip>
          <clip explodedTracks="true" frameBlend="FALSE" id="masterclip-28">
            <uuid>3a65474e-278c-46df-8b34-816cce07b195</uuid>
            <masterclipid>masterclip-28</masterclipid>
            <ismasterclip>TRUE</ismasterclip>
            <duration>137</duration>
            <in>0</in>
            <out>137</out>
            <name>Failure.026.png</name>
            <rate>
              <timebase>24</timebase>
              <ntsc>FALSE</ntsc>
            </rate>
            <media>
              <video>
                <track>
                  <clipitem frameBlend="FALSE" id="clipitem-29">
                    <name>Failure.026.png</name>
                    <masterclipid>masterclip-28</masterclipid>
                    <rate>
                      <timebase>24</timebase>
                      <ntsc>FALSE</ntsc>
                    </rate>
                    <alphatype>straight</alphatype>
                    <pixelaspectratio>square</pixelaspectratio>
                    <anamorphic>FALSE</anamorphic>
                    <file id="file-28">
                      <name>Failure.026.png</name>
                      <pathurl>file://localhost/Users/antoniochiappetta/OneDrive - Aalto University/University/Aalto/Hackatons/Junction/Character Animations/Animations/Failure/Failure.026.png</pathurl>
                      <rate>
                        <timebase>24</timebase>
                        <ntsc>FALSE</ntsc>
                      </rate>
                      <duration>137</duration>
                      <timecode>
                        <rate>
                          <timebase>24</timebase>
                          <ntsc>FALSE</ntsc>
                        </rate>
                      </timecode>
                      <media>
                        <video>
                          <duration>1</duration>
                          <samplecharacteristics>
                            <anamorphic>FALSE</anamorphic>
                            <pixelaspectratio>square</pixelaspectratio>
                            <fielddominance>none</fielddominance>
                            <width>1920</width>
                            <height>1080</height>
                          </samplecharacteristics>
                        </video>
                      </media>
                    </file>
                  </clipitem>
                </track>
              </video>
            </media>
          </clip>
          <clip explodedTracks="true" frameBlend="FALSE" id="masterclip-29">
            <uuid>14cff207-afd4-4ccb-9f16-2fd3fb1ebceb</uuid>
            <masterclipid>masterclip-29</masterclipid>
            <ismasterclip>TRUE</ismasterclip>
            <duration>137</duration>
            <in>0</in>
            <out>137</out>
            <name>Failure.027.png</name>
            <rate>
              <timebase>24</timebase>
              <ntsc>FALSE</ntsc>
            </rate>
            <media>
              <video>
                <track>
                  <clipitem frameBlend="FALSE" id="clipitem-30">
                    <name>Failure.027.png</name>
                    <masterclipid>masterclip-29</masterclipid>
                    <rate>
                      <timebase>24</timebase>
                      <ntsc>FALSE</ntsc>
                    </rate>
                    <alphatype>straight</alphatype>
                    <pixelaspectratio>square</pixelaspectratio>
                    <anamorphic>FALSE</anamorphic>
                    <file id="file-29">
                      <name>Failure.027.png</name>
                      <pathurl>file://localhost/Users/antoniochiappetta/OneDrive - Aalto University/University/Aalto/Hackatons/Junction/Character Animations/Animations/Failure/Failure.027.png</pathurl>
                      <rate>
                        <timebase>24</timebase>
                        <ntsc>FALSE</ntsc>
                      </rate>
                      <duration>137</duration>
                      <timecode>
                        <rate>
                          <timebase>24</timebase>
                          <ntsc>FALSE</ntsc>
                        </rate>
                      </timecode>
                      <media>
                        <video>
                          <duration>1</duration>
                          <samplecharacteristics>
                            <anamorphic>FALSE</anamorphic>
                            <pixelaspectratio>square</pixelaspectratio>
                            <fielddominance>none</fielddominance>
                            <width>1920</width>
                            <height>1080</height>
                          </samplecharacteristics>
                        </video>
                      </media>
                    </file>
                  </clipitem>
                </track>
              </video>
            </media>
          </clip>
          <clip explodedTracks="true" frameBlend="FALSE" id="masterclip-30">
            <uuid>e795bffe-a9cc-40d4-b8d2-1452a9806bad</uuid>
            <masterclipid>masterclip-30</masterclipid>
            <ismasterclip>TRUE</ismasterclip>
            <duration>137</duration>
            <in>0</in>
            <out>137</out>
            <name>Failure.028.png</name>
            <rate>
              <timebase>24</timebase>
              <ntsc>FALSE</ntsc>
            </rate>
            <media>
              <video>
                <track>
                  <clipitem frameBlend="FALSE" id="clipitem-31">
                    <name>Failure.028.png</name>
                    <masterclipid>masterclip-30</masterclipid>
                    <rate>
                      <timebase>24</timebase>
                      <ntsc>FALSE</ntsc>
                    </rate>
                    <alphatype>straight</alphatype>
                    <pixelaspectratio>square</pixelaspectratio>
                    <anamorphic>FALSE</anamorphic>
                    <file id="file-30">
                      <name>Failure.028.png</name>
                      <pathurl>file://localhost/Users/antoniochiappetta/OneDrive - Aalto University/University/Aalto/Hackatons/Junction/Character Animations/Animations/Failure/Failure.028.png</pathurl>
                      <rate>
                        <timebase>24</timebase>
                        <ntsc>FALSE</ntsc>
                      </rate>
                      <duration>137</duration>
                      <timecode>
                        <rate>
                          <timebase>24</timebase>
                          <ntsc>FALSE</ntsc>
                        </rate>
                      </timecode>
                      <media>
                        <video>
                          <duration>1</duration>
                          <samplecharacteristics>
                            <anamorphic>FALSE</anamorphic>
                            <pixelaspectratio>square</pixelaspectratio>
                            <fielddominance>none</fielddominance>
                            <width>1920</width>
                            <height>1080</height>
                          </samplecharacteristics>
                        </video>
                      </media>
                    </file>
                  </clipitem>
                </track>
              </video>
            </media>
          </clip>
          <clip explodedTracks="true" frameBlend="FALSE" id="masterclip-31">
            <uuid>94acf9ad-bc73-4257-9388-1157384e979d</uuid>
            <masterclipid>masterclip-31</masterclipid>
            <ismasterclip>TRUE</ismasterclip>
            <duration>137</duration>
            <in>0</in>
            <out>137</out>
            <name>Failure.029.png</name>
            <rate>
              <timebase>24</timebase>
              <ntsc>FALSE</ntsc>
            </rate>
            <media>
              <video>
                <track>
                  <clipitem frameBlend="FALSE" id="clipitem-32">
                    <name>Failure.029.png</name>
                    <masterclipid>masterclip-31</masterclipid>
                    <rate>
                      <timebase>24</timebase>
                      <ntsc>FALSE</ntsc>
                    </rate>
                    <alphatype>straight</alphatype>
                    <pixelaspectratio>square</pixelaspectratio>
                    <anamorphic>FALSE</anamorphic>
                    <file id="file-31">
                      <name>Failure.029.png</name>
                      <pathurl>file://localhost/Users/antoniochiappetta/OneDrive - Aalto University/University/Aalto/Hackatons/Junction/Character Animations/Animations/Failure/Failure.029.png</pathurl>
                      <rate>
                        <timebase>24</timebase>
                        <ntsc>FALSE</ntsc>
                      </rate>
                      <duration>137</duration>
                      <timecode>
                        <rate>
                          <timebase>24</timebase>
                          <ntsc>FALSE</ntsc>
                        </rate>
                      </timecode>
                      <media>
                        <video>
                          <duration>1</duration>
                          <samplecharacteristics>
                            <anamorphic>FALSE</anamorphic>
                            <pixelaspectratio>square</pixelaspectratio>
                            <fielddominance>none</fielddominance>
                            <width>1920</width>
                            <height>1080</height>
                          </samplecharacteristics>
                        </video>
                      </media>
                    </file>
                  </clipitem>
                </track>
              </video>
            </media>
          </clip>
          <clip explodedTracks="true" frameBlend="FALSE" id="masterclip-32">
            <uuid>416d82f9-e002-4674-86d7-f33cc8be1027</uuid>
            <masterclipid>masterclip-32</masterclipid>
            <ismasterclip>TRUE</ismasterclip>
            <duration>137</duration>
            <in>0</in>
            <out>137</out>
            <name>Failure.030.png</name>
            <rate>
              <timebase>24</timebase>
              <ntsc>FALSE</ntsc>
            </rate>
            <media>
              <video>
                <track>
                  <clipitem frameBlend="FALSE" id="clipitem-33">
                    <name>Failure.030.png</name>
                    <masterclipid>masterclip-32</masterclipid>
                    <rate>
                      <timebase>24</timebase>
                      <ntsc>FALSE</ntsc>
                    </rate>
                    <alphatype>straight</alphatype>
                    <pixelaspectratio>square</pixelaspectratio>
                    <anamorphic>FALSE</anamorphic>
                    <file id="file-32">
                      <name>Failure.030.png</name>
                      <pathurl>file://localhost/Users/antoniochiappetta/OneDrive - Aalto University/University/Aalto/Hackatons/Junction/Character Animations/Animations/Failure/Failure.030.png</pathurl>
                      <rate>
                        <timebase>24</timebase>
                        <ntsc>FALSE</ntsc>
                      </rate>
                      <duration>137</duration>
                      <timecode>
                        <rate>
                          <timebase>24</timebase>
                          <ntsc>FALSE</ntsc>
                        </rate>
                      </timecode>
                      <media>
                        <video>
                          <duration>1</duration>
                          <samplecharacteristics>
                            <anamorphic>FALSE</anamorphic>
                            <pixelaspectratio>square</pixelaspectratio>
                            <fielddominance>none</fielddominance>
                            <width>1920</width>
                            <height>1080</height>
                          </samplecharacteristics>
                        </video>
                      </media>
                    </file>
                  </clipitem>
                </track>
              </video>
            </media>
          </clip>
          <clip explodedTracks="true" frameBlend="FALSE" id="masterclip-33">
            <uuid>7f978c99-7695-4aea-a146-56f3918813cf</uuid>
            <masterclipid>masterclip-33</masterclipid>
            <ismasterclip>TRUE</ismasterclip>
            <duration>137</duration>
            <in>0</in>
            <out>137</out>
            <name>Failure.031.png</name>
            <rate>
              <timebase>24</timebase>
              <ntsc>FALSE</ntsc>
            </rate>
            <media>
              <video>
                <track>
                  <clipitem frameBlend="FALSE" id="clipitem-34">
                    <name>Failure.031.png</name>
                    <masterclipid>masterclip-33</masterclipid>
                    <rate>
                      <timebase>24</timebase>
                      <ntsc>FALSE</ntsc>
                    </rate>
                    <alphatype>straight</alphatype>
                    <pixelaspectratio>square</pixelaspectratio>
                    <anamorphic>FALSE</anamorphic>
                    <file id="file-33">
                      <name>Failure.031.png</name>
                      <pathurl>file://localhost/Users/antoniochiappetta/OneDrive - Aalto University/University/Aalto/Hackatons/Junction/Character Animations/Animations/Failure/Failure.031.png</pathurl>
                      <rate>
                        <timebase>24</timebase>
                        <ntsc>FALSE</ntsc>
                      </rate>
                      <duration>137</duration>
                      <timecode>
                        <rate>
                          <timebase>24</timebase>
                          <ntsc>FALSE</ntsc>
                        </rate>
                      </timecode>
                      <media>
                        <video>
                          <duration>1</duration>
                          <samplecharacteristics>
                            <anamorphic>FALSE</anamorphic>
                            <pixelaspectratio>square</pixelaspectratio>
                            <fielddominance>none</fielddominance>
                            <width>1920</width>
                            <height>1080</height>
                          </samplecharacteristics>
                        </video>
                      </media>
                    </file>
                  </clipitem>
                </track>
              </video>
            </media>
          </clip>
          <clip explodedTracks="true" frameBlend="FALSE" id="masterclip-34">
            <uuid>b57f5ca8-ef46-4885-bee6-df65f60ec117</uuid>
            <masterclipid>masterclip-34</masterclipid>
            <ismasterclip>TRUE</ismasterclip>
            <duration>137</duration>
            <in>0</in>
            <out>137</out>
            <name>Failure.032.png</name>
            <rate>
              <timebase>24</timebase>
              <ntsc>FALSE</ntsc>
            </rate>
            <media>
              <video>
                <track>
                  <clipitem frameBlend="FALSE" id="clipitem-35">
                    <name>Failure.032.png</name>
                    <masterclipid>masterclip-34</masterclipid>
                    <rate>
                      <timebase>24</timebase>
                      <ntsc>FALSE</ntsc>
                    </rate>
                    <alphatype>straight</alphatype>
                    <pixelaspectratio>square</pixelaspectratio>
                    <anamorphic>FALSE</anamorphic>
                    <file id="file-34">
                      <name>Failure.032.png</name>
                      <pathurl>file://localhost/Users/antoniochiappetta/OneDrive - Aalto University/University/Aalto/Hackatons/Junction/Character Animations/Animations/Failure/Failure.032.png</pathurl>
                      <rate>
                        <timebase>24</timebase>
                        <ntsc>FALSE</ntsc>
                      </rate>
                      <duration>137</duration>
                      <timecode>
                        <rate>
                          <timebase>24</timebase>
                          <ntsc>FALSE</ntsc>
                        </rate>
                      </timecode>
                      <media>
                        <video>
                          <duration>1</duration>
                          <samplecharacteristics>
                            <anamorphic>FALSE</anamorphic>
                            <pixelaspectratio>square</pixelaspectratio>
                            <fielddominance>none</fielddominance>
                            <width>1920</width>
                            <height>1080</height>
                          </samplecharacteristics>
                        </video>
                      </media>
                    </file>
                  </clipitem>
                </track>
              </video>
            </media>
          </clip>
          <clip explodedTracks="true" frameBlend="FALSE" id="masterclip-35">
            <uuid>87cdbd83-f6c8-4890-8702-17ba7e881fe2</uuid>
            <masterclipid>masterclip-35</masterclipid>
            <ismasterclip>TRUE</ismasterclip>
            <duration>137</duration>
            <in>0</in>
            <out>137</out>
            <name>Failure.033.png</name>
            <rate>
              <timebase>24</timebase>
              <ntsc>FALSE</ntsc>
            </rate>
            <media>
              <video>
                <track>
                  <clipitem frameBlend="FALSE" id="clipitem-36">
                    <name>Failure.033.png</name>
                    <masterclipid>masterclip-35</masterclipid>
                    <rate>
                      <timebase>24</timebase>
                      <ntsc>FALSE</ntsc>
                    </rate>
                    <alphatype>straight</alphatype>
                    <pixelaspectratio>square</pixelaspectratio>
                    <anamorphic>FALSE</anamorphic>
                    <file id="file-35">
                      <name>Failure.033.png</name>
                      <pathurl>file://localhost/Users/antoniochiappetta/OneDrive - Aalto University/University/Aalto/Hackatons/Junction/Character Animations/Animations/Failure/Failure.033.png</pathurl>
                      <rate>
                        <timebase>24</timebase>
                        <ntsc>FALSE</ntsc>
                      </rate>
                      <duration>137</duration>
                      <timecode>
                        <rate>
                          <timebase>24</timebase>
                          <ntsc>FALSE</ntsc>
                        </rate>
                      </timecode>
                      <media>
                        <video>
                          <duration>1</duration>
                          <samplecharacteristics>
                            <anamorphic>FALSE</anamorphic>
                            <pixelaspectratio>square</pixelaspectratio>
                            <fielddominance>none</fielddominance>
                            <width>1920</width>
                            <height>1080</height>
                          </samplecharacteristics>
                        </video>
                      </media>
                    </file>
                  </clipitem>
                </track>
              </video>
            </media>
          </clip>
          <clip explodedTracks="true" frameBlend="FALSE" id="masterclip-36">
            <uuid>717162c6-824b-44f9-a068-226451f11e6c</uuid>
            <masterclipid>masterclip-36</masterclipid>
            <ismasterclip>TRUE</ismasterclip>
            <duration>137</duration>
            <in>0</in>
            <out>137</out>
            <name>Failure.034.png</name>
            <rate>
              <timebase>24</timebase>
              <ntsc>FALSE</ntsc>
            </rate>
            <media>
              <video>
                <track>
                  <clipitem frameBlend="FALSE" id="clipitem-37">
                    <name>Failure.034.png</name>
                    <masterclipid>masterclip-36</masterclipid>
                    <rate>
                      <timebase>24</timebase>
                      <ntsc>FALSE</ntsc>
                    </rate>
                    <alphatype>straight</alphatype>
                    <pixelaspectratio>square</pixelaspectratio>
                    <anamorphic>FALSE</anamorphic>
                    <file id="file-36">
                      <name>Failure.034.png</name>
                      <pathurl>file://localhost/Users/antoniochiappetta/OneDrive - Aalto University/University/Aalto/Hackatons/Junction/Character Animations/Animations/Failure/Failure.034.png</pathurl>
                      <rate>
                        <timebase>24</timebase>
                        <ntsc>FALSE</ntsc>
                      </rate>
                      <duration>137</duration>
                      <timecode>
                        <rate>
                          <timebase>24</timebase>
                          <ntsc>FALSE</ntsc>
                        </rate>
                      </timecode>
                      <media>
                        <video>
                          <duration>1</duration>
                          <samplecharacteristics>
                            <anamorphic>FALSE</anamorphic>
                            <pixelaspectratio>square</pixelaspectratio>
                            <fielddominance>none</fielddominance>
                            <width>1920</width>
                            <height>1080</height>
                          </samplecharacteristics>
                        </video>
                      </media>
                    </file>
                  </clipitem>
                </track>
              </video>
            </media>
          </clip>
          <clip explodedTracks="true" frameBlend="FALSE" id="masterclip-37">
            <uuid>8ad7672c-b8ef-4502-a104-b982b4709a5e</uuid>
            <masterclipid>masterclip-37</masterclipid>
            <ismasterclip>TRUE</ismasterclip>
            <duration>137</duration>
            <in>0</in>
            <out>137</out>
            <name>Failure.035.png</name>
            <rate>
              <timebase>24</timebase>
              <ntsc>FALSE</ntsc>
            </rate>
            <media>
              <video>
                <track>
                  <clipitem frameBlend="FALSE" id="clipitem-38">
                    <name>Failure.035.png</name>
                    <masterclipid>masterclip-37</masterclipid>
                    <rate>
                      <timebase>24</timebase>
                      <ntsc>FALSE</ntsc>
                    </rate>
                    <alphatype>straight</alphatype>
                    <pixelaspectratio>square</pixelaspectratio>
                    <anamorphic>FALSE</anamorphic>
                    <file id="file-37">
                      <name>Failure.035.png</name>
                      <pathurl>file://localhost/Users/antoniochiappetta/OneDrive - Aalto University/University/Aalto/Hackatons/Junction/Character Animations/Animations/Failure/Failure.035.png</pathurl>
                      <rate>
                        <timebase>24</timebase>
                        <ntsc>FALSE</ntsc>
                      </rate>
                      <duration>137</duration>
                      <timecode>
                        <rate>
                          <timebase>24</timebase>
                          <ntsc>FALSE</ntsc>
                        </rate>
                      </timecode>
                      <media>
                        <video>
                          <duration>1</duration>
                          <samplecharacteristics>
                            <anamorphic>FALSE</anamorphic>
                            <pixelaspectratio>square</pixelaspectratio>
                            <fielddominance>none</fielddominance>
                            <width>1920</width>
                            <height>1080</height>
                          </samplecharacteristics>
                        </video>
                      </media>
                    </file>
                  </clipitem>
                </track>
              </video>
            </media>
          </clip>
          <clip explodedTracks="true" frameBlend="FALSE" id="masterclip-38">
            <uuid>644525bc-e3f7-431e-92bb-8ef6e740d1b9</uuid>
            <masterclipid>masterclip-38</masterclipid>
            <ismasterclip>TRUE</ismasterclip>
            <duration>137</duration>
            <in>0</in>
            <out>137</out>
            <name>Failure.036.png</name>
            <rate>
              <timebase>24</timebase>
              <ntsc>FALSE</ntsc>
            </rate>
            <media>
              <video>
                <track>
                  <clipitem frameBlend="FALSE" id="clipitem-39">
                    <name>Failure.036.png</name>
                    <masterclipid>masterclip-38</masterclipid>
                    <rate>
                      <timebase>24</timebase>
                      <ntsc>FALSE</ntsc>
                    </rate>
                    <alphatype>straight</alphatype>
                    <pixelaspectratio>square</pixelaspectratio>
                    <anamorphic>FALSE</anamorphic>
                    <file id="file-38">
                      <name>Failure.036.png</name>
                      <pathurl>file://localhost/Users/antoniochiappetta/OneDrive - Aalto University/University/Aalto/Hackatons/Junction/Character Animations/Animations/Failure/Failure.036.png</pathurl>
                      <rate>
                        <timebase>24</timebase>
                        <ntsc>FALSE</ntsc>
                      </rate>
                      <duration>137</duration>
                      <timecode>
                        <rate>
                          <timebase>24</timebase>
                          <ntsc>FALSE</ntsc>
                        </rate>
                      </timecode>
                      <media>
                        <video>
                          <duration>1</duration>
                          <samplecharacteristics>
                            <anamorphic>FALSE</anamorphic>
                            <pixelaspectratio>square</pixelaspectratio>
                            <fielddominance>none</fielddominance>
                            <width>1920</width>
                            <height>1080</height>
                          </samplecharacteristics>
                        </video>
                      </media>
                    </file>
                  </clipitem>
                </track>
              </video>
            </media>
          </clip>
          <clip explodedTracks="true" frameBlend="FALSE" id="masterclip-39">
            <uuid>b785d098-824f-47a4-9170-d1fac035dcea</uuid>
            <masterclipid>masterclip-39</masterclipid>
            <ismasterclip>TRUE</ismasterclip>
            <duration>137</duration>
            <in>0</in>
            <out>137</out>
            <name>Failure.037.png</name>
            <rate>
              <timebase>24</timebase>
              <ntsc>FALSE</ntsc>
            </rate>
            <media>
              <video>
                <track>
                  <clipitem frameBlend="FALSE" id="clipitem-40">
                    <name>Failure.037.png</name>
                    <masterclipid>masterclip-39</masterclipid>
                    <rate>
                      <timebase>24</timebase>
                      <ntsc>FALSE</ntsc>
                    </rate>
                    <alphatype>straight</alphatype>
                    <pixelaspectratio>square</pixelaspectratio>
                    <anamorphic>FALSE</anamorphic>
                    <file id="file-39">
                      <name>Failure.037.png</name>
                      <pathurl>file://localhost/Users/antoniochiappetta/OneDrive - Aalto University/University/Aalto/Hackatons/Junction/Character Animations/Animations/Failure/Failure.037.png</pathurl>
                      <rate>
                        <timebase>24</timebase>
                        <ntsc>FALSE</ntsc>
                      </rate>
                      <duration>137</duration>
                      <timecode>
                        <rate>
                          <timebase>24</timebase>
                          <ntsc>FALSE</ntsc>
                        </rate>
                      </timecode>
                      <media>
                        <video>
                          <duration>1</duration>
                          <samplecharacteristics>
                            <anamorphic>FALSE</anamorphic>
                            <pixelaspectratio>square</pixelaspectratio>
                            <fielddominance>none</fielddominance>
                            <width>1920</width>
                            <height>1080</height>
                          </samplecharacteristics>
                        </video>
                      </media>
                    </file>
                  </clipitem>
                </track>
              </video>
            </media>
          </clip>
          <clip explodedTracks="true" frameBlend="FALSE" id="masterclip-40">
            <uuid>5fff0616-193f-461d-add5-e89bcd42b8e5</uuid>
            <masterclipid>masterclip-40</masterclipid>
            <ismasterclip>TRUE</ismasterclip>
            <duration>137</duration>
            <in>0</in>
            <out>137</out>
            <name>Failure.038.png</name>
            <rate>
              <timebase>24</timebase>
              <ntsc>FALSE</ntsc>
            </rate>
            <media>
              <video>
                <track>
                  <clipitem frameBlend="FALSE" id="clipitem-41">
                    <name>Failure.038.png</name>
                    <masterclipid>masterclip-40</masterclipid>
                    <rate>
                      <timebase>24</timebase>
                      <ntsc>FALSE</ntsc>
                    </rate>
                    <alphatype>straight</alphatype>
                    <pixelaspectratio>square</pixelaspectratio>
                    <anamorphic>FALSE</anamorphic>
                    <file id="file-40">
                      <name>Failure.038.png</name>
                      <pathurl>file://localhost/Users/antoniochiappetta/OneDrive - Aalto University/University/Aalto/Hackatons/Junction/Character Animations/Animations/Failure/Failure.038.png</pathurl>
                      <rate>
                        <timebase>24</timebase>
                        <ntsc>FALSE</ntsc>
                      </rate>
                      <duration>137</duration>
                      <timecode>
                        <rate>
                          <timebase>24</timebase>
                          <ntsc>FALSE</ntsc>
                        </rate>
                      </timecode>
                      <media>
                        <video>
                          <duration>1</duration>
                          <samplecharacteristics>
                            <anamorphic>FALSE</anamorphic>
                            <pixelaspectratio>square</pixelaspectratio>
                            <fielddominance>none</fielddominance>
                            <width>1920</width>
                            <height>1080</height>
                          </samplecharacteristics>
                        </video>
                      </media>
                    </file>
                  </clipitem>
                </track>
              </video>
            </media>
          </clip>
          <clip explodedTracks="true" frameBlend="FALSE" id="masterclip-41">
            <uuid>00f2a697-ca02-49f4-8e2c-71893d3292ef</uuid>
            <masterclipid>masterclip-41</masterclipid>
            <ismasterclip>TRUE</ismasterclip>
            <duration>137</duration>
            <in>0</in>
            <out>137</out>
            <name>Failure.039.png</name>
            <rate>
              <timebase>24</timebase>
              <ntsc>FALSE</ntsc>
            </rate>
            <media>
              <video>
                <track>
                  <clipitem frameBlend="FALSE" id="clipitem-42">
                    <name>Failure.039.png</name>
                    <masterclipid>masterclip-41</masterclipid>
                    <rate>
                      <timebase>24</timebase>
                      <ntsc>FALSE</ntsc>
                    </rate>
                    <alphatype>straight</alphatype>
                    <pixelaspectratio>square</pixelaspectratio>
                    <anamorphic>FALSE</anamorphic>
                    <file id="file-41">
                      <name>Failure.039.png</name>
                      <pathurl>file://localhost/Users/antoniochiappetta/OneDrive - Aalto University/University/Aalto/Hackatons/Junction/Character Animations/Animations/Failure/Failure.039.png</pathurl>
                      <rate>
                        <timebase>24</timebase>
                        <ntsc>FALSE</ntsc>
                      </rate>
                      <duration>137</duration>
                      <timecode>
                        <rate>
                          <timebase>24</timebase>
                          <ntsc>FALSE</ntsc>
                        </rate>
                      </timecode>
                      <media>
                        <video>
                          <duration>1</duration>
                          <samplecharacteristics>
                            <anamorphic>FALSE</anamorphic>
                            <pixelaspectratio>square</pixelaspectratio>
                            <fielddominance>none</fielddominance>
                            <width>1920</width>
                            <height>1080</height>
                          </samplecharacteristics>
                        </video>
                      </media>
                    </file>
                  </clipitem>
                </track>
              </video>
            </media>
          </clip>
          <clip explodedTracks="true" frameBlend="FALSE" id="masterclip-42">
            <uuid>2a0a5006-f892-4acc-9b24-14f8922de323</uuid>
            <masterclipid>masterclip-42</masterclipid>
            <ismasterclip>TRUE</ismasterclip>
            <duration>137</duration>
            <in>0</in>
            <out>137</out>
            <name>Failure.040.png</name>
            <rate>
              <timebase>24</timebase>
              <ntsc>FALSE</ntsc>
            </rate>
            <media>
              <video>
                <track>
                  <clipitem frameBlend="FALSE" id="clipitem-43">
                    <name>Failure.040.png</name>
                    <masterclipid>masterclip-42</masterclipid>
                    <rate>
                      <timebase>24</timebase>
                      <ntsc>FALSE</ntsc>
                    </rate>
                    <alphatype>straight</alphatype>
                    <pixelaspectratio>square</pixelaspectratio>
                    <anamorphic>FALSE</anamorphic>
                    <file id="file-42">
                      <name>Failure.040.png</name>
                      <pathurl>file://localhost/Users/antoniochiappetta/OneDrive - Aalto University/University/Aalto/Hackatons/Junction/Character Animations/Animations/Failure/Failure.040.png</pathurl>
                      <rate>
                        <timebase>24</timebase>
                        <ntsc>FALSE</ntsc>
                      </rate>
                      <duration>137</duration>
                      <timecode>
                        <rate>
                          <timebase>24</timebase>
                          <ntsc>FALSE</ntsc>
                        </rate>
                      </timecode>
                      <media>
                        <video>
                          <duration>1</duration>
                          <samplecharacteristics>
                            <anamorphic>FALSE</anamorphic>
                            <pixelaspectratio>square</pixelaspectratio>
                            <fielddominance>none</fielddominance>
                            <width>1920</width>
                            <height>1080</height>
                          </samplecharacteristics>
                        </video>
                      </media>
                    </file>
                  </clipitem>
                </track>
              </video>
            </media>
          </clip>
          <clip explodedTracks="true" frameBlend="FALSE" id="masterclip-43">
            <uuid>e9888bb1-2da2-4472-94c6-da8b7a076c53</uuid>
            <masterclipid>masterclip-43</masterclipid>
            <ismasterclip>TRUE</ismasterclip>
            <duration>137</duration>
            <in>0</in>
            <out>137</out>
            <name>Failure.041.png</name>
            <rate>
              <timebase>24</timebase>
              <ntsc>FALSE</ntsc>
            </rate>
            <media>
              <video>
                <track>
                  <clipitem frameBlend="FALSE" id="clipitem-44">
                    <name>Failure.041.png</name>
                    <masterclipid>masterclip-43</masterclipid>
                    <rate>
                      <timebase>24</timebase>
                      <ntsc>FALSE</ntsc>
                    </rate>
                    <alphatype>straight</alphatype>
                    <pixelaspectratio>square</pixelaspectratio>
                    <anamorphic>FALSE</anamorphic>
                    <file id="file-43">
                      <name>Failure.041.png</name>
                      <pathurl>file://localhost/Users/antoniochiappetta/OneDrive - Aalto University/University/Aalto/Hackatons/Junction/Character Animations/Animations/Failure/Failure.041.png</pathurl>
                      <rate>
                        <timebase>24</timebase>
                        <ntsc>FALSE</ntsc>
                      </rate>
                      <duration>137</duration>
                      <timecode>
                        <rate>
                          <timebase>24</timebase>
                          <ntsc>FALSE</ntsc>
                        </rate>
                      </timecode>
                      <media>
                        <video>
                          <duration>1</duration>
                          <samplecharacteristics>
                            <anamorphic>FALSE</anamorphic>
                            <pixelaspectratio>square</pixelaspectratio>
                            <fielddominance>none</fielddominance>
                            <width>1920</width>
                            <height>1080</height>
                          </samplecharacteristics>
                        </video>
                      </media>
                    </file>
                  </clipitem>
                </track>
              </video>
            </media>
          </clip>
          <clip explodedTracks="true" frameBlend="FALSE" id="masterclip-44">
            <uuid>70d63989-9b63-47f9-a793-b9b2e02380fe</uuid>
            <masterclipid>masterclip-44</masterclipid>
            <ismasterclip>TRUE</ismasterclip>
            <duration>137</duration>
            <in>0</in>
            <out>137</out>
            <name>Failure.042.png</name>
            <rate>
              <timebase>24</timebase>
              <ntsc>FALSE</ntsc>
            </rate>
            <media>
              <video>
                <track>
                  <clipitem frameBlend="FALSE" id="clipitem-45">
                    <name>Failure.042.png</name>
                    <masterclipid>masterclip-44</masterclipid>
                    <rate>
                      <timebase>24</timebase>
                      <ntsc>FALSE</ntsc>
                    </rate>
                    <alphatype>straight</alphatype>
                    <pixelaspectratio>square</pixelaspectratio>
                    <anamorphic>FALSE</anamorphic>
                    <file id="file-44">
                      <name>Failure.042.png</name>
                      <pathurl>file://localhost/Users/antoniochiappetta/OneDrive - Aalto University/University/Aalto/Hackatons/Junction/Character Animations/Animations/Failure/Failure.042.png</pathurl>
                      <rate>
                        <timebase>24</timebase>
                        <ntsc>FALSE</ntsc>
                      </rate>
                      <duration>137</duration>
                      <timecode>
                        <rate>
                          <timebase>24</timebase>
                          <ntsc>FALSE</ntsc>
                        </rate>
                      </timecode>
                      <media>
                        <video>
                          <duration>1</duration>
                          <samplecharacteristics>
                            <anamorphic>FALSE</anamorphic>
                            <pixelaspectratio>square</pixelaspectratio>
                            <fielddominance>none</fielddominance>
                            <width>1920</width>
                            <height>1080</height>
                          </samplecharacteristics>
                        </video>
                      </media>
                    </file>
                  </clipitem>
                </track>
              </video>
            </media>
          </clip>
          <clip explodedTracks="true" frameBlend="FALSE" id="masterclip-45">
            <uuid>a1524691-87b1-476e-967a-249f154d2b66</uuid>
            <masterclipid>masterclip-45</masterclipid>
            <ismasterclip>TRUE</ismasterclip>
            <duration>137</duration>
            <in>0</in>
            <out>137</out>
            <name>Failure.043.png</name>
            <rate>
              <timebase>24</timebase>
              <ntsc>FALSE</ntsc>
            </rate>
            <media>
              <video>
                <track>
                  <clipitem frameBlend="FALSE" id="clipitem-46">
                    <name>Failure.043.png</name>
                    <masterclipid>masterclip-45</masterclipid>
                    <rate>
                      <timebase>24</timebase>
                      <ntsc>FALSE</ntsc>
                    </rate>
                    <alphatype>straight</alphatype>
                    <pixelaspectratio>square</pixelaspectratio>
                    <anamorphic>FALSE</anamorphic>
                    <file id="file-45">
                      <name>Failure.043.png</name>
                      <pathurl>file://localhost/Users/antoniochiappetta/OneDrive - Aalto University/University/Aalto/Hackatons/Junction/Character Animations/Animations/Failure/Failure.043.png</pathurl>
                      <rate>
                        <timebase>24</timebase>
                        <ntsc>FALSE</ntsc>
                      </rate>
                      <duration>137</duration>
                      <timecode>
                        <rate>
                          <timebase>24</timebase>
                          <ntsc>FALSE</ntsc>
                        </rate>
                      </timecode>
                      <media>
                        <video>
                          <duration>1</duration>
                          <samplecharacteristics>
                            <anamorphic>FALSE</anamorphic>
                            <pixelaspectratio>square</pixelaspectratio>
                            <fielddominance>none</fielddominance>
                            <width>1920</width>
                            <height>1080</height>
                          </samplecharacteristics>
                        </video>
                      </media>
                    </file>
                  </clipitem>
                </track>
              </video>
            </media>
          </clip>
          <clip explodedTracks="true" frameBlend="FALSE" id="masterclip-46">
            <uuid>d6f487a5-b5d4-42db-9cfb-026d8126fe4b</uuid>
            <masterclipid>masterclip-46</masterclipid>
            <ismasterclip>TRUE</ismasterclip>
            <duration>137</duration>
            <in>0</in>
            <out>137</out>
            <name>Failure.044.png</name>
            <rate>
              <timebase>24</timebase>
              <ntsc>FALSE</ntsc>
            </rate>
            <media>
              <video>
                <track>
                  <clipitem frameBlend="FALSE" id="clipitem-47">
                    <name>Failure.044.png</name>
                    <masterclipid>masterclip-46</masterclipid>
                    <rate>
                      <timebase>24</timebase>
                      <ntsc>FALSE</ntsc>
                    </rate>
                    <alphatype>straight</alphatype>
                    <pixelaspectratio>square</pixelaspectratio>
                    <anamorphic>FALSE</anamorphic>
                    <file id="file-46">
                      <name>Failure.044.png</name>
                      <pathurl>file://localhost/Users/antoniochiappetta/OneDrive - Aalto University/University/Aalto/Hackatons/Junction/Character Animations/Animations/Failure/Failure.044.png</pathurl>
                      <rate>
                        <timebase>24</timebase>
                        <ntsc>FALSE</ntsc>
                      </rate>
                      <duration>137</duration>
                      <timecode>
                        <rate>
                          <timebase>24</timebase>
                          <ntsc>FALSE</ntsc>
                        </rate>
                      </timecode>
                      <media>
                        <video>
                          <duration>1</duration>
                          <samplecharacteristics>
                            <anamorphic>FALSE</anamorphic>
                            <pixelaspectratio>square</pixelaspectratio>
                            <fielddominance>none</fielddominance>
                            <width>1920</width>
                            <height>1080</height>
                          </samplecharacteristics>
                        </video>
                      </media>
                    </file>
                  </clipitem>
                </track>
              </video>
            </media>
          </clip>
          <clip explodedTracks="true" frameBlend="FALSE" id="masterclip-47">
            <uuid>e8d2276e-c6e5-4e66-bb40-66d2eb83af7a</uuid>
            <masterclipid>masterclip-47</masterclipid>
            <ismasterclip>TRUE</ismasterclip>
            <duration>137</duration>
            <in>0</in>
            <out>137</out>
            <name>Failure.045.png</name>
            <rate>
              <timebase>24</timebase>
              <ntsc>FALSE</ntsc>
            </rate>
            <media>
              <video>
                <track>
                  <clipitem frameBlend="FALSE" id="clipitem-48">
                    <name>Failure.045.png</name>
                    <masterclipid>masterclip-47</masterclipid>
                    <rate>
                      <timebase>24</timebase>
                      <ntsc>FALSE</ntsc>
                    </rate>
                    <alphatype>straight</alphatype>
                    <pixelaspectratio>square</pixelaspectratio>
                    <anamorphic>FALSE</anamorphic>
                    <file id="file-47">
                      <name>Failure.045.png</name>
                      <pathurl>file://localhost/Users/antoniochiappetta/OneDrive - Aalto University/University/Aalto/Hackatons/Junction/Character Animations/Animations/Failure/Failure.045.png</pathurl>
                      <rate>
                        <timebase>24</timebase>
                        <ntsc>FALSE</ntsc>
                      </rate>
                      <duration>137</duration>
                      <timecode>
                        <rate>
                          <timebase>24</timebase>
                          <ntsc>FALSE</ntsc>
                        </rate>
                      </timecode>
                      <media>
                        <video>
                          <duration>1</duration>
                          <samplecharacteristics>
                            <anamorphic>FALSE</anamorphic>
                            <pixelaspectratio>square</pixelaspectratio>
                            <fielddominance>none</fielddominance>
                            <width>1920</width>
                            <height>1080</height>
                          </samplecharacteristics>
                        </video>
                      </media>
                    </file>
                  </clipitem>
                </track>
              </video>
            </media>
          </clip>
          <clip explodedTracks="true" frameBlend="FALSE" id="masterclip-48">
            <uuid>7d1fe242-7ebd-4004-bb9d-7398e5498c9e</uuid>
            <masterclipid>masterclip-48</masterclipid>
            <ismasterclip>TRUE</ismasterclip>
            <duration>137</duration>
            <in>0</in>
            <out>137</out>
            <name>Failure.046.png</name>
            <rate>
              <timebase>24</timebase>
              <ntsc>FALSE</ntsc>
            </rate>
            <media>
              <video>
                <track>
                  <clipitem frameBlend="FALSE" id="clipitem-49">
                    <name>Failure.046.png</name>
                    <masterclipid>masterclip-48</masterclipid>
                    <rate>
                      <timebase>24</timebase>
                      <ntsc>FALSE</ntsc>
                    </rate>
                    <alphatype>straight</alphatype>
                    <pixelaspectratio>square</pixelaspectratio>
                    <anamorphic>FALSE</anamorphic>
                    <file id="file-48">
                      <name>Failure.046.png</name>
                      <pathurl>file://localhost/Users/antoniochiappetta/OneDrive - Aalto University/University/Aalto/Hackatons/Junction/Character Animations/Animations/Failure/Failure.046.png</pathurl>
                      <rate>
                        <timebase>24</timebase>
                        <ntsc>FALSE</ntsc>
                      </rate>
                      <duration>137</duration>
                      <timecode>
                        <rate>
                          <timebase>24</timebase>
                          <ntsc>FALSE</ntsc>
                        </rate>
                      </timecode>
                      <media>
                        <video>
                          <duration>1</duration>
                          <samplecharacteristics>
                            <anamorphic>FALSE</anamorphic>
                            <pixelaspectratio>square</pixelaspectratio>
                            <fielddominance>none</fielddominance>
                            <width>1920</width>
                            <height>1080</height>
                          </samplecharacteristics>
                        </video>
                      </media>
                    </file>
                  </clipitem>
                </track>
              </video>
            </media>
          </clip>
          <clip explodedTracks="true" frameBlend="FALSE" id="masterclip-49">
            <uuid>4c3b64ed-f691-4251-be6d-16d0d769dc6f</uuid>
            <masterclipid>masterclip-49</masterclipid>
            <ismasterclip>TRUE</ismasterclip>
            <duration>137</duration>
            <in>0</in>
            <out>137</out>
            <name>Failure.047.png</name>
            <rate>
              <timebase>24</timebase>
              <ntsc>FALSE</ntsc>
            </rate>
            <media>
              <video>
                <track>
                  <clipitem frameBlend="FALSE" id="clipitem-50">
                    <name>Failure.047.png</name>
                    <masterclipid>masterclip-49</masterclipid>
                    <rate>
                      <timebase>24</timebase>
                      <ntsc>FALSE</ntsc>
                    </rate>
                    <alphatype>straight</alphatype>
                    <pixelaspectratio>square</pixelaspectratio>
                    <anamorphic>FALSE</anamorphic>
                    <file id="file-49">
                      <name>Failure.047.png</name>
                      <pathurl>file://localhost/Users/antoniochiappetta/OneDrive - Aalto University/University/Aalto/Hackatons/Junction/Character Animations/Animations/Failure/Failure.047.png</pathurl>
                      <rate>
                        <timebase>24</timebase>
                        <ntsc>FALSE</ntsc>
                      </rate>
                      <duration>137</duration>
                      <timecode>
                        <rate>
                          <timebase>24</timebase>
                          <ntsc>FALSE</ntsc>
                        </rate>
                      </timecode>
                      <media>
                        <video>
                          <duration>1</duration>
                          <samplecharacteristics>
                            <anamorphic>FALSE</anamorphic>
                            <pixelaspectratio>square</pixelaspectratio>
                            <fielddominance>none</fielddominance>
                            <width>1920</width>
                            <height>1080</height>
                          </samplecharacteristics>
                        </video>
                      </media>
                    </file>
                  </clipitem>
                </track>
              </video>
            </media>
          </clip>
          <clip explodedTracks="true" frameBlend="FALSE" id="masterclip-50">
            <uuid>1f992904-ad0a-4f2d-a54b-cd516d745af2</uuid>
            <masterclipid>masterclip-50</masterclipid>
            <ismasterclip>TRUE</ismasterclip>
            <duration>137</duration>
            <in>0</in>
            <out>137</out>
            <name>Failure.048.png</name>
            <rate>
              <timebase>24</timebase>
              <ntsc>FALSE</ntsc>
            </rate>
            <media>
              <video>
                <track>
                  <clipitem frameBlend="FALSE" id="clipitem-51">
                    <name>Failure.048.png</name>
                    <masterclipid>masterclip-50</masterclipid>
                    <rate>
                      <timebase>24</timebase>
                      <ntsc>FALSE</ntsc>
                    </rate>
                    <alphatype>straight</alphatype>
                    <pixelaspectratio>square</pixelaspectratio>
                    <anamorphic>FALSE</anamorphic>
                    <file id="file-50">
                      <name>Failure.048.png</name>
                      <pathurl>file://localhost/Users/antoniochiappetta/OneDrive - Aalto University/University/Aalto/Hackatons/Junction/Character Animations/Animations/Failure/Failure.048.png</pathurl>
                      <rate>
                        <timebase>24</timebase>
                        <ntsc>FALSE</ntsc>
                      </rate>
                      <duration>137</duration>
                      <timecode>
                        <rate>
                          <timebase>24</timebase>
                          <ntsc>FALSE</ntsc>
                        </rate>
                      </timecode>
                      <media>
                        <video>
                          <duration>1</duration>
                          <samplecharacteristics>
                            <anamorphic>FALSE</anamorphic>
                            <pixelaspectratio>square</pixelaspectratio>
                            <fielddominance>none</fielddominance>
                            <width>1920</width>
                            <height>1080</height>
                          </samplecharacteristics>
                        </video>
                      </media>
                    </file>
                  </clipitem>
                </track>
              </video>
            </media>
          </clip>
          <clip explodedTracks="true" frameBlend="FALSE" id="masterclip-51">
            <uuid>6cbcb872-c08f-4e04-9e57-5902d3ab78e6</uuid>
            <masterclipid>masterclip-51</masterclipid>
            <ismasterclip>TRUE</ismasterclip>
            <duration>137</duration>
            <in>0</in>
            <out>137</out>
            <name>Failure.049.png</name>
            <rate>
              <timebase>24</timebase>
              <ntsc>FALSE</ntsc>
            </rate>
            <media>
              <video>
                <track>
                  <clipitem frameBlend="FALSE" id="clipitem-52">
                    <name>Failure.049.png</name>
                    <masterclipid>masterclip-51</masterclipid>
                    <rate>
                      <timebase>24</timebase>
                      <ntsc>FALSE</ntsc>
                    </rate>
                    <alphatype>straight</alphatype>
                    <pixelaspectratio>square</pixelaspectratio>
                    <anamorphic>FALSE</anamorphic>
                    <file id="file-51">
                      <name>Failure.049.png</name>
                      <pathurl>file://localhost/Users/antoniochiappetta/OneDrive - Aalto University/University/Aalto/Hackatons/Junction/Character Animations/Animations/Failure/Failure.049.png</pathurl>
                      <rate>
                        <timebase>24</timebase>
                        <ntsc>FALSE</ntsc>
                      </rate>
                      <duration>137</duration>
                      <timecode>
                        <rate>
                          <timebase>24</timebase>
                          <ntsc>FALSE</ntsc>
                        </rate>
                      </timecode>
                      <media>
                        <video>
                          <duration>1</duration>
                          <samplecharacteristics>
                            <anamorphic>FALSE</anamorphic>
                            <pixelaspectratio>square</pixelaspectratio>
                            <fielddominance>none</fielddominance>
                            <width>1920</width>
                            <height>1080</height>
                          </samplecharacteristics>
                        </video>
                      </media>
                    </file>
                  </clipitem>
                </track>
              </video>
            </media>
          </clip>
          <clip explodedTracks="true" frameBlend="FALSE" id="masterclip-52">
            <uuid>85682158-4a04-4498-93ca-61363e1a27ad</uuid>
            <masterclipid>masterclip-52</masterclipid>
            <ismasterclip>TRUE</ismasterclip>
            <duration>137</duration>
            <in>0</in>
            <out>137</out>
            <name>Failure.050.png</name>
            <rate>
              <timebase>24</timebase>
              <ntsc>FALSE</ntsc>
            </rate>
            <media>
              <video>
                <track>
                  <clipitem frameBlend="FALSE" id="clipitem-53">
                    <name>Failure.050.png</name>
                    <masterclipid>masterclip-52</masterclipid>
                    <rate>
                      <timebase>24</timebase>
                      <ntsc>FALSE</ntsc>
                    </rate>
                    <alphatype>straight</alphatype>
                    <pixelaspectratio>square</pixelaspectratio>
                    <anamorphic>FALSE</anamorphic>
                    <file id="file-52">
                      <name>Failure.050.png</name>
                      <pathurl>file://localhost/Users/antoniochiappetta/OneDrive - Aalto University/University/Aalto/Hackatons/Junction/Character Animations/Animations/Failure/Failure.050.png</pathurl>
                      <rate>
                        <timebase>24</timebase>
                        <ntsc>FALSE</ntsc>
                      </rate>
                      <duration>137</duration>
                      <timecode>
                        <rate>
                          <timebase>24</timebase>
                          <ntsc>FALSE</ntsc>
                        </rate>
                      </timecode>
                      <media>
                        <video>
                          <duration>1</duration>
                          <samplecharacteristics>
                            <anamorphic>FALSE</anamorphic>
                            <pixelaspectratio>square</pixelaspectratio>
                            <fielddominance>none</fielddominance>
                            <width>1920</width>
                            <height>1080</height>
                          </samplecharacteristics>
                        </video>
                      </media>
                    </file>
                  </clipitem>
                </track>
              </video>
            </media>
          </clip>
          <clip explodedTracks="true" frameBlend="FALSE" id="masterclip-53">
            <uuid>1fe17c32-5f98-4db8-99e7-146923014408</uuid>
            <masterclipid>masterclip-53</masterclipid>
            <ismasterclip>TRUE</ismasterclip>
            <duration>137</duration>
            <in>0</in>
            <out>137</out>
            <name>Failure.051.png</name>
            <rate>
              <timebase>24</timebase>
              <ntsc>FALSE</ntsc>
            </rate>
            <media>
              <video>
                <track>
                  <clipitem frameBlend="FALSE" id="clipitem-54">
                    <name>Failure.051.png</name>
                    <masterclipid>masterclip-53</masterclipid>
                    <rate>
                      <timebase>24</timebase>
                      <ntsc>FALSE</ntsc>
                    </rate>
                    <alphatype>straight</alphatype>
                    <pixelaspectratio>square</pixelaspectratio>
                    <anamorphic>FALSE</anamorphic>
                    <file id="file-53">
                      <name>Failure.051.png</name>
                      <pathurl>file://localhost/Users/antoniochiappetta/OneDrive - Aalto University/University/Aalto/Hackatons/Junction/Character Animations/Animations/Failure/Failure.051.png</pathurl>
                      <rate>
                        <timebase>24</timebase>
                        <ntsc>FALSE</ntsc>
                      </rate>
                      <duration>137</duration>
                      <timecode>
                        <rate>
                          <timebase>24</timebase>
                          <ntsc>FALSE</ntsc>
                        </rate>
                      </timecode>
                      <media>
                        <video>
                          <duration>1</duration>
                          <samplecharacteristics>
                            <anamorphic>FALSE</anamorphic>
                            <pixelaspectratio>square</pixelaspectratio>
                            <fielddominance>none</fielddominance>
                            <width>1920</width>
                            <height>1080</height>
                          </samplecharacteristics>
                        </video>
                      </media>
                    </file>
                  </clipitem>
                </track>
              </video>
            </media>
          </clip>
          <clip explodedTracks="true" frameBlend="FALSE" id="masterclip-54">
            <uuid>2a0e1933-06ad-4e48-8229-b0242600a54f</uuid>
            <masterclipid>masterclip-54</masterclipid>
            <ismasterclip>TRUE</ismasterclip>
            <duration>137</duration>
            <in>0</in>
            <out>137</out>
            <name>Failure.052.png</name>
            <rate>
              <timebase>24</timebase>
              <ntsc>FALSE</ntsc>
            </rate>
            <media>
              <video>
                <track>
                  <clipitem frameBlend="FALSE" id="clipitem-55">
                    <name>Failure.052.png</name>
                    <masterclipid>masterclip-54</masterclipid>
                    <rate>
                      <timebase>24</timebase>
                      <ntsc>FALSE</ntsc>
                    </rate>
                    <alphatype>straight</alphatype>
                    <pixelaspectratio>square</pixelaspectratio>
                    <anamorphic>FALSE</anamorphic>
                    <file id="file-54">
                      <name>Failure.052.png</name>
                      <pathurl>file://localhost/Users/antoniochiappetta/OneDrive - Aalto University/University/Aalto/Hackatons/Junction/Character Animations/Animations/Failure/Failure.052.png</pathurl>
                      <rate>
                        <timebase>24</timebase>
                        <ntsc>FALSE</ntsc>
                      </rate>
                      <duration>137</duration>
                      <timecode>
                        <rate>
                          <timebase>24</timebase>
                          <ntsc>FALSE</ntsc>
                        </rate>
                      </timecode>
                      <media>
                        <video>
                          <duration>1</duration>
                          <samplecharacteristics>
                            <anamorphic>FALSE</anamorphic>
                            <pixelaspectratio>square</pixelaspectratio>
                            <fielddominance>none</fielddominance>
                            <width>1920</width>
                            <height>1080</height>
                          </samplecharacteristics>
                        </video>
                      </media>
                    </file>
                  </clipitem>
                </track>
              </video>
            </media>
          </clip>
          <clip explodedTracks="true" frameBlend="FALSE" id="masterclip-55">
            <uuid>976d7a46-5a7e-4cde-a9c8-4a3d22e6c176</uuid>
            <masterclipid>masterclip-55</masterclipid>
            <ismasterclip>TRUE</ismasterclip>
            <duration>137</duration>
            <in>0</in>
            <out>137</out>
            <name>Failure.053.png</name>
            <rate>
              <timebase>24</timebase>
              <ntsc>FALSE</ntsc>
            </rate>
            <media>
              <video>
                <track>
                  <clipitem frameBlend="FALSE" id="clipitem-56">
                    <name>Failure.053.png</name>
                    <masterclipid>masterclip-55</masterclipid>
                    <rate>
                      <timebase>24</timebase>
                      <ntsc>FALSE</ntsc>
                    </rate>
                    <alphatype>straight</alphatype>
                    <pixelaspectratio>square</pixelaspectratio>
                    <anamorphic>FALSE</anamorphic>
                    <file id="file-55">
                      <name>Failure.053.png</name>
                      <pathurl>file://localhost/Users/antoniochiappetta/OneDrive - Aalto University/University/Aalto/Hackatons/Junction/Character Animations/Animations/Failure/Failure.053.png</pathurl>
                      <rate>
                        <timebase>24</timebase>
                        <ntsc>FALSE</ntsc>
                      </rate>
                      <duration>137</duration>
                      <timecode>
                        <rate>
                          <timebase>24</timebase>
                          <ntsc>FALSE</ntsc>
                        </rate>
                      </timecode>
                      <media>
                        <video>
                          <duration>1</duration>
                          <samplecharacteristics>
                            <anamorphic>FALSE</anamorphic>
                            <pixelaspectratio>square</pixelaspectratio>
                            <fielddominance>none</fielddominance>
                            <width>1920</width>
                            <height>1080</height>
                          </samplecharacteristics>
                        </video>
                      </media>
                    </file>
                  </clipitem>
                </track>
              </video>
            </media>
          </clip>
          <clip explodedTracks="true" frameBlend="FALSE" id="masterclip-56">
            <uuid>e78eb6e9-4462-4102-8612-24b2d45d057f</uuid>
            <masterclipid>masterclip-56</masterclipid>
            <ismasterclip>TRUE</ismasterclip>
            <duration>137</duration>
            <in>0</in>
            <out>137</out>
            <name>Failure.054.png</name>
            <rate>
              <timebase>24</timebase>
              <ntsc>FALSE</ntsc>
            </rate>
            <media>
              <video>
                <track>
                  <clipitem frameBlend="FALSE" id="clipitem-57">
                    <name>Failure.054.png</name>
                    <masterclipid>masterclip-56</masterclipid>
                    <rate>
                      <timebase>24</timebase>
                      <ntsc>FALSE</ntsc>
                    </rate>
                    <alphatype>straight</alphatype>
                    <pixelaspectratio>square</pixelaspectratio>
                    <anamorphic>FALSE</anamorphic>
                    <file id="file-56">
                      <name>Failure.054.png</name>
                      <pathurl>file://localhost/Users/antoniochiappetta/OneDrive - Aalto University/University/Aalto/Hackatons/Junction/Character Animations/Animations/Failure/Failure.054.png</pathurl>
                      <rate>
                        <timebase>24</timebase>
                        <ntsc>FALSE</ntsc>
                      </rate>
                      <duration>137</duration>
                      <timecode>
                        <rate>
                          <timebase>24</timebase>
                          <ntsc>FALSE</ntsc>
                        </rate>
                      </timecode>
                      <media>
                        <video>
                          <duration>1</duration>
                          <samplecharacteristics>
                            <anamorphic>FALSE</anamorphic>
                            <pixelaspectratio>square</pixelaspectratio>
                            <fielddominance>none</fielddominance>
                            <width>1920</width>
                            <height>1080</height>
                          </samplecharacteristics>
                        </video>
                      </media>
                    </file>
                  </clipitem>
                </track>
              </video>
            </media>
          </clip>
          <clip explodedTracks="true" frameBlend="FALSE" id="masterclip-57">
            <uuid>c33fdb8a-64f8-4428-8f0c-8f3a45a555b6</uuid>
            <masterclipid>masterclip-57</masterclipid>
            <ismasterclip>TRUE</ismasterclip>
            <duration>137</duration>
            <in>0</in>
            <out>137</out>
            <name>Failure.055.png</name>
            <rate>
              <timebase>24</timebase>
              <ntsc>FALSE</ntsc>
            </rate>
            <media>
              <video>
                <track>
                  <clipitem frameBlend="FALSE" id="clipitem-58">
                    <name>Failure.055.png</name>
                    <masterclipid>masterclip-57</masterclipid>
                    <rate>
                      <timebase>24</timebase>
                      <ntsc>FALSE</ntsc>
                    </rate>
                    <alphatype>straight</alphatype>
                    <pixelaspectratio>square</pixelaspectratio>
                    <anamorphic>FALSE</anamorphic>
                    <file id="file-57">
                      <name>Failure.055.png</name>
                      <pathurl>file://localhost/Users/antoniochiappetta/OneDrive - Aalto University/University/Aalto/Hackatons/Junction/Character Animations/Animations/Failure/Failure.055.png</pathurl>
                      <rate>
                        <timebase>24</timebase>
                        <ntsc>FALSE</ntsc>
                      </rate>
                      <duration>137</duration>
                      <timecode>
                        <rate>
                          <timebase>24</timebase>
                          <ntsc>FALSE</ntsc>
                        </rate>
                      </timecode>
                      <media>
                        <video>
                          <duration>1</duration>
                          <samplecharacteristics>
                            <anamorphic>FALSE</anamorphic>
                            <pixelaspectratio>square</pixelaspectratio>
                            <fielddominance>none</fielddominance>
                            <width>1920</width>
                            <height>1080</height>
                          </samplecharacteristics>
                        </video>
                      </media>
                    </file>
                  </clipitem>
                </track>
              </video>
            </media>
          </clip>
          <clip explodedTracks="true" frameBlend="FALSE" id="masterclip-58">
            <uuid>b7df827e-e179-4165-8fe9-c4d6affbe0b4</uuid>
            <masterclipid>masterclip-58</masterclipid>
            <ismasterclip>TRUE</ismasterclip>
            <duration>137</duration>
            <in>0</in>
            <out>137</out>
            <name>Failure.056.png</name>
            <rate>
              <timebase>24</timebase>
              <ntsc>FALSE</ntsc>
            </rate>
            <media>
              <video>
                <track>
                  <clipitem frameBlend="FALSE" id="clipitem-59">
                    <name>Failure.056.png</name>
                    <masterclipid>masterclip-58</masterclipid>
                    <rate>
                      <timebase>24</timebase>
                      <ntsc>FALSE</ntsc>
                    </rate>
                    <alphatype>straight</alphatype>
                    <pixelaspectratio>square</pixelaspectratio>
                    <anamorphic>FALSE</anamorphic>
                    <file id="file-58">
                      <name>Failure.056.png</name>
                      <pathurl>file://localhost/Users/antoniochiappetta/OneDrive - Aalto University/University/Aalto/Hackatons/Junction/Character Animations/Animations/Failure/Failure.056.png</pathurl>
                      <rate>
                        <timebase>24</timebase>
                        <ntsc>FALSE</ntsc>
                      </rate>
                      <duration>137</duration>
                      <timecode>
                        <rate>
                          <timebase>24</timebase>
                          <ntsc>FALSE</ntsc>
                        </rate>
                      </timecode>
                      <media>
                        <video>
                          <duration>1</duration>
                          <samplecharacteristics>
                            <anamorphic>FALSE</anamorphic>
                            <pixelaspectratio>square</pixelaspectratio>
                            <fielddominance>none</fielddominance>
                            <width>1920</width>
                            <height>1080</height>
                          </samplecharacteristics>
                        </video>
                      </media>
                    </file>
                  </clipitem>
                </track>
              </video>
            </media>
          </clip>
          <clip explodedTracks="true" frameBlend="FALSE" id="masterclip-59">
            <uuid>8af76fb6-13ff-4de6-a405-e5c3fbf0aec5</uuid>
            <masterclipid>masterclip-59</masterclipid>
            <ismasterclip>TRUE</ismasterclip>
            <duration>137</duration>
            <in>0</in>
            <out>137</out>
            <name>Failure.057.png</name>
            <rate>
              <timebase>24</timebase>
              <ntsc>FALSE</ntsc>
            </rate>
            <media>
              <video>
                <track>
                  <clipitem frameBlend="FALSE" id="clipitem-60">
                    <name>Failure.057.png</name>
                    <masterclipid>masterclip-59</masterclipid>
                    <rate>
                      <timebase>24</timebase>
                      <ntsc>FALSE</ntsc>
                    </rate>
                    <alphatype>straight</alphatype>
                    <pixelaspectratio>square</pixelaspectratio>
                    <anamorphic>FALSE</anamorphic>
                    <file id="file-59">
                      <name>Failure.057.png</name>
                      <pathurl>file://localhost/Users/antoniochiappetta/OneDrive - Aalto University/University/Aalto/Hackatons/Junction/Character Animations/Animations/Failure/Failure.057.png</pathurl>
                      <rate>
                        <timebase>24</timebase>
                        <ntsc>FALSE</ntsc>
                      </rate>
                      <duration>137</duration>
                      <timecode>
                        <rate>
                          <timebase>24</timebase>
                          <ntsc>FALSE</ntsc>
                        </rate>
                      </timecode>
                      <media>
                        <video>
                          <duration>1</duration>
                          <samplecharacteristics>
                            <anamorphic>FALSE</anamorphic>
                            <pixelaspectratio>square</pixelaspectratio>
                            <fielddominance>none</fielddominance>
                            <width>1920</width>
                            <height>1080</height>
                          </samplecharacteristics>
                        </video>
                      </media>
                    </file>
                  </clipitem>
                </track>
              </video>
            </media>
          </clip>
          <clip explodedTracks="true" frameBlend="FALSE" id="masterclip-60">
            <uuid>1ffaa2de-a28d-4f03-bda7-2065d607c8d7</uuid>
            <masterclipid>masterclip-60</masterclipid>
            <ismasterclip>TRUE</ismasterclip>
            <duration>137</duration>
            <in>0</in>
            <out>137</out>
            <name>Failure.058.png</name>
            <rate>
              <timebase>24</timebase>
              <ntsc>FALSE</ntsc>
            </rate>
            <media>
              <video>
                <track>
                  <clipitem frameBlend="FALSE" id="clipitem-61">
                    <name>Failure.058.png</name>
                    <masterclipid>masterclip-60</masterclipid>
                    <rate>
                      <timebase>24</timebase>
                      <ntsc>FALSE</ntsc>
                    </rate>
                    <alphatype>straight</alphatype>
                    <pixelaspectratio>square</pixelaspectratio>
                    <anamorphic>FALSE</anamorphic>
                    <file id="file-60">
                      <name>Failure.058.png</name>
                      <pathurl>file://localhost/Users/antoniochiappetta/OneDrive - Aalto University/University/Aalto/Hackatons/Junction/Character Animations/Animations/Failure/Failure.058.png</pathurl>
                      <rate>
                        <timebase>24</timebase>
                        <ntsc>FALSE</ntsc>
                      </rate>
                      <duration>137</duration>
                      <timecode>
                        <rate>
                          <timebase>24</timebase>
                          <ntsc>FALSE</ntsc>
                        </rate>
                      </timecode>
                      <media>
                        <video>
                          <duration>1</duration>
                          <samplecharacteristics>
                            <anamorphic>FALSE</anamorphic>
                            <pixelaspectratio>square</pixelaspectratio>
                            <fielddominance>none</fielddominance>
                            <width>1920</width>
                            <height>1080</height>
                          </samplecharacteristics>
                        </video>
                      </media>
                    </file>
                  </clipitem>
                </track>
              </video>
            </media>
          </clip>
          <clip explodedTracks="true" frameBlend="FALSE" id="masterclip-61">
            <uuid>6c673a2a-4f16-4de8-b4a1-ecde869914af</uuid>
            <masterclipid>masterclip-61</masterclipid>
            <ismasterclip>TRUE</ismasterclip>
            <duration>137</duration>
            <in>0</in>
            <out>137</out>
            <name>Failure.059.png</name>
            <rate>
              <timebase>24</timebase>
              <ntsc>FALSE</ntsc>
            </rate>
            <media>
              <video>
                <track>
                  <clipitem frameBlend="FALSE" id="clipitem-62">
                    <name>Failure.059.png</name>
                    <masterclipid>masterclip-61</masterclipid>
                    <rate>
                      <timebase>24</timebase>
                      <ntsc>FALSE</ntsc>
                    </rate>
                    <alphatype>straight</alphatype>
                    <pixelaspectratio>square</pixelaspectratio>
                    <anamorphic>FALSE</anamorphic>
                    <file id="file-61">
                      <name>Failure.059.png</name>
                      <pathurl>file://localhost/Users/antoniochiappetta/OneDrive - Aalto University/University/Aalto/Hackatons/Junction/Character Animations/Animations/Failure/Failure.059.png</pathurl>
                      <rate>
                        <timebase>24</timebase>
                        <ntsc>FALSE</ntsc>
                      </rate>
                      <duration>137</duration>
                      <timecode>
                        <rate>
                          <timebase>24</timebase>
                          <ntsc>FALSE</ntsc>
                        </rate>
                      </timecode>
                      <media>
                        <video>
                          <duration>1</duration>
                          <samplecharacteristics>
                            <anamorphic>FALSE</anamorphic>
                            <pixelaspectratio>square</pixelaspectratio>
                            <fielddominance>none</fielddominance>
                            <width>1920</width>
                            <height>1080</height>
                          </samplecharacteristics>
                        </video>
                      </media>
                    </file>
                  </clipitem>
                </track>
              </video>
            </media>
          </clip>
          <clip explodedTracks="true" frameBlend="FALSE" id="masterclip-62">
            <uuid>33ae7a9e-4dd9-4be7-9990-79f1e7cc6b24</uuid>
            <masterclipid>masterclip-62</masterclipid>
            <ismasterclip>TRUE</ismasterclip>
            <duration>137</duration>
            <in>0</in>
            <out>137</out>
            <name>Failure.060.png</name>
            <rate>
              <timebase>24</timebase>
              <ntsc>FALSE</ntsc>
            </rate>
            <media>
              <video>
                <track>
                  <clipitem frameBlend="FALSE" id="clipitem-63">
                    <name>Failure.060.png</name>
                    <masterclipid>masterclip-62</masterclipid>
                    <rate>
                      <timebase>24</timebase>
                      <ntsc>FALSE</ntsc>
                    </rate>
                    <alphatype>straight</alphatype>
                    <pixelaspectratio>square</pixelaspectratio>
                    <anamorphic>FALSE</anamorphic>
                    <file id="file-62">
                      <name>Failure.060.png</name>
                      <pathurl>file://localhost/Users/antoniochiappetta/OneDrive - Aalto University/University/Aalto/Hackatons/Junction/Character Animations/Animations/Failure/Failure.060.png</pathurl>
                      <rate>
                        <timebase>24</timebase>
                        <ntsc>FALSE</ntsc>
                      </rate>
                      <duration>137</duration>
                      <timecode>
                        <rate>
                          <timebase>24</timebase>
                          <ntsc>FALSE</ntsc>
                        </rate>
                      </timecode>
                      <media>
                        <video>
                          <duration>1</duration>
                          <samplecharacteristics>
                            <anamorphic>FALSE</anamorphic>
                            <pixelaspectratio>square</pixelaspectratio>
                            <fielddominance>none</fielddominance>
                            <width>1920</width>
                            <height>1080</height>
                          </samplecharacteristics>
                        </video>
                      </media>
                    </file>
                  </clipitem>
                </track>
              </video>
            </media>
          </clip>
          <clip explodedTracks="true" frameBlend="FALSE" id="masterclip-63">
            <uuid>07819df4-c798-4fe7-9c6a-b0e7d01dcd1a</uuid>
            <masterclipid>masterclip-63</masterclipid>
            <ismasterclip>TRUE</ismasterclip>
            <duration>137</duration>
            <in>0</in>
            <out>137</out>
            <name>Failure.061.png</name>
            <rate>
              <timebase>24</timebase>
              <ntsc>FALSE</ntsc>
            </rate>
            <media>
              <video>
                <track>
                  <clipitem frameBlend="FALSE" id="clipitem-64">
                    <name>Failure.061.png</name>
                    <masterclipid>masterclip-63</masterclipid>
                    <rate>
                      <timebase>24</timebase>
                      <ntsc>FALSE</ntsc>
                    </rate>
                    <alphatype>straight</alphatype>
                    <pixelaspectratio>square</pixelaspectratio>
                    <anamorphic>FALSE</anamorphic>
                    <file id="file-63">
                      <name>Failure.061.png</name>
                      <pathurl>file://localhost/Users/antoniochiappetta/OneDrive - Aalto University/University/Aalto/Hackatons/Junction/Character Animations/Animations/Failure/Failure.061.png</pathurl>
                      <rate>
                        <timebase>24</timebase>
                        <ntsc>FALSE</ntsc>
                      </rate>
                      <duration>137</duration>
                      <timecode>
                        <rate>
                          <timebase>24</timebase>
                          <ntsc>FALSE</ntsc>
                        </rate>
                      </timecode>
                      <media>
                        <video>
                          <duration>1</duration>
                          <samplecharacteristics>
                            <anamorphic>FALSE</anamorphic>
                            <pixelaspectratio>square</pixelaspectratio>
                            <fielddominance>none</fielddominance>
                            <width>1920</width>
                            <height>1080</height>
                          </samplecharacteristics>
                        </video>
                      </media>
                    </file>
                  </clipitem>
                </track>
              </video>
            </media>
          </clip>
          <clip explodedTracks="true" frameBlend="FALSE" id="masterclip-64">
            <uuid>87231f67-0150-43bd-8412-9e5e6d04d9d5</uuid>
            <masterclipid>masterclip-64</masterclipid>
            <ismasterclip>TRUE</ismasterclip>
            <duration>137</duration>
            <in>0</in>
            <out>137</out>
            <name>Failure.062.png</name>
            <rate>
              <timebase>24</timebase>
              <ntsc>FALSE</ntsc>
            </rate>
            <media>
              <video>
                <track>
                  <clipitem frameBlend="FALSE" id="clipitem-65">
                    <name>Failure.062.png</name>
                    <masterclipid>masterclip-64</masterclipid>
                    <rate>
                      <timebase>24</timebase>
                      <ntsc>FALSE</ntsc>
                    </rate>
                    <alphatype>straight</alphatype>
                    <pixelaspectratio>square</pixelaspectratio>
                    <anamorphic>FALSE</anamorphic>
                    <file id="file-64">
                      <name>Failure.062.png</name>
                      <pathurl>file://localhost/Users/antoniochiappetta/OneDrive - Aalto University/University/Aalto/Hackatons/Junction/Character Animations/Animations/Failure/Failure.062.png</pathurl>
                      <rate>
                        <timebase>24</timebase>
                        <ntsc>FALSE</ntsc>
                      </rate>
                      <duration>137</duration>
                      <timecode>
                        <rate>
                          <timebase>24</timebase>
                          <ntsc>FALSE</ntsc>
                        </rate>
                      </timecode>
                      <media>
                        <video>
                          <duration>1</duration>
                          <samplecharacteristics>
                            <anamorphic>FALSE</anamorphic>
                            <pixelaspectratio>square</pixelaspectratio>
                            <fielddominance>none</fielddominance>
                            <width>1920</width>
                            <height>1080</height>
                          </samplecharacteristics>
                        </video>
                      </media>
                    </file>
                  </clipitem>
                </track>
              </video>
            </media>
          </clip>
          <clip explodedTracks="true" frameBlend="FALSE" id="masterclip-65">
            <uuid>b47475a9-7cc0-47d1-8821-8e449d9893f0</uuid>
            <masterclipid>masterclip-65</masterclipid>
            <ismasterclip>TRUE</ismasterclip>
            <duration>137</duration>
            <in>0</in>
            <out>137</out>
            <name>Failure.063.png</name>
            <rate>
              <timebase>24</timebase>
              <ntsc>FALSE</ntsc>
            </rate>
            <media>
              <video>
                <track>
                  <clipitem frameBlend="FALSE" id="clipitem-66">
                    <name>Failure.063.png</name>
                    <masterclipid>masterclip-65</masterclipid>
                    <rate>
                      <timebase>24</timebase>
                      <ntsc>FALSE</ntsc>
                    </rate>
                    <alphatype>straight</alphatype>
                    <pixelaspectratio>square</pixelaspectratio>
                    <anamorphic>FALSE</anamorphic>
                    <file id="file-65">
                      <name>Failure.063.png</name>
                      <pathurl>file://localhost/Users/antoniochiappetta/OneDrive - Aalto University/University/Aalto/Hackatons/Junction/Character Animations/Animations/Failure/Failure.063.png</pathurl>
                      <rate>
                        <timebase>24</timebase>
                        <ntsc>FALSE</ntsc>
                      </rate>
                      <duration>137</duration>
                      <timecode>
                        <rate>
                          <timebase>24</timebase>
                          <ntsc>FALSE</ntsc>
                        </rate>
                      </timecode>
                      <media>
                        <video>
                          <duration>1</duration>
                          <samplecharacteristics>
                            <anamorphic>FALSE</anamorphic>
                            <pixelaspectratio>square</pixelaspectratio>
                            <fielddominance>none</fielddominance>
                            <width>1920</width>
                            <height>1080</height>
                          </samplecharacteristics>
                        </video>
                      </media>
                    </file>
                  </clipitem>
                </track>
              </video>
            </media>
          </clip>
          <clip explodedTracks="true" frameBlend="FALSE" id="masterclip-66">
            <uuid>39651b22-0927-4bce-a327-42119e6fe748</uuid>
            <masterclipid>masterclip-66</masterclipid>
            <ismasterclip>TRUE</ismasterclip>
            <duration>137</duration>
            <in>0</in>
            <out>137</out>
            <name>Failure.064.png</name>
            <rate>
              <timebase>24</timebase>
              <ntsc>FALSE</ntsc>
            </rate>
            <media>
              <video>
                <track>
                  <clipitem frameBlend="FALSE" id="clipitem-67">
                    <name>Failure.064.png</name>
                    <masterclipid>masterclip-66</masterclipid>
                    <rate>
                      <timebase>24</timebase>
                      <ntsc>FALSE</ntsc>
                    </rate>
                    <alphatype>straight</alphatype>
                    <pixelaspectratio>square</pixelaspectratio>
                    <anamorphic>FALSE</anamorphic>
                    <file id="file-66">
                      <name>Failure.064.png</name>
                      <pathurl>file://localhost/Users/antoniochiappetta/OneDrive - Aalto University/University/Aalto/Hackatons/Junction/Character Animations/Animations/Failure/Failure.064.png</pathurl>
                      <rate>
                        <timebase>24</timebase>
                        <ntsc>FALSE</ntsc>
                      </rate>
                      <duration>137</duration>
                      <timecode>
                        <rate>
                          <timebase>24</timebase>
                          <ntsc>FALSE</ntsc>
                        </rate>
                      </timecode>
                      <media>
                        <video>
                          <duration>1</duration>
                          <samplecharacteristics>
                            <anamorphic>FALSE</anamorphic>
                            <pixelaspectratio>square</pixelaspectratio>
                            <fielddominance>none</fielddominance>
                            <width>1920</width>
                            <height>1080</height>
                          </samplecharacteristics>
                        </video>
                      </media>
                    </file>
                  </clipitem>
                </track>
              </video>
            </media>
          </clip>
          <clip explodedTracks="true" frameBlend="FALSE" id="masterclip-67">
            <uuid>3976ac1d-3197-4a91-9dc1-e8f0193f8522</uuid>
            <masterclipid>masterclip-67</masterclipid>
            <ismasterclip>TRUE</ismasterclip>
            <duration>137</duration>
            <in>0</in>
            <out>137</out>
            <name>Failure.065.png</name>
            <rate>
              <timebase>24</timebase>
              <ntsc>FALSE</ntsc>
            </rate>
            <media>
              <video>
                <track>
                  <clipitem frameBlend="FALSE" id="clipitem-68">
                    <name>Failure.065.png</name>
                    <masterclipid>masterclip-67</masterclipid>
                    <rate>
                      <timebase>24</timebase>
                      <ntsc>FALSE</ntsc>
                    </rate>
                    <alphatype>straight</alphatype>
                    <pixelaspectratio>square</pixelaspectratio>
                    <anamorphic>FALSE</anamorphic>
                    <file id="file-67">
                      <name>Failure.065.png</name>
                      <pathurl>file://localhost/Users/antoniochiappetta/OneDrive - Aalto University/University/Aalto/Hackatons/Junction/Character Animations/Animations/Failure/Failure.065.png</pathurl>
                      <rate>
                        <timebase>24</timebase>
                        <ntsc>FALSE</ntsc>
                      </rate>
                      <duration>137</duration>
                      <timecode>
                        <rate>
                          <timebase>24</timebase>
                          <ntsc>FALSE</ntsc>
                        </rate>
                      </timecode>
                      <media>
                        <video>
                          <duration>1</duration>
                          <samplecharacteristics>
                            <anamorphic>FALSE</anamorphic>
                            <pixelaspectratio>square</pixelaspectratio>
                            <fielddominance>none</fielddominance>
                            <width>1920</width>
                            <height>1080</height>
                          </samplecharacteristics>
                        </video>
                      </media>
                    </file>
                  </clipitem>
                </track>
              </video>
            </media>
          </clip>
          <clip explodedTracks="true" frameBlend="FALSE" id="masterclip-68">
            <uuid>ca127754-a2dc-4cf9-ab15-759a1d28138d</uuid>
            <masterclipid>masterclip-68</masterclipid>
            <ismasterclip>TRUE</ismasterclip>
            <duration>137</duration>
            <in>0</in>
            <out>137</out>
            <name>Failure.066.png</name>
            <rate>
              <timebase>24</timebase>
              <ntsc>FALSE</ntsc>
            </rate>
            <media>
              <video>
                <track>
                  <clipitem frameBlend="FALSE" id="clipitem-69">
                    <name>Failure.066.png</name>
                    <masterclipid>masterclip-68</masterclipid>
                    <rate>
                      <timebase>24</timebase>
                      <ntsc>FALSE</ntsc>
                    </rate>
                    <alphatype>straight</alphatype>
                    <pixelaspectratio>square</pixelaspectratio>
                    <anamorphic>FALSE</anamorphic>
                    <file id="file-68">
                      <name>Failure.066.png</name>
                      <pathurl>file://localhost/Users/antoniochiappetta/OneDrive - Aalto University/University/Aalto/Hackatons/Junction/Character Animations/Animations/Failure/Failure.066.png</pathurl>
                      <rate>
                        <timebase>24</timebase>
                        <ntsc>FALSE</ntsc>
                      </rate>
                      <duration>137</duration>
                      <timecode>
                        <rate>
                          <timebase>24</timebase>
                          <ntsc>FALSE</ntsc>
                        </rate>
                      </timecode>
                      <media>
                        <video>
                          <duration>1</duration>
                          <samplecharacteristics>
                            <anamorphic>FALSE</anamorphic>
                            <pixelaspectratio>square</pixelaspectratio>
                            <fielddominance>none</fielddominance>
                            <width>1920</width>
                            <height>1080</height>
                          </samplecharacteristics>
                        </video>
                      </media>
                    </file>
                  </clipitem>
                </track>
              </video>
            </media>
          </clip>
          <clip explodedTracks="true" frameBlend="FALSE" id="masterclip-69">
            <uuid>a386eb34-caa5-42aa-89a7-59881754a90a</uuid>
            <masterclipid>masterclip-69</masterclipid>
            <ismasterclip>TRUE</ismasterclip>
            <duration>137</duration>
            <in>0</in>
            <out>137</out>
            <name>Failure.067.png</name>
            <rate>
              <timebase>24</timebase>
              <ntsc>FALSE</ntsc>
            </rate>
            <media>
              <video>
                <track>
                  <clipitem frameBlend="FALSE" id="clipitem-70">
                    <name>Failure.067.png</name>
                    <masterclipid>masterclip-69</masterclipid>
                    <rate>
                      <timebase>24</timebase>
                      <ntsc>FALSE</ntsc>
                    </rate>
                    <alphatype>straight</alphatype>
                    <pixelaspectratio>square</pixelaspectratio>
                    <anamorphic>FALSE</anamorphic>
                    <file id="file-69">
                      <name>Failure.067.png</name>
                      <pathurl>file://localhost/Users/antoniochiappetta/OneDrive - Aalto University/University/Aalto/Hackatons/Junction/Character Animations/Animations/Failure/Failure.067.png</pathurl>
                      <rate>
                        <timebase>24</timebase>
                        <ntsc>FALSE</ntsc>
                      </rate>
                      <duration>137</duration>
                      <timecode>
                        <rate>
                          <timebase>24</timebase>
                          <ntsc>FALSE</ntsc>
                        </rate>
                      </timecode>
                      <media>
                        <video>
                          <duration>1</duration>
                          <samplecharacteristics>
                            <anamorphic>FALSE</anamorphic>
                            <pixelaspectratio>square</pixelaspectratio>
                            <fielddominance>none</fielddominance>
                            <width>1920</width>
                            <height>1080</height>
                          </samplecharacteristics>
                        </video>
                      </media>
                    </file>
                  </clipitem>
                </track>
              </video>
            </media>
          </clip>
          <clip explodedTracks="true" frameBlend="FALSE" id="masterclip-70">
            <uuid>4a88a77e-49d5-48a8-9813-c1ba9fe5245b</uuid>
            <masterclipid>masterclip-70</masterclipid>
            <ismasterclip>TRUE</ismasterclip>
            <duration>137</duration>
            <in>0</in>
            <out>137</out>
            <name>Failure.068.png</name>
            <rate>
              <timebase>24</timebase>
              <ntsc>FALSE</ntsc>
            </rate>
            <media>
              <video>
                <track>
                  <clipitem frameBlend="FALSE" id="clipitem-71">
                    <name>Failure.068.png</name>
                    <masterclipid>masterclip-70</masterclipid>
                    <rate>
                      <timebase>24</timebase>
                      <ntsc>FALSE</ntsc>
                    </rate>
                    <alphatype>straight</alphatype>
                    <pixelaspectratio>square</pixelaspectratio>
                    <anamorphic>FALSE</anamorphic>
                    <file id="file-70">
                      <name>Failure.068.png</name>
                      <pathurl>file://localhost/Users/antoniochiappetta/OneDrive - Aalto University/University/Aalto/Hackatons/Junction/Character Animations/Animations/Failure/Failure.068.png</pathurl>
                      <rate>
                        <timebase>24</timebase>
                        <ntsc>FALSE</ntsc>
                      </rate>
                      <duration>137</duration>
                      <timecode>
                        <rate>
                          <timebase>24</timebase>
                          <ntsc>FALSE</ntsc>
                        </rate>
                      </timecode>
                      <media>
                        <video>
                          <duration>1</duration>
                          <samplecharacteristics>
                            <anamorphic>FALSE</anamorphic>
                            <pixelaspectratio>square</pixelaspectratio>
                            <fielddominance>none</fielddominance>
                            <width>1920</width>
                            <height>1080</height>
                          </samplecharacteristics>
                        </video>
                      </media>
                    </file>
                  </clipitem>
                </track>
              </video>
            </media>
          </clip>
          <clip explodedTracks="true" frameBlend="FALSE" id="masterclip-71">
            <uuid>4bebd335-e62d-4132-bbc2-4c2da14f428b</uuid>
            <masterclipid>masterclip-71</masterclipid>
            <ismasterclip>TRUE</ismasterclip>
            <duration>137</duration>
            <in>0</in>
            <out>137</out>
            <name>Failure.069.png</name>
            <rate>
              <timebase>24</timebase>
              <ntsc>FALSE</ntsc>
            </rate>
            <media>
              <video>
                <track>
                  <clipitem frameBlend="FALSE" id="clipitem-72">
                    <name>Failure.069.png</name>
                    <masterclipid>masterclip-71</masterclipid>
                    <rate>
                      <timebase>24</timebase>
                      <ntsc>FALSE</ntsc>
                    </rate>
                    <alphatype>straight</alphatype>
                    <pixelaspectratio>square</pixelaspectratio>
                    <anamorphic>FALSE</anamorphic>
                    <file id="file-71">
                      <name>Failure.069.png</name>
                      <pathurl>file://localhost/Users/antoniochiappetta/OneDrive - Aalto University/University/Aalto/Hackatons/Junction/Character Animations/Animations/Failure/Failure.069.png</pathurl>
                      <rate>
                        <timebase>24</timebase>
                        <ntsc>FALSE</ntsc>
                      </rate>
                      <duration>137</duration>
                      <timecode>
                        <rate>
                          <timebase>24</timebase>
                          <ntsc>FALSE</ntsc>
                        </rate>
                      </timecode>
                      <media>
                        <video>
                          <duration>1</duration>
                          <samplecharacteristics>
                            <anamorphic>FALSE</anamorphic>
                            <pixelaspectratio>square</pixelaspectratio>
                            <fielddominance>none</fielddominance>
                            <width>1920</width>
                            <height>1080</height>
                          </samplecharacteristics>
                        </video>
                      </media>
                    </file>
                  </clipitem>
                </track>
              </video>
            </media>
          </clip>
          <clip explodedTracks="true" frameBlend="FALSE" id="masterclip-72">
            <uuid>320fe2e1-6495-4561-933a-7b2e9d981324</uuid>
            <masterclipid>masterclip-72</masterclipid>
            <ismasterclip>TRUE</ismasterclip>
            <duration>137</duration>
            <in>0</in>
            <out>137</out>
            <name>Failure.070.png</name>
            <rate>
              <timebase>24</timebase>
              <ntsc>FALSE</ntsc>
            </rate>
            <media>
              <video>
                <track>
                  <clipitem frameBlend="FALSE" id="clipitem-73">
                    <name>Failure.070.png</name>
                    <masterclipid>masterclip-72</masterclipid>
                    <rate>
                      <timebase>24</timebase>
                      <ntsc>FALSE</ntsc>
                    </rate>
                    <alphatype>straight</alphatype>
                    <pixelaspectratio>square</pixelaspectratio>
                    <anamorphic>FALSE</anamorphic>
                    <file id="file-72">
                      <name>Failure.070.png</name>
                      <pathurl>file://localhost/Users/antoniochiappetta/OneDrive - Aalto University/University/Aalto/Hackatons/Junction/Character Animations/Animations/Failure/Failure.070.png</pathurl>
                      <rate>
                        <timebase>24</timebase>
                        <ntsc>FALSE</ntsc>
                      </rate>
                      <duration>137</duration>
                      <timecode>
                        <rate>
                          <timebase>24</timebase>
                          <ntsc>FALSE</ntsc>
                        </rate>
                      </timecode>
                      <media>
                        <video>
                          <duration>1</duration>
                          <samplecharacteristics>
                            <anamorphic>FALSE</anamorphic>
                            <pixelaspectratio>square</pixelaspectratio>
                            <fielddominance>none</fielddominance>
                            <width>1920</width>
                            <height>1080</height>
                          </samplecharacteristics>
                        </video>
                      </media>
                    </file>
                  </clipitem>
                </track>
              </video>
            </media>
          </clip>
          <clip explodedTracks="true" frameBlend="FALSE" id="masterclip-73">
            <uuid>447eff59-fe85-487e-b41e-edaf3c7579e2</uuid>
            <masterclipid>masterclip-73</masterclipid>
            <ismasterclip>TRUE</ismasterclip>
            <duration>137</duration>
            <in>0</in>
            <out>137</out>
            <name>Failure.071.png</name>
            <rate>
              <timebase>24</timebase>
              <ntsc>FALSE</ntsc>
            </rate>
            <media>
              <video>
                <track>
                  <clipitem frameBlend="FALSE" id="clipitem-74">
                    <name>Failure.071.png</name>
                    <masterclipid>masterclip-73</masterclipid>
                    <rate>
                      <timebase>24</timebase>
                      <ntsc>FALSE</ntsc>
                    </rate>
                    <alphatype>straight</alphatype>
                    <pixelaspectratio>square</pixelaspectratio>
                    <anamorphic>FALSE</anamorphic>
                    <file id="file-73">
                      <name>Failure.071.png</name>
                      <pathurl>file://localhost/Users/antoniochiappetta/OneDrive - Aalto University/University/Aalto/Hackatons/Junction/Character Animations/Animations/Failure/Failure.071.png</pathurl>
                      <rate>
                        <timebase>24</timebase>
                        <ntsc>FALSE</ntsc>
                      </rate>
                      <duration>137</duration>
                      <timecode>
                        <rate>
                          <timebase>24</timebase>
                          <ntsc>FALSE</ntsc>
                        </rate>
                      </timecode>
                      <media>
                        <video>
                          <duration>1</duration>
                          <samplecharacteristics>
                            <anamorphic>FALSE</anamorphic>
                            <pixelaspectratio>square</pixelaspectratio>
                            <fielddominance>none</fielddominance>
                            <width>1920</width>
                            <height>1080</height>
                          </samplecharacteristics>
                        </video>
                      </media>
                    </file>
                  </clipitem>
                </track>
              </video>
            </media>
          </clip>
          <clip explodedTracks="true" frameBlend="FALSE" id="masterclip-74">
            <uuid>40e33824-dd4b-4aea-a76a-c911e6fc99fd</uuid>
            <masterclipid>masterclip-74</masterclipid>
            <ismasterclip>TRUE</ismasterclip>
            <duration>137</duration>
            <in>0</in>
            <out>137</out>
            <name>Failure.072.png</name>
            <rate>
              <timebase>24</timebase>
              <ntsc>FALSE</ntsc>
            </rate>
            <media>
              <video>
                <track>
                  <clipitem frameBlend="FALSE" id="clipitem-75">
                    <name>Failure.072.png</name>
                    <masterclipid>masterclip-74</masterclipid>
                    <rate>
                      <timebase>24</timebase>
                      <ntsc>FALSE</ntsc>
                    </rate>
                    <alphatype>straight</alphatype>
                    <pixelaspectratio>square</pixelaspectratio>
                    <anamorphic>FALSE</anamorphic>
                    <file id="file-74">
                      <name>Failure.072.png</name>
                      <pathurl>file://localhost/Users/antoniochiappetta/OneDrive - Aalto University/University/Aalto/Hackatons/Junction/Character Animations/Animations/Failure/Failure.072.png</pathurl>
                      <rate>
                        <timebase>24</timebase>
                        <ntsc>FALSE</ntsc>
                      </rate>
                      <duration>137</duration>
                      <timecode>
                        <rate>
                          <timebase>24</timebase>
                          <ntsc>FALSE</ntsc>
                        </rate>
                      </timecode>
                      <media>
                        <video>
                          <duration>1</duration>
                          <samplecharacteristics>
                            <anamorphic>FALSE</anamorphic>
                            <pixelaspectratio>square</pixelaspectratio>
                            <fielddominance>none</fielddominance>
                            <width>1920</width>
                            <height>1080</height>
                          </samplecharacteristics>
                        </video>
                      </media>
                    </file>
                  </clipitem>
                </track>
              </video>
            </media>
          </clip>
          <clip explodedTracks="true" frameBlend="FALSE" id="masterclip-75">
            <uuid>198d1518-4d0d-43b4-8c5c-7c956209d2d7</uuid>
            <masterclipid>masterclip-75</masterclipid>
            <ismasterclip>TRUE</ismasterclip>
            <duration>137</duration>
            <in>0</in>
            <out>137</out>
            <name>Failure.073.png</name>
            <rate>
              <timebase>24</timebase>
              <ntsc>FALSE</ntsc>
            </rate>
            <media>
              <video>
                <track>
                  <clipitem frameBlend="FALSE" id="clipitem-76">
                    <name>Failure.073.png</name>
                    <masterclipid>masterclip-75</masterclipid>
                    <rate>
                      <timebase>24</timebase>
                      <ntsc>FALSE</ntsc>
                    </rate>
                    <alphatype>straight</alphatype>
                    <pixelaspectratio>square</pixelaspectratio>
                    <anamorphic>FALSE</anamorphic>
                    <file id="file-75">
                      <name>Failure.073.png</name>
                      <pathurl>file://localhost/Users/antoniochiappetta/OneDrive - Aalto University/University/Aalto/Hackatons/Junction/Character Animations/Animations/Failure/Failure.073.png</pathurl>
                      <rate>
                        <timebase>24</timebase>
                        <ntsc>FALSE</ntsc>
                      </rate>
                      <duration>137</duration>
                      <timecode>
                        <rate>
                          <timebase>24</timebase>
                          <ntsc>FALSE</ntsc>
                        </rate>
                      </timecode>
                      <media>
                        <video>
                          <duration>1</duration>
                          <samplecharacteristics>
                            <anamorphic>FALSE</anamorphic>
                            <pixelaspectratio>square</pixelaspectratio>
                            <fielddominance>none</fielddominance>
                            <width>1920</width>
                            <height>1080</height>
                          </samplecharacteristics>
                        </video>
                      </media>
                    </file>
                  </clipitem>
                </track>
              </video>
            </media>
          </clip>
          <clip explodedTracks="true" frameBlend="FALSE" id="masterclip-76">
            <uuid>96d77258-1d8a-4c0c-a941-0a4d7a66a317</uuid>
            <masterclipid>masterclip-76</masterclipid>
            <ismasterclip>TRUE</ismasterclip>
            <duration>137</duration>
            <in>0</in>
            <out>137</out>
            <name>Failure.074.png</name>
            <rate>
              <timebase>24</timebase>
              <ntsc>FALSE</ntsc>
            </rate>
            <media>
              <video>
                <track>
                  <clipitem frameBlend="FALSE" id="clipitem-77">
                    <name>Failure.074.png</name>
                    <masterclipid>masterclip-76</masterclipid>
                    <rate>
                      <timebase>24</timebase>
                      <ntsc>FALSE</ntsc>
                    </rate>
                    <alphatype>straight</alphatype>
                    <pixelaspectratio>square</pixelaspectratio>
                    <anamorphic>FALSE</anamorphic>
                    <file id="file-76">
                      <name>Failure.074.png</name>
                      <pathurl>file://localhost/Users/antoniochiappetta/OneDrive - Aalto University/University/Aalto/Hackatons/Junction/Character Animations/Animations/Failure/Failure.074.png</pathurl>
                      <rate>
                        <timebase>24</timebase>
                        <ntsc>FALSE</ntsc>
                      </rate>
                      <duration>137</duration>
                      <timecode>
                        <rate>
                          <timebase>24</timebase>
                          <ntsc>FALSE</ntsc>
                        </rate>
                      </timecode>
                      <media>
                        <video>
                          <duration>1</duration>
                          <samplecharacteristics>
                            <anamorphic>FALSE</anamorphic>
                            <pixelaspectratio>square</pixelaspectratio>
                            <fielddominance>none</fielddominance>
                            <width>1920</width>
                            <height>1080</height>
                          </samplecharacteristics>
                        </video>
                      </media>
                    </file>
                  </clipitem>
                </track>
              </video>
            </media>
          </clip>
          <clip explodedTracks="true" frameBlend="FALSE" id="masterclip-77">
            <uuid>23346f9d-b024-47ac-a91b-3d11d199aa54</uuid>
            <masterclipid>masterclip-77</masterclipid>
            <ismasterclip>TRUE</ismasterclip>
            <duration>137</duration>
            <in>0</in>
            <out>137</out>
            <name>Failure.075.png</name>
            <rate>
              <timebase>24</timebase>
              <ntsc>FALSE</ntsc>
            </rate>
            <media>
              <video>
                <track>
                  <clipitem frameBlend="FALSE" id="clipitem-78">
                    <name>Failure.075.png</name>
                    <masterclipid>masterclip-77</masterclipid>
                    <rate>
                      <timebase>24</timebase>
                      <ntsc>FALSE</ntsc>
                    </rate>
                    <alphatype>straight</alphatype>
                    <pixelaspectratio>square</pixelaspectratio>
                    <anamorphic>FALSE</anamorphic>
                    <file id="file-77">
                      <name>Failure.075.png</name>
                      <pathurl>file://localhost/Users/antoniochiappetta/OneDrive - Aalto University/University/Aalto/Hackatons/Junction/Character Animations/Animations/Failure/Failure.075.png</pathurl>
                      <rate>
                        <timebase>24</timebase>
                        <ntsc>FALSE</ntsc>
                      </rate>
                      <duration>137</duration>
                      <timecode>
                        <rate>
                          <timebase>24</timebase>
                          <ntsc>FALSE</ntsc>
                        </rate>
                      </timecode>
                      <media>
                        <video>
                          <duration>1</duration>
                          <samplecharacteristics>
                            <anamorphic>FALSE</anamorphic>
                            <pixelaspectratio>square</pixelaspectratio>
                            <fielddominance>none</fielddominance>
                            <width>1920</width>
                            <height>1080</height>
                          </samplecharacteristics>
                        </video>
                      </media>
                    </file>
                  </clipitem>
                </track>
              </video>
            </media>
          </clip>
          <clip explodedTracks="true" frameBlend="FALSE" id="masterclip-78">
            <uuid>6c765f69-2685-40ac-b78f-c6d86786a860</uuid>
            <masterclipid>masterclip-78</masterclipid>
            <ismasterclip>TRUE</ismasterclip>
            <duration>137</duration>
            <in>0</in>
            <out>137</out>
            <name>Failure.076.png</name>
            <rate>
              <timebase>24</timebase>
              <ntsc>FALSE</ntsc>
            </rate>
            <media>
              <video>
                <track>
                  <clipitem frameBlend="FALSE" id="clipitem-79">
                    <name>Failure.076.png</name>
                    <masterclipid>masterclip-78</masterclipid>
                    <rate>
                      <timebase>24</timebase>
                      <ntsc>FALSE</ntsc>
                    </rate>
                    <alphatype>straight</alphatype>
                    <pixelaspectratio>square</pixelaspectratio>
                    <anamorphic>FALSE</anamorphic>
                    <file id="file-78">
                      <name>Failure.076.png</name>
                      <pathurl>file://localhost/Users/antoniochiappetta/OneDrive - Aalto University/University/Aalto/Hackatons/Junction/Character Animations/Animations/Failure/Failure.076.png</pathurl>
                      <rate>
                        <timebase>24</timebase>
                        <ntsc>FALSE</ntsc>
                      </rate>
                      <duration>137</duration>
                      <timecode>
                        <rate>
                          <timebase>24</timebase>
                          <ntsc>FALSE</ntsc>
                        </rate>
                      </timecode>
                      <media>
                        <video>
                          <duration>1</duration>
                          <samplecharacteristics>
                            <anamorphic>FALSE</anamorphic>
                            <pixelaspectratio>square</pixelaspectratio>
                            <fielddominance>none</fielddominance>
                            <width>1920</width>
                            <height>1080</height>
                          </samplecharacteristics>
                        </video>
                      </media>
                    </file>
                  </clipitem>
                </track>
              </video>
            </media>
          </clip>
          <clip explodedTracks="true" frameBlend="FALSE" id="masterclip-79">
            <uuid>d6a40713-20dc-499e-ae56-c6794f01e7fd</uuid>
            <masterclipid>masterclip-79</masterclipid>
            <ismasterclip>TRUE</ismasterclip>
            <duration>137</duration>
            <in>0</in>
            <out>137</out>
            <name>Failure.077.png</name>
            <rate>
              <timebase>24</timebase>
              <ntsc>FALSE</ntsc>
            </rate>
            <media>
              <video>
                <track>
                  <clipitem frameBlend="FALSE" id="clipitem-80">
                    <name>Failure.077.png</name>
                    <masterclipid>masterclip-79</masterclipid>
                    <rate>
                      <timebase>24</timebase>
                      <ntsc>FALSE</ntsc>
                    </rate>
                    <alphatype>straight</alphatype>
                    <pixelaspectratio>square</pixelaspectratio>
                    <anamorphic>FALSE</anamorphic>
                    <file id="file-79">
                      <name>Failure.077.png</name>
                      <pathurl>file://localhost/Users/antoniochiappetta/OneDrive - Aalto University/University/Aalto/Hackatons/Junction/Character Animations/Animations/Failure/Failure.077.png</pathurl>
                      <rate>
                        <timebase>24</timebase>
                        <ntsc>FALSE</ntsc>
                      </rate>
                      <duration>137</duration>
                      <timecode>
                        <rate>
                          <timebase>24</timebase>
                          <ntsc>FALSE</ntsc>
                        </rate>
                      </timecode>
                      <media>
                        <video>
                          <duration>1</duration>
                          <samplecharacteristics>
                            <anamorphic>FALSE</anamorphic>
                            <pixelaspectratio>square</pixelaspectratio>
                            <fielddominance>none</fielddominance>
                            <width>1920</width>
                            <height>1080</height>
                          </samplecharacteristics>
                        </video>
                      </media>
                    </file>
                  </clipitem>
                </track>
              </video>
            </media>
          </clip>
          <clip explodedTracks="true" frameBlend="FALSE" id="masterclip-80">
            <uuid>1d1d7cad-d415-4022-a275-bcd05cb42c0b</uuid>
            <masterclipid>masterclip-80</masterclipid>
            <ismasterclip>TRUE</ismasterclip>
            <duration>137</duration>
            <in>0</in>
            <out>137</out>
            <name>Failure.078.png</name>
            <rate>
              <timebase>24</timebase>
              <ntsc>FALSE</ntsc>
            </rate>
            <media>
              <video>
                <track>
                  <clipitem frameBlend="FALSE" id="clipitem-81">
                    <name>Failure.078.png</name>
                    <masterclipid>masterclip-80</masterclipid>
                    <rate>
                      <timebase>24</timebase>
                      <ntsc>FALSE</ntsc>
                    </rate>
                    <alphatype>straight</alphatype>
                    <pixelaspectratio>square</pixelaspectratio>
                    <anamorphic>FALSE</anamorphic>
                    <file id="file-80">
                      <name>Failure.078.png</name>
                      <pathurl>file://localhost/Users/antoniochiappetta/OneDrive - Aalto University/University/Aalto/Hackatons/Junction/Character Animations/Animations/Failure/Failure.078.png</pathurl>
                      <rate>
                        <timebase>24</timebase>
                        <ntsc>FALSE</ntsc>
                      </rate>
                      <duration>137</duration>
                      <timecode>
                        <rate>
                          <timebase>24</timebase>
                          <ntsc>FALSE</ntsc>
                        </rate>
                      </timecode>
                      <media>
                        <video>
                          <duration>1</duration>
                          <samplecharacteristics>
                            <anamorphic>FALSE</anamorphic>
                            <pixelaspectratio>square</pixelaspectratio>
                            <fielddominance>none</fielddominance>
                            <width>1920</width>
                            <height>1080</height>
                          </samplecharacteristics>
                        </video>
                      </media>
                    </file>
                  </clipitem>
                </track>
              </video>
            </media>
          </clip>
          <clip explodedTracks="true" frameBlend="FALSE" id="masterclip-81">
            <uuid>6f14e590-2229-4313-8e27-16950c92c412</uuid>
            <masterclipid>masterclip-81</masterclipid>
            <ismasterclip>TRUE</ismasterclip>
            <duration>137</duration>
            <in>0</in>
            <out>137</out>
            <name>Failure.079.png</name>
            <rate>
              <timebase>24</timebase>
              <ntsc>FALSE</ntsc>
            </rate>
            <media>
              <video>
                <track>
                  <clipitem frameBlend="FALSE" id="clipitem-82">
                    <name>Failure.079.png</name>
                    <masterclipid>masterclip-81</masterclipid>
                    <rate>
                      <timebase>24</timebase>
                      <ntsc>FALSE</ntsc>
                    </rate>
                    <alphatype>straight</alphatype>
                    <pixelaspectratio>square</pixelaspectratio>
                    <anamorphic>FALSE</anamorphic>
                    <file id="file-81">
                      <name>Failure.079.png</name>
                      <pathurl>file://localhost/Users/antoniochiappetta/OneDrive - Aalto University/University/Aalto/Hackatons/Junction/Character Animations/Animations/Failure/Failure.079.png</pathurl>
                      <rate>
                        <timebase>24</timebase>
                        <ntsc>FALSE</ntsc>
                      </rate>
                      <duration>137</duration>
                      <timecode>
                        <rate>
                          <timebase>24</timebase>
                          <ntsc>FALSE</ntsc>
                        </rate>
                      </timecode>
                      <media>
                        <video>
                          <duration>1</duration>
                          <samplecharacteristics>
                            <anamorphic>FALSE</anamorphic>
                            <pixelaspectratio>square</pixelaspectratio>
                            <fielddominance>none</fielddominance>
                            <width>1920</width>
                            <height>1080</height>
                          </samplecharacteristics>
                        </video>
                      </media>
                    </file>
                  </clipitem>
                </track>
              </video>
            </media>
          </clip>
          <clip explodedTracks="true" frameBlend="FALSE" id="masterclip-82">
            <uuid>c8cae0ce-49e0-4ee5-af31-0d4a295be2c6</uuid>
            <masterclipid>masterclip-82</masterclipid>
            <ismasterclip>TRUE</ismasterclip>
            <duration>137</duration>
            <in>0</in>
            <out>137</out>
            <name>Failure.080.png</name>
            <rate>
              <timebase>24</timebase>
              <ntsc>FALSE</ntsc>
            </rate>
            <media>
              <video>
                <track>
                  <clipitem frameBlend="FALSE" id="clipitem-83">
                    <name>Failure.080.png</name>
                    <masterclipid>masterclip-82</masterclipid>
                    <rate>
                      <timebase>24</timebase>
                      <ntsc>FALSE</ntsc>
                    </rate>
                    <alphatype>straight</alphatype>
                    <pixelaspectratio>square</pixelaspectratio>
                    <anamorphic>FALSE</anamorphic>
                    <file id="file-82">
                      <name>Failure.080.png</name>
                      <pathurl>file://localhost/Users/antoniochiappetta/OneDrive - Aalto University/University/Aalto/Hackatons/Junction/Character Animations/Animations/Failure/Failure.080.png</pathurl>
                      <rate>
                        <timebase>24</timebase>
                        <ntsc>FALSE</ntsc>
                      </rate>
                      <duration>137</duration>
                      <timecode>
                        <rate>
                          <timebase>24</timebase>
                          <ntsc>FALSE</ntsc>
                        </rate>
                      </timecode>
                      <media>
                        <video>
                          <duration>1</duration>
                          <samplecharacteristics>
                            <anamorphic>FALSE</anamorphic>
                            <pixelaspectratio>square</pixelaspectratio>
                            <fielddominance>none</fielddominance>
                            <width>1920</width>
                            <height>1080</height>
                          </samplecharacteristics>
                        </video>
                      </media>
                    </file>
                  </clipitem>
                </track>
              </video>
            </media>
          </clip>
          <clip explodedTracks="true" frameBlend="FALSE" id="masterclip-83">
            <uuid>fb3a03b5-3a5c-42a7-a5ce-ddc9e58a04ec</uuid>
            <masterclipid>masterclip-83</masterclipid>
            <ismasterclip>TRUE</ismasterclip>
            <duration>137</duration>
            <in>0</in>
            <out>137</out>
            <name>Failure.081.png</name>
            <rate>
              <timebase>24</timebase>
              <ntsc>FALSE</ntsc>
            </rate>
            <media>
              <video>
                <track>
                  <clipitem frameBlend="FALSE" id="clipitem-84">
                    <name>Failure.081.png</name>
                    <masterclipid>masterclip-83</masterclipid>
                    <rate>
                      <timebase>24</timebase>
                      <ntsc>FALSE</ntsc>
                    </rate>
                    <alphatype>straight</alphatype>
                    <pixelaspectratio>square</pixelaspectratio>
                    <anamorphic>FALSE</anamorphic>
                    <file id="file-83">
                      <name>Failure.081.png</name>
                      <pathurl>file://localhost/Users/antoniochiappetta/OneDrive - Aalto University/University/Aalto/Hackatons/Junction/Character Animations/Animations/Failure/Failure.081.png</pathurl>
                      <rate>
                        <timebase>24</timebase>
                        <ntsc>FALSE</ntsc>
                      </rate>
                      <duration>137</duration>
                      <timecode>
                        <rate>
                          <timebase>24</timebase>
                          <ntsc>FALSE</ntsc>
                        </rate>
                      </timecode>
                      <media>
                        <video>
                          <duration>1</duration>
                          <samplecharacteristics>
                            <anamorphic>FALSE</anamorphic>
                            <pixelaspectratio>square</pixelaspectratio>
                            <fielddominance>none</fielddominance>
                            <width>1920</width>
                            <height>1080</height>
                          </samplecharacteristics>
                        </video>
                      </media>
                    </file>
                  </clipitem>
                </track>
              </video>
            </media>
          </clip>
          <clip explodedTracks="true" frameBlend="FALSE" id="masterclip-84">
            <uuid>4c9bfaf1-6f68-4c73-ba13-0172e291b881</uuid>
            <masterclipid>masterclip-84</masterclipid>
            <ismasterclip>TRUE</ismasterclip>
            <duration>137</duration>
            <in>0</in>
            <out>137</out>
            <name>Failure.082.png</name>
            <rate>
              <timebase>24</timebase>
              <ntsc>FALSE</ntsc>
            </rate>
            <media>
              <video>
                <track>
                  <clipitem frameBlend="FALSE" id="clipitem-85">
                    <name>Failure.082.png</name>
                    <masterclipid>masterclip-84</masterclipid>
                    <rate>
                      <timebase>24</timebase>
                      <ntsc>FALSE</ntsc>
                    </rate>
                    <alphatype>straight</alphatype>
                    <pixelaspectratio>square</pixelaspectratio>
                    <anamorphic>FALSE</anamorphic>
                    <file id="file-84">
                      <name>Failure.082.png</name>
                      <pathurl>file://localhost/Users/antoniochiappetta/OneDrive - Aalto University/University/Aalto/Hackatons/Junction/Character Animations/Animations/Failure/Failure.082.png</pathurl>
                      <rate>
                        <timebase>24</timebase>
                        <ntsc>FALSE</ntsc>
                      </rate>
                      <duration>137</duration>
                      <timecode>
                        <rate>
                          <timebase>24</timebase>
                          <ntsc>FALSE</ntsc>
                        </rate>
                      </timecode>
                      <media>
                        <video>
                          <duration>1</duration>
                          <samplecharacteristics>
                            <anamorphic>FALSE</anamorphic>
                            <pixelaspectratio>square</pixelaspectratio>
                            <fielddominance>none</fielddominance>
                            <width>1920</width>
                            <height>1080</height>
                          </samplecharacteristics>
                        </video>
                      </media>
                    </file>
                  </clipitem>
                </track>
              </video>
            </media>
          </clip>
          <clip explodedTracks="true" frameBlend="FALSE" id="masterclip-85">
            <uuid>8ca667c3-2873-4916-8ada-ebf5d34d0700</uuid>
            <masterclipid>masterclip-85</masterclipid>
            <ismasterclip>TRUE</ismasterclip>
            <duration>137</duration>
            <in>0</in>
            <out>137</out>
            <name>Failure.083.png</name>
            <rate>
              <timebase>24</timebase>
              <ntsc>FALSE</ntsc>
            </rate>
            <media>
              <video>
                <track>
                  <clipitem frameBlend="FALSE" id="clipitem-86">
                    <name>Failure.083.png</name>
                    <masterclipid>masterclip-85</masterclipid>
                    <rate>
                      <timebase>24</timebase>
                      <ntsc>FALSE</ntsc>
                    </rate>
                    <alphatype>straight</alphatype>
                    <pixelaspectratio>square</pixelaspectratio>
                    <anamorphic>FALSE</anamorphic>
                    <file id="file-85">
                      <name>Failure.083.png</name>
                      <pathurl>file://localhost/Users/antoniochiappetta/OneDrive - Aalto University/University/Aalto/Hackatons/Junction/Character Animations/Animations/Failure/Failure.083.png</pathurl>
                      <rate>
                        <timebase>24</timebase>
                        <ntsc>FALSE</ntsc>
                      </rate>
                      <duration>137</duration>
                      <timecode>
                        <rate>
                          <timebase>24</timebase>
                          <ntsc>FALSE</ntsc>
                        </rate>
                      </timecode>
                      <media>
                        <video>
                          <duration>1</duration>
                          <samplecharacteristics>
                            <anamorphic>FALSE</anamorphic>
                            <pixelaspectratio>square</pixelaspectratio>
                            <fielddominance>none</fielddominance>
                            <width>1920</width>
                            <height>1080</height>
                          </samplecharacteristics>
                        </video>
                      </media>
                    </file>
                  </clipitem>
                </track>
              </video>
            </media>
          </clip>
          <clip explodedTracks="true" frameBlend="FALSE" id="masterclip-86">
            <uuid>4edca5a4-50cf-4baa-894e-39cbd613d238</uuid>
            <masterclipid>masterclip-86</masterclipid>
            <ismasterclip>TRUE</ismasterclip>
            <duration>137</duration>
            <in>0</in>
            <out>137</out>
            <name>Failure.084.png</name>
            <rate>
              <timebase>24</timebase>
              <ntsc>FALSE</ntsc>
            </rate>
            <media>
              <video>
                <track>
                  <clipitem frameBlend="FALSE" id="clipitem-87">
                    <name>Failure.084.png</name>
                    <masterclipid>masterclip-86</masterclipid>
                    <rate>
                      <timebase>24</timebase>
                      <ntsc>FALSE</ntsc>
                    </rate>
                    <alphatype>straight</alphatype>
                    <pixelaspectratio>square</pixelaspectratio>
                    <anamorphic>FALSE</anamorphic>
                    <file id="file-86">
                      <name>Failure.084.png</name>
                      <pathurl>file://localhost/Users/antoniochiappetta/OneDrive - Aalto University/University/Aalto/Hackatons/Junction/Character Animations/Animations/Failure/Failure.084.png</pathurl>
                      <rate>
                        <timebase>24</timebase>
                        <ntsc>FALSE</ntsc>
                      </rate>
                      <duration>137</duration>
                      <timecode>
                        <rate>
                          <timebase>24</timebase>
                          <ntsc>FALSE</ntsc>
                        </rate>
                      </timecode>
                      <media>
                        <video>
                          <duration>1</duration>
                          <samplecharacteristics>
                            <anamorphic>FALSE</anamorphic>
                            <pixelaspectratio>square</pixelaspectratio>
                            <fielddominance>none</fielddominance>
                            <width>1920</width>
                            <height>1080</height>
                          </samplecharacteristics>
                        </video>
                      </media>
                    </file>
                  </clipitem>
                </track>
              </video>
            </media>
          </clip>
          <clip explodedTracks="true" frameBlend="FALSE" id="masterclip-87">
            <uuid>7bbc4983-330b-48f3-8025-51af5b3fc18d</uuid>
            <masterclipid>masterclip-87</masterclipid>
            <ismasterclip>TRUE</ismasterclip>
            <duration>137</duration>
            <in>0</in>
            <out>137</out>
            <name>Failure.085.png</name>
            <rate>
              <timebase>24</timebase>
              <ntsc>FALSE</ntsc>
            </rate>
            <media>
              <video>
                <track>
                  <clipitem frameBlend="FALSE" id="clipitem-88">
                    <name>Failure.085.png</name>
                    <masterclipid>masterclip-87</masterclipid>
                    <rate>
                      <timebase>24</timebase>
                      <ntsc>FALSE</ntsc>
                    </rate>
                    <alphatype>straight</alphatype>
                    <pixelaspectratio>square</pixelaspectratio>
                    <anamorphic>FALSE</anamorphic>
                    <file id="file-87">
                      <name>Failure.085.png</name>
                      <pathurl>file://localhost/Users/antoniochiappetta/OneDrive - Aalto University/University/Aalto/Hackatons/Junction/Character Animations/Animations/Failure/Failure.085.png</pathurl>
                      <rate>
                        <timebase>24</timebase>
                        <ntsc>FALSE</ntsc>
                      </rate>
                      <duration>137</duration>
                      <timecode>
                        <rate>
                          <timebase>24</timebase>
                          <ntsc>FALSE</ntsc>
                        </rate>
                      </timecode>
                      <media>
                        <video>
                          <duration>1</duration>
                          <samplecharacteristics>
                            <anamorphic>FALSE</anamorphic>
                            <pixelaspectratio>square</pixelaspectratio>
                            <fielddominance>none</fielddominance>
                            <width>1920</width>
                            <height>1080</height>
                          </samplecharacteristics>
                        </video>
                      </media>
                    </file>
                  </clipitem>
                </track>
              </video>
            </media>
          </clip>
          <clip explodedTracks="true" frameBlend="FALSE" id="masterclip-88">
            <uuid>7ed0334c-be30-42d6-9a8b-53383f13588a</uuid>
            <masterclipid>masterclip-88</masterclipid>
            <ismasterclip>TRUE</ismasterclip>
            <duration>137</duration>
            <in>0</in>
            <out>137</out>
            <name>Failure.086.png</name>
            <rate>
              <timebase>24</timebase>
              <ntsc>FALSE</ntsc>
            </rate>
            <media>
              <video>
                <track>
                  <clipitem frameBlend="FALSE" id="clipitem-89">
                    <name>Failure.086.png</name>
                    <masterclipid>masterclip-88</masterclipid>
                    <rate>
                      <timebase>24</timebase>
                      <ntsc>FALSE</ntsc>
                    </rate>
                    <alphatype>straight</alphatype>
                    <pixelaspectratio>square</pixelaspectratio>
                    <anamorphic>FALSE</anamorphic>
                    <file id="file-88">
                      <name>Failure.086.png</name>
                      <pathurl>file://localhost/Users/antoniochiappetta/OneDrive - Aalto University/University/Aalto/Hackatons/Junction/Character Animations/Animations/Failure/Failure.086.png</pathurl>
                      <rate>
                        <timebase>24</timebase>
                        <ntsc>FALSE</ntsc>
                      </rate>
                      <duration>137</duration>
                      <timecode>
                        <rate>
                          <timebase>24</timebase>
                          <ntsc>FALSE</ntsc>
                        </rate>
                      </timecode>
                      <media>
                        <video>
                          <duration>1</duration>
                          <samplecharacteristics>
                            <anamorphic>FALSE</anamorphic>
                            <pixelaspectratio>square</pixelaspectratio>
                            <fielddominance>none</fielddominance>
                            <width>1920</width>
                            <height>1080</height>
                          </samplecharacteristics>
                        </video>
                      </media>
                    </file>
                  </clipitem>
                </track>
              </video>
            </media>
          </clip>
          <clip explodedTracks="true" frameBlend="FALSE" id="masterclip-89">
            <uuid>ef6df854-e77a-48f7-a365-87f7f5f06ccd</uuid>
            <masterclipid>masterclip-89</masterclipid>
            <ismasterclip>TRUE</ismasterclip>
            <duration>137</duration>
            <in>0</in>
            <out>137</out>
            <name>Failure.087.png</name>
            <rate>
              <timebase>24</timebase>
              <ntsc>FALSE</ntsc>
            </rate>
            <media>
              <video>
                <track>
                  <clipitem frameBlend="FALSE" id="clipitem-90">
                    <name>Failure.087.png</name>
                    <masterclipid>masterclip-89</masterclipid>
                    <rate>
                      <timebase>24</timebase>
                      <ntsc>FALSE</ntsc>
                    </rate>
                    <alphatype>straight</alphatype>
                    <pixelaspectratio>square</pixelaspectratio>
                    <anamorphic>FALSE</anamorphic>
                    <file id="file-89">
                      <name>Failure.087.png</name>
                      <pathurl>file://localhost/Users/antoniochiappetta/OneDrive - Aalto University/University/Aalto/Hackatons/Junction/Character Animations/Animations/Failure/Failure.087.png</pathurl>
                      <rate>
                        <timebase>24</timebase>
                        <ntsc>FALSE</ntsc>
                      </rate>
                      <duration>137</duration>
                      <timecode>
                        <rate>
                          <timebase>24</timebase>
                          <ntsc>FALSE</ntsc>
                        </rate>
                      </timecode>
                      <media>
                        <video>
                          <duration>1</duration>
                          <samplecharacteristics>
                            <anamorphic>FALSE</anamorphic>
                            <pixelaspectratio>square</pixelaspectratio>
                            <fielddominance>none</fielddominance>
                            <width>1920</width>
                            <height>1080</height>
                          </samplecharacteristics>
                        </video>
                      </media>
                    </file>
                  </clipitem>
                </track>
              </video>
            </media>
          </clip>
          <clip explodedTracks="true" frameBlend="FALSE" id="masterclip-90">
            <uuid>610eb051-0c22-4702-a036-bf25f030f260</uuid>
            <masterclipid>masterclip-90</masterclipid>
            <ismasterclip>TRUE</ismasterclip>
            <duration>137</duration>
            <in>0</in>
            <out>137</out>
            <name>Failure.088.png</name>
            <rate>
              <timebase>24</timebase>
              <ntsc>FALSE</ntsc>
            </rate>
            <media>
              <video>
                <track>
                  <clipitem frameBlend="FALSE" id="clipitem-91">
                    <name>Failure.088.png</name>
                    <masterclipid>masterclip-90</masterclipid>
                    <rate>
                      <timebase>24</timebase>
                      <ntsc>FALSE</ntsc>
                    </rate>
                    <alphatype>straight</alphatype>
                    <pixelaspectratio>square</pixelaspectratio>
                    <anamorphic>FALSE</anamorphic>
                    <file id="file-90">
                      <name>Failure.088.png</name>
                      <pathurl>file://localhost/Users/antoniochiappetta/OneDrive - Aalto University/University/Aalto/Hackatons/Junction/Character Animations/Animations/Failure/Failure.088.png</pathurl>
                      <rate>
                        <timebase>24</timebase>
                        <ntsc>FALSE</ntsc>
                      </rate>
                      <duration>137</duration>
                      <timecode>
                        <rate>
                          <timebase>24</timebase>
                          <ntsc>FALSE</ntsc>
                        </rate>
                      </timecode>
                      <media>
                        <video>
                          <duration>1</duration>
                          <samplecharacteristics>
                            <anamorphic>FALSE</anamorphic>
                            <pixelaspectratio>square</pixelaspectratio>
                            <fielddominance>none</fielddominance>
                            <width>1920</width>
                            <height>1080</height>
                          </samplecharacteristics>
                        </video>
                      </media>
                    </file>
                  </clipitem>
                </track>
              </video>
            </media>
          </clip>
          <clip explodedTracks="true" frameBlend="FALSE" id="masterclip-91">
            <uuid>78795cef-c840-4dd1-8a16-bad0412b8768</uuid>
            <masterclipid>masterclip-91</masterclipid>
            <ismasterclip>TRUE</ismasterclip>
            <duration>137</duration>
            <in>0</in>
            <out>137</out>
            <name>Failure.089.png</name>
            <rate>
              <timebase>24</timebase>
              <ntsc>FALSE</ntsc>
            </rate>
            <media>
              <video>
                <track>
                  <clipitem frameBlend="FALSE" id="clipitem-92">
                    <name>Failure.089.png</name>
                    <masterclipid>masterclip-91</masterclipid>
                    <rate>
                      <timebase>24</timebase>
                      <ntsc>FALSE</ntsc>
                    </rate>
                    <alphatype>straight</alphatype>
                    <pixelaspectratio>square</pixelaspectratio>
                    <anamorphic>FALSE</anamorphic>
                    <file id="file-91">
                      <name>Failure.089.png</name>
                      <pathurl>file://localhost/Users/antoniochiappetta/OneDrive - Aalto University/University/Aalto/Hackatons/Junction/Character Animations/Animations/Failure/Failure.089.png</pathurl>
                      <rate>
                        <timebase>24</timebase>
                        <ntsc>FALSE</ntsc>
                      </rate>
                      <duration>137</duration>
                      <timecode>
                        <rate>
                          <timebase>24</timebase>
                          <ntsc>FALSE</ntsc>
                        </rate>
                      </timecode>
                      <media>
                        <video>
                          <duration>1</duration>
                          <samplecharacteristics>
                            <anamorphic>FALSE</anamorphic>
                            <pixelaspectratio>square</pixelaspectratio>
                            <fielddominance>none</fielddominance>
                            <width>1920</width>
                            <height>1080</height>
                          </samplecharacteristics>
                        </video>
                      </media>
                    </file>
                  </clipitem>
                </track>
              </video>
            </media>
          </clip>
          <clip explodedTracks="true" frameBlend="FALSE" id="masterclip-92">
            <uuid>7ee1c194-809d-4a8c-b4b4-aa3181441206</uuid>
            <masterclipid>masterclip-92</masterclipid>
            <ismasterclip>TRUE</ismasterclip>
            <duration>137</duration>
            <in>0</in>
            <out>137</out>
            <name>Failure.090.png</name>
            <rate>
              <timebase>24</timebase>
              <ntsc>FALSE</ntsc>
            </rate>
            <media>
              <video>
                <track>
                  <clipitem frameBlend="FALSE" id="clipitem-93">
                    <name>Failure.090.png</name>
                    <masterclipid>masterclip-92</masterclipid>
                    <rate>
                      <timebase>24</timebase>
                      <ntsc>FALSE</ntsc>
                    </rate>
                    <alphatype>straight</alphatype>
                    <pixelaspectratio>square</pixelaspectratio>
                    <anamorphic>FALSE</anamorphic>
                    <file id="file-92">
                      <name>Failure.090.png</name>
                      <pathurl>file://localhost/Users/antoniochiappetta/OneDrive - Aalto University/University/Aalto/Hackatons/Junction/Character Animations/Animations/Failure/Failure.090.png</pathurl>
                      <rate>
                        <timebase>24</timebase>
                        <ntsc>FALSE</ntsc>
                      </rate>
                      <duration>137</duration>
                      <timecode>
                        <rate>
                          <timebase>24</timebase>
                          <ntsc>FALSE</ntsc>
                        </rate>
                      </timecode>
                      <media>
                        <video>
                          <duration>1</duration>
                          <samplecharacteristics>
                            <anamorphic>FALSE</anamorphic>
                            <pixelaspectratio>square</pixelaspectratio>
                            <fielddominance>none</fielddominance>
                            <width>1920</width>
                            <height>1080</height>
                          </samplecharacteristics>
                        </video>
                      </media>
                    </file>
                  </clipitem>
                </track>
              </video>
            </media>
          </clip>
          <clip explodedTracks="true" frameBlend="FALSE" id="masterclip-93">
            <uuid>8e687064-b70b-4491-8f10-f4685f74adfe</uuid>
            <masterclipid>masterclip-93</masterclipid>
            <ismasterclip>TRUE</ismasterclip>
            <duration>137</duration>
            <in>0</in>
            <out>137</out>
            <name>Failure.091.png</name>
            <rate>
              <timebase>24</timebase>
              <ntsc>FALSE</ntsc>
            </rate>
            <media>
              <video>
                <track>
                  <clipitem frameBlend="FALSE" id="clipitem-94">
                    <name>Failure.091.png</name>
                    <masterclipid>masterclip-93</masterclipid>
                    <rate>
                      <timebase>24</timebase>
                      <ntsc>FALSE</ntsc>
                    </rate>
                    <alphatype>straight</alphatype>
                    <pixelaspectratio>square</pixelaspectratio>
                    <anamorphic>FALSE</anamorphic>
                    <file id="file-93">
                      <name>Failure.091.png</name>
                      <pathurl>file://localhost/Users/antoniochiappetta/OneDrive - Aalto University/University/Aalto/Hackatons/Junction/Character Animations/Animations/Failure/Failure.091.png</pathurl>
                      <rate>
                        <timebase>24</timebase>
                        <ntsc>FALSE</ntsc>
                      </rate>
                      <duration>137</duration>
                      <timecode>
                        <rate>
                          <timebase>24</timebase>
                          <ntsc>FALSE</ntsc>
                        </rate>
                      </timecode>
                      <media>
                        <video>
                          <duration>1</duration>
                          <samplecharacteristics>
                            <anamorphic>FALSE</anamorphic>
                            <pixelaspectratio>square</pixelaspectratio>
                            <fielddominance>none</fielddominance>
                            <width>1920</width>
                            <height>1080</height>
                          </samplecharacteristics>
                        </video>
                      </media>
                    </file>
                  </clipitem>
                </track>
              </video>
            </media>
          </clip>
          <clip explodedTracks="true" frameBlend="FALSE" id="masterclip-94">
            <uuid>28214ffa-34db-47b5-9ecc-6e63f4eba729</uuid>
            <masterclipid>masterclip-94</masterclipid>
            <ismasterclip>TRUE</ismasterclip>
            <duration>137</duration>
            <in>0</in>
            <out>137</out>
            <name>Failure.092.png</name>
            <rate>
              <timebase>24</timebase>
              <ntsc>FALSE</ntsc>
            </rate>
            <media>
              <video>
                <track>
                  <clipitem frameBlend="FALSE" id="clipitem-95">
                    <name>Failure.092.png</name>
                    <masterclipid>masterclip-94</masterclipid>
                    <rate>
                      <timebase>24</timebase>
                      <ntsc>FALSE</ntsc>
                    </rate>
                    <alphatype>straight</alphatype>
                    <pixelaspectratio>square</pixelaspectratio>
                    <anamorphic>FALSE</anamorphic>
                    <file id="file-94">
                      <name>Failure.092.png</name>
                      <pathurl>file://localhost/Users/antoniochiappetta/OneDrive - Aalto University/University/Aalto/Hackatons/Junction/Character Animations/Animations/Failure/Failure.092.png</pathurl>
                      <rate>
                        <timebase>24</timebase>
                        <ntsc>FALSE</ntsc>
                      </rate>
                      <duration>137</duration>
                      <timecode>
                        <rate>
                          <timebase>24</timebase>
                          <ntsc>FALSE</ntsc>
                        </rate>
                      </timecode>
                      <media>
                        <video>
                          <duration>1</duration>
                          <samplecharacteristics>
                            <anamorphic>FALSE</anamorphic>
                            <pixelaspectratio>square</pixelaspectratio>
                            <fielddominance>none</fielddominance>
                            <width>1920</width>
                            <height>1080</height>
                          </samplecharacteristics>
                        </video>
                      </media>
                    </file>
                  </clipitem>
                </track>
              </video>
            </media>
          </clip>
          <clip explodedTracks="true" frameBlend="FALSE" id="masterclip-95">
            <uuid>9d23318a-7554-452e-b534-c55a8b91e1c3</uuid>
            <masterclipid>masterclip-95</masterclipid>
            <ismasterclip>TRUE</ismasterclip>
            <duration>137</duration>
            <in>0</in>
            <out>137</out>
            <name>Failure.093.png</name>
            <rate>
              <timebase>24</timebase>
              <ntsc>FALSE</ntsc>
            </rate>
            <media>
              <video>
                <track>
                  <clipitem frameBlend="FALSE" id="clipitem-96">
                    <name>Failure.093.png</name>
                    <masterclipid>masterclip-95</masterclipid>
                    <rate>
                      <timebase>24</timebase>
                      <ntsc>FALSE</ntsc>
                    </rate>
                    <alphatype>straight</alphatype>
                    <pixelaspectratio>square</pixelaspectratio>
                    <anamorphic>FALSE</anamorphic>
                    <file id="file-95">
                      <name>Failure.093.png</name>
                      <pathurl>file://localhost/Users/antoniochiappetta/OneDrive - Aalto University/University/Aalto/Hackatons/Junction/Character Animations/Animations/Failure/Failure.093.png</pathurl>
                      <rate>
                        <timebase>24</timebase>
                        <ntsc>FALSE</ntsc>
                      </rate>
                      <duration>137</duration>
                      <timecode>
                        <rate>
                          <timebase>24</timebase>
                          <ntsc>FALSE</ntsc>
                        </rate>
                      </timecode>
                      <media>
                        <video>
                          <duration>1</duration>
                          <samplecharacteristics>
                            <anamorphic>FALSE</anamorphic>
                            <pixelaspectratio>square</pixelaspectratio>
                            <fielddominance>none</fielddominance>
                            <width>1920</width>
                            <height>1080</height>
                          </samplecharacteristics>
                        </video>
                      </media>
                    </file>
                  </clipitem>
                </track>
              </video>
            </media>
          </clip>
          <clip explodedTracks="true" frameBlend="FALSE" id="masterclip-96">
            <uuid>3b02ceb4-7b53-40fe-8d65-3ddae9467ac9</uuid>
            <masterclipid>masterclip-96</masterclipid>
            <ismasterclip>TRUE</ismasterclip>
            <duration>137</duration>
            <in>0</in>
            <out>137</out>
            <name>Failure.094.png</name>
            <rate>
              <timebase>24</timebase>
              <ntsc>FALSE</ntsc>
            </rate>
            <media>
              <video>
                <track>
                  <clipitem frameBlend="FALSE" id="clipitem-97">
                    <name>Failure.094.png</name>
                    <masterclipid>masterclip-96</masterclipid>
                    <rate>
                      <timebase>24</timebase>
                      <ntsc>FALSE</ntsc>
                    </rate>
                    <alphatype>straight</alphatype>
                    <pixelaspectratio>square</pixelaspectratio>
                    <anamorphic>FALSE</anamorphic>
                    <file id="file-96">
                      <name>Failure.094.png</name>
                      <pathurl>file://localhost/Users/antoniochiappetta/OneDrive - Aalto University/University/Aalto/Hackatons/Junction/Character Animations/Animations/Failure/Failure.094.png</pathurl>
                      <rate>
                        <timebase>24</timebase>
                        <ntsc>FALSE</ntsc>
                      </rate>
                      <duration>137</duration>
                      <timecode>
                        <rate>
                          <timebase>24</timebase>
                          <ntsc>FALSE</ntsc>
                        </rate>
                      </timecode>
                      <media>
                        <video>
                          <duration>1</duration>
                          <samplecharacteristics>
                            <anamorphic>FALSE</anamorphic>
                            <pixelaspectratio>square</pixelaspectratio>
                            <fielddominance>none</fielddominance>
                            <width>1920</width>
                            <height>1080</height>
                          </samplecharacteristics>
                        </video>
                      </media>
                    </file>
                  </clipitem>
                </track>
              </video>
            </media>
          </clip>
          <clip explodedTracks="true" frameBlend="FALSE" id="masterclip-97">
            <uuid>da0ec780-0b20-4557-965e-be0597e8f242</uuid>
            <masterclipid>masterclip-97</masterclipid>
            <ismasterclip>TRUE</ismasterclip>
            <duration>137</duration>
            <in>0</in>
            <out>137</out>
            <name>Failure.095.png</name>
            <rate>
              <timebase>24</timebase>
              <ntsc>FALSE</ntsc>
            </rate>
            <media>
              <video>
                <track>
                  <clipitem frameBlend="FALSE" id="clipitem-98">
                    <name>Failure.095.png</name>
                    <masterclipid>masterclip-97</masterclipid>
                    <rate>
                      <timebase>24</timebase>
                      <ntsc>FALSE</ntsc>
                    </rate>
                    <alphatype>straight</alphatype>
                    <pixelaspectratio>square</pixelaspectratio>
                    <anamorphic>FALSE</anamorphic>
                    <file id="file-97">
                      <name>Failure.095.png</name>
                      <pathurl>file://localhost/Users/antoniochiappetta/OneDrive - Aalto University/University/Aalto/Hackatons/Junction/Character Animations/Animations/Failure/Failure.095.png</pathurl>
                      <rate>
                        <timebase>24</timebase>
                        <ntsc>FALSE</ntsc>
                      </rate>
                      <duration>137</duration>
                      <timecode>
                        <rate>
                          <timebase>24</timebase>
                          <ntsc>FALSE</ntsc>
                        </rate>
                      </timecode>
                      <media>
                        <video>
                          <duration>1</duration>
                          <samplecharacteristics>
                            <anamorphic>FALSE</anamorphic>
                            <pixelaspectratio>square</pixelaspectratio>
                            <fielddominance>none</fielddominance>
                            <width>1920</width>
                            <height>1080</height>
                          </samplecharacteristics>
                        </video>
                      </media>
                    </file>
                  </clipitem>
                </track>
              </video>
            </media>
          </clip>
          <clip explodedTracks="true" frameBlend="FALSE" id="masterclip-98">
            <uuid>a90bd163-0e87-41ca-b839-067814384aa2</uuid>
            <masterclipid>masterclip-98</masterclipid>
            <ismasterclip>TRUE</ismasterclip>
            <duration>137</duration>
            <in>0</in>
            <out>137</out>
            <name>Failure.096.png</name>
            <rate>
              <timebase>24</timebase>
              <ntsc>FALSE</ntsc>
            </rate>
            <media>
              <video>
                <track>
                  <clipitem frameBlend="FALSE" id="clipitem-99">
                    <name>Failure.096.png</name>
                    <masterclipid>masterclip-98</masterclipid>
                    <rate>
                      <timebase>24</timebase>
                      <ntsc>FALSE</ntsc>
                    </rate>
                    <alphatype>straight</alphatype>
                    <pixelaspectratio>square</pixelaspectratio>
                    <anamorphic>FALSE</anamorphic>
                    <file id="file-98">
                      <name>Failure.096.png</name>
                      <pathurl>file://localhost/Users/antoniochiappetta/OneDrive - Aalto University/University/Aalto/Hackatons/Junction/Character Animations/Animations/Failure/Failure.096.png</pathurl>
                      <rate>
                        <timebase>24</timebase>
                        <ntsc>FALSE</ntsc>
                      </rate>
                      <duration>137</duration>
                      <timecode>
                        <rate>
                          <timebase>24</timebase>
                          <ntsc>FALSE</ntsc>
                        </rate>
                      </timecode>
                      <media>
                        <video>
                          <duration>1</duration>
                          <samplecharacteristics>
                            <anamorphic>FALSE</anamorphic>
                            <pixelaspectratio>square</pixelaspectratio>
                            <fielddominance>none</fielddominance>
                            <width>1920</width>
                            <height>1080</height>
                          </samplecharacteristics>
                        </video>
                      </media>
                    </file>
                  </clipitem>
                </track>
              </video>
            </media>
          </clip>
          <clip explodedTracks="true" frameBlend="FALSE" id="masterclip-99">
            <uuid>c9a9bf4f-6087-42ae-b40b-4ab3ec1f2e3e</uuid>
            <masterclipid>masterclip-99</masterclipid>
            <ismasterclip>TRUE</ismasterclip>
            <duration>137</duration>
            <in>0</in>
            <out>137</out>
            <name>Failure.097.png</name>
            <rate>
              <timebase>24</timebase>
              <ntsc>FALSE</ntsc>
            </rate>
            <media>
              <video>
                <track>
                  <clipitem frameBlend="FALSE" id="clipitem-100">
                    <name>Failure.097.png</name>
                    <masterclipid>masterclip-99</masterclipid>
                    <rate>
                      <timebase>24</timebase>
                      <ntsc>FALSE</ntsc>
                    </rate>
                    <alphatype>straight</alphatype>
                    <pixelaspectratio>square</pixelaspectratio>
                    <anamorphic>FALSE</anamorphic>
                    <file id="file-99">
                      <name>Failure.097.png</name>
                      <pathurl>file://localhost/Users/antoniochiappetta/OneDrive - Aalto University/University/Aalto/Hackatons/Junction/Character Animations/Animations/Failure/Failure.097.png</pathurl>
                      <rate>
                        <timebase>24</timebase>
                        <ntsc>FALSE</ntsc>
                      </rate>
                      <duration>137</duration>
                      <timecode>
                        <rate>
                          <timebase>24</timebase>
                          <ntsc>FALSE</ntsc>
                        </rate>
                      </timecode>
                      <media>
                        <video>
                          <duration>1</duration>
                          <samplecharacteristics>
                            <anamorphic>FALSE</anamorphic>
                            <pixelaspectratio>square</pixelaspectratio>
                            <fielddominance>none</fielddominance>
                            <width>1920</width>
                            <height>1080</height>
                          </samplecharacteristics>
                        </video>
                      </media>
                    </file>
                  </clipitem>
                </track>
              </video>
            </media>
          </clip>
          <clip explodedTracks="true" frameBlend="FALSE" id="masterclip-100">
            <uuid>e5a9e92b-6753-44d1-9eda-c7765abdb118</uuid>
            <masterclipid>masterclip-100</masterclipid>
            <ismasterclip>TRUE</ismasterclip>
            <duration>137</duration>
            <in>0</in>
            <out>137</out>
            <name>Failure.098.png</name>
            <rate>
              <timebase>24</timebase>
              <ntsc>FALSE</ntsc>
            </rate>
            <media>
              <video>
                <track>
                  <clipitem frameBlend="FALSE" id="clipitem-101">
                    <name>Failure.098.png</name>
                    <masterclipid>masterclip-100</masterclipid>
                    <rate>
                      <timebase>24</timebase>
                      <ntsc>FALSE</ntsc>
                    </rate>
                    <alphatype>straight</alphatype>
                    <pixelaspectratio>square</pixelaspectratio>
                    <anamorphic>FALSE</anamorphic>
                    <file id="file-100">
                      <name>Failure.098.png</name>
                      <pathurl>file://localhost/Users/antoniochiappetta/OneDrive - Aalto University/University/Aalto/Hackatons/Junction/Character Animations/Animations/Failure/Failure.098.png</pathurl>
                      <rate>
                        <timebase>24</timebase>
                        <ntsc>FALSE</ntsc>
                      </rate>
                      <duration>137</duration>
                      <timecode>
                        <rate>
                          <timebase>24</timebase>
                          <ntsc>FALSE</ntsc>
                        </rate>
                      </timecode>
                      <media>
                        <video>
                          <duration>1</duration>
                          <samplecharacteristics>
                            <anamorphic>FALSE</anamorphic>
                            <pixelaspectratio>square</pixelaspectratio>
                            <fielddominance>none</fielddominance>
                            <width>1920</width>
                            <height>1080</height>
                          </samplecharacteristics>
                        </video>
                      </media>
                    </file>
                  </clipitem>
                </track>
              </video>
            </media>
          </clip>
          <clip explodedTracks="true" frameBlend="FALSE" id="masterclip-101">
            <uuid>a95ccda5-e150-49a8-abe9-47d5d474c206</uuid>
            <masterclipid>masterclip-101</masterclipid>
            <ismasterclip>TRUE</ismasterclip>
            <duration>137</duration>
            <in>0</in>
            <out>137</out>
            <name>Failure.099.png</name>
            <rate>
              <timebase>24</timebase>
              <ntsc>FALSE</ntsc>
            </rate>
            <media>
              <video>
                <track>
                  <clipitem frameBlend="FALSE" id="clipitem-102">
                    <name>Failure.099.png</name>
                    <masterclipid>masterclip-101</masterclipid>
                    <rate>
                      <timebase>24</timebase>
                      <ntsc>FALSE</ntsc>
                    </rate>
                    <alphatype>straight</alphatype>
                    <pixelaspectratio>square</pixelaspectratio>
                    <anamorphic>FALSE</anamorphic>
                    <file id="file-101">
                      <name>Failure.099.png</name>
                      <pathurl>file://localhost/Users/antoniochiappetta/OneDrive - Aalto University/University/Aalto/Hackatons/Junction/Character Animations/Animations/Failure/Failure.099.png</pathurl>
                      <rate>
                        <timebase>24</timebase>
                        <ntsc>FALSE</ntsc>
                      </rate>
                      <duration>137</duration>
                      <timecode>
                        <rate>
                          <timebase>24</timebase>
                          <ntsc>FALSE</ntsc>
                        </rate>
                      </timecode>
                      <media>
                        <video>
                          <duration>1</duration>
                          <samplecharacteristics>
                            <anamorphic>FALSE</anamorphic>
                            <pixelaspectratio>square</pixelaspectratio>
                            <fielddominance>none</fielddominance>
                            <width>1920</width>
                            <height>1080</height>
                          </samplecharacteristics>
                        </video>
                      </media>
                    </file>
                  </clipitem>
                </track>
              </video>
            </media>
          </clip>
          <clip explodedTracks="true" frameBlend="FALSE" id="masterclip-102">
            <uuid>d26e7785-0925-4161-b3de-9cfb6487d448</uuid>
            <masterclipid>masterclip-102</masterclipid>
            <ismasterclip>TRUE</ismasterclip>
            <duration>137</duration>
            <in>0</in>
            <out>137</out>
            <name>Failure.100.png</name>
            <rate>
              <timebase>24</timebase>
              <ntsc>FALSE</ntsc>
            </rate>
            <media>
              <video>
                <track>
                  <clipitem frameBlend="FALSE" id="clipitem-103">
                    <name>Failure.100.png</name>
                    <masterclipid>masterclip-102</masterclipid>
                    <rate>
                      <timebase>24</timebase>
                      <ntsc>FALSE</ntsc>
                    </rate>
                    <alphatype>straight</alphatype>
                    <pixelaspectratio>square</pixelaspectratio>
                    <anamorphic>FALSE</anamorphic>
                    <file id="file-102">
                      <name>Failure.100.png</name>
                      <pathurl>file://localhost/Users/antoniochiappetta/OneDrive - Aalto University/University/Aalto/Hackatons/Junction/Character Animations/Animations/Failure/Failure.100.png</pathurl>
                      <rate>
                        <timebase>24</timebase>
                        <ntsc>FALSE</ntsc>
                      </rate>
                      <duration>137</duration>
                      <timecode>
                        <rate>
                          <timebase>24</timebase>
                          <ntsc>FALSE</ntsc>
                        </rate>
                      </timecode>
                      <media>
                        <video>
                          <duration>1</duration>
                          <samplecharacteristics>
                            <anamorphic>FALSE</anamorphic>
                            <pixelaspectratio>square</pixelaspectratio>
                            <fielddominance>none</fielddominance>
                            <width>1920</width>
                            <height>1080</height>
                          </samplecharacteristics>
                        </video>
                      </media>
                    </file>
                  </clipitem>
                </track>
              </video>
            </media>
          </clip>
          <clip explodedTracks="true" frameBlend="FALSE" id="masterclip-103">
            <uuid>c07ebe2a-5ae3-4db9-b1b7-eadc6ddc6e95</uuid>
            <masterclipid>masterclip-103</masterclipid>
            <ismasterclip>TRUE</ismasterclip>
            <duration>137</duration>
            <in>0</in>
            <out>137</out>
            <name>Failure.101.png</name>
            <rate>
              <timebase>24</timebase>
              <ntsc>FALSE</ntsc>
            </rate>
            <media>
              <video>
                <track>
                  <clipitem frameBlend="FALSE" id="clipitem-104">
                    <name>Failure.101.png</name>
                    <masterclipid>masterclip-103</masterclipid>
                    <rate>
                      <timebase>24</timebase>
                      <ntsc>FALSE</ntsc>
                    </rate>
                    <alphatype>straight</alphatype>
                    <pixelaspectratio>square</pixelaspectratio>
                    <anamorphic>FALSE</anamorphic>
                    <file id="file-103">
                      <name>Failure.101.png</name>
                      <pathurl>file://localhost/Users/antoniochiappetta/OneDrive - Aalto University/University/Aalto/Hackatons/Junction/Character Animations/Animations/Failure/Failure.101.png</pathurl>
                      <rate>
                        <timebase>24</timebase>
                        <ntsc>FALSE</ntsc>
                      </rate>
                      <duration>137</duration>
                      <timecode>
                        <rate>
                          <timebase>24</timebase>
                          <ntsc>FALSE</ntsc>
                        </rate>
                      </timecode>
                      <media>
                        <video>
                          <duration>1</duration>
                          <samplecharacteristics>
                            <anamorphic>FALSE</anamorphic>
                            <pixelaspectratio>square</pixelaspectratio>
                            <fielddominance>none</fielddominance>
                            <width>1920</width>
                            <height>1080</height>
                          </samplecharacteristics>
                        </video>
                      </media>
                    </file>
                  </clipitem>
                </track>
              </video>
            </media>
          </clip>
          <clip explodedTracks="true" frameBlend="FALSE" id="masterclip-104">
            <uuid>1b569d8e-c2b8-49de-a2cd-68ca931cdc30</uuid>
            <masterclipid>masterclip-104</masterclipid>
            <ismasterclip>TRUE</ismasterclip>
            <duration>137</duration>
            <in>0</in>
            <out>137</out>
            <name>Failure.102.png</name>
            <rate>
              <timebase>24</timebase>
              <ntsc>FALSE</ntsc>
            </rate>
            <media>
              <video>
                <track>
                  <clipitem frameBlend="FALSE" id="clipitem-105">
                    <name>Failure.102.png</name>
                    <masterclipid>masterclip-104</masterclipid>
                    <rate>
                      <timebase>24</timebase>
                      <ntsc>FALSE</ntsc>
                    </rate>
                    <alphatype>straight</alphatype>
                    <pixelaspectratio>square</pixelaspectratio>
                    <anamorphic>FALSE</anamorphic>
                    <file id="file-104">
                      <name>Failure.102.png</name>
                      <pathurl>file://localhost/Users/antoniochiappetta/OneDrive - Aalto University/University/Aalto/Hackatons/Junction/Character Animations/Animations/Failure/Failure.102.png</pathurl>
                      <rate>
                        <timebase>24</timebase>
                        <ntsc>FALSE</ntsc>
                      </rate>
                      <duration>137</duration>
                      <timecode>
                        <rate>
                          <timebase>24</timebase>
                          <ntsc>FALSE</ntsc>
                        </rate>
                      </timecode>
                      <media>
                        <video>
                          <duration>1</duration>
                          <samplecharacteristics>
                            <anamorphic>FALSE</anamorphic>
                            <pixelaspectratio>square</pixelaspectratio>
                            <fielddominance>none</fielddominance>
                            <width>1920</width>
                            <height>1080</height>
                          </samplecharacteristics>
                        </video>
                      </media>
                    </file>
                  </clipitem>
                </track>
              </video>
            </media>
          </clip>
          <clip explodedTracks="true" frameBlend="FALSE" id="masterclip-105">
            <uuid>0d13eb5d-3bed-4f10-9bab-1da843675e29</uuid>
            <masterclipid>masterclip-105</masterclipid>
            <ismasterclip>TRUE</ismasterclip>
            <duration>137</duration>
            <in>0</in>
            <out>137</out>
            <name>Failure.103.png</name>
            <rate>
              <timebase>24</timebase>
              <ntsc>FALSE</ntsc>
            </rate>
            <media>
              <video>
                <track>
                  <clipitem frameBlend="FALSE" id="clipitem-106">
                    <name>Failure.103.png</name>
                    <masterclipid>masterclip-105</masterclipid>
                    <rate>
                      <timebase>24</timebase>
                      <ntsc>FALSE</ntsc>
                    </rate>
                    <alphatype>straight</alphatype>
                    <pixelaspectratio>square</pixelaspectratio>
                    <anamorphic>FALSE</anamorphic>
                    <file id="file-105">
                      <name>Failure.103.png</name>
                      <pathurl>file://localhost/Users/antoniochiappetta/OneDrive - Aalto University/University/Aalto/Hackatons/Junction/Character Animations/Animations/Failure/Failure.103.png</pathurl>
                      <rate>
                        <timebase>24</timebase>
                        <ntsc>FALSE</ntsc>
                      </rate>
                      <duration>137</duration>
                      <timecode>
                        <rate>
                          <timebase>24</timebase>
                          <ntsc>FALSE</ntsc>
                        </rate>
                      </timecode>
                      <media>
                        <video>
                          <duration>1</duration>
                          <samplecharacteristics>
                            <anamorphic>FALSE</anamorphic>
                            <pixelaspectratio>square</pixelaspectratio>
                            <fielddominance>none</fielddominance>
                            <width>1920</width>
                            <height>1080</height>
                          </samplecharacteristics>
                        </video>
                      </media>
                    </file>
                  </clipitem>
                </track>
              </video>
            </media>
          </clip>
          <clip explodedTracks="true" frameBlend="FALSE" id="masterclip-106">
            <uuid>02c6f790-f699-49de-926e-aa6a4f75cde2</uuid>
            <masterclipid>masterclip-106</masterclipid>
            <ismasterclip>TRUE</ismasterclip>
            <duration>137</duration>
            <in>0</in>
            <out>137</out>
            <name>Failure.104.png</name>
            <rate>
              <timebase>24</timebase>
              <ntsc>FALSE</ntsc>
            </rate>
            <media>
              <video>
                <track>
                  <clipitem frameBlend="FALSE" id="clipitem-107">
                    <name>Failure.104.png</name>
                    <masterclipid>masterclip-106</masterclipid>
                    <rate>
                      <timebase>24</timebase>
                      <ntsc>FALSE</ntsc>
                    </rate>
                    <alphatype>straight</alphatype>
                    <pixelaspectratio>square</pixelaspectratio>
                    <anamorphic>FALSE</anamorphic>
                    <file id="file-106">
                      <name>Failure.104.png</name>
                      <pathurl>file://localhost/Users/antoniochiappetta/OneDrive - Aalto University/University/Aalto/Hackatons/Junction/Character Animations/Animations/Failure/Failure.104.png</pathurl>
                      <rate>
                        <timebase>24</timebase>
                        <ntsc>FALSE</ntsc>
                      </rate>
                      <duration>137</duration>
                      <timecode>
                        <rate>
                          <timebase>24</timebase>
                          <ntsc>FALSE</ntsc>
                        </rate>
                      </timecode>
                      <media>
                        <video>
                          <duration>1</duration>
                          <samplecharacteristics>
                            <anamorphic>FALSE</anamorphic>
                            <pixelaspectratio>square</pixelaspectratio>
                            <fielddominance>none</fielddominance>
                            <width>1920</width>
                            <height>1080</height>
                          </samplecharacteristics>
                        </video>
                      </media>
                    </file>
                  </clipitem>
                </track>
              </video>
            </media>
          </clip>
          <clip explodedTracks="true" frameBlend="FALSE" id="masterclip-107">
            <uuid>40da31b0-6796-4dad-b12e-23533d9241e1</uuid>
            <masterclipid>masterclip-107</masterclipid>
            <ismasterclip>TRUE</ismasterclip>
            <duration>137</duration>
            <in>0</in>
            <out>137</out>
            <name>Failure.105.png</name>
            <rate>
              <timebase>24</timebase>
              <ntsc>FALSE</ntsc>
            </rate>
            <media>
              <video>
                <track>
                  <clipitem frameBlend="FALSE" id="clipitem-108">
                    <name>Failure.105.png</name>
                    <masterclipid>masterclip-107</masterclipid>
                    <rate>
                      <timebase>24</timebase>
                      <ntsc>FALSE</ntsc>
                    </rate>
                    <alphatype>straight</alphatype>
                    <pixelaspectratio>square</pixelaspectratio>
                    <anamorphic>FALSE</anamorphic>
                    <file id="file-107">
                      <name>Failure.105.png</name>
                      <pathurl>file://localhost/Users/antoniochiappetta/OneDrive - Aalto University/University/Aalto/Hackatons/Junction/Character Animations/Animations/Failure/Failure.105.png</pathurl>
                      <rate>
                        <timebase>24</timebase>
                        <ntsc>FALSE</ntsc>
                      </rate>
                      <duration>137</duration>
                      <timecode>
                        <rate>
                          <timebase>24</timebase>
                          <ntsc>FALSE</ntsc>
                        </rate>
                      </timecode>
                      <media>
                        <video>
                          <duration>1</duration>
                          <samplecharacteristics>
                            <anamorphic>FALSE</anamorphic>
                            <pixelaspectratio>square</pixelaspectratio>
                            <fielddominance>none</fielddominance>
                            <width>1920</width>
                            <height>1080</height>
                          </samplecharacteristics>
                        </video>
                      </media>
                    </file>
                  </clipitem>
                </track>
              </video>
            </media>
          </clip>
          <clip explodedTracks="true" frameBlend="FALSE" id="masterclip-108">
            <uuid>ad90153e-03ba-434f-b671-c38b9399db94</uuid>
            <masterclipid>masterclip-108</masterclipid>
            <ismasterclip>TRUE</ismasterclip>
            <duration>137</duration>
            <in>0</in>
            <out>137</out>
            <name>Failure.106.png</name>
            <rate>
              <timebase>24</timebase>
              <ntsc>FALSE</ntsc>
            </rate>
            <media>
              <video>
                <track>
                  <clipitem frameBlend="FALSE" id="clipitem-109">
                    <name>Failure.106.png</name>
                    <masterclipid>masterclip-108</masterclipid>
                    <rate>
                      <timebase>24</timebase>
                      <ntsc>FALSE</ntsc>
                    </rate>
                    <alphatype>straight</alphatype>
                    <pixelaspectratio>square</pixelaspectratio>
                    <anamorphic>FALSE</anamorphic>
                    <file id="file-108">
                      <name>Failure.106.png</name>
                      <pathurl>file://localhost/Users/antoniochiappetta/OneDrive - Aalto University/University/Aalto/Hackatons/Junction/Character Animations/Animations/Failure/Failure.106.png</pathurl>
                      <rate>
                        <timebase>24</timebase>
                        <ntsc>FALSE</ntsc>
                      </rate>
                      <duration>137</duration>
                      <timecode>
                        <rate>
                          <timebase>24</timebase>
                          <ntsc>FALSE</ntsc>
                        </rate>
                      </timecode>
                      <media>
                        <video>
                          <duration>1</duration>
                          <samplecharacteristics>
                            <anamorphic>FALSE</anamorphic>
                            <pixelaspectratio>square</pixelaspectratio>
                            <fielddominance>none</fielddominance>
                            <width>1920</width>
                            <height>1080</height>
                          </samplecharacteristics>
                        </video>
                      </media>
                    </file>
                  </clipitem>
                </track>
              </video>
            </media>
          </clip>
          <clip explodedTracks="true" frameBlend="FALSE" id="masterclip-109">
            <uuid>5b80c52e-7adb-476c-98cf-9008e1eaf0bf</uuid>
            <masterclipid>masterclip-109</masterclipid>
            <ismasterclip>TRUE</ismasterclip>
            <duration>137</duration>
            <in>0</in>
            <out>137</out>
            <name>Failure.107.png</name>
            <rate>
              <timebase>24</timebase>
              <ntsc>FALSE</ntsc>
            </rate>
            <media>
              <video>
                <track>
                  <clipitem frameBlend="FALSE" id="clipitem-110">
                    <name>Failure.107.png</name>
                    <masterclipid>masterclip-109</masterclipid>
                    <rate>
                      <timebase>24</timebase>
                      <ntsc>FALSE</ntsc>
                    </rate>
                    <alphatype>straight</alphatype>
                    <pixelaspectratio>square</pixelaspectratio>
                    <anamorphic>FALSE</anamorphic>
                    <file id="file-109">
                      <name>Failure.107.png</name>
                      <pathurl>file://localhost/Users/antoniochiappetta/OneDrive - Aalto University/University/Aalto/Hackatons/Junction/Character Animations/Animations/Failure/Failure.107.png</pathurl>
                      <rate>
                        <timebase>24</timebase>
                        <ntsc>FALSE</ntsc>
                      </rate>
                      <duration>137</duration>
                      <timecode>
                        <rate>
                          <timebase>24</timebase>
                          <ntsc>FALSE</ntsc>
                        </rate>
                      </timecode>
                      <media>
                        <video>
                          <duration>1</duration>
                          <samplecharacteristics>
                            <anamorphic>FALSE</anamorphic>
                            <pixelaspectratio>square</pixelaspectratio>
                            <fielddominance>none</fielddominance>
                            <width>1920</width>
                            <height>1080</height>
                          </samplecharacteristics>
                        </video>
                      </media>
                    </file>
                  </clipitem>
                </track>
              </video>
            </media>
          </clip>
          <clip explodedTracks="true" frameBlend="FALSE" id="masterclip-110">
            <uuid>28bf62dd-c841-4444-b4f5-5b5a0a56f4a3</uuid>
            <masterclipid>masterclip-110</masterclipid>
            <ismasterclip>TRUE</ismasterclip>
            <duration>137</duration>
            <in>0</in>
            <out>137</out>
            <name>Failure.108.png</name>
            <rate>
              <timebase>24</timebase>
              <ntsc>FALSE</ntsc>
            </rate>
            <media>
              <video>
                <track>
                  <clipitem frameBlend="FALSE" id="clipitem-111">
                    <name>Failure.108.png</name>
                    <masterclipid>masterclip-110</masterclipid>
                    <rate>
                      <timebase>24</timebase>
                      <ntsc>FALSE</ntsc>
                    </rate>
                    <alphatype>straight</alphatype>
                    <pixelaspectratio>square</pixelaspectratio>
                    <anamorphic>FALSE</anamorphic>
                    <file id="file-110">
                      <name>Failure.108.png</name>
                      <pathurl>file://localhost/Users/antoniochiappetta/OneDrive - Aalto University/University/Aalto/Hackatons/Junction/Character Animations/Animations/Failure/Failure.108.png</pathurl>
                      <rate>
                        <timebase>24</timebase>
                        <ntsc>FALSE</ntsc>
                      </rate>
                      <duration>137</duration>
                      <timecode>
                        <rate>
                          <timebase>24</timebase>
                          <ntsc>FALSE</ntsc>
                        </rate>
                      </timecode>
                      <media>
                        <video>
                          <duration>1</duration>
                          <samplecharacteristics>
                            <anamorphic>FALSE</anamorphic>
                            <pixelaspectratio>square</pixelaspectratio>
                            <fielddominance>none</fielddominance>
                            <width>1920</width>
                            <height>1080</height>
                          </samplecharacteristics>
                        </video>
                      </media>
                    </file>
                  </clipitem>
                </track>
              </video>
            </media>
          </clip>
          <clip explodedTracks="true" frameBlend="FALSE" id="masterclip-111">
            <uuid>7083c1dc-a339-4d66-93db-04de364cb8f4</uuid>
            <masterclipid>masterclip-111</masterclipid>
            <ismasterclip>TRUE</ismasterclip>
            <duration>137</duration>
            <in>0</in>
            <out>137</out>
            <name>Failure.109.png</name>
            <rate>
              <timebase>24</timebase>
              <ntsc>FALSE</ntsc>
            </rate>
            <media>
              <video>
                <track>
                  <clipitem frameBlend="FALSE" id="clipitem-112">
                    <name>Failure.109.png</name>
                    <masterclipid>masterclip-111</masterclipid>
                    <rate>
                      <timebase>24</timebase>
                      <ntsc>FALSE</ntsc>
                    </rate>
                    <alphatype>straight</alphatype>
                    <pixelaspectratio>square</pixelaspectratio>
                    <anamorphic>FALSE</anamorphic>
                    <file id="file-111">
                      <name>Failure.109.png</name>
                      <pathurl>file://localhost/Users/antoniochiappetta/OneDrive - Aalto University/University/Aalto/Hackatons/Junction/Character Animations/Animations/Failure/Failure.109.png</pathurl>
                      <rate>
                        <timebase>24</timebase>
                        <ntsc>FALSE</ntsc>
                      </rate>
                      <duration>137</duration>
                      <timecode>
                        <rate>
                          <timebase>24</timebase>
                          <ntsc>FALSE</ntsc>
                        </rate>
                      </timecode>
                      <media>
                        <video>
                          <duration>1</duration>
                          <samplecharacteristics>
                            <anamorphic>FALSE</anamorphic>
                            <pixelaspectratio>square</pixelaspectratio>
                            <fielddominance>none</fielddominance>
                            <width>1920</width>
                            <height>1080</height>
                          </samplecharacteristics>
                        </video>
                      </media>
                    </file>
                  </clipitem>
                </track>
              </video>
            </media>
          </clip>
          <clip explodedTracks="true" frameBlend="FALSE" id="masterclip-112">
            <uuid>7ac65f00-0415-412b-a449-74c6904fa45a</uuid>
            <masterclipid>masterclip-112</masterclipid>
            <ismasterclip>TRUE</ismasterclip>
            <duration>137</duration>
            <in>0</in>
            <out>137</out>
            <name>Failure.110.png</name>
            <rate>
              <timebase>24</timebase>
              <ntsc>FALSE</ntsc>
            </rate>
            <media>
              <video>
                <track>
                  <clipitem frameBlend="FALSE" id="clipitem-113">
                    <name>Failure.110.png</name>
                    <masterclipid>masterclip-112</masterclipid>
                    <rate>
                      <timebase>24</timebase>
                      <ntsc>FALSE</ntsc>
                    </rate>
                    <alphatype>straight</alphatype>
                    <pixelaspectratio>square</pixelaspectratio>
                    <anamorphic>FALSE</anamorphic>
                    <file id="file-112">
                      <name>Failure.110.png</name>
                      <pathurl>file://localhost/Users/antoniochiappetta/OneDrive - Aalto University/University/Aalto/Hackatons/Junction/Character Animations/Animations/Failure/Failure.110.png</pathurl>
                      <rate>
                        <timebase>24</timebase>
                        <ntsc>FALSE</ntsc>
                      </rate>
                      <duration>137</duration>
                      <timecode>
                        <rate>
                          <timebase>24</timebase>
                          <ntsc>FALSE</ntsc>
                        </rate>
                      </timecode>
                      <media>
                        <video>
                          <duration>1</duration>
                          <samplecharacteristics>
                            <anamorphic>FALSE</anamorphic>
                            <pixelaspectratio>square</pixelaspectratio>
                            <fielddominance>none</fielddominance>
                            <width>1920</width>
                            <height>1080</height>
                          </samplecharacteristics>
                        </video>
                      </media>
                    </file>
                  </clipitem>
                </track>
              </video>
            </media>
          </clip>
          <clip explodedTracks="true" frameBlend="FALSE" id="masterclip-113">
            <uuid>551d5e26-b998-4f51-8fb0-a27da698067e</uuid>
            <masterclipid>masterclip-113</masterclipid>
            <ismasterclip>TRUE</ismasterclip>
            <duration>137</duration>
            <in>0</in>
            <out>137</out>
            <name>Failure.111.png</name>
            <rate>
              <timebase>24</timebase>
              <ntsc>FALSE</ntsc>
            </rate>
            <media>
              <video>
                <track>
                  <clipitem frameBlend="FALSE" id="clipitem-114">
                    <name>Failure.111.png</name>
                    <masterclipid>masterclip-113</masterclipid>
                    <rate>
                      <timebase>24</timebase>
                      <ntsc>FALSE</ntsc>
                    </rate>
                    <alphatype>straight</alphatype>
                    <pixelaspectratio>square</pixelaspectratio>
                    <anamorphic>FALSE</anamorphic>
                    <file id="file-113">
                      <name>Failure.111.png</name>
                      <pathurl>file://localhost/Users/antoniochiappetta/OneDrive - Aalto University/University/Aalto/Hackatons/Junction/Character Animations/Animations/Failure/Failure.111.png</pathurl>
                      <rate>
                        <timebase>24</timebase>
                        <ntsc>FALSE</ntsc>
                      </rate>
                      <duration>137</duration>
                      <timecode>
                        <rate>
                          <timebase>24</timebase>
                          <ntsc>FALSE</ntsc>
                        </rate>
                      </timecode>
                      <media>
                        <video>
                          <duration>1</duration>
                          <samplecharacteristics>
                            <anamorphic>FALSE</anamorphic>
                            <pixelaspectratio>square</pixelaspectratio>
                            <fielddominance>none</fielddominance>
                            <width>1920</width>
                            <height>1080</height>
                          </samplecharacteristics>
                        </video>
                      </media>
                    </file>
                  </clipitem>
                </track>
              </video>
            </media>
          </clip>
          <clip explodedTracks="true" frameBlend="FALSE" id="masterclip-114">
            <uuid>6ffd79c1-133c-4761-9fd4-454e86886fd4</uuid>
            <masterclipid>masterclip-114</masterclipid>
            <ismasterclip>TRUE</ismasterclip>
            <duration>137</duration>
            <in>0</in>
            <out>137</out>
            <name>Failure.112.png</name>
            <rate>
              <timebase>24</timebase>
              <ntsc>FALSE</ntsc>
            </rate>
            <media>
              <video>
                <track>
                  <clipitem frameBlend="FALSE" id="clipitem-115">
                    <name>Failure.112.png</name>
                    <masterclipid>masterclip-114</masterclipid>
                    <rate>
                      <timebase>24</timebase>
                      <ntsc>FALSE</ntsc>
                    </rate>
                    <alphatype>straight</alphatype>
                    <pixelaspectratio>square</pixelaspectratio>
                    <anamorphic>FALSE</anamorphic>
                    <file id="file-114">
                      <name>Failure.112.png</name>
                      <pathurl>file://localhost/Users/antoniochiappetta/OneDrive - Aalto University/University/Aalto/Hackatons/Junction/Character Animations/Animations/Failure/Failure.112.png</pathurl>
                      <rate>
                        <timebase>24</timebase>
                        <ntsc>FALSE</ntsc>
                      </rate>
                      <duration>137</duration>
                      <timecode>
                        <rate>
                          <timebase>24</timebase>
                          <ntsc>FALSE</ntsc>
                        </rate>
                      </timecode>
                      <media>
                        <video>
                          <duration>1</duration>
                          <samplecharacteristics>
                            <anamorphic>FALSE</anamorphic>
                            <pixelaspectratio>square</pixelaspectratio>
                            <fielddominance>none</fielddominance>
                            <width>1920</width>
                            <height>1080</height>
                          </samplecharacteristics>
                        </video>
                      </media>
                    </file>
                  </clipitem>
                </track>
              </video>
            </media>
          </clip>
          <clip explodedTracks="true" frameBlend="FALSE" id="masterclip-115">
            <uuid>1430789e-2282-4833-9a86-a7e554fd2b9a</uuid>
            <masterclipid>masterclip-115</masterclipid>
            <ismasterclip>TRUE</ismasterclip>
            <duration>137</duration>
            <in>0</in>
            <out>137</out>
            <name>Failure.113.png</name>
            <rate>
              <timebase>24</timebase>
              <ntsc>FALSE</ntsc>
            </rate>
            <media>
              <video>
                <track>
                  <clipitem frameBlend="FALSE" id="clipitem-116">
                    <name>Failure.113.png</name>
                    <masterclipid>masterclip-115</masterclipid>
                    <rate>
                      <timebase>24</timebase>
                      <ntsc>FALSE</ntsc>
                    </rate>
                    <alphatype>straight</alphatype>
                    <pixelaspectratio>square</pixelaspectratio>
                    <anamorphic>FALSE</anamorphic>
                    <file id="file-115">
                      <name>Failure.113.png</name>
                      <pathurl>file://localhost/Users/antoniochiappetta/OneDrive - Aalto University/University/Aalto/Hackatons/Junction/Character Animations/Animations/Failure/Failure.113.png</pathurl>
                      <rate>
                        <timebase>24</timebase>
                        <ntsc>FALSE</ntsc>
                      </rate>
                      <duration>137</duration>
                      <timecode>
                        <rate>
                          <timebase>24</timebase>
                          <ntsc>FALSE</ntsc>
                        </rate>
                      </timecode>
                      <media>
                        <video>
                          <duration>1</duration>
                          <samplecharacteristics>
                            <anamorphic>FALSE</anamorphic>
                            <pixelaspectratio>square</pixelaspectratio>
                            <fielddominance>none</fielddominance>
                            <width>1920</width>
                            <height>1080</height>
                          </samplecharacteristics>
                        </video>
                      </media>
                    </file>
                  </clipitem>
                </track>
              </video>
            </media>
          </clip>
          <clip explodedTracks="true" frameBlend="FALSE" id="masterclip-116">
            <uuid>764bd353-49d1-405b-ae1e-4dfc9cdac6c2</uuid>
            <masterclipid>masterclip-116</masterclipid>
            <ismasterclip>TRUE</ismasterclip>
            <duration>137</duration>
            <in>0</in>
            <out>137</out>
            <name>Failure.114.png</name>
            <rate>
              <timebase>24</timebase>
              <ntsc>FALSE</ntsc>
            </rate>
            <media>
              <video>
                <track>
                  <clipitem frameBlend="FALSE" id="clipitem-117">
                    <name>Failure.114.png</name>
                    <masterclipid>masterclip-116</masterclipid>
                    <rate>
                      <timebase>24</timebase>
                      <ntsc>FALSE</ntsc>
                    </rate>
                    <alphatype>straight</alphatype>
                    <pixelaspectratio>square</pixelaspectratio>
                    <anamorphic>FALSE</anamorphic>
                    <file id="file-116">
                      <name>Failure.114.png</name>
                      <pathurl>file://localhost/Users/antoniochiappetta/OneDrive - Aalto University/University/Aalto/Hackatons/Junction/Character Animations/Animations/Failure/Failure.114.png</pathurl>
                      <rate>
                        <timebase>24</timebase>
                        <ntsc>FALSE</ntsc>
                      </rate>
                      <duration>137</duration>
                      <timecode>
                        <rate>
                          <timebase>24</timebase>
                          <ntsc>FALSE</ntsc>
                        </rate>
                      </timecode>
                      <media>
                        <video>
                          <duration>1</duration>
                          <samplecharacteristics>
                            <anamorphic>FALSE</anamorphic>
                            <pixelaspectratio>square</pixelaspectratio>
                            <fielddominance>none</fielddominance>
                            <width>1920</width>
                            <height>1080</height>
                          </samplecharacteristics>
                        </video>
                      </media>
                    </file>
                  </clipitem>
                </track>
              </video>
            </media>
          </clip>
          <clip explodedTracks="true" frameBlend="FALSE" id="masterclip-117">
            <uuid>64e92ee4-3fec-4411-9842-fa3d21190af8</uuid>
            <masterclipid>masterclip-117</masterclipid>
            <ismasterclip>TRUE</ismasterclip>
            <duration>137</duration>
            <in>0</in>
            <out>137</out>
            <name>Failure.115.png</name>
            <rate>
              <timebase>24</timebase>
              <ntsc>FALSE</ntsc>
            </rate>
            <media>
              <video>
                <track>
                  <clipitem frameBlend="FALSE" id="clipitem-118">
                    <name>Failure.115.png</name>
                    <masterclipid>masterclip-117</masterclipid>
                    <rate>
                      <timebase>24</timebase>
                      <ntsc>FALSE</ntsc>
                    </rate>
                    <alphatype>straight</alphatype>
                    <pixelaspectratio>square</pixelaspectratio>
                    <anamorphic>FALSE</anamorphic>
                    <file id="file-117">
                      <name>Failure.115.png</name>
                      <pathurl>file://localhost/Users/antoniochiappetta/OneDrive - Aalto University/University/Aalto/Hackatons/Junction/Character Animations/Animations/Failure/Failure.115.png</pathurl>
                      <rate>
                        <timebase>24</timebase>
                        <ntsc>FALSE</ntsc>
                      </rate>
                      <duration>137</duration>
                      <timecode>
                        <rate>
                          <timebase>24</timebase>
                          <ntsc>FALSE</ntsc>
                        </rate>
                      </timecode>
                      <media>
                        <video>
                          <duration>1</duration>
                          <samplecharacteristics>
                            <anamorphic>FALSE</anamorphic>
                            <pixelaspectratio>square</pixelaspectratio>
                            <fielddominance>none</fielddominance>
                            <width>1920</width>
                            <height>1080</height>
                          </samplecharacteristics>
                        </video>
                      </media>
                    </file>
                  </clipitem>
                </track>
              </video>
            </media>
          </clip>
          <clip explodedTracks="true" frameBlend="FALSE" id="masterclip-118">
            <uuid>d5124a35-9eda-4113-8e3f-ab8d38c7fe26</uuid>
            <masterclipid>masterclip-118</masterclipid>
            <ismasterclip>TRUE</ismasterclip>
            <duration>137</duration>
            <in>0</in>
            <out>137</out>
            <name>Failure.116.png</name>
            <rate>
              <timebase>24</timebase>
              <ntsc>FALSE</ntsc>
            </rate>
            <media>
              <video>
                <track>
                  <clipitem frameBlend="FALSE" id="clipitem-119">
                    <name>Failure.116.png</name>
                    <masterclipid>masterclip-118</masterclipid>
                    <rate>
                      <timebase>24</timebase>
                      <ntsc>FALSE</ntsc>
                    </rate>
                    <alphatype>straight</alphatype>
                    <pixelaspectratio>square</pixelaspectratio>
                    <anamorphic>FALSE</anamorphic>
                    <file id="file-118">
                      <name>Failure.116.png</name>
                      <pathurl>file://localhost/Users/antoniochiappetta/OneDrive - Aalto University/University/Aalto/Hackatons/Junction/Character Animations/Animations/Failure/Failure.116.png</pathurl>
                      <rate>
                        <timebase>24</timebase>
                        <ntsc>FALSE</ntsc>
                      </rate>
                      <duration>137</duration>
                      <timecode>
                        <rate>
                          <timebase>24</timebase>
                          <ntsc>FALSE</ntsc>
                        </rate>
                      </timecode>
                      <media>
                        <video>
                          <duration>1</duration>
                          <samplecharacteristics>
                            <anamorphic>FALSE</anamorphic>
                            <pixelaspectratio>square</pixelaspectratio>
                            <fielddominance>none</fielddominance>
                            <width>1920</width>
                            <height>1080</height>
                          </samplecharacteristics>
                        </video>
                      </media>
                    </file>
                  </clipitem>
                </track>
              </video>
            </media>
          </clip>
          <clip explodedTracks="true" frameBlend="FALSE" id="masterclip-119">
            <uuid>04c7e62d-1439-4ba8-a122-7ba7fac96863</uuid>
            <masterclipid>masterclip-119</masterclipid>
            <ismasterclip>TRUE</ismasterclip>
            <duration>137</duration>
            <in>0</in>
            <out>137</out>
            <name>Failure.117.png</name>
            <rate>
              <timebase>24</timebase>
              <ntsc>FALSE</ntsc>
            </rate>
            <media>
              <video>
                <track>
                  <clipitem frameBlend="FALSE" id="clipitem-120">
                    <name>Failure.117.png</name>
                    <masterclipid>masterclip-119</masterclipid>
                    <rate>
                      <timebase>24</timebase>
                      <ntsc>FALSE</ntsc>
                    </rate>
                    <alphatype>straight</alphatype>
                    <pixelaspectratio>square</pixelaspectratio>
                    <anamorphic>FALSE</anamorphic>
                    <file id="file-119">
                      <name>Failure.117.png</name>
                      <pathurl>file://localhost/Users/antoniochiappetta/OneDrive - Aalto University/University/Aalto/Hackatons/Junction/Character Animations/Animations/Failure/Failure.117.png</pathurl>
                      <rate>
                        <timebase>24</timebase>
                        <ntsc>FALSE</ntsc>
                      </rate>
                      <duration>137</duration>
                      <timecode>
                        <rate>
                          <timebase>24</timebase>
                          <ntsc>FALSE</ntsc>
                        </rate>
                      </timecode>
                      <media>
                        <video>
                          <duration>1</duration>
                          <samplecharacteristics>
                            <anamorphic>FALSE</anamorphic>
                            <pixelaspectratio>square</pixelaspectratio>
                            <fielddominance>none</fielddominance>
                            <width>1920</width>
                            <height>1080</height>
                          </samplecharacteristics>
                        </video>
                      </media>
                    </file>
                  </clipitem>
                </track>
              </video>
            </media>
          </clip>
          <clip explodedTracks="true" frameBlend="FALSE" id="masterclip-120">
            <uuid>e48a9dc8-7da2-437d-93f6-63a843829aad</uuid>
            <masterclipid>masterclip-120</masterclipid>
            <ismasterclip>TRUE</ismasterclip>
            <duration>137</duration>
            <in>0</in>
            <out>137</out>
            <name>Failure.118.png</name>
            <rate>
              <timebase>24</timebase>
              <ntsc>FALSE</ntsc>
            </rate>
            <media>
              <video>
                <track>
                  <clipitem frameBlend="FALSE" id="clipitem-121">
                    <name>Failure.118.png</name>
                    <masterclipid>masterclip-120</masterclipid>
                    <rate>
                      <timebase>24</timebase>
                      <ntsc>FALSE</ntsc>
                    </rate>
                    <alphatype>straight</alphatype>
                    <pixelaspectratio>square</pixelaspectratio>
                    <anamorphic>FALSE</anamorphic>
                    <file id="file-120">
                      <name>Failure.118.png</name>
                      <pathurl>file://localhost/Users/antoniochiappetta/OneDrive - Aalto University/University/Aalto/Hackatons/Junction/Character Animations/Animations/Failure/Failure.118.png</pathurl>
                      <rate>
                        <timebase>24</timebase>
                        <ntsc>FALSE</ntsc>
                      </rate>
                      <duration>137</duration>
                      <timecode>
                        <rate>
                          <timebase>24</timebase>
                          <ntsc>FALSE</ntsc>
                        </rate>
                      </timecode>
                      <media>
                        <video>
                          <duration>1</duration>
                          <samplecharacteristics>
                            <anamorphic>FALSE</anamorphic>
                            <pixelaspectratio>square</pixelaspectratio>
                            <fielddominance>none</fielddominance>
                            <width>1920</width>
                            <height>1080</height>
                          </samplecharacteristics>
                        </video>
                      </media>
                    </file>
                  </clipitem>
                </track>
              </video>
            </media>
          </clip>
          <clip explodedTracks="true" frameBlend="FALSE" id="masterclip-121">
            <uuid>0e395a82-8c49-4f34-86f4-48fe488ffc86</uuid>
            <masterclipid>masterclip-121</masterclipid>
            <ismasterclip>TRUE</ismasterclip>
            <duration>137</duration>
            <in>0</in>
            <out>137</out>
            <name>Failure.119.png</name>
            <rate>
              <timebase>24</timebase>
              <ntsc>FALSE</ntsc>
            </rate>
            <media>
              <video>
                <track>
                  <clipitem frameBlend="FALSE" id="clipitem-122">
                    <name>Failure.119.png</name>
                    <masterclipid>masterclip-121</masterclipid>
                    <rate>
                      <timebase>24</timebase>
                      <ntsc>FALSE</ntsc>
                    </rate>
                    <alphatype>straight</alphatype>
                    <pixelaspectratio>square</pixelaspectratio>
                    <anamorphic>FALSE</anamorphic>
                    <file id="file-121">
                      <name>Failure.119.png</name>
                      <pathurl>file://localhost/Users/antoniochiappetta/OneDrive - Aalto University/University/Aalto/Hackatons/Junction/Character Animations/Animations/Failure/Failure.119.png</pathurl>
                      <rate>
                        <timebase>24</timebase>
                        <ntsc>FALSE</ntsc>
                      </rate>
                      <duration>137</duration>
                      <timecode>
                        <rate>
                          <timebase>24</timebase>
                          <ntsc>FALSE</ntsc>
                        </rate>
                      </timecode>
                      <media>
                        <video>
                          <duration>1</duration>
                          <samplecharacteristics>
                            <anamorphic>FALSE</anamorphic>
                            <pixelaspectratio>square</pixelaspectratio>
                            <fielddominance>none</fielddominance>
                            <width>1920</width>
                            <height>1080</height>
                          </samplecharacteristics>
                        </video>
                      </media>
                    </file>
                  </clipitem>
                </track>
              </video>
            </media>
          </clip>
          <clip explodedTracks="true" frameBlend="FALSE" id="masterclip-122">
            <uuid>f8b020c4-6430-4208-8ade-9acf344c79c6</uuid>
            <masterclipid>masterclip-122</masterclipid>
            <ismasterclip>TRUE</ismasterclip>
            <duration>137</duration>
            <in>0</in>
            <out>137</out>
            <name>Failure.120.png</name>
            <rate>
              <timebase>24</timebase>
              <ntsc>FALSE</ntsc>
            </rate>
            <media>
              <video>
                <track>
                  <clipitem frameBlend="FALSE" id="clipitem-123">
                    <name>Failure.120.png</name>
                    <masterclipid>masterclip-122</masterclipid>
                    <rate>
                      <timebase>24</timebase>
                      <ntsc>FALSE</ntsc>
                    </rate>
                    <alphatype>straight</alphatype>
                    <pixelaspectratio>square</pixelaspectratio>
                    <anamorphic>FALSE</anamorphic>
                    <file id="file-122">
                      <name>Failure.120.png</name>
                      <pathurl>file://localhost/Users/antoniochiappetta/OneDrive - Aalto University/University/Aalto/Hackatons/Junction/Character Animations/Animations/Failure/Failure.120.png</pathurl>
                      <rate>
                        <timebase>24</timebase>
                        <ntsc>FALSE</ntsc>
                      </rate>
                      <duration>137</duration>
                      <timecode>
                        <rate>
                          <timebase>24</timebase>
                          <ntsc>FALSE</ntsc>
                        </rate>
                      </timecode>
                      <media>
                        <video>
                          <duration>1</duration>
                          <samplecharacteristics>
                            <anamorphic>FALSE</anamorphic>
                            <pixelaspectratio>square</pixelaspectratio>
                            <fielddominance>none</fielddominance>
                            <width>1920</width>
                            <height>1080</height>
                          </samplecharacteristics>
                        </video>
                      </media>
                    </file>
                  </clipitem>
                </track>
              </video>
            </media>
          </clip>
          <clip explodedTracks="true" frameBlend="FALSE" id="masterclip-123">
            <uuid>e0df3922-c2cb-4878-b6a5-51c4236503b0</uuid>
            <masterclipid>masterclip-123</masterclipid>
            <ismasterclip>TRUE</ismasterclip>
            <duration>137</duration>
            <in>0</in>
            <out>137</out>
            <name>Failure.121.png</name>
            <rate>
              <timebase>24</timebase>
              <ntsc>FALSE</ntsc>
            </rate>
            <media>
              <video>
                <track>
                  <clipitem frameBlend="FALSE" id="clipitem-124">
                    <name>Failure.121.png</name>
                    <masterclipid>masterclip-123</masterclipid>
                    <rate>
                      <timebase>24</timebase>
                      <ntsc>FALSE</ntsc>
                    </rate>
                    <alphatype>straight</alphatype>
                    <pixelaspectratio>square</pixelaspectratio>
                    <anamorphic>FALSE</anamorphic>
                    <file id="file-123">
                      <name>Failure.121.png</name>
                      <pathurl>file://localhost/Users/antoniochiappetta/OneDrive - Aalto University/University/Aalto/Hackatons/Junction/Character Animations/Animations/Failure/Failure.121.png</pathurl>
                      <rate>
                        <timebase>24</timebase>
                        <ntsc>FALSE</ntsc>
                      </rate>
                      <duration>137</duration>
                      <timecode>
                        <rate>
                          <timebase>24</timebase>
                          <ntsc>FALSE</ntsc>
                        </rate>
                      </timecode>
                      <media>
                        <video>
                          <duration>1</duration>
                          <samplecharacteristics>
                            <anamorphic>FALSE</anamorphic>
                            <pixelaspectratio>square</pixelaspectratio>
                            <fielddominance>none</fielddominance>
                            <width>1920</width>
                            <height>1080</height>
                          </samplecharacteristics>
                        </video>
                      </media>
                    </file>
                  </clipitem>
                </track>
              </video>
            </media>
          </clip>
          <clip explodedTracks="true" frameBlend="FALSE" id="masterclip-124">
            <uuid>16508002-cf1c-42a3-bb47-98eedbb00af5</uuid>
            <masterclipid>masterclip-124</masterclipid>
            <ismasterclip>TRUE</ismasterclip>
            <duration>137</duration>
            <in>0</in>
            <out>137</out>
            <name>Failure.122.png</name>
            <rate>
              <timebase>24</timebase>
              <ntsc>FALSE</ntsc>
            </rate>
            <media>
              <video>
                <track>
                  <clipitem frameBlend="FALSE" id="clipitem-125">
                    <name>Failure.122.png</name>
                    <masterclipid>masterclip-124</masterclipid>
                    <rate>
                      <timebase>24</timebase>
                      <ntsc>FALSE</ntsc>
                    </rate>
                    <alphatype>straight</alphatype>
                    <pixelaspectratio>square</pixelaspectratio>
                    <anamorphic>FALSE</anamorphic>
                    <file id="file-124">
                      <name>Failure.122.png</name>
                      <pathurl>file://localhost/Users/antoniochiappetta/OneDrive - Aalto University/University/Aalto/Hackatons/Junction/Character Animations/Animations/Failure/Failure.122.png</pathurl>
                      <rate>
                        <timebase>24</timebase>
                        <ntsc>FALSE</ntsc>
                      </rate>
                      <duration>137</duration>
                      <timecode>
                        <rate>
                          <timebase>24</timebase>
                          <ntsc>FALSE</ntsc>
                        </rate>
                      </timecode>
                      <media>
                        <video>
                          <duration>1</duration>
                          <samplecharacteristics>
                            <anamorphic>FALSE</anamorphic>
                            <pixelaspectratio>square</pixelaspectratio>
                            <fielddominance>none</fielddominance>
                            <width>1920</width>
                            <height>1080</height>
                          </samplecharacteristics>
                        </video>
                      </media>
                    </file>
                  </clipitem>
                </track>
              </video>
            </media>
          </clip>
          <clip explodedTracks="true" frameBlend="FALSE" id="masterclip-125">
            <uuid>9d148bfc-7ed3-489d-9ce3-53b35095bc7c</uuid>
            <masterclipid>masterclip-125</masterclipid>
            <ismasterclip>TRUE</ismasterclip>
            <duration>137</duration>
            <in>0</in>
            <out>137</out>
            <name>Failure.123.png</name>
            <rate>
              <timebase>24</timebase>
              <ntsc>FALSE</ntsc>
            </rate>
            <media>
              <video>
                <track>
                  <clipitem frameBlend="FALSE" id="clipitem-126">
                    <name>Failure.123.png</name>
                    <masterclipid>masterclip-125</masterclipid>
                    <rate>
                      <timebase>24</timebase>
                      <ntsc>FALSE</ntsc>
                    </rate>
                    <alphatype>straight</alphatype>
                    <pixelaspectratio>square</pixelaspectratio>
                    <anamorphic>FALSE</anamorphic>
                    <file id="file-125">
                      <name>Failure.123.png</name>
                      <pathurl>file://localhost/Users/antoniochiappetta/OneDrive - Aalto University/University/Aalto/Hackatons/Junction/Character Animations/Animations/Failure/Failure.123.png</pathurl>
                      <rate>
                        <timebase>24</timebase>
                        <ntsc>FALSE</ntsc>
                      </rate>
                      <duration>137</duration>
                      <timecode>
                        <rate>
                          <timebase>24</timebase>
                          <ntsc>FALSE</ntsc>
                        </rate>
                      </timecode>
                      <media>
                        <video>
                          <duration>1</duration>
                          <samplecharacteristics>
                            <anamorphic>FALSE</anamorphic>
                            <pixelaspectratio>square</pixelaspectratio>
                            <fielddominance>none</fielddominance>
                            <width>1920</width>
                            <height>1080</height>
                          </samplecharacteristics>
                        </video>
                      </media>
                    </file>
                  </clipitem>
                </track>
              </video>
            </media>
          </clip>
          <clip explodedTracks="true" frameBlend="FALSE" id="masterclip-126">
            <uuid>1d68c3d8-4587-4f4e-b57a-1ebb296366c0</uuid>
            <masterclipid>masterclip-126</masterclipid>
            <ismasterclip>TRUE</ismasterclip>
            <duration>137</duration>
            <in>0</in>
            <out>137</out>
            <name>Failure.124.png</name>
            <rate>
              <timebase>24</timebase>
              <ntsc>FALSE</ntsc>
            </rate>
            <media>
              <video>
                <track>
                  <clipitem frameBlend="FALSE" id="clipitem-127">
                    <name>Failure.124.png</name>
                    <masterclipid>masterclip-126</masterclipid>
                    <rate>
                      <timebase>24</timebase>
                      <ntsc>FALSE</ntsc>
                    </rate>
                    <alphatype>straight</alphatype>
                    <pixelaspectratio>square</pixelaspectratio>
                    <anamorphic>FALSE</anamorphic>
                    <file id="file-126">
                      <name>Failure.124.png</name>
                      <pathurl>file://localhost/Users/antoniochiappetta/OneDrive - Aalto University/University/Aalto/Hackatons/Junction/Character Animations/Animations/Failure/Failure.124.png</pathurl>
                      <rate>
                        <timebase>24</timebase>
                        <ntsc>FALSE</ntsc>
                      </rate>
                      <duration>137</duration>
                      <timecode>
                        <rate>
                          <timebase>24</timebase>
                          <ntsc>FALSE</ntsc>
                        </rate>
                      </timecode>
                      <media>
                        <video>
                          <duration>1</duration>
                          <samplecharacteristics>
                            <anamorphic>FALSE</anamorphic>
                            <pixelaspectratio>square</pixelaspectratio>
                            <fielddominance>none</fielddominance>
                            <width>1920</width>
                            <height>1080</height>
                          </samplecharacteristics>
                        </video>
                      </media>
                    </file>
                  </clipitem>
                </track>
              </video>
            </media>
          </clip>
          <clip explodedTracks="true" frameBlend="FALSE" id="masterclip-127">
            <uuid>2d204dcd-27f2-40eb-a964-849e7b507e79</uuid>
            <masterclipid>masterclip-127</masterclipid>
            <ismasterclip>TRUE</ismasterclip>
            <duration>137</duration>
            <in>0</in>
            <out>137</out>
            <name>Failure.125.png</name>
            <rate>
              <timebase>24</timebase>
              <ntsc>FALSE</ntsc>
            </rate>
            <media>
              <video>
                <track>
                  <clipitem frameBlend="FALSE" id="clipitem-128">
                    <name>Failure.125.png</name>
                    <masterclipid>masterclip-127</masterclipid>
                    <rate>
                      <timebase>24</timebase>
                      <ntsc>FALSE</ntsc>
                    </rate>
                    <alphatype>straight</alphatype>
                    <pixelaspectratio>square</pixelaspectratio>
                    <anamorphic>FALSE</anamorphic>
                    <file id="file-127">
                      <name>Failure.125.png</name>
                      <pathurl>file://localhost/Users/antoniochiappetta/OneDrive - Aalto University/University/Aalto/Hackatons/Junction/Character Animations/Animations/Failure/Failure.125.png</pathurl>
                      <rate>
                        <timebase>24</timebase>
                        <ntsc>FALSE</ntsc>
                      </rate>
                      <duration>137</duration>
                      <timecode>
                        <rate>
                          <timebase>24</timebase>
                          <ntsc>FALSE</ntsc>
                        </rate>
                      </timecode>
                      <media>
                        <video>
                          <duration>1</duration>
                          <samplecharacteristics>
                            <anamorphic>FALSE</anamorphic>
                            <pixelaspectratio>square</pixelaspectratio>
                            <fielddominance>none</fielddominance>
                            <width>1920</width>
                            <height>1080</height>
                          </samplecharacteristics>
                        </video>
                      </media>
                    </file>
                  </clipitem>
                </track>
              </video>
            </media>
          </clip>
          <clip explodedTracks="true" frameBlend="FALSE" id="masterclip-128">
            <uuid>f478ab5f-d805-4954-a038-6729ef8c0c49</uuid>
            <masterclipid>masterclip-128</masterclipid>
            <ismasterclip>TRUE</ismasterclip>
            <duration>137</duration>
            <in>0</in>
            <out>137</out>
            <name>Failure.126.png</name>
            <rate>
              <timebase>24</timebase>
              <ntsc>FALSE</ntsc>
            </rate>
            <media>
              <video>
                <track>
                  <clipitem frameBlend="FALSE" id="clipitem-129">
                    <name>Failure.126.png</name>
                    <masterclipid>masterclip-128</masterclipid>
                    <rate>
                      <timebase>24</timebase>
                      <ntsc>FALSE</ntsc>
                    </rate>
                    <alphatype>straight</alphatype>
                    <pixelaspectratio>square</pixelaspectratio>
                    <anamorphic>FALSE</anamorphic>
                    <file id="file-128">
                      <name>Failure.126.png</name>
                      <pathurl>file://localhost/Users/antoniochiappetta/OneDrive - Aalto University/University/Aalto/Hackatons/Junction/Character Animations/Animations/Failure/Failure.126.png</pathurl>
                      <rate>
                        <timebase>24</timebase>
                        <ntsc>FALSE</ntsc>
                      </rate>
                      <duration>137</duration>
                      <timecode>
                        <rate>
                          <timebase>24</timebase>
                          <ntsc>FALSE</ntsc>
                        </rate>
                      </timecode>
                      <media>
                        <video>
                          <duration>1</duration>
                          <samplecharacteristics>
                            <anamorphic>FALSE</anamorphic>
                            <pixelaspectratio>square</pixelaspectratio>
                            <fielddominance>none</fielddominance>
                            <width>1920</width>
                            <height>1080</height>
                          </samplecharacteristics>
                        </video>
                      </media>
                    </file>
                  </clipitem>
                </track>
              </video>
            </media>
          </clip>
          <clip explodedTracks="true" frameBlend="FALSE" id="masterclip-129">
            <uuid>40a04ee2-26e1-4077-92b3-f830b796306b</uuid>
            <masterclipid>masterclip-129</masterclipid>
            <ismasterclip>TRUE</ismasterclip>
            <duration>137</duration>
            <in>0</in>
            <out>137</out>
            <name>Failure.127.png</name>
            <rate>
              <timebase>24</timebase>
              <ntsc>FALSE</ntsc>
            </rate>
            <media>
              <video>
                <track>
                  <clipitem frameBlend="FALSE" id="clipitem-130">
                    <name>Failure.127.png</name>
                    <masterclipid>masterclip-129</masterclipid>
                    <rate>
                      <timebase>24</timebase>
                      <ntsc>FALSE</ntsc>
                    </rate>
                    <alphatype>straight</alphatype>
                    <pixelaspectratio>square</pixelaspectratio>
                    <anamorphic>FALSE</anamorphic>
                    <file id="file-129">
                      <name>Failure.127.png</name>
                      <pathurl>file://localhost/Users/antoniochiappetta/OneDrive - Aalto University/University/Aalto/Hackatons/Junction/Character Animations/Animations/Failure/Failure.127.png</pathurl>
                      <rate>
                        <timebase>24</timebase>
                        <ntsc>FALSE</ntsc>
                      </rate>
                      <duration>137</duration>
                      <timecode>
                        <rate>
                          <timebase>24</timebase>
                          <ntsc>FALSE</ntsc>
                        </rate>
                      </timecode>
                      <media>
                        <video>
                          <duration>1</duration>
                          <samplecharacteristics>
                            <anamorphic>FALSE</anamorphic>
                            <pixelaspectratio>square</pixelaspectratio>
                            <fielddominance>none</fielddominance>
                            <width>1920</width>
                            <height>1080</height>
                          </samplecharacteristics>
                        </video>
                      </media>
                    </file>
                  </clipitem>
                </track>
              </video>
            </media>
          </clip>
          <clip explodedTracks="true" frameBlend="FALSE" id="masterclip-130">
            <uuid>53b7c497-117a-4284-8bca-2d67f1828b1b</uuid>
            <masterclipid>masterclip-130</masterclipid>
            <ismasterclip>TRUE</ismasterclip>
            <duration>137</duration>
            <in>0</in>
            <out>137</out>
            <name>Failure.128.png</name>
            <rate>
              <timebase>24</timebase>
              <ntsc>FALSE</ntsc>
            </rate>
            <media>
              <video>
                <track>
                  <clipitem frameBlend="FALSE" id="clipitem-131">
                    <name>Failure.128.png</name>
                    <masterclipid>masterclip-130</masterclipid>
                    <rate>
                      <timebase>24</timebase>
                      <ntsc>FALSE</ntsc>
                    </rate>
                    <alphatype>straight</alphatype>
                    <pixelaspectratio>square</pixelaspectratio>
                    <anamorphic>FALSE</anamorphic>
                    <file id="file-130">
                      <name>Failure.128.png</name>
                      <pathurl>file://localhost/Users/antoniochiappetta/OneDrive - Aalto University/University/Aalto/Hackatons/Junction/Character Animations/Animations/Failure/Failure.128.png</pathurl>
                      <rate>
                        <timebase>24</timebase>
                        <ntsc>FALSE</ntsc>
                      </rate>
                      <duration>137</duration>
                      <timecode>
                        <rate>
                          <timebase>24</timebase>
                          <ntsc>FALSE</ntsc>
                        </rate>
                      </timecode>
                      <media>
                        <video>
                          <duration>1</duration>
                          <samplecharacteristics>
                            <anamorphic>FALSE</anamorphic>
                            <pixelaspectratio>square</pixelaspectratio>
                            <fielddominance>none</fielddominance>
                            <width>1920</width>
                            <height>1080</height>
                          </samplecharacteristics>
                        </video>
                      </media>
                    </file>
                  </clipitem>
                </track>
              </video>
            </media>
          </clip>
          <clip explodedTracks="true" frameBlend="FALSE" id="masterclip-131">
            <uuid>54445582-31e4-48d6-8a4e-34040e002d67</uuid>
            <masterclipid>masterclip-131</masterclipid>
            <ismasterclip>TRUE</ismasterclip>
            <duration>137</duration>
            <in>0</in>
            <out>137</out>
            <name>Failure.129.png</name>
            <rate>
              <timebase>24</timebase>
              <ntsc>FALSE</ntsc>
            </rate>
            <media>
              <video>
                <track>
                  <clipitem frameBlend="FALSE" id="clipitem-132">
                    <name>Failure.129.png</name>
                    <masterclipid>masterclip-131</masterclipid>
                    <rate>
                      <timebase>24</timebase>
                      <ntsc>FALSE</ntsc>
                    </rate>
                    <alphatype>straight</alphatype>
                    <pixelaspectratio>square</pixelaspectratio>
                    <anamorphic>FALSE</anamorphic>
                    <file id="file-131">
                      <name>Failure.129.png</name>
                      <pathurl>file://localhost/Users/antoniochiappetta/OneDrive - Aalto University/University/Aalto/Hackatons/Junction/Character Animations/Animations/Failure/Failure.129.png</pathurl>
                      <rate>
                        <timebase>24</timebase>
                        <ntsc>FALSE</ntsc>
                      </rate>
                      <duration>137</duration>
                      <timecode>
                        <rate>
                          <timebase>24</timebase>
                          <ntsc>FALSE</ntsc>
                        </rate>
                      </timecode>
                      <media>
                        <video>
                          <duration>1</duration>
                          <samplecharacteristics>
                            <anamorphic>FALSE</anamorphic>
                            <pixelaspectratio>square</pixelaspectratio>
                            <fielddominance>none</fielddominance>
                            <width>1920</width>
                            <height>1080</height>
                          </samplecharacteristics>
                        </video>
                      </media>
                    </file>
                  </clipitem>
                </track>
              </video>
            </media>
          </clip>
          <clip explodedTracks="true" frameBlend="FALSE" id="masterclip-132">
            <uuid>b3cf7df0-0ef4-4074-91d8-8af1200b4db5</uuid>
            <masterclipid>masterclip-132</masterclipid>
            <ismasterclip>TRUE</ismasterclip>
            <duration>137</duration>
            <in>0</in>
            <out>137</out>
            <name>Failure.130.png</name>
            <rate>
              <timebase>24</timebase>
              <ntsc>FALSE</ntsc>
            </rate>
            <media>
              <video>
                <track>
                  <clipitem frameBlend="FALSE" id="clipitem-133">
                    <name>Failure.130.png</name>
                    <masterclipid>masterclip-132</masterclipid>
                    <rate>
                      <timebase>24</timebase>
                      <ntsc>FALSE</ntsc>
                    </rate>
                    <alphatype>straight</alphatype>
                    <pixelaspectratio>square</pixelaspectratio>
                    <anamorphic>FALSE</anamorphic>
                    <file id="file-132">
                      <name>Failure.130.png</name>
                      <pathurl>file://localhost/Users/antoniochiappetta/OneDrive - Aalto University/University/Aalto/Hackatons/Junction/Character Animations/Animations/Failure/Failure.130.png</pathurl>
                      <rate>
                        <timebase>24</timebase>
                        <ntsc>FALSE</ntsc>
                      </rate>
                      <duration>137</duration>
                      <timecode>
                        <rate>
                          <timebase>24</timebase>
                          <ntsc>FALSE</ntsc>
                        </rate>
                      </timecode>
                      <media>
                        <video>
                          <duration>1</duration>
                          <samplecharacteristics>
                            <anamorphic>FALSE</anamorphic>
                            <pixelaspectratio>square</pixelaspectratio>
                            <fielddominance>none</fielddominance>
                            <width>1920</width>
                            <height>1080</height>
                          </samplecharacteristics>
                        </video>
                      </media>
                    </file>
                  </clipitem>
                </track>
              </video>
            </media>
          </clip>
          <clip explodedTracks="true" frameBlend="FALSE" id="masterclip-133">
            <uuid>a29badbe-b1d5-4d96-b2a3-10111d749f24</uuid>
            <masterclipid>masterclip-133</masterclipid>
            <ismasterclip>TRUE</ismasterclip>
            <duration>137</duration>
            <in>0</in>
            <out>137</out>
            <name>Failure.131.png</name>
            <rate>
              <timebase>24</timebase>
              <ntsc>FALSE</ntsc>
            </rate>
            <media>
              <video>
                <track>
                  <clipitem frameBlend="FALSE" id="clipitem-134">
                    <name>Failure.131.png</name>
                    <masterclipid>masterclip-133</masterclipid>
                    <rate>
                      <timebase>24</timebase>
                      <ntsc>FALSE</ntsc>
                    </rate>
                    <alphatype>straight</alphatype>
                    <pixelaspectratio>square</pixelaspectratio>
                    <anamorphic>FALSE</anamorphic>
                    <file id="file-133">
                      <name>Failure.131.png</name>
                      <pathurl>file://localhost/Users/antoniochiappetta/OneDrive - Aalto University/University/Aalto/Hackatons/Junction/Character Animations/Animations/Failure/Failure.131.png</pathurl>
                      <rate>
                        <timebase>24</timebase>
                        <ntsc>FALSE</ntsc>
                      </rate>
                      <duration>137</duration>
                      <timecode>
                        <rate>
                          <timebase>24</timebase>
                          <ntsc>FALSE</ntsc>
                        </rate>
                      </timecode>
                      <media>
                        <video>
                          <duration>1</duration>
                          <samplecharacteristics>
                            <anamorphic>FALSE</anamorphic>
                            <pixelaspectratio>square</pixelaspectratio>
                            <fielddominance>none</fielddominance>
                            <width>1920</width>
                            <height>1080</height>
                          </samplecharacteristics>
                        </video>
                      </media>
                    </file>
                  </clipitem>
                </track>
              </video>
            </media>
          </clip>
          <clip explodedTracks="true" frameBlend="FALSE" id="masterclip-134">
            <uuid>2542d43d-cbef-4d43-bcd1-83c0f6bfeddf</uuid>
            <masterclipid>masterclip-134</masterclipid>
            <ismasterclip>TRUE</ismasterclip>
            <duration>137</duration>
            <in>0</in>
            <out>137</out>
            <name>Failure.132.png</name>
            <rate>
              <timebase>24</timebase>
              <ntsc>FALSE</ntsc>
            </rate>
            <media>
              <video>
                <track>
                  <clipitem frameBlend="FALSE" id="clipitem-135">
                    <name>Failure.132.png</name>
                    <masterclipid>masterclip-134</masterclipid>
                    <rate>
                      <timebase>24</timebase>
                      <ntsc>FALSE</ntsc>
                    </rate>
                    <alphatype>straight</alphatype>
                    <pixelaspectratio>square</pixelaspectratio>
                    <anamorphic>FALSE</anamorphic>
                    <file id="file-134">
                      <name>Failure.132.png</name>
                      <pathurl>file://localhost/Users/antoniochiappetta/OneDrive - Aalto University/University/Aalto/Hackatons/Junction/Character Animations/Animations/Failure/Failure.132.png</pathurl>
                      <rate>
                        <timebase>24</timebase>
                        <ntsc>FALSE</ntsc>
                      </rate>
                      <duration>137</duration>
                      <timecode>
                        <rate>
                          <timebase>24</timebase>
                          <ntsc>FALSE</ntsc>
                        </rate>
                      </timecode>
                      <media>
                        <video>
                          <duration>1</duration>
                          <samplecharacteristics>
                            <anamorphic>FALSE</anamorphic>
                            <pixelaspectratio>square</pixelaspectratio>
                            <fielddominance>none</fielddominance>
                            <width>1920</width>
                            <height>1080</height>
                          </samplecharacteristics>
                        </video>
                      </media>
                    </file>
                  </clipitem>
                </track>
              </video>
            </media>
          </clip>
          <clip explodedTracks="true" frameBlend="FALSE" id="masterclip-135">
            <uuid>9b9c3e37-e10f-4c4e-8466-32d05ae1500f</uuid>
            <masterclipid>masterclip-135</masterclipid>
            <ismasterclip>TRUE</ismasterclip>
            <duration>137</duration>
            <in>0</in>
            <out>137</out>
            <name>Failure.133.png</name>
            <rate>
              <timebase>24</timebase>
              <ntsc>FALSE</ntsc>
            </rate>
            <media>
              <video>
                <track>
                  <clipitem frameBlend="FALSE" id="clipitem-136">
                    <name>Failure.133.png</name>
                    <masterclipid>masterclip-135</masterclipid>
                    <rate>
                      <timebase>24</timebase>
                      <ntsc>FALSE</ntsc>
                    </rate>
                    <alphatype>straight</alphatype>
                    <pixelaspectratio>square</pixelaspectratio>
                    <anamorphic>FALSE</anamorphic>
                    <file id="file-135">
                      <name>Failure.133.png</name>
                      <pathurl>file://localhost/Users/antoniochiappetta/OneDrive - Aalto University/University/Aalto/Hackatons/Junction/Character Animations/Animations/Failure/Failure.133.png</pathurl>
                      <rate>
                        <timebase>24</timebase>
                        <ntsc>FALSE</ntsc>
                      </rate>
                      <duration>137</duration>
                      <timecode>
                        <rate>
                          <timebase>24</timebase>
                          <ntsc>FALSE</ntsc>
                        </rate>
                      </timecode>
                      <media>
                        <video>
                          <duration>1</duration>
                          <samplecharacteristics>
                            <anamorphic>FALSE</anamorphic>
                            <pixelaspectratio>square</pixelaspectratio>
                            <fielddominance>none</fielddominance>
                            <width>1920</width>
                            <height>1080</height>
                          </samplecharacteristics>
                        </video>
                      </media>
                    </file>
                  </clipitem>
                </track>
              </video>
            </media>
          </clip>
          <clip explodedTracks="true" frameBlend="FALSE" id="masterclip-136">
            <uuid>5c7e3540-1110-4886-be3d-66227d1b3ede</uuid>
            <masterclipid>masterclip-136</masterclipid>
            <ismasterclip>TRUE</ismasterclip>
            <duration>137</duration>
            <in>0</in>
            <out>137</out>
            <name>Failure.134.png</name>
            <rate>
              <timebase>24</timebase>
              <ntsc>FALSE</ntsc>
            </rate>
            <media>
              <video>
                <track>
                  <clipitem frameBlend="FALSE" id="clipitem-137">
                    <name>Failure.134.png</name>
                    <masterclipid>masterclip-136</masterclipid>
                    <rate>
                      <timebase>24</timebase>
                      <ntsc>FALSE</ntsc>
                    </rate>
                    <alphatype>straight</alphatype>
                    <pixelaspectratio>square</pixelaspectratio>
                    <anamorphic>FALSE</anamorphic>
                    <file id="file-136">
                      <name>Failure.134.png</name>
                      <pathurl>file://localhost/Users/antoniochiappetta/OneDrive - Aalto University/University/Aalto/Hackatons/Junction/Character Animations/Animations/Failure/Failure.134.png</pathurl>
                      <rate>
                        <timebase>24</timebase>
                        <ntsc>FALSE</ntsc>
                      </rate>
                      <duration>137</duration>
                      <timecode>
                        <rate>
                          <timebase>24</timebase>
                          <ntsc>FALSE</ntsc>
                        </rate>
                      </timecode>
                      <media>
                        <video>
                          <duration>1</duration>
                          <samplecharacteristics>
                            <anamorphic>FALSE</anamorphic>
                            <pixelaspectratio>square</pixelaspectratio>
                            <fielddominance>none</fielddominance>
                            <width>1920</width>
                            <height>1080</height>
                          </samplecharacteristics>
                        </video>
                      </media>
                    </file>
                  </clipitem>
                </track>
              </video>
            </media>
          </clip>
          <clip explodedTracks="true" frameBlend="FALSE" id="masterclip-137">
            <uuid>87e79e8b-6120-4d9d-a05e-6e1371732079</uuid>
            <masterclipid>masterclip-137</masterclipid>
            <ismasterclip>TRUE</ismasterclip>
            <duration>137</duration>
            <in>0</in>
            <out>137</out>
            <name>Failure.135.png</name>
            <rate>
              <timebase>24</timebase>
              <ntsc>FALSE</ntsc>
            </rate>
            <media>
              <video>
                <track>
                  <clipitem frameBlend="FALSE" id="clipitem-138">
                    <name>Failure.135.png</name>
                    <masterclipid>masterclip-137</masterclipid>
                    <rate>
                      <timebase>24</timebase>
                      <ntsc>FALSE</ntsc>
                    </rate>
                    <alphatype>straight</alphatype>
                    <pixelaspectratio>square</pixelaspectratio>
                    <anamorphic>FALSE</anamorphic>
                    <file id="file-137">
                      <name>Failure.135.png</name>
                      <pathurl>file://localhost/Users/antoniochiappetta/OneDrive - Aalto University/University/Aalto/Hackatons/Junction/Character Animations/Animations/Failure/Failure.135.png</pathurl>
                      <rate>
                        <timebase>24</timebase>
                        <ntsc>FALSE</ntsc>
                      </rate>
                      <duration>137</duration>
                      <timecode>
                        <rate>
                          <timebase>24</timebase>
                          <ntsc>FALSE</ntsc>
                        </rate>
                      </timecode>
                      <media>
                        <video>
                          <duration>1</duration>
                          <samplecharacteristics>
                            <anamorphic>FALSE</anamorphic>
                            <pixelaspectratio>square</pixelaspectratio>
                            <fielddominance>none</fielddominance>
                            <width>1920</width>
                            <height>1080</height>
                          </samplecharacteristics>
                        </video>
                      </media>
                    </file>
                  </clipitem>
                </track>
              </video>
            </media>
          </clip>
          <clip explodedTracks="true" frameBlend="FALSE" id="masterclip-138">
            <uuid>a69428ae-a90d-4360-97ed-59c33bb23a3e</uuid>
            <masterclipid>masterclip-138</masterclipid>
            <ismasterclip>TRUE</ismasterclip>
            <duration>137</duration>
            <in>0</in>
            <out>137</out>
            <name>Failure.136.png</name>
            <rate>
              <timebase>24</timebase>
              <ntsc>FALSE</ntsc>
            </rate>
            <media>
              <video>
                <track>
                  <clipitem frameBlend="FALSE" id="clipitem-139">
                    <name>Failure.136.png</name>
                    <masterclipid>masterclip-138</masterclipid>
                    <rate>
                      <timebase>24</timebase>
                      <ntsc>FALSE</ntsc>
                    </rate>
                    <alphatype>straight</alphatype>
                    <pixelaspectratio>square</pixelaspectratio>
                    <anamorphic>FALSE</anamorphic>
                    <file id="file-138">
                      <name>Failure.136.png</name>
                      <pathurl>file://localhost/Users/antoniochiappetta/OneDrive - Aalto University/University/Aalto/Hackatons/Junction/Character Animations/Animations/Failure/Failure.136.png</pathurl>
                      <rate>
                        <timebase>24</timebase>
                        <ntsc>FALSE</ntsc>
                      </rate>
                      <duration>137</duration>
                      <timecode>
                        <rate>
                          <timebase>24</timebase>
                          <ntsc>FALSE</ntsc>
                        </rate>
                      </timecode>
                      <media>
                        <video>
                          <duration>1</duration>
                          <samplecharacteristics>
                            <anamorphic>FALSE</anamorphic>
                            <pixelaspectratio>square</pixelaspectratio>
                            <fielddominance>none</fielddominance>
                            <width>1920</width>
                            <height>1080</height>
                          </samplecharacteristics>
                        </video>
                      </media>
                    </file>
                  </clipitem>
                </track>
              </video>
            </media>
          </clip>
        </children>
      </bin>
    </children>
  </project>

</xmeml>
