<svg xmlns="http://www.w3.org/2000/svg" width="585" height="389" viewBox="0 0 585 389"><defs><style>.cls-1{fill:none;stroke-linecap:round;stroke-linejoin:round;stroke-width:22px;}.cls-1,.cls-8{stroke:#fbb03b;}.cls-2{fill:#fff;}.cls-3,.cls-6{fill:#3fa9f5;}.cls-4,.cls-7{fill:#ed1c24;}.cls-5,.cls-8{fill:#fbb03b;}.cls-6{stroke:#3fa9f5;}.cls-6,.cls-7,.cls-8{stroke-miterlimit:10;}.cls-6,.cls-8{stroke-width:4px;}.cls-7{stroke:#ed1c24;}</style></defs><title>Risorsa 4</title><g id="Livello_2" data-name="Livello 2"><g id="Livello_6" data-name="Livello 6"><rect class="cls-1" x="11" y="11" width="563" height="367" rx="52.7"/></g><g id="Livello_5" data-name="Livello 5"><path class="cls-2" d="M67.14,185.17a12.32,12.32,0,0,1-12.31-12.31v-7.29a12.32,12.32,0,0,1,12.31-12.3h8.65V76.73H67.14a12.32,12.32,0,0,1-12.31-12.3V57.14A12.32,12.32,0,0,1,67.14,44.83h49.2a12.31,12.31,0,0,1,12.3,12.31v7.29a12.31,12.31,0,0,1-12.3,12.3h-8.65v76.54h8.65a12.31,12.31,0,0,1,12.3,12.3v7.29a12.31,12.31,0,0,1-12.3,12.31Z"/><path class="cls-3" d="M116.34,51.67a5.47,5.47,0,0,1,5.47,5.47v7.29a5.46,5.46,0,0,1-5.47,5.46h-10a5.47,5.47,0,0,0-5.47,5.47v79.28a5.47,5.47,0,0,0,5.47,5.47h10a5.46,5.46,0,0,1,5.47,5.46v7.29a5.47,5.47,0,0,1-5.47,5.47H67.14a5.47,5.47,0,0,1-5.47-5.47v-7.29a5.46,5.46,0,0,1,5.47-5.46h10a5.47,5.47,0,0,0,5.47-5.47V75.36a5.47,5.47,0,0,0-5.47-5.47h-10a5.46,5.46,0,0,1-5.47-5.46V57.14a5.47,5.47,0,0,1,5.47-5.47h49.2m0-13.67H67.14A19.15,19.15,0,0,0,48,57.14v7.29A19.15,19.15,0,0,0,67.14,83.56H69v62.88H67.14A19.15,19.15,0,0,0,48,165.57v7.29A19.15,19.15,0,0,0,67.14,192h49.2a19.16,19.16,0,0,0,19.14-19.14v-7.29a19.16,19.16,0,0,0-19.14-19.13h-1.82V83.56h1.82a19.16,19.16,0,0,0,19.14-19.13V57.14A19.16,19.16,0,0,0,116.34,38Z"/><circle class="cls-2" cx="91.59" cy="274.77" r="31.21"/><path class="cls-4" d="M91.59,250.4a24.38,24.38,0,1,1-24.38,24.37A24.37,24.37,0,0,1,91.59,250.4m0-13.67a38,38,0,1,0,38,38,38.09,38.09,0,0,0-38-38Z"/><path class="cls-2" d="M291.46,347.71a13.8,13.8,0,0,1-10.37-4.36l-22-24.68v17.72c0,6.35-5.75,11.32-13.09,11.32H233.12c-7.35,0-13.1-5-13.1-11.32V219.16c0-6.35,5.75-11.33,13.1-11.33H246c7.34,0,13.09,5,13.09,11.33v12.59l17.43-19.56a13.81,13.81,0,0,1,10.38-4.36h16.19c5.25,0,9.85,2.72,11.74,6.93a10,10,0,0,1-1.78,10.82l-44.24,49.63L317.61,330a10,10,0,0,1,1.78,10.82c-1.89,4.2-6.49,6.92-11.74,6.92Z"/><path class="cls-5" d="M303.09,214.67c4.56,0,7.31,3.61,4.86,6.36l-39.18,44-9.12,10.22,9.12,10.23,43.74,49.07c2.45,2.76-.3,6.37-4.86,6.37H291.46a7.09,7.09,0,0,1-5.27-2.08l-17.42-19.54-16.51-18.52v35.65c0,2.48-2.8,4.49-6.26,4.49H233.12c-3.46,0-6.26-2-6.26-4.49V219.16c0-2.48,2.8-4.49,6.26-4.49H246c3.46,0,6.26,2,6.26,4.49v30.53l16.51-18.52,12.86-14.43a7.11,7.11,0,0,1,5.27-2.07h16.19m0-13.67H286.9a20.63,20.63,0,0,0-15.48,6.65l-6.13,6.88a17.87,17.87,0,0,0-6.9-9.65A21.36,21.36,0,0,0,246,201H233.12a21.42,21.42,0,0,0-12.4,3.88,17.48,17.48,0,0,0-7.53,14.28V336.39a17.49,17.49,0,0,0,7.53,14.28,21.41,21.41,0,0,0,12.4,3.87H246a21.35,21.35,0,0,0,12.39-3.87,17.5,17.5,0,0,0,7.53-14.06L276,347.9a20.62,20.62,0,0,0,15.47,6.64h16.19c7.93,0,15-4.3,18-11a16.72,16.72,0,0,0-2.91-18.16L279,276.34l-1-1.13,1-1.12,39.18-44A16.73,16.73,0,0,0,321.06,212c-3-6.66-10-11-18-11Z"/><path class="cls-6" d="M150.37,93.79v1.72a25,25,0,0,1,8.23-7.29,22,22,0,0,1,10.27-2.32A20.45,20.45,0,0,1,179,88.36a15.55,15.55,0,0,1,6.63,6.94,16.45,16.45,0,0,1,1.83,5.65,58.09,58.09,0,0,1,.42,7.73v26.54q0,4.29-2,6.48a6.5,6.5,0,0,1-5.09,2.19,6.58,6.58,0,0,1-5.17-2.24,9.38,9.38,0,0,1-2-6.43V111.45q0-7-2-10.79t-7.81-3.74a11.55,11.55,0,0,0-6.95,2.28,13,13,0,0,0-4.6,6.24c-.69,2.12-1,6.1-1,11.91v17.87q0,4.34-2,6.5a6.76,6.76,0,0,1-5.2,2.17,6.47,6.47,0,0,1-5.07-2.24,9.43,9.43,0,0,1-2-6.43V94q0-4.08,1.77-6.09a6.17,6.17,0,0,1,4.86-2,6.61,6.61,0,0,1,3.4.89,6.36,6.36,0,0,1,2.43,2.66A9.41,9.41,0,0,1,150.37,93.79Z"/><path class="cls-6" d="M207.11,87.15h1.56V78.59c0-2.3.06-4.11.19-5.41a8,8,0,0,1,1-3.37,6.41,6.41,0,0,1,2.41-2.38,6.79,6.79,0,0,1,3.5-.91,7.07,7.07,0,0,1,4.91,2,6.1,6.1,0,0,1,1.85,3.32,29.3,29.3,0,0,1,.4,5.57v9.71h5.22a6.66,6.66,0,0,1,4.62,1.44,4.72,4.72,0,0,1,1.6,3.68,4.14,4.14,0,0,1-2.27,4,14.88,14.88,0,0,1-6.51,1.15h-2.66v26.22a44.28,44.28,0,0,0,.23,5.15,5.28,5.28,0,0,0,1.26,2.93,4.26,4.26,0,0,0,3.31,1.12,17.53,17.53,0,0,0,3.4-.45,18.07,18.07,0,0,1,3.34-.44,4.27,4.27,0,0,1,3.11,1.39,4.65,4.65,0,0,1,1.39,3.42q0,3.45-3.77,5.27t-10.81,1.83q-6.69,0-10.14-2.24a10.45,10.45,0,0,1-4.52-6.22,42.39,42.39,0,0,1-1.07-10.61V97.45h-1.88a6.77,6.77,0,0,1-4.7-1.47,4.77,4.77,0,0,1-1.62-3.71,4.62,4.62,0,0,1,1.7-3.68A7.45,7.45,0,0,1,207.11,87.15Z"/><path class="cls-6" d="M288.29,118.4h-27.9a19.05,19.05,0,0,0,2,8.57,13.12,13.12,0,0,0,12,7.47,17.1,17.1,0,0,0,4.67-.6,15.27,15.27,0,0,0,4.1-1.88,31.49,31.49,0,0,0,3.66-2.75c1.11-1,2.56-2.3,4.34-4a4.64,4.64,0,0,1,3.13-.94,5.16,5.16,0,0,1,3.55,1.2,4.29,4.29,0,0,1,1.36,3.4,9.28,9.28,0,0,1-1.51,4.52,17.92,17.92,0,0,1-4.58,5,25.91,25.91,0,0,1-7.67,4,33.29,33.29,0,0,1-10.64,1.56q-13.74,0-21.37-7.83t-7.62-21.27a35.36,35.36,0,0,1,1.88-11.73,25.89,25.89,0,0,1,5.48-9.27,23.92,23.92,0,0,1,8.88-5.93,31.82,31.82,0,0,1,11.71-2.06,27.77,27.77,0,0,1,14.34,3.52,23.2,23.2,0,0,1,9,9.12,23.92,23.92,0,0,1,3,11.39q0,5.39-3.08,7T288.29,118.4Zm-27.9-8.1h25.86q-.51-7.32-3.94-11a11.81,11.81,0,0,0-9-3.63,11.41,11.41,0,0,0-8.75,3.69Q261.13,103.09,260.39,110.3Z"/><path class="cls-6" d="M330.5,123.31v11.91q0,4.34-2,6.5a6.79,6.79,0,0,1-5.18,2.17,6.52,6.52,0,0,1-5.06-2.19q-2-2.19-2-6.48V95.51q0-9.62,6.95-9.61c2.37,0,4.07.75,5.12,2.25A12.37,12.37,0,0,1,330,94.78a25,25,0,0,1,5.25-6.63,10.86,10.86,0,0,1,7.19-2.25,18.36,18.36,0,0,1,8.72,2.25c2.82,1.49,4.23,3.48,4.23,5.95a5.67,5.67,0,0,1-1.8,4.31,5.6,5.6,0,0,1-3.89,1.7,17.66,17.66,0,0,1-3.79-1,17.7,17.7,0,0,0-5.3-1,7.79,7.79,0,0,0-5.12,1.64,10.52,10.52,0,0,0-3.08,4.89,33.71,33.71,0,0,0-1.52,7.71Q330.5,116.88,330.5,123.31Z"/><path class="cls-6" d="M380.45,93.79v1.72a24.87,24.87,0,0,1,8.23-7.29,22,22,0,0,1,10.26-2.32A20.51,20.51,0,0,1,409,88.36a15.6,15.6,0,0,1,6.63,6.94,16.67,16.67,0,0,1,1.83,5.65,58.09,58.09,0,0,1,.42,7.73v26.54c0,2.86-.66,5-2,6.48a7.06,7.06,0,0,1-10.27,0,9.43,9.43,0,0,1-2-6.43V111.45q0-7-2-10.79t-7.81-3.74A11.53,11.53,0,0,0,387,99.2a13,13,0,0,0-4.6,6.24c-.7,2.12-1.05,6.1-1.05,11.91v17.87q0,4.34-2,6.5a6.75,6.75,0,0,1-5.2,2.17,6.47,6.47,0,0,1-5.06-2.24,9.38,9.38,0,0,1-2-6.43V94q0-4.08,1.78-6.09a6.14,6.14,0,0,1,4.86-2,6.6,6.6,0,0,1,3.39.89,6.36,6.36,0,0,1,2.43,2.66A9.41,9.41,0,0,1,380.45,93.79Z"/><path class="cls-6" d="M476.21,118.4h-27.9a18.92,18.92,0,0,0,2,8.57,13.11,13.11,0,0,0,12,7.47,17.12,17.12,0,0,0,4.68-.6,15.41,15.41,0,0,0,4.1-1.88,32.37,32.37,0,0,0,3.66-2.75c1.11-1,2.56-2.3,4.33-4a4.67,4.67,0,0,1,3.14-.94,5.17,5.17,0,0,1,3.55,1.2,4.29,4.29,0,0,1,1.36,3.4,9.31,9.31,0,0,1-1.52,4.52,17.87,17.87,0,0,1-4.57,5,26.1,26.1,0,0,1-7.68,4,33.22,33.22,0,0,1-10.63,1.56q-13.74,0-21.37-7.83t-7.63-21.27a35.62,35.62,0,0,1,1.88-11.73,26.05,26.05,0,0,1,5.49-9.27A23.76,23.76,0,0,1,450,87.86a31.8,31.8,0,0,1,11.7-2.06A27.78,27.78,0,0,1,476,89.32a23.26,23.26,0,0,1,9,9.12,24,24,0,0,1,3,11.39c0,3.59-1,5.91-3.08,7S479.94,118.4,476.21,118.4Zm-27.9-8.1h25.86q-.53-7.32-3.94-11a11.82,11.82,0,0,0-9-3.63,11.41,11.41,0,0,0-8.75,3.69Q449,103.09,448.31,110.3Z"/><path class="cls-6" d="M505,87.15h1.57V78.59c0-2.3.06-4.11.18-5.41a8.19,8.19,0,0,1,1-3.37,6.41,6.41,0,0,1,2.41-2.38,6.79,6.79,0,0,1,3.5-.91,7.07,7.07,0,0,1,4.91,2,6.1,6.1,0,0,1,1.85,3.32,29.46,29.46,0,0,1,.39,5.57v9.71h5.23a6.66,6.66,0,0,1,4.62,1.44,4.72,4.72,0,0,1,1.6,3.68,4.13,4.13,0,0,1-2.28,4,14.8,14.8,0,0,1-6.5,1.15h-2.67v26.22a41.74,41.74,0,0,0,.24,5.15,5.35,5.35,0,0,0,1.25,2.93,4.29,4.29,0,0,0,3.32,1.12,17.53,17.53,0,0,0,3.4-.45,18.07,18.07,0,0,1,3.34-.44,4.27,4.27,0,0,1,3.11,1.39,4.65,4.65,0,0,1,1.39,3.42q0,3.45-3.77,5.27t-10.81,1.83q-6.69,0-10.14-2.24a10.45,10.45,0,0,1-4.52-6.22,42.39,42.39,0,0,1-1.07-10.61V97.45h-1.88A6.77,6.77,0,0,1,500,96a4.77,4.77,0,0,1-1.62-3.71,4.62,4.62,0,0,1,1.7-3.68A7.42,7.42,0,0,1,505,87.15Z"/><path class="cls-7" d="M142,261h2.73v-3.44a22.06,22.06,0,0,1,1.37-8.55,8.65,8.65,0,0,1,4.62-4.61,22.31,22.31,0,0,1,8.92-1.45q10,0,10,4.91a3.89,3.89,0,0,1-1.05,2.73,3.26,3.26,0,0,1-2.48,1.13,17.19,17.19,0,0,1-2.31-.25,18.44,18.44,0,0,0-2.77-.25q-3.11,0-4,1.83a12.28,12.28,0,0,0-.88,5.22V261h2.81q6.55,0,6.55,4,0,2.82-1.74,3.57a12.46,12.46,0,0,1-4.81.76h-2.81v30.36a7.46,7.46,0,0,1-1.62,5.18,5.39,5.39,0,0,1-4.18,1.79,5.25,5.25,0,0,1-4.05-1.79,7.46,7.46,0,0,1-1.62-5.18V269.31h-3.15a6,6,0,0,1-3.94-1.16,3.71,3.71,0,0,1-1.39-3C136.29,262.41,138.21,261,142,261Z"/><path class="cls-8" d="M334.62,249.26a7.51,7.51,0,0,1-5.09-1.82,7.1,7.1,0,0,1,.05-10.17,7.33,7.33,0,0,1,5-2,7.52,7.52,0,0,1,4.92,1.78,6.37,6.37,0,0,1,2.14,5.17,6.54,6.54,0,0,1-2.09,5.15A7.23,7.23,0,0,1,334.62,249.26ZM341.68,264v41.22q0,4.29-2,6.48a6.75,6.75,0,0,1-5.17,2.19,6.48,6.48,0,0,1-5.1-2.24,9.52,9.52,0,0,1-2-6.43v-40.8c0-2.83.66-4.95,2-6.38a6.59,6.59,0,0,1,5.1-2.14,6.82,6.82,0,0,1,5.17,2.14A8.3,8.3,0,0,1,341.68,264Z"/><path class="cls-8" d="M399.77,305.74v-1.41a36.57,36.57,0,0,1-5.67,5.36,21.29,21.29,0,0,1-6.06,3.13,22.59,22.59,0,0,1-7.13,1.07,20.93,20.93,0,0,1-9.48-2.17,21.92,21.92,0,0,1-7.55-6.19,28.17,28.17,0,0,1-4.84-9.45,40.62,40.62,0,0,1-1.64-11.76q0-13.36,6.53-20.84T381.12,256a23.14,23.14,0,0,1,10.4,2.12,28.9,28.9,0,0,1,8.25,6.51V243.57q0-4.4,1.75-6.64a6,6,0,0,1,5-2.24,6.2,6.2,0,0,1,5,2.06q1.75,2.07,1.75,6.09v62.9q0,4.08-1.88,6.12a6.32,6.32,0,0,1-4.86,2,6.21,6.21,0,0,1-4.83-2.11A8.72,8.72,0,0,1,399.77,305.74Zm-28.06-20.95a24.22,24.22,0,0,0,1.81,9.88,13.8,13.8,0,0,0,4.93,6.14,12.24,12.24,0,0,0,6.85,2.06,12.58,12.58,0,0,0,6.87-2,13.46,13.46,0,0,0,5-6A24.22,24.22,0,0,0,399,284.79a23.56,23.56,0,0,0-1.86-9.79,14.65,14.65,0,0,0-5-6.27,12,12,0,0,0-6.93-2.17,11.69,11.69,0,0,0-7,2.22,14.26,14.26,0,0,0-4.78,6.37A25.37,25.37,0,0,0,371.71,284.79Z"/><path class="cls-8" d="M477.77,295.24a16.53,16.53,0,0,1-11.36,16.48,38,38,0,0,1-13.67,2.17,33.25,33.25,0,0,1-13.16-2.35,19.11,19.11,0,0,1-8.1-5.88,11.85,11.85,0,0,1-2.61-7.08,5.48,5.48,0,0,1,1.67-4,5.73,5.73,0,0,1,4.23-1.67,5,5,0,0,1,3.45,1.1,12,12,0,0,1,2.3,3.08,15.56,15.56,0,0,0,5.25,5.69,15.76,15.76,0,0,0,8.33,1.89,12.06,12.06,0,0,0,7-1.91c1.83-1.27,2.74-2.73,2.74-4.36a6,6,0,0,0-2.84-5.49,35.13,35.13,0,0,0-9.38-3.29,77.89,77.89,0,0,1-12-3.84,19.77,19.77,0,0,1-7.4-5.3,12.21,12.21,0,0,1-2.77-8.1,14.32,14.32,0,0,1,2.56-8.1,17.68,17.68,0,0,1,7.55-6.09,29.05,29.05,0,0,1,12-2.27,39.36,39.36,0,0,1,10,1.15,25,25,0,0,1,7.37,3.08,15.32,15.32,0,0,1,4.49,4.29A8.34,8.34,0,0,1,475,269a5.35,5.35,0,0,1-1.64,4,6.55,6.55,0,0,1-4.68,1.56,5.73,5.73,0,0,1-3.74-1.25,25.11,25.11,0,0,1-3.52-3.76,13,13,0,0,0-3.82-3.35,12.07,12.07,0,0,0-6-1.25,11.66,11.66,0,0,0-6.43,1.65,4.78,4.78,0,0,0-2.56,4.1,4.44,4.44,0,0,0,1.88,3.68,15.55,15.55,0,0,0,5.07,2.38c2.12.63,5.05,1.39,8.78,2.3A47.44,47.44,0,0,1,469.23,283a18,18,0,0,1,6.37,5.31A11.7,11.7,0,0,1,477.77,295.24Z"/></g></g></svg>